<?xml version="1.0" encoding="UTF-8" standalone="no"?>
<!-- Created with Inkscape (http://www.inkscape.org/) -->

<svg
   xmlns:dc="http://purl.org/dc/elements/1.1/"
   xmlns:cc="http://creativecommons.org/ns#"
   xmlns:rdf="http://www.w3.org/1999/02/22-rdf-syntax-ns#"
   xmlns:svg="http://www.w3.org/2000/svg"
   xmlns="http://www.w3.org/2000/svg"
   xmlns:sodipodi="http://sodipodi.sourceforge.net/DTD/sodipodi-0.dtd"
   xmlns:inkscape="http://www.inkscape.org/namespaces/inkscape"
   width="558.24231"
   height="170.38734"
   id="svg2"
   version="1.1"
   inkscape:version="0.48.4 r9939"
   sodipodi:docname="button.svg"
   inkscape:export-filename="C:\Users\jrm219\Google Drive\Work\CS Field Guide Website\Interactive Prototypes\Sorting Prototype\Textures\longButton.png"
   inkscape:export-xdpi="60.66"
   inkscape:export-ydpi="60.66">
  <defs
     id="defs4" />
  <sodipodi:namedview
     id="base"
     pagecolor="#ffffff"
     bordercolor="#666666"
     borderopacity="1.0"
     inkscape:pageopacity="0.0"
     inkscape:pageshadow="2"
     inkscape:zoom="1.1767224"
     inkscape:cx="318.70221"
     inkscape:cy="82.857087"
     inkscape:document-units="px"
     inkscape:current-layer="layer1"
     showgrid="false"
     showborder="true"
     inkscape:window-width="1920"
     inkscape:window-height="1028"
     inkscape:window-x="-8"
     inkscape:window-y="-8"
     inkscape:window-maximized="1"
     fit-margin-top="0"
     fit-margin-left="0"
     fit-margin-right="0"
     fit-margin-bottom="0" />
  <metadata
     id="metadata7">
    <rdf:RDF>
      <cc:Work
         rdf:about="">
        <dc:format>image/svg+xml</dc:format>
        <dc:type
           rdf:resource="http://purl.org/dc/dcmitype/StillImage" />
        <dc:title></dc:title>
      </cc:Work>
    </rdf:RDF>
  </metadata>
  <g
     inkscape:label="Layer 1"
     inkscape:groupmode="layer"
     id="layer1"
     transform="translate(-1.3284033,-753.04719)">
    <rect
       style="fill:#fff6d5;fill-opacity:1;stroke:none"
       id="rect3087"
       width="544.85205"
       height="158.79509"
       x="6.9134603"
       y="759.39374" />
    <path
       style="fill:#ff2a2a;fill-opacity:1;stroke:none"
       id="path3029"
       d="m 12.613658,754.34995 c 9.719642,-0.6228 11.999698,-0.53685 18.51625,-0.63592 15.045221,-0.11989 30.099735,-0.08 45.148842,-0.15518 26.79278,-0.33453 53.59701,-0.44001 80.40782,-0.51166 39.26097,0.0548 78.52425,0.15931 117.78103,0.36466 92.16895,1.03156 190.98165,-0.0693 268.15906,0.50713 17.56177,1.21455 17.61266,5.80116 13.92617,10.99988 -15.39171,0.78945 -30.99491,0.36598 -46.50666,0.38984 -34.846,-0.25716 -69.70386,-0.3123 -104.55169,-0.54192 -43.82038,-0.23001 -87.64337,-0.3999 -131.46258,-0.65468 -39.16933,-0.11963 -78.33216,-0.382 -117.50221,-0.48119 -26.70138,-0.16079 -53.40241,-0.29598 -80.098078,-0.54432 -15.093113,-0.0362 -41.260968,-0.18347 -56.349272,-0.3124 -21.135623,-0.72143 -18.8288545,-5.82912 -7.468689,-8.42411 z"
       inkscape:connector-curvature="0"
       sodipodi:nodetypes="ccccccccccccccc" />
    <path
       style="fill:#ff2a2a;fill-opacity:1;stroke:none"
       id="path3029-1"
       d="m 557.86237,758.31288 c 0.64812,2.82125 0.56812,3.48443 0.68419,5.37781 0.1591,4.37203 0.1585,8.74769 0.27286,13.12111 0.40439,7.78507 0.57975,15.57483 0.72129,23.36668 0.0477,11.41109 0.0454,22.82318 -0.0575,34.23396 0.002,12.74409 -0.0809,25.48734 -0.14778,38.23108 -0.0194,1.95777 -0.0459,3.91546 -0.0577,5.87328 -0.0402,6.60701 0.0318,4.42291 -0.0709,10.8612 -0.0734,4.59846 -0.20399,9.19641 -0.3304,13.79367 -0.29353,4.61714 -0.29228,9.30871 -1.73098,13.7748 -2.27015,5.39845 -5.97554,6.14137 -7.79868,2.22041 -0.37063,-0.85422 -0.46629,-1.79312 -0.63493,-2.70152 -0.82955,-4.46882 -0.44677,-9.00618 -0.51107,-13.51439 0.16632,-10.12912 0.13058,-20.26052 0.26936,-30.39004 0.11574,-12.73727 0.17137,-25.47496 0.31191,-38.21206 0.0175,-11.38485 0.17779,-22.76867 0.17486,-34.15361 0.0912,-7.76142 0.15675,-15.52259 0.33548,-23.28287 -0.003,-4.38686 0.0759,-11.99315 0.1655,-16.37916 0.6663,-6.1471 5.7799,-5.50677 8.40446,-2.22035 z"
       inkscape:connector-curvature="0"
       sodipodi:nodetypes="ccccccsscccsccccccc" />
    <path
       style="fill:#ff2a2a;fill-opacity:1;stroke:none"
       id="path3029-1-7"
       d="M 4.0238413,917.21371 C 3.3469564,914.41146 3.4201871,913.75035 3.2847965,911.86637 3.0810738,907.51506 3.0370075,903.15849 2.8780021,898.8053 2.3941744,891.05834 2.1393113,883.30437 1.9182373,875.54795 1.7540305,864.18712 1.6398736,852.82479 1.6263763,841.46274 1.4938518,828.77427 1.4470962,816.08577 1.3838743,803.39693 c -5.709e-4,-1.94942 0.00594,-3.89885 -0.00228,-5.84825 -0.027177,-6.5786 -0.07705,-4.40328 -0.039967,-10.81453 0.026492,-4.57914 0.1100974,-9.1584 0.1895801,-13.73695 0.2463901,-4.59998 0.1972366,-9.27108 1.5902709,-13.73241 2.2149306,-5.39816 5.912547,-6.1758 7.7756097,-2.29056 0.379325,0.84667 0.48457,1.78053 0.662468,2.68321 0.875132,4.44083 0.538685,8.96234 0.648999,13.45024 -0.06291,10.08665 0.07625,20.17348 0.04088,30.26023 0.01427,12.68289 0.08866,25.36559 0.07815,38.04855 0.09868,11.33538 0.05464,22.67117 0.173788,34.00641 -0.01193,7.7285 0.0017,15.45648 -0.0978,23.18477 0.04796,4.36769 0.04653,11.94159 0.0017,16.3094 -0.603522,6.12709 -5.7233949,5.54192 -8.3813584,2.29667 z"
       inkscape:connector-curvature="0"
       sodipodi:nodetypes="ccccccsscccsccccccc" />
    <path
       style="fill:#ff2a2a;fill-opacity:1;stroke:none"
       id="path3029-4"
       d="m 15.875616,913.75864 c 9.323669,-0.6485 11.51551,-0.56862 17.772917,-0.68498 14.449155,-0.1597 28.910373,-0.15975 43.364163,-0.27474 25.728854,-0.40544 51.473294,-0.58192 77.224694,-0.7246 37.71282,-0.0491 75.4289,-0.0485 113.14067,0.0525 42.11822,-0.006 84.23365,0.0773 126.35081,0.14233 6.47025,0.0194 12.9403,0.0451 19.41068,0.0591 21.83567,0.0394 14.61732,-0.0326 35.89541,0.0694 15.19754,0.0726 30.39351,0.20275 45.58728,0.32847 15.25928,0.2929 39.79392,-0.3464 54.55463,1.09161 9.4505,-0.38626 10.63275,7.56817 -1.90032,8.75443 -3.36154,0.88866 -37.3873,0.77601 -53.37921,0.82963 -33.47606,-0.16489 -66.95952,-0.12767 -100.43686,-0.26481 -42.09579,-0.11396 -84.19287,-0.1678 -126.28805,-0.30649 -37.62606,-0.016 -75.24876,-0.17443 -112.87508,-0.17003 -25.65097,-0.0901 -51.30099,-0.15627 -76.948241,-0.33218 -14.498243,0.006 -39.636455,-0.0739 -54.131847,-0.16489 -20.3160077,-0.66545 -18.2019193,-5.77916 -7.341684,-8.40418 z"
       inkscape:connector-curvature="0"
       sodipodi:nodetypes="ccccccssccccccccccc" />
  </g>
</svg>
