<?xml version="1.0" encoding="UTF-8" standalone="no"?>
<!-- Created with Inkscape (http://www.inkscape.org/) -->

<svg
   xmlns:dc="http://purl.org/dc/elements/1.1/"
   xmlns:cc="http://creativecommons.org/ns#"
   xmlns:rdf="http://www.w3.org/1999/02/22-rdf-syntax-ns#"
   xmlns:svg="http://www.w3.org/2000/svg"
   xmlns="http://www.w3.org/2000/svg"
   xmlns:sodipodi="http://sodipodi.sourceforge.net/DTD/sodipodi-0.dtd"
   xmlns:inkscape="http://www.inkscape.org/namespaces/inkscape"
   width="300"
   height="300"
   id="svg2"
   version="1.1"
   inkscape:version="0.48.4 r9939"
   sodipodi:docname="container.svg"
   inkscape:export-filename="C:\Users\jrm219\Google Drive\Work\CS Field Guide Website\Interactive Prototypes\Sorting Prototype\Textures\container.png"
   inkscape:export-xdpi="60.180614"
   inkscape:export-ydpi="60.180614">
  <defs
     id="defs4" />
  <sodipodi:namedview
     id="base"
     pagecolor="#ffffff"
     bordercolor="#666666"
     borderopacity="1.0"
     inkscape:pageopacity="0.0"
     inkscape:pageshadow="2"
     inkscape:zoom="1.6641368"
     inkscape:cx="166.41203"
     inkscape:cy="125.27594"
     inkscape:document-units="px"
     inkscape:current-layer="layer1"
     showgrid="false"
     showborder="true"
     inkscape:window-width="1920"
     inkscape:window-height="1028"
     inkscape:window-x="-8"
     inkscape:window-y="-8"
     inkscape:window-maximized="1" />
  <metadata
     id="metadata7">
    <rdf:RDF>
      <cc:Work
         rdf:about="">
        <dc:format>image/svg+xml</dc:format>
        <dc:type
           rdf:resource="http://purl.org/dc/dcmitype/StillImage" />
        <dc:title></dc:title>
      </cc:Work>
    </rdf:RDF>
  </metadata>
  <g
     inkscape:label="Layer 1"
     inkscape:groupmode="layer"
     id="layer1"
     transform="translate(0,-752.36218)">
    <path
       style="fill:#5599ff;fill-opacity:1;stroke:none"
       id="path3029-17"
       d="m 222.69869,753.77678 c 16.58246,0.17712 34.95353,0.58153 47.91169,1.04489 20.76372,1.98601 17.88847,12.35474 4.11001,12.06711 -15.89683,-0.37147 -36.32855,-0.38599 -52.22617,-0.70881 -10.18549,0.54673 -20.39759,-12.34301 0.20447,-12.40319 z"
       inkscape:connector-curvature="0"
       sodipodi:nodetypes="ccccc" />
    <path
       style="fill:#5599ff;fill-opacity:1;stroke:none"
       id="path3029-17-4"
       d="m 177.8908,765.81075 c -17.71289,-0.0965 -37.33749,-0.38653 -51.18089,-0.74777 -22.18933,-1.67278 -19.17812,-10.80424 -4.4596,-10.60051 16.98167,0.26991 38.80503,0.20958 55.78726,0.43669 10.87605,-0.51738 21.85809,10.78494 -0.14677,10.91159 z"
       inkscape:connector-curvature="0"
       sodipodi:nodetypes="ccccc" />
    <path
       style="fill:#5599ff;fill-opacity:1;stroke:none"
       id="path3029-17-9"
       d="m 26.20143,753.62961 c 16.582142,-0.20473 34.957653,-0.2234 47.923046,-0.0585 20.803942,1.50742 7.545459,13.00187 2.899573,11.33192 -15.901169,-0.005 -35.477989,-0.61174 -51.378827,-0.56844 -10.170192,0.78109 -20.0389953,-10.17047 0.556208,-10.70498 z"
       inkscape:connector-curvature="0"
       sodipodi:nodetypes="ccccc" />
    <path
       style="fill:#5599ff;fill-opacity:1;stroke:none"
       id="path3029-17-48"
       d="m 74.498638,1052.5911 c -16.58246,-0.1771 -34.95353,-0.5815 -47.91169,-1.0449 -20.7637203,-1.986 -17.8884703,-12.3547 -4.11001,-12.0671 15.89683,0.3715 36.32855,0.386 52.22617,0.7088 10.18549,-0.5467 20.39759,12.3431 -0.20447,12.4032 z"
       inkscape:connector-curvature="0"
       sodipodi:nodetypes="ccccc" />
    <path
       style="fill:#5599ff;fill-opacity:1;stroke:none"
       id="path3029-17-4-8"
       d="m 119.18816,1041.159 c 17.71071,-0.2941 37.33694,-0.4358 51.18494,-0.3795 22.2208,1.1838 19.4114,10.3794 4.69195,10.4997 -16.98349,0.1041 -38.80023,0.6451 -55.78335,0.792 -10.86202,0.7567 -22.090281,-10.301 -0.0935,-10.9122 z"
       inkscape:connector-curvature="0"
       sodipodi:nodetypes="ccccc" />
    <path
       style="fill:#5599ff;fill-opacity:1;stroke:none"
       id="path3029-17-9-2"
       d="m 271.29637,1051.6867 c -16.58215,0.2047 -34.95766,0.2234 -47.92305,0.058 -20.80394,-1.5074 -7.54546,-13.0019 -2.89957,-11.3319 15.90117,0 35.47799,0.6117 51.37882,0.5684 10.1702,-0.7811 20.039,10.1705 -0.5562,10.705 z"
       inkscape:connector-curvature="0"
       sodipodi:nodetypes="ccccc" />
    <path
       style="fill:#5599ff;fill-opacity:1;stroke:none"
       id="path3029-17-45"
       d="m 13.53621,974.25191 c -0.17712,16.58246 -0.58153,34.95349 -1.04489,47.91159 -1.98601,20.7638 -12.35474,17.8885 -12.06711,4.1101 0.37147,-15.8969 0.38599,-36.32854 0.70881,-52.22616 -0.54673,-10.18549 12.34301,-20.3976 12.40319,0.20447 z"
       inkscape:connector-curvature="0"
       sodipodi:nodetypes="ccccc" />
    <path
       style="fill:#5599ff;fill-opacity:1;stroke:none"
       id="path3029-17-4-5"
       d="m 1.50224,931.44401 c 0.0965,-17.71289 0.38653,-37.33749 0.74777,-51.18089 1.67278,-22.18933 10.80424,-19.17812 10.60051,-4.4596 -0.26991,16.98167 -0.20958,38.80503 -0.43669,55.78726 0.51738,10.87605 -10.78494,21.85809 -10.91159,-0.14677 z"
       inkscape:connector-curvature="0"
       sodipodi:nodetypes="ccccc" />
    <path
       style="fill:#5599ff;fill-opacity:1;stroke:none"
       id="path3029-17-9-1"
       d="m 13.68338,779.75464 c 0.20473,16.58214 0.2234,34.95765 0.0585,47.92305 -1.50742,20.80394 -13.00187002,7.54545 -11.33192,2.89957 0.005,-15.90117 0.61174,-35.47799 0.56844,-51.37883 -0.78109,-10.17019 10.17047,-20.03899 10.70498,0.55621 z"
       inkscape:connector-curvature="0"
       sodipodi:nodetypes="ccccc" />
    <path
       style="fill:#5599ff;fill-opacity:1;stroke:none"
       id="path3029-17-45-7"
       d="m 285.21149,832.09838 c 0.17712,-16.58243 0.58153,-34.95353 1.04489,-47.91163 1.98601,-20.7638 12.35474,-17.8885 12.06711,-4.1101 -0.37147,15.8969 -0.38599,36.3286 -0.70881,52.2262 0.54673,10.18549 -12.34301,20.3976 -12.40319,-0.20447 z"
       inkscape:connector-curvature="0"
       sodipodi:nodetypes="ccccc" />
    <path
       style="fill:#5599ff;fill-opacity:1;stroke:none"
       id="path3029-17-4-5-1"
       d="m 298.07173,874.6881 c 0.66266,17.70075 1.21389,37.31975 1.44623,51.16591 -0.72034,22.24064 -9.97245,19.62351 -10.39966,4.90978 -0.45807,-16.97763 -1.45357,-38.77836 -1.95442,-55.75472 -0.98299,-10.84389 9.83832,-22.30019 10.90785,-0.32097 z"
       inkscape:connector-curvature="0"
       sodipodi:nodetypes="ccccc" />
    <path
       style="fill:#5599ff;fill-opacity:1;stroke:none"
       id="path3029-17-9-1-1"
       d="m 287.06432,1024.5956 c -0.20473,-16.5821 -0.2234,-34.95758 -0.0585,-47.923 1.50742,-20.80394 13.00187,-7.54545 11.33192,-2.89957 -0.005,15.90119 -0.61174,35.47797 -0.56844,51.37877 0.78109,10.1702 -10.17047,20.039 -10.70498,-0.5562 z"
       inkscape:connector-curvature="0"
       sodipodi:nodetypes="ccccc" />
  </g>
</svg>
