<?xml version="1.0" encoding="UTF-8" standalone="no"?>
<!-- Created with Inkscape (http://www.inkscape.org/) -->

<svg
   xmlns:dc="http://purl.org/dc/elements/1.1/"
   xmlns:cc="http://creativecommons.org/ns#"
   xmlns:rdf="http://www.w3.org/1999/02/22-rdf-syntax-ns#"
   xmlns:svg="http://www.w3.org/2000/svg"
   xmlns="http://www.w3.org/2000/svg"
   xmlns:sodipodi="http://sodipodi.sourceforge.net/DTD/sodipodi-0.dtd"
   xmlns:inkscape="http://www.inkscape.org/namespaces/inkscape"
   width="300"
   height="300"
   id="svg2"
   version="1.1"
   inkscape:version="0.48.4 r9939"
   sodipodi:docname="square5.svg"
   inkscape:export-filename="C:\Users\jrm219\Google Drive\Work\CS Field Guide Website\Interactive Prototypes\Sorting Prototype\Textures\square5.png"
   inkscape:export-xdpi="60.66"
   inkscape:export-ydpi="60.66">
  <defs
     id="defs4" />
  <sodipodi:namedview
     id="base"
     pagecolor="#ffffff"
     bordercolor="#666666"
     borderopacity="1.0"
     inkscape:pageopacity="0.0"
     inkscape:pageshadow="2"
     inkscape:zoom="4.7077415"
     inkscape:cx="293.66541"
     inkscape:cy="72.974848"
     inkscape:document-units="px"
     inkscape:current-layer="layer1"
     showgrid="false"
     showborder="true"
     inkscape:window-width="1920"
     inkscape:window-height="1028"
     inkscape:window-x="1912"
     inkscape:window-y="-8"
     inkscape:window-maximized="1" />
  <metadata
     id="metadata7">
    <rdf:RDF>
      <cc:Work
         rdf:about="">
        <dc:format>image/svg+xml</dc:format>
        <dc:type
           rdf:resource="http://purl.org/dc/dcmitype/StillImage" />
        <dc:title></dc:title>
      </cc:Work>
    </rdf:RDF>
  </metadata>
  <g
     inkscape:label="Layer 1"
     inkscape:groupmode="layer"
     id="layer1"
     transform="translate(0,-752.36218)">
    <rect
       style="fill:#55ddff;fill-opacity:1;stroke:none"
       id="rect3087"
       width="274.51746"
       height="278.12164"
       x="13.215282"
       y="11.666563"
       transform="translate(0,752.36218)" />
    <path
       style="fill:#0088aa;fill-opacity:1;stroke:none"
       id="path3029"
       d="m 10.466085,755.84707 c 4.924878,-1.1137 6.080776,-0.96854 9.383507,-1.15744 7.625527,-0.24544 15.256187,-0.21114 22.883801,-0.37822 13.579353,-0.64909 27.165108,-0.89703 40.754285,-1.08573 19.900022,0.003 39.801342,0.0939 59.699632,0.361 22.22424,0.0926 44.44634,0.33534 66.66945,0.54928 3.41396,0.0489 6.82776,0.11016 10.24189,0.14564 11.52155,0.12073 7.71327,-0.0223 18.94011,0.20671 8.01859,0.16356 16.03591,0.42714 24.0521,0.68349 8.04945,0.54919 16.23103,0.58262 24.00837,3.13634 9.39692,4.01705 10.66417,10.51245 3.81236,13.67575 -1.4924,0.64263 -3.13048,0.80305 -4.71594,1.0915 -7.7994,1.41896 -15.70916,0.71407 -23.57141,0.79243 -17.66277,-0.36825 -35.33101,-0.38264 -52.99466,-0.70266 -22.21146,-0.29952 -44.42409,-0.49375 -66.63503,-0.83667 -19.85375,-0.11721 -39.70456,-0.48438 -59.558611,-0.56575 -13.534322,-0.21865 -27.0684,-0.39248 -40.600061,-0.76449 -7.650213,-0.0278 -20.914078,-0.22405 -28.562097,-0.4143 -10.7147268,-1.2137 -9.5589192,-10.16497 -3.807699,-14.73673 z"
       inkscape:connector-curvature="0"
       sodipodi:nodetypes="ccccccsscccsccccccc" />
    <path
       style="fill:#0088aa;fill-opacity:1;stroke:none"
       id="path3029-1"
       d="m 294.92413,763.98417 c 1.14258,4.91826 1.0042,6.07499 1.21247,9.37656 0.29017,7.62396 0.30064,15.25468 0.51247,22.88118 0.72875,13.57531 1.05639,27.15939 1.32481,40.74723 0.11364,19.89968 0.1396,39.80121 -0.0107,59.70073 0.0378,22.2244 -0.0746,44.44754 -0.15813,66.67152 -0.0289,3.41419 -0.0701,6.82829 -0.0856,10.24257 -0.0531,11.52205 0.0675,7.713 -0.0956,18.941 -0.11651,8.01944 -0.33305,16.03814 -0.54236,24.05564 -0.50195,8.0526 -0.48739,16.2342 -2.99544,24.0264 -3.96184,9.4203 -10.44969,10.7256 -13.65314,3.8926 -0.65138,-1.4887 -0.8214,-3.1258 -1.11915,-4.7095 -1.46469,-7.791 -0.80622,-15.7047 -0.9307,-23.5664 0.26461,-17.6646 0.17534,-35.33262 0.39173,-52.99785 0.16919,-22.21283 0.2331,-44.42622 0.4457,-66.63879 7.3e-4,-19.85409 0.25144,-39.70673 0.21632,-59.56091 0.13924,-13.53538 0.23367,-27.07024 0.52628,-40.60385 -0.0171,-7.65024 0.10135,-20.91504 0.24672,-28.56404 1.15082,-10.72166 10.10871,-9.61839 14.71414,-3.89409 z"
       inkscape:connector-curvature="0"
       sodipodi:nodetypes="ccccccsscccsccccccc" />
    <path
       style="fill:#0088aa;fill-opacity:1;stroke:none"
       id="path3029-1-7"
       d="m 6.049331,1040.4425 c -1.18553,-4.908 -1.05727,-6.0659 -1.2944,-9.3656 -0.35681,-7.6211 -0.43399,-15.2514 -0.71248,-22.8758 -0.8474,-13.56842 -1.29378,-27.14911 -1.68098,-40.73409 -0.2876,-19.89793 -0.48754,-39.79847 -0.51118,-59.69854 -0.23211,-22.22322 -0.314,-44.44649 -0.42473,-66.67036 -0.001,-3.41431 0.0104,-6.82864 -0.004,-10.24292 -0.0476,-11.52208 -0.13495,-7.71212 -0.07,-18.94111 0.0464,-8.02013 0.19283,-16.04047 0.33204,-24.05957 0.43154,-8.05663 0.34545,-16.23783 2.78528,-24.05163 3.87934,-9.4546 10.35553,-10.8166 13.61859,-4.0118 0.66437,1.4829 0.8487,3.1185 1.16028,4.6995 1.53275,7.7779 0.94348,15.6971 1.13669,23.55743 -0.11018,17.66626 0.13355,35.33283 0.0716,52.99927 0.025,22.21346 0.15529,44.42656 0.13688,66.64014 0.17284,19.85334 0.0957,39.70741 0.30438,59.56053 -0.0209,13.53608 0.003,27.07125 -0.17129,40.60695 0.084,7.6498 0.0815,20.9151 0.003,28.5651 -1.05704,10.7313 -10.02424,9.7064 -14.67953,4.0225 z"
       inkscape:connector-curvature="0"
       sodipodi:nodetypes="ccccccsscccsccccccc" />
    <path
       style="fill:#0088aa;fill-opacity:1;stroke:none"
       id="path3029-4"
       d="m 288.40477,1048.3322 c -4.87892,1.1358 -6.02586,0.9959 -9.30026,1.1997 -7.56098,0.2797 -15.12829,0.2798 -22.69169,0.4812 -13.46346,0.7101 -26.93506,1.0192 -40.41032,1.2691 -19.73444,0.086 -39.47058,0.085 -59.20448,-0.092 -22.03972,0.01 -44.07798,-0.1354 -66.117138,-0.2493 -3.385766,-0.034 -6.771436,-0.079 -10.157266,-0.1035 -11.426216,-0.069 -7.648985,0.057 -18.78343,-0.1215 -7.952595,-0.1271 -15.904378,-0.3551 -23.855008,-0.5753 -7.984916,-0.513 -16.09857,-0.5096 -23.822581,-3.0282 -9.3366479,-3.9748 -10.6223397,-10.4645 -3.841657,-13.6585 1.477112,-0.6494 3.100843,-0.8171 4.671826,-1.1127 7.728171,-1.4541 15.575254,-0.7848 23.371734,-0.8985 17.517433,0.2888 35.038723,0.2236 52.556818,0.4638 22.027982,0.1996 44.056642,0.2939 66.084292,0.5368 19.68906,0.028 39.37633,0.3055 59.06553,0.2978 13.42268,0.1578 26.84489,0.2737 40.26563,0.5818 7.58668,-0.01 20.74106,0.1295 28.32625,0.2888 10.63099,1.1655 9.52473,10.1219 3.84177,14.7195 z"
       inkscape:connector-curvature="0"
       sodipodi:nodetypes="ccccccsscccsccccccc" />
    <path
       style="fill:#0088aa;fill-opacity:1;stroke:none"
       id="path3159"
       d="m 66.689258,969.71596 c 3.351147,-7.3409 8.958198,-13.42435 14.154317,-19.49787 12.73981,-14.26067 26.770695,-27.29477 40.797085,-40.26614 17.02387,-15.53978 34.79608,-30.25862 53.08068,-44.29096 3.79441,-2.91198 7.64707,-5.74727 11.47061,-8.6209 10.55123,-7.45725 20.85367,-15.45739 32.28391,-21.57845 3.07737,-1.64798 6.30023,-3.01113 9.49505,-4.41798 2.66222,-1.17232 5.27871,-2.50398 8.07154,-3.31755 2.32133,-0.67622 4.7775,-0.74755 7.16626,-1.12133 1.281,-0.78266 2.38786,1.02896 1.10685,1.81162 l 0,0 c -1.41078,1.94766 -2.59575,4.08081 -4.23235,5.84297 -1.94995,2.09957 -4.28679,3.80372 -6.46066,5.67048 -2.58917,2.22339 -5.13642,4.5008 -7.82775,6.59938 -9.98932,7.78923 -20.84538,14.4131 -30.87141,22.15437 -9.43685,7.06067 -13.26362,9.81765 -22.51527,17.1685 -14.03059,11.14794 -27.57914,22.89426 -41.01237,34.74916 -13.8552,12.56946 -27.39272,25.47384 -40.539685,38.78511 -2.905057,2.95643 -4.922641,4.98508 -7.736687,7.93637 -2.321845,2.43507 -4.591599,4.94325 -7.103714,7.19022 -0.423923,0.37918 -0.886924,0.71226 -1.330386,1.06839 -4.14746,5.65404 -12.14348,-0.21136 -7.99602,-5.86539 z"
       inkscape:connector-curvature="0" />
    <path
       style="fill:#0088aa;fill-opacity:1;stroke:none"
       id="path3161"
       d="m 109.12232,855.95271 c 0.39987,0.61016 0.84017,1.19565 1.1996,1.83046 1.46878,2.59405 2.02746,4.10407 3.07313,7.0415 2.25326,6.32975 3.88965,12.81513 5.56892,19.31368 4.10454,17.61538 7.20389,35.44565 10.42595,53.23802 1.13484,7.33882 2.84742,14.59103 3.94243,21.93604 0.51284,3.43995 0.97413,7.34218 0.65102,10.85003 -0.13589,1.47522 -0.56776,2.90802 -0.85163,4.36203 0.54513,1.6297 -1.75961,2.40064 -2.30475,0.77094 l 0,0 c -1.12262,-1.05346 -2.38947,-1.97175 -3.36786,-3.16036 -2.35569,-2.86184 -4.06891,-6.61029 -5.3487,-10.02777 -2.68439,-7.16824 -4.22916,-14.73171 -6.04727,-22.14153 -3.64354,-17.5673 -6.60485,-35.26449 -10.25453,-52.83141 -0.91038,-4.62775 -1.87275,-9.24533 -2.75631,-13.87828 -0.34163,-1.79133 -1.40077,-7.65778 -1.63019,-9.77446 -0.27902,-2.57438 -0.17234,-3.14021 -0.0479,-5.46962 -1.456125,-5.47874 6.29198,-7.53801 7.7481,-2.05927 z"
       inkscape:connector-curvature="0" />
    <path
       style="fill:#0088aa;fill-opacity:1;stroke:none"
       id="path3163"
       d="m 167.87367,832.58583 c 0.34432,2.33917 1.02681,4.62455 1.32547,6.97088 0.1697,1.3332 0.83378,11.27787 0.88937,12.08224 0.73618,10.65311 0.32741,4.63696 1.07663,15.83711 1.3584,18.3449 2.48127,36.70244 3.24142,55.08235 -0.0988,8.37252 0.56193,17.06461 -1.65827,25.26564 -0.72358,2.67275 -1.98989,5.16807 -2.98483,7.75211 0.12274,1.09931 -1.43191,1.27289 -1.55465,0.17359 l 0,0 c -1.54461,-2.33885 -3.36928,-4.51517 -4.63384,-7.01656 -3.92537,-7.76472 -4.7435,-16.69195 -5.95302,-25.14215 -0.24778,-3.04371 -0.54158,-6.08403 -0.74336,-9.13115 -1.02782,-15.52137 -1.19308,-31.07884 -1.12899,-46.62837 0.13698,-6.95968 0.10666,-9.47564 0.53983,-16.29528 0.18599,-2.92798 0.69632,-9.3018 1.26893,-12.4042 0.26761,-1.44992 1.43116,-5.40035 1.92706,-7.12455 0.40894,-5.93139 8.7972,-5.35305 8.38825,0.57834 z"
       inkscape:connector-curvature="0" />
  </g>
</svg>
