<?xml version="1.0" encoding="UTF-8" standalone="no"?>
<!-- Created with Inkscape (http://www.inkscape.org/) -->

<svg
   xmlns:dc="http://purl.org/dc/elements/1.1/"
   xmlns:cc="http://creativecommons.org/ns#"
   xmlns:rdf="http://www.w3.org/1999/02/22-rdf-syntax-ns#"
   xmlns:svg="http://www.w3.org/2000/svg"
   xmlns="http://www.w3.org/2000/svg"
   xmlns:sodipodi="http://sodipodi.sourceforge.net/DTD/sodipodi-0.dtd"
   xmlns:inkscape="http://www.inkscape.org/namespaces/inkscape"
   width="300"
   height="300"
   id="svg2"
   version="1.1"
   inkscape:version="0.48.4 r9939"
   sodipodi:docname="square7.svg"
   inkscape:export-filename="C:\Users\jrm219\Google Drive\Work\CS Field Guide Website\Interactive Prototypes\Sorting Prototype\Textures\square7.png"
   inkscape:export-xdpi="60.681831"
   inkscape:export-ydpi="60.681831">
  <defs
     id="defs4" />
  <sodipodi:namedview
     id="base"
     pagecolor="#ffffff"
     bordercolor="#666666"
     borderopacity="1.0"
     inkscape:pageopacity="0.0"
     inkscape:pageshadow="2"
     inkscape:zoom="2.3538708"
     inkscape:cx="152.61335"
     inkscape:cy="143.23027"
     inkscape:document-units="px"
     inkscape:current-layer="layer1"
     showgrid="false"
     showborder="true"
     inkscape:window-width="1920"
     inkscape:window-height="1028"
     inkscape:window-x="1912"
     inkscape:window-y="-8"
     inkscape:window-maximized="1" />
  <metadata
     id="metadata7">
    <rdf:RDF>
      <cc:Work
         rdf:about="">
        <dc:format>image/svg+xml</dc:format>
        <dc:type
           rdf:resource="http://purl.org/dc/dcmitype/StillImage" />
        <dc:title></dc:title>
      </cc:Work>
    </rdf:RDF>
  </metadata>
  <g
     inkscape:label="Layer 1"
     inkscape:groupmode="layer"
     id="layer1"
     transform="translate(0,-752.36218)">
    <rect
       style="fill:#aa87de;fill-opacity:1;stroke:none"
       id="rect3087"
       width="274.51746"
       height="278.12164"
       x="13.215282"
       y="11.666563"
       transform="translate(0,752.36218)" />
    <path
       style="fill:#5a2ca0;fill-opacity:1;stroke:none"
       id="path3029"
       d="m 10.466085,755.84707 c 4.924878,-1.1137 6.080776,-0.96854 9.383507,-1.15744 7.625527,-0.24544 15.256187,-0.21114 22.883801,-0.37822 13.579353,-0.64909 27.165108,-0.89703 40.754285,-1.08573 19.900022,0.003 39.801342,0.0939 59.699632,0.361 22.22424,0.0926 44.44634,0.33534 66.66945,0.54928 3.41396,0.0489 6.82776,0.11016 10.24189,0.14564 11.52155,0.12073 7.71327,-0.0223 18.94011,0.20671 8.01859,0.16356 16.03591,0.42714 24.0521,0.68349 8.04945,0.54919 16.23103,0.58262 24.00837,3.13634 9.39692,4.01705 10.66417,10.51245 3.81236,13.67575 -1.4924,0.64263 -3.13048,0.80305 -4.71594,1.0915 -7.7994,1.41896 -15.70916,0.71407 -23.57141,0.79243 -17.66277,-0.36825 -35.33101,-0.38264 -52.99466,-0.70266 -22.21146,-0.29952 -44.42409,-0.49375 -66.63503,-0.83667 -19.85375,-0.11721 -39.70456,-0.48438 -59.558611,-0.56575 -13.534322,-0.21865 -27.0684,-0.39248 -40.600061,-0.76449 -7.650213,-0.0278 -20.914078,-0.22405 -28.562097,-0.4143 -10.7147268,-1.2137 -9.5589192,-10.16497 -3.807699,-14.73673 z"
       inkscape:connector-curvature="0"
       sodipodi:nodetypes="ccccccsscccsccccccc" />
    <path
       style="fill:#5a2ca0;fill-opacity:1;stroke:none"
       id="path3029-1"
       d="m 294.92413,763.98417 c 1.14258,4.91826 1.0042,6.07499 1.21247,9.37656 0.29017,7.62396 0.30064,15.25468 0.51247,22.88118 0.72875,13.57531 1.05639,27.15939 1.32481,40.74723 0.11364,19.89968 0.1396,39.80121 -0.0107,59.70073 0.0378,22.2244 -0.0746,44.44754 -0.15813,66.67152 -0.0289,3.41419 -0.0701,6.82829 -0.0856,10.24257 -0.0531,11.52205 0.0675,7.713 -0.0956,18.941 -0.11651,8.01944 -0.33305,16.03814 -0.54236,24.05564 -0.50195,8.0526 -0.48739,16.2342 -2.99544,24.0264 -3.96184,9.4203 -10.44969,10.7256 -13.65314,3.8926 -0.65138,-1.4887 -0.8214,-3.1258 -1.11915,-4.7095 -1.46469,-7.791 -0.80622,-15.7047 -0.9307,-23.5664 0.26461,-17.6646 0.17534,-35.33262 0.39173,-52.99785 0.16919,-22.21283 0.2331,-44.42622 0.4457,-66.63879 7.3e-4,-19.85409 0.25144,-39.70673 0.21632,-59.56091 0.13924,-13.53538 0.23367,-27.07024 0.52628,-40.60385 -0.0171,-7.65024 0.10135,-20.91504 0.24672,-28.56404 1.15082,-10.72166 10.10871,-9.61839 14.71414,-3.89409 z"
       inkscape:connector-curvature="0"
       sodipodi:nodetypes="ccccccsscccsccccccc" />
    <path
       style="fill:#5a2ca0;fill-opacity:1;stroke:none"
       id="path3029-1-7"
       d="m 6.049331,1040.4425 c -1.18553,-4.908 -1.05727,-6.0659 -1.2944,-9.3656 -0.35681,-7.6211 -0.43399,-15.2514 -0.71248,-22.8758 -0.8474,-13.56842 -1.29378,-27.14911 -1.68098,-40.73409 -0.2876,-19.89793 -0.48754,-39.79847 -0.51118,-59.69854 -0.23211,-22.22322 -0.314,-44.44649 -0.42473,-66.67036 -0.001,-3.41431 0.0104,-6.82864 -0.004,-10.24292 -0.0476,-11.52208 -0.13495,-7.71212 -0.07,-18.94111 0.0464,-8.02013 0.19283,-16.04047 0.33204,-24.05957 0.43154,-8.05663 0.34545,-16.23783 2.78528,-24.05163 3.87934,-9.4546 10.35553,-10.8166 13.61859,-4.0118 0.66437,1.4829 0.8487,3.1185 1.16028,4.6995 1.53275,7.7779 0.94348,15.6971 1.13669,23.55743 -0.11018,17.66626 0.13355,35.33283 0.0716,52.99927 0.025,22.21346 0.15529,44.42656 0.13688,66.64014 0.17284,19.85334 0.0957,39.70741 0.30438,59.56053 -0.0209,13.53608 0.003,27.07125 -0.17129,40.60695 0.084,7.6498 0.0815,20.9151 0.003,28.5651 -1.05704,10.7313 -10.02424,9.7064 -14.67953,4.0225 z"
       inkscape:connector-curvature="0"
       sodipodi:nodetypes="ccccccsscccsccccccc" />
    <path
       style="fill:#5a2ca0;fill-opacity:1;stroke:none"
       id="path3029-4"
       d="m 288.40477,1048.3322 c -4.87892,1.1358 -6.02586,0.9959 -9.30026,1.1997 -7.56098,0.2797 -15.12829,0.2798 -22.69169,0.4812 -13.46346,0.7101 -26.93506,1.0192 -40.41032,1.2691 -19.73444,0.086 -39.47058,0.085 -59.20448,-0.092 -22.03972,0.01 -44.07798,-0.1354 -66.117138,-0.2493 -3.385766,-0.034 -6.771436,-0.079 -10.157266,-0.1035 -11.426216,-0.069 -7.648985,0.057 -18.78343,-0.1215 -7.952595,-0.1271 -15.904378,-0.3551 -23.855008,-0.5753 -7.984916,-0.513 -16.09857,-0.5096 -23.822581,-3.0282 -9.3366479,-3.9748 -10.6223397,-10.4645 -3.841657,-13.6585 1.477112,-0.6494 3.100843,-0.8171 4.671826,-1.1127 7.728171,-1.4541 15.575254,-0.7848 23.371734,-0.8985 17.517433,0.2888 35.038723,0.2236 52.556818,0.4638 22.027982,0.1996 44.056642,0.2939 66.084292,0.5368 19.68906,0.028 39.37633,0.3055 59.06553,0.2978 13.42268,0.1578 26.84489,0.2737 40.26563,0.5818 7.58668,-0.01 20.74106,0.1295 28.32625,0.2888 10.63099,1.1655 9.52473,10.1219 3.84177,14.7195 z"
       inkscape:connector-curvature="0"
       sodipodi:nodetypes="ccccccsscccsccccccc" />
    <path
       style="fill:#5a2ca0;fill-opacity:1;stroke:none"
       id="path3191"
       d="m 58.515914,236.75332 c 0.499311,0.0938 1.002276,0.16981 1.497933,0.28129 2.375668,0.5343 4.680741,1.30155 7.070299,1.78801 3.092242,0.62951 3.1318,0.55612 6.302251,0.89151 4.810843,0.17663 10.005026,-0.13376 14.075878,-3.01599 0.675613,-0.47834 1.258155,-1.07615 1.887232,-1.61423 4.210821,-4.76501 4.816788,-10.54495 5.021568,-16.65302 -0.183351,-6.41726 -1.294373,-12.82376 -3.728942,-18.78568 -0.435832,-1.06729 -0.963588,-2.09469 -1.445381,-3.14204 -1.934971,-3.7107 -4.723572,-6.91265 -8.878074,-7.98934 0.981175,0.36752 3.674164,-1.59624 4.503977,-3.22569 0.528425,-1.07569 0.01178,-2.42536 0.333128,-3.57995 6.785106,4.26016 14.628986,6.32505 22.318207,8.26027 10.65744,2.29643 21.60212,3.51339 32.5087,2.80891 1.91482,-0.12368 3.81769,-0.39053 5.72653,-0.5858 5.91938,-0.93534 11.72965,-2.86151 16.13932,-7.09482 2.27142,-2.18058 2.58318,-3.09183 4.19244,-5.75572 3.05091,-6.43693 4.00222,-13.50911 3.53329,-20.57579 -0.10141,-1.52831 -0.32787,-3.04575 -0.49181,-4.56863 -1.38249,-7.87891 -4.96531,-15.02442 -9.79745,-21.34578 -0.94293,-1.23353 -1.98296,-2.38971 -2.97443,-3.58456 -3.73238,-4.1071 -8.07494,-7.61895 -12.95663,-10.27106 -2.99865,-1.5418 -4.75572,-2.23818 -7.57683,-3.00534 -1.41823,0.10178 2.24963,-1.05403 2.67224,-1.63644 0.93356,-1.37583 0.26615,-3.43508 1.12309,-4.8599 8.43013,4.35414 17.69753,6.52321 26.90993,8.48944 11.79973,2.31088 23.83963,3.84815 35.88783,3.43096 2.1298,-0.0738 4.25228,-0.28998 6.37842,-0.43497 6.25386,-0.83263 12.86429,-1.90883 18.10967,-5.71459 2.30695,-1.67381 3.03862,-2.83841 4.81017,-4.99501 3.04729,-4.69187 5.15261,-10.02128 5.69179,-15.62234 0.0961,-0.997971 0.0651,-2.004114 0.0976,-3.00617 -0.35572,-7.163234 -4.36404,-13.179601 -8.0075,-19.101654 -6.35182,-11.923552 -5.47097,-29.941531 7.01461,-15.526333 2.55358,3.030871 3.32948,4.346152 5.57753,7.634184 5.62175,8.825905 10.15064,16.885565 10.48521,27.656769 -0.0841,1.647908 -0.0592,3.304996 -0.25215,4.943726 -0.77162,6.553128 -3.25403,13.189878 -6.98385,18.632788 -1.00699,1.4695 -2.21353,2.79181 -3.32029,4.18771 -3.70439,3.55973 -4.09963,4.31785 -8.54055,7.04331 -7.23776,4.44193 -15.47377,6.4509 -23.85992,7.22276 -2.41735,0.13476 -4.8315,0.3517 -7.25203,0.40429 -13.03617,0.28321 -26.06142,-1.49247 -38.81646,-4.02642 -6.56644,-1.66315 -13.04409,-3.37571 -19.36907,-5.83262 -3.15934,-1.22723 -6.15934,-2.52448 -9.05747,-4.28585 -1.16057,-0.70536 -2.2273,-1.55466 -3.34095,-2.33199 -2.70231,-3.08855 -5.18392,-4.54584 -3.04033,-9.80212 1.5808,-3.87627 6.92063,-3.78637 10.08939,-3.14391 1.06962,0.21687 2.09999,0.5954 3.14998,0.89309 3.13449,1.31338 4.19165,1.64607 7.22947,3.40594 5.83478,3.38021 10.91826,7.8745 15.3585,12.92494 1.14664,1.41512 2.34667,2.78859 3.43991,4.24535 5.73621,7.64366 9.99256,16.36492 12.53745,25.56848 0.39439,1.93509 0.917,3.84842 1.18316,5.80527 1.04165,7.65847 0.17295,15.76822 -2.68002,22.9673 -0.70085,1.7685 -1.64849,3.42893 -2.47274,5.1434 -2.85564,4.09283 -3.38221,5.39322 -7.20099,8.68565 -6.22662,5.3684 -14.08872,8.09834 -21.97715,9.89651 -2.27963,0.3481 -4.5442,0.8155 -6.83887,1.04432 -12.16826,1.21339 -24.40745,-0.75612 -36.28046,-3.26237 -8.737015,-2.26978 -17.894255,-4.6348 -25.450907,-9.82244 -1.041195,-0.71478 -1.976675,-1.5725 -2.965012,-2.35874 -2.03868,-2.66888 -4.178753,-4.40464 -3.156422,-8.44801 1.16683,-4.61487 5.376929,-6.30426 9.518943,-5.81121 0.887138,0.1056 1.736713,0.42011 2.605069,0.63016 0.868535,0.3774 1.76408,0.6979 2.605605,1.13221 5.684528,2.93375 9.739986,7.90189 12.767504,13.43199 0.64145,1.35908 1.3449,2.6906 1.92435,4.07725 3.11187,7.44691 4.75857,15.50665 4.8457,23.56659 -0.0938,1.61283 -0.0986,3.23329 -0.28131,4.83848 -0.89274,7.84376 -4.02811,15.10756 -9.70082,20.66345 -1.201344,0.93326 -2.328407,1.97094 -3.604034,2.79979 -6.374536,4.14188 -13.985374,5.42063 -21.45567,4.88984 -6.438824,-0.84395 -13.272151,-1.91059 -18.510971,-6.05523 -6.656792,-3.63568 -1.515162,-13.04981 5.141629,-9.41412 z"
       inkscape:connector-curvature="0"
       transform="translate(0,752.36218)"
       sodipodi:nodetypes="csscsccscccccscscscsccccccccscccccccsscscscsscsscscscsscscscscsscscscscscccc"
       inkscape:export-xdpi="88.989998"
       inkscape:export-ydpi="88.989998" />
  </g>
</svg>
