<?xml version="1.0" encoding="UTF-8" standalone="no"?>
<!-- Created with Inkscape (http://www.inkscape.org/) -->

<svg
   xmlns:dc="http://purl.org/dc/elements/1.1/"
   xmlns:cc="http://creativecommons.org/ns#"
   xmlns:rdf="http://www.w3.org/1999/02/22-rdf-syntax-ns#"
   xmlns:svg="http://www.w3.org/2000/svg"
   xmlns="http://www.w3.org/2000/svg"
   xmlns:sodipodi="http://sodipodi.sourceforge.net/DTD/sodipodi-0.dtd"
   xmlns:inkscape="http://www.inkscape.org/namespaces/inkscape"
   width="300"
   height="300"
   id="svg2"
   version="1.1"
   inkscape:version="0.48.4 r9939"
   sodipodi:docname="square4.svg"
   inkscape:export-filename="C:\Users\jrm219\Google Drive\Work\CS Field Guide Website\Interactive Prototypes\Sorting Prototype\Textures\square4.png"
   inkscape:export-xdpi="60.66"
   inkscape:export-ydpi="60.66">
  <defs
     id="defs4" />
  <sodipodi:namedview
     id="base"
     pagecolor="#ffffff"
     bordercolor="#666666"
     borderopacity="1.0"
     inkscape:pageopacity="0.0"
     inkscape:pageshadow="2"
     inkscape:zoom="2.3538707"
     inkscape:cx="119.87135"
     inkscape:cy="122.80122"
     inkscape:document-units="px"
     inkscape:current-layer="layer1"
     showgrid="false"
     showborder="true"
     inkscape:window-width="1920"
     inkscape:window-height="1028"
     inkscape:window-x="1912"
     inkscape:window-y="-8"
     inkscape:window-maximized="1" />
  <metadata
     id="metadata7">
    <rdf:RDF>
      <cc:Work
         rdf:about="">
        <dc:format>image/svg+xml</dc:format>
        <dc:type
           rdf:resource="http://purl.org/dc/dcmitype/StillImage" />
        <dc:title></dc:title>
      </cc:Work>
    </rdf:RDF>
  </metadata>
  <g
     inkscape:label="Layer 1"
     inkscape:groupmode="layer"
     id="layer1"
     transform="translate(0,-752.36218)">
    <rect
       style="fill:#55ff99;fill-opacity:1;stroke:none"
       id="rect3087"
       width="274.51746"
       height="278.12164"
       x="13.215282"
       y="11.666563"
       transform="translate(0,752.36218)" />
    <path
       style="fill:#00d455;fill-opacity:1;stroke:none"
       id="path3029"
       d="m 10.466085,755.84707 c 4.924878,-1.1137 6.080776,-0.96854 9.383507,-1.15744 7.625527,-0.24544 15.256187,-0.21114 22.883801,-0.37822 13.579353,-0.64909 27.165108,-0.89703 40.754285,-1.08573 19.900022,0.003 39.801342,0.0939 59.699632,0.361 22.22424,0.0926 44.44634,0.33534 66.66945,0.54928 3.41396,0.0489 6.82776,0.11016 10.24189,0.14564 11.52155,0.12073 7.71327,-0.0223 18.94011,0.20671 8.01859,0.16356 16.03591,0.42714 24.0521,0.68349 8.04945,0.54919 16.23103,0.58262 24.00837,3.13634 9.39692,4.01705 10.66417,10.51245 3.81236,13.67575 -1.4924,0.64263 -3.13048,0.80305 -4.71594,1.0915 -7.7994,1.41896 -15.70916,0.71407 -23.57141,0.79243 -17.66277,-0.36825 -35.33101,-0.38264 -52.99466,-0.70266 -22.21146,-0.29952 -44.42409,-0.49375 -66.63503,-0.83667 -19.85375,-0.11721 -39.70456,-0.48438 -59.558611,-0.56575 -13.534322,-0.21865 -27.0684,-0.39248 -40.600061,-0.76449 -7.650213,-0.0278 -20.914078,-0.22405 -28.562097,-0.4143 -10.7147268,-1.2137 -9.5589192,-10.16497 -3.807699,-14.73673 z"
       inkscape:connector-curvature="0"
       sodipodi:nodetypes="ccccccsscccsccccccc" />
    <path
       style="fill:#00d455;fill-opacity:1;stroke:none"
       id="path3029-1"
       d="m 294.92413,763.98417 c 1.14258,4.91826 1.0042,6.07499 1.21247,9.37656 0.29017,7.62396 0.30064,15.25468 0.51247,22.88118 0.72875,13.57531 1.05639,27.15939 1.32481,40.74723 0.11364,19.89968 0.1396,39.80121 -0.0107,59.70073 0.0378,22.2244 -0.0746,44.44754 -0.15813,66.67152 -0.0289,3.41419 -0.0701,6.82829 -0.0856,10.24257 -0.0531,11.52205 0.0675,7.713 -0.0956,18.941 -0.11651,8.01944 -0.33305,16.03814 -0.54236,24.05564 -0.50195,8.0526 -0.48739,16.2342 -2.99544,24.0264 -3.96184,9.4203 -10.44969,10.7256 -13.65314,3.8926 -0.65138,-1.4887 -0.8214,-3.1258 -1.11915,-4.7095 -1.46469,-7.791 -0.80622,-15.7047 -0.9307,-23.5664 0.26461,-17.6646 0.17534,-35.33262 0.39173,-52.99785 0.16919,-22.21283 0.2331,-44.42622 0.4457,-66.63879 7.3e-4,-19.85409 0.25144,-39.70673 0.21632,-59.56091 0.13924,-13.53538 0.23367,-27.07024 0.52628,-40.60385 -0.0171,-7.65024 0.10135,-20.91504 0.24672,-28.56404 1.15082,-10.72166 10.10871,-9.61839 14.71414,-3.89409 z"
       inkscape:connector-curvature="0"
       sodipodi:nodetypes="ccccccsscccsccccccc" />
    <path
       style="fill:#00d455;fill-opacity:1;stroke:none"
       id="path3029-1-7"
       d="m 6.049331,1040.4425 c -1.18553,-4.908 -1.05727,-6.0659 -1.2944,-9.3656 -0.35681,-7.6211 -0.43399,-15.2514 -0.71248,-22.8758 -0.8474,-13.56842 -1.29378,-27.14911 -1.68098,-40.73409 -0.2876,-19.89793 -0.48754,-39.79847 -0.51118,-59.69854 -0.23211,-22.22322 -0.314,-44.44649 -0.42473,-66.67036 -0.001,-3.41431 0.0104,-6.82864 -0.004,-10.24292 -0.0476,-11.52208 -0.13495,-7.71212 -0.07,-18.94111 0.0464,-8.02013 0.19283,-16.04047 0.33204,-24.05957 0.43154,-8.05663 0.34545,-16.23783 2.78528,-24.05163 3.87934,-9.4546 10.35553,-10.8166 13.61859,-4.0118 0.66437,1.4829 0.8487,3.1185 1.16028,4.6995 1.53275,7.7779 0.94348,15.6971 1.13669,23.55743 -0.11018,17.66626 0.13355,35.33283 0.0716,52.99927 0.025,22.21346 0.15529,44.42656 0.13688,66.64014 0.17284,19.85334 0.0957,39.70741 0.30438,59.56053 -0.0209,13.53608 0.003,27.07125 -0.17129,40.60695 0.084,7.6498 0.0815,20.9151 0.003,28.5651 -1.05704,10.7313 -10.02424,9.7064 -14.67953,4.0225 z"
       inkscape:connector-curvature="0"
       sodipodi:nodetypes="ccccccsscccsccccccc" />
    <path
       style="fill:#00d455;fill-opacity:1;stroke:none"
       id="path3029-4"
       d="m 288.40477,1048.3322 c -4.87892,1.1358 -6.02586,0.9959 -9.30026,1.1997 -7.56098,0.2797 -15.12829,0.2798 -22.69169,0.4812 -13.46346,0.7101 -26.93506,1.0192 -40.41032,1.2691 -19.73444,0.086 -39.47058,0.085 -59.20448,-0.092 -22.03972,0.01 -44.07798,-0.1354 -66.117138,-0.2493 -3.385766,-0.034 -6.771436,-0.079 -10.157266,-0.1035 -11.426216,-0.069 -7.648985,0.057 -18.78343,-0.1215 -7.952595,-0.1271 -15.904378,-0.3551 -23.855008,-0.5753 -7.984916,-0.513 -16.09857,-0.5096 -23.822581,-3.0282 -9.3366479,-3.9748 -10.6223397,-10.4645 -3.841657,-13.6585 1.477112,-0.6494 3.100843,-0.8171 4.671826,-1.1127 7.728171,-1.4541 15.575254,-0.7848 23.371734,-0.8985 17.517433,0.2888 35.038723,0.2236 52.556818,0.4638 22.027982,0.1996 44.056642,0.2939 66.084292,0.5368 19.68906,0.028 39.37633,0.3055 59.06553,0.2978 13.42268,0.1578 26.84489,0.2737 40.26563,0.5818 7.58668,-0.01 20.74106,0.1295 28.32625,0.2888 10.63099,1.1655 9.52473,10.1219 3.84177,14.7195 z"
       inkscape:connector-curvature="0"
       sodipodi:nodetypes="ccccccsscccsccccccc" />
    <path
       style="fill:#00d455;fill-opacity:1;stroke:none"
       id="path3147"
       d="m 99.640922,65.80469 c -3.931868,0.507757 -7.830619,1.28396 -11.411708,3.052804 -0.968531,0.478396 -1.888103,1.05011 -2.832154,1.575165 -5.802866,3.408869 -10.627177,8.138265 -14.505109,13.615459 -0.816628,1.153407 -1.540543,2.369735 -2.310815,3.554602 -2.157625,4.296738 -4.208406,9.085288 -3.735273,14.02153 0.238399,2.48724 0.750781,3.2015 1.717337,5.44355 3.563818,5.64358 9.147583,9.37951 15.116766,12.17152 1.633014,0.76383 3.333691,1.37374 5.000537,2.0606 8.566788,2.77105 17.721107,4.77301 26.779187,3.7397 1.38079,-0.15751 2.73219,-0.51063 4.09828,-0.76595 3.56642,-1.06154 6.78626,-2.8813 8.33023,-6.43001 0.88786,-2.04068 0.88724,-3.15769 1.215,-5.38829 0.45328,-5.57202 -1.09657,-10.87413 -3.04961,-16.024662 -0.52712,-1.390131 -1.05499,-2.783011 -1.68547,-4.12942 -0.58266,-1.244273 -1.2993,-2.421292 -1.94894,-3.631938 -7.28829,-19.595422 5.06562,-13.867578 12.3508,-8.708673 3.27353,3.911792 4.91572,5.469045 7.34673,10.06983 3.10773,5.88154 4.92658,12.688123 5.26392,19.328293 0.11312,2.2266 -0.12908,4.45706 -0.19362,6.68559 -1.24321,5.59662 -1.16319,7.30468 -4.08599,12.313 -3.294,5.64437 -8.22813,9.75437 -14.19558,12.33734 -1.9521,0.84496 -4.0391,1.33572 -6.05865,2.00357 -2.15177,0.37263 -4.28438,0.88106 -6.4553,1.11788 -11.93762,1.3022 -23.862242,-1.256 -35.049277,-5.26867 -5.503951,-2.39686 -7.858045,-3.14904 -12.897809,-6.41726 -5.642619,-3.65916 -10.672182,-8.41851 -14.044053,-14.29705 -1.048301,-1.82762 -1.728987,-3.84279 -2.593481,-5.76419 -1.304948,-5.41998 -1.940226,-6.35626 -1.681601,-11.95214 0.360097,-7.791436 3.511298,-14.882483 7.677834,-21.342811 1.115766,-1.544862 2.148393,-3.153317 3.347299,-4.634586 5.578235,-6.89201 12.843668,-12.356 20.859185,-16.076697 1.43169,-0.509655 2.8403,-1.089502 4.295071,-1.528966 5.237584,-1.582191 10.900923,-2.305668 16.252722,-0.911849 7.20028,0.648034 6.28382,10.830762 -0.916458,10.182729 z"
       inkscape:connector-curvature="0"
       transform="translate(0,752.36218)"
       sodipodi:nodetypes="cscscscscscscssccsscsscscsscscscscc" />
    <path
       style="fill:#00d455;fill-opacity:1;stroke:none"
       id="path3149"
       d="m 168.71161,209.00559 c -1.21495,-6.43216 0.49404,-12.91211 2.41488,-19.01853 0.5961,-1.33854 1.10045,-2.72184 1.78831,-4.01562 2.85568,-5.37122 7.3419,-10.33751 12.74364,-13.22638 1.46212,-0.78195 3.05566,-1.28836 4.5835,-1.93253 1.71099,-0.40038 3.39159,-0.96583 5.13299,-1.20112 7.97586,-1.07765 16.08528,1.185 23.14606,4.79648 1.98112,1.01332 3.83589,2.25666 5.75383,3.38498 7.64445,5.25009 14.45556,11.84053 18.76635,20.1608 2.97637,5.74471 2.85264,7.09646 4.2531,13.36028 0.0364,2.39222 0.32509,4.79393 0.10923,7.17667 -0.47023,5.19081 -1.90859,9.21951 -4.15772,13.88041 -1.0679,2.21302 -2.19185,4.42086 -3.61236,6.42586 -3.67309,5.1844 -5.68099,6.17989 -10.5958,10.01723 -2.03261,1.13623 -3.98093,2.4385 -6.09783,3.4087 -5.61196,2.57203 -12.57914,4.41853 -18.77433,3.00049 -11.27237,-3.73426 -16.16342,-13.55893 -4.35625,-16.88637 1.10309,-0.36032 3.26674,-1.10317 4.40129,-1.32662 0.9086,-0.17895 1.83951,-0.2192 2.75439,-0.36258 3.86266,-0.60534 7.58286,-1.61163 11.06557,-3.45147 3.37913,-1.986 7.82914,-4.5919 10.30278,-7.71038 2.52432,-3.18238 3.30095,-7.16332 3.36545,-11.10383 -0.20483,-1.35505 -0.26309,-2.74052 -0.61447,-4.06515 -2.14768,-8.09634 -8.34173,-14.24994 -14.87224,-19.05376 -1.39117,-0.8524 -2.74185,-1.77471 -4.17351,-2.55719 -5.12167,-2.79928 -10.82652,-4.57836 -16.69876,-3.96393 -1.94497,0.51263 -3.0235,0.68523 -4.82764,1.60003 -3.48228,1.76572 -5.74183,4.91297 -7.67066,8.20289 -0.45457,0.90981 -0.96305,1.79461 -1.36371,2.72941 -1.44424,3.36968 -1.98335,6.95179 -2.01612,10.58873 0.80786,7.60138 -9.9421,8.74387 -10.74997,1.1425 z"
       inkscape:connector-curvature="0"
       transform="translate(0,752.36218)"
       sodipodi:nodetypes="ccsscsscscssscsccsscscscscscscc" />
  </g>
</svg>
