<?xml version="1.0" encoding="UTF-8" standalone="yes"?>
<svg xmlns="http://www.w3.org/2000/svg" viewBox="0 0 24 24" width="14pt" height="14pt">
  <path d="M 18.414062 2 C 18.158188 2 17.902031 2.0974687 17.707031 2.2929688 L 16 4 L 20 8 L 21.707031 6.2929688 C 22.098031 5.9019687 22.098031 5.2689063 21.707031 4.8789062 L 19.121094 2.2929688 C 18.925594 2.0974687 18.669937 2 18.414062 2 z M 14.5 5.5 L 5 15 C 5 15 6.005 15.005 6.5 15.5 C 6.995 15.995 6.984375 16.984375 6.984375 16.984375 C 6.984375 16.984375 8.004 17.004 8.5 17.5 C 8.996 17.996 9 19 9 19 L 18.5 9.5 L 14.5 5.5 z M 3.6699219 17 L 3 21 L 7 20.330078 L 3.6699219 17 z"/>
</svg>
