<svg xmlns="http://www.w3.org/2000/svg" viewBox="0 0 93.49 93.08"><defs><style>.cls-1{fill:#2a3da0;stroke:none;}</style></defs><title>Asset 17</title><g id="Layer_2" data-name="Layer 2"><g id="Content"><g id="layer1"><path id="path3263" class="cls-1" d="M63.78,76.71a10,10,0,0,1,3.43,5.61c.72,4.17-1.71,7.45-5.34,9.22s-8.56,2-12-.22c-3.86-2.48-3.23-7.26-1.16-10.71a11.89,11.89,0,0,1,4.73-4.78C56.48,74.38,61.25,74.47,63.78,76.71Z"/><path class="cls-1" d="M16.39,76.57c-3.42-4.07-8.45-3.76-12.31-1-2,1.42-3.15,3.94-3.75,6.31C-.75,86.05.81,90.6,5,92.31a9.61,9.61,0,0,0,11.49-3C19.06,85.74,19.33,80.07,16.39,76.57Zm-4,12.68c-3.13,2-8.42.85-9.56-2.93-1-3.25.91-7.19,3.85-8.87,2.73-1.56,6.74-.62,7.86,1.64C16.23,82.44,15.57,87.2,12.42,89.25Z"/><path class="cls-1" d="M41.43,79.6a9.24,9.24,0,0,0-10-5.79,9,9,0,0,0-5.3,2.54,16.21,16.21,0,0,0-3.72,5.72C20.81,86.34,22.22,91,27,92.22,34.35,94.12,44.85,88.19,41.43,79.6ZM39.1,84.27a7.6,7.6,0,0,1-3.79,4.1c-2.82,1.58-9.23,2.71-10.77-1.22-1.31-3.34,1.26-8,3.53-9.47,3-2,7.3-2,9.7,1.3A6.42,6.42,0,0,1,39.1,84.27Z"/><path class="cls-1" d="M92.5,79.87a8.71,8.71,0,0,0-5.35-4.42A11.43,11.43,0,0,0,82.46,75a11.17,11.17,0,0,0-5.6,1.91c-2.51,1.77-4.75,4.92-4.67,8.07.15,6,8.14,8,13,7.57C91.62,92,95.41,85.92,92.5,79.87Zm-8.22,9.69c-3.37.12-9.9-1.06-9.28-5.67.53-4,5.06-7.25,10.73-5.75a5.87,5.87,0,0,1,4.19,3.51C91.72,86.1,88.65,89.4,84.28,89.56Z"/><path class="cls-1" d="M27,35.9c-.93-.17-4.17-.95-7.07.57s-9,8.75-3.39,14.15c2.65,2.55,6.66,2.17,9.79,1,3.45-1.3,7.06-4.06,7-8.11A8.13,8.13,0,0,0,27,35.9ZM24.41,49.6c-1.79.56-3.86.83-5.55-.15s-2.12-3.37-1.95-5c.63-6.05,6.53-7.25,10.48-5.78a5.53,5.53,0,0,1,3,3.46C31.81,46.07,27.59,48.6,24.41,49.6Z"/><path class="cls-1" d="M75.07,36.74c-2.28-1.85-5.68-1.53-8.68-.36a8.55,8.55,0,0,0-4.32,4.82A7.75,7.75,0,0,0,65.24,51c4.56,2.7,11.64,1.36,12.82-4.42C78.73,43.24,77.85,39,75.07,36.74Zm-2,12c-2.58,1.49-6.82.58-8.36-1.92-1-1.6-.7-4.09,0-5.73a6.13,6.13,0,0,1,6.47-3.19,4.77,4.77,0,0,1,3.5,2.67C75.83,43,75.71,47.22,73.08,48.73Z"/><path class="cls-1" d="M58.73,4.93C57.05,1.1,53.2,0,49.16,0c-4.53.06-7,.89-9.53,4.55a10.58,10.58,0,0,0-2,5.77c0,3.75,2.75,6.81,6.11,8.14,4.12,1.62,9.15,1.71,12.62-1.41A10.87,10.87,0,0,0,58.73,4.93Zm-3.06,8.36c-2.12,3.68-6.85,3.88-10.45,2.55A7.44,7.44,0,0,1,41,12.35a6.26,6.26,0,0,1,.38-5.54c.87-1.71,2.16-3.43,4-3.94,2.56-.7,6.6-.46,8.35.7C56.83,5.65,57.36,10.36,55.67,13.29Z"/><path class="cls-1" d="M38.07,17.1c-1.06.28-2.15,2.6-2.7,3.41-1,1.43-1.87,2.89-2.78,4.35-.56.9-5.06,7.2-2.82,7.75,1.58.39,4.37-6.26,5.08-7.38a51.34,51.34,0,0,0,2.79-4.61C37.85,20.21,39.75,16.65,38.07,17.1Z"/><path class="cls-1" d="M69.74,30c-1-3.53-3.73-6.73-5.9-9.64-.59-.79-1.2-1.57-1.8-2.35-.39-.51-1.07-1.79-1.7-2a.65.65,0,0,0-.9.56c-.09.66.83,1.83,1.15,2.39,1.91,3.31,4.14,6.4,6.17,9.64.45.73,1.42,2.81,2.33,3S69.91,30.61,69.74,30Z"/><path id="path3297" class="cls-1" d="M18.55,54.6c-.11,3.63-1.7,7.3-2.81,10.72-.3.91-.57,1.84-.85,2.76a4.9,4.9,0,0,1-.82,2,1.52,1.52,0,0,1-1.47.24c-.59-.18-.64-.53-.65-1.18,0-1.63.82-3.46,1.32-5,.59-1.76,1.2-3.52,1.83-5.26.34-.92.67-1.84,1-2.75a9.89,9.89,0,0,1,.83-2.21A.9.9,0,0,1,18.55,54.6Z"/><path id="path3299" class="cls-1" d="M30.75,58.75c.21,1.67.44,3.34.81,5,.31,1.41.86,2.73,1.21,4.12.2.84.67,3.07-.64,3.29-1.13.19-1.82-1.61-2.11-2.43a33.26,33.26,0,0,1-1.75-8.54,32.83,32.83,0,0,1,0-5.34c.05-.57.08-2.33,1.11-1.85.71.33.86,1.78,1,2.42C30.53,56.51,30.62,57.63,30.75,58.75Z"/><path class="cls-1" d="M66.94,55.33c-.36,3.79-2.58,7.34-4.63,10.45a26.38,26.38,0,0,1-3.54,4.71c-.88.82-2.45,1-2.32-.67s2-3.34,2.82-4.56q1.93-2.75,3.63-5.64c.66-1.11,1.24-2.25,1.89-3.35a8.1,8.1,0,0,1,.83-1.36C66.11,54.39,67,54.26,66.94,55.33Z"/><path class="cls-1" d="M77.9,70.56c-2-2.82-3.84-5.83-4.46-9.28-.15-.8-.56-8.24,1.9-5.62.78.82.42,3.4.65,4.5a21.32,21.32,0,0,0,1.9,4.92c.67,1.35,1.8,3.16,1.72,4.73C79.55,70.84,78.8,71.86,77.9,70.56Z"/></g></g></g></svg>
