<?xml version="1.0" encoding="UTF-8" standalone="no"?>
<!-- Created with Inkscape (http://www.inkscape.org/) -->

<svg
   xmlns:dc="http://purl.org/dc/elements/1.1/"
   xmlns:cc="http://creativecommons.org/ns#"
   xmlns:rdf="http://www.w3.org/1999/02/22-rdf-syntax-ns#"
   xmlns:svg="http://www.w3.org/2000/svg"
   xmlns="http://www.w3.org/2000/svg"
   xmlns:sodipodi="http://sodipodi.sourceforge.net/DTD/sodipodi-0.dtd"
   xmlns:inkscape="http://www.inkscape.org/namespaces/inkscape"
   width="50"
   height="50"
   id="svg3213"
   version="1.1"
   inkscape:version="0.48.4 r9939"
   sodipodi:docname="sys-algorithms-logo.svg">
  <sodipodi:namedview
     id="base"
     pagecolor="#ffffff"
     bordercolor="#666666"
     borderopacity="1.0"
     inkscape:pageopacity="0.0"
     inkscape:pageshadow="2"
     inkscape:zoom="16.22"
     inkscape:cx="25"
     inkscape:cy="25"
     inkscape:document-units="px"
     inkscape:current-layer="layer1"
     showgrid="false"
     inkscape:window-width="1680"
     inkscape:window-height="998"
     inkscape:window-x="1672"
     inkscape:window-y="486"
     inkscape:window-maximized="1" />
  <metadata
     id="metadata3218">
    <rdf:RDF>
      <cc:Work
         rdf:about="">
        <dc:format>image/svg+xml</dc:format>
        <dc:type
           rdf:resource="http://purl.org/dc/dcmitype/StillImage" />
        <dc:title />
      </cc:Work>
    </rdf:RDF>
  </metadata>
  <g
     inkscape:label="Layer 1"
     inkscape:groupmode="layer"
     id="layer1"
     transform="translate(0,-1002.3622)">
    <path
       style="fill:#000000;fill-opacity:1;fill-rule:nonzero;stroke:none"
       id="path3263"
       d="m 30.851491,39.583423 c 0.560168,-0.06775 0.83954,-0.133995 1.408829,-0.0705 0.718158,0.0801 1.396935,0.356047 1.949851,0.824328 0.176975,0.149887 0.322398,0.333473 0.483597,0.50021 0.12519,0.190273 0.265356,0.371497 0.375568,0.57082 0.416512,0.753277 0.626736,1.652059 0.57398,2.51193 -0.0126,0.205429 -0.0563,0.407762 -0.08446,0.611644 -0.165969,0.515838 -0.167743,0.627448 -0.450715,1.090718 -0.431959,0.707185 -1.078326,1.23691 -1.787312,1.648649 -0.532388,0.263844 -0.666426,0.355217 -1.238982,0.537014 -0.897265,0.284899 -1.843572,0.37521 -2.780028,0.301619 -0.576587,-0.08704 -0.775507,-0.09205 -1.328923,-0.27359 -0.616083,-0.202092 -1.202636,-0.510818 -1.65023,-0.990101 -0.141185,-0.15118 -0.249075,-0.330327 -0.373612,-0.495491 -0.230673,-0.492675 -0.319299,-0.589678 -0.402248,-1.133219 -0.122952,-0.805661 0.07002,-1.606951 0.383154,-2.345311 0.08952,-0.183374 0.17141,-0.370673 0.26856,-0.55012 0.458191,-0.846331 1.071336,-1.603693 1.780011,-2.252097 0.850405,-0.6552 2.604617,-1.046913 2.87296,-0.486503 z"
       inkscape:connector-curvature="0"
       transform="translate(0,1002.3622)"
       sodipodi:nodetypes="csscsccscscsscscscc" />
    <path
       style="fill:#000000;fill-opacity:1;fill-rule:nonzero;stroke:none"
       id="path3255"
       d="m 5.6674292,39.57396 c -0.288967,0.172354 -0.5387382,0.390292 -0.7781538,0.625065 -0.4467749,0.470406 -0.7973324,1.028865 -1.0461966,1.627623 -0.058975,0.141891 -0.1064473,0.288294 -0.159671,0.432441 -0.2207885,0.710495 -0.3361758,1.469192 -0.2154947,2.210652 0.021976,0.135019 0.060789,0.266752 0.091183,0.400128 0.1476371,0.494595 0.406772,0.935606 0.8177093,1.256041 0.2715811,0.21177 0.3663607,0.233713 0.6800779,0.379867 0.6985959,0.24583 1.4539816,0.372928 2.1917736,0.245221 0.1354047,-0.02344 0.2667832,-0.06604 0.4001748,-0.09907 0.636483,-0.21463 1.0955175,-0.579235 1.4879354,-1.119979 C 9.212935,45.426995 9.2799202,45.315671 9.3514968,45.20753 9.6092056,44.755816 9.7864695,44.260669 9.8533034,43.743571 9.8971543,43.404294 9.881219,43.26709 9.8740955,42.923892 9.8232897,42.348568 9.6927851,41.769458 9.3853587,41.272196 9.1969014,40.967367 9.1271059,40.933455 8.8713604,40.695252 8.7646696,40.630073 8.664015,40.553787 8.5512881,40.499714 8.0282548,40.248824 7.3977366,40.196827 6.8274302,40.239501 c -0.1607094,0.01203 -0.3196469,0.0414 -0.4794703,0.06211 -0.3092977,0.03854 -0.6059108,0.145319 -0.9136308,0.191444 -0.1659372,0.02487 -0.3342085,0.03033 -0.5013128,0.0455 -0.1063444,0.08705 -0.2294579,-0.06334 -0.1231135,-0.150394 l 0,0 c 0.081099,-0.188015 0.1249412,-0.396956 0.2432956,-0.564046 0.2705908,-0.382014 0.6248861,-0.509143 1.0191372,-0.71909 0.5625789,-0.17222 0.7172867,-0.256963 1.3143284,-0.287549 0.693018,-0.0355 1.3661372,0.109324 1.973888,0.447253 0.1931471,0.107395 0.3652942,0.248835 0.5479412,0.373252 0.1510278,0.152717 0.3162648,0.292583 0.4530828,0.458152 0.653267,0.790546 0.910647,1.806736 0.985895,2.808043 0.0015,0.18946 0.0131,0.379107 0.0045,0.568379 -0.04098,0.904989 -0.317931,1.77772 -0.780819,2.553699 -0.273975,0.40408 -0.32285,0.513833 -0.666195,0.867505 -0.5392497,0.55547 -1.1977007,0.958196 -1.9435379,1.168837 C 7.4419873,48.1684 7.3189041,48.216749 6.7845212,48.231543 5.9643935,48.254247 5.1550744,48.090667 4.407027,47.755651 3.9589018,47.506032 3.7838099,47.442187 3.401107,47.095559 2.8210927,46.570219 2.4552107,45.880073 2.2546609,45.131304 2.1626342,44.62222 2.1223466,44.525306 2.1193864,44.005758 c -0.00434,-0.760934 0.1764249,-1.50168 0.448886,-2.208092 0.07648,-0.169312 0.1461155,-0.341886 0.2294405,-0.507937 0.3565556,-0.710547 0.8416915,-1.352519 1.4498491,-1.866033 0.4055864,-0.294539 0.8218007,-0.580768 1.3461664,-0.550988 0.4958599,-0.05211 0.5695607,0.649137 0.073701,0.701252 z"
       inkscape:connector-curvature="0"
       transform="translate(0,1002.3622)" />
    <path
       style="fill:#000000;fill-opacity:1;fill-rule:nonzero;stroke:none"
       id="path3259"
       d="m 16.818485,39.541831 c -0.333053,0.34152 -0.657311,0.690052 -0.96876,1.051711 -0.487244,0.590173 -0.914368,1.232218 -1.216403,1.937754 -0.06553,0.153073 -0.118751,0.311127 -0.178127,0.466691 -0.226521,0.703472 -0.376883,1.478558 -0.142228,2.202685 0.03746,0.1156 0.0967,0.222971 0.145045,0.334456 0.06619,0.09335 0.122711,0.194381 0.198577,0.280058 0.346537,0.391346 0.866637,0.57656 1.36448,0.678517 0.159683,0.0327 0.322349,0.04862 0.483524,0.07294 0.870603,0.07338 1.747287,-0.04652 2.561595,-0.366607 0.153261,-0.06024 0.30048,-0.134853 0.45072,-0.202279 0.642041,-0.335372 1.234331,-0.77839 1.674411,-1.359854 0.07191,-0.09502 0.132572,-0.198049 0.198857,-0.297074 0.207272,-0.376122 0.321983,-0.786244 0.290882,-1.218001 -0.0227,-0.315188 -0.07378,-0.440122 -0.157913,-0.751414 -0.227846,-0.603608 -0.534041,-1.198836 -1.020444,-1.637502 -0.322573,-0.290915 -0.449135,-0.323962 -0.83241,-0.520148 -0.161966,-0.04928 -0.320614,-0.111193 -0.485896,-0.147839 -0.72933,-0.161703 -1.497161,-0.09942 -2.216964,0.07551 -0.178829,0.04346 -0.353756,0.10164 -0.530634,0.15246 -0.672742,0.23065 -0.334334,0.119885 -1.015254,0.332213 -0.20329,0.172077 -0.446644,-0.115419 -0.243354,-0.287497 l 0,0 c 0.449479,-0.749347 0.171833,-0.411976 0.840069,-1.006201 0.20775,-0.11661 0.405733,-0.25265 0.62325,-0.349832 0.921825,-0.41185 2.006214,-0.517777 2.987669,-0.278701 0.24571,0.05985 0.478627,0.16352 0.71794,0.24528 0.216423,0.119264 0.443757,0.220578 0.649269,0.357791 0.769891,0.514029 1.357271,1.27839 1.719316,2.124222 0.08236,0.192407 0.140743,0.394212 0.211114,0.591318 0.114848,0.491238 0.178838,0.647834 0.190714,1.150494 0.01661,0.703067 -0.18684,1.368056 -0.544568,1.968519 -0.256758,0.376335 -0.311713,0.488349 -0.628084,0.823389 -0.528865,0.560074 -1.169233,1.000943 -1.857025,1.342094 -0.507944,0.216449 -0.646697,0.295989 -1.18483,0.441952 -0.858024,0.232728 -1.751508,0.296331 -2.634098,0.194344 C 15.727842,47.842425 15.521447,47.833066 15.010928,47.623526 14.431418,47.38567 13.918757,47.025337 13.546896,46.515687 13.429832,46.355245 13.34535,46.173398 13.244577,46.002253 13.064002,45.494518 12.996894,45.406178 12.94702,44.864 c -0.07384,-0.802679 0.116377,-1.592798 0.410403,-2.333763 0.08279,-0.1781 0.15894,-0.359446 0.248386,-0.534302 0.393772,-0.769776 0.920047,-1.468346 1.519978,-2.088491 0.392999,-0.381019 0.806743,-0.774599 1.327458,-0.97228 0.428978,-0.258264 0.794218,0.348403 0.36524,0.606667 z"
       inkscape:connector-curvature="0"
       transform="translate(0,1002.3622)" />
    <path
       style="fill:#000000;fill-opacity:1;fill-rule:nonzero;stroke:none"
       id="path3265"
       d="m 42.27533,40.441794 c -0.209258,0.07213 0.0301,-0.01318 -0.220851,0.08745 -0.193461,0.07757 -0.1375,0.04117 -0.340207,0.141136 -0.195904,0.09661 -0.238814,0.129808 -0.430424,0.248147 -0.492763,0.343942 -0.916028,0.78384 -1.241222,1.289734 -0.07497,0.11663 -0.139246,0.239798 -0.208869,0.359697 -0.227899,0.4604 -0.409431,0.960177 -0.402383,1.481737 0.0039,0.292141 0.03947,0.339488 0.123868,0.609596 0.04828,0.0894 0.08885,0.183425 0.144837,0.268215 0.294981,0.446718 0.773895,0.750621 1.251941,0.968818 0.162394,0.07412 0.33185,0.131674 0.497774,0.197512 0.923909,0.293856 1.899755,0.450129 2.870715,0.381567 0.168161,-0.01187 0.334825,-0.03961 0.502237,-0.05941 0.615727,-0.117704 1.236685,-0.335763 1.678637,-0.801585 0.06591,-0.06947 0.120357,-0.148965 0.180536,-0.223447 0.300513,-0.459221 0.429696,-1.000167 0.433872,-1.546085 0.0011,-0.140588 -0.01249,-0.280906 -0.01874,-0.421358 -0.07493,-0.60066 -0.268957,-1.188179 -0.671519,-1.65257 -0.267176,-0.308211 -0.387571,-0.355947 -0.725887,-0.583751 -1.01019,-0.563696 -2.16836,-0.681608 -3.284392,-0.893716 -0.173676,-0.06667 -0.347351,-0.133335 -0.521027,-0.200003 -0.15764,0.03208 -0.203004,-0.190859 -0.04536,-0.222936 l 0,0 c 0.166196,-0.135825 0.332392,-0.271651 0.498587,-0.407477 0.208409,-0.06542 0.410997,-0.153601 0.625226,-0.19626 0.915531,-0.182307 2.059169,-0.01091 2.919932,0.328483 0.238628,0.09409 0.461598,0.223855 0.692397,0.335782 0.537596,0.389917 0.702868,0.452815 1.117081,0.976142 0.560711,0.708416 0.829533,1.572863 0.917164,2.460332 0.0062,0.197173 0.02323,0.394307 0.0185,0.59152 -0.01667,0.696367 -0.17572,1.411844 -0.523021,2.020666 -0.08299,0.145481 -0.187098,0.277853 -0.280646,0.416779 -0.305413,0.335079 -0.364738,0.434937 -0.737229,0.702657 -0.62296,0.44774 -1.35355,0.691066 -2.104049,0.816885 -0.213703,0.0234 -0.426531,0.05706 -0.641109,0.07021 -1.177824,0.07218 -2.355628,-0.138385 -3.467786,-0.517229 -0.519264,-0.219579 -0.761985,-0.293858 -1.233148,-0.603814 -0.520042,-0.342113 -0.977357,-0.793558 -1.267242,-1.349776 -0.08875,-0.17028 -0.14254,-0.356605 -0.21381,-0.534907 -0.03481,-0.183541 -0.08631,-0.364692 -0.104442,-0.550624 -0.08848,-0.90713 0.250444,-1.773468 0.701724,-2.540125 0.09848,-0.144517 0.190921,-0.293333 0.295427,-0.433552 0.460885,-0.618383 1.040331,-1.143351 1.724164,-1.503503 0.111304,-0.04961 0.220003,-0.105533 0.333914,-0.148821 0.36819,-0.139918 0.773138,-0.21603 1.161437,-0.125953 0.54012,0.0047 0.533513,0.768517 -0.0066,0.763845 z"
       inkscape:connector-curvature="0"
       transform="translate(0,1002.3622)" />
    <path
       style="fill:#000000;fill-opacity:1;fill-rule:nonzero;stroke:none"
       id="path3277"
       d="m 14.145214,20.587439 c -0.311569,-0.01264 -0.589896,0.02794 -0.888219,0.116959 -0.470801,0.179792 -0.881277,0.480659 -1.215869,0.856271 -0.09384,0.10534 -0.177362,0.21943 -0.266043,0.329145 -0.493845,0.684615 -0.849225,1.466775 -0.997471,2.300489 -0.02889,0.162479 -0.04132,0.327459 -0.06198,0.491189 -0.02181,0.52821 0.03849,1.076518 0.386692,1.500382 0.187674,0.228455 0.279711,0.25586 0.528756,0.40853 0.118174,0.04691 0.232692,0.104356 0.354524,0.140722 0.624743,0.18648 1.301815,0.125355 1.926137,-0.02696 0.187249,-0.04568 0.369707,-0.109143 0.554561,-0.163715 0.866939,-0.335603 1.7498,-0.757395 2.380369,-1.464572 0.09898,-0.111001 0.178331,-0.238051 0.267496,-0.357076 0.06159,-0.121726 0.136066,-0.237751 0.184781,-0.365179 0.145084,-0.37951 0.146224,-0.794625 0.05452,-1.186454 -0.09556,-0.408291 -0.17497,-0.510843 -0.36304,-0.887947 -0.37979,-0.600843 -0.818961,-1.002635 -1.501316,-1.230208 -0.432086,-0.144105 -0.558721,-0.129692 -1.014062,-0.17362 -0.596813,-0.0014 -1.188319,0.08717 -1.779407,0.157645 -0.230106,0.1065 -0.38072,-0.218919 -0.150614,-0.325419 l 0,0 c 0.185222,-0.157147 0.351493,-0.339851 0.555665,-0.47144 0.541808,-0.349195 0.792335,-0.346558 1.40905,-0.482707 0.652554,-0.0097 0.858845,-0.06638 1.490387,0.137709 0.691624,0.223509 1.30679,0.685557 1.76102,1.246509 0.14868,0.183613 0.263868,0.391983 0.395802,0.587975 0.249256,0.544599 0.36521,0.7069 0.472406,1.300398 0.117961,0.653107 0.05916,1.31912 -0.205557,1.930252 -0.08342,0.192596 -0.203864,0.366947 -0.305796,0.550421 -0.133257,0.164341 -0.255149,0.338589 -0.39977,0.493024 -0.607482,0.648706 -1.43075,1.150575 -2.242337,1.499561 -0.218161,0.09381 -0.445076,0.165787 -0.667614,0.248681 -0.583899,0.159666 -0.768134,0.236702 -1.371313,0.296318 -0.653095,0.06455 -1.325179,0.01957 -1.945055,-0.210315 -0.19102,-0.07084 -0.3673,-0.176403 -0.55095,-0.264604 -0.417442,-0.317653 -0.558799,-0.370138 -0.854306,-0.811472 -0.3262028,-0.487178 -0.4722216,-1.070777 -0.48514,-1.651381 -0.00443,-0.199246 0.021573,-0.398006 0.032359,-0.597009 0.037139,-0.199884 0.062642,-0.402285 0.1114178,-0.599653 0.049083,-0.198607 0.1137735,-0.393256 0.1816576,-0.586247 0.2610534,-0.742162 0.6345894,-1.438089 1.1303744,-2.050335 0.114207,-0.126492 0.223068,-0.258025 0.342622,-0.379477 0.464964,-0.472348 1.017549,-0.861976 1.666096,-1.026725 0.09668,-0.01754 0.192548,-0.04032 0.29003,-0.05261 0.329731,-0.04158 0.656664,0.0018 0.962339,0.13148 0.453583,0.122472 0.280381,0.763935 -0.173201,0.641463 z"
       inkscape:connector-curvature="0"
       transform="translate(0,1002.3622)" />
    <path
       style="fill:#000000;fill-opacity:1;fill-rule:nonzero;stroke:none"
       id="path3279"
       d="m 37.07225,21.211069 c -0.261228,0.205185 0.192013,-0.153259 -0.183224,0.155712 -0.180292,0.148453 -0.157144,0.10755 -0.347776,0.280443 -0.19437,0.176283 -0.273925,0.273134 -0.455315,0.471208 -0.363623,0.429103 -0.674214,0.906943 -0.887914,1.428984 -0.132043,0.322564 -0.163894,0.489679 -0.251463,0.824862 -0.08933,0.484005 -0.09315,0.981397 0.0795,1.448476 0.102081,0.27616 0.162017,0.338568 0.321288,0.583874 0.413773,0.515361 0.984351,0.853475 1.616698,1.032655 0.146395,0.04148 0.296535,0.06839 0.444802,0.102579 0.569845,0.08892 1.162065,0.07965 1.705443,-0.134605 0.301536,-0.118894 0.359288,-0.183405 0.615223,-0.36709 0.07242,-0.0813 0.153117,-0.155921 0.217266,-0.243894 0.308903,-0.423623 0.410025,-0.985859 0.419505,-1.498403 0.0032,-0.174939 -0.0138,-0.349665 -0.02069,-0.524497 -0.09034,-0.676613 -0.220621,-1.394548 -0.643908,-1.953879 -0.197644,-0.261167 -0.323852,-0.321559 -0.583781,-0.505967 -0.577032,-0.330028 -1.246195,-0.355077 -1.880981,-0.487682 -0.21285,-0.04446 -0.422361,-0.103635 -0.633541,-0.155453 -0.171035,0.0357 -0.221515,-0.206185 -0.05048,-0.24188 l 0,0 c 0.201652,-0.137974 0.385504,-0.306492 0.604955,-0.413923 0.644938,-0.315729 1.457783,-0.356708 2.145624,-0.177563 0.234455,0.06106 0.451194,0.176678 0.676791,0.265018 0.193732,0.138147 0.405305,0.254195 0.581195,0.414443 0.700833,0.638503 1.058533,1.595198 1.223223,2.505712 0.04252,0.235071 0.05875,0.474146 0.08813,0.711219 0.0094,0.575704 0.04106,0.823442 -0.05801,1.391567 -0.11141,0.638837 -0.36036,1.248923 -0.785595,1.745142 -0.133204,0.15544 -0.296526,0.282299 -0.444789,0.423449 -0.168839,0.111817 -0.328333,0.239221 -0.506516,0.335453 -0.729468,0.393969 -1.584218,0.513059 -2.402126,0.449404 -0.208577,-0.01623 -0.414721,-0.05549 -0.622081,-0.08323 -0.199949,-0.0509 -0.403117,-0.09051 -0.599846,-0.1527 -0.761149,-0.240626 -1.482092,-0.641937 -2.024158,-1.235936 -0.128175,-0.140455 -0.233791,-0.299946 -0.350687,-0.449919 -0.242647,-0.4348 -0.328669,-0.527741 -0.462721,-1.010519 -0.199859,-0.719781 -0.147538,-1.461666 0.06441,-2.171203 0.0613,-0.170558 0.114315,-0.344322 0.183888,-0.511673 0.333398,-0.801949 0.839694,-1.523 1.451102,-2.136356 0.359869,-0.317818 0.742267,-0.657681 1.210245,-0.807328 0.123424,-0.03947 0.258924,-0.04819 0.387101,-0.0613 0.533721,-0.112587 0.692942,0.64221 0.15922,0.754796 z"
       inkscape:connector-curvature="0"
       transform="translate(0,1002.3622)" />
    <path
       style="fill:#000000;fill-opacity:1;fill-rule:nonzero;stroke:none"
       id="path3281"
       d="M 24.682678,2.9864983 C 24.289079,3.096849 23.972367,3.3765776 23.665339,3.6331072 23.15812,4.1068323 22.73954,4.6767329 22.468238,5.317803 22.411419,5.4520622 22.367946,5.591586 22.3178,5.7284775 c -0.16897,0.5462806 -0.231656,1.1209761 -0.09185,1.6819496 0.08768,0.3518038 0.15565,0.4362027 0.321975,0.7562619 0.08434,0.1167198 0.159704,0.2404914 0.253033,0.3501594 0.438804,0.5156215 1.055386,0.8902361 1.676185,1.143992 0.183283,0.074918 0.373619,0.1312649 0.560429,0.1968974 0.774635,0.2258862 1.585552,0.3351912 2.389681,0.2204612 0.499074,-0.0712 0.588319,-0.1293212 1.054709,-0.2965299 0.625445,-0.2894936 1.15791,-0.7281342 1.515596,-1.3228548 0.232446,-0.3864846 0.262268,-0.5514331 0.407967,-0.9797887 0.03576,-0.1860037 0.08414,-0.3700193 0.107274,-0.5580112 0.09677,-0.7864809 3.4e-4,-1.6341567 -0.340605,-2.3553081 C 30.091568,4.3951614 29.980304,4.2408625 29.884357,4.0784406 29.559686,3.7266245 29.508179,3.6118382 29.079025,3.3818068 28.913021,3.2928269 28.734959,3.2269168 28.556353,3.167129 27.875994,2.9393811 27.171204,2.8816382 26.462291,2.8147731 26.181193,2.7892953 25.900095,2.7638175 25.618998,2.7383396 25.267604,2.8065996 25.17107,2.3096531 25.522464,2.2413932 l 0,0 c 0.286416,-0.13572 0.572832,-0.2714399 0.859248,-0.4071598 0.790615,-0.182641 1.061203,-0.3087495 1.882913,-0.2451512 0.913358,0.070691 1.756735,0.4498964 2.418331,1.0830203 0.204056,0.1952739 0.362738,0.4330164 0.544107,0.6495246 0.132681,0.2431997 0.286237,0.4761233 0.398042,0.7295992 0.433758,0.9833888 0.551409,2.1219403 0.397361,3.1805038 -0.03752,0.2578103 -0.10988,0.5093342 -0.16482,0.7640013 -0.225832,0.6150717 -0.264889,0.8267467 -0.622014,1.3811304 -0.402899,0.6254412 -0.951737,1.1500032 -1.590039,1.5311712 -0.211976,0.126584 -0.441673,0.220804 -0.662509,0.331205 -0.644041,0.214643 -0.768481,0.291122 -1.448106,0.376499 -1.018095,0.127898 -2.041874,-0.01203 -3.018593,-0.307486 -0.606974,-0.221925 -0.810024,-0.2679 -1.373104,-0.585137 C 22.328815,10.264249 21.659935,9.6206148 21.193363,8.8089614 20.959159,8.2835902 20.870547,8.1685592 20.764724,7.6002467 20.614105,6.7913671 20.729691,5.9722179 20.995183,5.2013583 c 0.07626,-0.180293 0.142517,-0.3651577 0.228796,-0.5408789 0.393849,-0.8021361 0.992907,-1.4828868 1.692914,-2.0310689 0.12465,-0.085377 0.244347,-0.1784779 0.37395,-0.2561311 0.447426,-0.2680824 0.968214,-0.4372113 1.492158,-0.3654978 0.692057,0.070939 0.591735,1.0496553 -0.100323,0.9787167 z"
       inkscape:connector-curvature="0"
       transform="translate(0,1002.3622)" />
    <path
       style="fill:#000000;fill-opacity:1;fill-rule:nonzero;stroke:none"
       id="path3287"
       d="m 21.422256,10.857518 c -0.157261,0.493924 -0.405511,0.952636 -0.652604,1.406099 -0.482189,0.854399 -1.00102,1.687288 -1.507094,2.527563 -0.512872,0.841513 -1.003738,1.69544 -1.472411,2.56224 -0.164326,0.254898 -0.298908,0.61081 -0.559843,0.791438 -0.0832,0.05759 -0.184406,0.08337 -0.276609,0.125052 -0.03073,0.104232 -0.178134,0.06078 -0.147407,-0.04345 l 0,0 c -0.05136,-0.09687 -0.125717,-0.184689 -0.154079,-0.290596 -0.09259,-0.34576 0.100786,-0.74703 0.216679,-1.057597 0.447554,-0.908234 0.970599,-1.776447 1.507852,-2.634085 0.52435,-0.828534 1.048033,-1.657778 1.599851,-2.468438 0.290996,-0.421113 0.581852,-0.847566 0.936921,-1.218217 0.212129,-0.359736 0.720874,-0.05974 0.508744,0.299996 z"
       inkscape:connector-curvature="0"
       transform="translate(0,1002.3622)" />
    <path
       style="fill:#000000;fill-opacity:1;fill-rule:nonzero;stroke:none"
       id="path3289"
       d="m 32.319754,10.033928 c 0.405834,0.455626 0.764406,0.952707 1.137177,1.435742 0.684003,0.879217 1.327567,1.789551 1.955646,2.709319 0.342161,0.514423 0.679532,1.03382 0.966867,1.581545 0.168973,0.322099 0.373285,0.738077 0.463614,1.09448 0.04669,0.184222 0.05609,0.375931 0.08413,0.563896 0.157828,0.320104 -0.294866,0.543306 -0.452694,0.223203 l 0,0 c -0.129207,-0.130968 -0.269125,-0.252171 -0.387623,-0.392903 -0.204661,-0.243063 -0.46585,-0.674477 -0.633116,-0.940645 -0.316915,-0.504303 -0.628737,-1.011971 -0.961748,-1.505963 -0.621289,-0.924644 -1.26036,-1.839438 -1.824592,-2.800618 -0.312581,-0.533815 -0.642172,-1.0636 -0.891683,-1.630328 -0.238809,-0.3846822 0.305213,-0.7224096 0.544023,-0.337728 z"
       inkscape:connector-curvature="0"
       transform="translate(0,1002.3622)" />
    <path
       style="fill:#000000;fill-opacity:1;fill-rule:nonzero;stroke:none"
       id="path3297"
       d="m 11.368939,29.085498 c -0.02391,0.758816 -0.226594,1.50017 -0.421637,2.229475 -0.35693,1.225298 -0.766749,2.43416 -1.155763,3.6494 -0.1656554,0.488987 -0.267237,1.004376 -0.4749557,1.479271 -0.050967,0.116522 -0.1024584,0.235402 -0.1791041,0.336893 -0.069235,0.09168 -0.1683224,0.156399 -0.2524836,0.234599 -0.1242906,0.488349 -0.8149207,0.312575 -0.6906301,-0.175774 l 0,0 C 8.158222,36.728896 8.1013135,36.62317 8.085935,36.507962 8.0684111,36.376683 8.0818551,36.24235 8.0971114,36.110788 8.1590705,35.576485 8.3550445,35.066469 8.5053682,34.554298 8.8912709,33.339171 9.313259,32.13697 9.74985,30.939152 c 0.2441817,-0.672169 0.481913,-1.347476 0.744475,-2.012527 0.11234,-0.618445 0.986953,-0.459572 0.874614,0.158873 z"
       inkscape:connector-curvature="0"
       transform="translate(0,1002.3622)" />
    <path
       style="fill:#000000;fill-opacity:1;fill-rule:nonzero;stroke:none"
       id="path3299"
       d="m 16.984781,28.395621 c 0.18605,0.502412 0.24572,1.043644 0.318454,1.571614 0.105838,0.964277 0.220582,1.926771 0.381525,2.883559 0.145893,0.915069 0.424671,1.798693 0.660395,2.692249 0.09162,0.398037 0.215299,0.802798 0.189947,1.217184 -0.008,0.130327 -0.04383,0.257436 -0.06574,0.386155 0.130147,0.420307 -0.464257,0.604362 -0.594404,0.184055 l 0,0 c -0.09028,-0.09207 -0.190632,-0.175242 -0.270843,-0.276205 -0.259526,-0.326667 -0.394615,-0.729775 -0.549566,-1.110201 -0.335157,-0.939402 -0.586015,-1.905932 -0.726358,-2.894491 -0.126741,-1.003348 -0.211181,-2.012921 -0.18971,-3.025365 0.01308,-0.342397 0.02584,-0.68079 0.06817,-1.020959 0.0056,-0.04524 0.04876,-0.3714 0.0623,-0.435811 0.0099,-0.04713 0.02677,-0.09253 0.04015,-0.138792 -0.02333,-0.47778 0.652354,-0.510772 0.675682,-0.03299 z"
       inkscape:connector-curvature="0"
       transform="translate(0,1002.3622)" />
    <path
       style="fill:#000000;fill-opacity:1;fill-rule:nonzero;stroke:none"
       id="path3301"
       d="m 35.448844,29.448985 c 0.0011,0.04578 0.006,0.09164 0.0033,0.137355 -0.0069,0.116703 -0.04234,0.306061 -0.06548,0.414101 -0.07132,0.332858 -0.159444,0.622835 -0.271171,0.944675 -0.358633,1.006715 -0.889115,1.936904 -1.430581,2.853712 -0.613016,1.006072 -1.292876,1.970811 -2.021571,2.896132 -0.136248,0.144306 -0.407191,0.45836 -0.596137,0.561396 -0.106577,0.05812 -0.231715,0.07248 -0.347573,0.10872 -0.24261,0.338616 -0.721485,-0.0045 -0.478875,-0.343103 l 0,0 c -0.0031,-0.121072 -0.0303,-0.243913 -0.0094,-0.363215 0.03873,-0.221468 0.24926,-0.569934 0.348196,-0.753343 0.636929,-0.947465 1.325758,-1.859301 1.939663,-2.822541 0.542186,-0.847974 1.06005,-1.711068 1.544275,-2.593618 0.283387,-0.5327 0.04413,-0.0917 0.318601,-0.575828 0.10755,-0.189701 0.204783,-0.390396 0.3286,-0.570557 0.02501,-0.03639 0.05495,-0.06914 0.08243,-0.103707 0.148366,-0.463716 0.804159,-0.253895 0.655793,0.209821 z"
       inkscape:connector-curvature="0"
       transform="translate(0,1002.3622)" />
    <path
       style="fill:#000000;fill-opacity:1;fill-rule:nonzero;stroke:none"
       id="path3303"
       d="m 39.739905,29.949209 c 0.06623,0.465314 0.08183,0.935693 0.133774,1.40276 0.06914,0.67173 0.296239,1.306485 0.547312,1.928096 0.284427,0.695303 0.672754,1.343527 0.963839,2.035617 0.06205,0.147537 0.114014,0.299117 0.171022,0.448675 0.08603,0.285239 0.200694,0.584462 0.19823,0.889564 -0.0012,0.148637 -0.04697,0.29355 -0.07046,0.440324 0.123483,0.307459 -0.311329,0.482089 -0.434812,0.174631 l 0,0 c -0.11447,-0.07977 -0.23988,-0.145773 -0.34341,-0.239303 -0.199964,-0.180651 -0.375125,-0.467607 -0.523669,-0.685845 -0.08238,-0.132908 -0.168427,-0.263608 -0.24713,-0.398723 -0.401787,-0.689783 -0.740791,-1.417712 -1.048715,-2.153203 -0.05138,-0.140398 -0.106724,-0.279407 -0.154144,-0.421192 -0.210447,-0.629243 -0.332986,-1.283292 -0.351808,-1.947017 -0.0032,-0.492423 0.0073,-0.986933 0.08422,-1.474384 0,-0.760671 1.075751,-0.760671 1.075751,0 z"
       inkscape:connector-curvature="0"
       transform="translate(0,1002.3622)" />
  </g>
</svg>
