<?xml version="1.0" encoding="UTF-8" standalone="no"?>
<!-- Created with Inkscape (http://www.inkscape.org/) -->

<svg
   xmlns:dc="http://purl.org/dc/elements/1.1/"
   xmlns:cc="http://creativecommons.org/ns#"
   xmlns:rdf="http://www.w3.org/1999/02/22-rdf-syntax-ns#"
   xmlns:svg="http://www.w3.org/2000/svg"
   xmlns="http://www.w3.org/2000/svg"
   xmlns:sodipodi="http://sodipodi.sourceforge.net/DTD/sodipodi-0.dtd"
   xmlns:inkscape="http://www.inkscape.org/namespaces/inkscape"
   width="50"
   height="50"
   id="svg3213"
   version="1.1"
   inkscape:version="0.48.4 r9939"
   sodipodi:docname="sys-artificial-intelligence-logo.svg">
  <sodipodi:namedview
     id="base"
     pagecolor="#ffffff"
     bordercolor="#666666"
     borderopacity="1.0"
     inkscape:pageopacity="0.0"
     inkscape:pageshadow="2"
     inkscape:zoom="16.22"
     inkscape:cx="25"
     inkscape:cy="25.19899"
     inkscape:document-units="px"
     inkscape:current-layer="layer1"
     showgrid="false"
     inkscape:window-width="1680"
     inkscape:window-height="998"
     inkscape:window-x="1672"
     inkscape:window-y="486"
     inkscape:window-maximized="1" />
  <metadata
     id="metadata3218">
    <rdf:RDF>
      <cc:Work
         rdf:about="">
        <dc:format>image/svg+xml</dc:format>
        <dc:type
           rdf:resource="http://purl.org/dc/dcmitype/StillImage" />
        <dc:title />
      </cc:Work>
    </rdf:RDF>
  </metadata>
  <g
     inkscape:label="Layer 1"
     inkscape:groupmode="layer"
     id="layer1"
     transform="translate(0,-1002.3622)">
    <path
       style="fill:#000000;fill-opacity:1;fill-rule:nonzero;stroke:none"
       id="path3495"
       d="m 10.455084,1013.9692 c 0.0705,0.4791 0.04903,0.9659 0.04517,1.4486 0.0068,0.9027 -0.03855,1.8046 -0.07508,2.7063 -0.0643,1.2677 -0.153019,2.5339 -0.239946,3.8002 -0.114972,1.537 -0.176055,3.0772 -0.2409136,4.6169 -0.051994,1.6303 -0.090927,3.2612 -0.1231529,4.8921 -0.030901,1.5646 -0.042834,3.1298 -0.045116,4.6947 -0.00433,1.1811 0.031222,2.3616 0.058392,3.5421 0.00693,0.437 -0.00651,0.874 -0.047555,1.3092 -0.020118,0.2133 -0.045257,0.4752 -0.110053,0.6831 -0.028263,0.091 -0.074864,0.1745 -0.1122965,0.2618 -0.070639,0.064 -0.141277,0.1283 -0.2119156,0.1925 -0.00278,0.2152 -0.3071024,0.2112 -0.3043186,-0 l 0,0 c -0.068986,-0.064 -0.1379712,-0.1273 -0.2069565,-0.1909 -0.036886,-0.084 -0.08196,-0.1644 -0.1106571,-0.2514 -0.065756,-0.1992 -0.1000703,-0.4614 -0.127755,-0.6655 -0.057945,-0.4273 -0.094931,-0.8569 -0.1176225,-1.2875 -0.056559,-1.1964 -0.1029738,-2.3935 -0.099903,-3.5915 0.00234,-1.5752 0.021244,-3.1502 0.062065,-4.7249 0.044439,-1.6387 0.092848,-3.2771 0.16308,-4.9149 0.062605,-1.5539 0.1636926,-3.1056 0.2808861,-4.6563 0.097456,-1.2616 0.2035261,-2.5224 0.3067657,-3.7835 0.077605,-0.8992 0.1371628,-1.8007 0.260072,-2.6953 0.056227,-0.4639 0.098039,-0.9305 0.1832552,-1.3901 0.00581,-0.5753 0.8193661,-0.5671 0.8135521,0.01 z"
       inkscape:connector-curvature="0" />
    <path
       style="fill:#000000;fill-opacity:1;fill-rule:nonzero;stroke:none"
       id="path3497"
       d="m 10.101574,1013.6727 c 0.03742,-0.017 0.07296,-0.038 0.112269,-0.05 0.118719,-0.034 0.24294,-0.046 0.365129,-0.064 0.298973,-0.045 0.599284,-0.077 0.900163,-0.1062 1.03062,-0.089 2.064714,-0.1247 3.097809,-0.1729 1.493302,-0.069 2.987902,-0.1002 4.482597,-0.1175 1.865273,-0.016 3.730596,-0.025 5.595885,-0.039 2.028581,-0.025 4.057505,-0.017 6.086131,0 1.809301,0.019 3.617914,0.075 5.425744,0.1481 1.471675,0.075 2.944634,0.1169 4.417125,0.171 0.791387,0.023 1.581379,0.1356 2.330218,0.3968 0.245633,0.1235 0.13066,0.057 0.346371,0.1963 0.06712,-4e-4 0.06775,0.094 6.34e-4,0.095 l 0,0 c -0.216737,0.142 -0.100777,0.075 -0.349535,0.1983 -0.759344,0.2542 -1.56004,0.344 -2.359271,0.329 -1.479331,-0.023 -2.957279,-0.092 -4.435475,-0.1519 -1.796004,-0.073 -3.592288,-0.1395 -5.389911,-0.1548 -2.023895,-0.029 -4.047918,-0.043 -6.071887,-0.063 -1.86238,-0.014 -3.724853,-0.024 -5.587283,-0.018 -1.484823,0.01 -2.969755,0.01 -4.454167,0.051 -1.029393,0.026 -2.058281,0.068 -3.087952,0.08 -0.298935,6e-4 -0.598024,10e-5 -0.896843,-0.01 -0.118941,-0 -0.238944,-7e-4 -0.356511,-0.019 -0.03733,-0.01 -0.07244,-0.021 -0.108659,-0.032 -0.4709483,0.044 -0.5335289,-0.6218 -0.06258,-0.666 z"
       inkscape:connector-curvature="0" />
    <path
       style="fill:#000000;fill-opacity:1;fill-rule:nonzero;stroke:none"
       id="path3499"
       d="m 42.845225,1014.2059 c 0.03569,0.4147 -0.03175,0.8307 -0.08676,1.2409 -0.09682,0.6733 -0.236261,1.339 -0.393616,2 -0.210616,0.8602 -0.408856,1.7235 -0.575543,2.5939 -0.199742,1.0468 -0.337204,2.1046 -0.446612,3.1648 -0.122884,1.2176 -0.13394,2.4421 -0.132367,3.6649 0.01227,1.3691 0.105,2.7348 0.200182,4.0998 0.08258,1.3582 0.191211,2.7147 0.294773,4.0715 0.01595,0.2241 0.03401,0.4481 0.04783,0.6723 0.02703,0.4388 0.04815,0.8778 0.06985,1.3168 0.01917,0.3878 0.0398,0.8094 0.03796,1.1986 -8.27e-4,0.1749 -0.01038,0.3495 -0.01556,0.5243 -0.03882,0.3312 -0.04181,0.5557 -0.16401,0.8657 -0.04803,0.1218 -0.123347,0.2304 -0.185021,0.3455 0.02611,0.3524 -0.460172,0.3903 -0.486285,0.038 l 0,0 c -0.07831,-0.1093 -0.170856,-0.2094 -0.23493,-0.3281 -0.160066,-0.2964 -0.184808,-0.5282 -0.256271,-0.8565 -0.02128,-0.1734 -0.04683,-0.3464 -0.06387,-0.5203 -0.03419,-0.349 -0.05814,-0.8364 -0.07775,-1.1832 -0.06962,-1.2309 5.08e-4,-0.046 -0.08227,-1.2986 -0.01472,-0.2227 -0.02769,-0.4455 -0.04153,-0.6682 -0.08568,-1.3619 -0.189474,-2.7224 -0.286543,-4.0835 -0.0763,-1.3982 -0.136097,-2.7984 -0.132567,-4.1991 0.01029,-1.2715 0.06023,-2.5433 0.19282,-3.8082 0.123181,-1.1058 0.270646,-2.2094 0.520391,-3.294 0.206077,-0.8824 0.424372,-1.7615 0.678474,-2.6308 0.184606,-0.6413 0.39381,-1.2744 0.608733,-1.9056 0.122011,-0.37 0.220083,-0.7484 0.359248,-1.1117 0.06269,-0.4719 0.713938,-0.3811 0.651242,0.091 z"
       inkscape:connector-curvature="0" />
    <path
       style="fill:#000000;fill-opacity:1;fill-rule:nonzero;stroke:none"
       id="path3503"
       d="m 9.6289128,1041.621 c 0.4439902,-0.1108 0.8938172,-0.1943 1.3432472,-0.278 0.870092,-0.1574 1.742318,-0.302 2.614186,-0.4486 1.253903,-0.2151 2.512898,-0.3968 3.773673,-0.5638 1.574809,-0.1947 3.154319,-0.3446 4.733291,-0.4983 1.762102,-0.1485 3.525333,-0.2837 5.290582,-0.3861 1.90971,-0.1155 3.821079,-0.1993 5.733415,-0.2507 1.686783,-0.05 3.373986,-0.071 5.061367,-0.076 0.911024,0 1.824255,-0.022 2.732444,0.065 0.250917,0.035 0.45687,0 0.547223,0.2798 0.02541,0.1037 0.03004,0.2099 0.03822,0.3155 0.07818,7e-4 0.07717,0.1139 -9.98e-4,0.1132 l 0,0 c -0.01205,0.1058 -0.02099,0.2127 -0.05631,0.3139 -0.105998,0.2705 -0.292318,0.2299 -0.547515,0.2558 -0.900835,0.058 -1.804152,0.027 -2.70615,0.041 -1.676644,0.013 -3.353477,0.023 -5.029642,0.069 -1.899164,0.06 -3.798302,0.1253 -5.6956,0.233 -1.751936,0.1047 -3.505016,0.1969 -5.253071,0.3595 -1.566667,0.1282 -3.131466,0.281 -4.692525,0.4683 -1.248971,0.1453 -2.496012,0.3059 -3.738402,0.5024 -0.874588,0.1334 -1.748119,0.2744 -2.624267,0.3969 -0.46401,0.06 -0.929132,0.1232 -1.3972972,0.1362 -0.7235084,0.091 -0.8493662,-0.9563 -0.1258578,-1.0474 z"
       inkscape:connector-curvature="0" />
    <path
       style="fill:#000000;fill-opacity:1;fill-rule:nonzero;stroke:none"
       id="path3549"
       d="m 14.154449,1025.4634 c 0.02706,-0.5931 0.06174,-1.1859 0.09347,-1.7788 0.05317,-0.9172 0.109628,-1.834 0.139264,-2.7525 0.02217,-0.5244 0.0035,-1.0503 0.04452,-1.5737 0.03807,-0.3302 0.139576,-0.6684 0.415947,-0.8789 0.06138,-0.047 0.133651,-0.077 0.200477,-0.1158 0.06906,-0.022 0.136748,-0.048 0.20719,-0.065 0.124808,-0.03 0.28386,-0.041 0.411068,-0.051 0.257645,-0.019 0.515908,-0.03 0.773684,-0.047 0.82132,-0.06 1.643328,-0.1093 2.46561,-0.1551 0.605849,-0.043 1.213108,-0.076 1.814096,-0.1651 0.213686,-0.026 0.447672,-0.124 0.664503,-0.054 0.09774,0.032 0.184615,0.09 0.276923,0.1356 0.06086,0.075 0.131831,0.1425 0.182579,0.2244 0.179443,0.2899 0.194952,0.8647 0.214574,1.1972 0.03639,0.7774 -0.05165,1.5511 -0.160591,2.3186 -0.09521,0.6651 -0.225833,1.325 -0.295162,1.9937 -0.04947,0.4071 -0.06213,0.8173 -0.09528,1.2257 -0.0275,0.2953 -0.0849,0.5956 -0.251741,0.8468 -0.03801,0.057 -0.08514,0.1079 -0.127699,0.1618 -0.332598,0.3526 -0.735425,0.483 -1.195211,0.589 -0.688779,0.1115 -1.391328,0.1089 -2.087792,0.1239 -0.434926,0.011 -0.869544,0.031 -1.30386,0.056 -0.319289,0.018 -0.456012,0.036 -0.769961,0.027 -0.103887,0 -0.207411,-0.014 -0.311116,-0.021 -0.334408,-0.09 -0.183985,-0.014 -0.452411,-0.2263 -0.426968,0.043 -0.490785,-0.5607 -0.06382,-0.604 l 0,0 c 0.228635,-0.2639 0.09153,-0.1593 0.413847,-0.3106 0.10549,-0.025 0.209838,-0.055 0.316472,-0.075 0.297714,-0.055 0.489903,-0.062 0.795548,-0.08 0.447808,-0.026 0.896223,-0.041 1.34477,-0.05 0.618491,-0.011 1.239991,0 1.854654,-0.076 0.177273,-0.031 0.354199,-0.066 0.509475,-0.1616 0.105488,-0.038 0.0794,-0.228 0.102421,-0.3106 0.03903,-0.4266 0.05831,-0.8551 0.116358,-1.2798 0.107175,-0.6728 0.230811,-1.3422 0.364523,-2.0101 0.117172,-0.6909 0.230938,-1.3868 0.216013,-2.0906 -0.0054,-0.1575 -0.0088,-0.3043 -0.02029,-0.4609 -0.0059,-0.08 -0.02807,-0.1585 -0.02598,-0.2384 1.26e-4,0 0.009,0 0.01353,-0.01 0.03275,0.028 0.06549,0.056 0.09824,0.084 0.391991,0.1396 0.03076,0.033 0.262841,0.065 0.01107,0 -0.02198,0 -0.03295,0.01 -0.03197,0.01 -0.06386,0.013 -0.09586,0.019 -0.147648,0.028 -0.135337,0.025 -0.298771,0.052 -0.630883,0.088 -1.266435,0.1389 -1.902659,0.1726 -0.823641,0.054 -1.647389,0.1071 -2.471629,0.1525 -0.25484,0.011 -0.50948,0.023 -0.764448,0.03 -0.07127,0 -0.142389,0.011 -0.213694,0.01 -0.0059,-2e-4 -0.01095,0 -0.01643,-0.01 0.01652,-0.022 0.0546,-0.095 0.03414,-0.076 -0.05125,0.047 -0.03806,0.1585 -0.05791,0.2135 -0.04283,0.5066 -0.01675,1.0169 -0.04471,1.5244 -0.03344,0.9262 -0.07761,1.8519 -0.13885,2.7765 -0.03606,0.5965 -0.06333,1.1938 -0.110736,1.7893 -0.04996,0.7332 -1.087162,0.6583 -1.037195,-0.075 z"
       inkscape:connector-curvature="0" />
    <path
       style="fill:#000000;fill-opacity:1;fill-rule:nonzero;stroke:none"
       id="path3559"
       d="m 35.526943,1025.445 c -0.440513,0.1642 -0.91505,0.2084 -1.378521,0.2659 -0.598682,0.069 -1.199253,0.1206 -1.798964,0.1802 -0.38911,0.034 -0.777322,0.086 -1.168433,0.076 -0.410912,-0.047 -0.704361,-0.2628 -0.851109,-0.6557 -0.02552,-0.068 -0.03744,-0.141 -0.05616,-0.2115 -0.0832,-0.5504 -0.06716,-1.1108 -0.06076,-1.6658 0.01009,-0.8589 0.03213,-1.7176 0.04108,-2.5766 0.0055,-0.6954 0.01518,-1.3911 0.08952,-2.083 0.05059,-0.3302 0.11157,-0.673 0.287584,-0.9634 0.03037,-0.05 0.06727,-0.096 0.100899,-0.144 0.275989,-0.3159 0.632558,-0.3732 1.024555,-0.4288 0.513102,-0.065 1.029698,-0.086 1.546415,-0.096 0.627851,-0.015 1.251157,0.048 1.867493,0.1622 0.379155,0.087 0.765092,0.2049 1.069481,0.4584 0.05405,0.045 0.101327,0.098 0.151991,0.1464 0.290034,0.328 0.360287,0.7459 0.408746,1.1656 0.05792,0.5974 0.06135,1.1976 0.05168,1.7971 -0.01607,0.8044 -0.150346,1.5993 -0.300301,2.3876 -0.117342,0.5407 -0.199799,1.091 -0.366084,1.6196 -0.06836,0.1641 -0.117914,0.3956 -0.293106,0.4862 -0.08403,0.043 -0.17724,0.034 -0.26736,0.037 -0.203867,0.3097 -0.641798,0.021 -0.437932,-0.2883 l 0,0 c -0.03666,-0.019 -0.07702,-0.031 -0.109987,-0.056 -0.158856,-0.1184 -0.07965,-0.3246 -0.05037,-0.4826 0.105176,-0.518 0.240627,-1.0297 0.342125,-1.5486 0.147262,-0.7255 0.289612,-1.4535 0.34311,-2.1932 0.02846,-0.5464 0.0302,-1.0948 -0.0022,-1.6411 -0.01687,-0.1711 -0.02807,-0.3508 -0.0997,-0.5097 -0.146155,-0.1871 -0.434874,-0.2116 -0.644478,-0.2735 -0.539365,-0.099 -1.087741,-0.1434 -1.636333,-0.1333 -0.467353,0.013 -0.935991,0.036 -1.398212,0.1103 -0.04764,0.01 -0.0954,0.015 -0.142926,0.024 -0.04809,0.01 -0.09449,0.03 -0.143344,0.031 -0.01335,10e-5 0.06924,-0.052 0.06307,-0.064 -0.104444,0.1505 -0.111527,0.3595 -0.147457,0.5341 -0.07618,0.6503 -0.07783,1.3057 -0.0835,1.9597 -0.009,0.8594 -0.01673,1.7189 -0.03809,2.5781 -0.0054,0.4582 -0.01606,0.9184 0.02776,1.3752 2.84e-4,0.012 0.01132,0.03 8.51e-4,0.035 -0.01051,0.01 -0.0176,-0.015 -0.02656,-0.023 -0.05237,-0.043 -0.113305,-0.096 -0.18744,-0.091 -0.0035,2e-4 0.0023,0.01 0.0034,0.01 0.110352,0.018 0.221722,0.01 0.333056,0 0.220662,-0.012 0.441073,-0.03 0.661455,-0.046 0.603315,-0.04 1.207565,-0.069 1.81218,-0.079 0.424865,-0.013 0.849011,-0.041 1.273783,-0.051 0.610909,-0.1337 0.8,0.7303 0.189091,0.864 z"
       inkscape:connector-curvature="0" />
    <path
       style="fill:#000000;fill-opacity:1;fill-rule:nonzero;stroke:none"
       id="path3565"
       d="m 13.160065,1036.8703 c -0.02206,-0.3604 -0.03009,-0.7216 -0.04084,-1.0825 -0.01244,-0.4518 -0.02881,-0.9034 -0.04918,-1.3549 -0.01979,-0.3487 -0.04617,-0.6969 -0.07029,-1.0453 -0.02383,-0.2826 -0.02604,-0.5613 0.04315,-0.8372 0.112724,-0.3258 0.337615,-0.4727 0.643745,-0.592 0.374189,-0.1266 0.76858,-0.1753 1.159153,-0.2213 0.584874,-0.062 1.171473,-0.1083 1.75728,-0.1615 0.70814,-0.065 1.417252,-0.1146 2.126922,-0.1588 0.868678,-0.042 1.736564,-0.096 2.603384,-0.1661 1.065413,-0.094 2.129027,-0.2077 3.193856,-0.3083 1.060338,-0.093 2.120573,-0.1861 3.181842,-0.2677 0.97799,-0.087 1.956844,-0.1625 2.935919,-0.2355 0.767431,-0.059 1.535754,-0.1054 2.304346,-0.1461 0.586529,-0.031 1.173655,-0.05 1.760825,-0.064 0.279001,-0 0.558117,-0 0.836524,-0.022 0.212189,-0.021 0.423974,-0.045 0.636895,-0.057 0.201986,-0.01 0.404129,-0.01 0.60623,-0.01 0.270005,-0.01 0.537861,-0.01 0.802515,0.051 0.351316,0.094 0.525882,0.3144 0.66092,0.6353 0.101596,0.2648 0.149153,0.5439 0.177413,0.8248 0.04051,0.3174 0.006,0.6349 -0.02409,0.9513 -0.02984,0.299 -0.07295,0.5962 -0.128093,0.8915 -0.05562,0.298 -0.171864,0.5756 -0.315465,0.8407 -0.152131,0.2741 -0.371558,0.4921 -0.619516,0.6792 -0.293483,0.2091 -0.633873,0.3253 -0.974254,0.4317 -0.434346,0.1225 -0.880809,0.1908 -1.326749,0.2546 -0.553822,0.075 -1.110934,0.1185 -1.667633,0.1652 -0.622228,0.045 -1.244042,0.095 -1.865928,0.1437 -0.704983,0.056 -1.410828,0.099 -2.117035,0.1358 -0.721399,0.035 -1.442997,0.066 -2.16465,0.096 -0.752409,0.039 -1.504896,0.076 -2.25683,0.1233 -0.74524,0.042 -1.489835,0.093 -2.234211,0.1472 -0.774454,0.062 -1.548966,0.1239 -2.324338,0.1734 -0.710455,0.045 -1.421947,0.07 -2.133022,0.1023 -0.564554,0.027 -1.128105,0.07 -1.690969,0.1206 -0.40196,0.039 -0.80368,0.081 -1.203994,0.1338 -0.212652,0.028 -0.426387,0.054 -0.634983,0.1056 -0.148721,0.041 -0.297628,0.083 -0.449584,0.1105 -0.174841,0.031 -0.250829,0.012 -0.342482,-0.1415 -0.06557,-0.099 -0.02544,-0.047 -0.125871,-0.1499 -0.146254,0.1415 -0.346334,-0.065 -0.200081,-0.2068 l 0,0 c -0.0588,-0.1519 -0.04865,-0.076 -0.03897,-0.2254 0.07068,-0.1951 0.138429,-0.3223 0.331727,-0.4138 0.170249,-0.082 0.348466,-0.1463 0.532005,-0.1919 0.253388,-0.06 0.510179,-0.1017 0.768703,-0.1332 0.416286,-0.051 0.833172,-0.097 1.251021,-0.1344 0.58113,-0.052 1.163033,-0.097 1.746185,-0.1198 0.704547,-0.032 1.409538,-0.054 2.113687,-0.095 0.771667,-0.046 1.542626,-0.1014 2.313624,-0.1576 0.75056,-0.052 1.501918,-0.092 2.253116,-0.1333 0.756959,-0.038 1.513684,-0.081 2.271021,-0.1119 0.719579,-0.036 1.439491,-0.063 2.159265,-0.094 0.695756,-0.033 1.391393,-0.07 2.085942,-0.1233 0.62231,-0.046 1.244582,-0.093 1.866894,-0.1392 0.53516,-0.036 1.070164,-0.08 1.603025,-0.1418 0.390545,-0.048 0.781579,-0.1016 1.163484,-0.1989 0.21924,-0.057 0.439783,-0.1204 0.635953,-0.2367 0.128578,-0.085 0.241103,-0.1847 0.322865,-0.3177 0.100883,-0.1613 0.17042,-0.3369 0.214581,-0.5221 0.06694,-0.2705 0.109617,-0.546 0.168361,-0.8183 0.0502,-0.235 0.09613,-0.4737 0.08276,-0.7153 -0.01381,-0.1922 -0.0302,-0.3857 -0.09017,-0.5701 -5.14e-4,-0 -0.02264,-0.069 -0.02054,-0.073 0.004,-0.01 0.08206,0.045 0.05588,0.016 -0.208276,-0.02 -0.417871,-0.01 -0.626776,-0.012 -0.180275,9e-4 -0.360891,0 -0.540362,0.022 -0.213348,0.019 -0.4261,0.043 -0.639181,0.065 -0.294578,0.02 -0.589638,0.02 -0.884725,0.025 -0.576035,0.01 -1.151738,0.03 -1.726954,0.063 -0.76264,0.044 -1.525028,0.091 -2.28725,0.1419 -0.976132,0.07 -1.951018,0.1544 -2.926416,0.2333 -1.057394,0.094 -2.116239,0.169 -3.173259,0.267 -1.069214,0.095 -2.137436,0.2007 -3.207044,0.2913 -0.873162,0.068 -1.747232,0.1189 -2.621758,0.1658 -0.701579,0.041 -1.402595,0.092 -2.102499,0.1555 -0.57562,0.047 -1.151497,0.091 -1.725836,0.1522 -0.31332,0.039 -0.63019,0.073 -0.932216,0.1698 -0.137846,0.05 -0.05473,0.029 -0.05594,-0.043 -0.05903,0.1182 0.0067,0.3893 -0.0031,0.5192 0.02105,0.3549 0.05763,0.7087 0.07131,1.0641 0.02055,0.4564 0.03187,0.9131 0.04672,1.3697 0.01029,0.3455 0.02043,0.691 0.04286,1.036 0.05332,0.685 -0.915546,0.7604 -0.968862,0.075 z"
       inkscape:connector-curvature="0" />
    <path
       style="fill:#000000;fill-opacity:1;fill-rule:nonzero;stroke:none"
       id="path3577"
       d="m 16.349227,1032.3246 c 0.01176,0.2571 0.0455,0.5113 0.08407,0.7656 0.0426,0.3062 0.09863,0.6103 0.143931,0.9162 0.04117,0.2666 0.08922,0.5321 0.142103,0.7966 0.03842,0.1972 0.07379,0.395 0.102758,0.5937 -0.0018,0.079 0.0411,0.1898 0.02403,0.2681 -0.0047,0.021 -0.01814,0.04 -0.02721,0.06 0.0388,0.1023 0.02467,0.2281 -0.01381,0.33 -0.0195,0.026 -0.01801,0.091 -0.04037,0.04 -0.179615,-0.2016 -0.01527,-0.027 -0.750262,0.018 -0.07769,0 0.155613,-0 0.233419,-0.01 0.0017,-0.025 0.03776,-0.023 0.03608,0 l 0,0 c 0.07554,0.032 0.30317,0.067 0.226618,0.097 -0.654707,0.2553 -0.607826,0.3056 -0.765046,0.078 -0.02151,-0.07 -0.02138,-0.1448 -0.05672,-0.2106 -0.02671,-0.091 -0.06248,-0.2067 -0.02129,-0.2955 -0.01037,-0.01 -0.02311,-0.014 -0.03111,-0.025 -0.02489,-0.033 -0.0069,-0.1408 -0.02646,-0.1791 -0.02691,-0.1849 -0.05423,-0.3698 -0.0856,-0.5541 -0.04571,-0.2809 -0.09258,-0.5616 -0.131389,-0.8436 -0.04485,-0.3251 -0.07406,-0.6516 -0.09675,-0.979 -0.01336,-0.3021 -0.01929,-0.6067 0.02154,-0.9069 0.02471,-0.7294 1.056172,-0.6944 1.031466,0.035 z"
       inkscape:connector-curvature="0" />
    <path
       style="fill:#000000;fill-opacity:1;fill-rule:nonzero;stroke:none"
       id="path3579"
       d="m 19.466543,1032.2597 c 0.02412,0.3137 0.04489,0.6277 0.06079,0.9419 0.01443,0.3462 0.04112,0.6911 0.0783,1.0356 0.03161,0.2894 0.07838,0.5769 0.124242,0.8643 0.02602,0.2496 0.105441,0.4989 0.08446,0.7507 -0.01191,0.026 -0.01849,0.054 -0.03574,0.077 -0.08862,0.1147 -0.298066,0.1108 -0.417166,0.1289 0.118327,0.1136 -0.0424,0.281 -0.160726,0.1673 l 0,0 c -0.279734,0.01 -0.398255,0.039 -0.564549,-0.2037 -0.08715,-0.2329 -0.08323,-0.4884 -0.131777,-0.7309 -0.04651,-0.3125 -0.09675,-0.6247 -0.124423,-0.9396 -0.02949,-0.3719 -0.04552,-0.7451 -0.05151,-1.118 -0.001,-0.3294 0.01201,-0.6585 0.04736,-0.9861 0.0091,-0.7713 1.099878,-0.7584 1.090741,0.013 z"
       inkscape:connector-curvature="0" />
    <path
       style="fill:#000000;fill-opacity:1;fill-rule:nonzero;stroke:none"
       id="path3581"
       d="m 22.11161,1032.0158 c 0.05367,0.2742 0.08774,0.5521 0.104168,0.8309 0.01346,0.3325 0.01931,0.6656 0.01957,0.9984 0.004,0.3124 2.31e-4,0.6249 0.0073,0.9374 -0.0033,0.2525 0.009,0.5045 0.02641,0.7563 -0.0048,0.14 0.05416,0.3309 -0.04285,0.4527 -0.01734,0.022 -0.04209,0.036 -0.06313,0.055 -0.14982,0.055 -0.06631,0.028 -0.251882,0.077 0.04588,0.2223 -0.268408,0.2872 -0.314289,0.065 l 0,0 c -0.203649,-0.024 -0.112756,0 -0.275703,-0.067 -0.02436,-0.019 -0.05165,-0.034 -0.07309,-0.057 -0.110716,-0.1144 -0.08807,-0.3044 -0.112413,-0.4482 -0.01896,-0.2784 -0.02801,-0.5575 -0.02304,-0.8366 0.0085,-0.3181 0.0069,-0.6365 0.02152,-0.9545 0.0118,-0.3256 0.03494,-0.6507 0.05258,-0.976 0.01492,-0.2761 0.04693,-0.5514 0.09476,-0.8238 -0.0069,-0.587 0.823212,-0.5967 0.830109,-0.01 z"
       inkscape:connector-curvature="0" />
    <path
       style="fill:#000000;fill-opacity:1;fill-rule:nonzero;stroke:none"
       id="path3583"
       d="m 25.113577,1031.7202 c 0.06168,0.3611 0.05378,0.73 0.05561,1.0951 0.0012,0.4462 0.0075,0.8924 0.01327,1.3386 -0.01451,0.3241 0.04169,0.6549 -0.0091,0.9773 -0.0089,0.056 -0.02504,0.111 -0.03756,0.1666 -0.03659,0.088 -0.07774,0.2135 -0.148584,0.2844 -0.04466,0.045 -0.103565,0.072 -0.155347,0.1086 0.0018,0.3314 -0.466748,0.3339 -0.468562,0 l 0,0 c -0.05217,-0.035 -0.111245,-0.062 -0.156521,-0.106 -0.07115,-0.069 -0.114761,-0.1925 -0.152713,-0.2791 -0.01359,-0.055 -0.03075,-0.1086 -0.04076,-0.164 -0.05935,-0.3285 -0.01175,-0.6689 -0.02863,-1.0001 0.01306,-0.4631 0.03852,-0.9264 0.08918,-1.387 0.04039,-0.3662 0.07625,-0.7374 0.184121,-1.0911 0.03829,-0.605 0.893867,-0.5509 0.855573,0.054 z"
       inkscape:connector-curvature="0" />
    <path
       style="fill:#000000;fill-opacity:1;fill-rule:nonzero;stroke:none"
       id="path3585"
       d="m 28.103028,1031.2644 c 0.0316,0.3011 0.04823,0.6033 0.0666,0.9054 0.02423,0.3792 0.02469,0.7597 0.02309,1.1397 -0.0048,0.3597 -0.002,0.7196 -0.0052,1.0794 -0.02209,0.2411 0.03647,0.5181 -0.07323,0.7454 -0.01686,0.035 -0.04377,0.064 -0.06566,0.096 -0.104543,0.124 -0.229309,0.1243 -0.381186,0.1376 0.01088,0.1477 -0.19798,0.163 -0.208859,0.015 l 0,0 c -0.149223,-0.038 -0.281181,-0.06 -0.376459,-0.1915 -0.01927,-0.034 -0.04361,-0.065 -0.05782,-0.1005 -0.08909,-0.2252 -0.01643,-0.4854 -0.03147,-0.7185 0.0065,-0.367 0.01038,-0.7341 0.02675,-1.1009 0.02319,-0.3978 0.0575,-0.7966 0.139581,-1.1873 0.07127,-0.3206 0.147672,-0.6418 0.291613,-0.9391 0.08397,-0.4612 0.736178,-0.3424 0.652204,0.1187 z"
       inkscape:connector-curvature="0" />
    <path
       style="fill:#000000;fill-opacity:1;fill-rule:nonzero;stroke:none"
       id="path3587"
       d="m 30.933933,1031.292 c 0.09342,0.3513 0.09193,0.7225 0.0964,1.0838 0.0072,0.5064 -1.44e-4,1.0134 -0.0063,1.5199 -0.01959,0.3979 0.02868,0.8049 -0.06003,1.1972 -0.01456,0.064 -0.03753,0.1266 -0.05629,0.1899 -0.114594,0.2119 -0.0388,0.1204 -0.228747,0.2735 0.01716,0.4076 -0.559378,0.4319 -0.576538,0.024 l 0,0 c -0.2,-0.1782 -0.121878,-0.076 -0.240329,-0.3008 -0.0184,-0.064 -0.04115,-0.127 -0.05519,-0.1922 -0.08664,-0.4022 -0.0302,-0.8184 -0.03145,-1.2252 0.02122,-0.5191 0.05193,-1.0402 0.128462,-1.5542 0.04604,-0.3406 0.08544,-0.6877 0.189331,-1.0161 0,-0.5945 0.840713,-0.5945 0.840713,0 z"
       inkscape:connector-curvature="0" />
    <path
       style="fill:#000000;fill-opacity:1;fill-rule:nonzero;stroke:none"
       id="path3589"
       d="m 33.841337,1030.996 c 0.05819,0.3752 0.03701,0.7589 0.03803,1.1378 0.0053,0.5345 -0.03689,1.0667 -0.08469,1.5986 -0.03564,0.2965 -0.04557,0.6186 -0.185863,0.8908 -0.08456,0.1641 -0.140133,0.195 -0.272654,0.3201 -0.09147,0.039 -0.182938,0.078 -0.274407,0.1172 -0.0069,0.077 -0.116466,0.068 -0.109549,-0.01 l 0,0 c -0.0829,-0.057 -0.165807,-0.1137 -0.24871,-0.1706 -0.103179,-0.153 -0.152313,-0.1975 -0.20005,-0.3773 -0.0774,-0.2915 -0.02092,-0.6039 0.0018,-0.8974 0.05683,-0.5296 0.107605,-1.06 0.211835,-1.583 0.07405,-0.3843 0.132363,-0.7816 0.291507,-1.1415 0.08135,-0.5889 0.914158,-0.4738 0.832803,0.1151 z"
       inkscape:connector-curvature="0" />
    <path
       style="fill:#000000;fill-opacity:1;fill-rule:nonzero;stroke:none"
       id="path3591"
       d="m 35.8608,1030.9714 c 0.05159,0.3988 0.05127,0.8028 0.05364,1.2045 0.01389,0.5304 0.0077,1.0611 0.0069,1.5917 -0.01443,0.3332 -0.0106,0.8806 -0.343019,1.081 -0.08128,0.049 -0.178738,0.064 -0.268108,0.096 -0.0574,0.2371 -0.392736,0.1559 -0.335339,-0.081 l 0,0 c -0.148288,-0.1138 -0.233283,-0.1453 -0.311137,-0.3106 -0.111207,-0.2362 -0.05652,-0.5561 -0.06658,-0.8063 0.01709,-0.5586 0.02356,-1.12 0.119236,-1.6722 0.07229,-0.426 0.157676,-0.8583 0.355764,-1.2463 0.101445,-0.5576 0.890041,-0.4142 0.788596,0.1435 z"
       inkscape:connector-curvature="0" />
    <path
       style="fill:#000000;fill-opacity:1;fill-rule:nonzero;stroke:none"
       id="path3595"
       d="m 41.32855,1020.4113 c 0.618255,-0.1359 1.255117,-0.1935 1.88782,-0.2529 0.536359,-0.022 1.076766,-0.097 1.614911,-0.06 0.08038,0.01 0.159873,0.018 0.23981,0.028 0.08044,0.022 0.164997,0.035 0.241318,0.067 0.555286,0.2268 0.62863,0.686 0.701176,1.1584 0.07781,0.7991 0.09874,1.6018 0.141213,2.403 0.06649,1.059 0.127538,2.1179 0.157338,3.1782 0.03105,0.8418 0.03357,1.6838 0.0099,2.5257 -0.01,0.3932 -0.03064,0.7862 -0.07489,1.1778 -0.03247,0.1523 -0.02558,0.3246 -0.102948,0.4682 -0.03393,0.063 -0.07781,0.1215 -0.116713,0.1823 -0.08171,0.062 -0.154354,0.1333 -0.245114,0.1842 -0.22632,0.1268 -0.749883,0.1498 -1.017711,0.1793 -0.717288,0.077 -1.433529,0.161 -2.150708,0.2387 -0.393405,0.025 -1.13919,0.2147 -1.476712,-0.022 -0.0757,-0.053 -0.125885,-0.1288 -0.188827,-0.1931 -0.374975,0.021 -0.409198,-0.44 -0.03422,-0.4611 l 0,0 c 0.03756,-0.07 0.05914,-0.1484 0.112692,-0.2101 0.246081,-0.2834 1.039529,-0.2693 1.410027,-0.3255 0.718501,-0.081 1.437433,-0.1583 2.156953,-0.2319 0.138122,-0.014 0.291585,-0.03 0.430819,-0.046 0.03845,0 0.07667,-0.01 0.115193,-0.014 0.0086,-8e-4 0.03296,0 0.026,3e-4 -0.306942,0.1985 0.241076,-0.243 -0.265664,0.1901 -0.01627,0.029 -0.07391,0.1051 -0.07974,0.1586 -7.34e-4,0.01 0.0044,-0.013 0.006,-0.02 0.016,-0.067 0.02468,-0.1364 0.03555,-0.2048 0.04722,-0.3617 0.06173,-0.726 0.08359,-1.0892 0.03711,-0.8199 0.05028,-1.6405 0.0297,-2.4609 -0.02624,-1.0575 -0.05449,-2.1147 -0.07723,-3.1721 -0.01311,-0.7868 -0.01996,-1.5735 -0.0013,-2.3604 -4.81e-4,-0.1162 -0.0094,-0.2328 -10e-4,-0.3489 0.0012,-0.017 -0.0014,-0.038 0.01342,-0.049 0.02968,-0.022 0.121828,0.044 0.07863,-0.01 -0.01161,-0.014 -0.03587,-0.014 -0.0538,-0.021 -0.537067,-0.067 -1.084981,0.017 -1.622644,0.037 -0.614464,0.043 -1.226852,0.1043 -1.841786,0.1412 -0.623231,0.087 -0.764349,-0.6796 -0.141118,-0.7662 z"
       inkscape:connector-curvature="0" />
    <path
       style="fill:#000000;fill-opacity:1;fill-rule:nonzero;stroke:none"
       id="path3603"
       d="m 9.160467,1022.2587 c -0.4011384,0.1028 -0.8147363,0.1455 -1.2252612,0.1926 -0.5133141,0.067 -1.0267587,0.1322 -1.5412329,0.1895 -0.211302,0.028 -0.4231528,0.051 -0.6335614,0.085 -0.1045473,0.017 -0.2065563,0.031 -0.3020455,0.077 -8.73e-5,0.029 0.049043,-0.014 0.05406,0 0.00449,0.013 -0.00191,0.028 -0.00373,0.042 -0.00415,0.032 -0.010445,0.063 -0.014154,0.095 -0.00565,0.048 -0.00927,0.097 -0.013909,0.1451 -0.034244,0.5024 0.00888,1.0061 0.04046,1.5075 0.05917,0.7561 0.043294,1.5129 0.00516,2.2693 -0.05213,0.7325 -0.090881,1.4656 -0.1059789,2.1999 -0.014001,0.5872 0.039204,1.172 0.1046667,1.7546 0.046129,0.3837 0.094752,0.7671 0.1273184,1.1522 0.021384,0.2889 0.025523,0.5787 0.03395,0.8681 0.0095,0.1183 0.00174,0.2428 0.042699,0.3561 0.024818,0.067 0.060729,0.1513 0.088571,0.2025 -0.040335,-0.079 -0.1075086,-0.1299 -0.1837208,-0.1712 -0.017535,-0.01 -0.038625,-0.012 -0.05548,-0.022 -0.00352,-0 0.00704,-0 0.011128,-0.01 0.023732,-0 0.047845,-0.01 0.071768,-0.01 0.3658575,-0.054 0.7311115,-0.1121 1.0956483,-0.1743 0.5086371,-0.084 1.0101594,-0.209 1.5234717,-0.2611 0.3199941,-0 0.3466659,0.03 0.5673127,0.2429 0.2702226,-0.082 0.385854,0.3004 0.1156313,0.3822 l 0,0 c -0.029047,0.078 -0.043992,0.1631 -0.08714,0.2344 -0.097417,0.161 -0.194496,0.182 -0.3528863,0.2626 -0.5082748,0.1693 -1.037941,0.254 -1.5644689,0.3472 -0.3890991,0.064 -0.7783702,0.127 -1.1689296,0.1812 -0.4411282,0.04 -0.742179,0.01 -1.0205798,-0.3808 -0.083925,-0.1515 -0.1551791,-0.3084 -0.2069066,-0.4741 -0.063018,-0.2175 -0.089199,-0.4406 -0.09276,-0.6671 -0.010801,-0.2694 -0.011522,-0.5392 -0.030391,-0.8082 -0.031534,-0.3762 -0.07967,-0.7507 -0.1217854,-1.1258 -0.064013,-0.6358 -0.1180855,-1.2736 -0.099047,-1.9134 0.022033,-0.7472 0.066583,-1.4933 0.125683,-2.2385 0.047523,-0.715 0.079801,-1.4315 0.048294,-2.1481 -0.016598,-0.5591 -0.061458,-1.1197 -0.017235,-1.6786 0.048019,-0.4185 0.1145924,-0.8049 0.4693546,-1.0826 0.061491,-0.048 0.1339522,-0.08 0.2009283,-0.1205 0.063909,-0.024 0.126552,-0.051 0.1917258,-0.072 0.3376176,-0.1046 0.6978033,-0.1008 1.0459138,-0.137 0.5162542,-0.048 1.0322996,-0.099 1.549367,-0.1374 0.3915217,-0.033 0.7836435,-0.064 1.1765672,-0.074 0.6463789,-0.1072 0.7979104,0.8069 0.1515315,0.9141 z"
       inkscape:connector-curvature="0" />
    <path
       style="fill:#000000;fill-opacity:1;fill-rule:nonzero;stroke:none"
       id="path3619"
       d="m 23.028726,1041.2113 c -0.0022,0.04 -0.0014,0.08 -0.0066,0.1194 -0.01489,0.1137 -0.05946,0.2953 -0.08592,0.3987 -0.08843,0.3454 -0.202261,0.6781 -0.322625,1.0135 -0.437576,1.1676 -1.013839,2.2756 -1.603183,3.3721 -0.353885,0.6474 -0.709255,1.2943 -1.089119,1.927 -0.18925,0.3152 -0.439486,0.7226 -0.661734,1.0217 -0.09597,0.1292 -0.203908,0.2491 -0.305861,0.3736 -0.401515,0.3298 -0.187653,0.205 -0.63299,0.3889 -0.213745,0.3172 -0.662284,0.015 -0.448539,-0.3023 l 0,0 c -0.0086,-0.4633 -0.03442,-0.2265 0.09158,-0.7087 0.0655,-0.1419 0.125825,-0.2864 0.196492,-0.4259 0.143516,-0.2832 0.428071,-0.7688 0.58134,-1.034 0.361235,-0.6251 0.726156,-1.2483 1.069862,-1.8833 0.563831,-1.0538 1.130673,-2.1075 1.625774,-3.1959 0.130944,-0.2983 0.26246,-0.5964 0.386859,-0.8975 0.01417,-0.034 0.11804,-0.296 0.143259,-0.3487 0.01597,-0.033 0.03661,-0.064 0.05491,-0.096 0.196373,-0.7117 1.202873,-0.434 1.0065,0.2777 z"
       inkscape:connector-curvature="0" />
    <path
       style="fill:#000000;fill-opacity:1;fill-rule:nonzero;stroke:none"
       id="path3621"
       d="m 30.465162,1040.5308 c 0.152404,0.4555 0.250966,0.9263 0.378312,1.3892 0.180029,0.6251 0.390418,1.2438 0.661463,1.8359 0.20349,0.4445 0.275016,0.5538 0.5133,0.9835 0.288585,0.4925 0.618843,0.9588 0.969796,1.4085 0.182451,0.2338 0.507481,0.6152 0.681093,0.8596 0.0978,0.1377 0.182953,0.2839 0.27443,0.4258 0.248821,0.5823 0.164337,0.281 0.254991,0.9035 0.239434,0.2604 -0.128739,0.599 -0.368174,0.3387 l 0,0 c -0.623243,-0.1513 -0.325307,-0.034 -0.892281,-0.355 -0.135446,-0.1152 -0.278323,-0.2222 -0.406338,-0.3457 -0.270792,-0.2611 -0.545772,-0.6049 -0.775181,-0.9 -0.394411,-0.5075 -0.764424,-1.0343 -1.087606,-1.5904 -0.102938,-0.1871 -0.210671,-0.3717 -0.308814,-0.5613 -0.435387,-0.8415 -0.773254,-1.7327 -0.985973,-2.6563 -0.113536,-0.5616 -0.237733,-1.1343 -0.144169,-1.7086 -0.01942,-0.8733 1.215731,-0.9008 1.235151,-0.027 z"
       inkscape:connector-curvature="0" />
    <path
       style="fill:#000000;fill-opacity:1;fill-rule:nonzero;stroke:none"
       id="path3625"
       d="m 21.728196,1042.6442 c 0.324392,-0.093 0.658595,-0.1476 0.9894,-0.2129 0.502506,-0.092 1.003613,-0.1899 1.507082,-0.2762 0.596448,-0.1048 1.198154,-0.174 1.800547,-0.2336 0.581209,-0.058 1.164515,-0.09 1.748344,-0.1023 0.407867,-0.01 0.815808,-0.01 1.223684,-0.015 0.182126,-0 0.364157,-0.01 0.546287,-0.01 0.0873,-0 0.1745,-0 0.261678,-0.01 0.130587,-0.01 0.261094,-0.013 0.391689,-0 0.05534,0.011 0.118941,-0.01 0.170926,0.016 0.03801,0.058 0.02755,0.145 0.03112,0.2126 0.426032,0.01 0.412094,0.6124 -0.01394,0.6025 l 0,0 c 0.0019,0.068 0.01432,0.1501 -0.01549,0.2124 -0.04423,0.026 -0.10388,0.01 -0.152158,0.019 -0.119166,0.013 -0.239079,0.012 -0.358595,0.02 -0.10037,0 -0.20074,0.01 -0.301249,0.01 -0.183784,0 -0.367689,0 -0.551519,0.01 -0.403193,-7e-4 -0.806383,-7e-4 -1.209539,0.01 -0.56122,0.012 -1.12275,0.022 -1.682842,0.063 -0.583176,0.043 -1.165588,0.096 -1.745831,0.1696 -0.505957,0.064 -1.011848,0.1288 -1.517871,0.1924 -0.352315,0.037 -0.706974,0.092 -1.06195,0.073 -0.519246,0.042 -0.57902,-0.6921 -0.05977,-0.7344 z"
       inkscape:connector-curvature="0" />
    <path
       style="fill:#000000;fill-opacity:1;fill-rule:nonzero;stroke:none"
       id="path3627"
       d="m 20.666585,1045.2328 c 0.328835,-0.066 0.658861,-0.1255 0.98888,-0.1853 0.536274,-0.09 1.072998,-0.1762 1.609927,-0.2618 0.58396,-0.094 1.170954,-0.1671 1.757576,-0.2418 0.521914,-0.067 1.044728,-0.126 1.569342,-0.1678 0.449375,-0.035 0.9,-0.052 1.350636,-0.058 0.346189,-0.01 0.692172,-0.01 1.038111,0.01 0.246857,0.012 0.492296,0.04 0.737764,0.068 0.150729,0.018 0.302183,0.03 0.453141,0.046 0.09354,0.012 0.187041,0.023 0.279811,0.039 0.122753,0.01 0.238643,0.047 0.354755,0.085 0.135111,0.05 0.296703,0.061 0.417576,0.1467 0.02259,0.016 0.0403,0.038 0.06044,0.057 0.05883,0.1114 0.04941,0.1624 0.01966,0.2807 0.04557,0.062 -0.04168,0.1261 -0.08726,0.064 l 0,0 c -0.03745,0.065 -0.07499,0.1294 -0.120318,0.1893 -0.08858,0.065 -0.217605,0.026 -0.317862,0.069 -0.129948,0.041 -0.260222,0.075 -0.39795,0.064 -0.09742,2e-4 -0.19466,-0 -0.292009,-0.01 -0.163033,-0.01 -0.325571,-0.028 -0.48792,-0.046 -0.221064,-0.028 -0.44281,-0.052 -0.665412,-0.065 -0.325019,-0.017 -0.650336,-0.014 -0.975693,-0.011 -0.431095,0.01 -0.862205,0.019 -1.292469,0.05 -0.512836,0.038 -1.025246,0.081 -1.536698,0.1345 -0.581782,0.058 -1.162992,0.1214 -1.744007,0.1869 -0.539327,0.061 -1.077727,0.1283 -1.616412,0.1943 -0.363202,0.036 -0.728331,0.074 -1.093239,0.036 -0.477228,0.01 -0.487605,-0.6675 -0.01038,-0.6749 z"
       inkscape:connector-curvature="0" />
    <path
       style="fill:#000000;fill-opacity:1;fill-rule:nonzero;stroke:none"
       id="path3629"
       d="m 19.292616,1047.8371 c 0.331144,-0.067 0.665611,-0.1173 0.997784,-0.1797 0.48988,-0.096 0.979064,-0.1949 1.469725,-0.2865 0.557649,-0.102 1.120179,-0.1726 1.682737,-0.2409 0.570301,-0.069 1.140374,-0.1393 1.712371,-0.1925 0.549613,-0.051 1.101758,-0.059 1.653252,-0.068 0.531042,-0.01 1.062006,0 1.592789,0.019 0.481112,0.011 0.961837,0.034 1.442422,0.058 0.361062,0.023 0.721073,0.059 1.081178,0.093 0.284272,0.025 0.568583,0.05 0.852699,0.077 0.25346,0.011 0.495363,0.09 0.744952,0.1242 0.154194,0.022 0.355787,0.071 0.470851,0.1846 0.02709,0.027 0.04467,0.062 0.067,0.093 0.01067,0.06 0.02134,0.1195 0.032,0.1793 0.06661,0.015 0.046,0.1088 -0.02061,0.094 l 0,0 c -0.02626,0.052 -0.05253,0.1034 -0.07879,0.1551 -0.0236,0.024 -0.04396,0.051 -0.07081,0.071 -0.134139,0.099 -0.320861,0.1035 -0.478949,0.1008 -0.24956,-0.011 -0.499545,0.017 -0.748613,-0.014 -0.288171,-0.021 -0.576563,-0.039 -0.864318,-0.066 -0.347858,-0.033 -0.695463,-0.07 -1.044502,-0.088 -0.470787,-0.031 -0.942327,-0.045 -1.413771,-0.061 -0.517196,-0.015 -1.034521,-0.031 -1.552016,-0.026 -0.529388,0 -1.058761,0.016 -1.58724,0.049 -0.560933,0.037 -1.121279,0.083 -1.679495,0.1499 -0.552082,0.064 -1.104449,0.1256 -1.65628,0.1917 -0.494321,0.061 -0.986868,0.1334 -1.479633,0.2057 -0.358334,0.047 -0.720062,0.1011 -1.082304,0.084 -0.498754,0.03 -0.541192,-0.6754 -0.04244,-0.7054 z"
       inkscape:connector-curvature="0" />
    <path
       style="fill:#000000;fill-opacity:1;fill-rule:nonzero;stroke:none"
       id="path3631"
       d="m 20.953991,1013.8407 c -0.285629,-0.6025 -0.574324,-1.2036 -0.863982,-1.8042 -0.451509,-0.9543 -0.922113,-1.8994 -1.397098,-2.8423 -0.167238,-0.3858 -0.441446,-0.74 -0.529985,-1.1571 0.0024,-0.027 -0.0021,-0.054 0.0072,-0.079 0.04889,-0.1301 0.229982,-0.2478 0.324488,-0.3265 2.66e-4,-0.1853 0.262424,-0.185 0.262158,4e-4 l 0,0 c 0.09407,-0.065 0.244346,-0.2102 0.379815,-0.1894 0.02383,0 0.04378,0.02 0.06567,0.03 0.314447,0.2973 0.465929,0.7492 0.686319,1.1113 0.488791,0.9457 0.943259,1.9086 1.422375,2.8592 0.299483,0.6117 0.611181,1.2187 0.874117,1.8473 0.389038,0.8705 -0.842071,1.4207 -1.231109,0.5502 z"
       inkscape:connector-curvature="0" />
    <path
       style="fill:#000000;fill-opacity:1;fill-rule:nonzero;stroke:none"
       id="path3633"
       d="m 30.075944,1013.3515 c 0.01642,-0.059 0.02911,-0.1196 0.04925,-0.1776 0.10841,-0.3123 0.264121,-0.6108 0.419173,-0.9015 0.191664,-0.3593 0.287087,-0.519 0.49406,-0.8802 0.55162,-0.9485 1.146231,-1.8712 1.754726,-2.7839 0.187288,-0.2489 0.367004,-0.6763 0.731722,-0.7124 0.105259,-0.01 0.211213,0.012 0.316819,0.018 0.0086,-0.02 0.03691,-0.01 0.02835,0.012 l 0,0 c 0.07329,0.082 0.165343,0.1496 0.21988,0.2448 0.183551,0.3202 -0.129631,0.8105 -0.27459,1.0764 -0.546026,0.9332 -1.132575,1.8419 -1.685525,2.771 -0.198506,0.346 -0.28482,0.4901 -0.468057,0.8325 -0.135223,0.2526 -0.256589,0.511 -0.385047,0.7669 -0.02012,0.04 -0.04304,0.079 -0.06456,0.1179 -0.271442,0.8035 -1.407642,0.4196 -1.1362,-0.3838 z"
       inkscape:connector-curvature="0" />
    <path
       sodipodi:type="arc"
       style="fill:#000000"
       id="path3639"
       sodipodi:cx="16.747375"
       sodipodi:cy="6.0613995"
       sodipodi:rx="2.2840431"
       sodipodi:ry="2.3260117"
       d="m 19.031419,6.0613995 a 2.2840431,2.3260117 0 1 1 -4.568087,0 2.2840431,2.3260117 0 1 1 4.568087,0 z"
       transform="translate(1.9112207,1001.5607)" />
    <path
       sodipodi:type="arc"
       style="fill:#000000"
       id="path3647"
       sodipodi:cx="32.141705"
       sodipodi:cy="6.1334257"
       sodipodi:rx="1.8431554"
       sodipodi:ry="1.9913031"
       d="m 33.98486,6.1334257 a 1.8431554,1.9913031 0 1 1 -3.686311,0 1.8431554,1.9913031 0 1 1 3.686311,0 z"
       transform="translate(1.9479614,1001.692)" />
  </g>
</svg>
