<svg xmlns="http://www.w3.org/2000/svg" viewBox="0 0 86.11 87.37"><defs><style>.cls-1,.cls-3{fill:none;stroke:#2a3da0;stroke-miterlimit:10;}.cls-1{stroke-width:2.28px;}.cls-2{fill:#2a3da0;}.cls-3{stroke-width:2.86px;}</style></defs><title>Asset 8</title><g id="Layer_2" data-name="Layer 2"><g id="Content"><path class="cls-3" d="M40.05,36c0,1.33-1.67,2.4-3,2.4a2.39,2.39,0,0,1-2.4-2.4,3,3,0,0,1,2.86-2.61A2.71,2.71,0,0,1,40.05,36Z"/><path class="cls-3" d="M45.21,26.56a4.93,4.93,0,0,0-2.47.66c-6.09-2.5-7.22,7.3-1.43,7.3,4,3.79,9.41.28,8.83-3C49.67,28.81,47.93,26.56,45.21,26.56Z"/><path class="cls-2" d="M31.55,84.09c.18-4,0-44.39-.33-48.21-.13-1.45-1.33-2-4.24-2-6.72-.07-10.73,0-23.3.36C.85,34.34,0,35.36,0,37.53c0,2.36.31,43.71.31,47.25,0,2.07.35,2.59,2.6,2.59,12.57,0,18.23-.13,25.28-.23C32,87.08,31.49,85.58,31.55,84.09ZM28.36,82.6c-.05,1.42-.33,1.74-1.83,1.74-16.3,0-9.94.15-21.45.25-1.84,0-1.7-.73-1.7-1.68,0-2.29-.14-42.71,0-44.7.06-.88.35-1.08,1.76-1.12,7.29-.18,14-.05,21.57-.29,1.22,0,1.53.33,1.53,1.11C28.24,39.52,28.55,77.08,28.36,82.6Z"/><path id="path3539" class="cls-2" d="M7.34,42.21c1.79,0,9,.19,17.39,0,2,0,1.36,2.29.11,2.31-6.17.11-15.64.18-17.59.08C5.52,44.51,5,42.21,7.34,42.21Z"/><path class="cls-3" d="M66.42,3.18C60.28-.68,46.06,1.43,43.65,13.57c-5.51,3.32-3.89,11.67,3.44,12.31,3.28,7.05,15.84,13.33,25.23,3.46,12.57,3.11,16.7-12,7-16.95C79.84,4.46,72.34,1,66.42,3.18Z"/><path class="cls-2" d="M56.13,14c-1.66-5.68,8.25-9.3,10.66-4,1.16,2.55-1.69,5.11-3.11,6.9-1,1.21-2.49,3-2.54,5.5,0,1.74-2.4,1.95-2.49.26a11.92,11.92,0,0,1,.61-4A16.45,16.45,0,0,1,62,14.74c.65-.74,2.51-2.21,2.67-3.21.34-2.18-3.71-1.62-4.85-.65s-1.06,1.29-1.14,2.55C58.61,14.16,57,15.46,56.13,14Z"/><path class="cls-2" d="M61.63,25.88c-1.25-1.81-4.92.59-3.54,2.56C59.68,30.73,63.23,28.19,61.63,25.88Z"/><path id="path3539-2" data-name="path3539" class="cls-2" d="M7.34,47.14c1.79,0,9,.18,17.39,0,2,0,1.36,2.29.11,2.31-6.17.1-15.64.18-17.59.08C5.52,49.44,5,47.14,7.34,47.14Z"/><path class="cls-2" d="M17.85,73.72a3.46,3.46,0,0,0-3.4-.14,3.38,3.38,0,0,0-1.69,1.89A3,3,0,0,0,14,79.29c1.79,1.06,4.56.53,5-1.73A4.07,4.07,0,0,0,17.85,73.72ZM16.7,77.93a1.83,1.83,0,0,1-2.35-.57,2,2,0,0,1,0-1.69,1.7,1.7,0,0,1,1.82-1,1.39,1.39,0,0,1,1,.79A2.07,2.07,0,0,1,16.7,77.93Z"/></g></g></svg>
