<svg xmlns="http://www.w3.org/2000/svg" viewBox="0 0 82.94 75.53"><defs><style>.cls-1{fill:#2a3da0;stroke:none;}</style></defs><title>Asset 5</title><g id="Layer_2" data-name="Layer 2"><g id="Content"><path id="path3639" class="cls-1" d="M36.76,37.84A2.8,2.8,0,0,1,34,40.66a2.52,2.52,0,0,1-2.76-2.49c0-1.57,1.23-3.27,2.76-3.16A2.8,2.8,0,0,1,36.76,37.84Z"/><path id="path3647" class="cls-1" d="M8.79,42.67a2.57,2.57,0,0,1-2.58,2.8,2.83,2.83,0,0,1-2.58-3.1c.11-1.59,1-2.55,2.45-2.55A2.84,2.84,0,0,1,8.79,42.67Z"/><path id="path3647-2" data-name="path3647" class="cls-1" d="M42.07,55.45a2.57,2.57,0,0,0,2.57,2.79,2.83,2.83,0,0,0,2.58-3.09c-.1-1.6-1-2.56-2.44-2.56A2.85,2.85,0,0,0,42.07,55.45Z"/><path id="path3639-2" data-name="path3639" class="cls-1" d="M36.78,55.42A2.8,2.8,0,0,1,34,58.24a2.51,2.51,0,0,1-2.75-2.49c0-1.57,1.22-3.27,2.75-3.16A2.8,2.8,0,0,1,36.78,55.42Z"/><path id="path3647-3" data-name="path3647" class="cls-1" d="M55.09,59.56a2.57,2.57,0,0,1-2.58,2.79,2.83,2.83,0,0,1-2.58-3.09c.11-1.6,1-2.56,2.45-2.56A2.86,2.86,0,0,1,55.09,59.56Z"/><path id="path3647-4" data-name="path3647" class="cls-1" d="M70.72,63.72a2.57,2.57,0,0,1,2,3.22,2.83,2.83,0,0,1-3.67,1.67c-1.51-.53-2.21-1.61-1.82-3A2.86,2.86,0,0,1,70.72,63.72Z"/><path id="path3647-5" data-name="path3647" class="cls-1" d="M76.18,66.24A2.57,2.57,0,0,0,78.76,69a2.83,2.83,0,0,0,2.58-3.09c-.11-1.6-1-2.56-2.45-2.56A2.87,2.87,0,0,0,76.18,66.24Z"/><path id="path3639-3" data-name="path3639" class="cls-1" d="M62.79,66.14A2.82,2.82,0,0,1,59,65a2.53,2.53,0,0,1,1-3.6c1.38-.72,3.46-.41,4.07,1A2.81,2.81,0,0,1,62.79,66.14Z"/><path id="path3647-6" data-name="path3647" class="cls-1" d="M18.23,34.77a2.56,2.56,0,0,1,2,3.22,2.82,2.82,0,0,1-3.66,1.67c-1.51-.53-2.21-1.61-1.82-3A2.84,2.84,0,0,1,18.23,34.77Z"/><path class="cls-1" d="M9.68,36.73s-3.26-1.13-4.53-1.4a.44.44,0,0,1-.3-.57c.33-1.15,1.28-4.61,1.28-4.61.09-.29.42-.3.62-.24l4.31,1.33c.24.08.72.23.51.89l-1.33,4.3A.45.45,0,0,1,9.68,36.73Z"/><path class="cls-1" d="M54.15,39.94s.12-3.45,0-4.74a.46.46,0,0,1,.46-.46c1.19,0,4.78-.14,4.78-.14.31,0,.41.32.41.53v4.51c0,.25,0,.75-.7.75H54.61A.46.46,0,0,1,54.15,39.94Z"/><path class="cls-1" d="M45,39.19s.12-3.44,0-4.74a.45.45,0,0,1,.46-.46c1.19,0,4.78-.13,4.78-.13.31,0,.41.31.41.52v4.51c0,.25,0,.75-.7.75H45.42A.45.45,0,0,1,45,39.19Z"/><path class="cls-1" d="M69.51,39.86s-3.44-.11-4.74,0a.44.44,0,0,1-.46-.45c0-1.2.15-4.79.15-4.79,0-.3.31-.41.53-.41h4.22c.25,0,.75,0,.75.7v4.5A.45.45,0,0,1,69.51,39.86Z"/><path class="cls-1" d="M79.12,39.86s-3.49-.11-4.73-.21a.46.46,0,0,1-.45-.45c0-1.2-.15-4.58-.15-4.58,0-.3.31-.4.53-.4h4.5c.26,0,.76,0,.76.69v4.5A.46.46,0,0,1,79.12,39.86Z"/><path class="cls-1" d="M37.21,21.74S35,19.25,34,18.4a.43.43,0,0,1,0-.61c.78-.77,3.08-3.14,3.08-3.14.2-.2.48,0,.63.11l3,3.17c.17.18.51.53,0,1l-3,2.87A.43.43,0,0,1,37.21,21.74Z"/><path class="cls-1" d="M8,56.27s-3.44-.12-4.74,0a.44.44,0,0,1-.45-.46c0-1.19-.14-4.78-.14-4.78,0-.31.31-.41.53-.41H7.68c.25,0,.75,0,.75.69v4.5A.47.47,0,0,1,8,56.27Z"/><path class="cls-1" d="M29.36,45.89s-3.06,1.58-4.14,2.31A.45.45,0,0,1,24.6,48c-.6-1-2.45-4.11-2.45-4.11-.14-.27.08-.51.27-.62l3.93-2.19a.63.63,0,0,1,1,.25l2.19,3.93A.45.45,0,0,1,29.36,45.89Z"/><path class="cls-1" d="M22.75,52.75c-.37,1.36-.8,3.88-1.05,5.27-.05.27.15.8.56.65l5.9-2.11a.35.35,0,0,0,.12-.59c-1.2-1.11-3-2.6-4.26-3.75C23.1,51.37,22.84,52.42,22.75,52.75Z"/><path class="cls-1" d="M57.26,9.82C56.45,11,54.83,13.75,54.13,15c-.14.23-.13.81.31.81h6.27a.36.36,0,0,0,.31-.53c-.75-1.44-2.3-4-3.15-5.43A.34.34,0,0,0,57.26,9.82Z"/><path class="cls-1" d="M67.42,5.92c-.81,1.15-2.43,3.93-3.13,5.15-.14.23-.13.8.31.8h6.27a.35.35,0,0,0,.31-.52c-.75-1.45-2.3-4-3.15-5.43A.33.33,0,0,0,67.42,5.92Z"/><path class="cls-1" d="M77.57,5.92c-.81,1.15-2.43,3.93-3.13,5.15-.14.23-.13.8.31.8H81a.35.35,0,0,0,.31-.52c-.75-1.45-2.3-4-3.15-5.43A.33.33,0,0,0,77.57,5.92Z"/><path class="cls-1" d="M47.49,15.06c-.81,1.15-2.43,3.92-3.13,5.14-.14.24-.13.81.31.81h6.27a.36.36,0,0,0,.31-.52c-.75-1.45-2.3-4-3.15-5.43A.33.33,0,0,0,47.49,15.06Z"/><path class="cls-1" d="M24.54,29c-.23,1.39-.5,4.59-.61,6,0,.28.23.79.63.6l5.66-2.7a.36.36,0,0,0,.06-.61c-1.31-1-3.79-2.6-5.18-3.54A.34.34,0,0,0,24.54,29Z"/><path class="cls-1" d="M37.86,43.11c-1.26.62-4,2.27-5.21,3-.24.14-.5.64-.12.85L38,50a.36.36,0,0,0,.53-.31c0-1.63-.11-4.59-.16-6.28C38.4,43.13,38.18,43,37.86,43.11Z"/><path class="cls-1" d="M81.56,1.81c-3.32.15-10,.24-16.9.31C62.65,2.14,44,13.28,42,13.3c-6.69.06-12.82.12-15.59.22-7.5.25-16.73.55-23.53.33-1.37,0-2.32-1.57.35-1.77,6.79-.5,22.06-.88,29.23-.8,1.2,0,4.76,0,9.12,0C43.51,11.25,62.14.11,64.21.1,72,.05,80.09,0,81.38,0,83.67,0,83.18,1.74,81.56,1.81Z"/><path class="cls-1" d="M79.82,75.53c-1.29,0-9.37,0-17.17-.1-2.07,0-20.7-11.15-22.6-11.16-4.36,0-7.93,0-9.12,0-7.17.09-22.44-.29-29.24-.79C-1,63.25,0,61.72,1.35,61.68c6.8-.22,16,.07,23.53.33,2.77.1,8.9.15,15.59.22,2,0,20.61,11.16,22.63,11.18,6.93.07,13.57.16,16.9.3C81.62,73.79,82.11,75.5,79.82,75.53Z"/><path class="cls-1" d="M80.77,58.56c-1.18,0-6.6,0-9.45,0A11.6,11.6,0,0,1,67.68,58c-5.33-2-21.21-9.52-23.14-10.4-1.75-.79-2.22-2.56,1.31-2.68,8.92-.3,29.65.29,34.53.37,2.72.05,2.53,1.69,0,1.69-7.55,0-32.44-.68-34.17-.7a.19.19,0,0,0-.1.35c1.47.57,17.17,7.85,22.26,9.67a11.13,11.13,0,0,0,3,.43c5.57,0,6.5-.12,9.56,0C82.57,56.82,83.06,58.54,80.77,58.56Z"/><path class="cls-1" d="M81.12,18.55c-3.07,0-4-.14-9.56-.32a11.27,11.27,0,0,0-3,.32c-5.15,1.64-21.1,8.37-22.58,8.89a.18.18,0,0,0,.08.35c1.73,0,26.63.26,34.17.5,2.53.08,2.66,1.74-.06,1.69-4.88-.1-25.61-.23-34.52-.84-3.52-.25-3-2-1.21-2.73,2-.81,18.1-7.79,23.49-9.58a11.73,11.73,0,0,1,3.65-.4c2.86.1,8.27.25,9.45.31C83.29,16.84,82.74,18.54,81.12,18.55Z"/><path class="cls-1" d="M14.92,44.18c-.81,1.16-2.42,3.93-3.13,5.15-.14.24-.13.81.31.81h6.27a.36.36,0,0,0,.32-.52c-.76-1.45-2.3-4-3.15-5.44A.35.35,0,0,0,14.92,44.18Z"/><path id="path3647-7" data-name="path3647" class="cls-1" d="M15.13,54.78a2.57,2.57,0,0,1,2,3.22,2.83,2.83,0,0,1-3.67,1.67c-1.51-.53-2.21-1.61-1.81-3A2.84,2.84,0,0,1,15.13,54.78Z"/><path class="cls-1" d="M40.8,28.76c-1.35.4-4.35,1.54-5.66,2-.26.1-.61.55-.27.83l4.89,3.93a.36.36,0,0,0,.57-.21c.32-1.6.7-4.54,1-6.21C41.32,28.88,41.14,28.67,40.8,28.76Z"/><path class="cls-1" d="M22.14,25.62s-1.24,3.21-1.56,4.47a.45.45,0,0,1-.58.28c-1.14-.38-4.56-1.45-4.56-1.45a.46.46,0,0,1-.21-.64L16.71,24c.09-.23.25-.71.91-.48L21.87,25A.45.45,0,0,1,22.14,25.62Z"/><path class="cls-1" d="M3.51,24c1.39.22,4.59.45,6,.55.28,0,.79-.24.59-.64L7.33,18.31a.35.35,0,0,0-.6,0c-1,1.32-2.56,3.82-3.49,5.22A.34.34,0,0,0,3.51,24Z"/><path id="path3647-8" data-name="path3647" class="cls-1" d="M15.89,17a2.57,2.57,0,0,1-.86,3.7,2.83,2.83,0,0,1-3.77-1.41c-.7-1.44-.42-2.71.86-3.44A2.85,2.85,0,0,1,15.89,17Z"/><path id="path3647-9" data-name="path3647" class="cls-1" d="M34.4,23a2.56,2.56,0,0,1-.86,3.7,2.83,2.83,0,0,1-3.77-1.41c-.69-1.44-.42-2.71.87-3.44A2.85,2.85,0,0,1,34.4,23Z"/><path class="cls-1" d="M25.88,15.7c-1.26.64-4,2.32-5.19,3.06-.23.15-.49.65-.11.86l5.53,3a.35.35,0,0,0,.52-.31c0-1.63-.15-4.59-.21-6.28C26.41,15.72,26.19,15.55,25.88,15.7Z"/></g></g></svg>
