<?xml version="1.0" encoding="UTF-8" standalone="no"?>
<!-- Created with Inkscape (http://www.inkscape.org/) -->

<svg
   xmlns:dc="http://purl.org/dc/elements/1.1/"
   xmlns:cc="http://creativecommons.org/ns#"
   xmlns:rdf="http://www.w3.org/1999/02/22-rdf-syntax-ns#"
   xmlns:svg="http://www.w3.org/2000/svg"
   xmlns="http://www.w3.org/2000/svg"
   xmlns:sodipodi="http://sodipodi.sourceforge.net/DTD/sodipodi-0.dtd"
   xmlns:inkscape="http://www.inkscape.org/namespaces/inkscape"
   width="50"
   height="50"
   id="svg3213"
   version="1.1"
   inkscape:version="0.48.4 r9939"
   sodipodi:docname="sys-coding-logo.svg">
  <sodipodi:namedview
     id="base"
     pagecolor="#ffffff"
     bordercolor="#666666"
     borderopacity="1.0"
     inkscape:pageopacity="0.0"
     inkscape:pageshadow="2"
     inkscape:zoom="16.22"
     inkscape:cx="23.665096"
     inkscape:cy="25.249318"
     inkscape:document-units="px"
     inkscape:current-layer="layer1"
     showgrid="false"
     inkscape:window-width="1680"
     inkscape:window-height="998"
     inkscape:window-x="1672"
     inkscape:window-y="486"
     inkscape:window-maximized="1"
     showguides="true"
     inkscape:guide-bbox="true" />
  <metadata
     id="metadata3218">
    <rdf:RDF>
      <cc:Work
         rdf:about="">
        <dc:format>image/svg+xml</dc:format>
        <dc:type
           rdf:resource="http://purl.org/dc/dcmitype/StillImage" />
        <dc:title />
      </cc:Work>
    </rdf:RDF>
  </metadata>
  <g
     inkscape:label="Layer 1"
     inkscape:groupmode="layer"
     id="layer1"
     transform="translate(0,-1002.3622)">
    <path
       style="fill:#2a3da0;fill-opacity:1;fill-rule:nonzero;stroke:none"
       id="path3429"
       d="m 17.477103,1019.6427 c 0.02989,0.057 0.06864,0.1097 0.08967,0.1703 0.06154,0.1775 0.114709,0.5427 0.134725,0.7071 0.07628,0.6266 0.06709,1.252 0.0666,1.882 -0.03996,1.6399 -0.105648,3.279 -0.143492,4.919 -0.02744,0.6425 0.0076,1.2881 -0.04874,1.9296 -0.02035,0.2318 -0.06152,0.6177 -0.186753,0.8349 -0.06139,0.1065 -0.164176,0.183 -0.246265,0.2745 0.0075,0.2929 -0.406878,0.3035 -0.414333,0.01 l 0,0 c -0.08658,-0.085 -0.193297,-0.1538 -0.259747,-0.2554 -0.142555,-0.218 -0.203888,-0.6032 -0.233895,-0.8438 -0.08187,-0.6565 -0.05206,-1.3208 -0.05669,-1.9801 0.02979,-1.64 0.08374,-3.279 0.153245,-4.9178 0.02417,-0.6098 0.03303,-1.2213 0.0917,-1.8291 0.01442,-0.1495 0.05389,-0.5175 0.102596,-0.6859 0.01689,-0.058 0.04997,-0.1109 0.07496,-0.1663 -0.03499,-0.6198 0.841427,-0.6692 0.876415,-0.049 z"
       inkscape:connector-curvature="0"
       transform="matrix(0.65545474,0,0,0.6495799,8.532864,358.81544)" />
    <path
       style="fill:#2a3da0;fill-opacity:1;fill-rule:nonzero;stroke:none"
       id="path3453"
       d="m 17.136392,1019.0569 c 0.695318,-0.1289 1.402175,-0.1963 2.104766,-0.2751 1.680367,-0.1997 3.36895,-0.313 5.058429,-0.3984 1.608405,-0.062 3.218537,-0.081 4.82666,-0.01 0.903882,0.042 1.79804,0.1781 2.68793,0.3344 0.381427,0.074 0.768661,0.1277 1.142415,0.2367 0.139957,0.033 0.244656,0.123 0.35709,0.2081 -0.150392,1.0067 0.107273,1.1491 -0.279115,0.8379 -0.291485,0.1584 -0.515603,-0.2538 -0.224118,-0.4123 l 0,0 c -0.271726,-0.3887 -0.08759,-0.1886 -0.201517,0.7906 0.09393,0.072 0.280506,0.1666 0.04871,0.1388 -0.379464,-0.036 -0.75075,-0.1291 -1.126484,-0.1901 -0.821878,-0.1447 -1.649173,-0.2637 -2.483187,-0.3096 -1.559123,-0.078 -3.119988,-0.065 -4.679558,0 -1.664088,0.056 -3.326222,0.1464 -4.985137,0.2916 -0.537587,0.04 -0.582736,0.049 -1.096332,0.069 -0.397722,0.016 -0.807374,0.037 -1.196085,-0.066 -0.884161,-0.032 -0.838627,-1.2826 0.04554,-1.2504 z"
       inkscape:connector-curvature="0"
       transform="matrix(0.65545474,0,0,0.6495799,8.532864,358.81544)" />
    <path
       style="fill:#2a3da0;fill-opacity:1;fill-rule:nonzero;stroke:none"
       id="path3455"
       d="m 33.136778,1019.6692 c 0.04039,0.059 0.08733,0.1133 0.121184,0.176 0.09789,0.1812 0.165405,0.401 0.213644,0.5981 0.122913,0.5023 0.160775,1.0127 0.202475,1.5263 0.08953,1.4714 0.0054,2.945 -0.07786,4.4144 -0.04111,0.5813 -0.05848,1.1659 -0.138263,1.7439 -0.03412,0.2472 -0.07738,0.5126 -0.178281,0.7446 -0.03954,0.091 -0.09973,0.1714 -0.149595,0.2571 -0.323264,0.2891 -0.11886,0.178 -0.651433,0.2503 -0.03473,0.1151 -0.197569,0.066 -0.162844,-0.049 l 0,0 c -0.440786,-0.1967 -0.279473,-0.065 -0.525896,-0.3368 -0.03293,-0.082 -0.07609,-0.1599 -0.09879,-0.245 -0.0631,-0.2364 -0.06837,-0.5027 -0.06876,-0.7437 -9.38e-4,-0.5762 0.05412,-1.151 0.08037,-1.7261 0.07671,-1.4212 0.137574,-2.8433 0.192815,-4.2656 0.0012,-0.033 0.03355,-0.9327 0.03739,-1.0133 0.01216,-0.2552 0.0133,-0.5634 0.0742,-0.8152 0.0094,-0.039 0.02862,-0.075 0.04293,-0.112 -0.285582,-0.7684 0.801131,-1.1723 1.086712,-0.4039 z"
       inkscape:connector-curvature="0"
       transform="matrix(0.65545474,0,0,0.6495799,8.532864,358.81544)" />
    <path
       style="fill:#2a3da0;fill-opacity:1;fill-rule:nonzero;stroke:none"
       id="path3457"
       d="m 17.473219,1029.1087 c 0.477867,0.06 0.957995,0.089 1.43912,0.1041 1.129147,0.012 2.256461,-0.092 3.379633,-0.197 1.564576,-0.1776 3.130135,-0.3445 4.695943,-0.5109 1.190694,-0.1209 2.379603,-0.2573 3.567459,-0.4031 0.205173,-0.023 0.418594,-0.05 0.625344,-0.065 0.04815,0 0.250852,-0.026 0.314866,0.019 0.0687,0.048 0.08179,0.2706 0.08729,0.3038 0.05452,0.082 0.109046,0.1647 0.163568,0.247 0.07119,-0.2384 0.408387,-0.1377 0.337198,0.1007 l 0,0 c 0.04466,0.1154 0.08932,0.2308 0.133982,0.3461 -0.0257,0.1034 -0.03213,0.2136 -0.0771,0.3102 -0.205044,0.4403 -0.933932,0.504 -1.336208,0.5948 -1.203165,0.1743 -2.415305,0.2739 -3.624129,0.4 -1.576066,0.1595 -3.150353,0.3369 -4.729277,0.4669 -1.2174,0.1002 -2.440015,0.1964 -3.661005,0.092 -0.63896,-0.068 -1.295623,-0.1294 -1.871915,-0.4386 -0.968559,-0.3926 -0.413323,-1.7624 0.555236,-1.3698 z"
       inkscape:connector-curvature="0"
       transform="matrix(0.65545474,0,0,0.6495799,8.532864,358.81544)" />
    <path
       style="fill:#2a3da0;fill-opacity:1;fill-rule:nonzero;stroke:none"
       id="path3505"
       d="m 19.313763,1033.301 c 0.03762,0.612 -0.147205,1.213 -0.338286,1.7867 -0.297516,0.8035 -0.611588,1.6017 -0.950739,2.3887 -0.145957,0.2862 -0.323589,0.7418 -0.670269,0.8466 -0.09928,0.03 -0.206235,0.022 -0.309353,0.033 -0.02531,0.064 -0.116271,0.029 -0.09096,-0.036 l 0,0 c -0.06887,-0.076 -0.152632,-0.1406 -0.206604,-0.2278 -0.195374,-0.3154 -0.01757,-0.7795 0.07242,-1.0947 0.290383,-0.7975 0.629272,-1.5763 0.94355,-2.3646 0.213622,-0.5089 0.437951,-1.0185 0.728183,-1.4887 0.110382,-0.5812 0.932446,-0.4251 0.822064,0.1561 z"
       inkscape:connector-curvature="0"
       transform="matrix(0.65545474,0,0,0.6495799,8.532864,358.81544)" />
    <path
       style="fill:#2a3da0;fill-opacity:1;fill-rule:nonzero;stroke:none"
       id="path3523"
       d="m 31.565031,1032.9174 c 0.155937,0.5931 0.313054,1.1854 0.460258,1.7807 0.08591,0.3702 0.202179,0.732 0.307729,1.0967 0.0449,0.1552 0.128765,0.4364 0.135608,0.6045 0.0038,0.092 -0.01753,0.1844 -0.0263,0.2766 -0.05924,0.096 -0.118488,0.1929 -0.177732,0.2893 0.108606,0.2988 -0.314006,0.4524 -0.422613,0.1536 l 0,0 c -0.107764,-0.037 -0.215528,-0.074 -0.323292,-0.1111 -0.06677,-0.069 -0.144239,-0.1297 -0.200307,-0.2079 -0.11139,-0.1553 -0.217691,-0.4407 -0.276578,-0.6144 -0.134268,-0.3961 -0.230412,-0.8052 -0.319393,-1.2133 -0.05724,-0.3232 -0.101083,-0.5234 -0.12626,-0.8498 -0.03085,-0.4001 -0.0163,-0.8083 0.04219,-1.2049 0,-0.6552 0.926686,-0.6552 0.926686,0 z"
       inkscape:connector-curvature="0"
       transform="matrix(0.65545474,0,0,0.6495799,8.532864,358.81544)" />
    <path
       style="fill:#2a3da0;fill-opacity:1;fill-rule:nonzero;stroke:none"
       id="path3527"
       d="m 19.099325,1032.8131 c 0.466964,-0.1597 0.96139,-0.2219 1.448994,-0.2835 0.864121,-0.098 1.730928,-0.1686 2.59758,-0.2393 1.127109,-0.099 2.258118,-0.1261 3.388886,-0.1392 0.951815,-0.01 1.90429,-0.028 2.85568,0.01 0.109882,0.01 0.455864,0.033 0.579899,0.055 0.06818,0.012 0.134105,0.035 0.200912,0.053 0.04925,0.014 0.100556,0.022 0.147232,0.042 0.0732,0.033 0.115807,0.081 0.170963,0.1342 0.09596,0.097 0.08947,0.2042 0.09028,0.3341 0.02759,0.01 0.01875,0.045 -0.0088,0.039 l 0,0 c -0.0087,0.1174 0.0038,0.2384 -0.08264,0.3288 -0.05517,0.053 -0.09781,0.1014 -0.170959,0.1336 -0.04664,0.021 -0.09789,0.028 -0.147089,0.042 -0.06674,0.018 -0.132612,0.04 -0.200711,0.053 -0.122422,0.022 -0.47097,0.046 -0.578936,0.054 -0.945596,0.037 -1.89226,0.017 -2.838333,0.032 -1.110621,0.017 -2.221294,0.036 -3.331462,0.072 -0.853735,0.033 -1.70743,0.071 -2.55991,0.1285 -0.455894,0.032 -0.911758,0.072 -1.368316,0.091 -0.664871,0.1366 -0.858111,-0.8036 -0.19324,-0.9403 z"
       inkscape:connector-curvature="0"
       transform="matrix(0.65545474,0,0,0.6495799,8.532864,358.81544)" />
    <path
       style="fill:#2a3da0;fill-opacity:1;fill-rule:nonzero;stroke:none"
       id="path3529"
       d="m 17.342149,1039.0161 c 0.35919,-0.1 0.7198,-0.2001 1.084011,-0.2805 0.761227,-0.1447 1.530705,-0.2391 2.297524,-0.3483 1.328346,-0.1669 2.656826,-0.3309 3.987634,-0.4771 1.461356,-0.1469 2.927129,-0.2332 4.395068,-0.2707 0.467705,-0.01 0.935786,0.011 1.40235,0.044 0.244473,0.017 0.487072,0.046 0.731899,0.057 0.05279,0.015 0.30374,-0.022 0.343346,0.031 0.01174,0.016 0.01579,0.036 0.02369,0.054 0.02816,0.1404 0.01515,0.058 0.0307,0.2487 0.29166,0 0.297557,0.4083 0.0059,0.4125 l 0,0 c -0.0041,0.1908 0.0017,0.1078 -0.01192,0.2495 -0.005,0.018 -0.006,0.038 -0.01499,0.055 -0.02844,0.053 -0.297876,0.039 -0.343531,0.055 -0.246127,0.026 -0.489855,0.067 -0.735664,0.096 -0.458434,0.054 -0.918971,0.091 -1.379833,0.1161 -1.436147,0.069 -2.872167,0.1516 -4.303024,0.2957 -1.33585,0.1196 -2.670006,0.2599 -4.007735,0.3574 -0.771404,0.035 -1.543025,0.068 -2.315195,0.081 -0.396746,-0.01 -0.80187,-0.022 -1.190226,-0.1071 -0.472787,0 -0.472787,-0.6686 0,-0.6686 z"
       inkscape:connector-curvature="0"
       transform="matrix(0.65545474,0,0,0.6495799,8.532864,358.81544)" />
    <path
       style="fill:#2a3da0;fill-opacity:1;fill-rule:nonzero;stroke:none"
       id="path3531"
       d="m 20.712076,1033.5497 c 0.08986,0.6005 -0.05504,1.2129 -0.168473,1.801 -0.180837,0.7912 -0.3297,1.5914 -0.552173,2.3723 -0.129443,0.3155 -0.0527,0.1727 -0.222539,0.4326 -0.03406,0.189 -0.301386,0.1408 -0.267322,-0.048 l 0,0 c -0.06745,-0.3097 -0.04746,-0.1452 -0.04994,-0.4947 0.01373,-0.1075 0.02368,-0.2155 0.04119,-0.3224 0.113787,-0.6944 0.319766,-1.3716 0.452873,-2.0621 0.1169,-0.5377 0.234143,-1.0755 0.319408,-1.6193 -0.04187,-0.316 0.405101,-0.3752 0.446974,-0.059 z"
       inkscape:connector-curvature="0"
       transform="matrix(0.65545474,0,0,0.6495799,8.532864,358.81544)" />
    <path
       style="fill:#2a3da0;fill-opacity:1;fill-rule:nonzero;stroke:none"
       id="path3533"
       d="m 22.518747,1033.51 c 0.109823,0.6302 0.133877,1.2689 0.135115,1.9072 -0.0177,0.5614 0.0073,1.1397 -0.139842,1.6882 -0.03334,0.1243 -0.08661,0.2423 -0.12992,0.3634 -0.0088,0.142 -0.209656,0.1296 -0.200862,-0.012 l 0,0 c -0.0281,-0.1246 -0.06545,-0.2473 -0.08429,-0.3736 -0.08236,-0.5518 -0.01059,-1.1142 -0.01473,-1.6682 0.007,-0.6246 0.02176,-1.2486 0.04765,-1.8726 -0.02259,-0.2736 0.364287,-0.3056 0.38688,-0.032 z"
       inkscape:connector-curvature="0"
       transform="matrix(0.65545474,0,0,0.6495799,8.532864,358.81544)" />
    <path
       style="fill:#2a3da0;fill-opacity:1;fill-rule:nonzero;stroke:none"
       id="path3535"
       d="m 24.741937,1033.5124 c 0.140521,0.6284 0.146876,1.2868 0.177034,1.9316 0.0072,0.6091 0.06953,1.2264 -0.0081,1.8336 -0.01749,0.1369 -0.05147,0.2702 -0.0772,0.4053 0.01417,0.2321 -0.273251,0.255 -0.287425,0.023 l 0,0 c -0.04207,-0.1324 -0.09379,-0.2613 -0.126195,-0.3972 -0.142844,-0.599 -0.117779,-1.2302 -0.141915,-1.8436 -0.0022,-0.6392 -0.01894,-1.2848 0.05688,-1.9194 -0.02062,-0.3286 0.386325,-0.3619 0.406948,-0.033 z"
       inkscape:connector-curvature="0"
       transform="matrix(0.65545474,0,0,0.6495799,8.532864,358.81544)" />
    <path
       style="fill:#2a3da0;fill-opacity:1;fill-rule:nonzero;stroke:none"
       id="path3537"
       d="m 26.96211,1033.5022 c 0.133263,0.7402 0.218754,1.491 0.305165,2.2398 0.03526,0.3201 0.07449,0.6025 0.07853,0.9254 0.0018,0.1428 0.0089,0.2881 -0.01562,0.4283 -0.02498,0.1425 -0.08752,0.2734 -0.131288,0.4101 0.0028,0.018 -0.01939,0.022 -0.02216,0 l 0,0 c -0.08319,-0.1143 -0.184426,-0.2147 -0.249567,-0.343 -0.06431,-0.1266 -0.09728,-0.2709 -0.133311,-0.411 -0.08307,-0.3231 -0.10658,-0.5948 -0.148615,-0.927 -0.08072,-0.7609 -0.15669,-1.5304 -0.120034,-2.2975 -0.01851,-0.3474 0.418392,-0.3768 0.4369,-0.029 z"
       inkscape:connector-curvature="0"
       transform="matrix(0.65545474,0,0,0.6495799,8.532864,358.81544)" />
    <path
       style="fill:#2a3da0;fill-opacity:1;fill-rule:nonzero;stroke:none"
       id="path3539"
       d="m 29.041204,1033.8036 c 0.157994,0.675 0.186639,1.374 0.244088,2.063 0.01803,0.2682 0.05527,0.5809 0.01064,0.8504 -0.02244,0.1355 -0.07719,0.2637 -0.115791,0.3955 0.02102,0.1431 -0.181357,0.1728 -0.202375,0.03 l 0,0 c -0.07547,-0.1191 -0.168348,-0.2289 -0.226395,-0.3575 -0.125594,-0.2782 -0.141964,-0.5609 -0.182734,-0.8575 -0.0595,-0.6945 -0.123335,-1.4008 -0.02697,-2.0947 -0.02042,-0.3532 0.479112,-0.3821 0.499533,-0.029 z"
       inkscape:connector-curvature="0"
       transform="matrix(0.65545474,0,0,0.6495799,8.532864,358.81544)" />
    <path
       style="fill:#2a3da0;fill-opacity:1;fill-rule:nonzero;stroke:none"
       id="path3545"
       d="m 19.573611,1034.4004 c 0.596514,-0.044 1.196161,-0.034 1.79395,-0.033 1.201558,-0.01 2.403113,-0.01 3.604631,-0.019 0.935588,0 1.871346,-0.03 2.806986,-0.015 0.341771,0.01 0.844476,0.026 1.191225,0.039 0.434302,0.014 0.869786,0.021 1.302853,0.06 0.218034,0.02 0.329963,0.019 0.520823,0.1188 0.05658,0.029 0.102943,0.075 0.154415,0.113 0.01583,0 0.01359,0.024 -0.0022,0.022 l 0,0 c -0.05609,0.027 -0.109249,0.061 -0.168272,0.081 -0.206962,0.069 -0.291168,0.052 -0.516441,0.055 -0.428681,0.01 -0.857425,0.01 -1.28576,0.03 -1.331854,0.08 -2.664876,0.1259 -3.99933,0.1292 -1.206368,0 -2.413078,0 -3.618931,-0.038 -0.601653,-0.019 -1.206256,-0.039 -1.80133,-0.1371 -0.287452,-0.012 -0.270028,-0.4188 0.01742,-0.4065 z"
       inkscape:connector-curvature="0"
       transform="matrix(0.65545474,0,0,0.6495799,8.532864,358.81544)" />
    <path
       style="fill:#2a3da0;fill-opacity:1;fill-rule:nonzero;stroke:none"
       id="path3547"
       d="m 18.938583,1035.7361 c 0.465533,-0.08 0.942276,-0.077 1.413317,-0.092 1.022557,-0.031 2.044988,-0.064 3.067186,-0.1059 1.284505,-0.059 2.569724,-0.097 3.855474,-0.1116 0.800143,0.013 1.611183,0 2.405107,0.1194 0.104671,0.016 0.2076,0.042 0.3114,0.063 0.313742,0.098 0.16862,0.045 0.436931,0.1529 0.02406,0 0.02193,0.035 -0.0021,0.034 l 0,0 c -0.274416,0.073 -0.127325,0.036 -0.441764,0.1089 -0.891549,0.1393 -1.79834,0.1564 -2.698602,0.1872 -1.280812,0.028 -2.561498,0.06 -3.841632,0.1112 -1.030225,0.035 -2.061677,0.075 -3.092461,0.04 -0.472111,-0.016 -0.950616,-0.013 -1.416451,-0.098 -0.28926,0 -0.285631,-0.4117 0.0036,-0.4091 z"
       inkscape:connector-curvature="0"
       transform="matrix(0.65545474,0,0,0.6495799,8.532864,358.81544)" />
    <path
       style="fill:#2a3da0;fill-opacity:1;fill-rule:nonzero;stroke:none"
       id="path3549"
       d="m 19.140895,1036.9892 c 0.573643,-0.1017 1.157026,-0.14 1.736996,-0.1891 1.225342,-0.1006 2.452606,-0.1736 3.679568,-0.251 1.129559,-0.048 2.264887,-0.1728 3.396125,-0.088 0.177375,0.013 0.35346,0.04 0.53019,0.061 0.150644,0.039 0.301288,0.079 0.451932,0.1179 0.03885,0 0.0411,0.053 0.0022,0.055 l 0,0 c -0.146276,0.052 -0.292553,0.1029 -0.438829,0.1544 -0.173074,0.037 -0.345055,0.079 -0.519223,0.1097 -1.115029,0.198 -2.252672,0.2251 -3.379176,0.3115 -1.227646,0.07 -2.455237,0.1405 -3.684202,0.183 -0.586853,0.02 -1.178204,0.057 -1.763902,0 -0.329602,0.01 -0.34133,-0.4579 -0.01173,-0.4662 z"
       inkscape:connector-curvature="0"
       transform="matrix(0.65545474,0,0,0.6495799,8.532864,358.81544)" />
    <path
       style="fill:#2a3da0;fill-opacity:1;fill-rule:nonzero;stroke:none"
       id="path3551"
       d="m 23.617314,1030.6725 c 0.0296,0.5181 -0.09527,1.0229 -0.23264,1.5176 -0.08395,0.2898 -0.196532,0.5763 -0.362153,0.8304 -0.0464,0.071 -0.09217,0.1452 -0.154899,0.2025 -0.06139,0.056 -0.141002,0.088 -0.211503,0.1324 -0.04989,0.1358 -0.24188,0.065 -0.191993,-0.071 l 0,0 c -0.02536,-0.079 -0.06479,-0.1543 -0.07608,-0.2362 -0.01134,-0.082 6.71e-4,-0.1664 0.0092,-0.2491 0.02944,-0.2844 0.109225,-0.563 0.19608,-0.8341 0.133196,-0.4585 0.248646,-0.9228 0.404652,-1.3743 0.05754,-0.438 0.676849,-0.3566 0.619311,0.081 z"
       inkscape:connector-curvature="0"
       transform="matrix(0.65545474,0,0,0.6495799,8.532864,358.81544)" />
    <path
       style="fill:#2a3da0;fill-opacity:1;fill-rule:nonzero;stroke:none"
       id="path3555"
       d="m 26.239018,1030.5653 c 0.01577,0.037 0.03471,0.073 0.04732,0.1108 0.02808,0.085 0.0755,0.3 0.09189,0.3773 0.05137,0.2421 0.09665,0.4852 0.149419,0.727 0.02072,0.1712 0.145212,0.4079 0.135917,0.5816 -0.0029,0.054 -0.02883,0.1052 -0.04324,0.1578 0.199786,0.3631 -0.313766,0.6456 -0.513552,0.2825 l 0,0 c -0.06708,-0.043 -0.145312,-0.073 -0.201238,-0.1295 -0.169797,-0.1726 -0.21418,-0.4792 -0.277853,-0.6992 -0.092,-0.4352 -0.182981,-0.8913 -0.117515,-1.3363 -0.05093,-0.5154 0.677923,-0.5874 0.728855,-0.072 z"
       inkscape:connector-curvature="0"
       transform="matrix(0.65545474,0,0,0.6495799,8.532864,358.81544)" />
    <path
       style="fill:#2a3da0;fill-opacity:1"
       id="path3618"
       d="M 7.3275327,2.8676318 C 7.3645676,3.4430108 7.2558959,4.0124045 7.1512143,4.5751001 6.8558171,6.1076787 6.3715952,7.5949487 5.8902404,9.0768811 5.1699711,11.216581 4.4179309,13.345178 3.6208284,15.457436 3.1726557,16.556767 2.7395343,17.680419 2.0907146,18.682111 1.9690206,18.86999 1.8277605,19.044447 1.6962835,19.225616 1.5968254,19.448391 1.2817737,19.307736 1.3812318,19.084961 l 0,0 c 0.046292,-0.217016 0.083313,-0.436218 0.138877,-0.651047 C 1.8148632,17.294288 2.2930597,16.211063 2.6876667,15.105263 3.4798441,13.006367 4.2364453,10.893885 4.9444327,8.7650141 5.4320456,7.3082553 5.9005957,5.8456588 6.3555539,4.3783739 6.5201601,3.8499985 6.6850063,3.3209695 6.8975455,2.8093701 6.9387427,2.5053233 7.3687299,2.5635849 7.3275327,2.8676318 z"
       inkscape:connector-curvature="0"
       transform="translate(0,1002.3622)" />
    <path
       style="fill:#2a3da0;fill-opacity:1"
       id="path3622"
       d="m 8.0447858,1.843001 c 0.5643525,0.05405 1.1263171,0.1300786 1.6892991,0.1968619 1.1533191,0.1237495 2.3121761,0.1810237 3.4704691,0.2335092 1.440455,0.064843 2.883332,0.085081 4.321503,0.1922175 0.714028,0.1243119 0.379518,0.029502 1.007548,0.2698416 0.26863,0.022103 0.237371,0.4020026 -0.03126,0.3798997 l 0,0 C 17.859734,3.2515331 18.197442,3.2055336 17.487563,3.240561 16.044198,3.2049175 14.601161,3.1381142 13.159776,3.0555515 11.982861,2.9742702 10.804593,2.8835078 9.6400078,2.6884702 9.0699899,2.5909818 8.4969848,2.4889608 7.9496442,2.2971925 7.6284823,2.2299172 7.7236239,1.7757257 8.0447858,1.843001 z"
       inkscape:connector-curvature="0"
       transform="translate(0,1002.3622)" />
    <path
       style="fill:#2a3da0;fill-opacity:1"
       id="path3628"
       d="m 18.747745,3.8748049 c -0.151152,0.4570265 -0.338165,0.9006672 -0.501167,1.3534899 -0.353507,0.9364848 -0.650868,1.892229 -0.949124,2.8473194 -0.419538,1.4045145 -0.795708,2.8210738 -1.158632,4.2410638 -0.390616,1.552441 -0.79659,3.10091 -1.169556,4.657729 -0.161701,0.738437 -0.34735,1.470819 -0.599859,2.183919 -0.175595,0.495892 -0.278107,0.718312 -0.480151,1.194421 -0.02845,0.200411 -0.311869,0.160182 -0.283424,-0.04023 l 0,0 c -0.02368,-0.208184 -0.05671,-0.415516 -0.07104,-0.624552 -0.06912,-1.00785 0.07083,-2.00573 0.325581,-2.980344 0.377952,-1.564425 0.771475,-3.12516 1.194873,-4.67797 0.392702,-1.432342 0.779615,-2.867925 1.258036,-4.2746159 0.331533,-0.9780685 0.687046,-1.9510851 1.148932,-2.8764457 0.233717,-0.4379183 0.46016,-0.8839374 0.763145,-1.279336 0.194843,-0.3693851 0.717233,-0.093836 0.52239,0.2755495 z"
       inkscape:connector-curvature="0"
       transform="translate(0,1002.3622)" />
    <path
       style="fill:#2a3da0;fill-opacity:1"
       id="path3630"
       d="m 1.5280647,19.837146 c 0.1400821,-0.0099 0.1637261,-0.01345 0.3243708,-0.01346 0.2244713,-1.2e-5 0.4488822,0.0084 0.6733524,0.0091 0.2844634,8.87e-4 0.808985,-0.0042 1.077774,-0.0063 1.680903,0.0021 3.3617743,0.01006 5.0426809,0.0081 0.8239879,0.0036 1.6492952,-0.0151 2.4729772,0.01849 0.332487,0.01356 0.89691,0.04762 1.235158,0.120808 0.156628,0.03389 0.305807,0.09595 0.45871,0.143927 0.114959,0.07325 0.229919,0.146502 0.344879,0.219753 0.235619,0.03043 0.192578,0.36365 -0.04304,0.333216 l 0,0 c -0.121051,0.04277 -0.242101,0.08553 -0.363152,0.128298 -0.149671,0.02074 -0.298341,0.05084 -0.449012,0.06223 -0.247359,0.0187 -0.981274,0.01334 -1.200322,0.01163 -0.819158,-0.0064 -1.638283,-0.01768 -2.4575147,-0.01383 -1.6976253,-0.0064 -3.3985096,0.0033 -5.0914948,-0.140552 -0.5396932,-0.06412 -0.5969137,-0.0628 -1.1039826,-0.15143 -0.3437025,-0.06008 -0.6962999,-0.121577 -1.0145828,-0.270735 -0.3247084,-0.0659 -0.2315088,-0.525109 0.0932,-0.459207 z"
       inkscape:connector-curvature="0"
       transform="translate(0,1002.3622)" />
    <path
       style="fill:#2a3da0;fill-opacity:1"
       id="path3636"
       d="m 8.643869,4.2736514 c 0.2750151,-0.1251361 0.5768901,-0.184797 0.8755069,-0.2213921 0.2873005,-0.012943 0.4539942,0.08101 0.3873443,0.3972249 -0.00403,0.012565 -0.010222,0.024633 -0.012081,0.037696 -0.00105,0.00737 0.00935,-0.012723 0.00959,-0.02016 6.162e-4,-0.019384 -0.013359,-0.0587 0.00602,-0.057869 0.065501,0.00281 0.1284922,0.026129 0.1927582,0.039092 0.386891,0.068127 0.780493,0.04947 1.171067,0.039304 0.259009,-0.010908 0.517952,-0.013793 0.776124,0.011966 0.126242,0.031222 0.254129,0.053095 0.381981,0.077934 0.211448,0.039494 0.425563,0.05858 0.640176,0.068801 0.306934,0.014569 0.613872,-0.013322 0.918722,-0.046594 0.177449,-0.012036 0.350034,-0.054426 0.524205,-0.086996 0.129314,-0.00316 0.268409,-0.033908 0.395786,0.00571 0.05902,0.018356 0.111183,0.054034 0.166774,0.08105 0.181112,5.447e-4 0.180341,0.2566747 -7.7e-4,0.25613 l 0,0 c -0.05249,0.026692 -0.101787,0.060893 -0.157459,0.080075 -0.117069,0.040337 -0.244596,0.0205 -0.365063,0.031862 -0.174271,-0.00536 -0.346919,0.011826 -0.519251,0.038073 -0.326223,0.03548 -0.654102,0.063832 -0.982621,0.05003 -0.235952,-0.01144 -0.472137,-0.026179 -0.703879,-0.075362 -0.136835,-0.029758 -0.270724,-0.072151 -0.384162,-0.1573624 -0.20461,-0.1135023 -0.462124,-0.041556 -0.684328,-0.055146 -0.406446,0.00752 -0.812794,0.021387 -1.219231,0.024513 C 9.7761702,4.774744 9.5018431,4.7243466 9.5374183,4.368067 c 0.00236,-0.00959 -0.00171,-0.024243 0.00707,-0.028761 0.00663,-0.00341 0.00611,0.013833 0.010994,0.019465 0.017598,0.020314 0.033351,0.043581 0.056066,0.057945 0.065641,0.04151 0.050884,-0.00484 0.023962,-0.00758 -0.024689,-0.00252 -0.049569,0.00255 -0.074353,0.00382 C 9.2717699,4.4443588 8.9818614,4.4870743 8.6903931,4.4855626 8.5405493,4.5184602 8.4940251,4.306549 8.643869,4.2736514 z"
       inkscape:connector-curvature="0"
       transform="translate(0,1002.3622)" />
    <path
       style="fill:#2a3da0;fill-opacity:1"
       id="path3638"
       d="M 7.4302752,6.8102875 C 7.935066,6.6451315 8.4444183,6.4945958 8.9574834,6.3572668 9.125409,6.3156301 9.2590646,6.2795974 9.4272483,6.2480374 c 0.05666,-0.010633 0.1152084,-0.011576 0.1709242,-0.026381 0.04502,-0.011963 0.084705,-0.039441 0.12916,-0.053359 0.1294331,-0.040524 0.112719,-0.022389 0.2486102,0.018494 0.04184,0.059053 0.1020563,0.108696 0.1255203,0.17716 0.0394,0.1149569 -0.03806,0.2671997 -0.1096745,0.3464993 0.044963,-0.026235 -0.022398,-0.06205 -0.00721,-0.086787 0.00274,-0.00446 0.070483,0.013304 0.1160853,0.020174 0.113796,0.017143 0.151341,0.016681 0.270326,0.024144 0.269003,0.022846 0.543311,-0.053515 0.808687,0.00287 0.198621,-0.00809 0.317977,0.065971 0.289363,0.289272 -0.0066,0.051459 -0.0092,0.050948 -0.03298,0.066418 0.02134,-0.2279798 0.01074,0.050492 -0.03046,-0.1634112 -0.0022,-0.011249 0.05336,8.86e-4 0.11015,0.00646 0.0893,0.00877 0.200071,0.01563 0.288216,0.021689 0.34593,0.00896 0.686491,0.069724 1.029291,0.1089394 0.250351,0.018967 0.501391,0.029073 0.75231,0.037228 0.06516,0.00212 0.131017,-0.00404 0.195519,0.00546 0.06422,0.00946 0.125281,0.034024 0.187922,0.051036 0.0595,0.027576 0.11899,0.055152 0.178485,0.082727 0.05219,0.00106 0.0507,0.074867 -0.0015,0.073811 l 0,0 c -0.06077,0.025142 -0.121547,0.050283 -0.182321,0.075425 -0.06347,0.014114 -0.12572,0.035892 -0.190424,0.042343 -0.06462,0.00644 -0.129846,-0.00307 -0.194781,-0.00394 -0.256574,-0.00341 -0.513237,-0.00254 -0.76956,-0.016911 -0.346027,-0.00939 -0.692004,-0.015545 -1.036557,-0.05358 -0.205287,-0.018047 -0.587801,-0.00345 -0.694762,-0.2246554 -0.02134,-0.044137 -0.0087,-0.09767 -0.01299,-0.1465044 0.02221,-0.1317172 3.15e-4,-0.031052 0.02969,0.00925 0.07883,0.108156 0.187474,0.089633 0.100958,0.068526 -0.269565,0.093985 -0.570162,0.060987 -0.85058,0.067443 -0.234005,-0.016005 -0.5953872,-0.015439 -0.7282674,-0.256151 -0.024409,-0.044217 -0.023238,-0.098303 -0.034857,-0.1474551 0.00809,-0.062366 0.010543,-0.1258241 0.025271,-0.1869628 0.00449,-0.018632 0.012955,-0.036108 0.020679,-0.053648 0.00253,-0.00574 0.00733,-0.021647 0.00997,-0.015957 0.080996,0.1745482 -0.1097278,-0.051902 0.1232468,0.1782612 0.018626,-7.497e-4 0.049814,0.015378 0.055877,-0.00225 0.00587,-0.017063 -0.027461,-0.024891 -0.044506,-0.030813 -0.037267,-0.012949 -0.076301,-0.026548 -0.1157177,-0.024858 -0.055098,0.00236 -0.1074553,0.024888 -0.1613164,0.036736 -0.092929,0.020441 -0.3816448,0.081202 -0.4624004,0.098261 C 8.5152481,6.7789773 7.9993846,6.9024349 7.4809799,7.0134816 7.3373,7.0493352 7.2865953,6.8461411 7.4302752,6.8102875 z"
       inkscape:connector-curvature="0"
       transform="translate(0,1002.3622)" />
    <path
       style="fill:#2a3da0;fill-opacity:1"
       id="path3642"
       d="m 7.0128575,8.5226858 c 0.2735372,-0.062639 0.5491314,-0.1200724 0.8302346,-0.129363 0.1916854,-0.00738 0.3695642,0.061106 0.3913657,0.2827958 0.00871,0.08855 -0.045908,0.1644452 -0.085828,0.235188 -0.051806,0.065526 -0.093155,0.1383138 -0.1402062,0.2070584 -0.00607,0.00887 -0.017694,0.035791 -0.020006,0.025293 -0.00344,-0.015616 0.01039,-0.030245 0.015585,-0.045367 -0.00576,-0.024839 -0.011527,-0.049678 -0.01729,-0.074517 0.3233895,0.065356 0.6520443,0.022078 0.9769576,-0.01346 0.1687229,-0.024386 0.3389771,-0.028921 0.5088401,-0.037853 0.062465,-0.00328 0.1557271,-0.019699 0.2175128,0.00758 0.043122,0.019039 0.07671,0.054803 0.1150653,0.082204 0.092462,-0.170683 0.014246,0.3602152 -0.00603,0.2737396 -0.00446,-0.019021 0.021384,-0.036613 0.017848,-0.055827 -0.018751,-0.1019056 -0.029659,-0.1055339 -0.079084,-0.1544852 0.2497271,0.03307 0.4988813,-0.016021 0.7438163,-0.06069 0.319386,-0.063436 0.636961,-0.1436679 0.962906,-0.1637201 0.112802,-0.013571 0.235623,-0.029079 0.309005,0.093644 0.04657,0.077885 0.04153,0.1732777 -5.38e-4,0.2471068 -0.0035,0.00618 -0.0011,-0.014179 -0.0017,-0.021269 -0.0013,-0.044615 -0.0026,-0.089231 -0.004,-0.1338462 -0.01566,-0.02081 -0.04101,-0.037082 -0.04699,-0.062431 -0.0033,-0.014132 0.02412,0.016507 0.03749,0.022178 0.03208,0.013613 0.06548,0.023897 0.09836,0.035462 0.178711,0.06286 0.104411,0.039154 0.301492,0.088819 0.392991,0.067507 0.785966,-0.00652 1.177048,-0.04859 0.270824,-0.012205 0.65063,-0.090988 0.910303,0.00523 0.03917,0.014514 0.07366,0.039416 0.110492,0.059125 0.02146,0.034756 0.04293,0.069513 0.06439,0.1042692 0.02936,0.00961 0.01577,0.051136 -0.01359,0.041525 l 0,0 c -0.02985,0.01796 -0.0597,0.035919 -0.08955,0.053879 -0.12773,0.024481 -0.245153,0.026639 -0.37526,0.028494 -0.145891,0.00208 -0.235495,0.0074 -0.383076,0.014134 -0.0699,0.00137 -0.139823,-7.506e-4 -0.209735,-0.00113 -0.143069,-0.00208 -0.280945,-0.00166 -0.423694,-0.013325 -0.259557,-0.021212 -0.51878,-0.061648 -0.780336,-0.039124 -0.184215,0.020933 -0.614329,0.1300257 -0.735436,-0.071242 -0.03167,-0.052634 -0.02186,-0.1208962 -0.03279,-0.1813443 0.02569,-0.1672931 -0.01078,2.596e-4 0.04855,0.072943 0.07497,0.09185 0.200161,0.050995 0.078,0.037746 -0.313394,0.055849 -0.627867,0.1053616 -0.940867,0.1634848 -0.172459,0.031406 -0.34485,0.063019 -0.517396,0.093922 -0.080362,0.014393 -0.1833034,0.03702 -0.2663076,0.04059 -0.038828,0.00167 -0.077675,-0.00288 -0.116513,-0.00431 -0.1401977,-0.055961 -0.1728397,-0.038912 -0.2291752,-0.2166997 -0.00768,-0.02423 0.029484,-0.2748117 0.05248,-0.041599 0.024689,0.00493 0.049785,0.021429 0.074068,0.014784 0.040277,-0.011022 -0.00954,-0.059283 -0.064511,-0.070174 -0.1591545,-0.03153 -0.3268451,0.037499 -0.4850733,0.034937 -0.2263757,0.02476 -0.4509145,0.054448 -0.6761809,0.087618 -0.092197,0.013576 -0.2869204,0.047383 -0.3851817,0.035012 -0.059257,-0.00746 -0.1145055,-0.03401 -0.1717582,-0.051015 -0.040632,-0.05192 -0.096954,-0.094731 -0.121896,-0.1557598 -0.063792,-0.1560898 0.073968,-0.3399099 0.1473569,-0.4648151 0.039611,-0.063538 -6.519e-4,0.020729 0.079822,0.099212 0.034453,0.033601 0.1135459,0.018879 0.00372,0.00381 C 7.6066364,8.8241477 7.3502311,8.8711986 7.0946155,8.9165666 6.8160997,8.9743782 6.7343417,8.5804974 7.0128575,8.5226858 z"
       inkscape:connector-curvature="0"
       transform="translate(0,1002.3622)" />
    <path
       style="fill:#2a3da0;fill-opacity:1"
       id="path3644"
       d="m 6.5471252,10.800015 c 0.2937817,-0.11546 0.6015793,-0.203129 0.9151283,-0.241828 0.3404274,0.006 0.5589224,0.104825 0.4834814,0.489497 -0.00932,0.02544 -0.019294,0.05064 -0.027947,0.07631 -0.00615,0.01824 -0.012129,0.03659 -0.01643,0.05535 -0.00114,0.005 5.667e-4,0.02042 2.25e-4,0.01533 -0.00177,-0.02634 -0.025689,-0.05744 3.19e-4,-0.06919 0.2276497,0.03187 0.4591293,0.01382 0.6873854,-0.0022 0.144506,-0.0119 0.2894425,-0.01848 0.4335324,-0.03493 0.025601,-0.0029 0.051165,-0.01203 0.076766,-0.0091 0.034599,0.004 0.066844,0.01957 0.100266,0.02935 0.101998,0.10628 0.1793466,0.213459 0.077151,0.353612 -0.00883,0.01211 -0.024099,0.03745 -0.035459,0.02767 -0.01259,-0.01084 0.013624,-0.03214 0.011183,-0.04857 -0.00759,-0.05106 -0.027068,-0.09964 -0.040602,-0.149456 -0.010539,-0.0086 -0.039541,-0.01478 -0.031617,-0.02586 0.00914,-0.01277 0.031245,0.0032 0.046895,0.0045 0.034598,0.0029 0.069187,0.006 0.1038417,0.008 0.1868741,0.01118 0.3575298,-0.0065 0.5425666,-0.03425 0.365244,-0.07119 0.727255,-0.152043 1.099572,-0.172128 0.156945,-0.0011 0.25872,0.04582 0.277092,0.229606 0.0079,0.07885 -0.06918,0.163465 -0.118315,0.216729 0.104756,-0.0928 -0.127175,-0.185954 0.03159,-0.07597 0.03765,0.02608 0.07783,0.04831 0.116748,0.07246 0.02337,0.0019 0.02075,0.03489 -0.0026,0.03304 l 0,0 c -0.05895,0.02202 -0.191529,0.08159 -0.263353,0.07299 -0.177751,-0.02128 -0.226394,-0.145052 -0.150648,-0.294616 0.0729,-0.140144 0.0098,-0.0285 0.11649,0.07201 0.01146,0.0108 0.03976,0.01881 0.04699,0.0048 0.0068,-0.01314 -0.02785,-0.0099 -0.04178,-0.01492 -0.175971,0.0035 -0.02826,-0.0028 -0.245489,0.01971 -0.276477,0.02868 -0.555102,0.03428 -0.8305037,0.07465 -0.221227,0.03319 -0.1899084,0.02381 -0.3995854,0.07264 -0.1881394,0.04382 -0.3640501,0.106131 -0.5463734,0.0075 -0.025942,-0.0612 -0.063799,-0.118624 -0.077825,-0.183598 -0.020266,-0.09387 0.035703,-0.0625 0.013025,-0.113911 -0.00102,-0.0023 -0.00134,0.005 -0.00116,0.0075 0.00234,0.03341 -0.00712,0.07057 0.00869,0.100099 0.022787,0.04256 0.067104,0.06942 0.1006561,0.104129 0.016032,6.81e-4 0.03509,0.01144 0.048095,0.002 0.00826,-0.006 -0.013185,-0.01736 -0.022981,-0.02019 -0.082031,-0.02371 -0.1994819,0.0045 -0.2812491,0.01052 -0.045559,0.0034 -0.091118,0.0067 -0.1366765,0.0101 -0.2776786,0.01938 -0.5613758,0.05126 -0.8354321,-0.01404 -0.03811,-0.01765 -0.080526,-0.02804 -0.1143307,-0.05297 C 7.5148552,11.302198 7.5285429,11.15032 7.5372402,10.98806 c 4.57e-5,-0.01171 -0.00494,-0.02457 1.371e-4,-0.03512 0.00239,-0.005 0.00648,0.0091 0.010651,0.01269 0.023182,0.0201 0.052119,0.05533 0.089892,0.04296 0.031575,-0.01034 -0.2538094,-0.03358 -0.099584,0.0043 -0.2860706,0.06345 -0.5687369,0.138431 -0.8513842,0.215353 -0.3028113,0.09887 -0.442638,-0.329367 -0.1398268,-0.42824 z"
       inkscape:connector-curvature="0"
       transform="translate(0,1002.3622)" />
    <path
       style="fill:#2a3da0;fill-opacity:1"
       id="path3650"
       d="m 12.056399,11.29291 c 0.278476,-0.02661 0.556325,-0.05965 0.835055,-0.08396 0.04521,4.66e-4 0.09101,-0.0059 0.135622,0.0014 0.07153,0.01172 0.188659,0.06835 0.255298,0.09417 0.109751,0.04253 0.127692,0.0452 0.239439,0.07781 0.03941,-7.51e-4 0.04047,0.05499 0.0011,0.05574 l 0,0 c -0.103669,0.03496 -0.13181,0.04077 -0.230967,0.08924 -0.05165,0.02525 -0.177481,0.10137 -0.232986,0.118816 -0.04109,0.01292 -0.08505,0.01375 -0.127571,0.02063 -0.284235,0.02474 -0.567914,0.0567 -0.853013,0.07009 -0.313899,0.01551 -0.335838,-0.428408 -0.02194,-0.443921 z"
       inkscape:connector-curvature="0"
       transform="translate(0,1002.3622)" />
    <path
       style="fill:#2a3da0;fill-opacity:1"
       id="path3652"
       d="m 6.3112731,12.665828 c 0.2700076,0.0909 0.5528163,0.108539 0.8352591,0.110932 0.231212,-0.0014 0.4766179,0.01063 0.6915065,0.102704 0.027195,0.02769 0.061081,0.05012 0.081584,0.08307 0.041046,0.06597 0.04213,0.121797 0.031903,0.19363 -0.00302,0.02123 -0.010061,0.04174 -0.016678,0.06214 -0.00317,0.0098 -0.010592,0.0382 -0.012599,0.02813 -0.00252,-0.01266 0.00719,-0.0248 0.010792,-0.0372 0.1615259,0.01335 -0.068344,-0.08279 -0.037568,-0.101777 0.022934,-0.01415 0.3334384,-0.0118 0.3690191,-0.01276 0.2308972,-0.0094 0.4627603,-0.02075 0.6938791,-0.0151 0.093602,0.0034 0.1869414,-0.0049 0.2801811,-0.01184 0.1772655,-0.0067 0.3545523,-0.009 0.5310466,-0.02746 0.1440988,-0.01326 0.2935553,-0.04551 0.4391873,-0.03611 0.05448,0.0035 0.107492,0.01917 0.161289,0.02846 0.148605,0.04077 0.197922,0.118513 0.204228,0.268997 0.0015,0.03562 -0.02434,0.139358 -0.02605,0.103744 -0.0013,-0.02617 0.0098,-0.05148 0.0147,-0.07722 -0.02531,-0.04346 -0.05062,-0.08692 -0.07593,-0.130382 -0.0046,-0.0057 -0.02117,-0.01632 -0.01385,-0.01721 0.0274,-0.0034 0.0548,0.0069 0.08234,0.0088 0.117059,0.0081 0.23386,0.02152 0.35116,0.0246 0.07661,0.002 0.153216,-0.004 0.229825,-0.006 0.391611,-0.07037 0.792958,-0.113619 1.173499,-0.234041 0.143759,-0.04781 0.279158,0.01677 0.420533,0.03757 0.106481,-0.0066 0.197089,0.03126 0.293314,0.07064 0.162057,0.0256 0.125851,0.254784 -0.03621,0.229182 l 0,0 c -0.126238,0.006 -0.233514,0.01008 -0.342523,-0.06475 -0.0391,-0.02251 -0.101624,-0.0677 -0.140324,-0.08718 -0.05499,-0.02769 -0.127421,-0.0076 -0.181845,-0.03685 -0.393145,-0.05525 -0.791309,0.06786 -1.168649,0.164834 -0.07034,0.03095 -0.142146,0.05878 -0.21103,0.09286 -0.137772,0.06816 -0.464057,0.290413 -0.631146,0.186491 -0.06058,-0.03768 -0.0939,-0.107438 -0.140847,-0.161157 0.0016,-0.04239 0.0025,-0.08482 0.0048,-0.12718 0.005,-0.09044 0.04549,0.121447 0.145139,0.100366 -0.06516,-0.0031 0.0229,-0.0015 -0.09163,0.01509 -0.145616,0.02109 -0.2967343,0.0128 -0.4430418,0.01217 -0.1779731,-0.0018 -0.3556199,0.0081 -0.5334803,0.01399 -0.091656,4.8e-4 -0.1837259,0.0016 -0.2746069,0.01458 -0.232914,0.0324 -0.4685217,0.05097 -0.7034587,0.05923 -0.1502404,0.0039 -0.4839241,0.01791 -0.6030403,-0.09298 -0.036547,-0.03402 -0.05384,-0.08411 -0.08076,-0.126164 -3.247e-4,-0.04057 -0.00327,-0.100731 0.00244,-0.14514 0.00152,-0.01181 0.00401,-0.03516 0.015538,-0.03216 0.126928,0.03303 -0.084277,0.0032 0.068513,0.02105 0.012011,-0.0586 -0.1002674,-0.03331 -0.1226655,-0.02986 -0.1367377,0.0211 -0.271503,0.05651 -0.4118955,0.04374 -0.3215044,-0.0034 -0.6471879,-0.02112 -0.9551457,-0.12175 -0.2437655,-0.08717 -0.1204836,-0.43191 0.1232818,-0.344736 z"
       inkscape:connector-curvature="0"
       transform="translate(0,1002.3622)" />
    <path
       style="fill:#2a3da0;fill-opacity:1"
       id="path3664"
       d="m 5.2352989,14.803209 c 0.2563434,-0.07638 0.5132813,-0.151907 0.7818514,-0.160522 0.3405957,0.02548 0.4461732,0.218166 0.4138046,0.535505 0.00751,0.06267 -0.054683,0.105594 -0.052973,0.165825 1.866e-4,0.0066 0.0069,-0.0124 0.00574,-0.01887 -0.011614,-0.06457 -0.010759,-0.05579 -0.047088,-0.08913 0.1703986,0.09746 0.3887217,0.02524 0.5664549,-0.01078 0.088861,-0.03053 0.1953321,-0.02874 0.2804895,-0.07208 0.029867,-0.0152 0.079771,-0.07261 0.1154317,-0.079 0.033033,-0.0059 0.066918,0.0052 0.1003767,0.0078 0.1244039,0.13822 0.1418678,0.09777 0.1333306,0.257529 -9.333e-4,0.01746 -0.00401,0.03655 -0.01476,0.05035 -0.00583,0.0075 -1.837e-4,-0.01912 -0.00237,-0.02835 -0.035564,-0.149914 -0.00351,-0.105748 -0.092938,-0.177235 0.1097322,0.01972 0.2202299,-0.0043 0.3302259,-0.0063 0.3253989,-0.006 -0.00313,0.02051 0.329904,-0.01348 0.1495465,-0.01819 0.2981066,-0.03616 0.4467482,-0.05992 0.034564,-0.0055 0.070387,-0.0047 0.1040212,-0.01436 0.053977,-0.01555 0.1013617,-0.0485 0.1528126,-0.07104 0.1585493,0.103076 0.1820332,0.06326 0.145535,0.286317 -0.00573,0.035 -0.15653,0.20053 -0.1232467,0.140268 0.03207,-0.268102 0.063777,-0.115328 -0.080978,-0.285156 -0.0055,-0.0065 0.01604,0.0058 0.024412,0.0072 0.030494,0.0051 0.061254,0.0084 0.091941,0.01206 0.1729405,0.0209 0.1046085,0.01464 0.291212,0.01853 0.054032,-0.0089 0.108437,-0.01587 0.1620974,-0.02683 0.1035217,-0.02113 0.2054752,-0.04945 0.308858,-0.07126 0.1095783,-0.02311 0.2186137,-0.03567 0.3260464,-0.06678 0.2011145,-0.03814 0.3378055,0.223365 0.2115245,0.368179 0.03445,-0.103391 0.04112,-0.0709 -0.02918,-0.19947 -0.006,-0.01092 -0.03844,-0.01478 -0.02927,-0.02318 0.01186,-0.01087 0.03182,0.0049 0.04786,0.0062 0.128368,0.01 0.09382,0.0063 0.238476,-0.0092 0.400201,-0.0686 0.787453,-0.193417 1.181153,-0.290631 0.161473,-0.04718 0.321814,-0.057 0.487844,-0.05319 0.07761,0.0018 0.155086,-0.01638 0.217444,0.05173 0.03291,0.03594 0.04131,0.08829 0.06197,0.13243 -0.02783,0.03107 -0.05567,0.06214 -0.0835,0.09322 -0.0026,0.05321 -0.0778,0.0496 -0.07525,-0.0036 l 0,0 c -0.02659,0.0052 -0.05318,0.01032 -0.07978,0.01548 0.01092,0.02205 0.01904,0.04572 0.03277,0.06615 0.0038,0.0056 0.02472,0.0091 0.01797,0.0094 -0.01782,5.59e-4 -0.0352,-0.01084 -0.05284,-0.0083 -0.03614,0.0053 -0.06967,0.02202 -0.104976,0.03138 -0.141425,0.03749 -0.183305,0.04268 -0.333406,0.07169 -0.406256,0.07594 -0.811684,0.156108 -1.216849,0.237454 -0.238492,0.04412 -0.5878077,0.165633 -0.6857996,-0.162735 -0.012553,-0.04207 0.012648,-0.08688 0.018972,-0.130323 0.04005,-0.186886 0.097649,0.0823 0.1960687,0.0042 0.00885,-0.007 -0.011524,-0.01942 -0.017285,-0.02913 -0.0233,-0.0072 -0.045511,-0.02118 -0.0699,-0.02167 -0.034218,-6.91e-4 -0.067485,0.0115 -0.1010444,0.01822 -0.1996179,0.03993 -0.3994207,0.08625 -0.5916896,0.15338 -0.1634888,0.08352 -0.5637334,0.360847 -0.7099718,0.09074 -0.035388,-0.06536 0.00177,-0.148643 0.00265,-0.222965 0.013353,-0.02175 0.056,-0.114333 0.091778,-0.125769 0.031208,-0.01 0.010164,0.279292 0.1684892,0.202039 -9.826e-4,-0.01661 0.00824,-0.03751 -0.00295,-0.04982 -0.046293,-0.05094 -0.117156,-0.0196 -0.1681775,-0.01009 -0.1471811,0.02742 -0.2889103,0.06982 -0.4324601,0.112392 -0.267101,0.08453 -0.5298252,0.227731 -0.8183763,0.204796 -0.1692344,-0.08921 -0.1868194,-0.08619 -0.192547,-0.297864 -8.42e-5,-0.0031 -0.00239,0.006 -0.00204,0.0091 0.00292,0.02608 -0.003,0.05617 0.011796,0.07784 0.030735,0.04503 0.078915,0.07524 0.118373,0.112864 0.021153,-0.0025 0.04712,0.0061 0.063458,-0.0076 0.022861,-0.01913 -0.037361,-0.05607 -0.067003,-0.05923 -0.094398,-0.01005 -0.1942647,0.04667 -0.2869771,0.05035 -0.1319215,0.0283 -0.267197,0.04801 -0.3975354,0.08302 -0.1224956,0.0329 -0.233272,0.07534 -0.3634167,0.04812 -0.039776,-0.02142 -0.087095,-0.0326 -0.1193272,-0.06425 -0.1066714,-0.104748 -0.072007,-0.253934 -0.075574,-0.385244 0.0026,-0.01968 -0.00722,-0.05379 0.012108,-0.05831 0.00288,-6.72e-4 0.093685,0.04718 0.066642,0.01416 -0.00721,-0.0088 -0.021194,-0.0083 -0.031791,-0.0125 -0.2334826,0.0217 -0.4588901,0.09669 -0.6837533,0.159329 -0.3033972,0.08599 -0.4250078,-0.343076 -0.1216106,-0.429068 z"
       inkscape:connector-curvature="0"
       transform="translate(0,1002.3622)" />
    <path
       style="fill:#2a3da0;fill-opacity:1"
       id="path3666"
       d="m 4.3721219,17.229429 c 0.2008078,-0.119465 0.4158537,-0.209871 0.6458505,-0.251689 0.3690932,-0.02029 0.463935,0.188944 0.4000545,0.513527 -0.028152,0.108745 -0.00519,0.03182 -0.040506,0.126819 -0.00326,0.0088 -0.00781,0.03601 -0.00864,0.02669 -0.00144,-0.0162 0.01141,-0.03276 0.00672,-0.04833 -0.038186,-0.126691 -0.040869,-0.110554 -0.1301706,-0.168759 0.1958327,-0.07616 0.3934777,-0.155997 0.5891167,-0.235632 0.1804247,-0.06521 0.4605951,-0.229207 0.6076351,0.01787 0.044616,0.07497 -0.00352,0.174443 -0.00529,0.261664 0.00549,0.01146 -0.1419104,0.196594 -0.1510822,0.18926 -0.00878,-0.007 0.013655,-0.01923 0.014553,-0.03044 0.00443,-0.0553 8.064e-4,-0.110944 0.00121,-0.166415 -0.026354,-0.03138 -0.052707,-0.06275 -0.079061,-0.09413 -0.00246,-0.0018 -0.010457,-0.0056 -0.00739,-0.0055 0.1305173,0.0026 0.2200815,0.0015 0.3527703,-0.01356 0.1473681,-0.02713 0.2989408,-0.02267 0.4466775,-0.04091 0.084649,-0.0042 0.1687344,-0.01165 0.2530915,-0.02232 0.1724876,-0.02318 0.3450272,-0.04881 0.5193319,-0.04809 0.1505767,-8.1e-4 0.2866518,0.06462 0.4296415,0.100387 0.090158,0.02092 0.1751489,0.05508 0.2665751,0.07046 0.2451225,0.04415 0.4953548,-0.01558 0.7375297,-0.05399 0.2117272,-0.01058 0.4137807,-0.09989 0.6263984,-0.09179 0.1513923,0.02987 0.2237416,0.152583 0.2197986,0.298083 -8.53e-4,0.06104 0.003,-0.03943 -0.05217,-0.04335 -0.0099,-7e-4 -0.018012,0.01961 -0.01172,0.02724 0.01783,0.02162 0.114521,0.0041 0.119295,0.0037 0.112519,-0.02638 0.231841,-0.04233 0.339368,-0.08692 0.04158,-0.01724 0.07923,-0.04275 0.119268,-0.06331 0.133072,-0.06837 0.08966,-0.04808 0.224401,-0.09575 0.240332,-0.0888 0.346132,-0.01966 0.556558,0.09409 0.06709,-0.0019 0.06981,0.09296 0.0027,0.09488 l 0,0 c -0.184384,0.103942 -0.283643,0.163377 -0.497912,0.130626 -0.1197,0.0034 -0.245575,-0.01486 -0.364289,-0.003 -0.121928,0.01219 -0.238156,0.0655 -0.359828,0.0802 -0.1560757,0.0262 -0.3765428,0.110662 -0.395022,-0.131112 -0.00911,-0.07441 0.035776,-0.005 0.084801,-0.01497 -0.045494,-0.0056 -0.100533,0.01968 -0.140466,0.03347 -0.1268838,0.04381 -0.2552012,0.08465 -0.3763061,0.143315 -0.2956818,0.101397 -0.6027981,0.185211 -0.9185374,0.157559 -0.1316729,-0.02444 -0.2542811,-0.05807 -0.3532973,-0.153058 -0.075626,-0.05319 -0.1602506,-0.08869 -0.2537114,-0.09298 -0.1566651,0.0039 -0.3121816,0.0257 -0.466778,0.05033 -0.090872,0.01328 -0.1821556,0.02347 -0.2739984,0.02313 -0.1436162,0.0062 -0.2869113,0.04666 -0.4309073,0.05444 -0.1325356,0.01676 -0.4817091,0.08847 -0.595303,0.02773 -0.057753,-0.03088 -0.099915,-0.08469 -0.149872,-0.127038 -0.00691,-0.07055 -0.024557,-0.14086 -0.020737,-0.211642 0.00191,-0.03534 0.088189,-0.211632 0.1310397,-0.213876 0.00753,0.06853 -0.020353,0.151644 0.022579,0.205585 0.051517,0.06473 0.1470678,0.07683 0.2247786,0.1052 0.00835,0.003 0.030857,-0.01499 0.021967,-0.01513 -0.082986,-0.0013 -0.1539221,0.09498 -0.2365503,0.09664 -0.2627233,0.106941 -0.5259026,0.239446 -0.8114965,0.26496 -0.059535,-0.01871 -0.1288604,-0.01846 -0.1786047,-0.05614 -0.1573331,-0.11919 -0.1331435,-0.302225 -0.090504,-0.463791 0.031798,-0.109221 0.028432,0.09755 0.1903116,0.06707 -0.1699013,0.05597 -0.3310005,0.139421 -0.4881839,0.223724 C 4.3231786,17.862311 4.057464,17.417317 4.3721219,17.229429 z"
       inkscape:connector-curvature="0"
       transform="translate(0,1002.3622)" />
    <path
       style="fill:#2a3da0;fill-opacity:1"
       id="path3698"
       d="m 27.256433,1048.2948 c 0.176434,-0.4772 0.462715,-0.9087 0.725579,-1.342 0.521863,-0.8498 1.049767,-1.6958 1.561695,-2.5516 0.732004,-1.2389 1.449152,-2.4862 2.15314,-3.7411 0.838095,-1.5262 1.678797,-3.0505 2.462937,-4.6053 0.626562,-1.2474 1.171403,-2.5325 1.664251,-3.8378 0.148097,-0.3662 0.126929,-0.3313 0.283128,-0.6587 0.05662,-0.1187 0.125463,-0.2751 0.217247,-0.3765 0.04141,-0.046 0.09467,-0.079 0.142001,-0.1187 -0.0079,-0.1692 0.231362,-0.1804 0.239295,-0.011 l 0,0 c 0.05155,0.05 0.114893,0.091 0.154652,0.1512 0.230538,0.3486 0.141281,0.9778 0.08778,1.3567 -0.04244,0.1756 -0.07854,0.3528 -0.127331,0.5268 -0.34833,1.2418 -0.933766,2.4027 -1.489857,3.5603 -0.796618,1.5723 -1.617257,3.1332 -2.521344,4.6471 -0.72834,1.2593 -1.457125,2.5192 -2.247702,3.7409 -0.548218,0.8476 -1.100878,1.6934 -1.705594,2.5023 -0.186837,0.2543 -0.373453,0.5082 -0.565401,0.7586 -0.09073,0.1184 -0.161257,0.218 -0.261646,0.3262 -0.03062,0.033 -0.06504,0.062 -0.09756,0.093 -0.297365,0.4774 -0.972635,0.057 -0.67527,-0.4206 z"
       inkscape:connector-curvature="0" />
    <path
       style="fill:#2a3da0;fill-opacity:1"
       id="path3700"
       d="m 37.535353,1030.2469 c 0.58625,-0.034 1.175191,-0.01 1.762287,-0.01 1.201705,0.019 2.402001,-0.043 3.601185,-0.1125 1.197694,-0.066 2.386887,-0.2266 3.580813,-0.3351 0.475084,-0.018 1.190676,-0.1456 1.621632,0.1156 0.06036,0.037 0.109386,0.089 0.164078,0.1338 0.07592,-0.011 0.09144,0.096 0.01553,0.1074 l 0,0 c -0.03773,0.058 -0.06796,0.1216 -0.113188,0.1739 -0.337498,0.3905 -1.063252,0.4908 -1.533938,0.6055 -1.211043,0.2177 -2.436617,0.327 -3.663724,0.4096 -1.234057,0.074 -2.471272,0.1133 -3.706997,0.052 -0.609065,-0.033 -1.230269,-0.049 -1.821513,-0.2129 -0.659326,-0.066 -0.565487,-0.9988 0.09384,-0.9324 z"
       inkscape:connector-curvature="0" />
    <path
       style="fill:#2a3da0;fill-opacity:1"
       id="path3706"
       d="m 48.011641,1031.13 c 0.01744,0.462 -0.03298,0.9215 -0.09142,1.3788 -0.121994,0.7997 -0.325333,1.583 -0.536107,2.3628 -0.273067,1.0069 -0.55839,2.0103 -0.85577,3.0102 -0.345099,1.1633 -0.762543,2.3024 -1.224877,3.4237 -0.577658,1.3759 -1.287564,2.6894 -2.028462,3.9828 -0.717151,1.222 -1.492006,2.415 -2.378171,3.5224 -0.170048,0.2125 -0.349033,0.4177 -0.52355,0.6265 -0.728118,0.7319 -0.330055,0.4147 -1.190876,0.9558 -0.132873,0.1583 -0.356755,-0.03 -0.223882,-0.1879 l 0,0 c 0.362042,-0.9161 0.143037,-0.4724 0.660615,-1.3292 0.90504,-1.3747 1.825966,-2.74 2.662903,-4.1579 0.720075,-1.2506 1.402784,-2.5234 1.966352,-3.8536 0.45795,-1.0802 0.890652,-2.1718 1.217492,-3.3001 0.298531,-0.9938 0.583942,-1.9915 0.880119,-2.986 0.222607,-0.7542 0.450504,-1.5067 0.667917,-2.2624 0.127701,-0.419 0.255843,-0.8379 0.384077,-1.2568 0.05017,-0.4339 0.66381,-0.363 0.61364,0.071 z"
       inkscape:connector-curvature="0" />
    <path
       style="fill:#2a3da0;fill-opacity:1"
       id="path3708"
       d="m 27.509579,1049.5336 c 0.329052,0.1281 0.667062,0.2302 1.002519,0.3396 0.594154,0.1832 1.194537,0.3437 1.798681,0.4902 0.958078,0.2311 1.941357,0.3089 2.92164,0.3758 1.262137,0.079 2.527206,0.052 3.790192,0.103 0.776328,0.072 0.394178,0.017 1.146724,0.1628 0.363301,-0.028 0.402455,0.4861 0.03915,0.5138 l 0,0 c -0.742833,0.2599 -0.360903,0.1537 -1.1466,0.3155 -0.209252,0.025 -0.417835,0.056 -0.627757,0.074 -1.091057,0.093 -2.189598,0.036 -3.281151,-0.01 -1.050805,-0.072 -2.102415,-0.182 -3.121523,-0.4615 -0.630454,-0.1747 -1.254488,-0.373 -1.86031,-0.6213 -0.382343,-0.1513 -0.766158,-0.3147 -1.100658,-0.5577 -0.511942,-0.3104 -0.07285,-1.0344 0.439089,-0.724 z"
       inkscape:connector-curvature="0" />
    <path
       style="fill:#2a3da0;fill-opacity:1"
       id="path3738"
       d="m 37.961665,1033.6103 c 0.111509,-0.065 0.210504,-0.2158 0.325389,-0.2675 0.03551,-0.016 0.07432,-0.023 0.111474,-0.035 0.178769,0.027 0.251781,0.082 0.304694,0.2523 0.01368,0.044 0.01647,0.09 0.03147,0.1332 0.0026,0 0.0037,0.01 0.0077,0.01 0.009,-5e-4 -0.01252,-0.043 -0.0095,-0.048 0.01333,-0.024 0.0525,-0.018 0.0795,-0.023 0.277944,-0.071 0.54111,-0.1887 0.808937,-0.2898 0.100559,-0.021 0.252065,-0.1006 0.357239,-0.056 0.217395,0.092 0.259426,0.2228 0.242544,0.4332 -0.0029,0.021 -0.0081,0.041 -0.0087,0.062 -1.55e-4,0.01 0.0076,-0.01 0.0072,-0.014 -0.01285,-0.1848 -0.0035,0 -0.04969,-0.1426 -0.0097,-0.031 0.06396,-0.013 0.09638,-0.013 0.385968,-0.02 0.768583,-0.084 1.150278,-0.1423 0.250995,-0.04 0.503375,-0.073 0.752877,-0.1224 0.01781,-0 0.03543,-0.01 0.05342,-0.01 0.08222,-0 0.162281,0 0.235913,0.051 0.06349,0.042 0.163723,0.2098 0.127792,0.136 -0.0036,-0.01 -0.01282,-0.014 -0.01087,-0.022 0.0016,-0.01 0.03775,0 0.07346,0.01 0.03179,0.01 0.06364,0.01 0.0956,0.014 0.118309,0.014 0.145101,0.014 0.26828,0.023 0.271135,0.017 0.542732,0.016 0.814197,0.012 0.23788,-0.014 0.474987,-2e-4 0.711808,0.022 0.145067,0.019 0.296949,0.016 0.430851,0.085 0.05044,0.026 0.09325,0.065 0.139881,0.097 0.275265,0.011 0.259047,0.4007 -0.01622,0.3892 l 0,0 c -0.05605,0.028 -0.108655,0.064 -0.168143,0.084 -0.150251,0.05 -0.30725,0.016 -0.459015,0 -0.208836,-0.027 -0.417822,-0.062 -0.629235,-0.05 -0.289726,0.01 -0.579716,0.01 -0.869094,-0.011 -0.297982,-0.023 -0.62063,-0.033 -0.851241,-0.2479 -0.02146,-0.028 -0.04395,-0.056 -0.06439,-0.085 -0.0048,-0.01 -0.01758,-0.027 -0.01104,-0.022 0.136826,0.1063 0.05069,0.092 0.217584,0.1208 0.0094,0 0.0354,0 0.02844,-0 -0.0077,-0.01 -0.02108,6e-4 -0.03161,9e-4 -0.25232,0.024 -0.501756,0.07 -0.752545,0.105 -0.420543,0.062 -0.841824,0.1357 -1.267649,0.1462 -0.0597,-0 -0.120312,-0 -0.179096,-0.014 -0.279195,-0.054 -0.454007,-0.2435 -0.399088,-0.5342 0.02838,-0.045 -0.01822,0.022 0.0531,0.085 0.09333,0.082 0.135796,0.1123 0.227474,0.074 0.03951,-0.016 -0.307626,0.07 -0.121809,0.04 -0.307645,0.1233 -0.614093,0.2587 -0.939454,0.328 -0.05499,0 -0.109804,0.015 -0.16496,0.014 -0.23238,-0.01 -0.419522,-0.1366 -0.489263,-0.3587 -0.01014,-0.044 -0.02042,-0.078 -0.02282,-0.1224 -2.43e-4,-0 -9.39e-4,-0.016 0.0029,-0.013 0.0091,0.01 0.01066,0.019 0.01831,0.026 0.09197,0.09 0.06065,0.062 0.199376,0.083 0.09081,-0.056 0.04035,-0.053 -0.0074,-0.029 -0.07285,0.037 -0.129444,0.099 -0.197756,0.1428 -0.21421,0.1793 -0.467762,-0.1236 -0.253552,-0.3029 z"
       inkscape:connector-curvature="0" />
    <path
       style="fill:#2a3da0;fill-opacity:1"
       id="path3740"
       d="m 37.043002,1035.5707 c 0.238166,-0.088 0.485807,-0.1307 0.738766,-0.1183 0.261011,0.059 0.374311,0.2088 0.417824,0.4617 -0.04556,-0.1215 -0.01653,-0.086 -0.126187,-0.1802 -0.01011,-0.01 -0.03539,-0.01 -0.03389,-0.021 0.0014,-0.013 0.02481,-0.01 0.03729,-0.01 0.179743,-0.039 -0.02227,0.01 0.195914,-0.044 0.203474,-0.057 0.409521,-0.1025 0.61693,-0.1425 0.129215,-0.027 0.261779,-0.021 0.392937,-0.024 0.238355,-0.01 0.475889,-0.023 0.713932,-0 0.1376,0.017 0.281735,0.022 0.408042,0.087 0.04951,0.026 0.09232,0.062 0.138479,0.094 0.170671,-6e-4 0.171476,0.2408 8.05e-4,0.2413 l 0,0 c -0.04564,0.032 -0.08796,0.068 -0.13691,0.094 -0.123152,0.065 -0.264289,0.073 -0.398887,0.094 -0.235432,0.029 -0.472638,0.028 -0.709061,0.045 -0.09426,0 -0.188981,-0 -0.282806,0.01 -0.199432,0.041 -0.394683,0.1015 -0.592821,0.1483 -0.259745,0.06 -0.558595,0.1421 -0.770927,-0.082 -0.0395,-0.042 -0.05374,-0.1015 -0.08061,-0.1523 -0.04057,-0.1743 0.02412,0.06 0.109108,-0.01 -0.09987,-0.076 -0.393201,0.013 -0.521316,0.01 -0.352933,0.082 -0.469543,-0.4167 -0.11661,-0.4992 z"
       inkscape:connector-curvature="0" />
    <path
       style="fill:#2a3da0;fill-opacity:1"
       id="path3742"
       d="m 36.462103,1038.5326 c 0.282587,0.035 0.567793,-0 0.849292,-0.03 0.175438,-0.012 0.445054,-0.065 0.596672,0.059 0.03584,0.03 0.05739,0.073 0.08608,0.1094 0.04248,0.088 0.02525,0.163 0.01957,0.2525 -1.2e-4,0 0.0036,-0 0.0034,-0 -0.0028,-0.022 -0.0038,-0.044 -0.01235,-0.064 -0.0083,-0.02 -0.02462,-0.035 -0.03693,-0.052 -0.0027,-0 -0.0127,-0.011 -0.0081,-0.014 0.01004,-0.01 0.02358,-0 0.03535,-0 0.0216,-0 0.04323,-0 0.06479,-0.01 0.09332,-0.01 0.184959,-0.027 0.277077,-0.045 0.149757,-0.032 0.297913,-0.069 0.449469,-0.092 0.06853,-0.032 0.162048,0.04 0.220107,-0 0.08377,-0.015 0.171027,-0.01 0.255973,-0.01 0.05628,0 0.113264,0.01 0.166244,0.029 0.0262,0.01 0.0326,0.027 0.05713,0.035 0.08978,0.01 0.179875,-0.01 0.269257,-0.017 0.07777,-0.019 0.152343,-0.023 0.232011,-0.018 0.14422,-0.01 0.279157,0.036 0.411128,0.089 0.206415,0.094 0.354616,0.2706 0.55085,0.381 0.226003,0.095 0.474085,0.085 0.713985,0.075 0.268398,-0.014 0.536122,-0.037 0.80468,-0.018 0.181725,0.032 0.434696,0.04 0.553321,0.2083 0.03217,0.046 0.0478,0.1012 0.0717,0.1518 0.07602,0.017 0.0514,0.1249 -0.02462,0.1075 l 0,0 c -0.04269,0.035 -0.07973,0.079 -0.128067,0.1061 -0.15947,0.09 -0.348975,0.01 -0.514587,-0.01 -0.249724,-0.021 -0.49928,0.014 -0.749196,0.018 -0.346964,0 -0.699586,-0.01 -1.010172,-0.1807 -0.167414,-0.1092 -0.311022,-0.2443 -0.469315,-0.3651 -0.09316,-0.044 -0.190512,-0.053 -0.291849,-0.066 -0.01265,-0 -0.04407,5e-4 -0.03743,-0.011 0.0022,-0 0.0084,-0 0.01097,-0.01 0.01467,-0.02 -0.07681,-0.01 -0.06962,-0.01 -0.133003,0.019 -0.268104,0.037 -0.402417,0.021 -0.05314,-0.01 -0.104005,-0.01 -0.143156,-0.012 -0.110973,0 -0.224878,0.01 -0.332346,-0.024 -0.04347,-0.018 -0.09646,-0.04 -0.09364,-0.044 0.005,-0.01 0.03242,-0 0.02481,-0.01 -0.0047,-0 -0.01049,-5e-4 -0.01573,-7e-4 -0.144573,0.018 -0.28718,0.053 -0.430801,0.077 -0.216655,0.041 -0.444007,0.096 -0.656985,0.013 -0.105371,-0.092 -0.115902,-0.073 -0.149761,-0.2092 -0.0063,-0.025 -0.003,-0.073 5.27e-4,-0.1036 4.08e-4,-0 -10e-4,-0.013 0.0019,-0.011 0.0081,0.01 0.01169,0.016 0.01754,0.024 0.02162,0.015 0.06657,0.051 0.07435,0.026 0.0096,-0.031 -0.347675,0.015 -0.354291,0.015 -0.328397,0.028 -0.664283,0.071 -0.99088,0.01 -0.267492,-0.074 -0.163468,-0.4519 0.104024,-0.3783 z"
       inkscape:connector-curvature="0" />
    <path
       style="fill:#2a3da0;fill-opacity:1"
       id="path3746"
       d="m 34.914279,1040.3089 c 0.3063,-0.1199 0.631855,-0.1803 0.958579,-0.2067 0.324598,0 0.591828,0.1092 0.620259,0.4746 0.0033,0.043 -0.0063,0.086 -0.0095,0.1292 -0.0069,0.031 -0.01383,0.062 -0.02074,0.093 -0.006,0.021 -0.01288,0.042 -0.01792,0.064 -8.76e-4,0 0.0056,-0.01 0.0054,-0.01 -0.0023,-0.039 0.0019,-0.08 -0.013,-0.116 -0.0298,-0.072 -0.06019,-0.091 -0.108705,-0.1288 0.202404,-0.015 0.4033,-0.044 0.605702,-0.059 0.14496,-0 0.306601,-0.025 0.440793,0.045 0.02867,0.015 0.05318,0.037 0.07977,0.056 0.03962,0.056 0.08972,0.09 0.02848,0.036 -0.02853,-0.025 -0.06085,-0.034 -0.0066,-0.022 0.152389,0.036 0.299867,0.084 0.440031,0.1536 0.126157,0.064 0.230531,0.1574 0.329606,0.2563 -0.04079,-0.02 -0.06374,-0.016 -0.0022,-0.027 0.02929,-0.01 0.05852,-0.011 0.08733,-0.019 0.03947,-0.01 0.07825,-0.023 0.117369,-0.035 0.242696,-0.09 0.480545,-0.1885 0.738498,-0.2213 0.133826,9e-4 0.238696,0.048 0.309508,0.165 0.03151,0.052 0.04499,0.1609 0.04624,0.1056 -0.01821,0 -0.01111,-0.027 -0.0021,-0.027 0.04091,4e-4 0.08091,0.012 0.121577,0.017 0.03532,0 0.21878,0.019 0.243667,0.022 0.297076,0.022 0.591764,0.065 0.884333,0.1203 0.149728,0.029 0.296412,0.071 0.444052,0.1092 0.158065,0.052 0.340881,0.056 0.485216,0.147 0.05401,0.034 0.09677,0.083 0.145161,0.1245 0.132077,0.015 0.110474,0.2021 -0.0216,0.1868 l 0,0 c -0.06017,0.029 -0.116182,0.069 -0.180515,0.087 -0.195522,0.054 -0.409113,-0.016 -0.594933,-0.071 -0.119568,-0.052 -0.227961,-0.1245 -0.361474,-0.1384 -0.278149,-0.053 -0.558577,-0.092 -0.840475,-0.1188 -0.190626,-0.018 -0.433538,-0.01 -0.599453,-0.121 -0.03288,-0.022 -0.05843,-0.054 -0.08764,-0.08 -0.0167,-0.028 -0.03516,-0.056 -0.0501,-0.085 -0.05523,-0.1088 0.03628,0.023 0.07973,-0.038 -0.07122,-0.013 -0.149958,0.029 -0.214928,0.053 -0.133644,0.049 -0.266372,0.1004 -0.395871,0.1594 -0.232868,0.1046 -0.44484,0.2202 -0.686314,0.063 -0.06587,-0.055 -0.131357,-0.1027 -0.215831,-0.1264 -0.11904,-0.042 -0.238024,-0.084 -0.36209,-0.1095 -0.07377,-0.021 -0.141438,-0.04 -0.204751,-0.086 -0.0215,-0.016 -0.03996,-0.035 -0.059,-0.054 -0.0071,-0.01 -0.02722,-0.028 -0.01915,-0.023 0.0126,0.01 0.022,0.022 0.033,0.032 0.0153,0.01 0.02961,0.02 0.04591,0.027 0.01076,0 0.02268,0.01 0.0343,0.01 0.0027,3e-4 0.01035,-0 0.0077,-0 -0.05586,-0.013 -0.117525,0.018 -0.172197,0.017 -0.257997,0.038 -0.519432,0.082 -0.780804,0.067 -0.05493,-0.016 -0.116144,-0.018 -0.164788,-0.048 -0.212342,-0.1317 -0.232472,-0.3082 -0.176399,-0.523 0.0027,-0 0.0047,-0.012 0.008,-0.01 0.01919,0.015 0.08243,0.1198 0.121139,0.073 0.02229,-0.027 -0.156806,-0.069 -0.09784,-0.036 -0.288423,0.012 -0.570071,0.08 -0.853333,0.1315 -0.33913,0.1 -0.480161,-0.3798 -0.141031,-0.4796 z"
       inkscape:connector-curvature="0" />
    <path
       style="fill:#2a3da0;fill-opacity:1"
       id="path3748"
       d="m 34.625343,1042.1099 c 0.122228,-0.079 0.336171,-0.2323 0.490958,-0.1869 0.06624,0.019 0.121637,0.065 0.182455,0.098 0.09222,0.1704 0.08513,0.1112 0.09928,0.2661 0.0018,0.02 0.0033,0.079 0.0072,0.059 0.0025,-0.012 -5.4e-4,-0.025 0.0014,-0.038 0.162245,0.048 0.331531,0.059 0.499549,0.069 0.203527,0.012 0.407421,0.011 0.611154,0.016 0.116494,0.012 0.233733,0.02 0.349462,0.039 0.142722,0.035 0.06952,0.01 0.214401,0.1 0.202233,-0.035 0.251321,0.2513 0.04909,0.286 l 0,0 c -0.152505,0.1479 -0.06772,0.098 -0.246872,0.1618 -0.13541,0.021 -0.266255,0.023 -0.398684,-0.017 -0.205128,-0.021 -0.413133,-5e-4 -0.618567,-0.021 -0.294539,-0.023 -0.601763,-0.044 -0.845446,-0.23 -0.09872,-0.1095 -0.191,-0.2257 -0.18077,-0.3846 2.66e-4,-0 0.0042,0.01 0.0063,0.011 0.02115,0.027 0.0423,0.055 0.06345,0.082 0.03757,0.014 0.133396,0.081 0.189038,0.036 0.0068,-0.01 -0.01602,-0.01 -0.02476,-0.01 -0.07937,0.01 -0.148629,0.066 -0.228358,0.076 -0.292207,0.1557 -0.512445,-0.2575 -0.220238,-0.4133 z"
       inkscape:connector-curvature="0" />
    <path
       style="fill:#2a3da0;fill-opacity:1"
       id="path3750"
       d="m 31.901753,1046.3131 c 0.244665,-0.055 0.47743,-0.1493 0.722447,-0.2049 0.35363,-0.064 0.509339,0.04 0.613904,0.3766 0.03704,0.1037 0.0068,0.022 0.02698,0.016 0.02539,-0.01 0.05268,0 0.07901,6e-4 0.183237,-0 0.365206,-0.029 0.54734,-0.047 0.137961,-0.013 0.287331,-0.013 0.397815,0.086 0.02813,0.025 0.04587,0.06 0.06881,0.09 -0.06274,-0.1745 0.05392,0.1202 0.03109,0.096 -0.09666,-0.1041 0.0211,-0.052 -0.146304,-0.1416 -0.04661,-0.025 -0.08007,6e-4 -0.04715,-0.021 0.165848,-0.075 0.324648,-0.1637 0.490884,-0.2379 0.196183,-0.082 0.367493,-0.1243 0.532129,0.056 0.02411,0.026 0.03564,0.062 0.05345,0.093 0.06133,0.086 -7.75e-4,0.04 9.77e-4,0.028 5.85e-4,-0 0.0079,-0 0.01186,-0 0.01595,0 0.0316,0.01 0.04739,0.01 0.02468,0 0.04936,0 0.07404,0.01 0.183797,0.01 0.367624,-5e-4 0.551497,0 0.0293,0 0.05898,0.01 0.08789,0.012 0.0616,0.013 0.07388,0.026 0.130515,0.044 0.06758,0.021 0.139283,0.028 0.20909,0.038 0.203078,0.017 0.405622,0.041 0.608645,0.058 0.225767,-0 0.452322,-0.022 0.678338,-0.034 0.219649,0.01 0.114872,-0.017 0.314275,0.077 0.270351,-0 0.27687,0.3777 0.0065,0.3823 l 0,0 c -0.183285,0.1015 -0.08423,0.069 -0.298217,0.095 -0.247862,0.01 -0.495586,0.02 -0.740883,-0.023 -0.213996,-0.016 -0.429256,-0.016 -0.642381,-0.043 -0.132566,-0.02 -0.304002,-0.034 -0.411469,-0.1223 -0.06162,-0.024 -0.121297,-0.013 -0.18676,-0.01 -0.117596,0 -0.235412,0.01 -0.353029,0 -0.234232,-0.023 -0.442377,-0.072 -0.56284,-0.2972 0.02958,0.029 0.04485,0.047 0.09479,0.061 0.02434,0.01 0.05094,0 0.07614,0 0.0068,-8e-4 0.02222,-0.011 0.01572,-0.013 -0.01773,-0.01 -0.09653,0.031 -0.09717,0.031 -0.182993,0.081 -0.353212,0.1872 -0.5389,0.2621 -0.155444,0.044 -0.264046,0.053 -0.399139,-0.061 -0.03107,-0.026 -0.04698,-0.066 -0.07012,-0.1 -0.0033,-0 -0.01124,-0.02 -0.0091,-0.015 0.0046,0.011 0.01098,0.022 0.01647,0.033 0.01581,0.017 0.02858,0.038 0.04741,0.052 0.06544,0.048 0.178993,0.032 0.07779,0.046 -0.02042,0 -0.04094,0.01 -0.06141,0.01 -0.214224,0.024 -0.428208,0.058 -0.644227,0.058 -0.303369,-0.026 -0.492136,-0.1047 -0.604189,-0.4065 -0.02686,-0.084 -0.01887,-0.042 0.03512,-0.029 0.05375,0.013 0.109095,-0.029 0.0068,-0.02 -0.268856,0.069 -0.536078,0.1493 -0.813011,0.1802 -0.333685,0.02 -0.362616,-0.4515 -0.02893,-0.4719 z"
       inkscape:connector-curvature="0" />
    <path
       style="fill:#2a3da0;fill-opacity:1"
       id="path3758"
       d="m 6.811743,24.788547 c -0.1447488,0.370662 -0.3106909,0.73275 -0.4749485,1.095161 -0.3236063,0.693977 -0.6542483,1.384329 -0.9726621,2.080817 -0.3600522,0.789192 -0.6512266,1.605597 -0.8787913,2.442043 -0.077159,0.367432 -0.2705539,1.075092 -0.063732,1.428305 0.020375,0.0348 0.05588,0.05815 0.08382,0.08723 0.5453535,0.243018 1.1820594,0.120955 1.7511465,0.04752 0.9455075,-0.152164 1.8581609,-0.457869 2.7361168,-0.835311 0.2016565,-0.08669 0.3997542,-0.181443 0.5996313,-0.272164 1.2120487,-0.572337 2.3811477,-1.229501 3.5922517,-1.803426 0.351694,-0.144919 0.518807,-0.226384 0.87477,-0.328637 0.112276,-0.03225 0.227574,-0.05286 0.341361,-0.0793 0.22074,-0.139293 0.417729,0.172881 0.196989,0.312173 l 0,0 c -0.07817,0.0947 -0.149015,0.195942 -0.2345,0.284088 -0.258678,0.266731 -0.440113,0.378008 -0.74506,0.601474 -0.166505,0.104575 -0.330684,0.212949 -0.499516,0.313724 -1.004952,0.599848 -2.057964,1.119226 -3.110726,1.628108 -0.4769621,0.210771 -0.7747049,0.351268 -1.2619319,0.531817 -0.7664609,0.284025 -1.56051,0.492504 -2.3679784,0.61922 C 5.6416531,33.03073 4.6877431,33.160468 4.0255923,32.729132 3.9102611,32.654003 3.8188536,32.547358 3.7154843,32.456472 3.6481395,32.344691 3.5657411,32.240695 3.51345,32.121129 c -0.2727902,-0.623744 -0.087704,-1.341006 0.054245,-1.968767 0.2487953,-0.883629 0.5656848,-1.746063 0.95585,-2.577691 0.3331305,-0.708484 0.6927215,-1.406526 1.107569,-2.07107 0.2194471,-0.348779 0.4372487,-0.701892 0.7081844,-1.013788 0.2112369,-0.334069 0.6836814,-0.03533 0.4724445,0.298734 z"
       inkscape:connector-curvature="0"
       transform="translate(0,1002.3622)" />
    <path
       style="fill:#2a3da0;fill-opacity:1"
       id="path3764"
       d="m 12.490311,26.34016 c 0.498292,-0.223169 1.025339,-0.381767 1.541456,-0.559612 0.75687,-0.263709 1.517573,-0.516206 2.272966,-0.784149 0.217494,-0.06415 0.723184,-0.341951 0.944403,-0.267118 0.203138,0.06872 0.371894,0.213644 0.557841,0.320467 0.05494,0.137363 0.127331,0.268977 0.164834,0.412089 0.03523,0.13445 0.01519,0.439714 0.0021,0.575241 -0.0376,0.390617 -0.119046,0.775439 -0.195516,1.159651 -0.259242,1.144919 -0.56221,2.279408 -0.861994,3.414218 -0.252709,0.960559 -0.513332,1.918997 -0.786,2.874083 -0.102851,0.209711 -0.266324,0.547507 -0.543847,0.57875 -0.133277,0.015 -0.266972,-0.02603 -0.400458,-0.03904 -0.0078,0.02036 -0.03657,0.0094 -0.0288,-0.01099 l 0,0 c -0.115203,-0.06091 -0.243107,-0.10227 -0.345608,-0.182742 -0.228226,-0.179179 -0.181834,-0.518222 -0.16218,-0.762277 0.262747,-0.949436 0.528834,-1.897964 0.776707,-2.85145 0.293268,-1.110114 0.58969,-2.219891 0.84427,-3.339665 0.07459,-0.330923 0.147299,-0.661264 0.209233,-0.994788 0.0098,-0.05292 0.01339,-0.107317 0.02888,-0.158861 0.0031,-0.01024 0.01837,-0.02862 0.02493,-0.02018 0.05322,0.06846 0.08874,0.148988 0.133106,0.223482 0.566656,0.26947 0.306742,0.261665 0.689656,0.199013 0.01394,-0.0023 -0.02799,0.0045 -0.04148,0.0087 -0.04316,0.01343 -0.0855,0.02936 -0.128219,0.04414 -0.225528,0.07804 -0.157649,0.05456 -0.411054,0.145012 -0.768156,0.272367 -1.540145,0.534373 -2.32001,0.771441 -0.35072,0.105488 -0.429356,0.131353 -0.773217,0.22657 -0.255962,0.07088 -0.515923,0.146028 -0.780691,0.17711 -0.04615,0.0054 -0.0928,0.0049 -0.139206,0.0074 -0.824813,0.192442 -1.096966,-0.97402 -0.272153,-1.166462 z"
       inkscape:connector-curvature="0"
       transform="translate(0,1002.3622)" />
    <path
       style="fill:#2a3da0;fill-opacity:1"
       id="path3766"
       d="m 32.301169,20.678633 c 0.303908,-0.501838 0.733555,-0.914328 1.148394,-1.323493 0.698314,-0.674282 1.421009,-1.325521 2.187853,-1.921584 0.179464,-0.139496 0.364165,-0.27212 0.546248,-0.408181 0.739073,-0.516742 1.517145,-0.990784 2.365519,-1.306643 0.520888,-0.193932 0.699428,-0.219932 1.235515,-0.34871 0.78331,-0.149889 1.587961,-0.200711 2.375444,-0.04712 0.502613,0.09803 0.586889,0.157331 1.05681,0.345846 0.155682,0.09153 0.319741,0.170102 0.467047,0.274577 0.446208,0.316468 0.806385,0.750012 1.01143,1.259655 0.185282,0.460522 0.17518,0.669094 0.23179,1.159933 0.0016,1.068718 -0.296431,2.104382 -0.704736,3.084071 -0.07217,0.173154 -0.154248,0.342006 -0.231372,0.513009 -0.201214,0.389404 -0.419533,0.78304 -0.740709,1.089097 -0.07534,0.07179 -0.151393,0.149124 -0.246277,0.191859 -0.09545,0.04299 -0.205756,0.03871 -0.308634,0.05807 -0.03664,0.05367 -0.112546,0.0019 -0.0759,-0.05182 l 0,0 c -0.02185,-0.09933 -0.06507,-0.196297 -0.06554,-0.298005 -4.48e-4,-0.09729 0.03519,-0.191753 0.06286,-0.285026 0.114663,-0.386509 0.312076,-0.742946 0.473123,-1.110268 0.446792,-0.992203 0.845783,-2.024222 0.913182,-3.12188 -0.0076,-0.373289 0.01797,-0.493003 -0.09314,-0.845838 -0.169206,-0.537314 -0.53611,-0.875518 -1.016087,-1.142862 -0.380671,-0.166347 -0.436234,-0.212858 -0.851057,-0.301611 -0.683956,-0.146336 -1.390564,-0.111623 -2.074494,0.01161 -0.186638,0.04262 -0.374967,0.07841 -0.559914,0.12785 -1.002992,0.268144 -1.940732,0.729656 -2.781614,1.336488 -0.174445,0.130753 -0.351301,0.258352 -0.523336,0.392261 -0.748234,0.582412 -1.447668,1.225262 -2.139499,1.872566 -0.393637,0.37977 -0.784218,0.762317 -1.161001,1.158849 -0.256465,0.354897 -0.758365,-0.0078 -0.5019,-0.362696 z"
       inkscape:connector-curvature="0"
       transform="translate(0,1002.3622)" />
    <path
       style="fill:#2a3da0;fill-opacity:1"
       id="path3772"
       d="m 40.178843,20.264891 c 0.01891,0.05493 0.04097,0.108882 0.05673,0.164802 0.02925,0.10379 0.112158,0.48443 0.130235,0.565386 0.09403,0.421117 0.185071,0.842852 0.279093,1.263974 0.205823,0.874579 0.440554,1.743246 0.748874,2.587564 0.09993,0.25008 0.196902,0.502937 0.330394,0.737695 0.04163,0.0732 0.102848,0.1972 0.191201,0.229736 0.01241,-0.06088 -0.177728,-0.132953 -0.169368,-0.150249 0.01501,-0.03104 0.057,-0.03883 0.08624,-0.0571 0.06903,-0.04312 0.140353,-0.08257 0.208527,-0.127032 0.102207,-0.06666 0.201636,-0.137481 0.302454,-0.206222 0.955726,-0.693946 1.858563,-1.456962 2.753839,-2.22624 0.720415,-0.607304 1.381404,-1.279462 2.001425,-1.987805 0.232748,-0.257049 0.583642,-0.760025 0.974062,-0.772951 0.100456,-0.0033 0.199638,0.02355 0.299457,0.03533 0.06311,-0.112407 0.222072,-0.02316 0.158967,0.08925 l 0,0 c 0.05705,0.08796 0.133239,0.16614 0.17114,0.263892 0.153133,0.394952 -0.287162,0.991884 -0.498699,1.284822 -0.20406,0.267111 -0.298139,0.397624 -0.521152,0.657652 -0.486334,0.567052 -1.028305,1.083648 -1.578872,1.587302 -0.933637,0.820922 -1.890731,1.617547 -2.898418,2.346652 -0.359461,0.240336 -0.733219,0.521933 -1.164825,0.620833 -0.312406,0.07159 -0.551007,0.06355 -0.849346,-0.05858 -0.111371,-0.04559 -0.203278,-0.128864 -0.304918,-0.193295 -0.06917,-0.07067 -0.143947,-0.136257 -0.207498,-0.21202 -0.333502,-0.397587 -0.493013,-0.914759 -0.671451,-1.391207 -0.29078,-0.919585 -0.54686,-1.850751 -0.697269,-2.804997 -0.07162,-0.453463 -0.138898,-0.902944 -0.166464,-1.361627 -0.01031,-0.171494 -0.02231,-0.456176 -0.01026,-0.635992 0.0046,-0.06806 0.01899,-0.135092 0.02848,-0.202638 -0.03318,-0.719422 0.984232,-0.766352 1.017417,-0.04693 z"
       inkscape:connector-curvature="0"
       transform="translate(0,1002.3622)" />
  </g>
</svg>
