<svg xmlns="http://www.w3.org/2000/svg" viewBox="0 0 95.01 84.67"><defs><style>.cls-1{fill:#2a3da0;stroke:none;}</style></defs><title>Compression Icon</title><g id="Layer_2" data-name="Layer 2"><g id="Content"><g id="Compression_Icon" data-name="Compression Icon"><path id="path3106" class="cls-1" d="M32.9,68.84c.78,1.64.65,3.64.61,5.36,0,1.94-.15,3.88-.24,5.83,0,.84-.09,1.69-.1,2.53,0,.55.08,1.26-.4,1.72-.83.8-1.71.21-2.13-.51-.83-1.39-.59-3.23-.53-4.71.06-1.78.21-3.55.31-5.32.08-1.57-.25-3.63.52-5.11C31.34,67.86,32.93,67.87,32.9,68.84Z"/><path id="path3108" class="cls-1" d="M59.73,67.4a18.42,18.42,0,0,1,.57,5.12c.09,2,.13,4.07.28,6.1.08,1.23.7,3.36-.28,4.47-1.32,1.51-2.2-.17-2.56-1.26-1.11-3.48-.78-7.41-.67-11a9.09,9.09,0,0,1,.29-3.16C57.63,67.07,59.29,66,59.73,67.4Z"/><path class="cls-1" d="M33.45,16.81c-.57-.36-.07-2.46,0-3.42.1-1.53.12-3.06.24-4.59.11-1.3.63-4.77.7-6.07.16-2.89,2.91-1.94,2.73-.53C37,2.78,37,5.53,37,6.11c-.14,2.1-.21,4.2-.35,6.29-.09,1.22-.12,4.39-.76,4.62A2.45,2.45,0,0,1,33.45,16.81Z"/><path class="cls-1" d="M53.76,15.16A66.25,66.25,0,0,1,54.88,2.1c.23-1,.38-2.11,1.64-2.1,1.62,0,1.41.89,1.26,2.32-.36,3.3-1.22,8.25-1.13,11.59,0,.93.18,1.82-.89,2.14C55,16.27,53.8,16,53.76,15.16Z"/><path class="cls-1" d="M94.24,59.33c-1.53-.68-3.28-.39-4.24-.44-1.65-.09-28.66.47-35.4.91-13.51.88-52.14,4.81-52.34,4.88C.62,65.23-.13,72.74,0,73.49c.19,1,.58,1.15,1.26,1.08,3.43-.36,23.1-3.49,29.76-4.1s13.27-1.15,19.9-1.72,13.3-1,20-1.24c6.48-.26,12.95-.13,19.43-.25.5,0,2.06-.14,3-.22a1,1,0,0,0,.87-.85c.22-1.06.55-2.94.67-4C95.06,60.15,95.22,59.77,94.24,59.33ZM39.53,67.14c-5.86.55-24.19,2.88-27.48,3.54-3,.6-6,1-9,1.69a.57.57,0,0,1-.63-.66,16.51,16.51,0,0,1,.66-4.29c.08-.25.44-.66.68-.69,3.9-.51,30.28-2.91,36.06-3.38,12-1,36.44-2.21,52.47-1.72a.16.16,0,0,1,.13.21,10.31,10.31,0,0,0-.36,2.59.14.14,0,0,1-.12.15C89.3,64.69,45.18,66.62,39.53,67.14Z"/><path class="cls-1" d="M94.91,15.64c0-1.4-.4-1.46-1.87-1.47-2.61,0-14,.3-18.15.33q-11.69.08-23.37.53c-15.79.6-31.08,1.82-46.78,3.6-1,.11-3.31.1-4,.74s-.71,2.16-.76,3c-.13,2.4.43,4.16,2.81,4.52,2.14.32,4.73-.3,6.89-.49,3.2-.29,6.41-.58,9.61-.83C35.17,24.38,51,23.82,66.9,23.42c6.6-.17,16.87-.23,23.48-.33,2.05,0,3.09,0,3.52-1.93A54.62,54.62,0,0,0,94.91,15.64ZM2.23,24.06a23.8,23.8,0,0,0-.17-2.38.47.47,0,0,1,.48-.54c3.13.13,6.41-.53,9.5-.87,3.69-.4,7.39-.78,11.09-1.07Q34.58,18.31,46,17.76C61,17,84.56,16.1,91.83,16.23a.46.46,0,0,1,.43.56A31.63,31.63,0,0,0,91.74,20a.42.42,0,0,1-.41.39c-5.74-.16-61.51.87-88.6,4.17A.46.46,0,0,1,2.23,24.06Z"/><path class="cls-1" d="M15.27,29.74c.45.66.13,1.5,0,2.26a18.56,18.56,0,0,0-.23,2.33c0,.67.3,1.38-.49,2.15a3.2,3.2,0,0,1-1.83.58c-.89.11-1.09-.1-1.32-.29-.7-.58-.57-1.38-.51-2.1a12.09,12.09,0,0,1,.49-2.51A6.36,6.36,0,0,1,11.9,31a2.25,2.25,0,0,1,.82-1.08C13.52,29.4,15.34,29.33,15.27,29.74Z"/><path class="cls-1" d="M45.27,27.64c-3.18-1.46-12.21-.23-15.77,1.53-2.25,1.11-4.06,2.48-3.78,3.65.45,1.91,7.11,3.07,13.48,1.81C46.63,33.17,49.06,29.38,45.27,27.64ZM39.3,32c-3.63.72-8.79.75-9.75.15s.58-1.46,4.31-2.07a29.59,29.59,0,0,1,8.06-.37C44.26,30.15,42.85,31.3,39.3,32Z"/><path class="cls-1" d="M59.22,27.18c.37.47-.23,1.16-.58,1.71a24.66,24.66,0,0,0-1.29,2.24c-.26.55.13,1.27-1.09,1.89a6.22,6.22,0,0,1-3.18.37C52,33,52.72,32.13,53,31.58a11.3,11.3,0,0,1,1.3-2.15,9.4,9.4,0,0,1,1.66-1.71,2.43,2.43,0,0,1,1.53-.64C58.41,26.92,59.08,27,59.22,27.18Z"/><path class="cls-1" d="M79,26.37A36.42,36.42,0,0,0,68.65,28c-2.24.71-3.47,1.48-4,2.3-1.06,1.58,3.15,2.62,9.18,2.61C88.18,32.86,97,25.52,79,26.37Zm5.34,3.07A40.32,40.32,0,0,1,70.77,31c-6-.27.71-2.22,5.93-2.58C84,27.88,87.54,28.31,84.35,29.44Z"/><path class="cls-1" d="M7.66,39c-3.74.82-6.94,2-6.52,3.72s6.43,2.84,13,2C28.56,43,21.87,35.93,7.66,39Zm10.69,2.5c-1.06.71-6.75,1.75-11.94,1.34-3.84-.3-1.82-1.56,3.52-2.09C16.6,40.09,19.55,40.69,18.35,41.51Z"/><path class="cls-1" d="M46.09,37.78c-1.68-1-5.72-1.37-10.13-1A55.12,55.12,0,0,0,28.82,38,10.58,10.58,0,0,0,24,40.34c-1.24,1.48,1.81,2.57,6.49,2.91C41.22,44,50,40.22,46.09,37.78Zm-5.63,2.74A37.86,37.86,0,0,1,28.8,41c-2-.35-.75-1.15,2.09-1.66,1-.19,2.28-.38,2.73-.43,1.82-.17,4.11-.31,5.84-.29C44,38.71,43.24,39.87,40.46,40.52Z"/><path class="cls-1" d="M58.52,36c.38.43,0,1-.12,1.42a9.85,9.85,0,0,0-.4,2c0,.67.44,1.38-.31,2.07-.54.5-3.2.71-4.18.25-1.22-.57-.86-1.32-.81-2a4.78,4.78,0,0,1,.62-2.18,2.79,2.79,0,0,1,2-1.71C56.37,35.58,59,35.57,58.52,36Z"/><path id="path3336" class="cls-1" d="M78.39,34.39c-.38,1.13-1,2.27-1.43,3.41a11,11,0,0,1-.55,2.25c-.33.6-2.08.85-2.84.26-1.46-1.14-.29-2.69.41-4a4.85,4.85,0,0,1,1.09-1.72C75.48,34.28,78.5,33.89,78.39,34.39Z"/><path class="cls-1" d="M65.26,43.74A57.45,57.45,0,0,0,51,44c-5.85,1.06-7.54,4.53-2.78,5.35a52.8,52.8,0,0,0,13.33,0c4.78-.61,6.95-1.72,7.6-2.82S68.84,44.36,65.26,43.74Zm-3.37,3.44c-3.57.5-11,.68-12.28.27s.08-1.64,8.42-2a43.16,43.16,0,0,1,6,.06C66.11,45.82,65.42,46.69,61.89,47.18Z"/><path class="cls-1" d="M20.54,53.8a39.74,39.74,0,0,0-7.11-.1c-5.54.38-9.88,1.53-10.11,4.07-.15,1.71,3.61,2.76,9.69,2.74,5.81,0,11.09-.88,12.68-2.51S25.63,54.45,20.54,53.8Zm1.7,3c-.34.92-6.29,1.62-12,1.47-6-.15-2.85-1.83.87-2.23A55.06,55.06,0,0,1,19,55.68C21.61,55.84,22.4,56.37,22.24,56.8Z"/><path class="cls-1" d="M79,49.3c-6.31.23-10.12,1.08-11.78,2.25-1.23.86-1.87,1.89-1.41,2.72.92,1.71,7,2.44,13.11,1.81C92.81,54.65,93.47,48.77,79,49.3Zm-6.85,5c-5.49-.21-4.09-1.82,2-2.73,5.6-.84,13-.24,11.47,1C84.35,53.55,77.45,54.5,72.17,54.29Z"/><path class="cls-1" d="M37.22,52.52c1.48,1.09,1,2.39,1.38,3.57.16.43.83,1,0,1.47a4.68,4.68,0,0,1-2.73.33c-1.56-.3-1.68-1-1.87-1.48a3.58,3.58,0,0,1-.27-1.9,2.58,2.58,0,0,1,1-1.85c.18-.14.27-.26,1.1-.33S37.21,52.36,37.22,52.52Z"/><path class="cls-1" d="M58.08,51.7c.67.54.33,1.19.35,1.77a4.29,4.29,0,0,0,.45,1.88c.28.52,1.12,1.15.66,1.7a2.79,2.79,0,0,1-1.92.43A2.53,2.53,0,0,1,56,57a3,3,0,0,1-1.5-3.48c.09-.32.47-1.55.9-1.78S57.91,51.34,58.08,51.7Z"/><path class="cls-1" d="M14.84,46.15a7.82,7.82,0,0,1-.61,2.09,3.79,3.79,0,0,0,.15,2c.12.44.88,1-.23,1.62a3.48,3.48,0,0,1-2.84.23c-.82-.43-.68-1.15-.76-1.74a3.39,3.39,0,0,1,.39-2,3.62,3.62,0,0,1,1.45-2C13.08,46,15,45.72,14.84,46.15Z"/><path class="cls-1" d="M38.36,44.88c.5.37.3.84.24,1.25s-.24,1.11-.29,1.67a5.18,5.18,0,0,1-.16,1.56,1.37,1.37,0,0,1-1.23,1.14c-2.69.59-3.2-1.07-3.25-1.29a4.29,4.29,0,0,1,.86-3.28c.18-.28.18-.87,1.08-1.15S38.39,44.57,38.36,44.88Z"/><path class="cls-1" d="M80.65,42.25c0,.48-.47,1-.75,1.51a10.43,10.43,0,0,0-1,2.15,2.21,2.21,0,0,1-3,1.67c-1.24-.31-1-.94-.81-1.4a7.12,7.12,0,0,1,1-2.07,4.08,4.08,0,0,1,2.12-1.91C79,41.9,80.94,41.8,80.65,42.25Z"/></g></g></g></svg>
