<?xml version="1.0" encoding="UTF-8" standalone="no"?>
<!-- Created with Inkscape (http://www.inkscape.org/) -->

<svg
   xmlns:dc="http://purl.org/dc/elements/1.1/"
   xmlns:cc="http://creativecommons.org/ns#"
   xmlns:rdf="http://www.w3.org/1999/02/22-rdf-syntax-ns#"
   xmlns:svg="http://www.w3.org/2000/svg"
   xmlns="http://www.w3.org/2000/svg"
   xmlns:sodipodi="http://sodipodi.sourceforge.net/DTD/sodipodi-0.dtd"
   xmlns:inkscape="http://www.inkscape.org/namespaces/inkscape"
   width="50"
   height="50"
   id="svg3213"
   version="1.1"
   inkscape:version="0.48.4 r9939"
   sodipodi:docname="sys-encryption-logo.svg">
  <sodipodi:namedview
     id="base"
     pagecolor="#ffffff"
     bordercolor="#666666"
     borderopacity="1.0"
     inkscape:pageopacity="0.0"
     inkscape:pageshadow="2"
     inkscape:zoom="16.22"
     inkscape:cx="30.148097"
     inkscape:cy="26.396536"
     inkscape:document-units="px"
     inkscape:current-layer="layer1"
     showgrid="false"
     inkscape:window-width="1680"
     inkscape:window-height="998"
     inkscape:window-x="1672"
     inkscape:window-y="486"
     inkscape:window-maximized="1" />
  <metadata
     id="metadata3218">
    <rdf:RDF>
      <cc:Work
         rdf:about="">
        <dc:format>image/svg+xml</dc:format>
        <dc:type
           rdf:resource="http://purl.org/dc/dcmitype/StillImage" />
        <dc:title />
      </cc:Work>
    </rdf:RDF>
  </metadata>
  <g
     inkscape:label="Layer 1"
     inkscape:groupmode="layer"
     id="layer1"
     transform="translate(0,-1002.3622)">
    <path
       style="fill:#000000;fill-opacity:1"
       id="path3601"
       d="m 4.7891017,1016.2918 c 0.3576277,0.4817 0.5830615,1.0527 0.8186522,1.6005 0.5107403,1.2465 1.0487611,2.4808 1.6298629,3.6961 0.750625,1.5516 1.572826,3.0672 2.380839,4.5894 0.5220642,1.0352 1.1173622,2.0494 1.4805162,3.1564 0.04865,0.1483 0.08438,0.3005 0.126574,0.4508 0.0496,0.4727 0.05902,0.2516 -0.0057,0.6639 0.159993,0.3661 -0.357717,0.5924 -0.51771,0.2263 l 0,0 c -0.34565,-0.2386 -0.180087,-0.094 -0.484881,-0.4471 -0.07993,-0.1276 -0.163696,-0.2529 -0.2397852,-0.3829 -0.184745,-0.3155 -0.377047,-0.6942 -0.542544,-1.0169 -0.343083,-0.6689 -0.679629,-1.3412 -1.034129,-2.0041 -0.820931,-1.5465 -1.6566685,-3.0871 -2.3770677,-4.684 -0.5418846,-1.2545 -1.0489155,-2.5227 -1.512356,-3.8084 -0.2018718,-0.543 -0.424075,-1.0867 -0.552363,-1.6526 -0.2739412,-0.5869 0.5561504,-0.9743 0.8300916,-0.3874 z"
       inkscape:connector-curvature="0" />
    <path
       style="fill:#000000;fill-opacity:1"
       id="path3609"
       d="m 4.1460651,1016.0789 c 0.4284216,-0.3686 0.9236382,-0.6466 1.4115225,-0.9249 0.9816485,-0.5378 1.9600212,-1.0818 2.9380812,-1.6264 1.269963,-0.7148 2.5848922,-1.3403 3.9065542,-1.9496 0.946684,-0.4241 1.90139,-0.8293 2.854529,-1.2382 0.221296,-0.076 0.595003,-0.3034 0.836577,-0.2879 0.105542,0.01 0.20738,0.042 0.31107,0.063 0.07723,0.059 0.162079,0.1104 0.231706,0.179 0.04829,0.048 0.0813,0.1087 0.118361,0.1656 0.145252,0.2232 0.246742,0.4749 0.35101,0.7189 0.228406,0.5837 0.445006,1.1713 0.687805,1.7492 0.387952,0.9063 0.870647,1.7665 1.330464,2.6365 0.592538,1.1226 1.132498,2.2719 1.658437,3.4275 0.477848,1.0497 0.89971,2.1234 1.254136,3.2218 0.173379,0.6324 0.374294,1.2816 0.358715,1.9461 -0.0025,0.1068 -0.01767,0.2129 -0.02651,0.3194 -0.08417,0.5159 -0.351994,0.9462 -0.773892,1.2479 -0.07486,0.053 -0.156091,0.097 -0.234136,0.1459 -0.5276,0.2828 -1.107039,0.4449 -1.674977,0.6222 -0.867935,0.2565 -1.726309,0.5426 -2.570639,0.8698 -1.140148,0.4461 -2.182414,1.099 -3.196205,1.781 -0.524,0.3441 -1.015202,0.738 -1.540165,1.0806 -0.260099,0.1697 -0.621438,0.3883 -0.91793,0.4961 -0.145696,0.053 -0.300219,0.077 -0.450328,0.1152 -0.160853,0.1501 -0.370729,-0.08 -0.209876,-0.23 l 0,0 c 0.05448,-0.1524 0.09102,-0.3127 0.163432,-0.4572 0.0787,-0.1573 0.180069,-0.3027 0.286813,-0.4421 0.524557,-0.6841 1.251446,-1.1749 1.932571,-1.6817 0.49706,-0.3336 0.666315,-0.4569 1.179879,-0.7632 0.733403,-0.4372 1.50181,-0.8098 2.292712,-1.128 0.873272,-0.3289 1.758185,-0.6214 2.652882,-0.8851 0.468204,-0.1437 0.943301,-0.2793 1.384717,-0.4963 0.172879,-0.1 0.33383,-0.1961 0.381959,-0.4057 0.07698,-0.5872 -0.120682,-1.1696 -0.270376,-1.7294 -0.338757,-1.054 -0.747904,-2.0827 -1.188377,-3.0972 -0.496486,-1.1431 -1.027935,-2.2697 -1.598408,-3.3772 -0.456344,-0.9151 -0.922012,-1.8277 -1.297777,-2.7805 -0.218236,-0.579 -0.41008,-1.1678 -0.644246,-1.7406 -0.1248,-0.2987 -0.03616,-0.089 -0.153552,-0.362 -0.0308,-0.071 -0.07277,-0.1396 -0.09138,-0.2157 -0.0011,0 0.0093,0 0.01398,0 0.04531,0.025 0.09063,0.05 0.135945,0.076 0.07018,0.01 0.140057,0.019 0.210537,0.019 0.02295,0 0.04426,-0.025 0.06621,-0.019 0.0181,0.01 -0.0345,0.015 -0.05175,0.023 -0.171223,0.079 -0.345375,0.1494 -0.517013,0.227 -0.945217,0.4054 -1.895036,0.8002 -2.832127,1.2247 -1.302832,0.5904 -2.587447,1.2212 -3.8456772,1.9037 -0.985728,0.5215 -1.972625,1.041 -2.9537772,1.5713 -0.4691094,0.2558 -0.9344899,0.5189 -1.4102956,0.7618 -0.526642,0.3584 -1.0278408,-0.3948 -0.5011988,-0.7531 z"
       inkscape:connector-curvature="0" />
    <path
       style="fill:#000000;fill-opacity:1"
       id="path3619"
       d="m 13.922137,1011.3681 c -0.171466,-0.25 -0.327117,-0.5114 -0.489936,-0.7674 -0.272272,-0.4175 -0.522648,-0.8487 -0.782833,-1.2737 -0.314195,-0.5238 -0.655844,-1.03 -1.022792,-1.5181 -0.366764,-0.5004 -0.798446,-0.9457 -1.254377,-1.3643 -0.4191772,-0.3828 -0.8847342,-0.7064 -1.3730402,-0.9935 -0.310386,-0.1705 -0.635135,-0.3174 -0.976624,-0.4138 -0.204111,-0.058 -0.292904,-0.069 -0.501313,-0.1077 -0.534535,-0.082 -0.9910954,0.042 -1.4864763,0.2295 -0.5047788,0.2203 -0.9732822,0.5212 -1.3896602,0.8816 -0.088916,0.077 -0.1725943,0.1598 -0.2588915,0.2397 -0.4371149,0.4331 -0.7500314,0.9578 -0.9009212,1.5559 -0.035021,0.1388 -0.055999,0.2808 -0.083998,0.4211 -0.1140934,0.8331 0.010131,1.6692 0.2551712,2.4682 0.05317,0.1733 0.1170884,0.3432 0.1756326,0.5148 0.3081585,0.863 0.7958432,1.6403 1.2242394,2.4447 0.081685,0.1534 0.1587628,0.3092 0.2381442,0.4637 0.1313061,0.2888 0.296709,0.6039 0.3547376,0.9212 0.029361,0.1606 0.018382,0.326 0.027573,0.4889 0.08766,0.1425 -0.1137975,0.2665 -0.2014571,0.124 l 0,0 c -0.139705,-0.079 -0.289519,-0.1423 -0.4191151,-0.237 -0.2728409,-0.1993 -0.4723063,-0.4665 -0.6878656,-0.7207 -0.1073553,-0.1455 -0.2195494,-0.2875 -0.3220659,-0.4364 -0.5658941,-0.8221 -0.9974059,-1.7324 -1.3639871,-2.6577 -0.066995,-0.1978 -0.1411899,-0.3934 -0.2009853,-0.5935 -0.2931617,-0.9812 -0.4064405,-2.008 -0.2541776,-3.0244 0.1013801,-0.4723 0.1094393,-0.6087 0.2872958,-1.0547 0.2368877,-0.594 0.6042236,-1.1185 1.063001,-1.5616 0.1060422,-0.096 0.2091914,-0.1957 0.3181266,-0.2885 0.5147839,-0.439 1.0924306,-0.8037 1.7141579,-1.0707 0.1188982,-0.045 0.23605,-0.095 0.3566946,-0.1357 0.5743835,-0.1919 1.177939,-0.2562 1.777782,-0.163 0.109438,0.021 0.219651,0.038 0.328313,0.062 0.540998,0.1215 1.056525,0.3362 1.539889,0.6055 0.5630132,0.33 1.0979982,0.7049 1.5800192,1.1468 0.51185,0.4718 0.99404,0.9737 1.409218,1.5343 0.383052,0.5255 0.745598,1.0651 1.073562,1.627 0.254031,0.436 0.510188,0.8712 0.740406,1.3204 0.159997,0.3074 0.334992,0.6164 0.416694,0.9557 0.266985,0.6435 -0.643155,1.0211 -0.910141,0.3775 z"
       inkscape:connector-curvature="0" />
    <path
       style="fill:#000000;fill-opacity:1"
       id="path3621"
       d="m 6.5288505,1014.7985 c -0.2109378,-0.1947 -0.373324,-0.4367 -0.5534183,-0.6593 -0.3033157,-0.3589 -0.5905623,-0.7292 -0.8528265,-1.1191 -0.3027185,-0.4536 -0.5017819,-0.9605 -0.6653937,-1.4776 -0.1451732,-0.4819 -0.1961846,-0.983 -0.2331478,-1.4827 -0.043304,-0.5401 -0.023212,-1.0794 0.047191,-1.6158 0.070612,-0.4822 0.2244314,-0.9425 0.4423177,-1.3767 0.1960171,-0.3814 0.4785184,-0.6653 0.8215636,-0.9143 0.311062,-0.2113 0.6565714,-0.3584 1.0137452,-0.4707 0.3230466,-0.097 0.6567986,-0.1208 0.9918156,-0.1075 0.415021,0.03 0.800858,0.171 1.166564,0.3616 0.367959,0.1979 0.662292,0.4918 0.936063,0.8016 0.247726,0.3009 0.4799372,0.6142 0.7181832,0.9226 0.25552,0.3201 0.49993,0.648 0.739882,0.9798 0.250378,0.3428 0.474514,0.7031 0.682083,1.073 0.215782,0.3781 0.389593,0.7773 0.559656,1.1774 0.08694,0.2363 0.277911,0.6009 0.149172,0.8545 -0.03192,0.063 -0.08605,0.1118 -0.129071,0.1676 0.05459,0.4323 -0.556773,0.5095 -0.611366,0.077 l 0,0 c -0.05059,-0 -0.103309,0 -0.151758,-0.012 -0.201834,-0.063 -0.28979,-0.4501 -0.376017,-0.6118 -0.157263,-0.3703 -0.319565,-0.7384 -0.483953,-1.1055 -0.163895,-0.338 -0.334034,-0.6736 -0.544348,-0.9857 -0.2229662,-0.3294 -0.4643582,-0.6461 -0.6979042,-0.968 -0.21246,-0.293 -0.418708,-0.5911 -0.65004,-0.8697 -0.186704,-0.2138 -0.386413,-0.4182 -0.633151,-0.5633 -0.226659,-0.1206 -0.465349,-0.2157 -0.724228,-0.2353 -0.207438,-0.012 -0.415434,5e-4 -0.615248,0.062 -0.2458799,0.081 -0.4878438,0.1781 -0.7037726,0.3231 -0.1958317,0.1446 -0.3678709,0.3114 -0.4805187,0.531 -0.1618829,0.3269 -0.2782641,0.6723 -0.3325036,1.0343 -0.063147,0.4615 -0.076857,0.9257 -0.040422,1.3906 0.029825,0.4151 0.08446,0.8279 0.2043002,1.2279 0.129998,0.4173 0.2944617,0.8221 0.5331382,1.1906 0.243668,0.3698 0.5156107,0.7192 0.7870544,1.0689 0.1788395,0.2401 0.3737945,0.4798 0.4870005,0.7594 0.404305,0.5661 -0.396336,1.1379 -0.8006413,0.5717 z"
       inkscape:connector-curvature="0" />
    <path
       style="fill:#000000;fill-opacity:1"
       id="path3655"
       d="m 39.241161,36.842935 c 0.130105,-0.443112 0.430533,-0.721286 0.778578,-1.003065 0.488052,-0.339405 1.063939,-0.526247 1.653071,-0.589633 0.136396,-0.01467 0.273893,-0.01612 0.41084,-0.02418 0.718356,0.01013 1.438384,0.158912 2.073545,0.504922 0.123531,0.06729 0.238635,0.149023 0.357952,0.223535 0.46665,0.338652 0.816973,0.787505 0.996383,1.339082 0.125911,0.387103 0.110675,0.494729 0.144201,0.900459 -0.006,0.852 -0.279071,1.664282 -0.689016,2.404592 -0.08555,0.154493 -0.183304,0.301905 -0.274956,0.452857 -0.380057,0.579604 -0.858868,1.079351 -1.377652,1.535025 -0.119955,0.105362 -0.238655,0.212513 -0.364825,0.310347 -0.120633,0.09354 -0.249859,0.175441 -0.374789,0.263162 -0.481468,0.293598 -1.009763,0.502282 -1.575784,0.548617 -0.353962,0.02898 -0.468984,-8.13e-4 -0.820151,-0.03958 -0.711611,-0.140339 -1.410022,-0.419221 -1.962926,-0.90105 -0.118294,-0.103087 -0.220768,-0.22303 -0.331152,-0.334545 -0.09003,-0.131493 -0.194291,-0.254302 -0.270098,-0.394479 -0.282018,-0.521492 -0.416961,-1.278746 -0.05219,-1.800775 0.09028,-0.129201 0.229359,-0.21626 0.344038,-0.324389 0.0087,-0.02742 0.04747,-0.01511 0.03877,0.01231 l 0,0 c 0.04094,0.124214 0.0832,0.248001 0.122824,0.372642 0.03014,0.09482 0.141537,0.477525 0.181764,0.579279 0.10782,0.272731 0.271611,0.514854 0.457715,0.739729 0.07237,0.07284 0.140236,0.150466 0.217123,0.218529 0.394863,0.34955 0.887207,0.565218 1.398084,0.67856 0.08947,0.01312 0.178325,0.03142 0.268399,0.03935 0.484212,0.04262 0.940606,-0.103611 1.359176,-0.339605 0.238061,-0.145442 0.427127,-0.251545 0.647948,-0.426845 0.467345,-0.371006 0.860784,-0.830213 1.228655,-1.296354 0.08503,-0.121936 0.175383,-0.240325 0.255086,-0.365806 0.357661,-0.56309 0.589029,-1.196172 0.6119,-1.86636 -0.005,-0.107336 -0.0028,-0.215242 -0.01492,-0.322007 -0.05587,-0.492037 -0.282627,-0.8757 -0.671403,-1.177227 -0.08707,-0.0556 -0.170951,-0.116538 -0.261212,-0.166789 -0.49378,-0.274904 -1.054957,-0.39867 -1.616485,-0.410046 -0.106854,0.0037 -0.213974,0.0026 -0.320561,0.01098 -0.439071,0.03455 -0.869183,0.15289 -1.251271,0.373991 -0.237783,0.153162 -0.45605,0.330869 -0.634245,0.552477 -0.196359,0.482541 -0.878776,0.204847 -0.682417,-0.277694 z"
       inkscape:connector-curvature="0"
       transform="matrix(0.7802381,-1.0083243,1.1199608,1.0833326,-35.287328,1025.7691)" />
    <path
       style="fill:#000000;fill-opacity:1"
       id="path3087"
       d="m 37.763852,25.351362 c -0.467138,0.324788 -0.994299,0.555976 -1.507887,0.796685 -1.106011,0.509379 -2.216261,1.009268 -3.316662,1.530749 -1.507519,0.707005 -2.950752,1.53779 -4.377204,2.393779 -1.540442,0.951892 -3.061686,1.934298 -4.592857,2.900958 -1.45482,0.910893 -2.913043,1.81607 -4.385093,2.698892 -0.670116,0.396959 -1.349552,0.777675 -2.045803,1.12699 -0.369327,0.185295 -0.728577,0.370398 -1.125207,0.491499 -0.149079,0.04552 -0.304704,0.06588 -0.457055,0.09883 -0.126721,-0.003 -0.253442,-0.0059 -0.380163,-0.0089 -0.231081,0.109444 -0.385858,-0.217353 -0.154777,-0.326797 l 0,0 c 0.07032,-0.09629 0.140638,-0.192582 0.210957,-0.288873 0.110099,-0.103198 0.21344,-0.214116 0.330298,-0.309592 0.298948,-0.244247 0.666761,-0.466876 0.988291,-0.673864 0.64729,-0.4167 1.297202,-0.829191 1.953476,-1.231663 1.458417,-0.892574 2.923235,-1.774562 4.377898,-2.673223 1.545495,-0.961043 3.07718,-1.944467 4.636338,-2.883397 1.46755,-0.870234 2.964394,-1.690744 4.523966,-2.386228 1.115569,-0.506213 2.234047,-1.006035 3.366363,-1.473858 0.497341,-0.20547 0.995266,-0.411163 1.500533,-0.596301 0.575815,-0.321442 1.030404,0.492884 0.454588,0.814326 z"
       inkscape:connector-curvature="0"
       transform="translate(0,1002.3622)" />
    <path
       style="fill:#000000;fill-opacity:1"
       id="path3097"
       d="m 40.430774,23.422085 c 0.0934,0.353096 0.09,0.722512 0.137931,1.082861 0.0424,0.318796 0.0894,0.534193 0.151109,0.851462 0.133825,0.526827 0.292274,1.066878 0.640342,1.497409 0.165276,0.204433 0.231752,0.234023 0.434264,0.381313 0.147572,0.07539 0.322141,0.162848 0.488957,0.083 0.109872,-0.05259 0.159712,-0.201287 0.205802,-0.299457 0.02534,-0.08393 0.05825,-0.16593 0.07603,-0.251777 0.12664,-0.611458 0.03626,-1.273357 -0.118907,-1.870127 -0.04927,-0.18949 -0.116523,-0.373844 -0.174785,-0.560766 -0.2326,-0.564016 -0.534811,-1.301265 -1.129637,-1.5816 -0.06079,-0.02865 -0.126758,-0.04469 -0.190137,-0.06703 -0.09409,-0.02305 -0.188176,-0.04609 -0.282263,-0.06914 -0.283053,0.09748 -0.420908,-0.302819 -0.137855,-0.400297 l 0,0 c 0.138555,-0.103164 0.277111,-0.206328 0.415667,-0.309492 0.176469,-0.02371 0.351863,-0.08462 0.529408,-0.07114 0.831014,0.06307 1.358047,0.839693 1.683817,1.516298 0.09855,0.20469 0.173631,0.419875 0.260446,0.629812 0.06759,0.223352 0.145395,0.443866 0.202774,0.670058 0.206556,0.814266 0.322131,1.718126 0.08172,2.539865 -0.05071,0.173322 -0.137057,0.334161 -0.205585,0.501242 -0.260951,0.35284 -0.313507,0.513663 -0.719882,0.714009 -0.43633,0.215113 -0.93026,0.177527 -1.362992,-0.01823 -0.138397,-0.06261 -0.261086,-0.155333 -0.39163,-0.232999 -0.116477,-0.104838 -0.242879,-0.199603 -0.349433,-0.314514 -0.46236,-0.498622 -0.742208,-1.161796 -0.898263,-1.815616 -0.04081,-0.170974 -0.06359,-0.345754 -0.09539,-0.518631 -0.01781,-0.168805 -0.04314,-0.336985 -0.05342,-0.506415 -0.0096,-0.157513 -0.0083,-0.315583 -0.006,-0.47337 0.0056,-0.392895 0.03075,-0.798367 0.179494,-1.166473 0.04225,-0.444384 0.670708,-0.384627 0.628453,0.05976 z"
       inkscape:connector-curvature="0"
       transform="translate(0,1002.3622)" />
    <path
       style="fill:#000000;fill-opacity:1"
       id="path3111"
       d="m 16.609192,1040.3267 c 0.04197,0.05 0.0881,0.097 0.125907,0.1502 0.205797,0.2902 0.36028,0.6188 0.515427,0.9371 0.238726,0.4897 0.195217,0.4028 0.429396,0.912 0.37044,0.9024 0.817467,1.7709 1.199383,2.6678 0.121592,0.2611 0.1896,0.5379 0.252587,0.8169 0.02779,0.1231 0.06343,0.2406 0.07175,0.3666 -0.0033,0.101 -0.08126,0.084 -0.2524,0.1671 -7.81e-4,4e-4 -0.02414,-0.032 -0.02649,-0.035 -0.01402,-0.022 0.0029,-0.025 -0.02203,-0.029 -0.224967,-0.1 -0.105629,-0.3109 -0.0055,-0.45 0.27267,-0.3568 0.69862,-0.5731 1.090256,-0.7752 0.239552,-0.1141 0.485,-0.227 0.747768,-0.2767 0.169284,-0.032 0.349318,-0.032 0.521178,-0.04 0.02726,0.059 0.23161,-0.1684 0.157943,-0.1876 -0.01579,-0 -0.03232,0 -0.04848,0.01 -0.0018,0.1211 0.02908,0.2472 -0.0054,0.3634 -0.0098,0.033 -0.05818,-0.038 -0.08446,-0.061 -0.131241,-0.1126 -0.231679,-0.2557 -0.320602,-0.4017 -0.243333,-0.4273 -0.482506,-0.8567 -0.737227,-1.2774 -0.09938,-0.1586 -0.204633,-0.3136 -0.298606,-0.4755 -0.03962,-0.068 -0.07154,-0.1143 -0.08304,-0.1923 -0.0038,-0.025 8.77e-4,-0.052 0.0013,-0.077 0.0059,-0.246 -0.04258,0.1221 0.05498,-0.3956 -0.0051,-0 -0.0181,-0.01 -0.01534,-0.014 0.01532,-0.036 0.226466,-0.1928 0.246807,-0.211 0.350506,-0.3122 -0.06111,0.03 0.354883,-0.3077 0.504071,-0.3728 1.06268,-0.661 1.632457,-0.9183 0.183764,-0.094 0.373165,-0.175 0.568304,-0.2419 0.10462,-0.036 0.162758,-0.047 0.219331,-0.1422 0.02936,-0.079 -0.02279,0.01 -0.0019,-0.024 0.01233,-0.024 0.02492,-0.081 -0.01688,-0.055 -0.02436,0.04 0.07383,0.094 0.09623,0.1134 0.01951,0.017 0.03663,0.037 0.05495,0.056 0.240282,0.3719 0.400968,0.7923 0.57553,1.198 0.111469,0.2666 0.243661,0.5236 0.375942,0.7802 0.06331,0.1228 0.146422,0.2659 0.187911,0.4003 0.01769,0.057 0.02311,0.1177 0.03466,0.1765 -0.0029,0.056 -0.0058,0.1121 -0.0088,0.1682 0.0287,0.036 -0.0218,0.076 -0.0505,0.041 l 0,0 c -0.0574,-0.012 -0.1148,-0.024 -0.172199,-0.035 -0.05694,-0.033 -0.119003,-0.057 -0.17082,-0.098 -0.127556,-0.099 -0.229531,-0.242 -0.317,-0.3742 -0.172052,-0.26 -0.30559,-0.542 -0.434692,-0.825 -0.178186,-0.4323 -0.359749,-0.8882 -0.355119,-1.3631 0.03111,-0.1548 0.04792,-0.1824 0.169665,-0.2653 0.02088,-0.01 0.03119,-0 0.05132,-0.01 0.03092,-0.01 0.05239,-0.037 0.08678,-0.021 0.101993,0.053 0.08014,0.1711 0.0056,0.2412 -0.117306,0.084 -0.115711,0.1016 -0.20758,0.2147 -0.0923,0.1137 -0.158956,0.1771 -0.275282,0.2719 -0.06519,0.053 -0.134087,0.1017 -0.20113,0.1525 -0.488655,0.3683 -1.003282,0.6998 -1.524181,1.0206 -0.130257,0.077 -0.264671,0.146 -0.394638,0.2231 -0.134282,0.08 -0.248271,0.1972 -0.404293,0.2344 0.02051,-0.4546 -0.06122,-0.2664 0.14014,-0.2336 0.02695,0.01 0.05558,0.011 0.08083,0.024 0.203076,0.098 0.392415,0.4675 0.517924,0.6433 0.260947,0.4256 0.506608,0.8608 0.72759,1.3086 0.0077,0.015 0.149331,0.3103 0.128304,0.3284 -0.0056,0 -0.02246,-0.012 -0.02179,-0 0.01203,0.1325 0.03816,0.2634 0.05724,0.395 -0.018,0 -0.03561,0.012 -0.054,0.011 -0.01154,-3e-4 -0.05865,-0.028 -0.06612,-0.032 -0.07405,-0.036 -0.126112,-0.03 -0.201203,0.01 -0.128367,0.1104 -0.25394,0.2325 -0.391764,0.3308 -0.207431,0.148 -0.442936,0.2504 -0.669809,0.3632 -0.337715,0.169 -0.672839,0.3399 -0.975627,0.5677 -0.01791,0.017 -0.03795,0.055 -0.05905,0.043 -0.0072,-0 -0.0051,-0.016 -0.0098,-0.023 -0.03075,-0.044 -0.08089,-0.08 -0.131632,-0.098 -0.02317,0.01 0.06277,0.034 0.07031,0.05 0.0098,0.01 0.08374,0.087 0.0748,0.099 -0.212853,0.2796 -0.149222,0.2312 -0.297642,0.1385 -0.109783,-0.077 -0.194846,-0.172 -0.288242,-0.2687 -0.20529,-0.2126 -0.397518,-0.4336 -0.540653,-0.6951 -0.06732,-0.1179 -0.138526,-0.2336 -0.201952,-0.3537 -0.401454,-0.7598 -0.711115,-1.5658 -1.044831,-2.3561 -0.322586,-0.8527 -0.04999,-0.1247 -0.346742,-0.9371 -0.115932,-0.3175 -0.242564,-0.6345 -0.341809,-0.9578 -0.01719,-0.056 -0.02834,-0.1137 -0.04251,-0.1705 -0.200124,-0.3495 0.29409,-0.6325 0.494215,-0.283 z"
       inkscape:connector-curvature="0" />
    <path
       style="fill:#000000;fill-opacity:1"
       id="path3113"
       d="m 24.331992,1042.7294 c 0.253505,-0.2619 0.526184,-0.5319 0.876444,-0.6598 0.07973,-0.029 0.164775,-0.041 0.247163,-0.061 0.286925,-0.043 0.150288,-0.022 0.409949,-0.063 0.02014,-0.01 0.03193,0.02 0.01179,0.029 l 0,0 c -0.200901,0.1495 -0.101759,0.065 -0.294493,0.2564 -0.05169,0.056 -0.100778,0.1152 -0.155068,0.169 -0.231661,0.2297 -0.508057,0.411 -0.724752,0.6562 -0.230812,0.2624 -0.601848,-0.064 -0.371036,-0.3264 z"
       inkscape:connector-curvature="0" />
    <path
       style="fill:#000000;fill-opacity:1"
       id="path3115"
       d="m 25.764895,39.531261 c -0.02468,-0.03793 -0.05149,-0.07455 -0.07404,-0.113786 -0.05636,-0.09806 -0.145859,-0.287714 -0.192056,-0.381743 -0.154531,-0.314538 -0.312356,-0.627355 -0.470851,-0.93991 -0.200656,-0.391151 -0.367226,-0.798585 -0.530687,-1.206274 -0.0635,-0.158368 -0.214602,-0.523775 -0.248544,-0.703945 -0.01807,-0.09591 -0.01012,-0.194929 -0.01517,-0.292394 -0.06826,-0.152702 0.147698,-0.249229 0.215953,-0.09653 l 0,0 c 0.06914,0.06853 0.147817,0.128632 0.207423,0.205604 0.09396,0.121332 0.297328,0.51585 0.363367,0.636434 0.208739,0.381143 0.431003,0.754947 0.624444,1.144332 0.16074,0.316982 0.325354,0.632216 0.480241,0.952128 0.06004,0.124011 0.13218,0.271505 0.179026,0.403687 0.01503,0.04242 0.02447,0.08662 0.0367,0.129931 0.185589,0.407151 -0.390209,0.669613 -0.575797,0.262462 z"
       inkscape:connector-curvature="0"
       transform="translate(0,1002.3622)" />
    <path
       style="fill:#000000;fill-opacity:1"
       id="path3121"
       d="m 24.609155,1037.6748 c 0.411122,-0.3872 0.883139,-0.709 1.348439,-1.0272 1.234677,-0.7878 2.510718,-1.509 3.796617,-2.2092 1.608809,-0.8696 3.261247,-1.6533 4.911816,-2.4391 0.936015,-0.4252 1.833891,-0.9326 2.783914,-1.3272 0.436108,-0.1812 0.577463,-0.2216 1.006775,-0.3668 0.13431,-0.025 0.268622,-0.05 0.402933,-0.075 0.0939,-0.063 0.182618,0.07 0.08872,0.1328 l 0,0 c -0.08163,0.1193 -0.163255,0.2386 -0.244884,0.3579 -0.37708,0.3412 -0.4184,0.4025 -0.864357,0.6978 -0.868103,0.5748 -1.842557,0.9612 -2.767573,1.4301 -1.638291,0.7835 -3.281235,1.5579 -4.900127,2.381 -1.292543,0.6585 -2.581353,1.3237 -3.851711,2.0243 -0.486529,0.2506 -0.975841,0.4976 -1.472393,0.7276 -0.217231,0.1684 -0.455395,-0.1388 -0.238164,-0.3072 z"
       inkscape:connector-curvature="0" />
  </g>
</svg>
