<?xml version="1.0" encoding="UTF-8" standalone="no"?>
<!-- Created with Inkscape (http://www.inkscape.org/) -->

<svg
   xmlns:dc="http://purl.org/dc/elements/1.1/"
   xmlns:cc="http://creativecommons.org/ns#"
   xmlns:rdf="http://www.w3.org/1999/02/22-rdf-syntax-ns#"
   xmlns:svg="http://www.w3.org/2000/svg"
   xmlns="http://www.w3.org/2000/svg"
   xmlns:sodipodi="http://sodipodi.sourceforge.net/DTD/sodipodi-0.dtd"
   xmlns:inkscape="http://www.inkscape.org/namespaces/inkscape"
   width="50"
   height="50"
   id="svg3213"
   version="1.1"
   inkscape:version="0.48.4 r9939"
   sodipodi:docname="sys-compression-logo.svg">
  <sodipodi:namedview
     id="base"
     pagecolor="#ffffff"
     bordercolor="#666666"
     borderopacity="1.0"
     inkscape:pageopacity="0.0"
     inkscape:pageshadow="2"
     inkscape:zoom="16.22"
     inkscape:cx="13.594674"
     inkscape:cy="25.19899"
     inkscape:document-units="px"
     inkscape:current-layer="layer1"
     showgrid="false"
     inkscape:window-width="1680"
     inkscape:window-height="998"
     inkscape:window-x="1672"
     inkscape:window-y="486"
     inkscape:window-maximized="1" />
  <metadata
     id="metadata3218">
    <rdf:RDF>
      <cc:Work
         rdf:about="">
        <dc:format>image/svg+xml</dc:format>
        <dc:type
           rdf:resource="http://purl.org/dc/dcmitype/StillImage" />
        <dc:title />
      </cc:Work>
    </rdf:RDF>
  </metadata>
  <g
     inkscape:label="Layer 1"
     inkscape:groupmode="layer"
     id="layer1"
     transform="translate(0,-1002.3622)">
    <path
       style="fill:#000000;fill-opacity:1"
       id="path3102"
       d="m 2.7516909,15.091122 c 0.055029,-0.01403 0.1092435,-0.03176 0.1650867,-0.04208 0.1875528,-0.03465 0.6897049,-0.09369 0.8261007,-0.109952 0.2464828,-0.02939 0.4930446,-0.05814 0.7397169,-0.0859 0.8453696,-0.09513 1.3830915,-0.150404 2.2540037,-0.242625 3.9266401,-0.419788 7.8686901,-0.66241 11.8110061,-0.874871 4.674008,-0.237814 9.352239,-0.383426 14.030244,-0.515964 2.916586,-0.07897 5.83383,-0.134618 8.751331,-0.164495 0.566482,0.03241 1.147534,-0.06412 1.709741,0.03851 0.414253,0.07362 0.818407,0.182015 1.208894,0.338479 0.06768,0.03517 0.253894,0.125184 0.318171,0.18217 0.03618,0.03208 0.05978,0.07602 0.08968,0.114024 0.231162,0.03066 0.187798,0.357576 -0.04336,0.326913 l 0,0 c -0.03984,0.02876 -0.07536,0.06473 -0.119522,0.08628 -0.07191,0.03508 -0.280243,0.07582 -0.348707,0.09101 -0.368759,0.04974 -0.741799,0.05588 -1.108026,0.120932 -0.555673,0.101438 -1.130598,0.01561 -1.690512,0.0612 -2.910722,0.04023 -5.821179,0.09563 -8.731314,0.167001 -4.666909,0.117004 -9.333762,0.244439 -13.997034,0.468324 -3.924818,0.204005 -7.847599,0.447389 -11.762606,0.795879 -0.1917905,0.01633 -1.9541422,0.16695 -2.2612779,0.19101 -0.5098586,0.03994 -1.0951608,0.100334 -1.6108356,0.08329 -0.062573,-0.0021 -0.1244654,-0.01367 -0.1866981,-0.02051 -0.7131993,0.03117 -0.7572748,-0.97745 -0.044076,-1.008616 z"
       inkscape:connector-curvature="0"
       transform="translate(0,1002.3622)" />
    <path
       style="fill:#000000;fill-opacity:1"
       id="path3104"
       d="m 3.9269412,32.594955 c 0.065773,-0.01718 0.1305309,-0.03887 0.19732,-0.05154 0.5340259,-0.101312 1.0900798,-0.12998 1.6296074,-0.179205 1.1918578,-0.108742 0.9277807,-0.08382 2.2343844,-0.19063 3.840343,-0.323788 7.683568,-0.611756 11.526007,-0.909272 4.198989,-0.328508 8.402069,-0.59692 12.607989,-0.817795 3.064463,-0.168491 6.132393,-0.248761 9.200929,-0.286027 1.97588,-0.01408 3.952198,-0.03643 5.927905,0.0028 0.604588,0.05507 1.264516,-0.02665 1.850807,0.169455 0.0793,0.05083 0.188151,0.09775 0.244756,0.177633 0.05228,0.07377 0.05853,0.127724 0.08297,0.214699 0.179343,0.02463 0.144507,0.278263 -0.03484,0.25363 l 0,0 c -0.02939,0.0612 -0.06087,0.13723 -0.104337,0.191728 -0.05253,0.06586 -0.141609,0.113851 -0.213089,0.152781 -0.575419,0.172877 -1.242414,0.08232 -1.831381,0.131688 -1.968284,0.02369 -3.936868,0.0081 -5.905154,0.03467 -3.051329,0.04396 -6.102085,0.126486 -9.150009,0.281478 -4.196623,0.214041 -8.391588,0.460509 -12.582974,0.761157 -3.846362,0.269911 -7.690071,0.578521 -11.5389334,0.81159 -1.1064142,0.06214 -1.2155157,0.0755 -2.251517,0.10911 -0.5478555,0.01777 -1.1149579,0.05121 -1.6626868,-0.0075 -0.070349,-0.0075 -0.1392378,-0.02523 -0.2088567,-0.03784 -0.5746305,0.01337 -0.5935304,-0.799286 -0.0189,-0.81265 z"
       inkscape:connector-curvature="0"
       transform="translate(0,1002.3622)" />
    <path
       style="fill:#000000;fill-opacity:1"
       id="path3106"
       d="m 18.304759,1037.2352 c 0.01778,0.05 0.03956,0.099 0.05335,0.1498 0.05817,0.2159 0.08873,0.4382 0.11501,0.6598 0.07343,0.6188 0.09132,1.2358 0.104634,1.8583 -0.0079,1.5555 -0.09093,3.1094 -0.134331,4.6641 -0.02065,0.3613 -0.0099,0.7237 -0.0266,1.0851 -0.0088,0.1902 -0.02223,0.4701 -0.09194,0.6589 -0.03187,0.086 -0.08709,0.1623 -0.130639,0.2434 0.06705,0.088 -0.05709,0.1826 -0.124139,0.095 l 0,0 c -0.133751,-0.037 -0.284946,-0.035 -0.401252,-0.1109 -0.119633,-0.078 -0.202801,-0.2053 -0.27437,-0.3288 -0.288295,-0.4975 -0.282714,-1.1063 -0.32794,-1.6579 -0.0011,-0.2375 -0.0066,-0.4749 -0.0034,-0.7124 0.01728,-1.3174 0.105551,-2.6335 0.156563,-3.9498 0.01847,-0.436 0.0327,-0.8723 0.05553,-1.3081 0.02029,-0.3873 0.03807,-0.7836 0.108522,-1.1662 0.01118,-0.061 0.02873,-0.1201 0.04309,-0.1801 0,-0.6208 0.877957,-0.6208 0.877957,0 z"
       inkscape:connector-curvature="0" />
    <path
       style="fill:#000000;fill-opacity:1"
       id="path3108"
       d="m 29.952569,1036.3838 c 0.196416,0.3886 0.238353,0.8346 0.284976,1.261 0.06778,0.6199 0.05946,0.6423 0.09469,1.2945 0.04527,1.0901 0.04835,2.1814 0.09897,3.2713 0.02446,0.5267 0.05734,1.053 0.08468,1.5796 0.01268,0.4064 0.05024,0.9163 -0.01595,1.3257 -0.02871,0.1776 -0.05735,0.3632 -0.146399,0.5195 -0.09293,0.1631 -0.256103,0.2745 -0.384155,0.4118 4.64e-4,0.021 -0.02912,0.022 -0.02959,6e-4 l 0,0 c -0.133685,-0.1165 -0.294609,-0.2078 -0.401056,-0.3497 -0.106441,-0.1419 -0.167394,-0.3146 -0.223579,-0.4828 -0.139079,-0.4165 -0.178185,-0.8915 -0.23466,-1.3209 -0.02438,-0.2633 -0.05362,-0.5261 -0.07315,-0.7898 -0.101941,-1.3765 -0.09782,-2.7584 -0.08363,-4.1377 0.01305,-0.8454 0.0024,-0.4805 0.03223,-1.2631 0.01271,-0.3338 0.0061,-0.6861 0.06803,-1.0168 0.007,-0.037 0.02253,-0.073 0.0338,-0.1092 -0.137166,-0.6327 0.757611,-0.8267 0.894778,-0.194 z"
       inkscape:connector-curvature="0" />
    <path
       style="fill:#000000;fill-opacity:1"
       id="path3110"
       d="m 18.590217,1013.435 c -0.01526,-0.038 -0.03728,-0.074 -0.04578,-0.1132 -0.04852,-0.2212 -0.01961,-0.4915 -0.0119,-0.7132 0.01208,-0.3471 0.01837,-0.4433 0.03645,-0.8048 0.06804,-1.0461 0.06538,-2.0939 0.144125,-3.1396 0.01807,-0.2399 0.04479,-0.4795 0.06718,-0.7193 0.04286,-0.3851 0.09835,-0.8987 0.147886,-1.2881 0.02123,-0.1669 0.03365,-0.3346 0.0688,-0.5002 0.03873,-0.1826 0.113471,-0.4382 0.260341,-0.6058 0.03414,-0.039 0.09482,-0.063 0.142228,-0.094 0.122651,0.015 0.245303,0.029 0.367954,0.044 0.004,0.082 -0.159356,0.086 -0.163345,0.01 l 0,0 c 0.121809,0 0.243618,-0.01 0.365427,-0.01 0.03823,0.036 0.09086,0.065 0.114679,0.1062 0.100701,0.1745 0.118179,0.4408 0.118861,0.6142 6.52e-4,0.1658 -0.02036,0.3312 -0.03078,0.4968 -0.05419,0.8615 -0.02745,0.3603 -0.06854,1.2737 -0.04483,1.2885 -0.100902,2.5771 -0.1813,3.8648 -0.04099,0.4415 -0.03228,0.4007 -0.08778,0.8129 -0.02854,0.2119 -0.04767,0.47 -0.123454,0.6781 -0.01246,0.034 -0.03578,0.066 -0.05366,0.099 -0.0076,0.5364 -1.075008,0.5288 -1.06738,-0.01 z"
       inkscape:connector-curvature="0" />
    <path
       style="fill:#000000;fill-opacity:1"
       id="path3112"
       d="m 27.614537,1013.0658 c -0.157747,-0.5772 -0.118178,-1.1808 -0.08802,-1.7651 0.07654,-1.0593 0.249878,-2.1133 0.488284,-3.1599 0.09241,-0.2965 0.144213,-0.7353 0.396096,-0.9953 0.07217,-0.075 0.180657,-0.1274 0.270986,-0.1911 0.03255,-0.1978 0.426177,-0.1651 0.393628,0.033 l 0,0 c 0.06701,0.078 0.155914,0.1486 0.201021,0.2341 0.155891,0.296 0.05128,0.7323 0.03553,1.0359 -0.1305,1.0271 -0.328966,2.0498 -0.409537,3.08 -0.02157,0.4051 -0.02903,0.4332 -0.02838,0.8192 6.22e-4,0.3671 0.0069,0.2254 0.01536,0.5439 0.0037,0.1373 0.002,0.1343 -0.0038,0.2504 0.11463,0.6389 -1.156575,0.7541 -1.271205,0.1152 z"
       inkscape:connector-curvature="0" />
    <path
       style="fill:#000000;fill-opacity:1"
       id="path3116"
       d="m 17.051505,16.678977 c -0.01985,0.07245 -0.03354,0.146875 -0.05955,0.217346 -0.169218,0.458423 -0.433143,0.889832 -0.688025,1.303217 -0.365349,0.592551 -0.456057,0.70823 -0.860908,1.297604 -0.484991,0.69573 -0.991602,1.375924 -1.491918,2.060589 -0.387068,0.52969 -0.770486,1.059647 -1.174596,1.576474 -0.181575,0.194798 -0.349938,0.43146 -0.618432,0.522393 -0.122324,0.04143 -0.256932,0.02653 -0.385397,0.03979 -0.05219,0.09502 -0.186573,0.02121 -0.134382,-0.07381 l 0,0 c -0.05289,-0.124337 -0.137949,-0.239491 -0.158663,-0.373012 -0.04736,-0.305298 0.113822,-0.574028 0.223401,-0.838848 0.09764,-0.16806 0.188774,-0.340075 0.29293,-0.504178 0.219297,-0.345512 0.592242,-0.850626 0.827794,-1.174214 0.495467,-0.680646 0.993871,-1.359171 1.495211,-2.035501 0.515974,-0.69898 0.408145,-0.558145 0.91091,-1.219916 0.282131,-0.371357 0.558494,-0.761924 0.878168,-1.103375 0.04748,-0.05071 0.101874,-0.09447 0.152811,-0.141711 0.316183,-0.559072 1.10683,-0.111922 0.790647,0.44715 z"
       inkscape:connector-curvature="0"
       transform="translate(0,1002.3622)" />
    <path
       style="fill:#000000;fill-opacity:1"
       id="path3120"
       d="m 7.0275933,23.25334 c 0.01111,0.429292 0.028726,0.859878 0.1323324,1.278661 0.036637,0.148088 0.085544,0.292868 0.1283162,0.439303 0.2453552,0.646191 0.6273594,1.226863 1.166975,1.665682 0.3360315,0.273262 0.48269,0.325113 0.8612484,0.521178 0.3327206,0.122288 0.7063527,0.262992 1.0659877,0.152571 0.10442,-0.03206 0.188263,-0.103518 0.210968,-0.21213 0.0095,-0.04534 -0.0034,-0.09258 -0.0052,-0.138863 C 10.450025,26.116756 9.9583045,25.356558 9.4310986,24.701395 9.2773186,24.510292 9.1061929,24.33382 8.94374,24.150032 8.4373535,23.672817 7.8503078,23.111168 7.1677882,22.894921 c -0.1685613,-0.05341 -0.2642563,-0.04272 -0.428826,-0.04208 -0.319758,0.06656 -0.1378741,0.01986 -0.5407156,0.158085 -0.084873,0.126567 -0.263866,0.0065 -0.1789927,-0.120029 l 0,0 c 0.1269141,-0.70498 -0.0241,-0.395677 0.4516143,-0.928604 0.1708232,-0.06916 0.3312945,-0.173724 0.5124695,-0.207468 0.3726598,-0.06941 0.8204009,0.0367 1.1593499,0.177641 0.7039447,0.292703 1.2676394,0.819881 1.7972082,1.350652 0.1860702,0.216696 0.3822222,0.425127 0.5582102,0.650088 0.344112,0.439873 0.661029,0.91545 0.897714,1.423163 0.194196,0.416569 0.378053,0.948329 0.393659,1.416795 0.0074,0.221221 -0.05058,0.439787 -0.07588,0.659681 -0.09812,0.182999 -0.162633,0.388478 -0.294349,0.548997 -0.508368,0.619536 -1.379108,0.624939 -2.0807294,0.420208 C 9.1412321,28.344486 8.954488,28.255528 8.7624697,28.182264 8.2562754,27.899417 8.0951927,27.843861 7.6518223,27.453574 7.1361359,26.99963 6.7176916,26.435685 6.4577595,25.797887 c -0.080184,-0.19675 -0.12622,-0.405745 -0.18933,-0.608617 -0.029561,-0.191993 -0.073514,-0.382317 -0.088683,-0.57598 -0.042824,-0.54676 0.047516,-1.113231 0.3026397,-1.600492 0.1700891,-0.38552 0.7152958,-0.144977 0.5452067,0.240542 z"
       inkscape:connector-curvature="0"
       transform="translate(0,1002.3622)" />
    <path
       style="fill:#000000;fill-opacity:1"
       id="path3122"
       d="M 6.1648162,30.079036 C 6.5155,29.868921 6.9266363,29.777943 7.3206223,29.687224 c 0.5644985,-0.129981 0.7669827,-0.158916 1.3603455,-0.26673 1.8239812,-0.280006 3.6578402,-0.488052 5.4887782,-0.715859 0.382782,-0.03899 0.80645,-0.08975 1.194739,-0.104025 0.157857,-0.0058 0.413984,-0.05025 0.538015,0.112671 0.06205,0.0815 0.07648,0.190058 0.114723,0.285086 0.04247,-0.05507 0.120356,0.005 0.07789,0.06006 l 0,0 c 0.01017,0.131432 0.06604,0.26735 0.03051,0.394296 -0.06341,0.226544 -0.40436,0.317048 -0.572463,0.367145 -0.399516,0.11906 -0.798728,0.174394 -1.209148,0.246282 -1.821601,0.239607 -3.648392,0.431973 -5.4736658,0.640783 -0.5876437,0.06575 -0.7633515,0.08325 -1.3236647,0.153426 -0.075355,0.0094 -0.6546504,0.08736 -0.7836439,0.0999 -0.1843275,0.01791 -0.1814368,0.01397 -0.3334034,0.0073 -0.628271,0.187256 -0.893091,-0.701253 -0.26482,-0.888509 z"
       inkscape:connector-curvature="0"
       transform="translate(0,1002.3622)" />
    <path
       style="fill:#000000;fill-opacity:1"
       id="path3124"
       d="m 14.101056,23.861254 c 0.01111,0.05176 0.02712,0.1027 0.03332,0.15527 0.01102,0.09341 0.01214,0.187725 0.01821,0.281588 0.0088,0.12578 0.01153,0.252146 0.02654,0.37734 0.01797,0.149843 0.04128,0.299245 0.07228,0.446942 0.104376,0.497176 0.124817,0.488557 0.313764,0.963544 0.08305,0.144664 0.15377,0.297148 0.249161,0.433991 0.252221,0.361823 0.604284,0.667766 1.026377,0.812109 0.335843,0.114849 0.426287,0.07845 0.768411,0.0612 0.114874,-0.03934 0.236579,-0.06261 0.344621,-0.118022 0.475972,-0.244118 0.742247,-0.766282 0.732007,-1.291262 -0.0031,-0.157183 -0.04477,-0.311222 -0.06716,-0.466833 -0.06305,-0.157746 -0.107317,-0.324367 -0.189145,-0.47324 -0.270282,-0.49173 -0.723193,-0.87736 -1.210534,-1.142493 -0.392278,-0.213414 -0.566659,-0.237154 -0.984239,-0.352325 -0.364051,-0.06249 -0.728771,-0.106583 -1.091289,-0.17708 -0.355239,0.144575 -0.559699,-0.357808 -0.20446,-0.502383 l 0,0 c 0.131572,-0.117452 0.240374,-0.267005 0.394717,-0.352356 0.432707,-0.239285 0.733295,-0.1723 1.209273,-0.170292 0.23334,0.05673 0.473734,0.08982 0.700021,0.170198 1.013642,0.36005 1.91711,1.12491 2.369153,2.109695 0.114005,0.248362 0.1685,0.519934 0.252751,0.779901 0.03825,0.680102 0.121912,0.903554 -0.119266,1.556982 -0.252719,0.684694 -0.795005,1.234795 -1.47687,1.493904 -0.213777,0.08124 -0.44602,0.101321 -0.66903,0.151981 -0.225117,-0.0091 -0.453041,0.0093 -0.675351,-0.02732 -0.907115,-0.149298 -1.676208,-0.746288 -2.145598,-1.520782 -0.116482,-0.192196 -0.196586,-0.404206 -0.29488,-0.606309 -0.06257,-0.209539 -0.138341,-0.415581 -0.187719,-0.628615 -0.134595,-0.58069 -0.181093,-1.328996 -0.02196,-1.913321 0.01847,-0.0678 0.05039,-0.131202 0.07558,-0.196803 0.102377,-0.53126 0.853693,-0.386477 0.751316,0.144783 z"
       inkscape:connector-curvature="0"
       transform="translate(0,1002.3622)" />
    <path
       style="fill:#000000;fill-opacity:1"
       id="path3194"
       d="m 17.454254,30.578639 c 0.02409,-0.07401 0.04086,-0.15083 0.07228,-0.222044 0.178293,-0.404096 0.471668,-0.770979 0.748383,-1.108963 0.358317,-0.437655 0.626775,-0.719889 1.013774,-1.14467 1.172495,-1.228975 2.333259,-2.468904 3.492454,-3.710395 0.1529,-0.149097 0.451656,-0.47439 0.670605,-0.57888 0.104764,-0.05 0.225198,-0.05646 0.337797,-0.08469 0.02323,-0.05235 0.09726,-0.01951 0.07404,0.03285 l 0,0 c 0.04103,0.133095 0.12238,0.260011 0.123089,0.399285 0.0016,0.314853 -0.253303,0.661572 -0.395154,0.906037 -0.135401,0.181713 -0.264685,0.368149 -0.406204,0.545141 -0.932056,1.165688 -2.033104,2.183108 -3.043057,3.278299 -0.448806,0.479981 -0.898429,0.9583 -1.320474,1.462309 -0.07715,0.09214 -0.151008,0.18699 -0.226512,0.280485 -0.04327,0.05676 -0.08421,0.115367 -0.129796,0.170281 -0.01878,0.02262 -0.04193,0.04122 -0.06289,0.06183 -0.202851,0.670574 -1.151186,0.383699 -0.948335,-0.286875 z"
       inkscape:connector-curvature="0"
       transform="translate(0,1002.3622)" />
    <path
       style="fill:#000000;fill-opacity:1"
       id="path3200"
       d="m 19.313955,17.4998 c 0.03585,0.07839 0.07752,0.154364 0.107555,0.235158 0.08681,0.233545 0.201194,0.666095 0.256776,0.887272 0.178396,0.709905 0.32363,1.426359 0.46553,2.144206 0.240416,1.348755 0.545221,2.686444 0.761507,4.039368 0.02561,0.266753 0.06371,0.45398 0.0218,0.715813 -0.0117,0.0731 -0.01887,0.155639 -0.06728,0.211641 -0.06158,0.07124 -0.161246,0.09733 -0.24187,0.145991 0.05163,0.226351 -0.268479,0.299366 -0.320108,0.07301 l 0,0 c -0.09445,-0.01196 -0.19833,0.0069 -0.283356,-0.03589 -0.07121,-0.03588 -0.111203,-0.115996 -0.152966,-0.183925 -0.138469,-0.225225 -0.175332,-0.417942 -0.25221,-0.673147 -0.31104,-1.342511 -0.533279,-2.704905 -0.774399,-4.061185 -0.112372,-0.718088 -0.21433,-1.435976 -0.300368,-2.15773 -0.01836,-0.154046 -0.08049,-0.684155 -0.09095,-0.878907 -0.004,-0.07425 9.42e-4,-0.148709 0.0014,-0.223063 -0.168725,-0.614428 0.700207,-0.853042 0.868933,-0.238614 z"
       inkscape:connector-curvature="0"
       transform="translate(0,1002.3622)" />
    <path
       style="fill:#000000;fill-opacity:1"
       id="path3202"
       d="m 22.876355,17.256184 c -0.05956,0.508816 -0.126382,1.020137 -0.03982,1.531032 0.02366,0.139671 0.06669,0.275361 0.100039,0.413042 0.05359,0.13029 0.09535,0.266098 0.160767,0.390869 0.25093,0.478596 0.690725,0.881401 1.203744,1.061912 0.123018,0.04329 0.254404,0.0575 0.381607,0.08625 0.126256,-0.0015 0.253619,0.01235 0.378769,-0.0044 0.537735,-0.07194 1.026636,-0.422126 1.303485,-0.883256 0.07498,-0.124882 0.120561,-0.265201 0.180842,-0.397802 0.02315,-0.139914 0.06569,-0.277977 0.06944,-0.419744 0.01173,-0.442937 -0.182215,-0.859009 -0.474246,-1.183199 -0.275737,-0.306101 -0.419975,-0.355616 -0.771603,-0.565619 -0.154488,-0.0538 -0.304646,-0.122185 -0.463462,-0.161412 -0.464836,-0.114812 -0.978581,-0.109593 -1.447718,-0.02662 -0.336072,0.05944 -0.551423,0.145415 -0.871723,0.253731 -0.536026,0.233349 -0.259348,0.118168 -0.830613,0.344149 -0.01253,0.01676 -0.03623,-9.52e-4 -0.02371,-0.01771 l 0,0 c 0.140578,-0.742934 -0.0017,-0.399104 0.431891,-1.029373 0.158544,-0.13222 0.302002,-0.284987 0.475632,-0.39666 0.800202,-0.514663 1.828987,-0.628636 2.736327,-0.372392 0.245136,0.06923 0.473537,0.187884 0.710305,0.281826 0.545096,0.362077 0.773668,0.448084 1.177719,0.981723 0.466833,0.616556 0.694981,1.38967 0.611416,2.161143 -0.02667,0.246242 -0.116559,0.481456 -0.174839,0.722185 -0.293214,0.563439 -0.331131,0.754166 -0.803608,1.194731 -0.513804,0.4791 -1.188803,0.772542 -1.89183,0.804697 -0.224608,0.01027 -0.448435,-0.03351 -0.672652,-0.05026 -0.210104,-0.06683 -0.428197,-0.112407 -0.630313,-0.200497 -0.798433,-0.347988 -1.414309,-1.015379 -1.710333,-1.831906 -0.06928,-0.191103 -0.100899,-0.393829 -0.151349,-0.590744 -0.01222,-0.19171 -0.03895,-0.383045 -0.03666,-0.575131 0.0043,-0.363461 0.06202,-0.622831 0.151846,-0.967935 0.07348,-0.282321 0.161138,-0.563062 0.324905,-0.807535 0.180246,-0.42125 0.775983,-0.166344 0.595738,0.254906 z"
       inkscape:connector-curvature="0"
       transform="translate(0,1002.3622)" />
    <path
       style="fill:#000000;fill-opacity:1"
       id="path3204"
       d="m 24.534912,26.601977 c -0.02441,0.03077 -0.04646,0.06357 -0.07322,0.09232 -0.0463,0.04974 -0.0985,0.09372 -0.145564,0.14274 -0.24028,0.250268 -0.46819,0.522382 -0.653031,0.816623 -0.07517,0.11966 -0.13737,0.246993 -0.206056,0.370489 -0.133852,0.310443 -0.453471,0.912135 -0.234532,1.252347 0.04571,0.07102 0.206928,0.115077 0.269432,0.138421 0.09245,0.02089 0.18331,0.05084 0.27735,0.06268 0.717595,0.09032 1.474073,-0.08193 2.126518,-0.378972 0.184201,-0.08386 0.354728,-0.194986 0.532092,-0.292479 0.381735,-0.293119 0.994705,-0.752488 0.942149,-1.314112 -0.01546,-0.165244 -0.104022,-0.228678 -0.204739,-0.341574 -0.06673,-0.04877 -0.128939,-0.104442 -0.2002,-0.146324 -0.586699,-0.344818 -1.314808,-0.428281 -1.975423,-0.523641 -0.140632,-0.02611 -0.281264,-0.05223 -0.421896,-0.07834 -0.309107,0.07923 -0.421148,-0.357918 -0.112041,-0.437143 l 0,0 c 0.146602,-0.09973 0.293205,-0.199466 0.439807,-0.299199 0.183648,-0.0589 0.361795,-0.139046 0.550944,-0.176714 0.825867,-0.164466 1.757652,0.0265 2.422087,0.555895 0.171759,0.136851 0.305307,0.315761 0.457961,0.473641 0.09152,0.199768 0.220258,0.386387 0.274571,0.599305 0.232853,0.912849 -0.291191,1.785734 -0.940164,2.377931 -0.186608,0.170282 -0.400144,0.308479 -0.600217,0.462718 -0.232685,0.127677 -0.456988,0.271992 -0.698057,0.383032 -0.907221,0.417879 -2.059455,0.670941 -3.047419,0.406785 -0.223431,-0.05974 -0.42737,-0.176962 -0.641056,-0.265443 -0.165083,-0.147423 -0.360833,-0.266434 -0.49525,-0.44227 -0.503261,-0.658335 -0.348273,-1.506152 -0.02663,-2.197902 0.07786,-0.167458 0.177833,-0.32372 0.266749,-0.485581 0.105455,-0.147519 0.204152,-0.300112 0.316365,-0.442559 0.314033,-0.398643 0.722461,-0.804986 1.1776,-1.04361 0.05003,-0.02623 0.105224,-0.04111 0.157836,-0.06167 0.560461,-0.328124 1.024498,0.464486 0.464038,0.79261 z"
       inkscape:connector-curvature="0"
       transform="translate(0,1002.3622)" />
    <path
       style="fill:#000000;fill-opacity:1"
       id="path3206"
       d="m 26.817044,22.767348 c 0.485445,0.157996 0.907541,0.458499 1.322726,0.746802 0.366097,0.254217 0.78449,0.562383 1.142461,0.823152 1.120231,0.847702 2.280934,1.641207 3.391677,2.501302 0.116738,0.109761 0.430178,0.371493 0.504178,0.548764 0.03605,0.08637 0.02,0.186106 0.03,0.27916 0.363227,0.196959 0.08468,0.71064 -0.278543,0.51368 l 0,0 c -0.108671,0.0287 -0.213619,0.08696 -0.326014,0.08611 -0.22025,-0.0017 -0.559524,-0.199507 -0.733316,-0.284787 -0.153229,-0.09774 -0.308641,-0.192138 -0.459688,-0.293216 -1.029778,-0.689113 -2.001126,-1.463372 -2.987861,-2.211209 -0.363951,-0.284155 -0.72858,-0.567444 -1.091958,-0.852331 -0.126415,-0.09911 -0.582237,-0.455992 -0.732425,-0.585426 -0.1459,-0.125739 -0.174857,-0.161848 -0.286753,-0.282863 -0.699425,-0.357451 -0.193913,-1.346588 0.505512,-0.989137 z"
       inkscape:connector-curvature="0"
       transform="translate(0,1002.3622)" />
    <path
       style="fill:#000000;fill-opacity:1"
       id="path3208"
       d="m 30.145367,16.13861 c 0.168398,0.330191 0.220015,0.698704 0.265059,1.062084 0.06077,0.490233 0.05564,0.52979 0.0896,1.04187 0.035,0.616604 0.03842,1.234402 0.04153,1.851792 0.0021,0.407627 0.0059,0.789823 -0.01195,1.196837 -0.0079,0.180098 -0.024,0.359745 -0.036,0.539617 -0.04238,0.268381 -0.07126,0.63021 -0.212454,0.878114 -0.06841,0.120105 -0.179912,0.209883 -0.269868,0.314824 0.0046,0.144134 -0.19923,0.150649 -0.203837,0.0065 l 0,0 c -0.09665,-0.104449 -0.216091,-0.191709 -0.289946,-0.313348 -0.149114,-0.245587 -0.180139,-0.615352 -0.224395,-0.88414 -0.01259,-0.180262 -0.02944,-0.360277 -0.03777,-0.540786 -0.01832,-0.396977 -0.01486,-0.797973 -0.01408,-1.19512 0.0012,-0.615037 0.0016,-1.230377 0.02938,-1.844938 0.02783,-0.539841 0.02038,-0.517004 0.06966,-1.031109 0.03211,-0.334981 0.0597,-0.679505 0.190958,-0.993454 -0.06276,-0.434248 0.551358,-0.523006 0.61412,-0.08876 z"
       inkscape:connector-curvature="0"
       transform="translate(0,1002.3622)" />
    <path
       style="fill:#000000;fill-opacity:1"
       id="path3210"
       d="m 33.022776,18.081699 c -0.146746,0.301541 -0.243972,0.634383 -0.264594,0.970526 -0.006,0.0976 0.0033,0.195543 0.005,0.293314 0.06733,0.420469 0.272156,0.792379 0.619238,1.048557 0.267535,0.197466 0.42619,0.23264 0.740121,0.354062 0.158785,0.0298 0.31555,0.07384 0.476355,0.08941 0.72655,0.07035 1.497371,-0.103847 2.113022,-0.499511 0.144157,-0.09265 0.268236,-0.213328 0.402354,-0.319993 0.102052,-0.126183 0.220284,-0.240843 0.306156,-0.378548 0.236996,-0.380047 0.314673,-0.836999 0.204531,-1.272247 -0.09319,-0.368243 -0.18589,-0.433002 -0.405437,-0.726695 -0.106629,-0.08302 -0.202296,-0.182462 -0.319886,-0.249049 -0.399803,-0.226394 -0.904567,-0.243779 -1.349258,-0.237315 -0.242575,0.0035 -1.080056,0.06418 -1.297664,0.07902 -0.297395,0.121201 -0.468798,-0.299379 -0.171403,-0.42058 l 0,0 c 0.214267,-0.165062 0.408272,-0.360457 0.642802,-0.495186 0.701342,-0.4029 1.576286,-0.529117 2.352391,-0.278673 0.656001,0.211688 0.777615,0.424442 1.260792,0.877122 0.129768,0.217002 0.289794,0.418568 0.389303,0.651006 0.408183,0.953448 0.262076,2.061517 -0.319572,2.908451 -0.143783,0.209361 -0.333964,0.382741 -0.500946,0.574112 -0.204785,0.153508 -0.395393,0.328021 -0.614355,0.460525 -0.871306,0.527267 -1.964039,0.739424 -2.969937,0.593551 -0.237725,-0.03447 -0.467148,-0.112158 -0.700722,-0.168237 -0.526671,-0.234887 -0.722181,-0.272832 -1.157089,-0.657921 -0.448804,-0.397394 -0.755396,-0.927516 -0.846681,-1.522033 -0.02644,-0.172208 -0.01158,-0.348261 -0.01736,-0.522391 0.02641,-0.157893 0.03925,-0.318665 0.07923,-0.473679 0.133147,-0.51625 0.438508,-0.999982 0.900624,-1.27466 0.422187,-0.313229 0.865159,0.283834 0.442972,0.597063 z"
       inkscape:connector-curvature="0"
       transform="translate(0,1002.3622)" />
    <path
       style="fill:#000000;fill-opacity:1"
       id="path3212"
       d="m 33.359179,23.427306 c 0.280799,0.255538 0.495207,0.577327 0.717321,0.882501 0.512359,0.703958 0.125631,0.161341 0.664478,0.926349 0.702697,1.026096 1.42024,2.042844 2.075934,3.09998 0.135273,0.251175 0.277372,0.46461 0.335439,0.747558 0.02185,0.106465 0.01134,0.217072 0.01701,0.325607 0.255686,0.355301 -0.246786,0.716895 -0.502471,0.361594 l 0,0 c -0.104495,-0.04455 -0.217566,-0.07279 -0.313484,-0.13365 -0.26074,-0.165432 -0.392697,-0.371353 -0.585057,-0.608042 -0.717271,-1.019677 -1.389696,-2.070634 -2.062908,-3.119682 -0.328136,-0.547108 -0.294205,-0.474811 -0.582516,-1.01321 -0.193441,-0.361236 -0.397248,-0.735109 -0.461724,-1.145084 -0.229047,-0.493545 0.46893,-0.817466 0.697977,-0.323921 z"
       inkscape:connector-curvature="0"
       transform="translate(0,1002.3622)" />
    <path
       style="fill:#000000;fill-opacity:1"
       id="path3216"
       d="m 36.504041,23.889848 c 0.0251,-0.04099 0.04509,-0.08559 0.07529,-0.122972 0.189867,-0.234982 0.495962,-0.462582 0.729029,-0.647494 0.372948,-0.295891 0.493268,-0.377868 0.889744,-0.668517 0.940685,-0.663362 1.903665,-1.294132 2.830458,-1.977177 0.187341,-0.111006 0.472409,-0.417893 0.703582,-0.446806 0.08622,-0.01078 0.105038,0.01755 0.170224,0.06052 0.08786,0.117103 0.175712,0.234205 0.263568,0.351308 -0.114865,0.05613 -0.194238,-0.106319 -0.07937,-0.162444 l 0,0 c 0.105142,0.108656 0.210284,0.217313 0.315425,0.32597 0.01574,0.08436 0.03545,0.127968 0.0025,0.214236 -0.100064,0.261911 -0.466239,0.462511 -0.661214,0.634359 -0.937444,0.680673 -1.894416,1.333752 -2.856939,1.978373 -0.223091,0.150327 -0.659051,0.443658 -0.891875,0.602103 -0.109607,0.07459 -0.219026,0.149464 -0.328058,0.224894 -0.04834,0.03344 -0.317206,0.22666 -0.399539,0.271552 -0.03346,0.01825 -0.07106,0.02759 -0.106594,0.04138 -0.480328,0.464022 -1.136554,-0.215265 -0.656226,-0.679287 z"
       inkscape:connector-curvature="0"
       transform="translate(0,1002.3622)" />
    <path
       style="fill:#000000;fill-opacity:1"
       id="path3218"
       d="m 40.97917,25.194944 c -0.216775,0.402479 -0.416169,0.823293 -0.490198,1.279071 -0.01712,0.1054 -0.01617,0.212949 -0.02426,0.319423 0.01361,0.09156 0.01342,0.186264 0.04083,0.274677 0.119715,0.386102 0.530651,0.623212 0.880233,0.759433 0.148935,0.05804 0.304676,0.0968 0.457015,0.145205 0.173267,0.02977 0.344857,0.07192 0.5198,0.08932 0.682967,0.06791 1.435129,-0.02378 2.035749,-0.376972 0.117693,-0.06921 0.217878,-0.164609 0.326816,-0.246914 0.07741,-0.0947 0.168763,-0.179547 0.232222,-0.284111 0.153441,-0.252832 0.162956,-0.544792 0.03568,-0.809282 -0.126983,-0.263885 -0.234832,-0.330724 -0.446368,-0.539578 -0.573992,-0.419031 -1.256064,-0.634986 -1.954229,-0.734916 -0.352492,-0.05045 -0.715383,-0.05915 -1.070412,-0.07561 -0.159427,-0.0144 -0.318854,-0.02879 -0.478281,-0.04319 -0.407414,0.10756 -0.559526,-0.468611 -0.152112,-0.57617 l 0,0 c 0.170482,-0.101495 0.340965,-0.20299 0.511447,-0.304486 0.212997,-0.05769 0.421244,-0.137268 0.638991,-0.173069 0.983488,-0.161699 2.049449,0.04105 2.903045,0.555054 0.215514,0.129775 0.404223,0.29959 0.606335,0.449385 0.395682,0.468998 0.596273,0.603946 0.767977,1.210249 0.191767,0.677146 0.04378,1.372473 -0.36578,1.936748 -0.129492,0.178409 -0.303068,0.32022 -0.454602,0.48033 -0.187325,0.127786 -0.362786,0.274993 -0.561977,0.383359 -0.848771,0.461758 -1.875414,0.58082 -2.823244,0.457866 -0.238545,-0.03094 -0.471429,-0.09592 -0.707143,-0.143884 -0.503344,-0.18565 -0.794832,-0.25172 -1.231178,-0.574802 -0.519084,-0.384344 -0.845444,-0.886413 -0.921485,-1.532136 -0.02102,-0.178532 0.0048,-0.359499 0.0071,-0.539248 0.03948,-0.162608 0.06642,-0.328781 0.118429,-0.487823 0.179185,-0.547912 0.530256,-1.089818 0.964409,-1.470013 0.404524,-0.449127 1.039685,0.122956 0.635161,0.572083 z"
       inkscape:connector-curvature="0"
       transform="translate(0,1002.3622)" />
    <path
       style="fill:#000000;fill-opacity:1"
       id="path3220"
       d="m 41.888512,16.311111 c 0.02551,0.01293 0.05438,0.02071 0.07654,0.0388 0.107388,0.08764 0.249293,0.269822 0.328784,0.362518 0.08996,0.104899 0.18028,0.209482 0.271081,0.31365 0.40787,0.467914 0.306696,0.351148 0.75308,0.839309 0.845343,0.912728 1.73848,1.780518 2.560243,2.714899 0.138523,0.192233 0.314095,0.381199 0.357465,0.627215 0.018,0.102108 -0.0091,0.207164 -0.01369,0.310746 0.306838,0.448092 -0.32686,0.882027 -0.633698,0.433934 l 0,0 c -0.08071,-0.0076 -0.165874,0.0046 -0.242142,-0.02288 -0.1992,-0.07181 -0.365641,-0.269241 -0.507871,-0.407246 -0.857014,-0.917693 -1.736221,-1.816096 -2.546587,-2.775954 -0.354823,-0.439032 -0.711689,-0.872846 -1.003853,-1.357552 -0.122967,-0.204004 -0.204729,-0.352816 -0.270249,-0.575868 -0.01871,-0.0637 -0.02527,-0.130347 -0.03791,-0.19552 -0.216414,-0.642622 0.69239,-0.948677 0.908804,-0.306056 z"
       inkscape:connector-curvature="0"
       transform="translate(0,1002.3622)" />
    <path
       style="fill:#000000;fill-opacity:1"
       id="path3230"
       d="m 2.3093434,12.707713 c 0.5947569,-0.09121 1.1966802,-0.138847 1.7949201,-0.205545 1.4001689,-0.155653 2.8002126,-0.312218 4.2015227,-0.457328 1.8713178,-0.197142 3.7458988,-0.361435 5.6220258,-0.505005 2.055609,-0.144825 4.113091,-0.260918 6.170141,-0.382927 2.034528,-0.127473 4.070759,-0.222845 6.108134,-0.289446 1.744555,-0.05175 3.489463,-0.08983 5.234196,-0.134828 1.543142,-0.04152 3.086714,-0.05981 4.630305,-0.07364 1.293899,-0.0076 2.587823,-0.0089 3.881741,-0.0074 0.962939,0.0046 1.925694,0.0019 2.88815,-0.03025 0.622523,-0.02578 1.244147,-0.06805 1.865939,-0.106802 0.20956,-0.01248 0.419146,-0.02548 0.629022,-0.03126 0.06366,-0.004 0.104329,0.0014 0.130221,0.06171 -0.116792,0.826223 -0.121862,1.002407 -0.09167,0.520764 -0.0678,-0.02601 -0.031,-0.121892 0.03679,-0.09588 l 0,0 c 0.158193,-0.447065 0.0786,-0.279949 0.01722,0.555041 0.01066,0.05644 -0.0056,0.06343 -0.06258,0.06299 -0.19695,0.0052 -0.393602,0.01811 -0.59026,0.02953 -0.632394,0.03941 -1.264707,0.08164 -1.897937,0.105436 -0.974655,0.03243 -1.949675,0.03941 -2.92484,0.03375 -1.291363,0.0017 -2.582739,3.95e-4 -3.874089,0.0074 -1.537385,0.0076 -3.074677,0.02775 -4.611596,0.06757 -1.741446,0.03879 -3.482807,0.08195 -5.223977,0.13164 -2.028094,0.0693 -4.05538,0.15845 -6.080947,0.282404 -2.052378,0.11887 -4.105204,0.231026 -6.156508,0.367541 -1.866476,0.126483 -3.732024,0.266657 -5.5928046,0.461789 -1.4041298,0.145398 -2.8078806,0.295135 -4.2134045,0.42653 -0.2735409,0.02151 -0.639492,0.05255 -0.9182533,0.06636 -0.2782568,0.01378 -0.5639537,0.02476 -0.8414603,-0.01037 -0.043796,-0.0055 -0.086663,-0.01687 -0.1299939,-0.02531 -0.5829679,0 -0.5829679,-0.824441 0,-0.824441 z"
       inkscape:connector-curvature="0"
       transform="translate(0,1002.3622)" />
    <path
       style="fill:#000000;fill-opacity:1"
       id="path3232"
       d="m 3.1605825,35.608616 c 0.5322893,-0.120895 1.0770973,-0.181551 1.6163133,-0.265058 1.077938,-0.167342 2.1532056,-0.351562 3.2276134,-0.540134 1.4604736,-0.261785 2.9255618,-0.495319 4.3944378,-0.704433 1.566899,-0.211223 3.14142,-0.357907 4.716195,-0.495266 1.486217,-0.125908 2.973703,-0.235996 4.460086,-0.359842 1.412008,-0.115601 2.824223,-0.228558 4.236689,-0.338436 1.403067,-0.107919 2.806296,-0.213745 4.209737,-0.316696 1.523725,-0.111754 3.049456,-0.190725 4.575509,-0.262049 1.359725,-0.05888 2.71968,-0.111562 4.07986,-0.158674 1.298037,-0.04344 2.596587,-0.06529 3.895252,-0.07673 1.073295,-0.0065 2.146636,-0.01096 3.219955,-0.0093 0.59023,-7.96e-4 1.180461,2.58e-4 1.770691,-3.37e-4 0.248877,-5.19e-4 0.497723,-0.0054 0.746589,-0.0067 0.280197,0.0011 0.56035,-0.0033 0.840549,-3.11e-4 0.121583,0.0054 0.242464,0.01456 0.354043,0.06231 0.04368,0.01869 0.131607,0.005 0.132512,0.0525 0.0056,0.295067 -0.07653,0.585259 -0.11479,0.877888 -0.10388,-0.08318 -0.246278,-0.122375 -0.332429,-0.227405 -0.02092,-0.02551 -0.03611,-0.05522 -0.05417,-0.08283 -0.112634,0.01419 -0.132707,-0.145096 -0.02007,-0.15929 l 0,0 c 0.01105,-0.03128 0.01854,-0.06404 0.03314,-0.09383 0.06187,-0.126273 0.202488,-0.1864 0.287139,-0.294353 -0.01876,0.290665 -0.07804,0.581539 -0.05627,0.871994 0.0034,0.04493 0.09102,0.02132 0.125394,0.05044 0.01162,0.0098 -0.02574,0.01695 -0.04021,0.02171 -0.02479,0.0082 -0.05078,0.01225 -0.0765,0.01671 -0.09449,0.01638 -0.13408,0.01704 -0.23352,0.02509 -0.265876,0.0049 -0.532335,0.001 -0.797639,0.02104 -0.262337,0.02071 -0.525092,0.0374 -0.788403,0.03657 -0.591973,0.0048 -1.183983,-0.0011 -1.775967,3.49e-4 -1.069916,0.0018 -2.139843,-0.0023 -3.209743,0.0064 -1.289003,0.01134 -2.578085,0.02842 -3.866386,0.07467 -1.35593,0.04404 -2.71162,0.09544 -4.066949,0.155272 -1.515684,0.06482 -3.030953,0.142319 -4.544256,0.250078 -1.401988,0.100084 -2.803362,0.208174 -4.204859,0.314883 -1.412447,0.106881 -2.82478,0.215242 -4.237414,0.319633 -1.484446,0.106015 -2.968377,0.219589 -4.4517,0.340289 -1.55852,0.132973 -3.117026,0.269813 -4.669379,0.463974 -1.4628,0.178192 -2.9226925,0.377858 -4.3786603,0.605642 -1.0903558,0.161004 -2.1807147,0.32565 -3.2777981,0.434809 -0.5664395,0.05278 -1.141613,0.134678 -1.7100897,0.07342 -0.4836526,0.01024 -0.4981399,-0.673744 -0.014487,-0.683989 z"
       inkscape:connector-curvature="0"
       transform="translate(0,1002.3622)" />
    <path
       style="fill:#000000;fill-opacity:1"
       id="path3234"
       d="m 49.936973,31.145256 c -4.77e-4,0.320779 -0.104641,0.629927 -0.167936,0.942162 -0.04839,0.196509 -0.09707,0.443983 -0.279531,0.566478 -0.03636,0.02441 -0.07937,0.037 -0.119061,0.05551 -0.05574,0.01372 -0.111482,0.02744 -0.167222,0.04116 0.01522,0.178333 -0.236982,0.199857 -0.252201,0.02152 l 0,0 c -0.05922,-0.02702 -0.118435,-0.05404 -0.177653,-0.08106 -0.03802,-0.03558 -0.08112,-0.06642 -0.114069,-0.106749 -0.171016,-0.209342 -0.130684,-0.513115 -0.09025,-0.757609 0.07146,-0.31054 0.12801,-0.638522 0.284307,-0.919135 0.168091,-0.766229 1.251702,-0.528512 1.083611,0.237717 z"
       inkscape:connector-curvature="0"
       transform="translate(0,1002.3622)" />
    <path
       style="fill:#000000;fill-opacity:1"
       id="path3236"
       d="m 3.7668593,33.357144 c -0.037786,0.448924 -0.1228428,0.893354 -0.1891232,1.338979 -0.087136,0.513818 -0.1483313,1.031124 -0.188681,1.550568 -0.01883,0.131579 0.00123,0.276319 -0.050522,0.402704 -0.00942,0.02299 -0.020788,0.07786 -0.04042,0.06263 -0.048234,-0.03742 -0.027627,-0.14611 -0.086756,-0.16128 -0.2242474,-0.05753 -0.4622939,-0.02593 -0.6934408,-0.03889 0.2262831,-0.380674 0.764638,-0.06066 0.5383549,0.320013 l 0,0 c -0.2449579,0.01027 -0.4945004,0.07909 -0.7348736,0.03081 -0.07259,-0.01458 -0.066644,-0.132236 -0.099783,-0.198445 -0.0834,-0.166627 -0.043906,-0.335522 -0.034847,-0.515699 0.048277,-0.566203 0.1133219,-1.132134 0.2344655,-1.687991 0.1273203,-0.499241 0.2585578,-1.012752 0.5420385,-1.44979 0.2449335,-0.568223 1.0485212,-0.221834 0.8035877,0.346388 z"
       inkscape:connector-curvature="0"
       transform="translate(0,1002.3622)" />
    <path
       style="fill:#000000;fill-opacity:1"
       id="path3238"
       d="m 2.4755269,13.394232 c 0.1016185,0.225689 0.098534,0.476155 0.1034055,0.718392 0.00741,0.368396 0.00566,0.217697 0.00425,0.5983 -0.031796,0.368031 0.058492,1.031826 -0.1463666,1.349804 -0.044025,0.06833 -0.1085939,0.12099 -0.1628908,0.181485 0.094854,0.296093 -0.3238858,0.430238 -0.4187399,0.134144 l 0,0 c -0.093688,-0.06247 -0.203802,-0.105485 -0.2810635,-0.1874 -0.3285491,-0.34834 -0.21355,-1.104833 -0.1971217,-1.539228 0.029593,-0.310746 0.025985,-0.33228 0.076572,-0.635223 0.045003,-0.269502 0.1009561,-0.544559 0.272197,-0.765501 0.1026912,-0.530159 0.8524483,-0.384931 0.7497571,0.145227 z"
       inkscape:connector-curvature="0"
       transform="translate(0,1002.3622)" />
    <path
       style="fill:#000000;fill-opacity:1"
       id="path3240"
       d="m 45.387723,11.05384 c 0.03573,0.07188 0.08263,0.139225 0.107192,0.215648 0.167547,0.521276 -0.02097,1.171839 -0.15534,1.679191 -0.09854,0.304831 -0.178794,0.618669 -0.304634,0.914219 -0.05388,0.126534 -0.125442,0.280426 -0.239777,0.368542 -0.05697,0.04391 -0.128977,0.06371 -0.193466,0.09556 -0.105496,-0.0046 -0.210992,-0.0091 -0.316488,-0.0137 -0.09792,0.166661 -0.333618,0.02818 -0.235694,-0.138485 l 0,0 c -0.07213,-0.06135 -0.144266,-0.122694 -0.216399,-0.184041 -0.02746,-0.0528 -0.06755,-0.100768 -0.08237,-0.158409 -0.03214,-0.125078 0.01205,-0.287352 0.04445,-0.402903 0.07952,-0.283562 0.199291,-0.555091 0.276473,-0.83948 0.114215,-0.375694 0.07284,-0.23195 0.174905,-0.596489 0.016,-0.05713 0.105029,-0.44366 0.15607,-0.499174 0.0139,-0.01512 0.03967,-0.01068 0.0595,-0.01602 -0.300143,-0.654475 0.625424,-1.078943 0.925568,-0.424468 z"
       inkscape:connector-curvature="0"
       transform="translate(0,1002.3622)" />
    <path
       style="fill:#000000;fill-opacity:1"
       id="path3014"
       d="m 7.7879556,1019.7056 c -0.4148444,0.07 -0.8050388,0.2148 -1.1887538,0.3826 -0.5609185,0.2653 -1.1027063,0.5821 -1.587139,0.9718 -0.100929,0.081 -0.1959828,0.1694 -0.2939741,0.2541 -0.3339778,0.3291 -0.7277061,0.7114 -0.874745,1.1726 -0.015972,0.05 -0.019047,0.1034 -0.028571,0.1551 0.00521,0.058 -0.00819,0.1184 0.048187,0.1556 0.024902,0.016 0.4241871,0.055 0.4300631,0.055 0.8471311,0.047 1.6697067,-0.2079 2.4700857,-0.4522 0.9446622,-0.3243 1.8799239,-0.7076 2.7379852,-1.2239 0.1527796,-0.092 0.2988576,-0.1946 0.4482864,-0.2918 0.2764489,-0.2133 0.4296789,-0.3072 0.6537369,-0.5645 0.05805,-0.067 0.224602,-0.2638 0.208831,-0.3963 -0.0023,-0.019 -0.0438,-0.016 -0.05785,-0 -0.02682,0.025 -0.03063,0.067 -0.04594,0.1006 -0.03316,0 -0.06631,0.013 -0.09949,0.01 -0.526763,-0.05 -0.01234,-0.071 -0.721768,-0.072 -0.6442222,-10e-4 -1.2793095,0.099 -1.9135422,0.1984 -0.3550269,0.059 -0.9448369,0.1666 -1.3094473,0.1939 -0.1980858,0.015 -0.3972168,0.01 -0.5958252,0.011 -0.2220392,0.09 -0.3497741,-0.2237 -0.1277348,-0.314 l 0,0 c 0.1614344,-0.1429 0.3065453,-0.3066 0.4843033,-0.4286 0.4544009,-0.3117 0.8132192,-0.3967 1.3294296,-0.5768 0.2504019,-0.058 0.4986541,-0.1271 0.7512056,-0.1755 0.4962072,-0.095 0.9668509,-0.1522 1.4725122,-0.1433 0.3974508,0.01 0.8945778,0.052 1.2618358,0.2326 0.183076,0.09 0.330347,0.2394 0.495521,0.3591 0.08739,0.1831 0.220227,0.3507 0.262186,0.5491 0.03666,0.1734 0.0084,0.3585 -0.03389,0.5306 -0.03824,0.1555 -0.119151,0.2991 -0.203583,0.4352 -0.281505,0.4537 -0.726286,0.7763 -1.147941,1.0856 -0.171806,0.1089 -0.340552,0.2229 -0.515417,0.3268 -0.9398284,0.5587 -1.952439,0.9865 -2.9924261,1.3193 -0.1988687,0.056 -0.3961152,0.1185 -0.5966062,0.1687 -0.8085879,0.2022 -1.6531833,0.3243 -2.4803773,0.1697 -0.2854333,-0.095 -0.4393973,-0.1201 -0.6827316,-0.3045 -0.2881785,-0.2184 -0.4511068,-0.5234 -0.4686943,-0.8844 -0.0051,-0.1048 0.016408,-0.2091 0.024611,-0.3136 0.031104,-0.1013 0.054402,-0.2053 0.093312,-0.3039 0.2338192,-0.5923 0.7006679,-1.052 1.178259,-1.4534 0.6630688,-0.5091 1.356594,-0.9849 2.1384862,-1.2947 0.4735153,-0.1659 0.9789726,-0.3339 1.4866994,-0.2455 0.4271632,0.01 0.4180767,0.6105 -0.00909,0.6041 z"
       inkscape:connector-curvature="0" />
  </g>
</svg>
