<svg xmlns="http://www.w3.org/2000/svg" viewBox="0 0 86.9 93.77"><defs><style>.cls-1{fill:#2a3da0;stroke:none;}</style></defs><title>layer1</title><g id="Layer_2" data-name="Layer 2"><g id="Content"><g id="layer1"><path class="cls-1" d="M71.39,7C67.86,1.81,78.63-3,81,2.29c1.15,2.54-1.69,5.09-3.1,6.88a11.8,11.8,0,0,0-2.28,4c-.25.89-.1,2.25-1,2.8-2.77,1.76-1.6-4-1.16-5a16.3,16.3,0,0,1,2.71-3.88c.64-.74,2.5-2.2,2.66-3.2.34-2.17-3.7-1.62-4.84-.65s-.61,1.86-.85,3.09C73.07,7,72.22,8.47,71.39,7Z"/><path class="cls-1" d="M75.89,18.15c-1.25-1.8-4.91.59-3.53,2.55C74,23,77.49,20.46,75.89,18.15Z"/><path class="cls-1" d="M27.34,56c-1.11-3.84,4.48-7,7.7-6.07,4.42,1.3-.6,7.4-1.47,9.69-.44,1.19-.26,4-1.3,4.74-1.38,1-1.84-1.82-1.85-2.84a7.6,7.6,0,0,1,1.85-5.1c1-1.3,2.59-3,2.19-4.46-.29-1-4.09.3-4.74,1.65-.28.59-.52,2.41-1,2.87A.85.85,0,0,1,27.34,56Z"/><path class="cls-1" d="M48.26,77.77c-.76-5.32,11.93-7,10.6-1.1-.6,2.63-2.88,4.76-3.8,7.29-.51,1.39-.85,4.85-2.06,4.36-2.4-1-.92-4.93-.14-6.51.52-1,4.21-5.36,3.66-6.4s-4.21,0-4.94.37c-1.14.66-.92,1.17-1.57,2.1C49.72,78.3,48.48,79.28,48.26,77.77Z"/><path class="cls-1" d="M55.77,90.75c-.39-2.73-4.69-1.43-4.4,1.08C51.71,94.69,56.13,93.27,55.77,90.75Z"/><path class="cls-1" d="M9.59,2.2a26.06,26.06,0,0,1-.42,5.64q-.36,2.85-.6,5.71c-.13,1.66-.06,3.58-.74,5.13-.28.63-.7.75-1.38.61S5.72,18.55,5.6,18a17.85,17.85,0,0,1,.05-5.46c.2-2,.46-4,.8-6,.16-.93.35-1.85.58-2.76A7.4,7.4,0,0,1,7.8,1.4,1,1,0,0,1,9.59,2.2Z"/><path class="cls-1" d="M35.11,3.74C32.76-.52,25.9,1,23.14,4.85c-1.74,2.42-3.16,5.56-3,8.57.26,4.9,5.24,9,10.11,7C35.91,18,37.9,8.8,35.11,3.74ZM30.43,16.58c-2.76,2.5-6.66.81-7.37-2.71s.49-7.5,3.33-9.41,5.22-.73,6.1.89C34.24,8.57,33.13,14.15,30.43,16.58Z"/><path class="cls-1" d="M56.49,1.49a17.57,17.57,0,0,1-.79,5.06c-.48,2.11-1,4.22-1.38,6.35-.31,1.6-.21,4-1.17,5.38A1.27,1.27,0,0,1,50.94,18c-.66-1.58.06-4.06.36-5.66.38-2,.83-4.09,1.37-6.1a34.74,34.74,0,0,1,1.5-4.56c.24-.58.45-1.25,1.17-1.32A1.08,1.08,0,0,1,56.49,1.49Z"/><path class="cls-1" d="M5.48,27A11.59,11.59,0,0,0,0,37.73c.2,5.23,4.91,9.65,10.21,8C21.82,42.15,17,19.23,5.48,27Zm8.32,9.72c-.91,4.22-5.52,9-9.62,4.72-3-3.13-1.3-10.52,3-12.2C12.53,27.15,14.83,31.92,13.8,36.72Z"/><path class="cls-1" d="M41.09,31.56a7.91,7.91,0,0,0-8.34-5,15.61,15.61,0,0,0-6,2.45,12.33,12.33,0,0,0-4.14,6.44c-1.11,4.33,1.35,8.25,5.22,10.13C36.69,49.87,44.21,39.78,41.09,31.56Zm-4.28,9.89a6.94,6.94,0,0,1-10.94-1.12c-1.87-2.88-.63-7.2,2.07-9.26a10.31,10.31,0,0,1,2.58-1.55,9.08,9.08,0,0,1,5.48.33C40.23,31.81,39.45,38.55,36.81,41.45Z"/><path class="cls-1" d="M54.49,27.34a22.17,22.17,0,0,1-.15,4.38c-.14,2.05-.28,4.11-.34,6.18a32.85,32.85,0,0,1-.29,6.35c-.33,1.46-1.84,1.79-2.37.24-.65-1.92-.41-4.18-.35-6.17.08-2.22.18-4.44.47-6.65.2-1.47.33-3.75,1.22-5C53.3,25.8,54.77,26.11,54.49,27.34Z"/><path id="path3336" class="cls-1" d="M77.54,26.67c-.37,3.43-1,6.83-1.35,10.26-.26,2.28-.19,4.59-.57,6.85-.31,1.78-1.74,2.24-2.32.28-1.12-3.78-.08-8.33.55-12.15a33.51,33.51,0,0,1,1-5.08C75.19,25.81,77.66,25.16,77.54,26.67Z"/><path class="cls-1" d="M59.21,52.08c-1.87-1.87-6.93-2.57-9.61-.9-4,2.49-5.39,13-2.23,16.12a8.77,8.77,0,0,0,9,1.85c3.25-1.25,4.79-4.41,5.3-7.69S61.58,54.46,59.21,52.08ZM56.69,65.53c-2.44,2.11-7.45.87-8.28-2.3-.88-3.37.19-10.92,5.83-10.45a5,5,0,0,1,4,2.45C59.64,57.94,59.11,63.44,56.69,65.53Z"/><path class="cls-1" d="M14.81,74.45a8.06,8.06,0,0,0-5.07-1.09c-4,.37-7.17,3-7.51,9.73C2,87.68,4.63,90.93,9,91.6c4.16.64,8-1.08,9.24-5.3C19.35,82.46,18.41,76.77,14.81,74.45Zm1,9.23c-.31,4.66-4.62,6.8-8.72,4.54S5.21,78,7.9,76.85s4.84-.53,5.7.16C15.45,78.49,16,81.45,15.82,83.68Z"/><path class="cls-1" d="M77.92,72.77c-5.46-.44-8.79,1.49-10.3,4.79a15.72,15.72,0,0,0-1.38,8.13c.7,5.43,5.88,8.79,11.21,8C89.5,91.76,90.42,73.77,77.92,72.77Zm-6.21,17C67,86.88,68.3,78.68,73.64,75.73c4.88-2.7,11.26,3,9.83,9C82.27,89.78,76.25,92.61,71.71,89.8Z"/><path class="cls-1" d="M33,75.36c.86,3.64.49,7.56.7,11.27.08,1.35.47,3.25-.06,4.54-.31.78-1.07,1.31-1.7.52-.95-1.2-1-3.44-1.09-4.91a55.46,55.46,0,0,1-.08-5.91,24.31,24.31,0,0,1,.69-5.51c.12-.4.18-.76.69-.81A.78.78,0,0,1,33,75.36Z"/><path class="cls-1" d="M12,51.21c-.15,2-.71,3.95-1,5.93a48.22,48.22,0,0,0-.48,6.12c0,1.38.31,3.55-.63,4.71s-1.77.12-2-.93a19.31,19.31,0,0,1,0-5.63,34.71,34.71,0,0,1,.84-5.83c.36-1.5.71-3.75,1.58-5A1,1,0,0,1,12,51.21Z"/><path class="cls-1" d="M78.93,51.31a26.79,26.79,0,0,1-.7,4.54c-.38,2.13-.68,4.28-.9,6.43-.1.9-.58,6.93-2.51,4.62-1-1.19-.72-3.07-.58-4.47a61.69,61.69,0,0,1,.89-6.2c.36-1.73.72-4.09,1.83-5.52C77.57,49.92,79.19,50,78.93,51.31Z"/><path class="cls-1" d="M33.61,66.4c-1.25-2.12-5.53.25-4.16,2.56C31,71.64,35.2,69.11,33.61,66.4Z"/></g></g></g></svg>
