<svg xmlns="http://www.w3.org/2000/svg" viewBox="0 0 84.54 78.25"><defs><style>.cls-1{fill:#2a3da0;stroke:none;}</style></defs><title>layer1 (2)</title><g id="Layer_2" data-name="Layer 2"><g id="Content"><g id="layer1"><path class="cls-1" d="M56.84,66.86c.3-5.76-.15-8.48.07-15.11.06-1.83,0-8.26-.13-10.11-.1-2.3-.26-2.65-2.69-2.62-5.89,0-18.46,0-24.23.35-1.28.08-2,.58-2,2.16.06,2.78-.17,9-.14,11.8s0,11.66.08,13.32c.05,2.16,1.1,2.62,2.48,2.57,6.86-.24,21-.08,24,0C56.09,69.24,56.74,68.77,56.84,66.86Zm-3.37-.07c-4.59.16-16.65,0-21.89,0-.61,0-1.19-.28-1.22-.95-.2-5,0-13.19,0-16.39,0-2.56,0-5.12,0-6.41-.05-1.49.94-1.48,1.82-1.54,2.43-.16,18.74-.4,21.45-.44.79,0,.88.81.9,1.38.08,2.19-.24,19.66-.12,23C54.43,66.46,54.08,66.77,53.47,66.79Z"/><path class="cls-1" d="M53.12,39.84a74.67,74.67,0,0,0-.56-8.24C51.75,27,49.42,21,44.31,20.13c-5.42-.93-9.06.9-11.7,6.93-1.43,3.28-1,9.15-.92,12.78,0,.51,2,0,2-.22,0-2.38-.1-8,.65-11,.94-3.71,3.52-6.16,7.42-6.36,8.55-.44,8.83,11,9.39,17.53C51.18,40.31,53.12,40.16,53.12,39.84Z"/><path class="cls-1" d="M48.28,30.62C47.55,27.09,46,23.67,41.8,24c-6.84.53-6.44,10-6.29,15.54,0,.33,1.82.44,1.81,0,0-1.43,0-3.76.09-5.4.09-2.94,1.42-8.29,5-8.12,4.86.22,4.35,10.62,4.34,13.9,0,.41,2.13.52,2.15,0A52.57,52.57,0,0,0,48.28,30.62Z"/><path class="cls-1" d="M84.37,74.81c.4-13.39,0-51.35,0-64.21,0-2.44-1.08-3.15-3.46-3.15-4.25,0-28.18-.52-45.47-.25-1.18,0-1.08.07-3.5,4.54-1.35,2.49-1.51,2.39-2.25,2.4-8.91.14-22.7.41-26.9.34-2,0-2.49.47-2.55,2.75-.29,9.44-.2,46-.2,55.62,0,4.34,1.51,5.4,4.68,5.4,14.56,0,60-.48,76.41-.48C83.6,77.77,84.31,77.31,84.37,74.81ZM82.25,72.2c-.06,2.75-1,3.47-3.93,3.47-17.66,0-60.72.06-73.19-.1a2.79,2.79,0,0,1-2.77-2.69c0-13.36.26-51.14.26-53.4s.11-2.64,1.64-2.66c1.82,0,14.33-.36,26.37-.44,1.21,0,1.47.17,3.47-3.59,1.71-3.2,1.69-3.51,2.71-3.5,18.3.14,37,.09,41.7.06,2.1,0,3.47.56,3.54,2.13.11,2.52.17,25.69.19,29C82.29,50.1,82.46,62.57,82.25,72.2Z"/><path class="cls-1" d="M32.57,5.58c-1-1.22-.74-1.08-1.79-2.37-.51-.63-.65-1-1.59-.92-5.39.18-19.94,0-25.58,0-1.17,0-1.18.33-1.17.91.05,3.68.08,5.35.08,8.91,0,1.32-2.24,1.22-2.25.12C.27,9,.22,6.31.27,1.9.3-.27,2.43.18,4.15.18,13,.18,19.45,0,29.36,0c1.83,0,1.95.41,2.45,1.08,1,1.36,1.33,1.77,2.67,3.46C35.21,5.47,33.37,6.6,32.57,5.58Z"/></g></g></g></svg>
