<?xml version="1.0" encoding="UTF-8" standalone="no"?>
<!-- Created with Inkscape (http://www.inkscape.org/) -->

<svg
   xmlns:dc="http://purl.org/dc/elements/1.1/"
   xmlns:cc="http://creativecommons.org/ns#"
   xmlns:rdf="http://www.w3.org/1999/02/22-rdf-syntax-ns#"
   xmlns:svg="http://www.w3.org/2000/svg"
   xmlns="http://www.w3.org/2000/svg"
   xmlns:sodipodi="http://sodipodi.sourceforge.net/DTD/sodipodi-0.dtd"
   xmlns:inkscape="http://www.inkscape.org/namespaces/inkscape"
   width="50"
   height="50"
   id="svg3213"
   version="1.1"
   inkscape:version="0.48.4 r9939"
   sodipodi:docname="sys-computer-graphics-logo.svg">
  <sodipodi:namedview
     id="base"
     pagecolor="#ffffff"
     bordercolor="#666666"
     borderopacity="1.0"
     inkscape:pageopacity="0.0"
     inkscape:pageshadow="2"
     inkscape:zoom="16.22"
     inkscape:cx="25"
     inkscape:cy="25.19899"
     inkscape:document-units="px"
     inkscape:current-layer="layer1"
     showgrid="false"
     inkscape:window-width="1680"
     inkscape:window-height="998"
     inkscape:window-x="1672"
     inkscape:window-y="486"
     inkscape:window-maximized="1" />
  <metadata
     id="metadata3218">
    <rdf:RDF>
      <cc:Work
         rdf:about="">
        <dc:format>image/svg+xml</dc:format>
        <dc:type
           rdf:resource="http://purl.org/dc/dcmitype/StillImage" />
        <dc:title />
      </cc:Work>
    </rdf:RDF>
  </metadata>
  <g
     inkscape:label="Layer 1"
     inkscape:groupmode="layer"
     id="layer1"
     transform="translate(0,-1002.3622)">
    <path
       style="fill:#000000"
       id="path3682"
       d="m 9.2517497,1.5227367 c 0.057706,0.3664495 0.086189,0.7376086 0.1101283,1.1076416 0.044323,0.6451523 0.055637,1.2917488 0.060686,1.9382132 0.010887,0.8728435 0.00108,1.7457294 0.00963,2.6185965 0.00655,1.0608388 0.063316,2.1202834 0.09987,3.180261 0.053833,1.256687 0.092951,2.513855 0.1127704,3.77153 0.015906,1.434021 -0.016784,2.867954 -0.05146,4.301458 -0.034147,1.510219 -0.092263,3.019793 -0.156141,4.529013 -0.074726,1.567718 -0.2021163,3.132326 -0.3463153,4.695005 -0.1503151,1.584736 -0.3163232,3.167831 -0.4583071,4.753374 -0.1388933,1.577273 -0.2617893,3.155674 -0.3679814,4.735478 -0.1017077,1.557996 -0.1831337,3.117104 -0.2704128,4.675933 -0.084937,1.255428 -0.133989,2.514811 -0.2552408,3.76762 -0.022974,0.237373 -0.05338,0.473968 -0.08007,0.710952 -0.1613142,0.882729 -0.05126,0.454607 -0.3256858,1.285511 -0.030756,0.541398 -0.7964081,0.497903 -0.7656524,-0.0435 l 0,0 c -0.1777202,-0.867093 -0.1205944,-0.424316 -0.1667332,-1.32892 0.00618,-0.238884 0.00838,-0.477905 0.018545,-0.716653 0.017296,-0.406306 0.067676,-1.074996 0.094168,-1.47935 0.049665,-0.758035 0.093306,-1.516467 0.143574,-2.274465 0.096694,-1.562363 0.1797955,-3.125508 0.2847239,-4.687324 0.1099088,-1.589632 0.2256875,-3.179196 0.3734235,-4.765791 0.1480457,-1.585278 0.3044219,-3.169763 0.4629063,-4.754029 0.142417,-1.542777 0.270462,-3.086844 0.3421458,-4.634797 0.07543,-1.500044 0.1189723,-3.001189 0.1597031,-4.502517 0.040057,-1.416081 0.080823,-2.832568 0.060167,-4.249396 C 8.3262159,12.909608 8.3077213,11.662632 8.2508499,10.41671 8.2053352,9.3429355 8.184258,8.2682493 8.1771687,7.1935494 8.1768043,6.3092472 8.1725267,5.4242075 8.2190673,4.5408264 8.2534947,3.8974262 8.3099888,3.2556291 8.3766494,2.6148005 8.4119866,2.24961 8.4516233,1.8837364 8.5180092,1.5227367 c 0,-0.5188329 0.7337405,-0.5188329 0.7337405,0 z"
       inkscape:connector-curvature="0"
       transform="translate(0,1002.3622)" />
    <path
       style="fill:#000000"
       id="path3686"
       d="m 1.1033917,41.785884 c 0.5051391,-0.03467 1.0083673,-0.08756 1.5109964,-0.147994 1.0096551,-0.134997 2.0196583,-0.2642 3.032766,-0.370468 1.3622706,-0.126847 2.7281457,-0.209654 4.0936272,-0.292842 1.7036767,-0.09715 3.4089727,-0.161386 5.1137737,-0.234807 1.975027,-0.0643 3.948528,-0.167233 5.923369,-0.236805 2.09365,-0.09059 4.188304,-0.152037 6.282934,-0.214201 2.094638,-0.07039 4.189723,-0.125409 6.284268,-0.19865 2.027257,-0.05599 4.054648,-0.100398 6.082657,-0.113826 1.813968,-0.02141 3.628008,7.12e-4 5.438965,0.109174 0.463289,0.04629 1.082767,0.09129 1.541032,0.201421 0.228217,0.05485 0.446438,0.145109 0.669658,0.217664 0.399009,0.02003 0.370677,0.584318 -0.02833,0.564285 l 0,0 c -0.228679,0.04987 -0.454232,0.117232 -0.686036,0.149597 -0.430583,0.06012 -1.111359,0.05521 -1.539018,0.06105 -1.794964,-0.02041 -3.589805,-0.06915 -5.385057,-0.0482 -2.018981,0.02273 -4.038338,0.04131 -6.056277,0.114821 -2.095582,0.05216 -4.190463,0.127382 -6.286099,0.177601 -2.091569,0.05906 -4.183006,0.122245 -6.274504,0.183775 -1.97403,0.07531 -3.948841,0.130492 -5.922416,0.21717 -1.699369,0.05631 -3.39873,0.11435 -5.0972258,0.193324 -1.3494969,0.06334 -2.6987028,0.139853 -4.043724,0.269372 -1.0164739,0.09586 -2.0308052,0.212773 -3.0478566,0.30229 -0.5530384,0.03594 -1.1152454,0.08071 -1.6641605,-0.02116 -0.6240847,-0.04006 -0.56742512,-0.922653 0.05666,-0.882589 z"
       inkscape:connector-curvature="0"
       transform="translate(0,1002.3622)" />
    <path
       style="fill:#000000"
       id="path3790"
       d="m 20.821747,1013.1444 c 0.12511,0.4883 0.161449,0.9955 0.192425,1.4972 0.03602,1.0725 0.0067,2.1471 -0.03401,3.2192 -0.06837,1.4158 -0.10108,2.8323 -0.103697,4.2497 -0.02219,1.6454 0.08938,3.2885 0.19988,4.9292 0.05324,0.7926 0.116474,1.5844 0.162043,2.3775 0.01854,0.3226 0.0551,1.0081 0.05045,1.3438 -0.0026,0.1871 -0.02099,0.3737 -0.03149,0.5605 -0.140824,0.6148 -0.01954,0.3375 -0.348549,0.8385 -0.03887,0.5376 -0.799254,0.4827 -0.760383,-0.055 l 0,0 c -0.266643,-0.4399 -0.161561,-0.1959 -0.296099,-0.7399 -0.02182,-0.1779 -0.04854,-0.3552 -0.06547,-0.5336 -0.02491,-0.2625 -0.07137,-1.0722 -0.08662,-1.3158 -0.04953,-0.7911 -0.105282,-1.5818 -0.161712,-2.3724 -0.113305,-1.6837 -0.202274,-3.3697 -0.176032,-5.058 0.04472,-1.4385 0.115911,-2.8763 0.250771,-4.3095 0.09077,-1.0471 0.198674,-2.0926 0.264919,-3.1417 0.03849,-0.4984 0.07315,-1.0004 0.179695,-1.4897 0,-0.5401 0.763873,-0.5401 0.763873,0 z"
       inkscape:connector-curvature="0" />
    <path
       style="fill:#000000"
       id="path3806"
       d="m 21.328433,1012.617 c 0.367741,-0.1789 0.767429,-0.2641 1.160204,-0.3513 0.676058,-0.1354 1.35761,-0.2346 2.037473,-0.3442 1.035884,-0.1479 2.074726,-0.2681 3.114122,-0.3825 1.296794,-0.134 2.597543,-0.2112 3.898115,-0.2857 1.419644,-0.075 2.840315,-0.1254 4.26095,-0.1721 1.411462,-0.049 2.823512,-0.071 4.2354,-0.1 1.125992,-0.032 2.252343,-0.044 3.378683,-0.047 0.489628,0 0.983509,0 1.45815,0.1447 0.403742,0.1737 0.552672,0.4281 0.597774,0.8838 0.0184,0.3416 -0.0011,0.684 -0.0138,1.0255 -0.02893,0.6048 -0.03874,1.2102 -0.04659,1.8157 -0.0077,0.8438 -0.01244,1.6877 -0.0078,2.5315 -0.0053,0.9918 0.05619,1.9817 0.124009,2.9702 0.08003,1.028 0.165769,2.0556 0.261276,3.0821 0.08899,0.9074 0.186537,1.8138 0.259386,2.7229 0.03015,0.4706 0.06728,0.9419 0.05521,1.4141 -0.0076,0.2967 -0.01617,0.3312 -0.0447,0.6231 -0.06445,0.4765 -0.196536,0.9422 -0.423407,1.3581 -0.04434,0.081 -0.09513,0.1583 -0.142698,0.2374 -0.268057,0.3997 -0.612011,0.7275 -1.007129,0.9725 -0.08338,0.052 -0.170412,0.096 -0.255618,0.1443 -0.591588,0.3072 -1.234791,0.461 -1.873759,0.6014 -0.887843,0.1871 -1.78695,0.2987 -2.686218,0.3964 -1.122664,0.1081 -2.248793,0.1632 -3.374679,0.2128 -1.263657,0.054 -2.527987,0.092 -3.792296,0.1238 -1.293086,0.038 -2.586591,0.052 -3.879928,0.075 -1.195799,0.024 -2.391515,0.054 -3.586784,0.1 -0.991579,0.038 -1.981833,0.1069 -2.971771,0.178 -0.348482,0.026 -0.698382,0.053 -1.048037,0.046 -0.161341,0 -0.323332,-0.01 -0.479028,-0.062 -0.05825,-0.02 -0.11111,-0.055 -0.166664,-0.082 -0.2022,-0.1894 -0.115653,-0.064 -0.214159,-0.4089 -0.135496,-0.017 -0.112852,-0.2254 0.02265,-0.208 l 0,0 c 0.06481,-0.3207 -1.18e-4,-0.1973 0.151838,-0.3932 0.05151,-0.032 0.0998,-0.072 0.15454,-0.097 0.145496,-0.067 0.301672,-0.091 0.456751,-0.1133 0.344198,-0.05 0.691662,-0.073 1.038007,-0.097 1.002343,-0.068 2.004933,-0.1328 3.008602,-0.174 1.203678,-0.049 2.407634,-0.086 3.612169,-0.099 1.290212,-0.024 2.580384,-0.049 3.870528,-0.077 1.25766,-0.034 2.515023,-0.076 3.772278,-0.1246 1.100374,-0.046 2.201337,-0.096 3.297494,-0.2146 0.854291,-0.09 1.709135,-0.1883 2.552343,-0.3667 0.523317,-0.1189 1.050026,-0.2422 1.54045,-0.4806 0.295235,-0.16 0.576443,-0.3472 0.776574,-0.6398 0.187787,-0.2907 0.315368,-0.6075 0.355061,-0.9635 0.06243,-0.5864 0.03052,-1.1762 -0.01226,-1.7633 -0.06893,-0.9021 -0.15984,-1.8018 -0.247811,-2.7018 -0.09693,-1.0421 -0.189631,-2.0847 -0.246905,-3.1304 -0.05625,-1.0208 -0.104786,-2.0426 -0.104645,-3.0655 0.008,-0.8528 0.01981,-1.7056 0.04697,-2.558 0.01745,-0.6159 0.03577,-1.2319 0.06427,-1.8473 0.01424,-0.2853 0.03193,-0.5707 0.02915,-0.8565 6.15e-4,-0.01 -0.0012,-0.02 0.0018,-0.016 0.02778,0.038 0.01408,0.1038 0.06665,0.1264 0.04405,0.057 0.105532,0.1164 0.176321,0.1274 -0.0809,-0.035 -0.181458,-0.035 -0.26579,-0.039 -0.284152,-0.014 -0.568956,-0.013 -0.853287,-0.017 -1.12055,0.01 -2.240907,0.031 -3.36139,0.045 -1.407405,0.026 -2.814652,0.058 -4.221874,0.093 -1.413015,0.043 -2.825674,0.096 -4.237892,0.1635 -1.283133,0.062 -2.565807,0.1416 -3.845201,0.2665 -1.029855,0.097 -2.057796,0.2156 -3.084404,0.3472 -0.662954,0.07 -1.326033,0.143 -1.984885,0.2502 -0.350403,0.06 -0.698041,0.1347 -1.04638,0.2065 -0.656976,0.2359 -0.964426,-0.7725 -0.30745,-1.0084 z"
       inkscape:connector-curvature="0" />
    <path
       style="fill:#000000"
       id="path3818"
       d="m 10.828538,10.847771 c 0.355779,-0.02908 0.712623,-0.04073 1.069154,-0.05635 0.406642,-0.0058 0.81309,-0.04939 1.219543,-0.02481 0.13235,0.0214 0.279413,0.02964 0.37467,0.139497 0.03816,0.044 0.06207,0.09857 0.09311,0.147858 0.0775,-0.0065 0.0867,0.103093 0.0092,0.1096 l 0,0 c -0.02563,0.05404 -0.04251,0.113181 -0.07688,0.162129 -0.0844,0.120187 -0.235157,0.142528 -0.365288,0.176847 -0.411348,0.06379 -0.829223,0.05616 -1.244486,0.06324 -0.361867,-0.0063 -0.723629,-0.01806 -1.084017,-0.05359 -0.469813,-0.0035 -0.464816,-0.667949 0.005,-0.664416 z"
       inkscape:connector-curvature="0"
       transform="translate(0,1002.3622)" />
    <path
       style="fill:#000000"
       id="path3820"
       d="m 15.53764,10.770395 c 0.386293,-0.03915 0.775678,-0.04826 1.163753,-0.05672 0.330056,0.0012 0.662443,-0.02716 0.991141,0.01648 0.07184,0.0095 0.144621,0.01796 0.213767,0.03966 0.06548,0.02055 0.124665,0.05741 0.186998,0.08612 0.203294,-0.0088 0.215741,0.278701 0.01245,0.287502 l 0,0 c -0.06236,0.03411 -0.120648,0.07707 -0.187094,0.102318 -0.06909,0.02626 -0.143043,0.03804 -0.215848,0.05081 -0.327216,0.05739 -0.661379,0.03494 -0.99153,0.04681 -0.388223,0.0037 -0.777609,0.01094 -1.165272,-0.01107 -0.397337,0.0059 -0.405699,-0.556007 -0.0084,-0.561919 z"
       inkscape:connector-curvature="0"
       transform="translate(0,1002.3622)" />
    <path
       style="fill:#000000"
       id="path3822"
       d="m 10.618311,29.99766 c 0.402354,-0.08776 0.816011,-0.09646 1.225999,-0.107159 0.250508,0.0212 0.523923,0.04045 0.75441,0.154236 0.08871,0.04379 0.165185,0.10892 0.247777,0.16338 0.08733,-0.0022 0.09041,0.121333 0.0031,0.123507 l 0,0 c -0.08061,0.05852 -0.154502,0.127644 -0.24183,0.175568 -0.222347,0.122017 -0.492315,0.15103 -0.737633,0.187448 -0.416759,0.0159 -0.839066,0.04373 -1.251798,-0.03255 -0.469826,0 -0.469826,-0.664434 0,-0.664434 z"
       inkscape:connector-curvature="0"
       transform="translate(0,1002.3622)" />
    <path
       style="fill:#000000"
       id="path3824"
       d="m 14.947114,29.796366 c 0.428178,-0.04199 0.859078,-0.0432 1.288901,-0.04243 0.282015,0.0091 0.642566,-0.02172 0.899946,0.123824 0.105379,0.05959 0.185344,0.155787 0.278016,0.23368 0.0245,2.12e-4 0.0242,0.03486 -2.99e-4,0.03465 l 0,0 c -0.09412,0.07628 -0.175836,0.171132 -0.282357,0.228842 -0.258412,0.140001 -0.616003,0.102948 -0.8966,0.108222 -0.429385,-7.63e-4 -0.859863,-0.0014 -1.287607,-0.04345 -0.454911,0 -0.454911,-0.643341 0,-0.643341 z"
       inkscape:connector-curvature="0"
       transform="translate(0,1002.3622)" />
    <path
       style="fill:#000000"
       id="path3830"
       d="m 20.6975,32.092855 c 0.0474,0.409481 0.04078,0.82306 0.03586,1.234552 -0.01359,0.125502 -0.03443,0.401821 -0.08384,0.521488 -0.03714,0.08996 -0.102613,0.165409 -0.15392,0.248114 -1.53e-4,0.156608 -0.221631,0.156392 -0.221478,-2.16e-4 l 0,0 c -0.05115,-0.0829 -0.116529,-0.158548 -0.153437,-0.248689 -0.0495,-0.120909 -0.06878,-0.396308 -0.08189,-0.522947 -0.0023,-0.415129 -0.0062,-0.833186 0.05467,-1.244863 0.0089,-0.42712 0.61292,-0.414558 0.604038,0.01256 z"
       inkscape:connector-curvature="0"
       transform="translate(0,1002.3622)" />
    <path
       style="fill:#000000"
       id="path3834"
       d="m 20.706165,36.168157 c 0.07347,0.516526 0.0861,1.036046 0.08347,1.556824 -0.01184,0.236806 -0.0058,0.423223 -0.07878,0.652632 -0.0341,0.10715 -0.09234,0.205059 -0.138511,0.307589 -7.06e-4,0.331327 -0.469275,0.330329 -0.468569,-9.99e-4 l 0,0 c -0.04573,-0.103773 -0.103969,-0.202893 -0.137192,-0.31132 -0.07115,-0.232187 -0.06118,-0.41972 -0.06882,-0.6586 0.0099,-0.526734 0.03964,-1.051342 0.147366,-1.568606 0.0159,-0.467425 0.676934,-0.444945 0.661038,0.02248 z"
       inkscape:connector-curvature="0"
       transform="translate(0,1002.3622)" />
    <path
       style="fill:#000000"
       id="path3838"
       d="m 45.44533,30.709869 c 0.07199,0.515789 0.0872,1.037495 0.08235,1.557618 -0.01805,0.300146 0.02895,0.619063 -0.05877,0.912937 -0.02617,0.08766 -0.07622,0.166338 -0.114326,0.249507 -0.003,0.356885 -0.507683,0.352683 -0.504712,-0.0042 l 0,0 c -0.03672,-0.08424 -0.08563,-0.164164 -0.110145,-0.252731 -0.08225,-0.297193 -0.02749,-0.61692 -0.03608,-0.918857 0.01213,-0.526299 0.04085,-1.055944 0.151724,-1.571956 0.01958,-0.417164 0.609535,-0.38948 0.589959,0.02768 z"
       inkscape:connector-curvature="0"
       transform="translate(0,1002.3622)" />
    <path
       style="fill:#000000"
       id="path3840"
       d="m 45.443291,35.220662 c 0.100251,0.376908 0.118606,0.773625 0.138469,1.161822 -0.0063,0.353975 0.06148,0.729658 -0.05579,1.073855 -0.02796,0.08207 -0.07575,0.155983 -0.113631,0.233974 0.0082,0.310978 -0.431563,0.322612 -0.43979,0.01163 l 0,0 c -0.04195,-0.07584 -0.09369,-0.147044 -0.125839,-0.22753 -0.136218,-0.340991 -0.08665,-0.723611 -0.102565,-1.080248 0.009,-0.391659 0.01692,-0.793612 0.120594,-1.173507 0,-0.4091 0.578555,-0.4091 0.578555,0 z"
       inkscape:connector-curvature="0"
       transform="translate(0,1002.3622)" />
  </g>
</svg>
