<svg xmlns="http://www.w3.org/2000/svg" viewBox="0 0 93.73 82.91"><defs><style>.cls-1{fill:#2a3da0;stroke:none;}</style></defs><title>Asset 6</title><g id="Layer_2" data-name="Layer 2"><g id="Content"><g id="layer1"><path class="cls-1" d="M13.36,1.79c.19,9.66-.57,41.09-.5,49.32.09,9.61.18,21.41-.32,30.11-.1,1.74-2.09,2.91-2.25-.5C9.86,72,9.87,52.47,10.2,43.3c.17-4.71.73-38.25.84-41.33S13.32-.28,13.36,1.79Z"/><path class="cls-1" d="M1.24,70.72c6.48-.47,13.11-.64,19.61-1s13-.53,19.51-.77c13.16-.47,17.59-.57,30.76-.48,3.2,0,17.64-.1,20.83,0,2,.1,2.71,2.16,0,2.85-1.53.39-12.31.21-15.92.22-13.13,0-26.27,0-39.38.41-7.27.22-14.29.61-21.81.83-3.4.1-13,.11-13.94,0C-.67,72.72.06,70.61,1.24,70.72Z"/><path class="cls-1" d="M87,43.93c.27-8.52-.5-27.77-1.37-35.59-.17-1.54-1.08-2.12-5.17-2-4.33.08-33.7,1.4-41.71,1.75-3.91.17-5.13.73-5.28,3.5-.32,6,1,26.23.83,32.38-.09,3.71,0,4.85,5.19,4.6,9-.43,33.64-.18,43.81-.81C86.75,47.5,87,45.51,87,43.93Zm-3.06-2.48c-.21,1.86-1.38,3.11-4.75,3.22-10.51.32-33.38.94-40.81,1-1.19,0-.9-1.24-.87-1.79.35-8.25-.88-30.78-.9-32.18,0-.94.49-1.15,1.4-1.19,4.7-.2,38.24-1.79,43.12-2,1.25,0,1.89,0,2,.92.1,1.56.41,11.44.48,13.46C83.74,28.92,84.56,35.53,83.93,41.45Z"/><path id="path3822" class="cls-1" d="M21,46.61c.89.17.26,1.57-.24,1.74a30.76,30.76,0,0,1-4.53-.1A.92.92,0,0,1,16,46.43,19.6,19.6,0,0,1,21,46.61Z"/><path class="cls-1" d="M25.45,46.56c.9-.09,1.81-.09,2.72-.09a12,12,0,0,1,2.15.11c.78.2.49,1.52-.15,1.64a36.29,36.29,0,0,1-4.72.07C24.5,48.29,24.5,46.56,25.45,46.56Z"/><path class="cls-1" d="M86.36,52.34c0,.68.69,6.46-1.54,4.49-.73-.64-.45-2.06-.41-3a13.74,13.74,0,0,1,.32-2.75C84.91,50.83,86.22,50,86.36,52.34Z"/><path class="cls-1" d="M86.35,60.7a18.73,18.73,0,0,1,.05,4.67c-.19,1.15-1.24,1.56-1.63.32a15.91,15.91,0,0,1-.1-4.52c0-.86.28-.91.67-1A.85.85,0,0,1,86.35,60.7Z"/><path class="cls-1" d="M17.45,9.57c.67,0,6.45-.68,4.48,1.55-.64.72-2.05.44-3,.41a13.82,13.82,0,0,1-2.75-.32C15.93,11,15.11,9.72,17.45,9.57Z"/><path class="cls-1" d="M25.32,9.48A18.72,18.72,0,0,1,30,9.43c1.15.19,1.55,1.24.31,1.63a15.91,15.91,0,0,1-4.52.1c-.86-.05-.91-.28-1-.67A.86.86,0,0,1,25.32,9.48Z"/><path class="cls-1" d="M37.61,61.09c.08.91.09,1.81.09,2.72A11.13,11.13,0,0,1,37.58,66c-.2.78-1.51.5-1.63-.15a34.6,34.6,0,0,1-.07-4.72C35.88,60.14,37.61,60.14,37.61,61.09Z"/><path class="cls-1" d="M35.66,56.36a18.72,18.72,0,0,1,0-4.67c.19-1.15,1.24-1.56,1.63-.31a15.91,15.91,0,0,1,.11,4.52c-.06.86-.28.9-.67,1A.87.87,0,0,1,35.66,56.36Z"/></g></g></g></svg>
