<svg viewBox="0 0 88.28 71.24" version="1.1" id="svg43" xmlns="http://www.w3.org/2000/svg"><defs id="defs4"><style id="style2">.cls-1{fill:#2a3da0;stroke:none}</style></defs><g id="Content"><path class="cls-1" d="M83.75.55C75.36-.21 10.94-.06 6.17.25c-4.23.28-4.81 1.25-5 6.44C.7 19.47 0 44.82 0 57.6 0 60.32 1.5 61 3.81 61c10.69-.12 24-.19 30.33-.11-.93 2.32-3.2 5.8-3.61 7.51-.3 1.29-.18 2.89 1.86 2.86 2.04-.03 19.92 0 21.83 0 2.22 0 1.72-2.08 1.16-3.28-1.77-3.77-3.53-6.91-3.54-7 8-.08 28.71-.2 33.43-.32a2.56 2.56 0 0 0 2.8-2.66c0-9.2.3-46.18.18-54.83C88.22.57 85 .66 83.75.55Zm1.3 53.92c0 2.93-1 3.29-3.26 3.29-9.42 0-64.79.24-75.38.24-1.63 0-3.07.22-3.07-2.22 0-4 .5-40.32.5-49.62 0-2.5 1-2.94 3-3C19.57 2.91 70.46 2.81 82 3.1c2.61.07 3.5 2.05 3.52 4.17.09 10.11-.47 46.73-.47 47.2z" id="path8"/><path class="cls-1" d="M55.782 48.463c.253-4.849-.126-7.138.06-12.72.05-1.54 0-6.953-.11-8.51-.085-1.936-.22-2.231-2.265-2.206-4.958 0-15.54 0-20.397.295-1.077.067-1.684.488-1.684 1.818.05 2.34-.143 7.576-.117 9.934.025 2.357 0 9.815.067 11.213.042 1.818.926 2.205 2.088 2.163 5.774-.202 17.678-.067 20.203 0 1.524.017 2.07-.379 2.155-1.987zm-2.837-.059c-3.864.135-14.016 0-18.427 0-.514 0-1.002-.235-1.027-.8-.168-4.208 0-11.103 0-13.797v-5.396c-.042-1.254.791-1.246 1.532-1.296 2.046-.135 15.776-.337 18.057-.37.665 0 .74.681.758 1.161.067 1.844-.202 16.55-.101 19.362.016.859-.278 1.12-.792 1.136z" id="path8-7" style="fill:#2a3da0;stroke:none;stroke-width:.841813"/><path class="cls-1" d="M52.65 25.718a62.858 62.858 0 0 0-.47-6.937c-.683-3.872-2.644-8.923-6.946-9.656-4.562-.783-7.627.758-9.849 5.834-1.204 2.761-.842 7.703-.774 10.759 0 .429 1.683 0 1.683-.186 0-2.003-.084-6.734.547-9.26.792-3.123 2.964-5.185 6.247-5.354 7.197-.37 7.433 9.26 7.904 14.757.025.438 1.659.312 1.659.043z" id="path10" style="fill:#2a3da0;stroke:none;stroke-width:.841813"/><path class="cls-1" d="M48.576 17.956c-.614-2.972-1.92-5.85-5.455-5.573-5.758.446-5.421 8.418-5.295 13.082 0 .278 1.532.37 1.524 0 0-1.204 0-3.165.076-4.546.075-2.475 1.195-6.978 4.209-6.835 4.091.185 3.662 8.94 3.653 11.7 0 .346 1.793.439 1.81 0a44.254 44.254 0 0 0-.522-7.828z" id="path12" style="fill:#2a3da0;stroke:none;stroke-width:.841813"/></g></svg>
