<?xml version="1.0" encoding="UTF-8" standalone="no"?>
<!-- Created with Inkscape (http://www.inkscape.org/) -->

<svg
   xmlns:dc="http://purl.org/dc/elements/1.1/"
   xmlns:cc="http://creativecommons.org/ns#"
   xmlns:rdf="http://www.w3.org/1999/02/22-rdf-syntax-ns#"
   xmlns:svg="http://www.w3.org/2000/svg"
   xmlns="http://www.w3.org/2000/svg"
   xmlns:sodipodi="http://sodipodi.sourceforge.net/DTD/sodipodi-0.dtd"
   xmlns:inkscape="http://www.inkscape.org/namespaces/inkscape"
   width="50"
   height="50"
   id="svg3213"
   version="1.1"
   inkscape:version="0.48.4 r9939"
   sodipodi:docname="sys-computer-vision-logo.svg">
  <sodipodi:namedview
     id="base"
     pagecolor="#ffffff"
     bordercolor="#666666"
     borderopacity="1.0"
     inkscape:pageopacity="0.0"
     inkscape:pageshadow="2"
     inkscape:zoom="16.22"
     inkscape:cx="15.875462"
     inkscape:cy="25.19899"
     inkscape:document-units="px"
     inkscape:current-layer="layer1"
     showgrid="false"
     inkscape:window-width="1680"
     inkscape:window-height="998"
     inkscape:window-x="1672"
     inkscape:window-y="486"
     inkscape:window-maximized="1"
     showguides="true"
     inkscape:guide-bbox="true" />
  <metadata
     id="metadata3218">
    <rdf:RDF>
      <cc:Work
         rdf:about="">
        <dc:format>image/svg+xml</dc:format>
        <dc:type
           rdf:resource="http://purl.org/dc/dcmitype/StillImage" />
        <dc:title />
      </cc:Work>
    </rdf:RDF>
  </metadata>
  <g
     inkscape:label="Layer 1"
     inkscape:groupmode="layer"
     id="layer1"
     transform="translate(0,-1002.3622)">
    <path
       style="fill:#000000;fill-opacity:1"
       id="path3222"
       d="m 2.0073725,1017.3876 c 0.039355,-0.02 0.07643,-0.045 0.1180656,-0.06 0.2700805,-0.093 0.5797254,-0.118 0.8596975,-0.1544 0.4461719,-0.058 0.5878704,-0.071 1.0554613,-0.1224 1.134845,-0.1081 2.2634327,-0.2704 3.3950143,-0.4065 0.841266,-0.1012 1.521781,-0.168 2.369625,-0.2559 2.5151758,-0.2655 5.0416438,-0.4239 7.5691988,-0.5096 0.563311,-0.02 1.126935,-0.028 1.690401,-0.041 3.481757,-0.082 6.96462,0 10.445362,0.091 3.045461,0.072 6.090449,0.1562 9.13417,0.2827 1.942262,0.093 3.885402,0.1985 5.82001,0.3984 1.036478,0.1036 2.053145,0.3315 3.076068,0.5185 0.2962,0.063 0.601333,0.094 0.886798,0.2011 0.155031,0.059 0.291886,0.1475 0.448084,0.2025 0.307718,0.066 0.27527,0.514 -0.03512,0.5458 -0.0313,0 -0.06632,0 -0.09191,-0.022 -0.03607,-0.025 -0.05546,-0.069 -0.08319,-0.1035 -0.149131,0.012 -0.164932,-0.1998 -0.0158,-0.211 l 0,0 c 0.01469,-0.038 0.0269,-0.077 0.04409,-0.1139 0.0063,-0.014 0.0361,-0.025 0.0261,-0.037 -0.01001,-0.012 -0.0346,0.011 -0.03956,0.022 -0.03199,0.092 -0.07559,0.1866 -0.06691,0.2833 0.0038,0.043 0.12557,0.1546 0.09716,0.085 -0.137656,-0.054 -0.252397,-0.026 -0.399247,-0.031 -0.286874,-0.012 -0.569902,-0.062 -0.856852,-0.07 -1.027761,-0.048 -2.057125,0.016 -3.084907,-0.046 -1.922599,-0.1001 -3.843372,-0.2426 -5.76927,-0.2707 -3.041751,-0.074 -6.084057,-0.1229 -9.125425,-0.213 -3.457614,-0.085 -6.916145,-0.1796 -10.375149,-0.1253 -0.74287,0.018 -2.555678,0.062 -3.306985,0.091 -1.955172,0.075 -3.906736,0.2255 -5.8561508,0.3894 -1.930067,0.1838 -3.8601704,0.3675 -5.7929785,0.5205 -0.4993666,0.032 -0.5982805,0.044 -1.0734669,0.058 -0.2824523,0.012 -0.593518,0.028 -0.8746847,-0.025 -0.04338,-0.011 -0.083918,-0.028 -0.1258769,-0.041 -0.5867629,0.044 -0.648594,-0.7861 -0.061831,-0.8298 z"
       inkscape:connector-curvature="0" />
    <path
       style="fill:#000000;fill-opacity:1"
       id="path3224"
       d="m 48.874612,1018.7706 c 0.112046,1.0022 -0.125317,2.0087 -0.317671,2.9862 -0.194301,1.0952 -0.564637,2.1453 -0.827346,3.2229 -0.150292,0.6166 -0.210224,0.9888 -0.325197,1.6109 -0.223316,0.947 -0.203768,2.0311 -0.532375,2.948 -0.0784,0.219 -0.197414,0.4203 -0.296119,0.6306 -0.02618,0.247 -0.370688,0.2095 -0.344521,-0.037 l 0,0 c -0.05226,-0.2287 -0.128233,-0.4531 -0.15675,-0.6859 -0.124044,-1.0133 0.174816,-2.0574 0.304321,-3.0533 0.02666,-0.1402 0.287943,-1.5081 0.311193,-1.6412 0.189764,-1.088 0.319233,-2.1868 0.571188,-3.2632 0.194634,-0.9434 0.352716,-1.9054 0.679411,-2.813 0.06674,-0.6701 1.000607,-0.5742 0.933866,0.096 z"
       inkscape:connector-curvature="0" />
    <path
       style="fill:#000000;fill-opacity:1"
       id="path3226"
       d="m 45.489014,1030.8664 c -0.05252,0 -0.104993,0.011 -0.157573,0.011 -0.153476,0 -0.524213,-0.045 -0.650083,-0.055 -0.588206,-0.046 -1.177933,-0.078 -1.767014,-0.1105 -1.882459,-0.1081 -3.768812,-0.1162 -5.653784,-0.1205 -2.532025,0.02 -5.063102,0.097 -7.594483,0.1521 -2.922837,0.062 -5.846061,0.085 -8.769431,0.1001 -2.974292,0.011 -5.948326,0.025 -8.922388,0.067 -1.325504,0.017 -2.6501368,0.069 -3.9750648,0.1082 -0.718922,0.022 -1.5221843,0.047 -2.2441009,0.033 -0.3198813,-0.012 -0.6392804,-0.028 -0.9589269,-0.041 -1.0712409,-0.1024 -0.5611246,-0.016 -1.5328955,-0.2429 -0.3068102,0.023 -0.3394853,-0.4107 -0.032675,-0.4339 l 0,0 c 0.9333558,-0.371 0.4373655,-0.211 1.4932515,-0.4633 0.3194831,-0.054 0.637322,-0.1196 0.9584505,-0.1633 0.743029,-0.1012 1.5151871,-0.1506 2.2627901,-0.1886 1.334812,-0.068 2.671654,-0.086 4.007642,-0.115 2.978844,-0.045 5.958034,-0.051 8.937162,-0.05 2.91888,-0.012 5.837766,-0.028 8.756597,-0.048 2.542657,-0.014 5.085665,-0.031 7.628154,0.012 0.808563,0.016 1.362555,0.022 2.166324,0.057 1.188784,0.054 2.374601,0.1587 3.559053,0.2706 0.595654,0.063 1.189496,0.1315 1.783764,0.2056 0.147316,0.018 0.486056,0.052 0.652729,0.085 0.05295,0.011 0.103922,0.029 0.155887,0.044 0.628279,0.072 0.524895,0.9616 -0.103393,0.8885 z"
       inkscape:connector-curvature="0" />
    <path
       style="fill:#000000;fill-opacity:1"
       id="path3232"
       d="m 24.870432,1020.0031 c -0.376686,0.068 -0.740147,0.1938 -1.069765,0.3905 -0.103105,0.061 -0.200079,0.1328 -0.300118,0.1992 -0.605186,0.4759 -1.089671,1.1008 -1.401383,1.8061 -0.06657,0.1506 -0.116157,0.3081 -0.174235,0.4623 -0.16603,0.564 -0.256319,1.1588 -0.06461,1.7298 0.107961,0.3216 0.170762,0.3631 0.368641,0.6308 0.09518,0.085 0.182272,0.1811 0.285544,0.2568 0.553133,0.405 1.275988,0.5777 1.940836,0.6791 0.217107,0.033 0.436494,0.05 0.654741,0.074 1.098271,0.07 2.221874,0 3.271376,-0.3576 0.175191,-0.059 0.343651,-0.1364 0.515476,-0.2047 0.509342,-0.2536 0.993392,-0.589 1.242889,-1.1196 0.137635,-0.2926 0.128368,-0.3969 0.174493,-0.7145 0.0029,-0.8674 -0.28747,-1.6997 -0.79709,-2.4008 -0.120855,-0.1662 -0.263985,-0.3151 -0.395976,-0.4727 -0.155395,-0.1358 -0.300583,-0.2841 -0.466185,-0.4072 -0.673556,-0.5006 -1.505601,-0.7781 -2.330165,-0.8928 -0.216107,-0.03 -0.434867,-0.037 -0.652301,-0.054 -0.883451,-0.023 -0.439928,-0.016 -1.330573,-0.022 -0.207665,0.067 -0.302363,-0.2267 -0.09469,-0.2937 l 0,0 c 0.856478,-0.5731 0.396011,-0.3394 1.384704,-0.6945 0.706839,-0.098 0.937468,-0.1779 1.658195,-0.084 0.846347,0.1093 1.647219,0.4605 2.318889,0.9832 0.218558,0.1701 0.407069,0.3756 0.610604,0.5634 0.170477,0.2106 0.355631,0.4103 0.511431,0.632 0.552563,0.7864 0.961538,1.7909 0.999004,2.76 0.0086,0.2219 -0.02442,0.4435 -0.03662,0.6652 -0.131925,0.5515 -0.124495,0.6949 -0.406328,1.1903 -0.428427,0.7533 -1.122495,1.2667 -1.894435,1.6279 -0.214956,0.083 -0.425911,0.1777 -0.644869,0.2499 -1.222612,0.4027 -2.525522,0.487 -3.802229,0.3996 -0.256666,-0.033 -0.515063,-0.055 -0.769998,-0.1001 -0.925499,-0.162 -1.861208,-0.4697 -2.571032,-1.1111 -0.158257,-0.1431 -0.287646,-0.3152 -0.431469,-0.4727 -0.2773,-0.47 -0.386724,-0.572 -0.509741,-1.1094 -0.181473,-0.7928 -0.01928,-1.6063 0.265141,-2.3511 0.08482,-0.1839 0.159965,-0.3725 0.254458,-0.5517 0.440384,-0.8347 1.082794,-1.5354 1.885235,-2.0327 0.133807,-0.07 0.263716,-0.1494 0.401421,-0.2122 0.442902,-0.2019 0.940962,-0.312 1.425799,-0.2378 0.422533,0.017 0.397477,0.6153 -0.02506,0.5976 z"
       inkscape:connector-curvature="0" />
    <path
       style="fill:#000000;fill-opacity:1"
       id="path3236"
       d="m 25.091061,1020.9991 c -0.412902,0.2769 -0.770326,0.5836 -1.1199,0.9373 -0.306636,0.362 -0.670638,0.8216 -0.670615,1.3247 4e-6,0.077 0.02223,0.1528 0.03335,0.2293 0.03175,0.069 0.05595,0.1409 0.09525,0.2054 0.329759,0.541 0.98922,0.7507 1.551249,0.941 0.856725,0.2145 1.79059,0.3605 2.657881,0.1047 0.133055,-0.039 0.257113,-0.1047 0.38567,-0.1566 0.351083,-0.2059 0.636529,-0.497 0.604294,-0.9326 -0.01772,-0.2394 -0.08901,-0.3552 -0.181647,-0.5766 -0.06671,-0.107 -0.124701,-0.2198 -0.200139,-0.3208 -0.364254,-0.4874 -0.950659,-0.8975 -1.468958,-1.2062 -0.144993,-0.086 -0.296924,-0.1605 -0.445385,-0.2408 -0.589931,-0.25 -0.295677,-0.1286 -0.882674,-0.3644 -0.183871,6e-4 -0.184655,-0.2594 -7.84e-4,-0.26 l 0,0 c 0.729604,-0.2423 0.348989,-0.173 1.143846,-0.1969 0.555729,0.09 0.75042,0.083 1.272437,0.3248 0.613027,0.2848 1.14146,0.7536 1.507381,1.3215 0.11616,0.1802 0.195634,0.3816 0.293451,0.5725 0.127806,0.5178 0.219543,0.6684 0.139155,1.2057 -0.08689,0.581 -0.409583,1.0907 -0.869733,1.4481 -0.153422,0.1192 -0.331039,0.2034 -0.496559,0.3051 -0.189549,0.07 -0.374221,0.155 -0.568648,0.21 -1.078062,0.3053 -2.220286,0.1728 -3.281839,-0.1252 -0.202684,-0.074 -0.410768,-0.1341 -0.608053,-0.2214 -0.680343,-0.3006 -1.350475,-0.7866 -1.626178,-1.5061 -0.05909,-0.1542 -0.07522,-0.3216 -0.112817,-0.4824 7.96e-4,-0.1573 -0.01423,-0.3155 0.0024,-0.472 0.07912,-0.7447 0.530086,-1.3675 1.05845,-1.8666 0.446476,-0.371 0.928587,-0.7326 1.497943,-0.8872 0.485216,-0.2058 0.776416,0.4803 0.291199,0.6863 z"
       inkscape:connector-curvature="0" />
    <path
       style="fill:#000000;fill-opacity:1"
       id="path3248"
       d="m 24.709847,1022.2599 c -0.193399,0.2567 -0.361564,0.5338 -0.564699,0.7828 -0.05188,0.039 -0.103761,0.078 -0.155638,0.1176 -0.0556,0.1299 -0.239174,0.051 -0.183575,-0.078 l 0,0 c -0.0037,-0.074 -0.0075,-0.1464 -0.01116,-0.2196 0.02177,-0.07 0.03569,-0.1432 0.06532,-0.2104 0.109353,-0.2479 0.343711,-0.5277 0.558249,-0.6943 0.214005,-0.2061 0.505526,0.097 0.291521,0.3026 z"
       inkscape:connector-curvature="0" />
    <path
       style="fill:#000000;fill-opacity:1"
       id="path3258"
       d="m 1.87912,1018.8913 c 0.1642809,0.4683 0.1968808,0.9773 0.2334491,1.4729 0.046496,0.6302 0.051977,0.8837 0.08001,1.535 0.04954,1.5828 0.1448471,3.1667 0.3749826,4.7313 0.040111,0.2728 0.089695,0.5436 0.1345429,0.8154 0.034377,0.2034 0.1888997,1.0915 0.2138695,1.333 0.017664,0.1709 0.036552,0.3437 0.024309,0.5151 -0.010447,0.1463 -0.061138,0.2857 -0.091708,0.4285 0.1362026,0.4973 -0.5017521,0.7097 -0.6379548,0.2123 l 0,0 c -0.099361,-0.1082 -0.216766,-0.1998 -0.2980833,-0.3251 -0.334928,-0.5161 -0.4499222,-1.2908 -0.5967974,-1.8849 -0.1281533,-0.7724 -0.1801777,-1.029 -0.2716476,-1.8235 -0.1519687,-1.3199 -0.2136263,-2.6507 -0.2223983,-3.9806 0.012731,-0.7572 0.00415,-0.8328 0.051145,-1.5521 0.031989,-0.4897 0.063539,-0.9925 0.2171026,-1.4577 -0.012504,-0.6153 0.7766739,-0.6348 0.789178,-0.02 z"
       inkscape:connector-curvature="0" />
    <path
       style="fill:#000000;fill-opacity:1"
       id="path3266"
       d="m 22.796771,1031.706 c -0.05286,0.2668 -0.07172,0.3935 -0.162536,0.6745 -0.319315,0.988 -0.817254,1.9526 -1.273205,2.8821 -1.109362,2.1736 -2.311199,4.298 -3.461086,6.4502 -0.877995,1.6442 -1.730684,3.3015 -2.627443,4.9356 -0.359112,0.5236 -0.160455,0.3008 -0.578429,0.6836 -0.128205,0.3681 -0.648808,0.1867 -0.520603,-0.1813 l 0,0 c -0.07365,-0.6026 -0.07428,-0.285 0.03015,-0.9523 0.190863,-0.615 0.219894,-0.7527 0.476745,-1.3778 0.540932,-1.3163 1.231023,-2.5664 1.889277,-3.8258 1.165903,-2.1391 2.340932,-4.2734 3.566577,-6.379 0.293668,-0.5173 0.600349,-1.0554 0.891263,-1.5755 0.105222,-0.1883 0.477017,-0.8655 0.607862,-1.0883 0.138356,-0.2356 0.214037,-0.3453 0.354258,-0.5571 0.219976,-0.5707 1.027148,-0.2597 0.807172,0.3111 z"
       inkscape:connector-curvature="0" />
    <path
       style="fill:#000000;fill-opacity:1"
       id="path3270"
       d="m 29.306564,1031.44 c 0.02736,0.048 0.05807,0.094 0.08207,0.1446 0.13997,0.2915 0.245272,0.604 0.359237,0.9057 0.210307,0.5566 0.154133,0.4077 0.384357,1.0026 0.648272,1.6264 1.422827,3.1976 2.212202,4.7591 1.031513,2.0272 2.268388,3.9381 3.430301,5.8905 0.642526,1.2664 0.37259,0.6196 0.815731,1.9376 0.267368,0.3725 -0.259309,0.7506 -0.526677,0.3781 l 0,0 c -1.128271,-0.8703 -0.60156,-0.3831 -1.574142,-1.4681 -0.225821,-0.311 -0.459793,-0.6163 -0.677462,-0.9331 -1.107072,-1.611 -2.038992,-3.3369 -2.935995,-5.0707 -0.362412,-0.732 -0.584741,-1.162 -0.914957,-1.9027 -0.452016,-1.0142 -0.853002,-2.0523 -1.203819,-3.1055 -0.155993,-0.4861 -0.309325,-0.9713 -0.433143,-1.4669 -0.0093,-0.037 -0.109353,-0.4678 -0.122132,-0.5447 -0.0085,-0.052 -0.0098,-0.1035 -0.01469,-0.156 -0.261917,-0.7914 0.857197,-1.1618 1.119114,-0.3705 z"
       inkscape:connector-curvature="0" />
    <path
       style="fill:#000000;fill-opacity:1"
       id="path3272"
       d="m 15.928379,1046.4733 c 0.0627,-0.015 0.124294,-0.033 0.188089,-0.046 0.145322,-0.029 0.686099,-0.1082 0.780606,-0.1206 0.811951,-0.1105 1.628724,-0.1858 2.447191,-0.2616 1.821178,-0.1357 3.650211,-0.2195 5.480222,-0.232 1.314183,-0.012 1.834638,0.014 3.14734,0.043 2.194485,0.085 4.410699,0.2142 6.530647,0.6883 0.306484,0.068 0.605132,0.1562 0.907696,0.2343 0.252821,0.093 0.505641,0.1868 0.75846,0.2801 0.304267,0.046 0.218425,0.3767 -0.08585,0.3301 l 0,0 c -0.272466,0.014 -0.544932,0.026 -0.8174,0.039 -2.451852,-0.017 -4.896262,-0.1585 -7.344837,-0.2454 -0.510198,-0.011 -1.020257,-0.028 -1.530592,-0.034 -2.30104,-0.031 -4.602965,0.026 -6.898737,0.1453 -0.03753,0 -1.67302,0.077 -1.807912,0.082 -0.497117,0.018 -1.012102,0.044 -1.509822,0.011 -0.07978,-0.011 -0.158015,-0.021 -0.237021,-0.031 -0.810024,0 -0.818111,-0.8747 -0.0081,-0.879 z"
       inkscape:connector-curvature="0" />
  </g>
</svg>
