<?xml version="1.0" encoding="UTF-8" standalone="no"?>
<!-- Created with Inkscape (http://www.inkscape.org/) -->

<svg
   xmlns:dc="http://purl.org/dc/elements/1.1/"
   xmlns:cc="http://creativecommons.org/ns#"
   xmlns:rdf="http://www.w3.org/1999/02/22-rdf-syntax-ns#"
   xmlns:svg="http://www.w3.org/2000/svg"
   xmlns="http://www.w3.org/2000/svg"
   xmlns:sodipodi="http://sodipodi.sourceforge.net/DTD/sodipodi-0.dtd"
   xmlns:inkscape="http://www.inkscape.org/namespaces/inkscape"
   width="50"
   height="50"
   id="svg3213"
   version="1.1"
   inkscape:version="0.48.4 r9939"
   sodipodi:docname="sys-complexity-logo.svg">
  <sodipodi:namedview
     id="base"
     pagecolor="#ffffff"
     bordercolor="#666666"
     borderopacity="1.0"
     inkscape:pageopacity="0.0"
     inkscape:pageshadow="2"
     inkscape:zoom="16"
     inkscape:cx="25.202405"
     inkscape:cy="25.69647"
     inkscape:document-units="px"
     inkscape:current-layer="layer1"
     showgrid="false"
     inkscape:window-width="1680"
     inkscape:window-height="998"
     inkscape:window-x="1672"
     inkscape:window-y="486"
     inkscape:window-maximized="1"
     showguides="true"
     inkscape:guide-bbox="true" />
  <metadata
     id="metadata3218">
    <rdf:RDF>
      <cc:Work
         rdf:about="">
        <dc:format>image/svg+xml</dc:format>
        <dc:type
           rdf:resource="http://purl.org/dc/dcmitype/StillImage" />
        <dc:title />
      </cc:Work>
    </rdf:RDF>
  </metadata>
  <g
     inkscape:label="Layer 1"
     inkscape:groupmode="layer"
     id="layer1"
     transform="translate(0,-1002.3622)">
    <path
       style="fill:#000000;fill-opacity:1;fill-rule:nonzero;stroke:none"
       id="path4716"
       d="M 5.9154867,5.7139378 C 5.6652871,6.1924595 5.426114,6.6961413 5.3540516,7.2380406 5.3375748,7.3619441 5.3419769,7.4877374 5.3359396,7.6125858 5.3744902,8.0865165 5.5340682,8.463478 5.9184785,8.7588815 6.1699559,8.9521316 6.2878857,8.9770771 6.5836942,9.0998567 7.3725964,9.3408792 8.1781743,9.2964219 8.9582265,9.0377193 9.1217875,8.9834747 9.27869,8.9109048 9.4389218,8.8474975 9.5859475,8.7641728 9.7398092,8.691897 9.879999,8.5975232 10.415671,8.236916 10.842097,7.6809043 10.901126,7.0185974 10.915744,6.8545744 10.885287,6.6896321 10.877367,6.5251494 10.835181,6.3659809 10.810646,6.2010506 10.750807,6.0476437 10.57234,5.590114 10.239068,5.1985037 9.803191,4.9678607 9.3859186,4.7470624 9.2238242,4.7686854 8.7548324,4.7037168 8.068182,4.7484291 8.069576,4.7198407 7.3688944,4.8912338 7.1007232,4.956831 6.838855,5.0459903 6.5728859,5.1200121 6.2817217,5.2010459 5.9893278,5.2775944 5.6975488,5.3563855 5.6111503,5.407608 5.5387107,5.285422 5.6251092,5.2341995 l 0,0 C 5.8584922,5.0016413 6.0624277,4.7351982 6.3252581,4.5365249 6.7910778,4.1844119 7.4703056,3.9127379 8.0434004,3.8102586 c 0.2843357,-0.050844 0.5767195,-0.0335 0.8650792,-0.05025 0.6749502,0.1215314 0.9052993,0.090828 1.4867324,0.4707138 0.589599,0.3852206 0.99074,1.0015409 1.140254,1.6844655 0.04639,0.2118817 0.04224,0.4317386 0.06337,0.6476079 -0.06873,0.5231672 -0.05922,0.72232 -0.263831,1.2130373 C 11.102543,8.3333335 10.704418,8.81632 10.218955,9.172513 10.056059,9.2920322 9.8738216,9.3826616 9.7012552,9.4877359 9.5145289,9.5664924 9.3329017,9.6586427 9.1410762,9.7240055 8.4056169,9.9746068 7.5827642,10.043499 6.8186757,9.8944502 6.6410198,9.8597954 6.4696232,9.7984678 6.2950969,9.7504767 5.9102798,9.5713095 5.734457,9.5248858 5.4157709,9.2387206 5.0600985,8.9193434 4.8249101,8.4883645 4.747944,8.0169893 4.7231708,7.8652673 4.7312962,7.709978 4.7229723,7.5564723 4.7423055,7.4041808 4.751739,7.2503025 4.7809718,7.0995978 4.8973784,6.4994824 5.1741429,5.9288496 5.5540029,5.4527128 c 0.184714,-0.2556076 0.5461978,0.00562 0.3614838,0.261225 z"
       inkscape:connector-curvature="0"
       transform="translate(0,1002.3622)" />
    <path
       style="fill:#000000;fill-opacity:1;fill-rule:nonzero;stroke:none"
       id="path4722"
       d="m 41.34859,16.123801 c -0.238598,0.449508 -0.498879,0.898808 -0.61926,1.398612 -0.02835,0.11771 -0.03969,0.238877 -0.05954,0.358315 -0.0307,0.460351 0.07074,0.896903 0.370187,1.257001 0.215082,0.258643 0.317019,0.304626 0.593176,0.50462 0.134063,0.06935 0.263926,0.147513 0.402189,0.208061 0.600672,0.263045 1.292455,0.418267 1.950091,0.387123 0.154884,-0.0073 0.307569,-0.03966 0.461353,-0.0595 0.136095,-0.03999 0.276683,-0.06704 0.408286,-0.119971 0.343891,-0.138314 0.641272,-0.374574 0.821792,-0.701541 0.163558,-0.296245 0.163364,-0.428281 0.232046,-0.760852 0.0037,-0.15266 0.02008,-0.305539 0.01112,-0.457982 -0.0374,-0.636172 -0.274033,-1.315888 -0.761158,-1.749869 -0.116223,-0.103543 -0.257201,-0.175397 -0.385801,-0.263096 -0.150778,-0.05385 -0.296205,-0.126092 -0.452335,-0.16155 -0.810354,-0.184035 -1.674373,0.05557 -2.42996,0.337142 -0.233955,0.08718 -0.461481,0.19073 -0.692221,0.286094 -0.146188,0.08802 -0.270668,-0.118721 -0.124479,-0.206742 l 0,0 c 0.208912,-0.169351 0.403686,-0.357812 0.626737,-0.508053 0.832435,-0.5607 1.899278,-0.893666 2.899079,-0.647102 0.221777,0.05469 0.425236,0.166971 0.637855,0.250456 0.177241,0.131026 0.370992,0.242253 0.531722,0.393077 0.627262,0.588602 0.939228,1.458747 0.965384,2.305603 0.0062,0.201871 -0.02386,0.40323 -0.03578,0.604846 -0.120053,0.481352 -0.118718,0.643609 -0.385952,1.066061 -0.294316,0.465265 -0.730445,0.789428 -1.243392,0.978184 -0.173047,0.06368 -0.355974,0.09635 -0.533961,0.144528 -0.513537,0.05114 -0.636744,0.08602 -1.157939,0.04538 -0.791462,-0.06172 -1.554717,-0.300526 -2.230748,-0.717249 -0.360881,-0.274112 -0.527229,-0.359221 -0.798993,-0.725795 -0.297097,-0.400745 -0.459798,-0.884243 -0.464859,-1.382406 -0.0016,-0.155932 0.02753,-0.310663 0.04129,-0.465995 0.03736,-0.147806 0.0661,-0.298064 0.112075,-0.443419 0.177404,-0.560829 0.47789,-1.095361 0.916952,-1.491052 0.238346,-0.279339 0.633392,0.05773 0.395047,0.337072 z"
       inkscape:connector-curvature="0"
       transform="translate(0,1002.3622)" />
    <path
       style="fill:#000000;fill-opacity:1;fill-rule:nonzero;stroke:none"
       id="path4724"
       d="m 3.2305769,33.257235 c -0.3018388,0.226529 -0.541102,0.526617 -0.7328667,0.850043 -0.067359,0.113606 -0.1252285,0.232576 -0.1878428,0.348864 -0.2751721,0.639502 -0.4866875,1.348307 -0.3894577,2.053073 0.016063,0.116432 0.053806,0.228829 0.080709,0.343244 0.045011,0.09963 0.080684,0.204028 0.1350336,0.298885 0.2344294,0.409157 0.6295499,0.67895 1.0596139,0.850412 0.129819,0.05176 0.2653014,0.08799 0.3979521,0.131986 0.7495382,0.174883 1.5423763,0.189071 2.2743734,-0.07714 0.1382974,-0.0503 0.2679224,-0.121824 0.4018835,-0.182736 C 6.387478,37.794649 6.5130605,37.726266 6.6224834,37.636218 6.9596419,37.358759 7.1926267,36.985872 7.3176169,36.569104 7.4418172,36.154969 7.417879,36.024352 7.4327913,35.592394 7.4076718,35.423051 7.398659,35.250524 7.3574326,35.084367 7.2441234,34.627689 7.0051402,34.16832 6.6490062,33.853401 6.3441243,33.583803 6.2047145,33.565988 5.830871,33.416045 c -0.1696609,-0.03317 -0.3370859,-0.08116 -0.5089826,-0.0995 -0.5955073,-0.06353 -1.209683,0.03069 -1.7859977,0.176833 -0.2075534,0.05263 -0.4099374,0.123878 -0.6149062,0.185817 -0.2462577,0.1257 -0.4240234,-0.222561 -0.1777657,-0.348261 l 0,0 c 0.1983255,-0.143917 0.3827196,-0.30931 0.5949765,-0.431753 0.6477384,-0.373656 1.41273,-0.543891 2.1580492,-0.480763 0.2386664,0.02022 0.4703477,0.09085 0.7055215,0.136278 0.5562903,0.251023 0.7240396,0.26629 1.1638006,0.700833 0.478522,0.472845 0.7333619,1.081044 0.8360984,1.736949 0.033354,0.212947 0.033401,0.42979 0.050101,0.644685 -0.038572,0.546172 -0.016439,0.722444 -0.1893784,1.245221 C 7.8762543,37.445049 7.5481239,37.95066 7.0886464,38.327706 6.9421666,38.447907 6.7744115,38.539543 6.617294,38.645461 6.4443883,38.722679 6.2766597,38.812729 6.098577,38.877115 5.3891193,39.13362 4.5960916,39.184568 3.8539295,39.064653 3.6732841,39.035466 3.4969655,38.983935 3.3184835,38.943576 2.9004483,38.798795 2.7296315,38.766236 2.3528881,38.531667 1.9336707,38.270653 1.5779158,37.909011 1.3606962,37.462279 1.2905403,37.317997 1.2500546,37.16109 1.1947338,37.010496 1.1217191,36.575717 1.0800014,36.480783 1.1098917,36.034397 c 0.04549,-0.679355 0.2934009,-1.324718 0.6105415,-1.919738 0.080762,-0.131195 0.1548473,-0.266741 0.2422862,-0.393584 0.2737588,-0.397124 0.628926,-0.767862 1.0905294,-0.935649 0.333619,-0.12539 0.510947,0.346419 0.1773281,0.471809 z"
       inkscape:connector-curvature="0"
       transform="translate(0,1002.3622)" />
    <path
       style="fill:#000000;fill-opacity:1;fill-rule:nonzero;stroke:none"
       id="path4726"
       d="m 21.13055,28.137932 c -0.19944,0.435248 -0.419723,0.861057 -0.545236,1.326278 -0.03791,0.140495 -0.06228,0.284295 -0.09342,0.426442 -0.08952,0.535984 -0.08741,1.097306 0.159922,1.594932 0.148594,0.298969 0.243611,0.366482 0.469093,0.611477 0.113539,0.09002 0.22054,0.188968 0.340616,0.270065 0.574895,0.388275 1.266826,0.604232 1.950025,0.692912 0.179219,0.02326 0.360331,0.02838 0.540496,0.04256 0.60438,0.0048 1.246033,-0.03313 1.769247,-0.374184 0.263927,-0.172041 0.295194,-0.257268 0.477852,-0.501262 0.04959,-0.106107 0.109939,-0.20782 0.148764,-0.31832 0.177045,-0.503888 0.122768,-1.065424 -0.06742,-1.557224 -0.05176,-0.133838 -0.123856,-0.258892 -0.185784,-0.388338 -0.08651,-0.120798 -0.162223,-0.25011 -0.25953,-0.362393 -0.454262,-0.524178 -1.120724,-0.847778 -1.793445,-0.983889 -0.191876,-0.03882 -0.388742,-0.04662 -0.583113,-0.06993 -0.548294,0.0081 -0.635393,-0.0198 -1.17226,0.104449 -0.563811,0.13048 -1.100624,0.377098 -1.634174,0.594188 -0.193684,0.155535 -0.413642,-0.118375 -0.219959,-0.273909 l 0,0 c 0.141953,-0.185976 0.25755,-0.395417 0.425859,-0.557927 0.526915,-0.508759 1.275935,-0.749722 1.98755,-0.827675 0.24672,-0.02703 0.49621,-0.01341 0.744315,-0.02011 0.613281,0.08894 0.841346,0.08606 1.421595,0.311656 0.627584,0.243998 1.207472,0.641279 1.63506,1.16448 0.131901,0.161395 0.231853,0.346452 0.347779,0.519678 0.07832,0.184906 0.174406,0.363254 0.234954,0.554716 0.222666,0.704102 0.189474,1.510428 -0.09614,2.192217 -0.06781,0.161873 -0.166343,0.309085 -0.249515,0.463628 -0.308388,0.372137 -0.343066,0.470594 -0.755217,0.73928 -0.670276,0.436961 -1.47227,0.567155 -2.257457,0.571156 -0.215329,-0.0185 -0.432084,-0.02462 -0.645988,-0.05551 -0.83786,-0.121008 -1.693451,-0.407876 -2.385068,-0.905796 -0.163342,-0.117596 -0.307198,-0.260128 -0.460797,-0.390192 -0.32053,-0.39419 -0.439393,-0.478649 -0.629756,-0.953735 -0.272839,-0.68092 -0.234315,-1.412721 -0.06238,-2.111038 0.208077,-0.628248 0.431881,-1.289513 0.901138,-1.778468 0.03843,-0.04004 0.08453,-0.07194 0.1268,-0.107905 0.252927,-0.293868 0.66852,0.06382 0.415593,0.357693 z"
       inkscape:connector-curvature="0"
       transform="translate(0,1002.3622)" />
    <path
       style="fill:#000000;fill-opacity:1;fill-rule:nonzero;stroke:none"
       id="path4728"
       d="m 37.734341,43.806721 c -0.115511,0.44421 -0.231562,0.899588 -0.149452,1.361514 0.01967,0.110639 0.05903,0.216855 0.08855,0.325283 0.05083,0.102795 0.09228,0.21079 0.152491,0.308385 0.285232,0.462297 0.762435,0.783579 1.248705,1.003005 0.148635,0.06707 0.304137,0.117745 0.456206,0.176618 0.745149,0.219319 1.565231,0.383741 2.324448,0.121634 0.114964,-0.03969 0.220432,-0.102848 0.330648,-0.154272 0.08886,-0.07035 0.186378,-0.13096 0.266564,-0.21105 0.368422,-0.367985 0.546995,-0.927374 0.608088,-1.43182 0.01799,-0.1485 0.01399,-0.298844 0.02099,-0.448266 -0.03771,-0.535163 -0.205275,-1.03898 -0.624992,-1.395215 -0.271217,-0.230194 -0.390711,-0.256126 -0.718299,-0.406262 -0.676278,-0.229376 -1.392868,-0.319914 -2.104963,-0.255981 -0.08932,0.008 -1.009042,0.147626 -1.097848,0.160975 -0.270297,0.120459 -0.440652,-0.261798 -0.170355,-0.382258 l 0,0 c 0.175477,-0.132186 0.334482,-0.289691 0.526431,-0.396558 0.196964,-0.10966 0.413369,-0.183168 0.629563,-0.247039 0.666618,-0.196943 1.385816,-0.232459 2.066213,-0.08819 0.219778,0.0466 0.42994,0.130564 0.644911,0.195846 0.481319,0.244247 0.694544,0.30402 1.081455,0.689743 0.435817,0.434477 0.689709,0.997755 0.776134,1.60176 0.02794,0.195298 0.02183,0.39397 0.03274,0.590955 -0.03965,0.502254 -0.02741,0.685481 -0.172507,1.172012 -0.16511,0.553619 -0.450232,1.08384 -0.88808,1.469939 -0.140844,0.124198 -0.307439,0.215704 -0.461159,0.323556 -0.172371,0.07302 -0.338577,0.162762 -0.517112,0.219048 -0.749657,0.23634 -1.592326,0.177897 -2.346045,-0.0045 -0.199083,-0.04819 -0.392162,-0.118469 -0.588243,-0.177703 -0.477677,-0.198682 -0.651466,-0.243163 -1.082019,-0.531491 -0.465351,-0.311632 -0.86184,-0.717889 -1.113927,-1.22233 -0.0765,-0.15307 -0.122346,-0.319623 -0.183519,-0.479434 -0.03043,-0.160935 -0.07385,-0.319948 -0.09128,-0.482803 -0.05634,-0.526527 0.03575,-1.087693 0.276069,-1.561329 0.03613,-0.07121 0.08534,-0.13499 0.128003,-0.202484 0.253681,-0.460746 0.905274,-0.101987 0.651593,0.358759 z"
       inkscape:connector-curvature="0"
       transform="translate(0,1002.3622)" />
    <path
       style="fill:#000000;fill-opacity:1;fill-rule:nonzero;stroke:none"
       id="path4730"
       d="m 7.9107121,34.407597 c 0.345446,-0.126594 0.6832234,-0.27327 1.0214159,-0.417893 0.7109307,-0.322557 1.425151,-0.634842 2.153378,-0.916579 1.011459,-0.373862 2.019566,-0.756609 3.028221,-1.137966 1.053191,-0.395014 2.095396,-0.823998 3.16926,-1.160415 0.421006,-0.111067 0.848724,-0.192755 1.274005,-0.285146 0.120022,-0.02608 0.23878,-0.0589 0.360092,-0.0781 0.457891,-0.0448 0.234728,-0.0131 0.669799,-0.09289 0.09866,-0.0217 0.197315,-0.0434 0.295973,-0.06509 0.03324,-0.0095 0.04661,0.03756 0.01337,0.04701 l 0,0 c -0.09491,0.03333 -0.189811,0.06666 -0.284717,0.09999 -0.606982,0.259157 0.01611,-0.02105 -0.596075,0.300186 -0.107457,0.05639 -0.219835,0.102879 -0.328856,0.156177 -0.388828,0.190091 -0.764938,0.404017 -1.155848,0.589989 -1.034362,0.440784 -2.100812,0.802411 -3.152313,1.199744 -1.013548,0.370978 -2.033046,0.724852 -3.0527,1.078623 -0.729079,0.255028 -1.4641987,0.494328 -2.1841054,0.774498 -0.3547205,0.139842 -0.7095227,0.280023 -1.0734114,0.394685 -0.3442415,0.111357 -0.5017246,-0.375474 -0.1574831,-0.486831 z"
       inkscape:connector-curvature="0"
       transform="translate(0,1002.3622)" />
    <path
       style="fill:#000000;fill-opacity:1;fill-rule:nonzero;stroke:none"
       id="path4734"
       d="m 7.6167561,10.331487 c 0.00302,0.475025 -0.050596,0.94952 -0.10942,1.420374 -0.1028897,0.74252 -0.221414,1.482634 -0.3446108,2.222013 -0.1563998,0.87738 -0.2878078,1.758692 -0.4119336,2.641113 -0.1312311,0.967486 -0.2426702,1.937463 -0.3725088,2.905117 -0.1367491,1.052719 -0.3080782,2.100292 -0.4813734,3.14746 -0.1850161,1.109485 -0.3804176,2.21719 -0.5718819,3.325574 -0.2015764,1.182376 -0.4132644,2.363167 -0.6579282,3.537434 -0.1924224,0.807365 -0.3709678,1.619581 -0.59948,2.417882 -0.05308,0.185434 -0.098234,0.374049 -0.1697188,0.553196 -0.068649,0.172039 -0.1661396,0.331117 -0.2492094,0.496676 -0.01782,0.08565 -0.1389432,0.06045 -0.1211229,-0.0252 l 0,0 c -0.010176,-0.18478 -0.035897,-0.369356 -0.030528,-0.554338 0.00558,-0.192397 0.039046,-0.38301 0.063276,-0.573957 0.103795,-0.817968 0.2496472,-1.630459 0.3488935,-2.449117 0.1749971,-1.185219 0.3598814,-2.369143 0.565448,-3.549469 0.1911885,-1.106788 0.3785029,-2.214221 0.5695603,-3.321027 0.1745733,-1.03668 0.3444064,-2.074477 0.478426,-3.117314 0.1243576,-0.971036 0.2484373,-1.942157 0.3811623,-2.912082 0.1255374,-0.892088 0.2682787,-1.781704 0.4316064,-2.6677 0.1352816,-0.728202 0.280185,-1.454964 0.3931694,-2.187052 0.074736,-0.467198 0.1476896,-0.937241 0.2693148,-1.394766 0.060234,-0.4376001 0.6790936,-0.352416 0.6188594,0.08518 z"
       inkscape:connector-curvature="0"
       transform="translate(0,1002.3622)" />
    <path
       style="fill:#000000;fill-opacity:1;fill-rule:nonzero;stroke:none"
       id="path4736"
       d="m 11.852141,7.5211702 c 0.337218,0.1811814 0.664327,0.3802682 0.998955,0.5661224 0.553396,0.3085213 1.139667,0.552271 1.720957,0.8022987 0.820992,0.350801 1.64878,0.6853845 2.474564,1.0246869 1.005416,0.4086828 2.013633,0.8107238 3.023527,1.2082368 1.11457,0.442088 2.234387,0.870428 3.355705,1.295028 1.156694,0.437643 2.30679,0.892339 3.455062,1.351532 1.137853,0.458835 2.28545,0.892458 3.438932,1.310243 1.139784,0.409887 2.285046,0.804495 3.432626,1.191979 1.070631,0.363124 2.142211,0.72343 3.213801,1.083713 0.607239,0.213089 1.226723,0.393988 1.828647,0.622346 0.347575,0.131862 0.429796,0.178283 0.761189,0.33448 0.333369,0.154438 0.624355,0.375956 0.915085,0.596431 0.06369,0.02686 0.0257,0.116931 -0.03799,0.09007 l 0,0 c -0.354492,-0.05199 -0.710933,-0.09783 -1.057652,-0.191456 -0.335218,-0.08838 -0.456765,-0.115725 -0.79103,-0.223513 -0.611875,-0.197305 -1.213135,-0.427492 -1.822708,-0.631606 -1.067502,-0.372618 -2.135891,-0.742655 -3.203773,-1.114183 -1.146922,-0.400336 -2.294974,-0.797455 -3.439146,-1.205623 -1.15797,-0.422711 -2.311339,-0.858003 -3.45452,-1.31945 C 25.517874,13.857301 24.372149,13.399996 23.218011,12.96436 22.095175,12.535984 20.971349,12.109935 19.854995,11.664853 18.845017,11.261067 17.832655,10.863245 16.825451,10.45254 15.995308,10.111439 15.170865,9.7571732 14.35185,9.3900909 13.758226,9.1231099 13.169451,8.8458617 12.601509,8.526948 12.26257,8.3304659 11.922359,8.1331342 11.611692,7.8931622 11.348654,7.7231393 11.589103,7.3511473 11.852141,7.5211702 z"
       inkscape:connector-curvature="0"
       transform="translate(0,1002.3622)" />
    <path
       style="fill:#000000;fill-opacity:1;fill-rule:nonzero;stroke:none"
       id="path4738"
       d="m 11.095804,1011.3456 c 0.126882,0.2439 0.256242,0.4863 0.379495,0.7321 0.166022,0.3362 0.374654,0.6477 0.579554,0.9605 0.277886,0.4178 0.538652,0.8469 0.79605,1.2777 0.29405,0.4935 0.586739,0.9878 0.874853,1.4849 0.343296,0.5988 0.665482,1.2093 0.990206,1.8184 0.343062,0.6613 0.718923,1.3042 1.097872,1.945 0.424066,0.6905 0.830016,1.3916 1.214294,2.1053 0.403499,0.7693 0.778806,1.5532 1.16751,2.3302 0.381637,0.7649 0.799014,1.5108 1.2158,2.2565 0.413757,0.7276 0.81192,1.4631 1.17326,2.2186 0.195554,0.5003 0.116962,0.2443 0.235876,0.7681 0.06571,0.1248 -0.109353,0.2185 -0.175064,0.094 l 0,0 c -0.361916,-0.3896 -0.195077,-0.1831 -0.500472,-0.6195 -0.434542,-0.7125 -0.843275,-1.4398 -1.242488,-2.173 -0.418176,-0.7549 -0.840008,-1.5081 -1.226469,-2.2802 -0.38604,-0.7717 -0.760293,-1.5494 -1.16357,-2.3122 -0.380201,-0.7064 -0.781478,-1.4006 -1.197865,-2.0859 -0.385859,-0.6464 -0.761927,-1.2987 -1.125351,-1.9582 -0.327239,-0.601 -0.649439,-1.205 -0.985898,-1.8009 -0.283942,-0.4958 -0.57575,-0.9869 -0.865918,-1.479 -0.253906,-0.425 -0.510145,-0.8486 -0.781179,-1.2628 -0.213124,-0.336 -0.424586,-0.6744 -0.5957,-1.0346 -0.120215,-0.2585 -0.224076,-0.5244 -0.313799,-0.7951 -0.132944,-0.3201 0.316059,-0.5097 0.449003,-0.1896 z"
       inkscape:connector-curvature="0" />
    <path
       style="fill:#000000;fill-opacity:1;fill-rule:nonzero;stroke:none"
       id="path4740"
       d="m 27.085989,33.134707 c 0.230366,0.190781 0.470121,0.370314 0.697306,0.564724 0.318242,0.278059 0.64438,0.546956 0.972953,0.81267 0.430764,0.343292 0.864562,0.682797 1.298451,1.022133 0.508141,0.398769 1.004135,0.812316 1.491297,1.23634 0.520713,0.45745 1.021932,0.936398 1.518403,1.419848 0.498458,0.484624 0.985345,0.980995 1.470368,1.479009 0.459104,0.472224 0.91231,0.950088 1.385115,1.408709 0.224142,0.210243 0.443069,0.425896 0.662472,0.641038 0.08619,0.08451 0.329898,0.316399 0.405104,0.414267 0.05806,0.07555 0.101044,0.161568 0.151566,0.242352 0.165904,0.134924 -0.02491,0.369548 -0.190812,0.234623 l 0,0 c -0.09074,-0.0341 -0.185616,-0.05878 -0.272234,-0.10231 -0.08737,-0.04391 -0.166499,-0.102786 -0.246826,-0.158555 -0.344521,-0.239195 -0.662017,-0.517075 -0.963511,-0.807693 -0.472288,-0.467056 -0.932058,-0.946205 -1.389249,-1.428022 -0.478562,-0.495858 -0.963938,-0.984979 -1.456345,-1.467117 -0.487983,-0.475226 -0.97852,-0.948194 -1.491246,-1.396917 -0.479446,-0.417457 -0.970225,-0.82173 -1.46902,-1.215873 -0.432284,-0.34524 -0.870275,-0.683237 -1.301196,-1.030195 -0.336593,-0.272308 -0.665297,-0.553818 -0.981357,-0.849881 -0.210351,-0.196569 -0.412666,-0.401704 -0.643505,-0.575296 -0.313852,-0.249089 0.03841,-0.692943 0.352266,-0.443854 z"
       inkscape:connector-curvature="0"
       transform="translate(0,1002.3622)" />
    <path
       style="fill:#000000;fill-opacity:1;fill-rule:nonzero;stroke:none"
       id="path4742"
       d="m 35.050237,44.864337 c -0.437799,-0.081 -0.873468,-0.172273 -1.308735,-0.265807 -0.780072,-0.164015 -1.556649,-0.343146 -2.33153,-0.530376 -1.033103,-0.253249 -2.064624,-0.512856 -3.096139,-0.772481 -1.207309,-0.295429 -2.407412,-0.619215 -3.611814,-0.926081 -1.340376,-0.347191 -2.681893,-0.690056 -4.02888,-1.010728 C 19.291708,41.033275 17.9066,40.722946 16.519469,40.422569 15.182538,40.127316 13.841836,39.849745 12.501001,39.572911 11.281312,39.330335 10.064579,39.072734 8.8429934,38.839811 8.4885035,38.771008 8.1457392,38.714102 7.7993129,38.610161 7.6459193,38.564137 7.4903918,38.519523 7.3469497,38.448304 7.209739,38.380178 7.091248,38.27952 6.9633971,38.195128 c -0.1023184,-0.02249 -0.07051,-0.167192 0.031808,-0.1447 l 0,0 c 0.1489216,-0.02355 0.2961702,-0.06333 0.4467648,-0.07065 0.1579058,-0.0077 0.3162215,0.01058 0.473567,0.02593 0.3566549,0.03478 0.6986124,0.103963 1.0509567,0.167296 1.228502,0.220848 2.460381,0.423669 3.681926,0.681748 1.34458,0.274408 2.68723,0.558134 4.028098,0.850139 1.39071,0.307496 2.782074,0.612121 4.166878,0.945595 1.349922,0.327516 2.698019,0.661921 4.040258,1.01987 1.199768,0.317633 2.403621,0.619263 3.605768,0.927688 1.03086,0.259461 2.061735,0.518836 3.091564,0.782358 0.769592,0.196828 1.540436,0.388842 2.310144,0.584911 0.43154,0.11123 0.860893,0.229523 1.287179,0.359588 0.381443,0.09056 0.25337,0.630001 -0.128072,0.539441 z"
       inkscape:connector-curvature="0"
       transform="translate(0,1002.3622)" />
    <path
       style="fill:#000000;fill-opacity:1;fill-rule:nonzero;stroke:none"
       id="path4744"
       d="m 32.61174,4.1966208 c -0.344884,0.1539547 -0.623018,0.3819796 -0.884315,0.6502375 -0.277071,0.3301346 -0.469237,0.7152088 -0.560054,1.1370117 -0.01864,0.086557 -0.02776,0.174891 -0.04164,0.2623365 -0.01952,0.2908709 -0.0022,0.5974551 0.141049,0.8592396 0.07448,0.1361151 0.132068,0.1830328 0.237288,0.295048 0.385005,0.3622834 0.892914,0.4906553 1.3969,0.5890647 0.49937,0.076936 1.012548,0.090201 1.507495,-0.025589 0.08786,-0.020554 0.173331,-0.050237 0.259996,-0.075356 0.348566,-0.1202979 0.682191,-0.3095804 0.903464,-0.6129098 0.03572,-0.04896 0.06369,-0.1031237 0.09553,-0.1546855 0.203503,-0.4106018 0.182526,-0.7968225 0.09969,-1.2344158 C 35.661815,5.4806283 35.469947,5.0958197 35.162911,4.8038769 35.102045,4.7460031 35.033538,4.6967372 34.968852,4.6431674 34.423617,4.2392317 33.753142,4.1905914 33.09928,4.1553214 32.95152,4.1428698 32.80376,4.1304181 32.656,4.1179665 c -0.06399,0.015678 -0.08616,-0.074814 -0.02217,-0.090493 l 0,0 c 0.138066,-0.082485 0.276132,-0.164971 0.414198,-0.2474565 0.148211,-0.045821 0.29298,-0.1047923 0.444633,-0.1374633 0.552551,-0.1190379 1.140641,-0.048756 1.654874,0.1823981 0.116277,0.052268 0.223788,0.1221813 0.335683,0.183272 0.09617,0.076742 0.198025,0.1468627 0.28852,0.230225 0.431575,0.3975579 0.696689,0.9333853 0.840065,1.4952644 0.01926,0.1099909 0.04494,0.2190495 0.05778,0.3299728 0.0615,0.5311036 -0.03438,1.0575395 -0.289534,1.5276304 C 36.321956,7.6760257 36.27,7.7652883 36.205771,7.8454439 35.868557,8.2662705 35.38504,8.5171995 34.880888,8.6808242 34.589146,8.7541151 34.501006,8.7856731 34.199741,8.8228964 33.714816,8.882812 33.222916,8.857925 32.742558,8.7740679 32.623552,8.7493776 32.503465,8.7294154 32.385538,8.6999968 31.828537,8.5610452 31.302844,8.3151328 30.898456,7.9000625 30.83368,7.815082 30.761237,7.7354326 30.704129,7.6451211 30.411273,7.1820008 30.362155,6.6415124 30.457796,6.1123839 c 0.02506,-0.1069148 0.04548,-0.2150258 0.07518,-0.3207445 0.145362,-0.5173487 0.403156,-0.9995287 0.794535,-1.3717169 0.07028,-0.061085 0.137522,-0.1258457 0.210832,-0.1832562 0.268945,-0.2106151 0.57731,-0.3680311 0.897789,-0.483049 0.31325,-0.1241731 0.488858,0.3188303 0.175607,0.4430035 z"
       inkscape:connector-curvature="0"
       transform="translate(0,1002.3622)" />
    <path
       style="fill:#000000;fill-opacity:1;fill-rule:nonzero;stroke:none"
       id="path4746"
       d="m 13.57707,5.481693 c 0.337964,-0.047392 0.679572,-0.071067 1.020297,-0.088815 0.605439,-0.022563 1.211387,-0.030322 1.817177,-0.03743 0.797919,-0.00779 1.595509,-0.03083 2.392957,-0.058566 0.910327,-0.035664 1.82074,-0.067495 2.731614,-0.084723 0.997255,-0.026106 1.994887,-0.031461 2.992431,-0.034019 0.977483,-0.00942 1.954803,0.014926 2.931743,0.044592 0.376024,0.035345 0.838891,0.020702 1.196482,0.1629042 0.110162,0.043808 0.205329,0.1185708 0.307993,0.1778562 0.03995,8.756e-4 0.03871,0.057375 -0.0012,0.056499 l 0,0 c -0.105531,0.054722 -0.204155,0.125576 -0.316592,0.164167 -0.364232,0.1250135 -0.827118,0.085048 -1.204484,0.098156 -0.970253,-0.023006 -1.940617,-0.045058 -2.911213,-0.044356 -0.99322,0.00556 -1.986452,0.012738 -2.979486,0.03384 -0.910146,0.025951 -1.820413,0.046737 -2.730809,0.061786 -0.801161,0.013541 -1.602335,0.024759 -2.403602,0.02973 -0.601298,0.00441 -1.202647,0.00334 -1.80386,0.017291 -0.346095,0.00439 -0.694674,0.012923 -1.03941,-0.020845 -0.338045,0 -0.338045,-0.478067 0,-0.478067 z"
       inkscape:connector-curvature="0"
       transform="translate(0,1002.3622)" />
    <path
       style="fill:#000000;fill-opacity:1;fill-rule:nonzero;stroke:none"
       id="path4750"
       d="m 38.164855,7.9768919 c 0.171098,0.3294652 0.311032,0.6740048 0.461177,1.0132758 0.214995,0.4903579 0.437693,0.9772177 0.664809,1.4620613 0.257592,0.531648 0.534735,1.053372 0.811024,1.575432 0.308787,0.56395 0.590435,1.140515 0.811734,1.74437 0.05743,0.222359 0.124016,0.435801 0.137666,0.667215 0.0068,0.115734 -0.0082,0.231726 -0.01223,0.34759 0.05804,0.199073 -0.223488,0.281159 -0.281532,0.08209 l 0,0 c -0.06398,-0.0896 -0.133527,-0.175475 -0.191952,-0.268793 -0.07464,-0.119215 -0.23228,-0.440039 -0.29547,-0.565723 -0.255314,-0.563408 -0.51357,-1.125792 -0.810298,-1.668992 -0.279321,-0.53424 -0.562025,-1.06745 -0.806838,-1.618706 C 38.426358,10.248833 38.218675,9.7428168 38.034964,9.2274369 37.904276,8.8664896 37.761868,8.5056783 37.693157,8.1265426 37.587338,7.7930017 38.059036,7.643351 38.164855,7.9768919 z"
       inkscape:connector-curvature="0"
       transform="translate(0,1002.3622)" />
    <path
       style="fill:#000000;fill-opacity:1;fill-rule:nonzero;stroke:none"
       id="path4752"
       d="m 42.504048,22.670528 c -0.06866,0.211167 -0.09665,0.432046 -0.140418,0.648811 -0.03151,0.156084 -0.06884,0.310942 -0.101892,0.466706 -0.116027,0.58154 -0.212869,1.166576 -0.314675,1.750697 -0.126288,0.694769 -0.285115,1.382859 -0.433805,2.073035 -0.170349,0.799264 -0.307578,1.605104 -0.443484,2.410787 -0.149132,0.912647 -0.319064,1.821649 -0.488042,2.730771 -0.185214,0.982533 -0.357409,1.967331 -0.518219,2.954128 -0.160945,1.005356 -0.317114,2.01218 -0.550907,3.00357 -0.132884,0.45283 -0.219883,0.935275 -0.438917,1.358947 -0.06922,0.133899 -0.163955,0.252988 -0.245932,0.379482 -0.0043,0.02227 -0.03579,0.01619 -0.03149,-0.0061 l 0,0 c -0.02914,-0.147204 -0.07191,-0.292355 -0.0874,-0.441613 -0.04884,-0.470533 0.03659,-0.947944 0.06283,-1.41622 0.105048,-1.011548 0.26574,-2.016437 0.428247,-3.020146 0.164822,-0.992682 0.330299,-1.985371 0.521606,-2.973374 0.170905,-0.903363 0.340677,-1.807001 0.489759,-2.714284 0.138668,-0.821956 0.278201,-1.644306 0.472564,-2.45538 0.165452,-0.685931 0.340964,-1.369256 0.53016,-2.049023 0.159855,-0.574054 0.31369,-1.149633 0.465702,-1.725799 0.01682,-0.06224 0.109151,-0.407124 0.130771,-0.47488 0.07052,-0.220988 0.164388,-0.434443 0.236414,-0.654984 0.109496,-0.323243 0.56663,-0.168393 0.457135,0.15485 z"
       inkscape:connector-curvature="0"
       transform="translate(0,1002.3622)" />
    <path
       style="fill:#000000;fill-opacity:1;fill-rule:nonzero;stroke:none"
       id="path4754"
       d="m 20.754812,1.6645092 c 0.367168,-0.2659663 0.795063,-0.4058005 1.231794,-0.5069689 0.32343,-0.054121 0.67906,-0.094738 0.988793,0.047696 0.211467,0.097245 0.227362,0.1536256 0.376809,0.3265339 0.03286,0.085139 0.07845,0.1664045 0.09858,0.2554181 0.123328,0.5454962 -0.225929,1.0292352 -0.527145,1.4430566 -0.327107,0.4446859 -0.726185,0.8276644 -1.123468,1.208218 -0.0816,0.00197 -0.08693,0.1118675 -0.14904,0.1398662 -0.0193,0.0087 0.04118,-0.025169 0.0436,-0.046206 0.01584,-0.1375791 0.05314,-0.2839052 0.0095,-0.4153547 -0.08203,-0.2473637 -0.301086,-0.1263516 -0.176358,-0.188955 0.403056,-0.05121 0.80355,-0.1399647 1.21052,-0.1576674 0.113538,-0.00494 0.227288,0.00136 0.340932,0.00204 0.263393,0.026173 0.447563,0.036275 0.707079,0.095355 0.119705,0.027251 0.236097,0.067418 0.354146,0.1011271 0.177834,-0.011453 0.19403,0.2400425 0.0162,0.2514951 l 0,0 c -0.321292,0.1415503 -0.644891,0.2739158 -0.985342,0.3639616 -0.107207,0.025726 -0.213465,0.055788 -0.321621,0.07718 -0.430199,0.085088 -0.87149,0.1201646 -1.308415,0.1461703 -0.192999,-0.00995 -0.427743,0.010387 -0.549428,-0.2116836 -0.200285,-0.365512 0.01647,-0.5806204 0.246373,-0.7798197 0.383536,-0.3253857 0.760426,-0.6597095 1.100844,-1.0308885 0.180382,-0.2242078 0.439201,-0.5376231 0.516402,-0.8238166 0.0056,-0.020651 0.0034,-0.04264 0.0052,-0.06396 -0.0067,-0.019463 -0.008,-0.041687 -0.01999,-0.058389 -0.131927,-0.1834543 -0.535511,-0.093443 -0.71261,-0.071368 -0.3632,0.084474 -0.721512,0.1921938 -1.045084,0.382991 -0.343676,0.2321285 -0.671955,-0.2539035 -0.328279,-0.4860319 z"
       inkscape:connector-curvature="0"
       transform="translate(0,1002.3622)" />
    <path
       style="fill:#000000;fill-opacity:1;fill-rule:nonzero;stroke:none"
       id="path4756"
       d="m 41.850964,1011.7916 c -0.0563,0.5246 -0.07603,1.0769 -0.192392,1.5815 -0.0435,0.1887 -0.107714,0.3643 -0.161571,0.5464 -0.05721,0.5267 -0.536129,0.4009 -0.478917,-0.1259 l 0,0 c -0.01228,-0.2007 -0.03628,-0.4005 -0.03684,-0.6021 -0.0015,-0.5491 0.101937,-1.0963 0.18965,-1.6225 0.101172,-0.748 0.781237,-0.5254 0.680065,0.2226 z"
       inkscape:connector-curvature="0" />
    <path
       style="fill:#000000;fill-opacity:1;fill-rule:nonzero;stroke:none"
       id="path4758"
       d="m 7.6541025,19.614622 c 0.2621517,-0.06218 0.545781,-0.12405 0.8141602,-0.05839 0.060544,0.01481 0.117754,0.04091 0.176631,0.06137 0.05903,0.04526 0.1311897,0.07725 0.1770894,0.135783 0.2592516,0.330616 0.045632,0.698757 -0.1456911,0.992142 -0.03348,0.04673 -0.067144,0.09332 -0.1004389,0.140177 -0.032184,0.0453 -0.2416305,0.322335 -0.2374378,0.376183 7.92e-4,0.01017 0.01278,-0.01591 0.01917,-0.02386 0.095382,0.04238 -0.030441,-0.116068 0.00965,-0.120679 0.021928,-0.0025 0.03957,0.01958 0.059228,0.02961 0.040363,0.02061 0.080422,0.04181 0.1208343,0.06233 0.1160786,0.05892 0.2326568,0.11686 0.348905,0.17545 0.3157355,0.169156 0.7210702,0.44209 0.8010825,0.821123 0.020594,0.09756 0.00309,0.199397 0.00464,0.299095 -0.03351,0.09381 -0.055661,0.192484 -0.1005304,0.281418 -0.1613588,0.319822 -0.5141847,0.611336 -0.8203706,0.787342 -0.075555,0.04343 -0.1573915,0.07488 -0.2360872,0.112322 -0.3283424,0.053 -0.1636387,0.05777 -0.4939922,-0.01797 C 7.865525,23.765635 7.7275443,23.503412 7.912964,23.405845 l 0,0 c 0.1090424,-0.301708 0.032419,-0.168925 0.2212838,-0.403184 0.1660771,-0.128619 0.3436279,-0.241 0.5053983,-0.375005 0.2255053,-0.186802 0.035285,-0.03813 0.2069108,-0.192193 0.014383,-0.01291 0.030958,-0.02315 0.046438,-0.03472 C 9.189448,22.389702 8.6050812,22.021382 8.5700297,22.025936 8.2912503,21.88277 7.8464288,21.725214 7.7039321,21.4242 c -0.035766,-0.07555 -0.03818,-0.162763 -0.05727,-0.244145 0.011073,-0.06539 0.015033,-0.132394 0.03322,-0.196174 0.06869,-0.240894 0.2690164,-0.422681 0.3942103,-0.631904 0.023825,-0.03635 0.04765,-0.0727 0.071475,-0.109044 0.017083,-0.02763 0.033604,-0.05562 0.051249,-0.08289 0.00782,-0.01209 0.01072,-0.03556 0.025115,-0.03515 0.016643,4.71e-4 0.088641,0.139781 0.1549971,0.112347 -0.052085,-0.09077 -0.4848911,0.0049 -0.5860991,0.0073 -0.4453936,0.09668 -0.5821202,-0.533201 -0.1367266,-0.629881 z"
       inkscape:connector-curvature="0"
       transform="translate(0,1002.3622)" />
    <path
       style="fill:#000000;fill-opacity:1;fill-rule:nonzero;stroke:none"
       id="path4760"
       d="m 19.080132,42.624017 c -0.229516,0.341559 -0.461153,0.681159 -0.659425,1.042072 -0.01996,0.04603 -0.04547,0.09003 -0.05989,0.138088 -0.0065,0.0218 -0.02357,0.06084 -0.002,0.06826 0.02126,0.0073 0.03533,-0.03364 0.03759,-0.056 0.0056,-0.05499 -0.0043,-0.110946 -0.01519,-0.16513 -0.0061,-0.03043 -0.04374,-0.05618 -0.03549,-0.08611 0.0055,-0.01989 0.04092,-0.0052 0.06139,-0.0078 0.372634,0.01151 0.747101,-0.02316 1.118817,0.01623 0.07775,0.0082 0.154586,0.02355 0.231879,0.03533 0.159779,0.05592 0.340391,0.07395 0.493719,0.150026 0.03432,0.01703 0.06302,0.04359 0.09452,0.06539 0.134922,0.0046 0.128361,0.195447 -0.0066,0.190808 l 0,0 c -0.152933,0.124524 -0.341484,0.193923 -0.515574,0.284043 -0.505953,0.180453 -1.043593,0.272619 -1.58143,0.221733 -0.232292,-0.05461 -0.395386,-0.05647 -0.566295,-0.260515 -0.261858,-0.312637 -0.148698,-0.674313 0.01157,-0.992036 0.213368,-0.397287 0.462233,-0.774209 0.753761,-1.11906 0.335671,-0.4516 0.974329,0.02311 0.638658,0.47471 z"
       inkscape:connector-curvature="0"
       transform="translate(0,1002.3622)" />
    <path
       style="fill:#000000;fill-opacity:1;fill-rule:nonzero;stroke:none"
       id="path4762"
       d="m 19.905136,43.7964 c 0.008,0.04596 0.01984,0.09141 0.02396,0.137867 0.006,0.06721 0.0074,0.384902 0.0075,0.434774 6.55e-4,0.167811 0.0045,0.391014 -0.01646,0.557121 -0.01231,0.0974 -0.03749,0.192739 -0.05624,0.289108 -0.04496,0.0955 -0.08992,0.191001 -0.134877,0.286501 0.01296,0.362654 -0.499905,0.380988 -0.512869,0.01834 l 0,0 c -0.05185,-0.09716 -0.103693,-0.19432 -0.15554,-0.29148 -0.02202,-0.100484 -0.0518,-0.199576 -0.06606,-0.301451 -0.02374,-0.169635 -0.01697,-0.39395 -0.01406,-0.565507 0.0011,-0.06317 0.0068,-0.363294 0.01544,-0.441058 0.0053,-0.04804 0.01871,-0.09485 0.02806,-0.142273 0.01277,-0.623037 0.89388,-0.604974 0.881107,0.01806 z"
       inkscape:connector-curvature="0"
       transform="translate(0,1002.3622)" />
    <path
       style="fill:#000000;fill-opacity:1;fill-rule:nonzero;stroke:none"
       id="path4764"
       d="m 33.405045,33.560171 c -0.2938,0.197118 -0.585175,0.395376 -0.857441,0.621871 -0.03207,0.03602 -0.273515,0.256842 -0.258257,0.317242 0.0046,0.01826 0.04633,-0.0031 0.05252,-0.02087 0.0775,-0.222819 0.04747,-0.208907 -0.0421,-0.381225 0.02133,-0.0021 0.04257,-0.0072 0.06397,-0.0062 0.153408,0.0076 0.305996,0.02749 0.459291,0.03713 0.33168,0.02084 0.659473,0.04676 0.989576,0.08599 0.348875,0.05053 0.710458,0.141983 1.007891,0.341607 0.04688,0.03146 0.08627,0.07285 0.129401,0.109275 0.1485,0.03831 0.09432,0.248321 -0.05418,0.210011 l 0,0 c -0.364188,0.106804 -0.74406,0.170621 -1.123623,0.179712 -0.338631,0.0077 -0.675337,0.01095 -1.013766,-0.0079 -0.150091,-0.0083 -0.450337,-0.02827 -0.601912,-0.06162 -0.0976,-0.02148 -0.191178,-0.05833 -0.286768,-0.08749 -0.09608,-0.08746 -0.229574,-0.146453 -0.288238,-0.26238 -0.221751,-0.438204 0.219637,-0.778985 0.498704,-1.022043 0.312141,-0.253974 0.638739,-0.501771 1.015711,-0.651556 0.423133,-0.218648 0.732348,0.379752 0.309215,0.5984 z"
       inkscape:connector-curvature="0"
       transform="translate(0,1002.3622)" />
    <path
       style="fill:#000000;fill-opacity:1;fill-rule:nonzero;stroke:none"
       id="path4766"
       d="m 34.158847,34.36456 c 0.04923,0.53827 -0.06958,1.078334 -0.157974,1.607205 -0.04956,0.198082 -0.09551,0.455705 -0.212455,0.631418 -0.06673,0.10026 -0.164825,0.175649 -0.247238,0.263474 -0.01587,0.137327 -0.210081,0.114883 -0.194211,-0.02244 l 0,0 c -0.06008,-0.105386 -0.139214,-0.202 -0.18025,-0.316159 -0.07588,-0.211079 -0.0512,-0.465081 -0.04746,-0.681477 0.06344,-0.538963 0.113735,-1.102004 0.346796,-1.598954 0.08269,-0.489877 0.775479,-0.372938 0.692791,0.116938 z"
       inkscape:connector-curvature="0"
       transform="translate(0,1002.3622)" />
    <path
       style="fill:#000000;fill-opacity:1;fill-rule:nonzero;stroke:none"
       id="path4768"
       d="m 42.783746,30.90064 c -0.108164,0.10193 -0.047,0.166157 -0.0044,0.02557 0.0066,-0.02178 -0.0067,-0.05023 0.0078,-0.06784 0.01019,-0.01245 0.03218,-4.2e-4 0.04828,-6.31e-4 0.470201,0.168185 0.951855,0.301238 1.422577,0.469105 0.394914,0.165479 0.891504,0.379147 1.111255,0.775859 0.04653,0.084 0.06877,0.179331 0.10316,0.268996 -0.0022,0.103918 0.01261,0.209597 -0.0066,0.311755 -0.103599,0.551962 -0.636197,0.856278 -1.086282,1.096264 -0.482505,0.201025 -1.01877,0.401417 -1.552225,0.314874 -0.09298,-0.01508 -0.181789,-0.04947 -0.272684,-0.0742 -0.154749,-0.09468 -0.325491,-0.16143 -0.395003,-0.351292 -0.0328,-0.08959 -0.01256,-0.190405 -0.01884,-0.285607 -0.03754,-0.04031 0.01947,-0.0934 0.05701,-0.05309 l 0,0 c 0.153131,-0.0356 0.306003,-0.07397 0.462199,-0.09415 0.44087,-0.04771 0.882905,-0.116121 1.293116,-0.293498 0.173575,-0.08283 0.240188,-0.107407 0.398159,-0.20907 0.09805,-0.0631 0.204152,-0.197345 0.328461,-0.183268 0.04342,-0.02998 0.06544,-0.02803 0.01583,-0.09901 -0.140975,-0.201683 -0.487257,-0.307969 -0.69682,-0.404609 -0.522092,-0.189957 -1.066479,-0.32132 -1.569807,-0.558835 -0.160769,-0.129961 -0.26156,-0.172347 -0.325432,-0.387325 -0.06862,-0.230945 0.05409,-0.444795 0.18827,-0.618762 0.296102,-0.347898 0.788102,0.07085 0.492001,0.41875 z"
       inkscape:connector-curvature="0"
       transform="translate(0,1002.3622)" />
    <path
       style="fill:#000000;fill-opacity:1;fill-rule:nonzero;stroke:none"
       id="path4772"
       d="m 19.162695,16.453878 c -0.18512,0.371102 -0.471925,0.682277 -0.740087,0.995076 -0.04739,0.05711 -0.09516,0.113909 -0.142169,0.171336 -0.06655,0.0813 -0.314414,0.372874 -0.334492,0.477502 -0.0027,0.01421 0.01827,-0.02244 0.02741,-0.03366 -0.0221,-0.535087 0.03797,0.06759 -0.0957,-0.337064 -0.0043,-0.01313 0.02416,-0.01535 0.0379,-0.01689 0.05374,-0.006 0.108137,-0.0025 0.162123,-0.0055 0.160493,-0.0091 0.381219,-0.02905 0.537373,-0.04227 0.420282,-0.03754 0.84322,-0.0592 1.265163,-0.04155 0.08611,0.0036 0.172566,0.0053 0.258031,0.01641 0.07316,0.0095 0.144419,0.03021 0.216628,0.04532 0.213016,0.08685 0.114526,0.04486 0.295983,0.124745 0.02198,-0.0023 0.02518,0.02883 0.0032,0.03109 l 0,0 c -0.15954,0.114748 -0.0732,0.05328 -0.259311,0.18397 -0.06518,0.03122 -0.128397,0.06693 -0.195542,0.09367 -0.07838,0.03121 -0.15978,0.05423 -0.240165,0.07983 -0.406929,0.129581 -0.821592,0.237584 -1.242434,0.311187 -0.431142,0.06576 -1.204272,0.234054 -1.50171,-0.211461 -0.06665,-0.09983 -0.06129,-0.232124 -0.09194,-0.348185 0.01779,-0.07426 0.02863,-0.150547 0.05337,-0.22279 0.109005,-0.318197 0.394,-0.575051 0.593441,-0.835333 0.251919,-0.29385 0.500457,-0.594062 0.778758,-0.86308 0.302421,-0.434283 0.91659,-0.0066 0.614169,0.427687 z"
       inkscape:connector-curvature="0"
       transform="translate(0,1002.3622)" />
    <path
       style="fill:#000000;fill-opacity:1;fill-rule:nonzero;stroke:none"
       id="path4774"
       d="m 19.974396,17.473514 c 0.03932,0.326996 -0.002,0.663176 -0.04194,0.98877 -0.01425,0.116168 -0.02348,0.233608 -0.05071,0.347435 -0.02911,0.121715 -0.07845,0.237684 -0.117678,0.356525 -0.08372,0.115308 -0.167441,0.230615 -0.251162,0.345922 -0.01384,0.161411 -0.242104,0.141845 -0.228269,-0.01957 l 0,0 c -0.06281,-0.12865 -0.125621,-0.257301 -0.188431,-0.385951 -0.01742,-0.12556 -0.04605,-0.250069 -0.05225,-0.37668 -0.0058,-0.118942 0.0074,-0.238128 0.01634,-0.356879 0.02457,-0.327653 0.05855,-0.665631 0.166657,-0.977243 0.05492,-0.528522 0.802361,-0.450855 0.747442,0.07767 z"
       inkscape:connector-curvature="0"
       transform="translate(0,1002.3622)" />
    <path
       style="fill:#000000;fill-opacity:1;fill-rule:nonzero;stroke:none"
       id="path4780"
       d="m 29.912275,10.822627 c -0.140307,0.365832 -0.30585,0.722775 -0.41883,1.09878 -0.02825,0.09403 -0.05001,0.189895 -0.07502,0.284843 -0.05705,0.317369 -0.193525,0.74628 -0.02671,1.055627 0.01613,0.0299 0.04307,0.05256 0.06461,0.07883 0.141683,0.104361 0.291064,0.09136 0.442246,0.01746 0.121383,-0.09146 0.1915,-0.233631 0.09033,-0.364076 -0.14522,-0.07432 -0.264609,-0.18089 -0.392355,-0.28155 -0.301206,0.0084 -0.31313,-0.417537 -0.01192,-0.425969 l 0,0 c 0.08997,-0.03859 0.174017,-0.09603 0.269899,-0.115776 0.304706,-0.06275 0.591944,0.08108 0.781854,0.313899 0.06187,0.07584 0.100394,0.168045 0.150592,0.252068 0.02366,0.0938 0.06071,0.185215 0.07098,0.281409 0.03992,0.373817 -0.13767,0.747899 -0.425133,0.982038 -0.07154,0.05827 -0.1556,0.09922 -0.2334,0.148831 -0.223597,0.07795 -0.292398,0.123721 -0.534775,0.12053 -0.279136,-0.0037 -0.56014,-0.111534 -0.764765,-0.303055 -0.06934,-0.0649 -0.120601,-0.146749 -0.180901,-0.220123 -0.108603,-0.232346 -0.14918,-0.27667 -0.189425,-0.534023 -0.06488,-0.414859 0.02366,-0.835942 0.140267,-1.232259 0.172799,-0.513564 0.364744,-1.029641 0.686496,-1.471363 0.221944,-0.393122 0.777901,-0.07925 0.555958,0.313875 z"
       inkscape:connector-curvature="0"
       transform="translate(0,1002.3622)" />
    <path
       style="fill:#000000;fill-opacity:1;fill-rule:nonzero;stroke:none"
       id="path4786"
       d="m 43.039465,29.893797 c 0.04864,-0.0099 0.09667,-0.0236 0.145922,-0.02978 0.561877,-0.07054 1.2104,0.0044 1.771952,0.05603 0.268992,0.05142 0.596722,0.08229 0.83027,0.251584 0.133126,0.0965 0.223594,0.241133 0.335391,0.361699 0.02202,0.0019 0.01936,0.03302 -0.0027,0.03114 l 0,0 c -0.131843,0.09976 -0.246588,0.227507 -0.39553,0.299274 -0.257008,0.123838 -0.583458,0.09554 -0.854349,0.09741 -0.275799,-0.02057 -0.55151,-0.04234 -0.827336,-0.06255 -0.285136,-0.02089 -0.574444,-0.03213 -0.857739,-0.07387 -0.04911,-0.0072 -0.09728,-0.01986 -0.145922,-0.02978 -0.637208,0 -0.637208,-0.901148 0,-0.901148 z"
       inkscape:connector-curvature="0"
       transform="translate(0,1002.3622)" />
  </g>
</svg>
