<svg xmlns="http://www.w3.org/2000/svg" viewBox="0 0 90.49 92.82"><defs><style>.cls-1{fill:#2a3da0;stroke:none;}</style></defs><title>Asset 7</title><g id="Layer_2" data-name="Layer 2"><g id="Content"><path class="cls-1" d="M32.13,41.49c-.48-5.43-3-11.71-8.1-14.35a9.91,9.91,0,0,0-7.67-.36,10.89,10.89,0,0,0-5.8,4.49c-3,5.05-4,12.11-1.56,17.57a12.22,12.22,0,0,0,13.65,6.84C29.44,54.22,32.33,47.88,32.13,41.49Zm-4.62,7C24.33,53.21,17.39,54.32,13.28,50,9.4,45.88,10.2,38.85,12,34c.43-1.16,2.53-4.37,4.77-4.9a8.4,8.4,0,0,1,7.48,2.22C28.55,35.25,30.49,43.31,27.51,48.49Z"/><path id="path3268" class="cls-1" d="M20.92,55.79a27.06,27.06,0,0,1,.48,4.37c.09,2.1,0,10.13,0,12,0,1.27.95,14.49,1.27,18.9a1.61,1.61,0,0,1-1.32,1.69h0a1.62,1.62,0,0,1-1.91-1.48c-.31-4.8-1.11-17.63-1.1-19,0-1.91.23-14.78.38-16.15-.16-2.42,2-2.84,2.18-.42Z"/><path class="cls-1" d="M38.57,63.15c-1.6-1-5.58,4.65-8.35,8.14a68.12,68.12,0,0,0-4.81-5.68c-.93-1-2.48-3.43-3.89-4-5-2.07,2,6.27,2.83,7.24,2.32,2.67,5,9,8.51,4.11,1.31-1.83,2.58-3.61,4-5.42C38.4,65.48,40,64.12,38.57,63.15Z"/><path class="cls-1" d="M4.12,67.53c1.38,1.81,2.65,3.59,4,5.42,3.48,4.86,6.18-1.44,8.51-4.11.83-1,7.85-9.31,2.83-7.24-1.41.58-3,3-3.89,4a64.5,64.5,0,0,0-4.81,5.68C8,67.8,4,62.1,2.38,63.15S2.54,65.48,4.12,67.53Z"/><path class="cls-1" d="M13.89,58.2c-2.72,0-7.87-.08-11.14-.08-.59,0-.85-.17-.84-.82,0-1.54.21-2.66.27-4.31s.24-4.34.15-6.37c0-.44-1.77-.72-1.82-.1S.17,51.88.12,52.87C0,54.73,0,57,0,59.08c0,.69.12,1.19.79,1.19.46,0,11.64-.07,12.91-.11S14.4,58.2,13.89,58.2Z"/><path class="cls-1" d="M2.22,35.24c0-2.72-.06-8.19-.06-11.46,0-.43.16-.52.8-.5,1.55,0,2.28,0,3.93.07s5,.15,7,.06c.44,0,.62-1.83,0-1.88s-3.81,0-6.35-.07c-1.87,0-4.13-.12-6.21-.11-.7,0-1.2.11-1.2.79,0,.46.08,11.63.11,12.9S2.23,35.74,2.22,35.24Z"/><path class="cls-1" d="M25.6,23.39c2.72,0,8.18-.06,11.46-.06.58,0,.52.14.51.6,0,1.54-.26,9.26-.18,11.29,0,.44,1.72.5,1.75-.12s.14-5.36.19-6.35c.1-1.87.12-4.13.12-6.21,0-.69-.12-1.19-.8-1.19-.45,0-11.63.07-12.9.11S25.09,23.39,25.6,23.39Z"/><path class="cls-1" d="M37.06,46.38c-.1,2.66-.23,7.9,0,11.33,0,.58-.16.56-.81.54-1.54,0-2.15.06-3.8,0s-5-.15-7-.06c-.43,0-.52,1.71.09,1.76s5.36.16,6.35.22c1.87.09,4.13.12,6.21.11.69,0,1.2-.11,1.2-.79,0-.46-.08-11.63-.12-12.9S37.1,45.26,37.06,46.38Z"/><path class="cls-1" d="M80.44,22.88c-.51-5.67-3.11-12.24-8.46-15a10.35,10.35,0,0,0-8-.38,11.28,11.28,0,0,0-6.06,4.7c-3.13,5.27-4.22,12.64-1.63,18.35A12.76,12.76,0,0,0,70.54,37.7C77.63,36.17,80.64,29.56,80.44,22.88Zm-4.65,7.47c-3.39,5-10.81,6.24-15.2,1.59-4.14-4.37-3.29-11.88-1.38-17,.46-1.24,2.7-4.67,5.09-5.23a9,9,0,0,1,8,2.37C76.9,16.21,79,24.82,75.79,30.35Z"/><path id="path3268-2" data-name="path3268" class="cls-1" d="M69,37.28a32,32,0,0,1,.64,4.84c.15,2.34.26,11.26.32,13.38,0,1.41,1.4,16.06,1.85,21a1.78,1.78,0,0,1-1.39,1.91h0a1.76,1.76,0,0,1-2.11-1.59c-.45-5.33-1.64-19.56-1.67-21.05-.05-2.12-.11-16.42,0-17.95-.23-2.68,2.12-3.2,2.35-.52Z"/><path id="path4588" class="cls-1" d="M77.58,52.35c.91,1.81,3.58,12.94,4.07,15.27.26,1.18.73,2.45-.28,3.17s-2-.92-2.44-2c-.92-2.18-1.08-4.25-1.62-6.46a54,54,0,0,0-1.84-7c-.86-2.13-2.46-3.41-4-4.88-1.17-1.13-3.46-4-3.18-5.83.13-.88.2-1.91,1-1.41C69.26,43.18,76.58,50.35,77.58,52.35Z"/><path id="path4588-2" data-name="path4588" class="cls-1" d="M62.87,54.91c-1.42,1.1-9.68,6.6-11.52,7.75-.89.56-1.8,1-2.63,0s-.27-1.8.59-2.37c1.73-1.14,8.57-5.92,10.3-7S61.2,52,62.46,50.47c1-1.16,3-5,4.19-6.65.46-.64,2.49,1.25,2.2,2.07C68.85,45.89,64.42,53.71,62.87,54.91Z"/><path class="cls-1" d="M60.11,2.29c-3,0-8.68.09-12.29.09-.65,0-.94.18-.92.89,0,1.7.22,2.94.3,4.76s.26,4.79.16,7c0,.48-2,.78-2,.11s-.38-5.91-.44-7c-.11-2-.13-4.55-.13-6.84,0-.77.13-1.32.88-1.32.5,0,12.82.09,14.22.12S60.67,2.29,60.11,2.29Z"/><path class="cls-1" d="M47.24,29.81c0,3-.06,9-.07,12.64,0,.47.18.56.89.55,1.7,0,2.51,0,4.32-.08s5.54-.17,7.77-.07c.48,0,.68,2,0,2.07s-4.2,0-7,.08c-2.06,0-4.55.13-6.84.13-.77,0-1.32-.13-1.32-.88,0-.5.09-12.82.12-14.22S47.24,29.25,47.24,29.81Z"/><path class="cls-1" d="M75.22,42.87c3,0,9,.07,12.64.07.64,0,.58-.16.56-.66-.06-1.7-.29-10.21-.19-12.45,0-.48,1.89-.55,1.92.13s.16,5.91.21,7c.11,2.06.14,4.56.13,6.85,0,.76-.13,1.32-.88,1.32-.5,0-12.82-.09-14.22-.13S74.66,42.87,75.22,42.87Z"/><path class="cls-1" d="M87.86,15.32c-.11-2.93-.25-8.71,0-12.49.05-.65-.18-.62-.89-.6-1.7,0-2.38-.06-4.2,0s-5.53.16-7.77.07c-.48,0-.57-1.88.11-1.94s5.9-.18,7-.24C84.18,0,86.68,0,89,0c.77,0,1.32.13,1.32.88,0,.5-.08,12.82-.12,14.22S87.9,16.55,87.86,15.32Z"/></g></g></svg>
