<svg xmlns="http://www.w3.org/2000/svg" viewBox="0 0 83.95 90.93"><defs><style>.cls-1{fill:#2a3da0;stroke:none;}</style></defs><title>Asset 12</title><g id="Layer_2" data-name="Layer 2"><g id="Content"><path class="cls-1" d="M17.83,65.33c4.51-1.32,9-3,13.49-4.42a89.86,89.86,0,0,1,10.36-2.63c1.08-.14.87,2-.63,2.27-2.9.43-8.77,2.61-11.63,3.42-2.53.71-10,3.09-11.53,3.57C17.59,67.64,16.57,65.63,17.83,65.33Z"/><path class="cls-1" d="M34.8,16c.92,2.44,10.51,28.35,12.08,33.73.19.65-1.18,1.32-1.39.72-.71-2-5.59-15.57-6.13-16.95C38,30,34.78,20.06,33.38,16.63,33.19,16.16,34.48,15.14,34.8,16Z"/><path class="cls-1" d="M55.75,59.4c1.44,1.39,14.15,14.24,17.14,17.88.61.74-1,1.9-1.36,1.47-1.19-1.39-7.15-7.21-7.85-8-1.81-1.93-8.63-8.8-9.35-9.7C54.24,61,54.32,58.07,55.75,59.4Z"/><path class="cls-1" d="M69.84,85c-4.21-1.08-40.2-9.88-50.86-12-1.79-.37-1.57-1.94.37-1.6C26.52,72.58,44,76.67,46,77.17c5.28,1.31,10.54,2.71,15.81,4,2.14.54,6.18,1.65,8.3,2.27C70.53,83.61,70.65,85.17,69.84,85Z"/><path class="cls-1" d="M33.15,55.05a11.94,11.94,0,0,0-3.58,0c1.13-1.2,3.71-3.69,3.11-5.52s-2.39-2.19-3.94-1.86a6.56,6.56,0,0,0-3,2.3c-.3.73,1.14,1.56,1.67,1.29s2.13-2.4,2.78-1.09c.52,1-2.43,3.41-3.69,4.7-.93,1-1.06,2.23.34,2.56,1.67.38,5.15-.12,6.25-.28C33.85,57.07,34.18,55.16,33.15,55.05Z"/><path class="cls-1" d="M70.4,59.94c-.14,1.33,0,7.32-1.61,7.89s-1.29-2.19-1.21-3a37.51,37.51,0,0,1,.66-5.61C68.85,56.94,70.71,57.9,70.4,59.94Z"/><path class="cls-1" d="M17.76,36.58a3,3,0,0,0-2.12-3.08,2.21,2.21,0,0,0,1.71-2.62c-.24-2.81-3.52-2.46-4.63-2.11-1.88.59-1.73,2.14-.74,2.06s3.41-1.17,3.48.62c0,1-1.18,1.39-1.91,1.56a.82.82,0,0,0,.29,1.57c.74.11,1.69.3,1.84,1.4.33,2.29-3.22.61-3.72,1.34-.75,1.11-.39,1.81,1.07,1.92C14.74,39.36,17.77,39.37,17.76,36.58Z"/><path class="cls-1" d="M42.68,86c.73,0,.69-1.46.2-1.6A14.88,14.88,0,0,0,41,84.31s0-.58.08-.86c.11-.68-1.85-.77-2-.19,0,.25-.15,1-.15,1a7.81,7.81,0,0,0-1.24-.09c-.38,0-.42-.15-.25-.51.24-.51.53-1.12.72-1.5.29-.58.66-1.13.92-1.7s-.25-.86-.85-1c-.78-.15-1.18.63-1.64,1.23a21.06,21.06,0,0,0-1.26,2,4.83,4.83,0,0,0-.54,1.12c-.1.33-.78,1.68.64,2a19.06,19.06,0,0,0,3.29.17c0,.79-.42,3.1.24,3.65a1,1,0,0,0,1.62-.57,9.53,9.53,0,0,0,.27-1.67L41,86S42.3,86,42.68,86Z"/><path class="cls-1" d="M52.94,37.52a2.61,2.61,0,0,0-3.41-2.36c.53-1.23,1.61-3,2-4.1s-.91-1.64-1.87-.24c-.51.74-1,1.66-1.25,2A12.79,12.79,0,0,0,47,36.15c-.59,1.93-.21,4.33,2.06,4.9S53.08,39.72,52.94,37.52Zm-3.94,1a1.08,1.08,0,0,1-.12-.24A1.22,1.22,0,0,1,49.19,37c1-.71,1.68.54,1.64.92A1,1,0,0,1,49,38.49Z"/><path class="cls-1" d="M39.16,2.79C36.06-.9,31.5-.62,28,1.84c-1.83,1.28-2.85,3.57-3.4,5.72-1,3.83.43,8,4.25,9.5a8.7,8.7,0,0,0,10.42-2.73C41.58,11.1,41.82,6,39.16,2.79Zm-3.6,11.5c-2.84,1.85-7.64.77-8.66-2.66a7.41,7.41,0,0,1,3.48-8C32.86,2.17,36.5,3,37.51,5.07,39,8.11,38.41,12.43,35.56,14.29Z"/><path class="cls-1" d="M19.29,64.91a8.21,8.21,0,0,0-5.08-4.21,10.79,10.79,0,0,0-4.45-.42,10.58,10.58,0,0,0-5.31,1.81C2.06,63.77-.07,66.76,0,69.76c.15,5.73,7.74,7.6,12.31,7.18C18.46,76.38,22.06,70.65,19.29,64.91Zm-7.8,9.2c-3.2.11-9.41-1-8.82-5.39.51-3.77,4.81-6.89,10.2-5.46a5.55,5.55,0,0,1,4,3.33C18.56,70.82,15.64,74,11.49,74.11Z"/><path class="cls-1" d="M51.91,48.75c-.86-.15-3.84-.87-6.52.53s-8.27,8.06-3.11,13c2.44,2.35,6.13,2,9,.91,3.18-1.2,6.51-3.75,6.4-7.47A7.48,7.48,0,0,0,51.91,48.75ZM49.54,61.38a6.43,6.43,0,0,1-5.11-.14c-1.43-.82-2-3.11-1.8-4.61.58-5.57,6-6.68,9.66-5.32a5.06,5.06,0,0,1,2.79,3.18C56.36,58.12,52.48,60.46,49.54,61.38Z"/><path class="cls-1" d="M81,76.73c-2.08-1.68-5.18-1.39-7.92-.32a7.84,7.84,0,0,0-4,4.39,7.07,7.07,0,0,0,2.9,8.91c4.16,2.46,10.62,1.24,11.69-4C84.36,82.66,83.56,78.78,81,76.73ZM79.21,87.67C76.86,89,73,88.2,71.59,85.92c-.9-1.46-.64-3.73,0-5.23a5.61,5.61,0,0,1,5.9-2.91,4.39,4.39,0,0,1,3.2,2.43C81.71,82.42,81.61,86.29,79.21,87.67Z"/><path class="cls-1" d="M12.69,60.25c3.77-9.75,9.43-21,12.64-29.25.87-2.26,5.07-12,5.78-13.58.26-.56-.35-2.54-1.46-.87s-3.38,6.79-4.07,8.32C21.45,34,18,42.74,14.07,51.72c-.87,2-2.9,6.91-3.25,7.9C10.26,61.17,11.91,62.29,12.69,60.25Z"/></g></g></svg>
