<svg xmlns="http://www.w3.org/2000/svg" viewBox="0 0 344.46 234.95"><defs><style>.cls-1{fill:#2a3da0;stroke:none;}</style></defs><title>Icon (2)</title><g id="Layer_2" data-name="Layer 2"><g id="Content"><g id="Icon"><path class="cls-1" d="M344.27,36.23C342.91,17.75,332,.61,311.06,0c-24.61-.7-42.4,18.1-50.24,41.49-6.57,19.62-3.38,43.31,14.28,56,16.7,12,36.94,5.74,50.34-7.9C339.15,75.68,345.7,55.62,344.27,36.23ZM310,86.07c-16.72,11.57-35.54-.66-39.91-19.23C264.79,44.08,288.08.18,318.41,13.49c8.8,3.86,12.08,14.58,12.85,23.33C332.85,54.92,325.23,75.56,310,86.07Z"/><path id="path3272" class="cls-1" d="M298.33,105.7c1.12,10.1-.6,20.62-1.08,30.73s-.89,20.2-.9,30.31c0,19.89.95,39.87.35,59.75-.11,4,0,6.89-4.64,7.62-5.47.84-6.17-2-6.68-6.34-1.12-9.67-1.17-19.37-1.23-29.08-.13-21-.28-42.1,1.42-63.08.87-10.69,1.94-21.37,4.65-31.81.58-2.22,1-6.48,4.68-5.92C298.24,98.39,298.5,103.47,298.33,105.7Z"/><path class="cls-1" d="M331.12,155.79c-1.22-8.23-13.22-15.88-19.08-21-4.63-4-9.34-8.72-14.64-11.89-7-4.22-7.94,4.43-4.38,9.08,5.1,6.64,11.85,12.25,18,17.94,2.36,2.2,8.1,5.8,9.14,8.86s-2.38,11.82-3,15c-1.07,5.18-6.31,19.88-.95,23.66,6.75,4.74,8.59-7.4,9.53-11.43,1.05-4.53,2-9.08,3-13.64C329.57,167.59,331.85,160.72,331.12,155.79Z"/><path class="cls-1" d="M288,121.49c-8.34,8.42-26.46,42.74-26.48,42.78-1-.89-18.19-15.74-19.1-16.38-7.42-5.15-13.38,1.78-8.53,6.19,3,2.69,24.36,21.49,26.56,23.56,2.44,2.29,6.45.7,8.2-3.08,8.43-18.25,21.53-40.78,22.79-43.54C291.66,130.44,288.18,121.26,288,121.49Z"/><path id="path3531" class="cls-1" d="M140.14,142.12c2.28.33-.15,9.52-1.46,15.93-.62,3-1.54,12.28-3.65,15-.93,1.19-2,.52-2.11-1-.28-6.25,2.35-15.25,3.51-21.12C136.72,149.37,138.22,141.83,140.14,142.12Z"/><path id="path3533" class="cls-1" d="M153.14,141.17c2.45-.19,1.37,14.9,1.1,22-.11,2.78,0,9.3-1.9,9.29-3.05,0-1.59-13.8-1.5-19.16C150.89,150.78,150.85,141.35,153.14,141.17Z"/><path id="path3535" class="cls-1" d="M170.87,152.59c.14,4-.26,18.62-2.24,19-2.38.43-1.4-10.46-1.24-15.67.08-2.65-1.11-15.32,1.24-15.76C170.72,139.74,170.69,147.79,170.87,152.59Z"/><path id="path3537" class="cls-1" d="M186.69,153.28c.32,1.91,2.31,18.58,0,18.68-3.62.16-3.29-14.37-3.62-18.46-.2-2.53-2.63-12.76-.39-13.37C184.2,139.73,185.69,146.59,186.69,153.28Z"/><path id="path3539" class="cls-1" d="M198.5,140.63c2.19-.08,6.13,31.19,3.4,31.33-1.82.1-3.14-14.69-3.71-19.4C197.87,149.91,196.67,140.69,198.5,140.63Z"/><path id="path3545" class="cls-1" d="M131.6,146.05c15.78-1.16,31.88-.29,47.7-.43,6.35-.06,12.67-.06,19,.16,2,.07,9.67,0,9.94,2.07S196.52,149,193.41,149c-8.38-.06-18.57,0-24.85.05-5.92,0-19.05.28-24.12.21-2.83,0-10.63.53-13-.28C130,148.48,129,146.54,131.6,146.05Z"/><path id="path3547" class="cls-1" d="M129,155.38c.64-1.46,31.46-1,46.62-1.43,7.18-.21,16.18-.18,21.54-.71,2.78-.27,11.12-.85,11.12,1,0,3.2-27.79,3.2-39.12,3.18-6.32,0-25.4.3-33.83.17C132.45,157.53,128.17,157.16,129,155.38Z"/><path id="path3549" class="cls-1" d="M126.64,166.28c0-2,33.73-2.18,44.26-2.64,7.32-.31,21.9-.82,25.44-.93,3.75-.11,14.31-1.67,14.11.69-.28,3.18-70.15,3.9-73,4.27C135.17,168,126.66,168.49,126.64,166.28Z"/><path class="cls-1" d="M228,36.52c-4.5-2.71-41.5-3.53-54.56-3-16.36.71-53-.09-58.7,3.14-6.29,3.56-5.36,13.82-5.62,20.38C108.48,73.22,107,89.81,108,106c1,14.84,7.77,12.73,20.85,12.65,6.46-.05,19.85-.72,28.52-.63-.78,2.54-3.71,13.07-3.94,15-.13,0-14.27.28-18.06.53-2.17.14-6.34.32-8.15,1.81s-2.56,5.36-3.32,7.46c-3.42,9.45-5.76,19.44-8.12,29.2-.77,3.21-5,11.08,11.6,10,15.83-1,74.16-.13,84.13-1,6.53-.57,9-1.15,8.67-7.5-.3-5.53-5.28-32.23-6.36-38.1-1-5.23-9-4.13-12.89-4-5,.16-13.22.25-18.19.33,0-.15-3.41-14.81-3.43-14.9,10.5-1.18,36.12-1.63,41.25-1.75,11.5-.25,9.95-8,10.36-13.75C231.88,88.34,233.07,39.57,228,36.52ZM208.83,140.34c.63,5.28,3.42,22,4.16,29.16.3,2.87-.71,3.8-2.13,3.82-9.49.12-71.15.86-85.51,1.32a1.61,1.61,0,0,1-1.62-2c2-7.64,4.16-15.34,5.45-23.11.22-1.29.76-6.46,1.74-7.45s4.14-1,5.05-1c5-.35,10-.67,15-.9,11-.5,21.91-.73,32.86-.84,4.42,0,18.23-.46,23.06-.61A1.85,1.85,0,0,1,208.83,140.34Zm-32.34-8.47c-5.54.16-11.88.12-17.41.5.54-2.68,2.89-11.46,3.45-14.73,4-.27,7.74-.5,11.92-.5C174.45,117.28,176.06,129.39,176.49,131.87Zm44-35.69c.2,7.83.8,9.69-9.63,9.81-14.56.17-58.63,2-73.17,2.8-3,.17-13.92.63-17.73-1.68-4-2.46-2.94-42.24-.55-56.17.47-2.74,3.86-5.27,6.55-5.51,17.49-1.63,73.88-2.7,89.51-.55,3.56.49,4.42,2,4.55,4.69C220.64,61.25,220.52,95.52,220.54,96.18Z"/><path class="cls-1" d="M91.62,59.11C89.8,38.82,80.5,15.33,61.34,5.48,52.55,1,42,.94,32.68,4.12A40.58,40.58,0,0,0,11,20.92C-.18,39.79-4.08,66.16,5.17,86.57a45.68,45.68,0,0,0,51,25.55C81.56,106.66,92.34,83,91.62,59.11ZM74.34,85.24c-11.87,17.63-37.81,21.81-53.18,5.56C6.67,75.49,9.67,49.24,16.35,31.14c1.6-4.33,9.44-16.34,17.82-18.3,10-2.36,20.27,1.33,27.95,8.3C78.24,35.77,85.47,65.89,74.34,85.24Z"/><path id="path3268" class="cls-1" d="M54.77,111.23a93.64,93.64,0,0,1,1.93,14.56c.46,7,.81,33.88,1,40.25.13,4.23,4.25,48.33,5.64,63.06a5.36,5.36,0,0,1-4.24,5.74h0a5.36,5.36,0,0,1-6.44-4.79c-1.37-16-5-58.83-5.09-63.32-.16-6.37-.35-49.41,0-54-.7-8.06,6.48-9.62,7.18-1.56Z"/><path class="cls-1" d="M114,133.45c-5.24-4.11-19.17,17-28.81,29.82-4.56-7.69-10.08-14.71-15.43-21.86-3-4-7.92-13.16-12.56-15.48-16.54-8.28,6,23.82,8.66,27.54,7.46,10.29,15.81,34.31,28,16.34,4.58-6.78,9-13.37,13.85-20C113.22,142.19,118.84,137.22,114,133.45Z"/><path id="path4588" class="cls-1" d="M30.33,152.62c-1.48,5.09-1.71,34.59-1.57,40.72.06,3.12-.47,6.56,3.13,7.78,3.15,1.06,5.42-3.47,6-6.46,1.23-6,.24-11.31.33-17.16.1-6-.5-12.78.62-18.71s5.09-10,8.72-14.59c2.76-3.51,11.36-13.59,9.16-18.14-1-2.13-5.56-3-7.53-1.33C49.23,124.73,32,147,30.33,152.62Z"/></g></g></g></svg>
