<?xml version="1.0" encoding="UTF-8" standalone="no"?>
<!-- Created with Inkscape (http://www.inkscape.org/) -->

<svg
   xmlns:dc="http://purl.org/dc/elements/1.1/"
   xmlns:cc="http://creativecommons.org/ns#"
   xmlns:rdf="http://www.w3.org/1999/02/22-rdf-syntax-ns#"
   xmlns:svg="http://www.w3.org/2000/svg"
   xmlns="http://www.w3.org/2000/svg"
   xmlns:sodipodi="http://sodipodi.sourceforge.net/DTD/sodipodi-0.dtd"
   xmlns:inkscape="http://www.inkscape.org/namespaces/inkscape"
   width="50"
   height="50"
   id="svg3213"
   version="1.1"
   inkscape:version="0.48.4 r9939"
   sodipodi:docname="sys-data-representation-logo.svg">
  <sodipodi:namedview
     id="base"
     pagecolor="#ffffff"
     bordercolor="#666666"
     borderopacity="1.0"
     inkscape:pageopacity="0.0"
     inkscape:pageshadow="2"
     inkscape:zoom="16.22"
     inkscape:cx="25"
     inkscape:cy="25.19899"
     inkscape:document-units="px"
     inkscape:current-layer="layer1"
     showgrid="false"
     inkscape:window-width="1680"
     inkscape:window-height="998"
     inkscape:window-x="1672"
     inkscape:window-y="486"
     inkscape:window-maximized="1" />
  <metadata
     id="metadata3218">
    <rdf:RDF>
      <cc:Work
         rdf:about="">
        <dc:format>image/svg+xml</dc:format>
        <dc:type
           rdf:resource="http://purl.org/dc/dcmitype/StillImage" />
        <dc:title />
      </cc:Work>
    </rdf:RDF>
  </metadata>
  <g
     inkscape:label="Layer 1"
     inkscape:groupmode="layer"
     id="layer1"
     transform="translate(0,-1002.3622)">
    <path
       style="fill:#000000;fill-opacity:1;fill-rule:nonzero;stroke:none"
       id="path3322"
       d="m 6.4529827,3.1031961 c 0.00607,0.061905 0.015486,0.1235726 0.018207,0.1857147 0.00886,0.2023537 -0.00302,0.3811005 -0.014741,0.5847425 C 6.4313825,4.3092338 6.3853415,4.741902 6.3402759,5.1757812 6.188124,6.320015 6.0590993,7.4669671 5.9586231,8.6168823 5.907886,9.1813554 5.8857539,9.7491446 5.815106,10.311829 c -0.033129,0.263863 -0.09732,0.688103 -0.1897946,0.944784 -0.048601,0.134901 -0.1250597,0.258073 -0.1875895,0.38711 -0.1299684,0.100339 -0.2599369,0.200678 -0.3899053,0.301018 -0.00227,0.03402 -0.05038,0.0308 -0.048106,-0.0032 l 0,0 C 4.8837336,11.832633 4.7677561,11.723742 4.6517786,11.614852 4.5987915,11.48411 4.5315764,11.358269 4.4928174,11.222628 4.4120123,10.939842 4.3787017,10.527307 4.3690161,10.239562 4.3491701,9.6499703 4.3993703,9.0600505 4.4512357,8.4735423 4.5719828,7.2961284 4.7182065,6.1208649 4.9290144,4.9557711 5.0678952,4.2887489 5.1976609,3.6106246 5.4515755,2.9759586 5.5415461,2.2678568 6.5429533,2.3950943 6.4529827,3.1031961 z"
       inkscape:connector-curvature="0"
       transform="translate(0,1002.3622)" />
    <path
       style="fill:#000000;fill-opacity:1;fill-rule:nonzero;stroke:none"
       id="path3324"
       d="m 15.080816,4.0565579 c -0.220504,0.2740655 -0.459479,0.5347756 -0.664365,0.8214245 -0.07233,0.1011887 -0.137584,0.2072474 -0.206376,0.3108711 -0.419309,0.664869 -0.739317,1.3910855 -0.907693,2.1606542 -0.03519,0.1608258 -0.05748,0.3242046 -0.08622,0.4863069 -0.06827,0.5649506 -0.05065,1.1479041 0.160327,1.6838637 0.113121,0.2873631 0.184204,0.3617471 0.355335,0.6119007 0.376023,0.426952 0.873585,0.719627 1.436885,0.818302 0.103256,0.01809 0.20864,0.02062 0.312959,0.03092 0.527062,-4e-5 0.932306,-0.179198 1.324198,-0.527113 0.08537,-0.07579 0.161641,-0.161258 0.242461,-0.241887 0.462313,-0.5461859 0.800731,-1.1938272 1.018834,-1.8745479 0.0492,-0.1535616 0.0867,-0.3106284 0.130058,-0.4659426 C 18.342326,7.2264732 18.421068,6.5593609 18.3351,5.8998873 18.276874,5.4532282 18.229697,5.3696791 18.094599,4.9432675 17.869934,4.4073618 17.541913,3.9091921 16.996586,3.6580128 16.680034,3.512208 16.587274,3.5367239 16.24156,3.5098534 c -0.52705,0.016845 -1.013127,0.1989147 -1.493846,0.3986484 -0.195591,0.081266 -0.383419,0.1812936 -0.581928,0.2551467 -0.226067,0.084106 -0.459987,0.1453692 -0.68998,0.2180538 -0.01675,0.017885 -0.04204,-0.0058 -0.02529,-0.023688 l 0,0 c 0.08249,-0.2609712 0.116906,-0.5423623 0.247463,-0.7829135 0.355561,-0.6551173 1.19834,-1.1893672 1.89643,-1.3893139 0.251242,-0.071961 0.516078,-0.082867 0.774116,-0.1243008 0.661148,0.061388 0.859186,0.015998 1.461404,0.3214714 0.631222,0.3201852 1.116378,0.8804276 1.44906,1.4934965 0.108463,0.1998758 0.185028,0.4154791 0.277542,0.6232187 0.06304,0.2146571 0.13847,0.4260571 0.189115,0.6439712 0.24174,1.0401515 0.186574,2.1196046 -0.07522,3.1489877 -0.05624,0.1929149 -0.104986,0.3881715 -0.168709,0.5787446 -0.299173,0.8947278 -0.751607,1.7310525 -1.388038,2.4312285 -0.311647,0.300241 -0.439365,0.453989 -0.808106,0.686684 -0.44995,0.283942 -0.966035,0.45797 -1.496611,0.501336 -0.175902,0.01438 -0.352978,-4.6e-5 -0.529467,-7e-5 -0.175393,-0.02715 -0.353206,-0.0417 -0.52618,-0.08145 C 14.04662,12.246721 13.373158,11.88001 12.862399,11.364331 12.729441,11.230092 12.617522,11.076534 12.495083,10.932636 12.215689,10.48651 12.136016,10.416945 11.965667,9.9124125 11.707669,9.1482879 11.706429,8.3420121 11.838986,7.5540458 11.884021,7.3555659 11.920278,7.1548877 11.974092,6.958606 12.226575,6.0377001 12.65851,5.1712962 13.265304,4.4331236 13.672202,3.99435 14.100101,3.5269083 14.688307,3.3404694 c 0.506351,-0.2775459 0.89886,0.4385425 0.392509,0.7160885 z"
       inkscape:connector-curvature="0"
       transform="translate(0,1002.3622)" />
    <path
       style="fill:#000000;fill-opacity:1;fill-rule:nonzero;stroke:none"
       id="path3326"
       d="m 29.99805,2.577362 c 0.0095,0.056192 0.02512,0.1116872 0.02859,0.1685755 0.01971,0.3229463 -0.03948,0.6617701 -0.08804,0.9787368 -0.06883,0.4492731 -0.09714,0.5702928 -0.186178,1.031561 -0.302994,1.3289557 -0.620868,2.653635 -0.868181,3.9943598 -0.122357,0.6257071 -0.155868,1.2689869 -0.33613,1.8834509 -0.05499,0.187447 -0.113856,0.375758 -0.201711,0.550234 -0.08703,0.172839 -0.212962,0.323169 -0.319443,0.484753 -0.04829,0.415895 -0.636454,0.3476 -0.588163,-0.06829 l 0,0 c -0.06681,-0.180097 -0.155095,-0.353627 -0.20042,-0.540292 -0.04683,-0.192846 -0.06415,-0.392511 -0.0742,-0.590706 -0.03414,-0.6735567 0.100687,-1.3380605 0.204406,-1.9991512 0.25396,-1.3726965 0.554468,-2.7365829 0.949292,-4.0764183 0.154103,-0.4914392 0.159904,-0.5257927 0.32335,-0.9900941 0.102538,-0.2912808 0.202561,-0.6040944 0.35767,-0.873853 0.02579,-0.044855 0.0603,-0.084101 0.09045,-0.1261519 0.122534,-0.6425551 1.031244,-0.4692656 0.90871,0.1732895 z"
       inkscape:connector-curvature="0"
       transform="translate(0,1002.3622)" />
    <path
       style="fill:#000000;fill-opacity:1;fill-rule:nonzero;stroke:none"
       id="path3328"
       d="m 38.842426,4.0232524 c -0.332364,0.2936093 -0.669202,0.5839192 -0.965563,0.9150511 -0.09618,0.1074706 -0.185959,0.2205117 -0.278938,0.3307675 -0.512652,0.6548731 -0.904545,1.3994564 -1.102474,2.2101272 -0.03845,0.157465 -0.06137,0.3183181 -0.09206,0.4774772 -0.0763,0.5590552 -0.04063,1.1239623 0.18887,1.6452747 0.138297,0.3141453 0.196542,0.3587669 0.401717,0.6316029 0.472985,0.519441 1.082499,0.87943 1.746342,1.099863 0.130514,0.04334 0.264589,0.07511 0.396883,0.112665 0.533171,0.120219 1.073228,0.0991 1.572233,-0.135055 0.08976,-0.04212 0.174474,-0.09424 0.261711,-0.141356 0.505613,-0.319342 0.938309,-0.742152 1.308578,-1.2098172 0.08755,-0.1105759 0.168288,-0.2263751 0.252431,-0.3395627 0.464546,-0.6798944 0.82673,-1.4306301 1.042371,-2.2267704 0.04474,-0.1651861 0.0765,-0.333618 0.114749,-0.500427 C 43.777359,6.3494228 43.792585,5.77874 43.506805,5.2859596 43.341479,5.0008797 43.236741,4.9394604 42.993791,4.7149079 42.865244,4.6320755 42.742963,4.5385963 42.608148,4.4664106 41.910904,4.0930747 41.120682,3.9724703 40.340246,3.9348668 c -0.207865,-0.010016 -0.416181,-0.00523 -0.624271,-0.00785 -0.815678,0.03874 -0.406691,0.030096 -1.226966,0.025639 C 38.043726,4.1215 37.804949,3.4917753 38.250232,3.3229345 l 0,0 c 0.819039,-0.6290874 0.369184,-0.3800383 1.352866,-0.7411489 0.268686,-0.042621 0.534663,-0.1090657 0.806059,-0.127864 1.02686,-0.071126 2.184771,0.2175968 3.07019,0.7410175 0.212469,0.1256018 0.402258,0.2861169 0.603387,0.4291753 0.426885,0.4451828 0.581129,0.5369187 0.856709,1.0933594 0.392417,0.7923526 0.402381,1.6746749 0.250591,2.526834 -0.04878,0.2050904 -0.08969,0.4122157 -0.146353,0.6152714 -0.268098,0.9607958 -0.710001,1.8663455 -1.277861,2.6846698 -0.104217,0.13831 -0.204257,0.279867 -0.31265,0.414929 -0.498823,0.621558 -1.087744,1.172864 -1.775183,1.580164 -0.373263,0.187183 -0.49096,0.268325 -0.897973,0.382279 -0.682816,0.191172 -1.389951,0.16713 -2.075269,0.0039 -0.176706,-0.05277 -0.356164,-0.09708 -0.530116,-0.158316 C 37.435827,12.507073 36.72853,12.100441 36.163903,11.553799 36.018705,11.413226 35.891912,11.25481 35.755916,11.105316 35.464906,10.674462 35.340472,10.544202 35.154696,10.052965 34.86101,9.2763888 34.855525,8.4420533 35.00105,7.6345828 c 0.05246,-0.202862 0.09424,-0.4087906 0.157388,-0.608586 0.307797,-0.9739043 0.85098,-1.8568332 1.542229,-2.6040155 0.12492,-0.1205484 0.245155,-0.2461483 0.37476,-0.3616451 0.412762,-0.3678308 0.883105,-0.6947146 1.421724,-0.8414787 0.568793,-0.2441459 0.914068,0.560249 0.345275,0.8043949 z"
       inkscape:connector-curvature="0"
       transform="translate(0,1002.3622)" />
    <path
       style="fill:#000000;fill-opacity:1;fill-rule:nonzero;stroke:none"
       id="path3330"
       d="m 4.4814228,17.238404 c -0.01952,0.02486 -0.037879,0.05068 -0.05856,0.07458 -0.1359815,0.15716 -0.2744076,0.306275 -0.393556,0.477957 -0.1726261,0.248739 -0.1960107,0.310667 -0.3464736,0.586787 -0.3364209,0.680106 -0.5602086,1.425889 -0.6189585,2.184699 -0.01192,0.153956 -0.00918,0.308697 -0.013773,0.463046 0.022398,0.539444 0.1484495,1.073204 0.4606095,1.521727 0.1816832,0.261048 0.2592184,0.308865 0.491133,0.521927 0.4831746,0.353235 1.0624513,0.567812 1.6655881,0.567182 0.1094567,-1.15e-4 0.2183317,-0.01595 0.3274975,-0.02392 0.5631964,-0.0911 1.0045589,-0.371591 1.3902023,-0.784973 0.087344,-0.09363 0.1652666,-0.19562 0.2478999,-0.29343 0.3332552,-0.442862 0.600417,-0.934137 0.77629,-1.46052 0.1154596,-0.345567 0.1300923,-0.473216 0.2033146,-0.831497 0.1122681,-0.729457 0.1285822,-1.488726 -0.061379,-2.207995 -0.034218,-0.129565 -0.08381,-0.254574 -0.1257151,-0.381861 -0.1822586,-0.430388 -0.4579858,-0.80819 -0.8847783,-1.021448 -0.2914172,-0.145614 -0.376274,-0.13669 -0.6991419,-0.19588 -0.8305502,-0.05006 -1.628552,0.194633 -2.3376807,0.619021 -0.1482567,0.08873 -0.2876413,0.1915 -0.431462,0.287249 -0.5754363,0.432406 -0.2668518,0.224739 -0.9304537,0.615961 -0.031092,0.06068 -0.1169088,0.01671 -0.085817,-0.04397 l 0,0 c 0.00449,-0.938524 -0.095577,-0.492975 0.29542,-1.337712 0.1534331,-0.184084 0.287922,-0.385776 0.4602992,-0.552254 0.6987687,-0.674855 1.6938067,-1.084147 2.6608512,-1.12871 0.2347873,-0.01082 0.4694587,0.02402 0.7041881,0.03603 0.5704047,0.139986 0.7324037,0.13492 1.2399443,0.432198 0.7077748,0.414558 1.1822633,1.073328 1.4783218,1.825149 0.056133,0.182999 0.1223396,0.363207 0.1684006,0.548997 0.229009,0.923726 0.20721,1.888733 0.05737,2.822165 -0.03889,0.181205 -0.07059,0.364103 -0.116674,0.543614 C 9.7755509,21.99374 9.3623695,22.824064 8.7881861,23.54298 8.4891312,23.877384 8.3779726,24.029589 8.0259137,24.311551 7.4562012,24.767831 6.7896675,25.054416 6.0638368,25.137068 5.5772799,25.15088 5.4602162,25.17996 4.9771343,25.090028 4.23197,24.951306 3.5541615,24.605944 2.9762507,24.12083 2.617046,23.757408 2.4957972,23.677325 2.2282002,23.235265 1.8056485,22.537225 1.6443995,21.767037 1.6399324,20.959009 c 0.01215,-0.200845 0.013666,-0.402616 0.036449,-0.602534 0.1074252,-0.942631 0.4299527,-1.847422 0.916277,-2.659334 0.088748,-0.128513 0.1723657,-0.260726 0.2662451,-0.385541 0.2941589,-0.391091 0.6506285,-0.764537 1.101119,-0.970838 0.6347289,-0.368685 1.1561291,0.528957 0.5214002,0.897642 z"
       inkscape:connector-curvature="0"
       transform="translate(0,1002.3622)" />
    <path
       style="fill:#000000;fill-opacity:1;fill-rule:nonzero;stroke:none"
       id="path3332"
       d="m 16.246689,16.927871 c -0.418295,0.303889 -0.734023,0.719163 -1.040971,1.129133 -0.442235,0.639487 -0.803891,1.347582 -0.953521,2.116748 -0.02763,0.14205 -0.03734,0.287008 -0.05601,0.430512 -0.03348,0.524898 0.0684,1.036488 0.329439,1.495786 0.1662,0.292428 0.260168,0.375963 0.48016,0.631636 0.539523,0.51764 1.194667,0.909273 1.913743,1.120513 0.139377,0.04095 0.282495,0.06787 0.423743,0.101804 0.639833,0.108315 1.266702,-0.0058 1.827863,-0.331769 0.1144,-0.06646 0.220617,-0.146102 0.330925,-0.219153 0.565203,-0.434223 1.044576,-0.980453 1.341424,-1.633415 0.05863,-0.12897 0.101755,-0.264444 0.152632,-0.396665 0.253246,-0.789859 0.275787,-1.632167 0.09548,-2.441314 -0.03945,-0.177033 -0.0987,-0.349063 -0.148052,-0.523594 -0.06948,-0.158415 -0.124708,-0.32388 -0.208445,-0.475244 -0.229107,-0.414136 -0.57391,-0.740487 -1.007915,-0.933003 -0.385799,-0.171132 -0.628567,-0.184384 -1.045891,-0.256031 -0.531056,-0.02683 -0.724473,-0.06012 -1.25914,0.0096 -0.601303,0.07844 -1.203349,0.267134 -1.744046,0.54118 -0.165548,0.08391 -0.320511,0.18724 -0.480766,0.28086 -0.169079,0.09531 -0.338158,0.190621 -0.507237,0.285931 -0.100431,0.131081 -0.285807,-0.01095 -0.185376,-0.14203 l 0,0 c 0.0749,-0.223121 0.149791,-0.446241 0.224686,-0.669361 0.153209,-0.185523 0.285853,-0.390151 0.459626,-0.556567 0.755128,-0.723162 1.881249,-1.077195 2.904619,-1.154598 0.276693,-0.02093 0.554967,5.63e-4 0.83245,8.45e-4 0.701692,0.123643 0.920327,0.108183 1.561878,0.433559 0.69574,0.352859 1.22586,0.899366 1.586763,1.58688 0.111913,0.213192 0.186319,0.444057 0.279478,0.666086 0.05966,0.228165 0.132086,0.453368 0.178973,0.684495 0.174386,0.859635 0.182905,1.774002 -0.005,2.632302 -0.04274,0.195279 -0.109246,0.38459 -0.163869,0.576885 -0.19926,0.485377 -0.22814,0.61285 -0.504268,1.059466 -0.405267,0.655489 -0.94607,1.215929 -1.570948,1.664032 -0.417372,0.257062 -0.552194,0.367767 -1.014223,0.541538 -0.734874,0.276388 -1.511889,0.31767 -2.280078,0.174405 -0.189389,-0.04804 -0.381684,-0.08581 -0.568168,-0.144116 C 15.46193,24.913594 14.59871,24.368578 13.916824,23.62299 13.5978,23.219518 13.479489,23.11415 13.251395,22.649464 c -0.347854,-0.70867 -0.452547,-1.486601 -0.364002,-2.266458 0.03801,-0.191806 0.06498,-0.386138 0.114044,-0.575418 0.238167,-0.918731 0.727276,-1.750317 1.317696,-2.484724 0.107501,-0.119584 0.21025,-0.243618 0.322502,-0.358754 0.364538,-0.373898 0.79568,-0.703135 1.297008,-0.865263 0.586209,-0.217821 0.894255,0.611203 0.308046,0.829024 z"
       inkscape:connector-curvature="0"
       transform="translate(0,1002.3622)" />
    <path
       style="fill:#000000;fill-opacity:1;fill-rule:nonzero;stroke:none"
       id="path3334"
       d="m 29.020453,15.737171 c 0.0065,0.04797 0.01699,0.09557 0.01957,0.143912 0.01368,0.25669 -0.0098,0.520371 -0.02062,0.776525 -0.02276,0.53922 -0.0047,0.188147 -0.03799,0.762326 -0.07323,1.036121 -0.14385,2.072402 -0.188691,3.110186 -0.03113,0.771093 -0.0345,1.542825 -0.04852,2.3143 -0.0032,0.177502 -0.0022,0.355178 -0.01145,0.53247 -0.0087,0.167731 -0.02823,0.334727 -0.04235,0.50209 -0.04794,0.265996 -0.08239,0.641988 -0.252036,0.874485 -0.10288,0.140992 -0.258744,0.234314 -0.388116,0.351471 1.03e-4,0.0218 -0.03072,0.02194 -0.03083,1.46e-4 l 0,0 c -0.130454,-0.110145 -0.285371,-0.196585 -0.391361,-0.330436 -0.185716,-0.234533 -0.233222,-0.592405 -0.296374,-0.867626 -0.02111,-0.171387 -0.04935,-0.342046 -0.06332,-0.514162 -0.07917,-0.97547 0.0011,-1.958007 0.02088,-2.933799 0.05497,-1.07413 0.127556,-2.149009 0.310581,-3.210346 0.06935,-0.368084 0.143157,-0.733567 0.241839,-1.095161 0.02721,-0.09971 0.105614,-0.363637 0.150313,-0.471201 0.02082,-0.05009 0.04954,-0.09652 0.07431,-0.144777 0.141136,-0.674687 1.095288,-0.475091 0.954152,0.199597 z"
       inkscape:connector-curvature="0"
       transform="translate(0,1002.3622)" />
    <path
       style="fill:#000000;fill-opacity:1;fill-rule:nonzero;stroke:none"
       id="path3336"
       d="m 40.275087,15.63031 c 0.121866,0.583103 0.05425,1.182876 0.0074,1.770364 -0.130638,1.217243 -0.298629,2.429549 -0.406451,3.649232 -0.05127,0.623372 -0.05853,1.24908 -0.09605,1.873202 -0.02171,0.361149 -0.0363,0.729612 -0.140924,1.079923 -0.04961,0.166102 -0.132753,0.320281 -0.199129,0.480422 0.02404,0.531073 -0.727015,0.565066 -0.751052,0.03399 l 0,0 c -0.08086,-0.159894 -0.181434,-0.311262 -0.242584,-0.479683 -0.13461,-0.370747 -0.162448,-0.759563 -0.177092,-1.149075 -0.02477,-0.658682 0.03626,-1.3161 0.0819,-1.972268 0.109285,-1.260296 0.253664,-2.520366 0.566563,-3.749053 0.151048,-0.570664 0.288411,-1.160845 0.597733,-1.670956 0.09468,-0.537187 0.854379,-0.403287 0.759697,0.1339 z"
       inkscape:connector-curvature="0"
       transform="translate(0,1002.3622)" />
    <path
       style="fill:#000000;fill-opacity:1;fill-rule:nonzero;stroke:none"
       id="path3396"
       d="m 27.913771,28.212957 c -0.237019,0.517147 -0.513002,1.01501 -0.73778,1.538104 -0.06741,0.156878 -0.128286,0.316486 -0.192429,0.474729 -0.268216,0.763772 -0.516765,1.563706 -0.482115,2.383634 0.0054,0.128316 0.02772,0.25536 0.04158,0.38304 0.113156,0.526859 0.355379,0.951837 0.816494,1.246163 0.08356,0.05333 0.174629,0.09386 0.261943,0.140794 0.471396,0.198478 0.985747,0.289269 1.494099,0.199732 0.09123,-0.01607 0.179793,-0.04471 0.26969,-0.06707 0.441934,-0.146068 0.801288,-0.433659 1.042186,-0.832486 0.05746,-0.09513 0.103449,-0.196736 0.155174,-0.295104 0.282319,-0.667358 0.396457,-1.396419 0.35941,-2.119308 -0.0077,-0.149944 -0.02872,-0.298905 -0.04308,-0.448358 -0.089,-0.521651 -0.256656,-1.040081 -0.606185,-1.448931 -0.184178,-0.215436 -0.262687,-0.249915 -0.488989,-0.408708 -0.388395,-0.222197 -0.817908,-0.30257 -1.26094,-0.308527 -0.13563,-0.0018 -0.271195,0.0079 -0.406836,0.0086 -0.164883,8.4e-4 -0.32976,-0.0027 -0.49464,-0.004 -0.162926,0.09494 -0.297192,-0.135472 -0.134265,-0.230412 l 0,0 c 0.119018,-0.166778 0.209596,-0.35808 0.357054,-0.500334 0.143475,-0.138413 0.320151,-0.242545 0.500675,-0.327127 0.546625,-0.256115 1.186376,-0.270407 1.756912,-0.09259 0.186904,0.05825 0.358454,0.157538 0.537681,0.236307 0.160711,0.112956 0.333308,0.210655 0.482133,0.338866 0.596588,0.513955 0.969338,1.254241 1.164974,2.005705 0.05031,0.19326 0.07862,0.391588 0.117933,0.587382 0.01861,0.200429 0.04816,0.400141 0.05584,0.601286 0.03719,0.97381 -0.16535,1.947733 -0.555772,2.837273 -0.227379,0.412056 -0.268202,0.539223 -0.577898,0.893177 -0.435052,0.497224 -1.000474,0.830251 -1.631613,1.012911 -0.407897,0.08232 -0.521765,0.125232 -0.940976,0.129756 -0.666242,0.0072 -1.315914,-0.160443 -1.913494,-0.448491 -0.388358,-0.232723 -0.543348,-0.294327 -0.870287,-0.617379 -0.397252,-0.39253 -0.686824,-0.884386 -0.840054,-1.421116 -0.05177,-0.181357 -0.07306,-0.370063 -0.109585,-0.555094 -0.01009,-0.190989 -0.03268,-0.381726 -0.03027,-0.572966 0.0126,-1.000706 0.351396,-1.96833 0.763408,-2.867228 0.383769,-0.742492 0.792315,-1.506909 1.453271,-2.042399 0.417313,-0.485607 1.104065,0.104562 0.686752,0.590169 z"
       inkscape:connector-curvature="0"
       transform="translate(0,1002.3622)" />
    <path
       style="fill:#000000;fill-opacity:1;fill-rule:nonzero;stroke:none"
       id="path3406"
       d="m 5.7894024,40.378281 c -0.2915616,0.457288 -0.6113636,0.896236 -0.9045845,1.353081 -0.3561573,0.583428 -0.6554783,1.210286 -0.7988311,1.88247 -0.02742,0.128572 -0.042448,0.259477 -0.063672,0.389216 -0.041236,0.480129 0.00739,0.967831 0.223761,1.404996 0.1258652,0.254305 0.1977562,0.313686 0.3780891,0.527669 0.083825,0.06956 0.1622863,0.146154 0.2514757,0.208693 0.4169181,0.29234 0.9320125,0.436705 1.4280067,0.520196 0.1419463,0.02389 0.2856488,0.03583 0.4284732,0.05374 0.5040479,0.02718 1.0230841,0.006 1.4933922,-0.197563 0.2406908,-0.10416 0.2844444,-0.156699 0.4873623,-0.311974 0.3727565,-0.346204 0.6017434,-0.801184 0.7359344,-1.287082 0.030942,-0.11204 0.053538,-0.22622 0.080307,-0.33933 0.1121597,-0.700459 0.078866,-1.421365 -0.086499,-2.111351 C 9.406557,42.320575 9.3572005,42.173611 9.3144918,42.024896 9.1438295,41.519637 8.895689,41.036124 8.4690157,40.699715 8.224313,40.50678 8.1051346,40.471156 7.8228053,40.338691 7.0759958,40.041663 6.335845,40.032447 5.5501006,40.14767 c -0.1764399,0.02587 -0.3511514,0.06241 -0.526727,0.09361 -0.1937174,0.0283 -0.3874349,0.0566 -0.5811523,0.0849 -0.099162,0.06245 -0.1874849,-0.07778 -0.088323,-0.140236 l 0,0 c 0.1347802,-0.178595 0.2695604,-0.35719 0.4043407,-0.535785 0.1798961,-0.128235 0.3470546,-0.276543 0.5396883,-0.384705 0.7559881,-0.424481 1.6858605,-0.519572 2.5273931,-0.351244 0.2020391,0.04041 0.3964566,0.112402 0.5946849,0.168603 0.4867392,0.233384 0.6273295,0.261218 1.0400278,0.615715 0.6002,0.515556 0.971487,1.215812 1.212564,1.957854 0.04821,0.186362 0.103443,0.371049 0.144639,0.559086 0.193182,0.881776 0.242625,1.794908 0.07954,2.685183 -0.03608,0.156994 -0.06379,0.316154 -0.108253,0.470983 -0.2225,0.774737 -0.652604,1.461539 -1.2739006,1.977118 -0.3728147,0.249681 -0.4420003,0.325917 -0.8660097,0.488834 -0.6659245,0.255868 -1.385023,0.299026 -2.0896926,0.246904 -0.184151,-0.02354 -0.3696336,-0.03833 -0.552453,-0.07062 C 5.2734553,47.884386 4.5524069,47.621143 3.9684924,47.14821 3.8262927,47.033038 3.7032059,46.89609 3.5705627,46.770029 3.2709208,46.377199 3.186977,46.317862 2.9915537,45.859817 2.7074772,45.193982 2.6558101,44.470629 2.7572335,43.760149 2.7937382,43.589221 2.8210293,43.416063 2.8667476,43.247367 3.0821638,42.4525 3.502586,41.737913 4.0022746,41.090269 4.3761598,40.628354 4.7629775,40.14997 5.2703556,39.828152 5.659355,39.461131 6.1784018,40.011259 5.7894024,40.378281 z"
       inkscape:connector-curvature="0"
       transform="translate(0,1002.3622)" />
    <path
       style="fill:#000000;fill-opacity:1;fill-rule:nonzero;stroke:none"
       id="path3408"
       d="m 39.50097,40.735914 c -0.280243,0.505074 -0.569252,1.006986 -0.783117,1.545151 -0.05529,0.139129 -0.101202,0.281804 -0.151803,0.422706 -0.216711,0.726356 -0.304557,1.492526 -0.185369,2.245097 0.02258,0.142569 0.05966,0.28246 0.08949,0.423689 0.139745,0.501842 0.381047,0.958492 0.760441,1.320081 0.226123,0.215512 0.332135,0.268386 0.592738,0.440003 0.581104,0.323442 1.227994,0.529502 1.893907,0.571584 0.126849,0.008 0.254188,0.0028 0.381283,0.0042 0.611315,-0.02518 1.186376,-0.220308 1.700305,-0.549168 0.106298,-0.06802 0.206504,-0.145119 0.309756,-0.217679 0.50942,-0.400913 0.960812,-0.884578 1.273134,-1.456425 0.05894,-0.107916 0.106824,-0.221512 0.160235,-0.332268 0.239375,-0.571381 0.334404,-1.186132 0.2761,-1.803088 -0.01248,-0.132014 -0.03685,-0.262632 -0.05527,-0.393949 -0.137585,-0.669299 -0.43049,-1.300419 -0.910485,-1.794564 -0.101897,-0.104902 -0.217286,-0.195796 -0.325929,-0.293694 -0.703025,-0.537836 -1.553798,-0.809401 -2.431616,-0.875867 -0.195478,-0.0148 -0.391967,-0.0092 -0.58795,-0.0138 -0.97913,0.01748 -1.860836,0.421707 -2.728097,0.832176 -0.220812,0.220638 -0.532841,-0.09164 -0.31203,-0.312274 l 0,0 c 0.118274,-0.209725 0.206327,-0.439643 0.354822,-0.629175 0.472392,-0.602943 1.197556,-0.938044 1.922004,-1.118238 0.248586,-0.06183 0.504941,-0.08665 0.757411,-0.129972 0.254328,-0.0066 0.508817,-0.03085 0.762983,-0.01966 0.947968,0.04172 1.892095,0.34056 2.697007,0.841226 0.183458,0.114113 0.351853,0.250826 0.52778,0.376238 0.392177,0.364107 0.529923,0.456017 0.844193,0.887852 0.444369,0.610602 0.70832,1.324698 0.842917,2.063022 0.0222,0.176072 0.05286,0.351282 0.06659,0.528215 0.06655,0.857212 -0.07358,1.709807 -0.416424,2.498183 -0.07669,0.149192 -0.146735,0.301993 -0.230071,0.447578 -0.421634,0.73658 -1.003846,1.368024 -1.678411,1.87932 -0.141064,0.0948 -0.277795,0.196391 -0.423192,0.284402 -0.737256,0.44627 -1.567835,0.693611 -2.429687,0.714442 -0.173118,-0.0058 -0.346714,-0.0033 -0.519355,-0.01738 -0.894347,-0.07305 -1.765345,-0.349665 -2.530521,-0.817748 -0.391766,-0.286315 -0.512493,-0.344094 -0.840879,-0.705882 -0.503438,-0.554646 -0.823967,-1.2333 -0.999468,-1.956936 -0.03369,-0.186957 -0.07755,-0.372364 -0.101075,-0.56087 -0.119143,-0.954711 0.01855,-1.913236 0.363133,-2.808533 0.07148,-0.165665 0.136012,-0.3345 0.214429,-0.496995 0.285166,-0.590916 0.667459,-1.142093 1.142461,-1.595618 0.406284,-0.500372 1.113918,0.0742 0.707634,0.574572 z"
       inkscape:connector-curvature="0"
       transform="translate(0,1002.3622)" />
    <path
       style="fill:#000000;fill-opacity:1;fill-rule:nonzero;stroke:none"
       id="path3410"
       d="m 18.229175,39.873982 c 0.140272,0.589705 0.183047,1.195961 0.221205,1.799097 0.05836,1.167224 0.06487,2.335828 0.110971,3.503471 0.02965,0.601384 0.07983,1.202613 0.08105,1.805157 3.37e-4,0.165721 0.01326,0.333249 -0.01212,0.497016 -0.02337,0.150827 -0.08854,0.292132 -0.132809,0.438198 0.07815,0.525842 -0.665504,0.636361 -0.743653,0.110519 l 0,0 c -0.08579,-0.133318 -0.193214,-0.254979 -0.257371,-0.399953 -0.07103,-0.160501 -0.10412,-0.335559 -0.143786,-0.506534 -0.143521,-0.618631 -0.193497,-1.253841 -0.224481,-1.886387 -0.04954,-1.195381 -0.06873,-2.392154 0.04778,-3.584889 0.05944,-0.596839 0.132415,-1.193572 0.281802,-1.775695 0,-0.545467 0.771407,-0.545467 0.771407,0 z"
       inkscape:connector-curvature="0"
       transform="translate(0,1002.3622)" />
    <path
       style="fill:#000000;fill-opacity:1;fill-rule:nonzero;stroke:none"
       id="path3414"
       d="m 28.696173,40.052078 c 0.01225,0.0525 0.02834,0.104253 0.03675,0.157505 0.07881,0.498993 0.05086,1.04462 0.04219,1.547695 -0.02349,0.967531 -0.04423,1.934973 -0.01246,2.902454 0.04906,1.009904 0.187729,2.012109 0.256934,3.020431 0.01131,0.323484 0.06245,0.800403 -0.132245,1.090101 -0.07371,0.109672 -0.190155,0.18353 -0.285233,0.275295 0.0082,0.06554 -0.08451,0.07712 -0.09269,0.01157 l 0,0 c -0.114538,-0.06409 -0.244428,-0.106311 -0.343614,-0.192267 -0.262366,-0.22737 -0.342218,-0.697498 -0.420992,-1.01006 -0.213064,-1.039692 -0.331794,-2.095258 -0.367737,-3.156279 -0.0099,-0.41946 -0.02158,-0.703475 -0.01166,-1.121809 0.01519,-0.640617 0.07352,-1.280596 0.153842,-1.915995 0.07042,-0.51075 0.136513,-1.023939 0.241692,-1.528546 -0.05664,-0.661301 0.878583,-0.7414 0.935222,-0.0801 z"
       inkscape:connector-curvature="0"
       transform="translate(0,1002.3622)" />
    <path
       style="fill:#000000;fill-opacity:1;fill-rule:nonzero;stroke:none"
       id="path3438"
       d="m 7.6572007,27.733469 c -0.039648,0.50211 -0.135727,0.998457 -0.2360465,1.491435 -0.1592847,0.718355 -0.2835843,1.442194 -0.3807806,2.171333 -0.098972,0.883392 -0.1300012,1.772642 -0.1496934,2.660784 -0.024715,0.44585 0.00437,0.894882 -0.05412,1.338941 -0.017869,0.135654 -0.035207,0.272854 -0.076612,0.403264 -0.040792,0.128478 -0.1121246,0.245175 -0.1681869,0.367762 -0.00154,0.595537 -0.8437544,0.593363 -0.8422168,-0.0022 l 0,0 C 5.6941187,36.040971 5.6229693,35.923027 5.5832666,35.793287 5.5427702,35.660952 5.5266958,35.521962 5.5107541,35.384492 5.4579855,34.929451 5.498376,34.470859 5.4961606,34.014703 c 0.035983,-0.941132 0.082991,-1.88346 0.2314654,-2.814894 0.1262673,-0.766718 0.2929612,-1.52694 0.520358,-2.270526 0.1418202,-0.470574 0.2942847,-0.939014 0.4752355,-1.396119 0.1416365,-0.660424 1.0756177,-0.46012 0.9339812,0.200305 z"
       inkscape:connector-curvature="0"
       transform="translate(0,1002.3622)" />
    <path
       style="fill:#000000;fill-opacity:1;fill-rule:nonzero;stroke:none"
       id="path3440"
       d="m 18.503965,28.145151 c 0.01027,0.04053 0.02388,0.08036 0.03081,0.121596 0.01411,0.08395 0.02906,0.311362 0.03264,0.384624 0.01436,0.293914 0.01391,0.587455 0.01059,0.881581 -0.02828,0.888072 -0.0921,1.774501 -0.1371,2.661805 -0.05003,0.874583 -0.02155,1.752727 -0.08607,2.626631 -0.01264,0.171234 -0.03365,0.341747 -0.05048,0.512621 -0.03792,0.261628 -0.08511,0.703816 -0.187014,0.955561 -0.06078,0.150135 -0.16144,0.280846 -0.24216,0.421269 -2.98e-4,0.34944 -0.49448,0.349018 -0.494182,-4.22e-4 l 0,0 c -0.08048,-0.137804 -0.180187,-0.266054 -0.241448,-0.413413 -0.108879,-0.261899 -0.157503,-0.685779 -0.200219,-0.95904 -0.01783,-0.17407 -0.04106,-0.34767 -0.05348,-0.522209 -0.06424,-0.902923 -5.87e-4,-1.8095 0.04207,-2.711605 0.06175,-0.898754 0.149275,-1.795425 0.29285,-2.685237 0.04463,-0.278622 0.09138,-0.55678 0.14167,-0.834444 0.0052,-0.02888 0.05821,-0.313914 0.07026,-0.359648 0.01033,-0.03919 0.02654,-0.07659 0.03981,-0.114884 0.0249,-0.729351 1.056358,-0.694136 1.031457,0.03521 z"
       inkscape:connector-curvature="0"
       transform="translate(0,1002.3622)" />
    <path
       style="fill:#000000;fill-opacity:1;fill-rule:nonzero;stroke:none"
       id="path3442"
       d="m 41.270193,27.951387 c 2.28e-4,0.0497 0.0037,0.09949 6.83e-4,0.149103 -0.0079,0.132654 -0.0444,0.375619 -0.06159,0.496644 -0.05736,0.403677 -0.127815,0.801705 -0.208191,1.201473 -0.198236,1.082852 -0.347357,2.173721 -0.475014,3.266938 -0.07579,0.548845 -0.06879,1.108176 -0.201274,1.649163 -0.04125,0.168437 -0.08179,0.340015 -0.158678,0.495453 -0.07976,0.161252 -0.204149,0.296277 -0.306223,0.444416 -0.02837,0.443351 -0.655359,0.403234 -0.626992,-0.04012 l 0,0 c -0.08228,-0.161259 -0.189488,-0.312064 -0.246835,-0.483777 -0.05621,-0.168318 -0.07366,-0.348007 -0.08997,-0.524712 -0.05315,-0.575956 0.05069,-1.147834 0.09909,-1.719434 0.1341,-1.145338 0.290505,-2.290825 0.581607,-3.408651 0.156707,-0.630898 0.333386,-1.280834 0.671341,-1.842305 0.223308,-0.722696 1.245354,-0.40689 1.022045,0.315805 z"
       inkscape:connector-curvature="0"
       transform="translate(0,1002.3622)" />
  </g>
</svg>
