<svg xmlns="http://www.w3.org/2000/svg" viewBox="0 0 86.9 93.39"><defs><style>.cls-1{fill:#2a3da0;stroke:none;}</style></defs><title>Asset 14</title><g id="Layer_2" data-name="Layer 2"><g id="Content"><g id="layer1"><path class="cls-1" d="M9.59,1.82a26.06,26.06,0,0,1-.42,5.64q-.36,2.85-.6,5.7c-.13,1.66-.06,3.59-.74,5.14-.28.63-.7.75-1.38.61s-.73-.75-.85-1.33a17.92,17.92,0,0,1,.05-5.47c.2-2,.46-4,.8-6,.16-.92.35-1.84.58-2.75A7.23,7.23,0,0,1,7.8,1,1,1,0,0,1,9.59,1.82Z"/><path class="cls-1" d="M35.11,3.36C32.76-.9,25.9.62,23.14,4.46,21.4,6.89,20,10,20.14,13c.26,4.9,5.24,9,10.11,7C35.91,17.57,37.9,8.42,35.11,3.36ZM30.43,16.2c-2.76,2.49-6.66.8-7.37-2.71S23.55,6,26.39,4.08s5.22-.73,6.1.89C34.24,8.19,33.13,13.76,30.43,16.2Z"/><path class="cls-1" d="M56.49,1.11a17.45,17.45,0,0,1-.79,5.05c-.48,2.12-1,4.23-1.38,6.36-.31,1.59-.21,4-1.17,5.38a1.27,1.27,0,0,1-2.21-.25c-.66-1.59.06-4.06.36-5.67.38-2,.83-4.08,1.37-6.09a34.26,34.26,0,0,1,1.5-4.56C54.41.75,54.62.07,55.34,0A1.07,1.07,0,0,1,56.49,1.11Z"/><path class="cls-1" d="M78.4.52c-2.47-.1-5-.35-8.58,3.38a13.13,13.13,0,0,0-3.43,6.93c-1,5.09,2.43,9.4,7.37,10.53C85.53,24.05,93.21,1.14,78.4.52Zm4.2,12.14c-2.13,4.53-6.53,7.9-11.22,4.27-4.93-3.81.72-13.17,5-13.47C82.42,3,85.28,6.93,82.6,12.66Z"/><path class="cls-1" d="M5.48,26.62A11.58,11.58,0,0,0,0,37.34c.2,5.24,4.91,9.66,10.21,8C21.82,41.76,17,18.85,5.48,26.62Zm8.32,9.72c-.91,4.22-5.52,9-9.62,4.72-3-3.14-1.3-10.52,3-12.2C12.53,26.76,14.83,31.54,13.8,36.34Z"/><path class="cls-1" d="M41.09,31.17a7.93,7.93,0,0,0-8.34-5,15.61,15.61,0,0,0-6,2.46,12.34,12.34,0,0,0-4.14,6.43C21.51,39.39,24,43.3,27.84,45.18,36.69,49.49,44.21,39.4,41.09,31.17Zm-4.28,9.89a6.93,6.93,0,0,1-10.94-1.12c-1.87-2.87-.63-7.19,2.07-9.25a10.43,10.43,0,0,1,2.58-1.56,9.16,9.16,0,0,1,5.48.34C40.23,31.43,39.45,38.16,36.81,41.06Z"/><path class="cls-1" d="M54.49,27a22.1,22.1,0,0,1-.15,4.37c-.14,2.06-.28,4.12-.34,6.18a32.78,32.78,0,0,1-.29,6.35c-.33,1.47-1.84,1.8-2.37.24-.65-1.91-.41-4.18-.35-6.16.08-2.22.18-4.45.47-6.65.2-1.47.33-3.75,1.22-5C53.3,25.41,54.77,25.73,54.49,27Z"/><path id="path3336" class="cls-1" d="M77.54,26.29c-.37,3.43-1,6.83-1.35,10.26-.26,2.28-.19,4.58-.57,6.85-.31,1.77-1.74,2.24-2.32.28-1.12-3.79-.08-8.34.55-12.15a33.51,33.51,0,0,1,1-5.08C75.19,25.43,77.66,24.78,77.54,26.29Z"/><path class="cls-1" d="M59.21,51.7c-1.87-1.88-6.93-2.57-9.61-.91-4,2.5-5.39,13-2.23,16.13a8.81,8.81,0,0,0,9,1.85c3.25-1.25,4.79-4.42,5.3-7.69S61.58,54.08,59.21,51.7ZM56.69,65.15c-2.44,2.11-7.45.87-8.28-2.3-.88-3.38.19-10.92,5.83-10.45a5,5,0,0,1,4,2.45C59.64,57.56,59.11,63.05,56.69,65.15Z"/><path class="cls-1" d="M14.81,74.07A8,8,0,0,0,9.74,73c-4,.37-7.17,3-7.51,9.73C2,87.3,4.63,90.55,9,91.21c4.16.64,8-1.07,9.24-5.29C19.35,82.07,18.41,76.39,14.81,74.07Zm1,9.23C15.51,88,11.2,90.09,7.1,87.84s-1.89-10.27.8-11.38,4.84-.53,5.7.16C15.45,78.11,16,81.07,15.82,83.3Z"/><path class="cls-1" d="M77.92,72.38c-5.46-.44-8.79,1.5-10.3,4.8a15.7,15.7,0,0,0-1.38,8.12c.7,5.44,5.88,8.8,11.21,8C89.5,91.38,90.42,73.39,77.92,72.38Zm-6.21,17C67,86.5,68.3,78.3,73.64,75.34c4.88-2.7,11.26,3,9.83,9C82.27,89.4,76.25,92.23,71.71,89.42Z"/><path class="cls-1" d="M33,75c.86,3.63.49,7.56.7,11.27.08,1.35.47,3.25-.06,4.54-.31.78-1.07,1.31-1.7.52-.95-1.21-1-3.44-1.09-4.91a55.46,55.46,0,0,1-.08-5.91A24.31,24.31,0,0,1,31.48,75c.12-.4.18-.76.69-.81A.78.78,0,0,1,33,75Z"/><path class="cls-1" d="M53.84,75.33a23.51,23.51,0,0,1,.12,5.5,54.62,54.62,0,0,0,.18,5.86c.15,1.65.68,3.67.33,5.31-.13.62-.58,1.28-1.33,1.08s-.9-1.15-1.06-1.71a32.15,32.15,0,0,1-.78-10.93A36.86,36.86,0,0,1,52,75.09C52.44,74.21,53.75,74.21,53.84,75.33Z"/><path class="cls-1" d="M12,50.82c-.15,2-.71,4-1,5.93a48.23,48.23,0,0,0-.48,6.13c0,1.38.31,3.55-.63,4.71s-1.77.12-2-.93A19.38,19.38,0,0,1,7.8,61a34.86,34.86,0,0,1,.84-5.83c.36-1.49.71-3.75,1.58-5A1,1,0,0,1,12,50.82Z"/><path class="cls-1" d="M33.57,51.64a13.77,13.77,0,0,1,.1,3.9c-.08,1.7-.22,3.39-.27,5.09s0,3.21-.18,4.81c-.08.83-.13,2.74-.85,3.28-1.79,1.34-2-3.88-2.06-4.58a51.94,51.94,0,0,1,.7-10c.13-.82.16-2.64.76-3.32A1,1,0,0,1,33.57,51.64Z"/><path class="cls-1" d="M78.93,50.93a26.79,26.79,0,0,1-.7,4.54c-.38,2.13-.68,4.28-.9,6.43-.1.9-.58,6.93-2.51,4.61-1-1.18-.72-3.07-.58-4.46a61.88,61.88,0,0,1,.89-6.21c.36-1.73.72-4.08,1.83-5.51C77.57,49.54,79.19,49.61,78.93,50.93Z"/></g></g></g></svg>
