<?xml version="1.0" encoding="UTF-8" standalone="no"?>
<!-- Created with Inkscape (http://www.inkscape.org/) -->

<svg
   xmlns:dc="http://purl.org/dc/elements/1.1/"
   xmlns:cc="http://creativecommons.org/ns#"
   xmlns:rdf="http://www.w3.org/1999/02/22-rdf-syntax-ns#"
   xmlns:svg="http://www.w3.org/2000/svg"
   xmlns="http://www.w3.org/2000/svg"
   xmlns:sodipodi="http://sodipodi.sourceforge.net/DTD/sodipodi-0.dtd"
   xmlns:inkscape="http://www.inkscape.org/namespaces/inkscape"
   width="50"
   height="50"
   id="svg3213"
   version="1.1"
   inkscape:version="0.48.4 r9939"
   sodipodi:docname="sys-formal-languages-logo.svg">
  <sodipodi:namedview
     id="base"
     pagecolor="#ffffff"
     bordercolor="#666666"
     borderopacity="1.0"
     inkscape:pageopacity="0.0"
     inkscape:pageshadow="2"
     inkscape:zoom="16.22"
     inkscape:cx="25"
     inkscape:cy="23.806062"
     inkscape:document-units="px"
     inkscape:current-layer="layer1"
     showgrid="false"
     inkscape:window-width="1680"
     inkscape:window-height="998"
     inkscape:window-x="1672"
     inkscape:window-y="486"
     inkscape:window-maximized="1"
     showguides="true"
     inkscape:guide-bbox="true" />
  <metadata
     id="metadata3218">
    <rdf:RDF>
      <cc:Work
         rdf:about="">
        <dc:format>image/svg+xml</dc:format>
        <dc:type
           rdf:resource="http://purl.org/dc/dcmitype/StillImage" />
        <dc:title />
      </cc:Work>
    </rdf:RDF>
  </metadata>
  <g
     inkscape:label="Layer 1"
     inkscape:groupmode="layer"
     id="layer1"
     transform="translate(0,-1002.3622)">
    <path
       style="fill:#000000;fill-opacity:1;fill-rule:nonzero;stroke:none"
       id="path3002"
       d="M 12.36218,4.2020858 C 11.884139,4.2024891 11.457211,4.4523867 11.046858,4.6692238 10.127749,5.2199753 9.2957894,5.9122828 8.5428197,6.6728508 8.3461149,6.8715406 8.1598034,7.0802572 7.9682952,7.2839604 6.9558819,8.4307274 6.0822621,9.7115898 5.4958639,11.130206 c -0.1175708,0.284427 -0.2104366,0.57845 -0.315655,0.867675 -0.346864,1.105738 -0.5519421,2.262783 -0.4416826,3.424427 0.067306,0.709104 0.1436302,0.847814 0.3438128,1.520566 0.3651402,0.943856 0.9592927,1.760584 1.7447452,2.399692 0.5254985,0.427589 0.7197832,0.500522 1.3122336,0.828704 1.0169846,0.469373 2.1185431,0.737114 3.2377571,0.792991 0.785109,0.0392 0.97211,-0.0085 1.752956,-0.08548 1.197699,-0.188737 2.336702,-0.617614 3.384998,-1.222983 0.718176,-0.414732 0.880076,-0.566434 1.543105,-1.062233 0.926624,-0.756833 1.750075,-1.638866 2.355445,-2.67607 0.362421,-0.620951 0.437899,-0.874184 0.70787,-1.538006 0.291133,-0.813177 0.491674,-1.654732 0.623576,-2.507666 0.08262,-0.534256 0.155165,-1.162244 0.152501,-1.704837 -0.0013,-0.2743032 -0.03429,-0.5475407 -0.05143,-0.8213112 C 21.791225,9.0790923 21.756597,8.8075317 21.681487,8.5459332 21.345543,7.3758754 20.612112,6.3284441 19.694304,5.5380998 19.433062,5.3131388 19.141243,5.126343 18.864713,4.9204647 18.548082,4.7534246 18.243855,4.5603893 17.914821,4.4193445 16.824946,3.9521563 15.648883,3.7840362 14.469137,3.8876979 c -1.159382,0.1018725 -1.529894,0.2819 -2.648786,0.6250649 -0.449806,0.191179 -0.899612,0.382358 -1.349419,0.573537 -0.201186,0.099318 -0.341642,-0.1852033 -0.140456,-0.2845209 l 0,0 c 0.443585,-0.2498514 0.88717,-0.4997029 1.330755,-0.7495543 1.162858,-0.4453131 1.555847,-0.6782317 2.793749,-0.832427 1.29653,-0.1614982 2.608933,0.027346 3.808748,0.541425 0.364312,0.1560955 0.699672,0.3725823 1.049507,0.5588734 0.304989,0.2285616 0.627014,0.4360008 0.914966,0.6856849 1.029721,0.892874 1.830402,2.073063 2.194426,3.392333 0.08166,0.2959536 0.11683,0.6028098 0.175244,0.9042148 0.01601,0.3013038 0.04809,0.6021824 0.04803,0.9039113 -1.04e-4,0.594467 -0.0741,1.213176 -0.165325,1.799243 -0.14078,0.904449 -0.348061,1.798026 -0.661287,2.659348 -0.304768,0.74165 -0.368083,0.971255 -0.777728,1.664922 -0.655011,1.109157 -1.540685,2.053676 -2.536747,2.863292 -0.697622,0.518066 -0.888868,0.692644 -1.645493,1.124315 -1.13398,0.64696 -2.365556,1.103112 -3.658797,1.296608 -0.851721,0.07958 -1.044209,0.130212 -1.899496,0.08039 C 10.083111,21.623403 8.8927414,21.315301 7.7905907,20.794491 7.133583,20.423509 6.9235866,20.344492 6.3429768,19.860194 5.6955652,19.320174 5.1489459,18.658275 4.7575822,17.910413 4.6268317,17.66056 4.53074,17.394049 4.417319,17.135868 4.202962,16.380157 4.1229995,16.234384 4.055407,15.442519 3.9487898,14.193469 4.1732029,12.952023 4.5493679,11.764663 4.8594133,10.938481 4.9039809,10.742416 5.3150107,9.9576426 5.9060435,8.8291924 6.6768598,7.8049569 7.5349727,6.8672844 7.7381544,6.6605295 7.9361489,6.4485458 8.1445178,6.2470197 8.9503072,5.4676921 9.8381254,4.7613049 10.834279,4.2408583 11.317716,4.014838 11.842918,3.767654 12.392109,3.8517087 c 0.247754,0.021163 0.217825,0.3715402 -0.02993,0.3503771 z"
       inkscape:connector-curvature="0"
       transform="translate(0,1002.3622)" />
    <path
       style="fill:#000000;fill-opacity:1;fill-rule:nonzero;stroke:none"
       id="path3002-1"
       d="m 36.815402,1032.0177 c -0.478041,4e-4 -0.904969,0.2503 -1.315322,0.4672 -0.919109,0.5507 -1.751069,1.243 -2.504039,2.0036 -0.196705,0.1987 -0.383016,0.4074 -0.574524,0.6111 -1.012414,1.1468 -1.886033,2.4276 -2.472432,3.8463 -0.11757,0.2844 -0.210436,0.5784 -0.315655,0.8676 -0.346864,1.1058 -0.551942,2.2628 -0.441682,3.4245 0.06731,0.7091 0.14363,0.8478 0.343813,1.5205 0.36514,0.9439 0.959292,1.7606 1.744745,2.3997 0.525498,0.4276 0.719783,0.5005 1.312233,0.8287 1.016985,0.4694 2.118544,0.7371 3.237758,0.793 0.785109,0.039 0.97211,-0.01 1.752956,-0.085 1.197699,-0.1887 2.336702,-0.6176 3.384998,-1.223 0.718176,-0.4147 0.880076,-0.5664 1.543105,-1.0622 0.926624,-0.7568 1.750075,-1.6389 2.355445,-2.6761 0.362421,-0.6209 0.437899,-0.8741 0.70787,-1.538 0.291133,-0.8131 0.491674,-1.6547 0.623576,-2.5076 0.08262,-0.5343 0.155165,-1.1623 0.152501,-1.7049 -0.0013,-0.2743 -0.03429,-0.5475 -0.05143,-0.8213 -0.05487,-0.2666 -0.0895,-0.5381 -0.164609,-0.7997 -0.335944,-1.1701 -1.069375,-2.2175 -1.987183,-3.0079 -0.261242,-0.2249 -0.553061,-0.4117 -0.829591,-0.6176 -0.316631,-0.167 -0.620858,-0.3601 -0.949892,-0.5011 -1.089875,-0.4672 -2.265938,-0.6352 -3.445684,-0.5317 -1.159382,0.1019 -1.529894,0.2819 -2.648786,0.6251 -0.449806,0.1912 -0.899612,0.3824 -1.349419,0.5735 -0.201186,0.099 -0.341642,-0.1852 -0.140456,-0.2845 l 0,0 c 0.443585,-0.2498 0.88717,-0.4997 1.330755,-0.7495 1.162858,-0.4452 1.555847,-0.6782 2.793749,-0.8324 1.29653,-0.1615 2.608933,0.027 3.808748,0.5415 0.364312,0.156 0.699672,0.3725 1.049507,0.5587 0.304989,0.2286 0.627014,0.436 0.914966,0.6857 1.029721,0.8929 1.830402,2.0731 2.194426,3.3924 0.08166,0.2959 0.11683,0.6028 0.175244,0.9042 0.01601,0.3013 0.04809,0.6022 0.04803,0.9039 -1.04e-4,0.5945 -0.0741,1.2132 -0.165325,1.7992 -0.14078,0.9045 -0.348061,1.7981 -0.661287,2.6594 -0.304768,0.7416 -0.368083,0.9712 -0.777728,1.6649 -0.655011,1.1092 -1.540685,2.0537 -2.536747,2.8633 -0.697622,0.5181 -0.888868,0.6926 -1.645493,1.1243 -1.13398,0.647 -2.365556,1.1031 -3.658797,1.2966 -0.851721,0.08 -1.044209,0.1302 -1.899496,0.08 -1.217917,-0.071 -2.408287,-0.3791 -3.510438,-0.8999 -0.657007,-0.3709 -0.867004,-0.45 -1.447614,-0.9343 -0.647411,-0.54 -1.194031,-1.2019 -1.585394,-1.9497 -0.130751,-0.2499 -0.226843,-0.5164 -0.340264,-0.7746 -0.214357,-0.7557 -0.294319,-0.9015 -0.361912,-1.6933 -0.106617,-1.2491 0.117796,-2.4905 0.493961,-3.6779 0.310046,-0.8262 0.354613,-1.0222 0.765643,-1.807 0.591033,-1.1285 1.361849,-2.1527 2.219962,-3.0904 0.203182,-0.2067 0.401176,-0.4187 0.609545,-0.6202 0.80579,-0.7794 1.693608,-1.4857 2.689762,-2.0062 0.483437,-0.226 1.008639,-0.4731 1.55783,-0.3891 0.247754,0.021 0.217825,0.3715 -0.02993,0.3503 z"
       inkscape:connector-curvature="0" />
    <path
       style="fill:#000000;fill-opacity:1;fill-rule:nonzero;stroke:none"
       id="path3002-1-7"
       d="m 36.606449,1030.2658 c -0.562512,0.012 -1.0616,0.3169 -1.541617,0.5864 -1.074292,0.6825 -2.04417,1.5361 -2.920203,2.4715 -0.228853,0.2446 -0.445345,0.501 -0.668017,0.7514 -1.176247,1.409 -2.187411,2.9791 -2.858785,4.7131 -0.134607,0.3477 -0.240018,0.7066 -0.360029,1.0598 -0.393623,1.3501 -0.61973,2.7606 -0.474714,4.1724 0.08853,0.8617 0.180159,1.0294 0.424561,1.8451 0.442076,1.1435 1.151961,2.129 2.084617,2.8959 0.623985,0.5131 0.853562,0.599 1.555022,0.9904 1.202873,0.5572 2.502614,0.868 3.820347,0.9207 0.924363,0.037 1.143765,-0.025 2.061614,-0.1272 1.406871,-0.2459 2.741515,-0.7832 3.967103,-1.534 0.839638,-0.5142 1.028154,-0.7009 1.801832,-1.3132 1.080424,-0.9333 2.037795,-2.0178 2.736508,-3.2878 0.418303,-0.7604 0.503791,-1.0694 0.812742,-1.8809 0.331891,-0.9932 0.556806,-2.0198 0.700805,-3.0593 0.0902,-0.6511 0.167304,-1.4162 0.157036,-2.0762 -0.0052,-0.3337 -0.04755,-0.6657 -0.07131,-0.9986 -0.06807,-0.3235 -0.112396,-0.6534 -0.204213,-0.9706 -0.410693,-1.419 -1.287501,-2.6833 -2.377893,-3.6324 -0.310363,-0.2702 -0.656209,-0.4935 -0.984313,-0.7402 -0.37478,-0.1988 -0.735307,-0.4296 -1.12434,-0.5967 -1.288617,-0.5535 -2.674717,-0.7421 -4.061582,-0.6 -1.362924,0.1396 -1.796545,0.3637 -3.108652,0.7964 -0.52678,0.2389 -1.05356,0.4775 -1.580343,0.7161 -0.235436,0.1232 -0.404451,-0.2206 -0.169017,-0.3442 l 0,0 c 0.51869,-0.3099 1.037377,-0.62 1.556067,-0.93 1.362501,-0.5574 1.821874,-0.8462 3.276506,-1.0506 1.523525,-0.2141 3.070328,0 4.488933,0.607 0.430744,0.1849 0.828214,0.4438 1.242317,0.6654 0.361892,0.274 0.74355,0.5219 1.085672,0.8219 1.223428,1.0723 2.181118,2.4973 2.626815,4.0975 0.09998,0.3587 0.145401,0.7317 0.2181,1.0975 0.0228,0.3663 0.0645,0.7321 0.0684,1.099 0.0076,0.7234 -0.07124,1.4771 -0.170887,2.1913 -0.153767,1.1024 -0.38593,2.1925 -0.743184,3.2445 -0.348875,0.9065 -0.420362,1.1867 -0.893276,2.0362 -0.756181,1.3582 -1.78595,2.5195 -2.947388,3.5179 -0.814092,0.6398 -1.036841,0.8547 -1.921498,1.3904 -1.325866,0.8024 -2.769086,1.3741 -4.288318,1.6272 -1.001183,0.1082 -1.227026,0.1724 -2.234117,0.1231 -1.434075,-0.069 -2.838854,-0.4286 -4.142619,-1.0472 -0.777986,-0.4423 -1.026133,-0.5356 -1.715714,-1.117 -0.768918,-0.6482 -1.420837,-1.446 -1.89119,-2.3506 -0.157143,-0.3021 -0.273719,-0.6251 -0.410579,-0.9377 -0.262172,-0.9165 -0.358182,-1.0928 -0.448129,-2.0551 -0.14188,-1.5183 0.105876,-3.0317 0.5329,-4.4813 0.353973,-1.0095 0.403839,-1.2486 0.877188,-2.2089 0.680641,-1.3811 1.574207,-2.6376 2.571636,-3.79 0.236369,-0.2543 0.466565,-0.5149 0.709106,-0.7628 0.93794,-0.9594 1.973363,-1.8306 3.138711,-2.4774 0.565898,-0.2815 1.180663,-0.5894 1.828009,-0.4946 0.291812,0.022 0.261203,0.4489 -0.03062,0.4265 z"
       inkscape:connector-curvature="0" />
    <path
       style="fill:#000000;fill-opacity:1;fill-rule:nonzero;stroke:none"
       id="path3046"
       d="m 8.5906364,18.312833 c 0.2142748,-0.596202 0.5192496,-1.157321 0.802063,-1.723131 0.6921936,-1.363315 1.3034466,-2.764059 1.8762146,-4.18097 0.578988,-1.461261 1.076844,-2.9523814 1.584504,-4.4393269 0.233665,-0.6838179 0.474732,-1.3664365 0.782246,-2.0210698 0.08461,-0.1705661 0.17294,-0.3421189 0.305657,-0.4804862 0.138382,-0.1230907 0.311555,-0.149129 0.479161,-0.067587 0.03868,0.018816 0.07012,0.049832 0.105178,0.074748 0.353328,0.3958689 0.509035,0.9423808 0.685275,1.431727 0.476024,1.4567188 0.894496,2.9315911 1.320248,4.4035851 0.399981,1.393838 0.797489,2.788452 1.159186,4.192784 0.140198,0.63614 0.339277,1.267759 0.385804,1.920643 -0.0015,0.02487 0.0043,0.05133 -0.0046,0.07461 -0.0056,0.01466 -0.0202,0.02781 -0.0356,0.03079 -0.210951,0.04072 -0.4222,0.107336 -0.636884,0.09901 -0.04302,-0.0017 0.02924,-0.08101 0.0422,-0.122069 0.02039,-0.0646 0.03856,-0.129888 0.05784,-0.194832 -0.04131,-0.08935 0.08505,-0.147777 0.126362,-0.05843 l 0,0 c 0.06567,0.0354 0.133171,0.0676 0.197019,0.106187 0.04299,0.02598 0.166215,0.0617 0.122925,0.08718 -0.182567,0.107475 -0.402037,0.133874 -0.604482,0.196305 -0.01283,0.004 -0.03124,0.0125 -0.04021,0.0025 -0.0208,-0.02317 -0.02348,-0.05769 -0.03521,-0.08653 C 17.101623,16.951553 17.030423,16.321601 16.852241,15.717525 16.496923,14.319077 16.10826,12.92959 15.718787,11.540332 15.313009,10.075587 14.920253,8.6069976 14.49383,7.1481237 14.373783,6.7633338 14.262403,6.3675852 14.068746,6.0120537 c 0.132956,0.065354 0.267978,0.059591 0.379034,-0.047133 0.0035,-0.00394 0.0062,-0.00885 0.01063,-0.011819 0.01345,-0.00908 -0.01828,0.026814 -0.02687,0.040579 -0.0524,0.084027 -0.09929,0.1713101 -0.143298,0.2600008 -0.294385,0.6319038 -0.527302,1.2895157 -0.75213,1.9488032 -0.511924,1.4994345 -1.017453,3.0019681 -1.603436,4.4746161 -0.580587,1.435699 -1.190136,2.861242 -1.912595,4.232451 -0.281027,0.54057 -0.5623265,1.081253 -0.8489278,1.618808 -0.1524008,0.410488 -0.7329176,0.19496 -0.5805168,-0.215527 z"
       inkscape:connector-curvature="0"
       transform="translate(0,1002.3622)" />
    <path
       style="fill:#000000;fill-opacity:1;fill-rule:nonzero;stroke:none"
       id="path3048"
       d="m 10.598409,13.265897 c 0.731109,-0.40817 1.524805,-0.693865 2.306562,-0.988148 0.942896,-0.345559 1.896051,-0.662022 2.845659,-0.988418 0.115097,-0.01842 0.493822,-0.218582 0.605224,-0.173211 0.09031,0.150294 0.01249,0.01602 0.140754,0.443803 -0.157787,0.06834 -0.254431,-0.154806 -0.09664,-0.223144 l 0,0 c 0.201231,0.397416 0.21202,0.243636 0.19266,0.420434 -0.08106,0.120945 -0.474858,0.18203 -0.59709,0.248029 -0.944088,0.321432 -1.891687,0.63282 -2.829299,0.972971 -0.752627,0.278077 -1.503556,0.561571 -2.232632,0.897736 -0.431372,0.237018 -0.766566,-0.373034 -0.335194,-0.610052 z"
       inkscape:connector-curvature="0"
       transform="translate(0,1002.3622)" />
    <path
       style="fill:#000000;fill-opacity:1;fill-rule:nonzero;stroke:none"
       id="path3056"
       d="m 35.149261,32.249805 c 0.0092,0.05549 0.02158,0.110545 0.02757,0.166473 0.01324,0.123673 0.03204,0.52558 0.03525,0.61866 0.01918,0.555449 0.0044,1.107294 -0.01514,1.662537 -0.08983,1.529194 -0.22806,3.054949 -0.336841,4.582856 -0.06608,1.039389 -0.122145,2.079484 -0.165021,3.120098 -0.03153,0.211666 0.0058,0.665806 -0.12986,0.850115 -0.01343,0.01825 -0.03471,0.02912 -0.05207,0.04368 -0.153985,0.04637 -0.05341,0.02993 -0.305051,-0.02016 -0.0095,-0.06451 0.08176,-0.0779 0.09123,-0.01339 l 0,0 c -0.241363,0.01991 -0.143471,0.0092 -0.294183,0.02725 -0.01698,-0.01567 -0.03816,-0.02777 -0.05095,-0.04702 -0.130589,-0.196568 -0.06808,-0.655907 -0.08105,-0.874355 0.0433,-1.05005 0.09933,-2.099709 0.180213,-3.147587 0.123224,-1.522989 0.281262,-3.0425 0.425238,-4.563587 0.04128,-0.500002 0.05881,-0.683077 0.09025,-1.168772 0.02301,-0.355423 0.02313,-0.715958 0.06107,-1.070325 0.006,-0.05593 0.01838,-0.110982 0.02757,-0.166473 0,-0.347735 0.491772,-0.347735 0.491772,0 z"
       inkscape:connector-curvature="0"
       transform="translate(0,1002.3622)" />
    <path
       style="fill:#000000;fill-opacity:1;fill-rule:nonzero;stroke:none"
       id="path3058"
       d="m 34.40957,32.045368 c 0.731624,-0.294422 1.520872,-0.422342 2.292697,-0.565301 0.721005,-0.116136 1.447104,-0.210292 2.176157,-0.258444 0.41611,-0.02748 0.908387,-0.04643 1.327583,-0.01026 0.178151,0.01537 0.353561,0.05377 0.530341,0.08065 0.262789,0.09801 0.579783,0.158477 0.735789,0.435421 0.202596,0.359648 0.113721,0.644212 -0.08546,0.976733 -0.210532,0.351478 -0.589871,0.647841 -0.884908,0.913239 -1.232924,0.971556 -2.585537,1.777208 -3.92409,2.592283 -0.420813,0.255198 -0.841529,0.510555 -1.257276,0.773955 -0.100393,0.0636 -0.339138,0.195374 -0.429826,0.290645 0.344579,-1.034507 -0.03305,0.365639 -0.06307,-0.515217 -0.0017,-0.05123 0.102065,-0.0097 0.153045,-0.01508 0.431151,-0.04541 0.860843,-0.102668 1.2909,-0.157295 1.156219,-0.133522 2.317971,-0.263137 3.483305,-0.273947 0.224747,-0.0021 0.449465,0.0066 0.674197,0.01 0.725067,0.05252 1.905367,0.130763 2.299197,0.878636 0.07644,0.145166 0.09191,0.314991 0.137866,0.472486 -0.02052,0.177551 -0.01583,0.359868 -0.06156,0.532652 -0.09992,0.377556 -0.351764,0.793583 -0.572148,1.105056 -0.282287,0.398963 -0.651829,0.810662 -0.994326,1.155626 -0.195439,0.196847 -0.403032,0.381243 -0.604549,0.571864 -0.608503,0.545457 -1.254178,1.048467 -1.921585,1.519591 -0.313752,0.221478 -0.75997,0.520508 -1.099238,0.715452 -0.148147,0.08513 -0.302757,0.158474 -0.454136,0.237711 -0.301265,0.118485 -0.723541,0.310686 -1.05138,0.138048 -0.08708,-0.04586 -0.14002,-0.138337 -0.21003,-0.207505 -0.106731,-0.03129 -0.06248,-0.182234 0.04425,-0.15094 l 0,0 c 0.256073,-0.195219 0.543305,-0.333837 0.824369,-0.490035 0.325503,-0.19066 0.575132,-0.332593 0.897088,-0.541156 0.845626,-0.547796 1.648404,-1.160979 2.41033,-1.819752 0.727291,-0.673273 1.588405,-1.437622 1.985266,-2.37036 0.03572,-0.08396 0.05565,-0.173788 0.08347,-0.260683 0.0047,-0.06275 0.02738,-0.126714 0.01418,-0.188237 -0.03752,-0.174866 -0.181613,-0.275278 -0.331274,-0.350726 -0.432436,-0.218002 -0.936108,-0.229867 -1.406213,-0.268909 -0.21408,-0.0034 -0.428141,-0.01209 -0.64224,-0.01024 -1.143488,0.0099 -2.283319,0.140859 -3.417601,0.273218 -0.04526,0.0059 -0.897268,0.117289 -0.991496,0.128539 -0.305789,0.03651 -0.849287,0.164036 -1.036854,-0.213135 -0.05889,-0.118429 0.0458,-0.260535 0.0687,-0.390803 0.04109,-0.04122 0.07892,-0.08598 0.12327,-0.123669 0.0958,-0.08141 0.324905,-0.229637 0.415793,-0.288227 0.416929,-0.26877 0.843602,-0.521999 1.267147,-0.780067 1.304152,-0.791774 2.623013,-1.570641 3.830807,-2.506774 0.465117,-0.402665 0.376045,-0.299719 0.738984,-0.695142 0.04762,-0.05188 0.08844,-0.109924 0.137928,-0.160029 0.02498,-0.02529 0.08193,-0.02967 0.08445,-0.06513 0.01212,-0.170106 -0.295957,-0.22982 -0.358444,-0.256468 -0.151044,-0.02447 -0.300733,-0.05971 -0.453132,-0.0734 -0.397401,-0.03568 -0.858255,-0.01744 -1.252302,0.0082 -0.71115,0.0462 -1.418976,0.138251 -2.123578,0.242399 -0.206379,0.03453 -0.41316,0.06673 -0.619138,0.103579 -0.551587,0.09867 -1.096202,0.235386 -1.650347,0.318467 -0.330543,0.09257 -0.461457,-0.374888 -0.130914,-0.467459 z"
       inkscape:connector-curvature="0"
       transform="translate(0,1002.3622)" />
    <path
       style="fill:#000000;fill-opacity:1;fill-rule:nonzero;stroke:none"
       id="path3080"
       d="m 22.758653,19.853463 c 0.370503,0.646456 0.827348,1.243714 1.348727,1.776166 0.178942,0.182742 0.370488,0.3527 0.555732,0.52905 1.299499,1.155118 2.790472,2.060935 4.25507,2.986617 0.692972,0.466626 1.461171,0.880901 1.996124,1.539311 0.12524,0.229801 0.114255,0.244585 -0.07138,0.415567 0.0098,0.0087 -0.0024,0.02252 -0.01224,0.01387 l 0,0 c -0.158342,0.101971 -0.216836,0.155453 -0.388261,0.05488 -0.191237,-0.139657 -0.376119,-0.287411 -0.568009,-0.426272 -0.449182,-0.325048 -0.913586,-0.628165 -1.381165,-0.925906 -1.509356,-0.956425 -3.04403,-1.899303 -4.354194,-3.126154 -0.19155,-0.194878 -0.389653,-0.383524 -0.574649,-0.584633 -0.554138,-0.602401 -1.06997,-1.279844 -1.325798,-2.06638 -0.131601,-0.367724 0.388438,-0.553836 0.520039,-0.186113 z"
       inkscape:connector-curvature="0"
       transform="translate(0,1002.3622)" />
    <path
       style="fill:#000000;fill-opacity:1;fill-rule:nonzero;stroke:none"
       id="path3082"
       d="m 30.474498,27.130818 c -0.261982,-0.708776 -0.319111,-1.47534 -0.37998,-2.222293 -0.0465,-0.988956 -0.05987,-2.004181 0.191901,-2.970472 0.03574,-0.137166 0.08742,-0.269677 0.13113,-0.404516 0.01655,-0.135787 0.208586,-0.112378 0.192033,0.02341 l 0,0 c 0.08491,1.09397 0.08348,2.193665 0.207782,3.284998 0.07137,0.69131 0.148559,1.38277 0.315983,2.058752 0.162722,0.465877 -0.496128,0.695999 -0.658849,0.230122 z"
       inkscape:connector-curvature="0"
       transform="translate(0,1002.3622)" />
    <path
       style="fill:#000000;fill-opacity:1;fill-rule:nonzero;stroke:none"
       id="path3084"
       d="m 30.461186,27.760292 c -1.054361,0.02173 -2.109474,0.01895 -3.164097,0.01985 -1.232185,-0.02585 -0.613982,0.0057 -1.854554,-0.09584 -0.410196,0.01225 -0.427514,-0.567859 -0.01732,-0.580104 l 0,0 c 1.238035,-0.175705 0.619065,-0.109699 1.856806,-0.198995 1.059236,-0.03541 2.119551,-0.05174 3.179163,-0.02088 0.619403,0 0.619403,0.875969 0,0.875969 z"
       inkscape:connector-curvature="0"
       transform="translate(0,1002.3622)" />
  </g>
</svg>
