<svg xmlns="http://www.w3.org/2000/svg" viewBox="0 0 90.87 96.16"><defs><style>.cls-1{fill:#2a3da0;stroke:none;}</style></defs><title>Asset 9</title><g id="Layer_2" data-name="Layer 2"><g id="Content"><g id="layer1"><path class="cls-1" d="M37.62,12.36c-.62-3.95-3-7-6.31-9.32C24.86-1.45,16.59-1.34,9,5.92a32.42,32.42,0,0,0-7.26,10c-3.1,6.94-2.35,16.2,4.43,20.85s15.38,3,21.75-1.44C35.45,30.06,39.2,22.56,37.62,12.36ZM34.8,18.78c-.79,7.49-3.35,10.74-9.75,14.84C10.61,42.86.45,30.34,3,21.28,5,14,10.84,6.83,15.33,4.41c5.83-3.14,13.8-.79,16.53,2.32C35.14,10.48,35.25,14.53,34.8,18.78Z"/><path class="cls-1" d="M83.65,59.92C79.36,50.14,68,50.51,59.59,56c-9,5.86-11.32,20.11-6.69,28.58,4.85,8.87,17,7.07,24.45,2.14C85.85,81.06,87.67,69.09,83.65,59.92Zm-.52,6.18c1.4,9-2.45,17-11.11,20.77s-17.47.92-18.59-8.79C52.41,69.32,56,59,64.35,55.8,73.79,52.19,81.39,54.91,83.13,66.1Z"/><path class="cls-1" d="M28.3,27.75c-1.41-5.47-1.52-6.82-3.3-12.19-.3-.89-2.62-8.94-3.32-9.62a2.05,2.05,0,0,0-3.08.53c-1.06,2.35-1.86,5.52-2.71,8C14.77,17.65,11,26.83,10.27,28.21c-.3.61-1.24,2.37-1,3.07.48,1.3,2,.5,2.53-.7.63-1.37,3.13-7.21,3.73-8.56.25-.58.29-.7.53-.73,1.47-.19,4.77-.86,6.64-1.23.43-.08.58.06.61.2.88,3,1.72,5.23,2.37,8C26.05,29.8,28.53,28.83,28.3,27.75Zm-11.23-9.5c1-2.7,2.31-7.32,2.93-9.08a.19.19,0,0,1,.36,0c.42,1.45,1.61,5.91,2.37,8.28.08.26-.05.4-.31.45-1.72.34-3.85.46-4.92.78A.35.35,0,0,1,17.07,18.25Z"/><path class="cls-1" d="M79.34,69.66c-1.77-3.37-7.2-1.92-10-1.57,3.47-1.39,8.62-3.68,7.5-7.48-1-3.43-10.69-1.9-13.2-1.13-1.66.51-1.8,1.31-1.87,2-.55,5.73-1.24,10.1-1.55,15.12-.2,3.28-1.42,7.56,1.67,7.69C69,84.59,81.79,76.59,79.34,69.66ZM65.68,61.58c.89-.16,8.38-1.16,8,.3-.63,2.64-6.14,4.58-9,5.86-.53.24-.71-.08-.69-.64,0-1.22.15-2,.22-3.93C64.31,61.55,64.67,61.76,65.68,61.58ZM76.85,71.66c-.73,3.74-9,9.3-12.38,9.35-1.06,0-1.61-.46-1.48-1.57.11-.87.33-4.44.54-6.55a2.07,2.07,0,0,1,2-1.92C69.13,70.32,77.27,69.52,76.85,71.66Z"/><path class="cls-1" d="M52.55,50.13c-.1-1.48-.06-7.63-.23-9.86,0-1.19-2.19-1.64-2.33-.29a32.05,32.05,0,0,0-.21,5.23c.06.75,0,2.28.09,3a86.26,86.26,0,0,1-9.34-6.2,32.34,32.34,0,0,1-5.61-6c-1.08-1.88-3.62-1.32-2.91.74.54,1.59,3.33,4.42,6.3,6.94,1.36,1.15,9,5.89,9.36,6.17-1.88,0-5.08.16-7.6.23-1.79,0-1.81,2.27.13,2.33,2.53.21,8.37,0,10.52.05A2,2,0,0,0,52.55,50.13Z"/><path class="cls-1" d="M46.9,82.32c4.61,16.45,26.94,17.89,37.42,6.14,9.56-10.72,7.93-29-.17-36.08-6.52-5.68-17.61-6.93-26.48-.79C47.34,58.74,43.39,69.83,46.9,82.32Zm1.44-7.06C47.44,65,51.41,57.8,60.64,53c18.44-9.59,28.15,5.19,27.9,16.69-.23,10.63-2.19,13.68-7.81,18.78-6.72,6.09-17.39,6-23.21,3.12C51.35,88.51,49.06,83.61,48.34,75.26Z"/></g></g></g></svg>
