<svg xmlns="http://www.w3.org/2000/svg" viewBox="0 0 92.44 92.28"><defs><style>.cls-1{fill:#2a3da0;stroke:none;}</style></defs><title>Asset 15</title><g id="Layer_2" data-name="Layer 2"><g id="Content"><g id="layer1"><path id="path3178" class="cls-1" d="M56.45,35.64c-1.34.27-1.21-1.17-2.45-5.56-1.54-5.45-3.67-12.49-10.07-11.3C37.19,20,34.12,31.29,26.27,29c-6.51-1.87-10.76-10.19-14.09-15.37C10.44,11,7.43,5.24,2,2.58,1,2.1-.37,1.33.1.33S2.58.55,5.65,2.44c4.27,2.64,7.89,9,10.14,12.51,3.47,5.45,8.6,16.31,15.9,10.5,5.44-4.32,11.34-13,18.53-7.12a18.84,18.84,0,0,1,5,9.08C55.44,28.74,57.38,35.45,56.45,35.64Z"/><path class="cls-1" d="M86.68,45.33C82.47,35.82,67.32,29,55.92,33.8,50.74,36,48.31,42.68,47.2,46.41A47.53,47.53,0,0,0,45.45,66c1.44,11.8,8.9,22.72,19.91,25.63S86.23,88,90.24,77.66,92.56,58.58,86.68,45.33ZM73.3,36.6a21.53,21.53,0,0,1,8.51,6.8c-2.2.42-4.53,1-5.43,1.23-3.34,1-6.26,2-9.5,3.31-1.23-2.88-5-9.69-8.57-12.4l-.26-.18C63.19,34.46,68.41,34.53,73.3,36.6ZM56,36.1c4.87,2.22,8.53,11.15,9,12.55a101.63,101.63,0,0,0-13.24,6A19.5,19.5,0,0,0,48.2,57c.09-1.4.19-2.79.37-4.18C49.89,42.82,52.61,39,56,36.1ZM71.75,89.21C60.05,90.55,52,80.89,49.23,70.53a39.33,39.33,0,0,1-1.14-11.19c3.82-2.07,8.93-4.9,13-6.56,4.58-1.89,9.22-3.67,13.93-5.21,1.91-.63,6.18-1.62,8.28-2.11C93,60.47,91.59,86.94,71.75,89.21Z"/></g></g></g></svg>
