<?xml version="1.0" encoding="UTF-8" standalone="no"?>
<!-- Created with Inkscape (http://www.inkscape.org/) -->

<svg
   xmlns:dc="http://purl.org/dc/elements/1.1/"
   xmlns:cc="http://creativecommons.org/ns#"
   xmlns:rdf="http://www.w3.org/1999/02/22-rdf-syntax-ns#"
   xmlns:svg="http://www.w3.org/2000/svg"
   xmlns="http://www.w3.org/2000/svg"
   xmlns:sodipodi="http://sodipodi.sourceforge.net/DTD/sodipodi-0.dtd"
   xmlns:inkscape="http://www.inkscape.org/namespaces/inkscape"
   width="50"
   height="50"
   id="svg3213"
   version="1.1"
   inkscape:version="0.48.4 r9939"
   sodipodi:docname="sys-human-computer-interaction-logo.svg">
  <sodipodi:namedview
     id="base"
     pagecolor="#ffffff"
     bordercolor="#666666"
     borderopacity="1.0"
     inkscape:pageopacity="0.0"
     inkscape:pageshadow="2"
     inkscape:zoom="16"
     inkscape:cx="25.202405"
     inkscape:cy="25.298487"
     inkscape:document-units="px"
     inkscape:current-layer="layer1"
     showgrid="false"
     inkscape:window-width="1680"
     inkscape:window-height="998"
     inkscape:window-x="1672"
     inkscape:window-y="486"
     inkscape:window-maximized="1"
     showguides="true"
     inkscape:guide-bbox="true" />
  <metadata
     id="metadata3218">
    <rdf:RDF>
      <cc:Work
         rdf:about="">
        <dc:format>image/svg+xml</dc:format>
        <dc:type
           rdf:resource="http://purl.org/dc/dcmitype/StillImage" />
        <dc:title />
      </cc:Work>
    </rdf:RDF>
  </metadata>
  <g
     inkscape:label="Layer 1"
     inkscape:groupmode="layer"
     id="layer1"
     transform="translate(0,-1002.3622)">
    <path
       style="fill:#000000;fill-opacity:1;fill-rule:nonzero;stroke:none"
       id="path3176"
       d="m 29.330194,1022.7192 c -0.222703,0.5017 -0.546766,0.9374 -0.823446,1.4016 -0.09967,0.1673 -0.193717,0.3386 -0.290575,0.5079 -0.645914,1.1487 -1.180934,2.3782 -1.570033,3.6658 -0.09501,0.3144 -0.173813,0.6347 -0.260719,0.952 -0.355932,1.4392 -0.576926,2.9196 -0.632654,4.4129 -0.03948,1.0579 -0.0038,1.3828 0.04221,2.4433 0.17158,2.1104 0.646646,4.1859 1.465397,6.0995 0.163749,0.3828 0.356331,0.7491 0.534498,1.1236 0.749926,1.4167 1.696233,2.697 2.868323,3.698 0.752325,0.6426 0.982666,0.7314 1.812785,1.2257 1.288937,0.6432 2.675935,1.0203 4.088067,1.0674 0.945813,0.031 1.139527,-0.037 2.072714,-0.1687 1.327604,-0.276 2.595908,-0.8092 3.717274,-1.662 0.732566,-0.557 0.864819,-0.7538 1.503398,-1.4341 0.909655,-1.0971 1.638012,-2.3669 2.109757,-3.7724 0.318907,-0.95 0.338089,-1.2332 0.528177,-2.2279 0.320523,-2.0575 0.189071,-4.1584 -0.152208,-6.2018 -0.07229,-0.4327 -0.166149,-0.8606 -0.249224,-1.291 -0.475843,-2.0768 -1.193241,-4.1102 -2.342252,-5.8405 -0.221745,-0.3339 -0.473477,-0.6413 -0.710214,-0.9621 -1.022013,-1.2484 -2.241968,-2.2629 -3.614676,-2.9727 -0.876838,-0.4534 -1.229639,-0.5377 -2.149857,-0.8556 -1.449839,-0.4025 -2.949591,-0.5026 -4.436974,-0.3909 -0.767547,0.058 -1.311865,0.162 -2.069422,0.2847 -0.893604,0.1572 -1.771406,0.4041 -2.653332,0.6257 -0.279667,0.1756 -0.500751,-0.2687 -0.221082,-0.4444 l 0,0 c 0.223142,-0.2434 0.425597,-0.5134 0.669428,-0.7304 0.635812,-0.566 1.105137,-0.7587 1.836652,-1.1516 0.368196,-0.1382 0.729696,-0.3014 1.104589,-0.4146 1.646018,-0.4973 3.379529,-0.57 5.060356,-0.2767 0.438341,0.077 0.869134,0.2002 1.303702,0.3003 1.154626,0.3892 1.430094,0.4273 2.522405,1.0152 1.605685,0.8642 3.036866,2.0795 4.240174,3.5498 0.734777,1.0234 0.940689,1.238 1.544783,2.3667 0.895356,1.6728 1.492034,3.5179 1.919339,5.4032 0.237551,1.2042 0.345014,1.622 0.486705,2.8459 0.217549,1.8789 0.220813,3.7851 -0.05981,5.6562 -0.240864,1.1479 -0.287652,1.5526 -0.670005,2.6532 -0.588596,1.6944 -1.473285,3.2297 -2.609033,4.525 -0.786027,0.7936 -0.974531,1.0451 -1.863373,1.6973 -1.013415,0.7435 -2.13974,1.3197 -3.308208,1.6773 -0.395609,0.1205 -0.802129,0.1916 -1.203194,0.2874 -1.075268,0.1311 -1.392742,0.215 -2.479467,0.1655 -0.794811,-0.036 -1.715343,-0.1776 -2.4871,-0.3953 -1.017086,-0.2871 -1.407949,-0.5192 -2.37234,-0.9733 -0.999374,-0.621 -1.249483,-0.7168 -2.150106,-1.5149 -1.347576,-1.194 -2.426492,-2.7045 -3.276344,-4.3723 -0.497492,-1.0922 -0.699807,-1.4587 -1.082826,-2.6106 -0.588151,-1.7687 -0.926514,-3.634 -1.055998,-5.5138 -0.01601,-0.456 -0.04662,-0.9114 -0.04801,-1.3678 -0.0051,-1.7012 0.188199,-3.4225 0.554098,-5.0731 0.0833,-0.3758 0.190009,-0.7445 0.285013,-1.1169 0.110517,-0.3459 0.212928,-0.6953 0.331541,-1.038 0.486025,-1.4038 1.128591,-2.7368 1.933525,-3.9425 0.431906,-0.6 0.888011,-1.2946 1.48749,-1.7006 0.04978,-0.033 0.104602,-0.056 0.156905,-0.086 0.535512,-0.5269 1.198696,0.324 0.663184,0.8508 z"
       inkscape:connector-curvature="0" />
    <path
       style="fill:#000000;fill-opacity:1;fill-rule:nonzero;stroke:none"
       id="path3178"
       d="m 29.766916,1020.541 c -0.187887,-0.4247 -0.307638,-0.882 -0.423961,-1.3363 -0.173284,-0.7479 -0.43137,-1.4639 -0.717289,-2.1649 -0.313169,-0.7054 -0.693981,-1.3867 -1.19903,-1.9404 -0.09822,-0.1077 -0.2056,-0.2042 -0.308399,-0.3063 -0.541073,-0.4816 -1.181248,-0.7706 -1.859725,-0.8964 -0.136401,-0.026 -0.274506,-0.037 -0.411758,-0.056 -0.72495,-0.049 -1.420589,0.1624 -2.0616,0.5351 -0.147538,0.086 -0.288368,0.1853 -0.432552,0.2781 -0.974366,0.6942 -1.81975,1.5846 -2.674542,2.4483 -0.696642,0.6908 -1.40102,1.4045 -2.248029,1.8579 -0.159421,0.085 -0.326482,0.1513 -0.489722,0.227 -0.704574,0.2701 -1.439121,0.3082 -2.157481,0.077 -0.472708,-0.1525 -0.628011,-0.2748 -1.063319,-0.5291 -1.172094,-0.8113 -2.090087,-1.9764 -2.97512,-3.1415 -1.1291318,-1.5176 -2.1154817,-3.1584 -3.1158675,-4.7832 -0.7016209,-1.1287 -1.4525151,-2.2257 -2.3394961,-3.1804 -0.4855603,-0.5226 -0.7988936,-0.789 -1.3190015,-1.2637 -0.4447287,-0.3832 -0.8958172,-0.7568 -1.3417192,-1.138 -0.2178661,-0.1863 -0.4457849,-0.3591 -0.6511637,-0.5625 -0.2104103,-0.2084 -0.3956434,-0.4469 -0.593465,-0.6703 -0.1251714,-0.059 -0.050931,-0.2578 0.074241,-0.1988 l 0,0 c 0.2958989,0.013 0.5950694,-0.023 0.8876968,0.027 0.2937534,0.05 0.5779279,0.1602 0.8580561,0.2715 0.7667243,0.3049 0.9635358,0.4822 1.6684626,0.9399 0.2631146,0.2124 0.5354839,0.4111 0.7893436,0.6374 1.2928828,1.152 2.3150808,2.6244 3.2528332,4.1356 0.9747778,1.5753 1.9332277,3.1664 3.0206587,4.6483 0.753915,1.001 1.524061,2.0204 2.517027,2.7335 0.116478,0.072 0.229691,0.1514 0.349435,0.2165 0.499927,0.2718 1.032189,0.3481 1.568891,0.1733 0.321729,-0.1367 0.392854,-0.1512 0.698872,-0.3475 0.588851,-0.3773 1.09258,-0.8968 1.60198,-1.3925 0.939281,-0.9419 1.868809,-1.9121 2.947935,-2.6529 0.183409,-0.1142 0.362617,-0.2371 0.550227,-0.3421 0.889647,-0.4982 1.858597,-0.7485 2.853707,-0.6725 0.186379,0.024 0.374203,0.038 0.559141,0.074 0.935687,0.181 1.809406,0.6287 2.545455,1.3004 0.136194,0.1422 0.278729,0.277 0.408584,0.4264 0.601769,0.6926 1.033144,1.5357 1.394294,2.4073 0.31065,0.7888 0.579839,1.5965 0.755203,2.438 0.09663,0.4779 0.177704,0.9652 0.15831,1.4577 0.166786,0.8556 -0.910326,1.1206 -1.077112,0.265 z"
       inkscape:connector-curvature="0" />
    <path
       style="fill:#000000;fill-opacity:1;fill-rule:nonzero;stroke:none"
       id="path3198"
       d="m 25.115759,1034.0623 c 0.153366,-0.3659 0.411681,-0.6437 0.674106,-0.9116 0.367873,-0.3755 0.336831,-0.3347 0.747391,-0.7019 0.953934,-0.7966 1.970889,-1.4994 3.024705,-2.1168 0.254618,-0.1492 0.51425,-0.2873 0.771374,-0.431 1.629169,-0.9019 3.309346,-1.6796 5.004621,-2.409 1.445679,-0.639 2.912595,-1.2136 4.405847,-1.6948 0.949403,-0.3147 1.917812,-0.5527 2.894932,-0.7278 0.66758,-0.098 1.341408,-0.1601 2.014153,-0.1116 0.200828,0.05 0.421234,0.098 0.488275,0.3543 0.02551,0.097 0.01985,0.2028 0.02979,0.3041 0.509662,0.013 0.493429,0.8225 -0.01623,0.8097 l 0,0 c -0.005,0.1013 0.0059,0.2046 -0.01521,0.303 -0.05369,0.2501 -0.264376,0.3041 -0.454245,0.3601 -0.578478,0.069 -1.163082,0.055 -1.738417,0.1619 -0.899379,0.1593 -1.784809,0.3937 -2.6643,0.6574 -1.437939,0.4627 -2.863873,0.9714 -4.259246,1.5788 -1.639943,0.7162 -3.287928,1.415 -4.888825,2.2371 -1.227919,0.6755 -2.451077,1.3713 -3.566925,2.2664 -0.170537,0.1345 -0.53054,0.4162 -0.707915,0.5636 -0.241194,0.2005 -0.470373,0.4271 -0.751965,0.5556 -0.659523,0.7879 -1.651436,-0.2599 -0.991913,-1.0479 z"
       inkscape:connector-curvature="0" />
    <path
       style="fill:#000000;fill-opacity:1;fill-rule:nonzero;stroke:none"
       id="path3200"
       d="m 30.107721,1020.7714 c 0.812579,0.2406 1.475747,0.8577 2.120391,1.4338 0.691634,0.6447 1.318313,1.3733 1.87094,2.1693 0.344733,0.4966 0.434934,0.6712 0.740256,1.1899 0.355451,0.6816 0.707085,1.3969 0.807186,2.1916 0.0514,0.408 0.02117,0.5079 -0.01626,0.9028 -0.07871,0.2638 -0.104899,0.4742 -0.302141,0.6676 -0.106589,0.1052 -0.242066,0.1647 -0.3631,0.247 0.0065,0.08 -0.09354,0.09 -0.100024,0.013 l 0,0 c -0.132648,-0.06 -0.275031,-0.097 -0.397945,-0.1803 -0.176619,-0.118 -0.278811,-0.3169 -0.392638,-0.4971 -0.123795,-0.2668 -0.143532,-0.2942 -0.245645,-0.5759 -0.192137,-0.5301 -0.337995,-1.0843 -0.630183,-1.5621 -0.09507,-0.1659 -0.185882,-0.3351 -0.285191,-0.4979 -0.556744,-0.9126 -1.208915,-1.7492 -1.871112,-2.5655 -0.338878,-0.3836 -0.347395,-0.4058 -0.692192,-0.7504 -0.426972,-0.4267 -0.144604,-0.1304 -0.533408,-0.5027 -0.124259,-0.1192 -0.195452,-0.1976 -0.308234,-0.3182 -0.857452,-0.4761 -0.258158,-1.8383 0.599293,-1.3624 z"
       inkscape:connector-curvature="0" />
  </g>
</svg>
