<svg xmlns="http://www.w3.org/2000/svg" xmlns:xlink="http://www.w3.org/1999/xlink" viewBox="0 0 48 48" version="1.1" fill="000000">
<g id="surface1">
<path style=" fill:#2196F3;" d="M 18 12 C 18 15.867188 14.867188 19 11 19 C 7.132813 19 4 15.867188 4 12 C 4 8.132813 7.132813 5 11 5 C 14.867188 5 18 8.132813 18 12 Z "/>
<path style=" fill:#FFA726;" d="M 23.082031 28.859375 C 23.796875 30.273438 25.566406 30.828125 27.015625 30.09375 C 28.46875 29.359375 29.074219 27.605469 28.363281 26.195313 L 25.175781 19.875 C 24.464844 18.464844 22.695313 17.910156 21.242188 18.644531 C 19.789063 19.378906 19.183594 21.132813 19.894531 22.542969 Z "/>
<path style=" fill:#FFA726;" d="M 28.390625 26.234375 C 29.101563 27.644531 30.871094 28.199219 32.328125 27.464844 C 33.78125 26.734375 34.382813 24.976563 33.671875 23.566406 L 30.484375 17.246094 C 29.773438 15.839844 28.003906 15.28125 26.550781 16.015625 C 25.097656 16.75 24.492188 18.503906 25.203125 19.914063 Z "/>
<path style=" fill:#FFA726;" d="M 33.699219 23.605469 C 34.410156 25.019531 36.179688 25.574219 37.636719 24.839844 C 39.085938 24.105469 39.691406 22.351563 38.980469 20.941406 L 35.792969 14.621094 C 35.078125 13.210938 33.3125 12.65625 31.859375 13.390625 C 30.40625 14.121094 29.800781 15.878906 30.511719 17.289063 Z "/>
<path style=" fill:#FFA726;" d="M 40.214844 23.421875 C 39.90625 22.8125 40.261719 23.515625 40.597656 24.175781 C 40.753906 24.488281 40.496094 23.976563 40.214844 23.421875 Z "/>
<path style=" fill:#FFA726;" d="M 20.816406 22.175781 C 20.328125 22.421875 19.734375 22.226563 19.492188 21.738281 L 13.710938 10.277344 C 13.21875 9.304688 11.503906 8.089844 9.742188 8.976563 C 7.980469 9.867188 7.984375 12.0625 8.429688 12.945313 C 8.671875 13.425781 11.835938 19.699219 14.65625 25.285156 C 16.992188 29.921875 19.09375 34.089844 19.09375 34.089844 L 13.570313 32.464844 C 11.738281 31.863281 9.882813 32.664063 9.421875 34.765625 C 8.953125 36.535156 10.183594 38.289063 11.8125 38.824219 L 19.3125 41.285156 C 23.175781 42.554688 27.191406 42.09375 30.835938 40.246094 L 31.378906 39.96875 L 32.140625 39.664063 L 36.949219 37.234375 L 38.21875 36.449219 C 41.765625 33.875 43.074219 29.089844 41.039063 25.054688 C 41.039063 25.054688 40.820313 24.621094 40.597656 24.175781 C 40.421875 23.832031 39.742188 22.480469 37.996094 19.023438 Z "/>
<path style=" fill:#FFCDD2;" d="M 9.359375 12.601563 C 8.847656 11.5625 9.222656 10.328125 10.203125 9.847656 C 11.179688 9.371094 12.390625 9.824219 12.898438 10.859375 C 13.410156 11.898438 9.867188 13.636719 9.359375 12.601563 "/>
<path style=" fill:#FFCDD2;" d="M 11.882813 37.605469 C 10.703125 37.289063 10.007813 36.078125 10.320313 34.898438 C 10.640625 33.71875 11.851563 33.023438 13.027344 33.339844 C 14.207031 33.65625 13.0625 37.925781 11.882813 37.605469 "/>
</g>
</svg>
