<?xml version="1.0" encoding="UTF-8"?>
<svg version="1.1" viewBox="0 0 48 48" xmlns="http://www.w3.org/2000/svg">
 <path d="m6 6h36v22h-36z" style="fill:#f9f9f9"/>
 <path d="m39 10v18h-30v-18h31m2-2h-36v20h36z" style="fill:#f2f2f2"/>
 <path d="m40 8v19h-32v-19h32m2-2h-36v22h36z" style="fill:#333"/>
 <path d="m44 31v-2c0-1.1055-0.89453-2-2-2h-35c-1.1055 0-2 0.89453-2 2v2z" style="fill:#1a1a1a"/>
 <path d="m35 27h-7v-2h7l1 1z" style="fill:#0055d4"/>
 <path d="m10 15c-2.207 0-4-1.7969-4-4 0-2.207 1.793-4 4-4s4 1.793 4 4c0 2.2031-1.793 4-4 4" style="fill:#ffb74d"/>
 <path d="m7 34-3-2v-4h3z" style="fill:#ffb74d"/>
 <path d="m28.023 17 0.19922 3.6016-3.1992 2.3984-1.8008-2.3984z" style="fill:#ffb74d"/>
 <path d="m7.2148 42h7.5039l0.79297-16.406v-2.5938l5.3438 3.4258c0.21875 0.08594 1.1211 0.125 1.5977-0.23828l4.7695-3.9766-2.4648-3.3398-3.5664 2.7266s-5.3906-4.2422-6.3789-4.832c-0.027344-0.015625-1.6562-0.76562-3.7344-0.76562-0.01563 0-0.02734 0.0039-0.04297 0.0039-0.011717 6e-6 -0.023436-0.0039-0.035155-0.0039-5 0-7 2-7 6v8l2.625 1.75z" style="fill:#455a64"/>
</svg>
