<?xml version="1.0" encoding="UTF-8"?>
<svg xmlns="http://www.w3.org/2000/svg" xmlns:xlink="http://www.w3.org/1999/xlink" width="12pt" height="12pt" viewBox="0 0 24 24" version="1.1">
<g id="surface2200845">
<path style=" stroke:none;fill-rule:nonzero;fill:rgb(0, 0, 0);fill-opacity:1;" d="M 18.414062 2 C 18.15625 2 17.902344 2.097656 17.707031 2.292969 L 16 4 L 20 8 L 21.707031 6.292969 C 22.097656 5.902344 22.097656 5.269531 21.707031 4.878906 L 19.121094 2.292969 C 18.925781 2.097656 18.671875 2 18.414062 2 Z M 14.5 5.5 L 5 15 C 5 15 6.003906 15.003906 6.5 15.5 C 6.996094 15.996094 6.984375 16.984375 6.984375 16.984375 C 6.984375 16.984375 8.003906 17.003906 8.5 17.5 C 8.996094 17.996094 9 19 9 19 L 18.5 9.5 Z M 3.671875 17 L 3 21 L 7 20.328125 Z M 3.671875 17 "/>
</g>
</svg>
