<?xml version="1.0"?>
<svg xmlns="http://www.w3.org/2000/svg" xmlns:xlink="http://www.w3.org/1999/xlink" version="1.1" viewBox="0 0 172 172" fill="000000"><g fill="none" fill-rule="nonzero" stroke="none" stroke-width="1" stroke-linecap="butt" stroke-linejoin="miter" stroke-miterlimit="10" stroke-dasharray="" stroke-dashoffset="0" font-family="none" font-weight="none" font-size="none" text-anchor="none" style="mix-blend-mode: normal"><path d="M0,172v-172h172v172z" fill="none"/><g><g id="surface1"><path d="M89.63932,14.33333l-51.11849,11.49186c-1.04981,0.26595 -9.85417,2.37956 -9.85417,7.46061v95.6862c1.32975,0.02799 2.57552,0.02799 3.63932,0.02799l57.33333,-17.91667c0,0 3.58333,-1.34375 3.58333,-7.16667c0,-3.58333 0,-86.014 0,-86.014c0,-1.97363 -1.6097,-3.56934 -3.58333,-3.56934z" fill="#673ab7"/><path d="M89.63932,14.33333l-51.11849,11.49186c-1.04981,0.26595 -9.85417,2.37956 -9.85417,7.46061v95.6862c1.32975,0.02799 2.57552,0.02799 3.63932,0.02799l57.33333,-17.91667c0,0 3.58333,-1.34375 3.58333,-7.16667c0,-3.58333 0,-86.014 0,-86.014c0,-1.97363 -1.6097,-3.56934 -3.58333,-3.56934z" fill="#4527a0"/><path d="M111.08333,26.11914l-57.33333,14.33333c-8.0625,2.08561 -25.13932,3.58333 -25.08333,-7.16667h-0.05599c0,34.61556 0,95.71419 0,95.71419h0.05599c-0.05599,10.75 17.17481,10.75 25.08333,10.75l57.33333,-17.91667c0,0 3.58333,-1.34375 3.58333,-7.16667c0,-3.58333 0,-84.96419 0,-84.96419c0,-1.97364 -1.5957,-3.58333 -3.58333,-3.58333z" fill="#673ab7"/><path d="M118.30599,30.90625l-51.11849,12.83561c-1.04981,0.26595 -9.85417,2.37956 -9.85417,7.46061v95.6862c1.32975,0.02799 2.57552,0.02799 3.63932,0.02799l57.33333,-17.91667c0,0 3.58333,-1.34375 3.58333,-7.16667c0,-3.58333 0,-87.35775 0,-87.35775c0,-1.97363 -1.6097,-3.56934 -3.58333,-3.56934z" fill="#673ab7"/><path d="M118.30599,30.90625l-51.11849,12.83561c-1.04981,0.26595 -9.85417,2.37956 -9.85417,7.46061v95.6862c1.32975,0.02799 2.57552,0.02799 3.63932,0.02799l57.33333,-17.91667c0,0 3.58333,-1.34375 3.58333,-7.16667c0,-3.58333 0,-87.35775 0,-87.35775c0,-1.97363 -1.6097,-3.56934 -3.58333,-3.56934z" fill="#0097a7"/><path d="M57.33333,146.88867c-0.05599,10.75 17.17481,10.77799 25.08333,10.77799l57.33333,-19.10644c0,0 3.58333,-1.34375 3.58333,-7.16667c0,-3.58333 0,-84.81022 0,-84.81022c0,-1.97363 -1.5957,-3.56934 -3.58333,-3.56934l-57.33333,15.35515c-8.0625,2.08561 -25.13932,3.58333 -25.08333,-7.16667" fill="#673ab7"/><path d="M57.33333,146.88867c-0.05599,10.75 17.17481,10.77799 25.08333,10.77799l57.33333,-19.10644c0,0 3.58333,-1.34375 3.58333,-7.16667c0,-3.58333 0,-84.81022 0,-84.81022c0,-1.97363 -1.5957,-3.56934 -3.58333,-3.56934l-57.33333,15.35515c-8.0625,2.08561 -25.13932,3.58333 -25.08333,-7.16667" fill="#00bcd4"/><path d="M39.41667,37.77897c2.7015,1.56771 7.02669,2.6735 10.81999,3.42936c1.28776,-0.22396 2.47754,-0.47591 3.51335,-0.75586l52.01432,-13.00358l-16.18099,-5.94889l-46.28939,11.19792c0,0 -9.54622,1.79167 -3.87728,5.08106z" fill="#ffe0b2"/><path d="M68.08333,55.69564c2.7015,1.56771 7.02669,2.6735 10.81999,3.42936c1.28776,-0.22396 2.47754,-0.47591 3.51335,-0.75586l53.37207,-14.29134l-17.53874,-6.00488l-46.28939,12.54167c0,0 -9.54622,1.79167 -3.87728,5.08106z" fill="#ffe0b2"/><path d="M136.16667,89.58333v-17.91667l-50.16667,14.33333v17.91667z" fill="#ffecb3"/></g></g></g></svg>
