<?xml version="1.0"?>
<svg xmlns="http://www.w3.org/2000/svg" xmlns:xlink="http://www.w3.org/1999/xlink" version="1.1" viewBox="0 0 172 172" fill="000000"><g fill="none" fill-rule="nonzero" stroke="none" stroke-width="1" stroke-linecap="butt" stroke-linejoin="miter" stroke-miterlimit="10" stroke-dasharray="" stroke-dashoffset="0" font-family="none" font-weight="none" font-size="none" text-anchor="none" style="mix-blend-mode: normal"><path d="M0,172v-172h172v172z" fill="none"/><g><g id="surface1"><path d="M96.75,111.08333c0,0 -3.58333,14.33333 -17.91667,14.33333c-14.33333,0 -17.91667,-14.33333 -17.91667,-14.33333c0,0 -39.41667,7.11068 -39.41667,46.58333h114.66667c0,-39.33268 -39.41667,-46.58333 -39.41667,-46.58333" fill="#4caf50"/><path d="M78.83333,132.58333c-17.91667,0 -17.91667,-21.5 -17.91667,-21.5v-21.5h35.83333v21.5c0,0 0,21.5 -17.91667,21.5z" fill="#ff9800"/><path d="M118.25,68.08333c0,3.96126 -3.2054,7.16667 -7.16667,7.16667c-3.96126,0 -7.16667,-3.2054 -7.16667,-7.16667c0,-3.96126 3.2054,-7.16667 7.16667,-7.16667c3.96126,0 7.16667,3.2054 7.16667,7.16667" fill="#ffa726"/><path d="M53.75,68.08333c0,3.96126 -3.2054,7.16667 -7.16667,7.16667c-3.96126,0 -7.16667,-3.2054 -7.16667,-7.16667c0,-3.96126 3.2054,-7.16667 7.16667,-7.16667c3.96126,0 7.16667,3.2054 7.16667,7.16667" fill="#ffa726"/><path d="M111.08333,46.58333c0,-27.36491 -64.5,-17.81868 -64.5,0v25.08333c0,17.81868 14.43132,32.25 32.25,32.25c17.81868,0 32.25,-14.43132 32.25,-32.25z" fill="#ffb74d"/><path d="M78.83333,14.33333c-21.76595,0 -35.83333,17.65072 -35.83333,39.41667v8.18848l7.16667,6.14486v-17.91667l43,-14.33333l14.33333,14.33333v17.91667l7.16667,-6.24284v-8.0905c0,-14.41732 -3.72331,-28.72266 -21.5,-32.25l-3.58333,-7.16667z" fill="#424242"/><path d="M89.58333,68.08333c0,1.97363 1.6097,3.58333 3.58333,3.58333c1.97363,0 3.58333,-1.6097 3.58333,-3.58333c0,-1.97363 -1.6097,-3.58333 -3.58333,-3.58333c-1.97363,0 -3.58333,1.6097 -3.58333,3.58333" fill="#784719"/><path d="M60.91667,68.08333c0,1.97363 1.6097,3.58333 3.58333,3.58333c1.97363,0 3.58333,-1.6097 3.58333,-3.58333c0,-1.97363 -1.6097,-3.58333 -3.58333,-3.58333c-1.97363,0 -3.58333,1.6097 -3.58333,3.58333" fill="#784719"/><path d="M78.83333,132.58333c17.91667,0 24.1735,-14.08138 24.90137,-19.45638c-4.14323,-1.51172 -6.9847,-2.04362 -6.9847,-2.04362c0,0 -3.58333,14.33333 -17.91667,14.33333c-14.33333,0 -17.91667,-14.33333 -17.91667,-14.33333c0,0 -2.85547,0.5179 -6.9987,2.02962c0.74186,5.361 6.9987,19.47038 24.91536,19.47038z" fill="#388e3c"/><path d="M143.33333,43h10.75v39.41667h-10.75z" fill="#3f51b5"/><path d="M154.08333,28.66667c0,-3.96126 -3.2054,-7.16667 -7.16667,-7.16667c-3.96126,0 -7.16667,3.2054 -7.16667,7.16667c0,3.96126 3.2054,7.16667 7.16667,7.16667c3.96126,0 7.16667,-3.2054 7.16667,-7.16667" fill="#3f51b5"/><path d="M136.16667,43h10.75v10.75h-10.75z" fill="#3f51b5"/></g></g></g></svg>
