<?xml version="1.0" encoding="UTF-8"?>
<svg version="1.1" viewBox="0 0 48 48" xmlns="http://www.w3.org/2000/svg">
 <path d="m8.1628 8.3584h36v22h-36z" style="fill:#f9f9f9"/>
 <path d="m41.163 12.358v18h-30v-18h31m2-2h-36v20h36z" style="fill:#f2f2f2"/>
 <path d="m42.163 10.358v19h-32v-19h32m2-2h-36v22h36z" style="fill:#393939"/>
 <path d="m46.163 33.358v-2c0-1.1055-0.89453-2-2-2h-35c-1.1055 0-2 0.89453-2 2v2z" style="fill:#393939"/>
 <path d="m37.163 29.358h-7v-2h7l1 1z" style="fill:#0055d4"/>
 <path d="m16.852 17.758v-5.7466c0-6.2255-3.1071-7.6622-5.4367-7.6622h-0.90612l-0.90612 0.95777c-3.1714 0-3.6245 5.0743-3.6245 6.7044v5.7466z" style="fill:#543c27;stroke-width:.93159"/>
 <path d="m15.605 14.885 0.59861 3.8311-0.95778 2.8733v7.6622h-7.6622v-7.6622l-0.95777-2.8733v-2.8733s1.3169-0.95777 2.8733-0.95777h3.8311z" style="fill:#ff2a2a;stroke-width:.95777"/>
 <path d="m11.415 31.951-2.7 11.7h-2.7l0.9-14.4h9l0.9 14.4h-2.7z" style="fill:#ffb74d;stroke-width:.9"/>
 <path d="m3.753 40.67s1.9155 1.2282 7.6622 1.2282c5.7466 0 7.6622-1.2282 7.6622-1.2282l-3.8311-15.25h-7.6622z" style="fill:#1e88e5;stroke-width:1.5602"/>
 <path d="m11.454 16.801c-1.995 0-1.9548-1.9155-1.9548-1.9155v-1.9155h3.8311v1.9155s0.11876 1.9155-1.8763 1.9155z" style="fill:#ffa726;stroke-width:.95777"/>
 <path d="m10.457 7.2228-1.9155 1.9155v3.3522s0.71833 1.5842 2.8733 1.5842c2.155 0 2.8733-1.5842 2.8733-1.5842v-3.3522z" style="fill:#ffb74d;stroke-width:.95777"/>
 <path d="m18.864 6.9508-0.66948 4.0179-2.7948 3.9125 0.79591 3.8292 4.5303-6.3424c0.12738-0.1791 0.21263-0.38311 0.24806-0.59861l0.72025-4.3215s-0.2835-0.61585-1.3734-0.75089c-1.089-0.13505-1.4568 0.25381-1.4568 0.25381z" style="fill:#ff2a2a;stroke-width:.95777"/>
 <path d="m21.931 6.0227c0.13122-0.7825-0.39843-1.5238-1.18-1.6541-0.78442-0.12834-1.5238 0.39843-1.6541 1.18l-0.2337 1.4012 2.8302 0.49708z" style="fill:#ffb74d;stroke-width:.95777"/>
 <path d="m5.2098 21.231 1.6943-1.6799-0.27775-3.7085-4.354 4.2381c-0.53061 0.51528-0.58233 1.3495-0.11972 1.928l2.9317 3.6654s0.69056 0.45686 1.6148-0.29787c0.92425-0.75473 0.61489-1.5142 0.61489-1.5142z" style="fill:#ff2a2a;stroke-width:.95777"/>
 <path d="m7.1061 27.336c0.31415 0 0.63117-0.10248 0.89743-0.31511 0.61872-0.49613 0.71929-1.3993 0.22316-2.019l-0.91276-1.1407-2.2297 1.8121 0.89935 1.1235c0.2835 0.35533 0.70109 0.53922 1.1225 0.53922z" style="fill:#ffb74d;stroke-width:.95777"/>
</svg>
