<svg xmlns="http://www.w3.org/2000/svg" xmlns:xlink="http://www.w3.org/1999/xlink" viewBox="0 0 48 48" version="1.1" fill="000000">
<g id="surface1">
<path style=" fill:#EF6C00;" d="M 12 32 L 12 42 L 9 42 L 9 32 Z M 36 32 L 36 42 L 39 42 L 39 32 Z "/>
<path style=" fill:#FFA000;" d="M 43 34 L 5 34 L 5 29 L 43 29 Z "/>
<path style=" fill:#673AB7;" d="M 9 6 L 15 6 L 15 29 L 9 29 Z "/>
<path style=" fill:#4527A0;" d="M 9 6 L 11 6 L 11 29 L 9 29 Z "/>
<path style=" fill:#4CAF50;" d="M 17 6 L 23 6 L 23 29 L 17 29 Z "/>
<path style=" fill:#388E3C;" d="M 17 6 L 19 6 L 19 29 L 17 29 Z "/>
<path style=" fill:#F44336;" d="M 23 12 L 29 12 L 29 29 L 23 29 Z "/>
<path style=" fill:#D32F2F;" d="M 23 12 L 25 12 L 25 29 L 23 29 Z "/>
<path style=" fill:#9575CD;" d="M 15 11 L 9 11 L 9 9 L 15 9 Z M 15 24 L 9 24 L 9 26 L 15 26 Z "/>
<path style=" fill:#7E57C2;" d="M 11 11 L 9 11 L 9 9 L 11 9 Z M 11 24 L 9 24 L 9 26 L 11 26 Z "/>
<path style=" fill:#81C784;" d="M 23 11 L 17 11 L 17 9 L 23 9 Z M 23 24 L 17 24 L 17 26 L 23 26 Z "/>
<path style=" fill:#4CAF50;" d="M 19 11 L 17 11 L 17 9 L 19 9 Z M 19 24 L 17 24 L 17 26 L 19 26 Z "/>
<path style=" fill:#FF8A80;" d="M 29 17 L 23 17 L 23 15 L 29 15 Z M 29 24 L 23 24 L 23 26 L 29 26 Z "/>
<path style=" fill:#FF5252;" d="M 25 17 L 23 17 L 23 15 L 25 15 Z M 25 24 L 23 24 L 23 26 L 25 26 Z "/>
<path style=" fill:#00BCD4;" d="M 40 27 L 34 29 L 29 13 L 35 11 Z "/>
<path style=" fill:#0097A7;" d="M 30.972656 12.34375 L 29 13 L 34 29 L 35.976563 28.339844 Z "/>
<path style=" fill:#4DD0E1;" d="M 33.117188 26.179688 L 32.519531 24.265625 L 38.507813 22.222656 L 39.105469 24.140625 Z M 29.824219 15.632813 L 30.421875 17.550781 L 36.398438 15.46875 L 35.796875 13.550781 Z "/>
<path style=" fill:#00BCD4;" d="M 30.421875 17.550781 L 30.222656 16.910156 L 29.824219 15.632813 L 31.789063 14.949219 L 32.386719 16.863281 Z M 34.492188 23.59375 L 32.519531 24.265625 L 33.121094 26.179688 L 35.09375 25.507813 Z "/>
</g>
</svg>
