<?xml version="1.0" encoding="UTF-8" standalone="no"?>
<!-- Created with Inkscape (http://www.inkscape.org/) -->

<svg
   xmlns:dc="http://purl.org/dc/elements/1.1/"
   xmlns:cc="http://creativecommons.org/ns#"
   xmlns:rdf="http://www.w3.org/1999/02/22-rdf-syntax-ns#"
   xmlns:svg="http://www.w3.org/2000/svg"
   xmlns="http://www.w3.org/2000/svg"
   xmlns:sodipodi="http://sodipodi.sourceforge.net/DTD/sodipodi-0.dtd"
   xmlns:inkscape="http://www.inkscape.org/namespaces/inkscape"
   width="50"
   height="50"
   id="svg3213"
   version="1.1"
   inkscape:version="0.48.4 r9939"
   sodipodi:docname="sys-introduction-logo.svg">
  <sodipodi:namedview
     id="base"
     pagecolor="#ffffff"
     bordercolor="#666666"
     borderopacity="1.0"
     inkscape:pageopacity="0.0"
     inkscape:pageshadow="2"
     inkscape:zoom="8"
     inkscape:cx="26.109658"
     inkscape:cy="24.686237"
     inkscape:document-units="px"
     inkscape:current-layer="layer1"
     showgrid="false"
     inkscape:window-width="1680"
     inkscape:window-height="998"
     inkscape:window-x="1672"
     inkscape:window-y="486"
     inkscape:window-maximized="1"
     showguides="true"
     inkscape:guide-bbox="true" />
  <metadata
     id="metadata3218">
    <rdf:RDF>
      <cc:Work
         rdf:about="">
        <dc:format>image/svg+xml</dc:format>
        <dc:type
           rdf:resource="http://purl.org/dc/dcmitype/StillImage" />
        <dc:title />
      </cc:Work>
    </rdf:RDF>
  </metadata>
  <g
     inkscape:label="Layer 1"
     inkscape:groupmode="layer"
     id="layer1"
     transform="translate(0,-1002.3622)">
    <path
       style="fill:#000000;fill-opacity:1;fill-rule:nonzero;stroke:none"
       id="path3139"
       d="m 18.598222,1015.2789 c -0.857524,0.7038 -1.724828,1.389 -2.567353,2.1202 -1.418769,1.2724 -2.803641,2.603 -4.074962,4.0863 -0.983347,1.1472 -1.198097,1.4825 -2.1100012,2.7139 -1.205826,1.7591 -2.2801524,3.6635 -2.986741,5.7886 -0.4083139,1.2279 -0.4231124,1.5102 -0.671373,2.7774 -0.2187267,1.6722 -0.1404546,3.3777 0.4411955,4.9405 0.3689375,0.9913 0.584235,1.2183 1.1373656,2.0787 0.2746634,0.3185 0.5326084,0.6594 0.8239902,0.9558 1.4581539,1.4832 3.2345809,2.507 5.0112259,3.3073 0.518015,0.2333 1.046875,0.4304 1.570313,0.6455 2.251286,0.8193 4.580928,1.3438 6.933435,1.4746 1.619767,0.09 2.099223,0.011 3.721723,-0.1064 3.056906,-0.3615 6.074148,-1.1966 8.957962,-2.4679 0.489553,-0.2158 0.969067,-0.4632 1.453601,-0.6947 1.428792,-0.7489 2.79042,-1.6887 3.864683,-3.0657 0.54243,-0.6955 0.677395,-1.0023 1.120624,-1.7893 0.81738,-1.6661 1.493306,-3.4916 1.693259,-5.4296 0.03849,-0.3731 0.03454,-0.7507 0.05182,-1.1259 -0.03347,-0.3942 -0.04575,-0.7919 -0.100406,-1.1828 -0.306767,-2.1937 -1.130401,-4.2789 -2.125742,-6.1362 -0.306201,-0.5714 -0.652421,-1.1103 -0.978631,-1.6656 -1.051686,-1.6082 -2.309758,-2.9506 -3.76747,-4.0064 -0.48786,-0.3532 -1.004723,-0.6455 -1.507084,-0.9681 -0.533134,-0.3242 -1.08563,-0.606 -1.5994,-0.9726 -0.589911,-0.4207 -1.136743,-0.9231 -1.705114,-1.3847 -0.172793,-0.026 -0.141715,-0.3198 0.03108,-0.2934 l 0,0 c 0.740065,-0.2618 1.452684,-0.6912 2.220196,-0.7854 0.733388,-0.09 1.482352,0.053 2.202383,0.2426 2.076141,0.5478 4.074333,2.0984 5.58776,3.8447 0.505472,0.5832 0.937914,1.2513 1.40687,1.877 0.395787,0.6655 0.820903,1.3073 1.187361,1.9967 1.251706,2.3546 2.267966,5.1533 2.569187,7.9423 0.06426,0.5949 0.05402,1.1981 0.08103,1.7972 -0.03885,0.5526 -0.05029,1.1091 -0.116536,1.658 -0.301604,2.4988 -1.185753,4.8483 -2.269211,6.9868 -0.645471,1.0882 -0.838328,1.5067 -1.631705,2.4633 -1.402189,1.6907 -3.150688,2.8578 -4.963028,3.7898 -0.540255,0.2561 -1.074847,0.5301 -1.620765,0.7683 -3.175588,1.3852 -6.499664,2.2671 -9.863583,2.6333 -0.702709,0.043 -1.404631,0.1131 -2.108128,0.1255 -3.33055,0.059 -6.650768,-0.5735 -9.825284,-1.7692 -0.587769,-0.2536 -1.18315,-0.4831 -1.763299,-0.7609 -2.145911,-1.0272 -4.2703162,-2.3564 -5.9893725,-4.2363 -0.3963733,-0.4335 -0.745442,-0.9255 -1.118163,-1.3882 -0.7915757,-1.3214 -1.0838955,-1.6433 -1.5986748,-3.1574 -0.7663379,-2.2538 -0.8431035,-4.6832 -0.4857491,-7.0553 0.3398849,-1.5821 0.3668632,-1.9575 0.9111045,-3.4729 0.872057,-2.4282 2.1662103,-4.5918 3.6000295,-6.5827 0.3842572,-0.504 0.7570651,-1.0208 1.1527715,-1.5119 1.7283829,-2.1447 3.6599199,-4.0701 5.7676769,-5.6531 1.197193,-0.8281 2.453766,-1.7874 3.885438,-1.7662 1.421952,-0.1391 1.585643,2.2756 0.163691,2.4145 z"
       inkscape:connector-curvature="0" />
    <path
       style="fill:#000000;fill-opacity:1;fill-rule:nonzero;stroke:none"
       id="path3141"
       d="m 23.782373,1018.4372 c -0.6422,-1.6704 -0.432833,-3.4795 -0.244471,-5.2144 0.197751,-1.3834 0.451107,-2.758 0.694692,-4.1339 0.119109,-0.6728 0.300909,-1.878 0.535984,-2.5384 0.133263,-0.3744 0.342512,-0.7172 0.513767,-1.0758 0.379623,-0.2913 0.759246,-0.5827 1.138868,-0.8741 0.02267,-0.2089 0.318103,-0.1768 0.295431,0.032 l 0,0 c 0.306639,0.3811 0.613277,0.7622 0.919916,1.1433 0.07264,0.412 0.194792,0.8183 0.217925,1.2361 0.04496,0.8119 -0.161083,1.8879 -0.297091,2.6756 -0.232608,1.3472 -0.507187,2.6868 -0.756839,4.0309 -0.311997,1.5636 -0.594771,3.1416 -1.052008,4.6704 0.03406,1.3903 -1.932117,1.4385 -1.966174,0.048 z"
       inkscape:connector-curvature="0" />
  </g>
</svg>
