<?xml version="1.0" encoding="UTF-8" standalone="no"?>
<!-- Created with Inkscape (http://www.inkscape.org/) -->

<svg
   xmlns:dc="http://purl.org/dc/elements/1.1/"
   xmlns:cc="http://creativecommons.org/ns#"
   xmlns:rdf="http://www.w3.org/1999/02/22-rdf-syntax-ns#"
   xmlns:svg="http://www.w3.org/2000/svg"
   xmlns="http://www.w3.org/2000/svg"
   xmlns:sodipodi="http://sodipodi.sourceforge.net/DTD/sodipodi-0.dtd"
   xmlns:inkscape="http://www.inkscape.org/namespaces/inkscape"
   width="50"
   height="50"
   id="svg3213"
   version="1.1"
   inkscape:version="0.48.4 r9939"
   sodipodi:docname="sys-network-logo.svg">
  <sodipodi:namedview
     id="base"
     pagecolor="#ffffff"
     bordercolor="#666666"
     borderopacity="1.0"
     inkscape:pageopacity="0.0"
     inkscape:pageshadow="2"
     inkscape:zoom="16.22"
     inkscape:cx="22.719212"
     inkscape:cy="23.806062"
     inkscape:document-units="px"
     inkscape:current-layer="layer1"
     showgrid="false"
     inkscape:window-width="1680"
     inkscape:window-height="998"
     inkscape:window-x="1672"
     inkscape:window-y="486"
     inkscape:window-maximized="1" />
  <metadata
     id="metadata3218">
    <rdf:RDF>
      <cc:Work
         rdf:about="">
        <dc:format>image/svg+xml</dc:format>
        <dc:type
           rdf:resource="http://purl.org/dc/dcmitype/StillImage" />
        <dc:title />
      </cc:Work>
    </rdf:RDF>
  </metadata>
  <g
     inkscape:label="Layer 1"
     inkscape:groupmode="layer"
     id="layer1"
     transform="translate(0,-1002.3622)">
    <path
       style="fill:#000000;fill-opacity:1;fill-rule:nonzero;stroke:none"
       id="path3429"
       d="m 19.048145,1032.1198 c 0.02148,0.041 0.04932,0.079 0.06443,0.1224 0.04422,0.1275 0.08242,0.3899 0.0968,0.5081 0.05481,0.4502 0.04821,0.8995 0.04785,1.3522 -0.02871,1.1783 -0.07591,2.356 -0.103101,3.5344 -0.01972,0.4616 0.0055,0.9255 -0.03502,1.3864 -0.01462,0.1666 -0.0442,0.4439 -0.134184,0.5999 -0.04411,0.076 -0.117963,0.1315 -0.176946,0.1973 0.0054,0.2104 -0.292348,0.218 -0.297704,0.01 l 0,0 c -0.06221,-0.061 -0.138887,-0.1105 -0.186632,-0.1835 -0.102428,-0.1566 -0.146497,-0.4334 -0.168057,-0.6063 -0.05882,-0.4717 -0.03741,-0.949 -0.04073,-1.4227 0.0214,-1.1784 0.06017,-2.356 0.110109,-3.5335 0.01737,-0.4382 0.02373,-0.8775 0.06589,-1.3142 0.01036,-0.1075 0.03872,-0.3719 0.07372,-0.4929 0.01214,-0.042 0.0359,-0.08 0.05386,-0.1195 -0.02514,-0.4453 0.604578,-0.4808 0.629718,-0.035 z"
       inkscape:connector-curvature="0" />
    <path
       style="fill:#000000;fill-opacity:1;fill-rule:nonzero;stroke:none"
       id="path3453"
       d="m 18.803339,1031.6989 c 0.499596,-0.093 1.007483,-0.141 1.512306,-0.1976 1.207369,-0.1435 2.420641,-0.2249 3.634557,-0.2863 1.155663,-0.044 2.312567,-0.058 3.468027,-0.01 0.649453,0.03 1.291919,0.128 1.931318,0.2403 0.274061,0.053 0.552295,0.092 0.820843,0.1701 0.100561,0.024 0.175789,0.088 0.256574,0.1495 -0.108059,0.7233 0.07708,0.8256 -0.200548,0.602 -0.209436,0.1139 -0.370469,-0.1823 -0.161032,-0.2962 l 0,0 c -0.195239,-0.2793 -0.06293,-0.1355 -0.144793,0.5681 0.06749,0.052 0.201548,0.1197 0.035,0.1 -0.272651,-0.026 -0.539425,-0.093 -0.809396,-0.1366 -0.590532,-0.104 -1.184956,-0.1895 -1.784207,-0.2225 -1.120253,-0.056 -2.241758,-0.047 -3.362333,0 -1.195672,0.04 -2.38994,0.1052 -3.581895,0.2096 -0.386265,0.029 -0.418705,0.035 -0.787731,0.05 -0.28577,0.012 -0.580111,0.027 -0.859405,-0.047 -0.635283,-0.023 -0.602567,-0.9216 0.03272,-0.8984 z"
       inkscape:connector-curvature="0" />
    <path
       style="fill:#000000;fill-opacity:1;fill-rule:nonzero;stroke:none"
       id="path3455"
       d="m 30.299856,1032.1389 c 0.02902,0.042 0.06275,0.081 0.08707,0.1264 0.07034,0.1302 0.118846,0.2882 0.153506,0.4298 0.08831,0.3609 0.115519,0.7276 0.145481,1.0967 0.06433,1.0572 0.0039,2.116 -0.05594,3.1718 -0.02954,0.4176 -0.04202,0.8377 -0.09934,1.253 -0.02452,0.1776 -0.0556,0.3683 -0.128098,0.535 -0.02841,0.065 -0.07166,0.1231 -0.107486,0.1847 -0.23227,0.2077 -0.0854,0.1279 -0.468064,0.1799 -0.02495,0.083 -0.141957,0.047 -0.117006,-0.035 l 0,0 c -0.316712,-0.1414 -0.200806,-0.047 -0.377865,-0.242 -0.02366,-0.059 -0.05467,-0.1149 -0.07098,-0.1761 -0.04534,-0.1698 -0.04912,-0.3612 -0.04941,-0.5343 -6.74e-4,-0.414 0.03889,-0.827 0.05775,-1.2403 0.05512,-1.0211 0.09885,-2.0429 0.138541,-3.0649 8.62e-4,-0.024 0.02411,-0.6701 0.02686,-0.728 0.0087,-0.1834 0.0096,-0.4048 0.05331,-0.5858 0.0068,-0.028 0.02056,-0.054 0.03085,-0.08 -0.205195,-0.5521 0.575624,-0.8424 0.780819,-0.2902 z"
       inkscape:connector-curvature="0" />
    <path
       style="fill:#000000;fill-opacity:1;fill-rule:nonzero;stroke:none"
       id="path3457"
       d="m 19.045354,1038.9213 c 0.343355,0.043 0.688334,0.064 1.034029,0.075 0.811309,0.01 1.621301,-0.066 2.428317,-0.1415 1.124172,-0.1277 2.249049,-0.2476 3.374106,-0.3671 0.855531,-0.087 1.70978,-0.1849 2.563273,-0.2897 0.147419,-0.016 0.300766,-0.036 0.449319,-0.047 0.0346,0 0.180241,-0.019 0.226236,0.014 0.04936,0.034 0.05877,0.1944 0.06272,0.2183 0.03917,0.059 0.07835,0.1183 0.117526,0.1774 0.05115,-0.1713 0.293432,-0.099 0.242282,0.072 l 0,0 c 0.03209,0.083 0.06418,0.1658 0.09627,0.2487 -0.01847,0.074 -0.02309,0.1534 -0.0554,0.2229 -0.147327,0.3163 -0.671044,0.3621 -0.960085,0.4273 -0.864492,0.1253 -1.735433,0.1968 -2.603991,0.2874 -1.132427,0.1146 -2.263576,0.2421 -3.398057,0.3355 -0.87472,0.072 -1.753187,0.1411 -2.630487,0.066 -0.459102,-0.049 -0.930924,-0.093 -1.344999,-0.3151 -0.695924,-0.2821 -0.296979,-1.2663 0.398946,-0.9843 z"
       inkscape:connector-curvature="0" />
    <path
       style="fill:#000000;fill-opacity:1;fill-rule:nonzero;stroke:none"
       id="path3505"
       d="m 20.367812,1041.9335 c 0.02703,0.4398 -0.105769,0.8716 -0.243063,1.2838 -0.21377,0.5773 -0.439435,1.1508 -0.68312,1.7163 -0.104873,0.2057 -0.232504,0.533 -0.481599,0.6083 -0.07133,0.022 -0.148183,0.016 -0.222275,0.024 -0.01818,0.046 -0.08354,0.021 -0.06536,-0.026 l 0,0 c -0.04948,-0.055 -0.109668,-0.1011 -0.148448,-0.1637 -0.140379,-0.2266 -0.01262,-0.5601 0.05204,-0.7866 0.208645,-0.573 0.452142,-1.1326 0.677955,-1.699 0.153491,-0.3656 0.314674,-0.7318 0.52321,-1.0696 0.07931,-0.4176 0.669977,-0.3055 0.590666,0.1121 z"
       inkscape:connector-curvature="0" />
    <path
       style="fill:#000000;fill-opacity:1;fill-rule:nonzero;stroke:none"
       id="path3523"
       d="m 29.170532,1041.6579 c 0.112043,0.4262 0.224934,0.8517 0.330703,1.2795 0.06173,0.266 0.145268,0.5259 0.221107,0.788 0.03226,0.1115 0.09252,0.3135 0.09744,0.4343 0.0027,0.066 -0.0126,0.1325 -0.0189,0.1987 -0.04256,0.069 -0.08514,0.1386 -0.127703,0.2079 0.07803,0.2147 -0.225618,0.3251 -0.303654,0.1104 l 0,0 c -0.07743,-0.027 -0.15486,-0.053 -0.23229,-0.08 -0.04798,-0.05 -0.103638,-0.093 -0.143924,-0.1494 -0.08004,-0.1116 -0.156414,-0.3167 -0.198725,-0.4415 -0.09647,-0.2846 -0.165555,-0.5785 -0.229489,-0.8718 -0.04113,-0.2322 -0.07263,-0.376 -0.09072,-0.6106 -0.02217,-0.2874 -0.01171,-0.5807 0.03032,-0.8657 0,-0.4708 0.665837,-0.4708 0.665837,0 z"
       inkscape:connector-curvature="0" />
    <path
       style="fill:#000000;fill-opacity:1;fill-rule:nonzero;stroke:none"
       id="path3527"
       d="m 20.213735,1041.583 c 0.335521,-0.1148 0.690774,-0.1595 1.041124,-0.2037 0.620884,-0.07 1.243698,-0.1212 1.866401,-0.172 0.809844,-0.071 1.622491,-0.091 2.434965,-0.1 0.683893,-0.01 1.368261,-0.02 2.051849,0.01 0.07895,0.01 0.327545,0.024 0.416666,0.04 0.04899,0.01 0.09636,0.025 0.144358,0.038 0.03539,0.01 0.07225,0.016 0.105789,0.03 0.0526,0.024 0.08321,0.058 0.122839,0.096 0.06895,0.07 0.06429,0.1467 0.06487,0.2401 0.01982,0.01 0.01347,0.032 -0.0063,0.028 l 0,0 c -0.0063,0.084 0.0027,0.1713 -0.05938,0.2362 -0.03964,0.038 -0.07028,0.073 -0.122837,0.096 -0.03351,0.015 -0.07034,0.02 -0.105685,0.03 -0.04795,0.013 -0.09528,0.029 -0.144214,0.038 -0.08796,0.016 -0.338399,0.033 -0.415975,0.039 -0.679424,0.027 -1.359617,0.012 -2.039384,0.023 -0.797998,0.012 -1.596033,0.026 -2.393706,0.052 -0.613421,0.024 -1.226814,0.051 -1.839334,0.092 -0.327566,0.023 -0.655111,0.052 -0.983155,0.065 -0.47772,0.098 -0.616566,-0.5774 -0.138846,-0.6756 z"
       inkscape:connector-curvature="0" />
    <path
       style="fill:#000000;fill-opacity:1;fill-rule:nonzero;stroke:none"
       id="path3529"
       d="m 18.951178,1046.0399 c 0.258084,-0.072 0.517187,-0.1438 0.778878,-0.2015 0.546953,-0.104 1.099835,-0.1718 1.650806,-0.2503 0.954436,-0.1199 1.908969,-0.2377 2.865175,-0.3428 1.050006,-0.1055 2.103186,-0.1675 3.157922,-0.1945 0.336053,-0.01 0.672376,0.01 1.007609,0.032 0.175658,0.012 0.349969,0.033 0.525881,0.041 0.03793,0.011 0.218242,-0.016 0.246699,0.022 0.0084,0.011 0.01134,0.026 0.01702,0.039 0.02023,0.1008 0.01088,0.042 0.02206,0.1786 0.209562,0 0.213799,0.2934 0.0042,0.2964 l 0,0 c -0.0029,0.1371 0.0012,0.078 -0.0086,0.1793 -0.0036,0.013 -0.0043,0.027 -0.01077,0.04 -0.02043,0.038 -0.214028,0.028 -0.246832,0.039 -0.176846,0.019 -0.351968,0.048 -0.528586,0.069 -0.329391,0.039 -0.660294,0.065 -0.99143,0.083 -1.031894,0.05 -2.063695,0.109 -3.091788,0.2125 -0.959828,0.086 -1.918439,0.1867 -2.879617,0.2568 -0.554266,0.025 -1.108687,0.049 -1.663503,0.058 -0.285068,-0.01 -0.576155,-0.016 -0.855195,-0.077 -0.339705,0 -0.339705,-0.4804 0,-0.4804 z"
       inkscape:connector-curvature="0" />
    <path
       style="fill:#000000;fill-opacity:1;fill-rule:nonzero;stroke:none"
       id="path3531"
       d="m 21.372521,1042.1122 c 0.06457,0.4315 -0.03955,0.8715 -0.12105,1.2941 -0.129934,0.5685 -0.236894,1.1434 -0.396745,1.7045 -0.09301,0.2267 -0.03787,0.1241 -0.159897,0.3108 -0.02447,0.1358 -0.216551,0.1012 -0.192075,-0.034 l 0,0 c -0.04846,-0.2225 -0.0341,-0.1043 -0.03588,-0.3554 0.0099,-0.077 0.01702,-0.1548 0.0296,-0.2317 0.08176,-0.4989 0.229756,-0.9855 0.325396,-1.4816 0.08399,-0.3863 0.168235,-0.7728 0.229499,-1.1635 -0.03008,-0.227 0.291071,-0.2696 0.321158,-0.042 z"
       inkscape:connector-curvature="0" />
    <path
       style="fill:#000000;fill-opacity:1;fill-rule:nonzero;stroke:none"
       id="path3533"
       d="m 22.670641,1042.0837 c 0.07891,0.4528 0.09619,0.9117 0.09708,1.3704 -0.01272,0.4033 0.0052,0.8188 -0.100479,1.213 -0.02396,0.089 -0.06223,0.174 -0.09335,0.2611 -0.0063,0.102 -0.150641,0.093 -0.144323,-0.01 l 0,0 c -0.02019,-0.09 -0.04703,-0.1777 -0.06056,-0.2684 -0.05918,-0.3965 -0.0076,-0.8006 -0.01058,-1.1986 0.005,-0.4488 0.01563,-0.8972 0.03424,-1.3455 -0.01623,-0.1966 0.261746,-0.2196 0.277979,-0.023 z"
       inkscape:connector-curvature="0" />
    <path
       style="fill:#000000;fill-opacity:1;fill-rule:nonzero;stroke:none"
       id="path3535"
       d="m 24.268037,1042.0854 c 0.100966,0.4515 0.105532,0.9246 0.127201,1.3879 0.0052,0.4377 0.04996,0.8812 -0.0058,1.3175 -0.01257,0.098 -0.03698,0.1941 -0.05547,0.2912 0.01018,0.1668 -0.196335,0.1832 -0.206519,0.017 l 0,0 c -0.03023,-0.095 -0.06739,-0.1877 -0.09067,-0.2854 -0.102636,-0.4304 -0.08463,-0.8839 -0.101968,-1.3246 -0.0016,-0.4593 -0.01361,-0.9232 0.04087,-1.3791 -0.01482,-0.2362 0.27758,-0.2601 0.292398,-0.024 z"
       inkscape:connector-curvature="0" />
    <path
       style="fill:#000000;fill-opacity:1;fill-rule:nonzero;stroke:none"
       id="path3537"
       d="m 25.863264,1042.0781 c 0.09575,0.5318 0.157179,1.0713 0.219266,1.6093 0.02533,0.23 0.05352,0.4329 0.05642,0.6649 0.0013,0.1026 0.0064,0.207 -0.01122,0.3078 -0.01795,0.1024 -0.06289,0.1964 -0.09433,0.2946 0.002,0.013 -0.01393,0.016 -0.01592,0 l 0,0 c -0.05977,-0.082 -0.132513,-0.1542 -0.179317,-0.2464 -0.04621,-0.091 -0.0699,-0.1947 -0.09579,-0.2953 -0.05969,-0.2322 -0.07658,-0.4274 -0.106782,-0.6661 -0.058,-0.5467 -0.112585,-1.0996 -0.08625,-1.6508 -0.0133,-0.2496 0.300621,-0.2707 0.313919,-0.021 z"
       inkscape:connector-curvature="0" />
    <path
       style="fill:#000000;fill-opacity:1;fill-rule:nonzero;stroke:none"
       id="path3539"
       d="m 27.357125,1042.2947 c 0.113521,0.485 0.134103,0.9872 0.175381,1.4823 0.01295,0.1927 0.03971,0.4173 0.0076,0.611 -0.01612,0.097 -0.05546,0.1895 -0.0832,0.2842 0.0151,0.1028 -0.130308,0.1241 -0.145409,0.022 l 0,0 c -0.05423,-0.086 -0.120961,-0.1645 -0.162669,-0.2569 -0.09024,-0.1999 -0.102003,-0.403 -0.131297,-0.6161 -0.04275,-0.499 -0.08862,-1.0065 -0.01938,-1.5051 -0.01467,-0.2537 0.344249,-0.2745 0.358922,-0.021 z"
       inkscape:connector-curvature="0" />
    <path
       style="fill:#000000;fill-opacity:1;fill-rule:nonzero;stroke:none"
       id="path3545"
       d="m 20.554517,1042.7235 c 0.428604,-0.032 0.85946,-0.024 1.28898,-0.024 0.863338,-0.01 1.726673,-0.01 2.589982,-0.014 0.672234,0 1.34459,-0.022 2.016861,-0.011 0.245568,0.01 0.606769,0.019 0.855913,0.028 0.312053,0.01 0.624954,0.015 0.93612,0.043 0.15666,0.014 0.237083,0.014 0.374219,0.085 0.04065,0.021 0.07397,0.054 0.110949,0.081 0.01137,0 0.0098,0.017 -0.0016,0.016 l 0,0 c -0.0403,0.019 -0.0785,0.044 -0.120905,0.058 -0.148706,0.05 -0.209209,0.037 -0.371071,0.039 -0.308014,0.01 -0.616073,0.01 -0.923838,0.022 -0.956957,0.058 -1.914753,0.091 -2.873579,0.093 -0.866793,0 -1.733832,0 -2.600256,-0.027 -0.432296,-0.014 -0.866713,-0.028 -1.294282,-0.098 -0.206539,-0.01 -0.19402,-0.3009 0.01252,-0.2921 z"
       inkscape:connector-curvature="0" />
    <path
       style="fill:#000000;fill-opacity:1;fill-rule:nonzero;stroke:none"
       id="path3547"
       d="m 20.09824,1043.6832 c 0.334492,-0.057 0.677039,-0.055 1.015489,-0.066 0.734723,-0.022 1.469355,-0.046 2.20382,-0.076 0.922936,-0.042 1.846385,-0.07 2.770215,-0.08 0.574915,0.01 1.15766,0 1.728106,0.086 0.07521,0.012 0.149164,0.03 0.223746,0.045 0.225428,0.07 0.121156,0.032 0.313941,0.1098 0.01729,0 0.01576,0.025 -0.0015,0.024 l 0,0 c -0.197172,0.052 -0.09148,0.026 -0.317414,0.078 -0.640591,0.1001 -1.292134,0.1124 -1.938986,0.1345 -0.920283,0.02 -1.840475,0.043 -2.76027,0.08 -0.740232,0.025 -1.481346,0.054 -2.22198,0.029 -0.339219,-0.011 -0.683032,-0.01 -1.017741,-0.07 -0.207838,0 -0.20523,-0.2958 0.0026,-0.2939 z"
       inkscape:connector-curvature="0" />
    <path
       style="fill:#000000;fill-opacity:1;fill-rule:nonzero;stroke:none"
       id="path3549"
       d="m 20.243604,1044.5836 c 0.412171,-0.073 0.831341,-0.1006 1.248058,-0.1359 0.880426,-0.072 1.762234,-0.1247 2.643825,-0.1804 0.811605,-0.034 1.627355,-0.1241 2.440166,-0.063 0.127447,0.01 0.253967,0.029 0.38095,0.044 0.10824,0.028 0.21648,0.057 0.32472,0.085 0.02791,0 0.02953,0.038 0.0016,0.04 l 0,0 c -0.105102,0.037 -0.210204,0.074 -0.315306,0.1109 -0.124356,0.027 -0.247927,0.057 -0.373069,0.079 -0.801165,0.1423 -1.618579,0.1618 -2.427989,0.2238 -0.882082,0.05 -1.764124,0.101 -2.647154,0.1315 -0.421663,0.014 -0.846558,0.041 -1.26739,0 -0.236824,0.01 -0.245251,-0.329 -0.0084,-0.3349 z"
       inkscape:connector-curvature="0" />
    <path
       style="fill:#000000;fill-opacity:1;fill-rule:nonzero;stroke:none"
       id="path3551"
       d="m 23.459978,1040.0449 c 0.02127,0.3723 -0.06845,0.735 -0.167155,1.0904 -0.06032,0.2083 -0.141211,0.4141 -0.260212,0.5967 -0.03334,0.051 -0.06623,0.1043 -0.111298,0.1455 -0.04411,0.04 -0.101312,0.063 -0.151968,0.095 -0.03585,0.098 -0.173794,0.047 -0.13795,-0.051 l 0,0 c -0.01822,-0.057 -0.04655,-0.1109 -0.05466,-0.1697 -0.0081,-0.059 4.82e-4,-0.1196 0.0066,-0.179 0.02115,-0.2043 0.07848,-0.4045 0.140887,-0.5993 0.0957,-0.3294 0.178656,-0.663 0.290748,-0.9875 0.04134,-0.3147 0.486326,-0.2562 0.444984,0.058 z"
       inkscape:connector-curvature="0" />
    <path
       style="fill:#000000;fill-opacity:1;fill-rule:nonzero;stroke:none"
       id="path3555"
       d="m 25.343712,1039.9679 c 0.01133,0.027 0.02494,0.052 0.034,0.08 0.02018,0.061 0.05425,0.2156 0.06603,0.2711 0.03691,0.1739 0.06944,0.3486 0.107359,0.5224 0.01489,0.123 0.104337,0.293 0.09766,0.4178 -0.0021,0.039 -0.02071,0.076 -0.03107,0.1134 0.143549,0.2609 -0.225445,0.4639 -0.368995,0.203 l 0,0 c -0.0482,-0.031 -0.104409,-0.052 -0.144592,-0.093 -0.122002,-0.1241 -0.153892,-0.3444 -0.199642,-0.5024 -0.0661,-0.3127 -0.131474,-0.6404 -0.08444,-0.9602 -0.03659,-0.3703 0.487098,-0.422 0.523693,-0.052 z"
       inkscape:connector-curvature="0" />
    <path
       style="fill:#000000;fill-opacity:1"
       id="path3422"
       d="m 15.482012,1027.7244 c 0.02471,0.033 0.05198,0.064 0.07414,0.098 0.118558,0.1842 0.198727,0.3926 0.281202,0.5942 0.102093,0.2496 0.114289,0.2859 0.211487,0.5399 0.07799,0.2421 0.108149,0.2943 0.137554,0.5454 0.0098,0.084 0.02588,0.1694 0.01224,0.2527 -0.01492,0.091 -0.06413,0.1728 -0.0962,0.2593 0.0055,0.012 -0.01133,0.02 -0.0168,0.01 l 0,0 c -0.08842,-0.036 -0.186536,-0.054 -0.265266,-0.1079 -0.187949,-0.1288 -0.362891,-0.4896 -0.451702,-0.691 -0.036,-0.09 -0.072,-0.1798 -0.108004,-0.2697 -0.03377,-0.086 -0.06714,-0.1718 -0.101306,-0.2575 -0.07421,-0.186 -0.159848,-0.3709 -0.217425,-0.5633 -0.0088,-0.029 -0.01362,-0.06 -0.02042,-0.09 -0.225035,-0.3963 0.335464,-0.7146 0.560499,-0.3182 z"
       inkscape:connector-curvature="0" />
    <path
       style="fill:#000000;fill-opacity:1"
       id="path3424"
       d="m 17.285142,1027.6295 c 0.05589,0.1761 0.127797,0.3561 0.266183,0.4848 0.03086,0.029 0.06707,0.051 0.100601,0.077 0.03682,0.017 0.07131,0.04 0.110445,0.05 0.184993,0.048 0.278819,-0.051 0.350964,-0.1995 0.0073,-0.037 0.02082,-0.073 0.02189,-0.11 0.0079,-0.2754 -0.213122,-0.5023 -0.403615,-0.6692 -0.10755,-0.068 -0.130783,-0.097 -0.25018,-0.1228 -0.04464,-0.01 -0.09274,0 -0.136774,-0.01 -0.05224,-0.014 -0.100454,-0.041 -0.151729,-0.059 -0.138267,0.1507 -0.351447,-0.045 -0.21318,-0.1955 l 0,0 c 0.02386,-0.074 0.02728,-0.1577 0.07157,-0.2213 0.04642,-0.067 0.115944,-0.1186 0.189344,-0.1534 0.348313,-0.1651 0.719357,0.057 0.985971,0.2641 0.179446,0.192 0.24724,0.2338 0.359032,0.4782 0.12125,0.265 0.154924,0.5746 0.08799,0.8592 -0.02074,0.088 -0.06277,0.1699 -0.09415,0.2548 -0.134552,0.178 -0.157885,0.2529 -0.365384,0.3537 -0.309182,0.1503 -0.623994,0.052 -0.892479,-0.1274 -0.05582,-0.049 -0.116547,-0.094 -0.167452,-0.1485 -0.20237,-0.2169 -0.309341,-0.5046 -0.2984,-0.7997 -0.0044,-0.3036 0.424919,-0.3099 0.429351,-0.01 z"
       inkscape:connector-curvature="0" />
    <path
       style="fill:#000000;fill-opacity:1"
       id="path3426"
       d="m 19.502243,1025.5136 c 0.212332,0.4198 0.326152,0.8855 0.44036,1.3399 0.03348,0.4067 0.04874,0.2011 -0.05539,0.616 0.01695,0.041 -0.04162,0.065 -0.05856,0.024 l 0,0 c -0.37712,-0.2507 -0.225499,-0.095 -0.462926,-0.4585 -0.166733,-0.4417 -0.31135,-0.9022 -0.342766,-1.3761 -0.102704,-0.3389 0.376583,-0.4842 0.479287,-0.1453 z"
       inkscape:connector-curvature="0" />
    <path
       style="fill:#000000;fill-opacity:1"
       id="path3434"
       d="m 21.328285,1025.0831 c 0.09642,0.3754 0.161574,0.7615 0.207794,1.1464 -0.03117,0.3229 0.01095,0.1648 -0.134137,0.4722 0.01288,0.067 -0.0812,0.085 -0.09408,0.018 l 0,0 c -0.249793,-0.2289 -0.1504,-0.099 -0.303275,-0.3868 -0.10598,-0.3936 -0.189118,-0.808 -0.150665,-1.2171 -0.02327,-0.3354 0.451091,-0.3684 0.47436,-0.033 z"
       inkscape:connector-curvature="0" />
    <path
       style="fill:#000000;fill-opacity:1"
       id="path3436"
       d="m 22.830923,1025.0589 c -0.06883,0.2448 -0.103565,0.4985 -0.03699,0.7463 0.05877,0.1235 0.16739,0.1985 0.303068,0.1592 0.183667,-0.1564 0.151413,-0.4167 0.111251,-0.6268 -0.05515,-0.1494 -0.119824,-0.3598 -0.288115,-0.4218 -0.02921,-0.011 -0.06205,-0.01 -0.09308,-0.01 -0.0305,0 -0.06101,-0.01 -0.09151,-0.012 -0.185476,0.1058 -0.335014,-0.1565 -0.149538,-0.2623 l 0,0 c 0.05626,-0.053 0.112519,-0.1068 0.168779,-0.1602 0.07867,-0.017 0.155626,-0.053 0.236009,-0.05 0.333507,0.011 0.563771,0.3347 0.655901,0.6197 0.02544,0.079 0.03554,0.1616 0.05331,0.2424 0.0039,0.082 0.01365,0.1647 0.01182,0.2473 -0.0065,0.2916 -0.08854,0.6189 -0.326736,0.8113 -0.05392,0.043 -0.120528,0.068 -0.180792,0.1027 -0.0661,0.014 -0.130823,0.039 -0.198287,0.041 -0.26864,0.01 -0.51571,-0.1641 -0.642525,-0.3917 -0.0324,-0.058 -0.05035,-0.1232 -0.07552,-0.1848 -0.01191,-0.066 -0.03051,-0.1308 -0.03573,-0.1975 -0.02258,-0.2885 0.0848,-0.5661 0.209467,-0.8197 0.116103,-0.2611 0.485324,-0.097 0.369221,0.1642 z"
       inkscape:connector-curvature="0" />
    <path
       style="fill:#000000;fill-opacity:1"
       id="path3438"
       d="m 24.613586,1025.1256 c -0.01597,0.262 -0.03559,0.4761 0.0672,0.7241 0.08629,0.1346 0.236505,0.25 0.399384,0.1818 0.132707,-0.1481 0.06536,-0.3419 -0.0043,-0.5021 -0.118421,-0.2226 -0.258898,-0.2889 -0.485627,-0.3561 -0.149967,-0.033 -0.0644,-0.016 -0.2574,-0.047 -0.0095,0.01 -0.02221,0 -0.01271,-0.013 l 0,0 c 0.05721,-0.2883 -0.01018,-0.1666 0.198654,-0.367 0.07217,-0.024 0.141137,-0.062 0.216519,-0.071 0.329934,-0.039 0.630247,0.1988 0.794331,0.4635 0.04421,0.071 0.07199,0.1515 0.107988,0.2273 0.01752,0.081 0.04343,0.1607 0.05257,0.2432 0.03377,0.3044 -0.04756,0.6545 -0.302481,0.8495 -0.05817,0.044 -0.130079,0.067 -0.195118,0.101 -0.06958,0.012 -0.138231,0.033 -0.208738,0.034 -0.280337,0.01 -0.54817,-0.1613 -0.707394,-0.3847 -0.04123,-0.058 -0.06853,-0.1244 -0.102799,-0.1867 -0.02042,-0.067 -0.04702,-0.1324 -0.06126,-0.201 -0.05695,-0.2744 -0.002,-0.5536 0.103512,-0.8085 0.07903,-0.2812 0.476751,-0.1694 0.397718,0.1118 z"
       inkscape:connector-curvature="0" />
    <path
       style="fill:#000000;fill-opacity:1"
       id="path3440"
       d="m 27.305173,1025.4549 c -0.01719,0.1699 -0.08902,0.326 -0.156774,0.4803 -0.07133,0.1626 -0.117725,0.2857 -0.236154,0.4231 -0.05652,0.066 -0.127691,0.1168 -0.191536,0.1752 -0.107884,0.2382 -0.44467,0.086 -0.336786,-0.1525 l 0,0 c 0.0012,-0.085 -0.0072,-0.1711 0.0036,-0.2555 0.0231,-0.1803 0.08058,-0.2926 0.151797,-0.4558 0.06591,-0.151 0.129094,-0.307 0.236461,-0.4344 0.155292,-0.3743 0.684677,-0.1547 0.529384,0.2196 z"
       inkscape:connector-curvature="0" />
    <path
       style="fill:#000000;fill-opacity:1"
       id="path3442"
       d="m 28.218575,1026.6343 c 0.0082,0.2072 -0.01804,0.3981 0.169067,0.5299 0.186547,0.062 0.293897,-0.016 0.38275,-0.1779 0.05343,-0.2179 -0.05327,-0.3417 -0.227294,-0.4509 -0.08937,-0.054 -0.191295,-0.05 -0.289693,-0.07 -0.07407,-0.014 -0.129795,-0.036 -0.202412,-0.061 -0.21533,0.1244 -0.391188,-0.1801 -0.175859,-0.3045 l 0,0 c 0.05035,-0.063 0.08717,-0.1403 0.151049,-0.19 0.213787,-0.1661 0.507366,-0.1434 0.742487,-0.047 0.08177,0.033 0.154266,0.086 0.231399,0.129 0.171067,0.159 0.241912,0.1917 0.336993,0.4126 0.141242,0.3282 0.06098,0.654 -0.142281,0.9318 -0.05211,0.054 -0.09859,0.1137 -0.156314,0.1614 -0.230853,0.1909 -0.547821,0.265 -0.83112,0.1482 -0.06631,-0.027 -0.122999,-0.074 -0.184498,-0.1108 -0.04676,-0.051 -0.100572,-0.097 -0.140291,-0.1539 -0.164802,-0.2363 -0.178312,-0.5393 -0.106318,-0.8089 0.0434,-0.3128 0.485733,-0.2514 0.442335,0.061 z"
       inkscape:connector-curvature="0" />
    <path
       style="fill:#000000;fill-opacity:1"
       id="path3444"
       d="m 30.521198,1027.3008 c -0.155453,0.2279 -0.365925,0.5619 -0.597289,0.7086 -0.07215,0.046 -0.155078,0.072 -0.232616,0.1077 -0.142973,0.1884 -0.409417,-0.014 -0.266445,-0.2022 l 0,0 c 0.01288,-0.083 0.01483,-0.169 0.03864,-0.2498 0.08479,-0.2878 0.348661,-0.5692 0.557828,-0.7783 0.292747,-0.3535 0.792633,0.061 0.499886,0.414 z"
       inkscape:connector-curvature="0" />
    <path
       style="fill:#000000;fill-opacity:1"
       id="path3446"
       d="m 31.260483,1028.5718 c -0.02045,0.1449 -0.06627,0.3503 0.07772,0.4455 0.172088,0.052 0.334618,-0.077 0.458983,-0.1795 0.10969,-0.1193 0.298456,-0.3536 0.107209,-0.4835 -0.15758,-0.085 -0.33657,-0.1185 -0.499281,-0.191 -0.05598,-0.025 -0.109416,-0.055 -0.164125,-0.083 -0.02995,0.011 -0.04572,-0.031 -0.01576,-0.042 l 0,0 c 0.04253,-0.064 0.07092,-0.1398 0.127586,-0.1914 0.231282,-0.2109 0.637691,-0.1548 0.875097,0.01 0.06905,0.047 0.123755,0.1125 0.185633,0.1688 0.04048,0.074 0.09442,0.1417 0.121443,0.2215 0.136109,0.4017 -0.115132,0.7929 -0.395284,1.0551 -0.06441,0.045 -0.124891,0.096 -0.19324,0.1352 -0.255968,0.1454 -0.580232,0.2005 -0.853564,0.066 -0.0604,-0.03 -0.110331,-0.077 -0.165496,-0.1156 -0.04056,-0.051 -0.08808,-0.097 -0.121695,-0.1532 -0.140883,-0.2342 -0.12799,-0.5214 -0.0684,-0.777 0.08259,-0.37 0.605781,-0.2532 0.523187,0.1168 z"
       inkscape:connector-curvature="0" />
    <path
       style="fill:#000000;fill-opacity:1"
       id="path3452"
       d="m 10.51191,1024.5136 c 0.04942,0.3146 0.172355,0.5989 0.343414,0.865 0.07161,0.099 0.453993,0.4578 0.577961,0.2854 -0.01129,-0.024 -0.0181,-0.036 -0.02383,-0.064 -0.04464,-0.2168 -0.102737,-0.3064 -0.227313,-0.492 -0.147896,-0.1775 -0.332651,-0.3559 -0.569623,-0.3998 -0.03756,-0.01 -0.113125,0 -0.156077,0 -0.100319,-0.014 -0.198577,-0.014 -0.299979,-0.013 -0.140085,0.23 -0.4653901,0.032 -0.3253051,-0.1981 l 0,0 c 0.0071,-0.096 -0.01025,-0.1973 0.02135,-0.2883 0.09076,-0.2613 0.2275581,-0.2927 0.4452151,-0.4286 0.111866,-0.021 0.221727,-0.062 0.335597,-0.064 0.476753,-0.01 0.930164,0.2987 1.215734,0.6571 0.07658,0.096 0.134985,0.2054 0.202478,0.3081 0.04557,0.1127 0.103129,0.2212 0.136702,0.3381 0.123131,0.4285 0.09339,0.9702 -0.253865,1.2932 -0.08022,0.075 -0.185538,0.1165 -0.278307,0.1748 -0.101764,0.02 -0.20168,0.056 -0.305293,0.059 -0.396366,0.014 -0.781041,-0.2327 -1.035898,-0.5164 -0.06817,-0.076 -0.122551,-0.1631 -0.183826,-0.2447 -0.0459,-0.089 -0.09898,-0.1737 -0.1377131,-0.2656 -0.14197,-0.3368 -0.189852,-0.7307 -0.07244,-1.0806 0.05119,-0.4179 0.6422001,-0.3455 0.5910131,0.072 z"
       inkscape:connector-curvature="0" />
    <path
       style="fill:#000000;fill-opacity:1"
       id="path3454"
       d="m 12.960289,1021.9639 c 0.0236,0.035 0.05051,0.069 0.0708,0.1064 0.05555,0.1026 0.131073,0.2965 0.170737,0.3971 0.115797,0.2934 0.22016,0.5911 0.329049,0.8871 0.03224,0.1184 0.153689,0.5164 0.138508,0.6475 -0.0148,0.1278 -0.08645,0.2424 -0.129671,0.3636 0.02713,0.063 -0.06265,0.1019 -0.08978,0.038 l 0,0 c -0.118295,-0.054 -0.252681,-0.083 -0.354884,-0.1634 -0.120649,-0.095 -0.296411,-0.4579 -0.363074,-0.5827 -0.121247,-0.3098 -0.238848,-0.6167 -0.324095,-0.9389 -0.03464,-0.1309 -0.07719,-0.3044 -0.08912,-0.4435 -0.0038,-0.045 9.4e-4,-0.09 0.0014,-0.1346 -0.125148,-0.4526 0.514968,-0.6296 0.640116,-0.177 z"
       inkscape:connector-curvature="0" />
    <path
       style="fill:#000000;fill-opacity:1"
       id="path3456"
       d="m 15.088299,1021.6195 c 0.05372,0.2074 0.131906,0.4284 0.293322,0.5787 0.03515,0.033 0.07757,0.057 0.116362,0.085 0.252442,0.1256 0.40795,0.1338 0.575803,-0.1044 0.141761,-0.2803 0.06308,-0.5883 -0.120567,-0.8312 -0.04227,-0.056 -0.09492,-0.1032 -0.142384,-0.1548 -0.32723,-0.2706 -0.564845,-0.1719 -0.934221,-0.098 -0.05892,0 -0.117846,0.01 -0.17677,0.014 -0.223957,0.2536 -0.582651,-0.063 -0.358693,-0.3167 l 0,0 c 0.0371,-0.1041 0.07419,-0.2083 0.111289,-0.3124 0.08518,-0.084 0.156214,-0.1848 0.255545,-0.2511 0.479932,-0.3203 1.113603,-0.2323 1.572273,0.077 0.118446,0.08 0.214952,0.1882 0.322428,0.2823 0.08192,0.1176 0.178776,0.2261 0.245774,0.3529 0.250629,0.474 0.290145,1.0857 0.06297,1.5762 -0.05195,0.1122 -0.132254,0.2089 -0.19838,0.3133 -0.0903,0.08 -0.169673,0.1751 -0.270892,0.2411 -0.389905,0.2546 -0.887517,0.2428 -1.286334,0.02 -0.08976,-0.05 -0.16688,-0.1201 -0.25032,-0.1802 -0.0698,-0.074 -0.146296,-0.1426 -0.20939,-0.2226 -0.243259,-0.3084 -0.364517,-0.6948 -0.313939,-1.0853 0.01183,-0.4993 0.717951,-0.4825 0.706121,0.017 z"
       inkscape:connector-curvature="0" />
    <path
       style="fill:#000000;fill-opacity:1"
       id="path3458"
       d="m 17.998309,1018.7774 c 0.02345,0.039 0.0505,0.075 0.07036,0.1159 0.103519,0.2117 0.16118,0.4507 0.221918,0.6767 0.0085,0.032 0.155312,0.6022 0.161305,0.6255 0.07775,0.3006 0.164186,0.6075 0.151942,0.9218 -0.0034,0.088 -0.004,0.1807 -0.03644,0.2631 -0.03755,0.096 -0.112228,0.1719 -0.168342,0.2579 0.01746,0.053 -0.05689,0.077 -0.07435,0.025 l 0,0 c -0.09715,-0.038 -0.204886,-0.055 -0.291439,-0.1128 -0.07701,-0.052 -0.131926,-0.1314 -0.185841,-0.2068 -0.191417,-0.2677 -0.280505,-0.5897 -0.362941,-0.9027 -0.07578,-0.3036 -0.150115,-0.6067 -0.207087,-0.9145 -0.01751,-0.095 -0.05094,-0.2819 -0.05502,-0.3877 -0.0013,-0.034 0.0048,-0.068 0.0072,-0.1022 -0.183065,-0.5436 0.585695,-0.8025 0.76876,-0.2589 z"
       inkscape:connector-curvature="0" />
    <path
       style="fill:#000000;fill-opacity:1"
       id="path3460"
       d="m 19.857121,1018.4921 c 0.177204,0.4445 0.271325,0.9219 0.334034,1.3949 -0.02846,0.4164 0.01937,0.2106 -0.154674,0.6149 0.05445,0.2349 -0.277849,0.3119 -0.3323,0.077 l 0,0 c -0.336195,-0.2936 -0.203057,-0.1255 -0.40818,-0.4974 -0.136698,-0.45 -0.240014,-0.9174 -0.269306,-1.3877 -0.142635,-0.5872 0.687791,-0.7889 0.830426,-0.2017 z"
       inkscape:connector-curvature="0" />
    <path
       style="fill:#000000;fill-opacity:1"
       id="path3462"
       d="m 21.677047,1018.6848 c -0.0089,0.279 -0.08485,0.5545 -0.08133,0.8345 7.49e-4,0.059 0.01099,0.1183 0.01649,0.1775 0.01669,0.053 0.03911,0.2264 0.138591,0.2202 0.01661,-10e-4 0.04231,-0.045 0.05063,-0.053 0.01719,-0.015 0.03746,-0.026 0.0562,-0.038 0.221639,-0.149 0.4143,-0.377 0.460858,-0.6484 0.0091,-0.053 0.0016,-0.1075 0.0024,-0.1612 -0.04315,-0.2332 -0.167167,-0.3533 -0.396503,-0.3914 -0.14951,-0.045 -0.302301,-0.038 -0.45608,-0.029 -0.20322,0.192 -0.474701,-0.095 -0.271481,-0.2874 l 0,0 c 0.04154,-0.089 0.06626,-0.189 0.124619,-0.2686 0.125205,-0.1707 0.314004,-0.2825 0.518019,-0.3297 0.106142,-0.025 0.217403,-0.015 0.326104,-0.022 0.105348,0.03 0.215788,0.045 0.316044,0.089 0.422945,0.1847 0.708765,0.5931 0.761037,1.0472 0.01311,0.1139 -7.44e-4,0.2293 -0.0011,0.344 -0.02616,0.1108 -0.04337,0.2242 -0.07848,0.3326 -0.136547,0.4214 -0.419688,0.8259 -0.804451,1.0561 -0.09564,0.057 -0.203122,0.092 -0.304684,0.1376 -0.282802,0.042 -0.385909,0.095 -0.666131,-0.014 -0.298741,-0.1156 -0.488798,-0.3817 -0.573358,-0.6801 -0.02574,-0.091 -0.03043,-0.1864 -0.04564,-0.2796 0.0013,-0.093 -0.0025,-0.1869 0.0039,-0.2801 0.02381,-0.3492 0.117701,-0.7101 0.315113,-1.0018 0.174469,-0.4167 0.763718,-0.1699 0.589249,0.2467 z"
       inkscape:connector-curvature="0" />
    <path
       style="fill:#000000;fill-opacity:1"
       id="path3470"
       d="m 25.220175,1017.9834 c 0.0037,0.03 0.01002,0.059 0.01114,0.089 0.0051,0.1365 -0.0082,0.189 -0.02797,0.3325 -0.03519,0.2548 -0.07513,0.5086 -0.117388,0.7623 -0.06157,0.3518 -0.07617,0.7656 -0.355912,1.0299 -0.07635,0.072 -0.174264,0.1172 -0.261396,0.1759 -0.02823,0.1447 -0.232894,0.1048 -0.204664,-0.04 l 0,0 c -0.05978,-0.082 -0.132219,-0.1552 -0.179349,-0.2447 -0.180045,-0.3418 -0.07353,-0.7414 -0.02002,-1.0983 0.07597,-0.4221 0.137504,-0.8729 0.355888,-1.2483 0.170633,-0.5655 0.970306,-0.3241 0.799672,0.2413 z"
       inkscape:connector-curvature="0" />
    <path
       style="fill:#000000;fill-opacity:1"
       id="path3472"
       d="m 27.076517,1018.6879 c -0.0592,0.2778 -0.13217,0.5536 -0.135729,0.8391 0.0038,0.021 0.01961,0.1624 0.08725,0.1335 0.02005,-0.01 0.03503,-0.051 0.05057,-0.067 0.140385,-0.081 0.223618,-0.2326 0.216275,-0.3962 -0.002,-0.044 -0.01545,-0.087 -0.02317,-0.1308 -0.03619,-0.096 -0.08156,-0.2025 -0.170731,-0.2632 -0.0565,-0.038 -0.08717,0 -0.05511,0 -0.04671,-0.1073 -0.23248,-0.085 -0.316746,-0.091 -0.04642,0.077 -0.154622,0.011 -0.108202,-0.066 l 0,0 c -0.0109,-0.098 -0.05155,-0.1963 -0.0327,-0.2927 0.05104,-0.2608 0.208781,-0.2981 0.408021,-0.4221 0.109887,-0.01 0.220841,-0.038 0.329662,-0.022 0.430842,0.067 0.742872,0.4907 0.825696,0.8918 0.02163,0.1048 0.01673,0.2133 0.0251,0.3199 -0.01597,0.1039 -0.02202,0.2098 -0.04792,0.3117 -0.09714,0.3822 -0.334508,0.7564 -0.694131,0.9391 -0.08816,0.045 -0.186518,0.066 -0.279777,0.098 -0.09987,0 -0.200834,0.022 -0.299617,0.01 -0.396346,-0.06 -0.674423,-0.3794 -0.742635,-0.7621 -0.01484,-0.083 -0.0093,-0.1689 -0.01397,-0.2534 0.0098,-0.082 0.01359,-0.165 0.0294,-0.2461 0.06023,-0.3089 0.211526,-0.609 0.426713,-0.8378 0.221674,-0.3689 0.743423,-0.055 0.521749,0.3135 z"
       inkscape:connector-curvature="0" />
    <path
       style="fill:#000000;fill-opacity:1"
       id="path3474"
       d="m 29.620574,1019.3442 c -0.09913,0.2201 -0.188172,0.3894 -0.196728,0.6369 0.03446,0.1782 0.116744,0.1154 0.243537,0.073 0.260721,-0.1043 0.521963,-0.2958 0.625219,-0.5691 0.01671,-0.044 0.01525,-0.093 0.02288,-0.14 -0.0113,-0.028 -0.01522,-0.059 -0.03389,-0.083 -0.01524,-0.019 -0.177965,-0.054 -0.195589,-0.059 -0.144273,-0.046 -0.115752,-0.039 -0.267883,-0.1038 -0.05584,-0.034 -0.111679,-0.068 -0.167518,-0.1022 -0.403861,0.054 -0.479596,-0.5176 -0.07574,-0.5711 l 0,0 c 0.0992,-0.055 0.198406,-0.1092 0.29761,-0.1639 0.120124,-0.01 0.240388,-0.042 0.360371,-0.03 0.543861,0.053 1.007778,0.4972 1.052648,1.0466 0.01046,0.1281 -0.02759,0.2555 -0.04139,0.3833 -0.04713,0.1139 -0.08291,0.2332 -0.141402,0.3418 -0.225228,0.418 -0.629351,0.7612 -1.082453,0.9064 -0.109335,0.035 -0.225018,0.046 -0.337527,0.069 -0.28325,-0.016 -0.390105,0.01 -0.645914,-0.1319 -0.269096,-0.1496 -0.43664,-0.418 -0.48512,-0.7172 -0.01445,-0.089 -0.0059,-0.1806 -0.0089,-0.271 0.01556,-0.085 0.02346,-0.1709 0.04667,-0.2538 0.08458,-0.3019 0.262418,-0.5903 0.516467,-0.7754 0.364114,-0.3639 0.878747,0.151 0.514633,0.5149 z"
       inkscape:connector-curvature="0" />
    <path
       style="fill:#000000;fill-opacity:1"
       id="path3476"
       d="m 32.860529,1020.0477 c -0.210494,0.4722 -0.549527,0.8718 -0.85662,1.283 -0.08644,0.1043 -0.242867,0.3118 -0.364167,0.3892 -0.06997,0.045 -0.154055,0.062 -0.231082,0.093 -0.222493,0.3494 -0.716599,0.035 -0.494106,-0.3146 l 0,0 c -3.44e-4,-0.09 -0.01845,-0.1807 -10e-4,-0.2685 0.03452,-0.174 0.177328,-0.3735 0.266048,-0.5173 0.312484,-0.4146 0.627453,-0.8429 1.048524,-1.1549 0.346814,-0.4472 0.97925,0.043 0.632436,0.4904 z"
       inkscape:connector-curvature="0" />
    <path
       style="fill:#000000;fill-opacity:1"
       id="path3478"
       d="m 33.935628,1021.5587 c -0.106737,0.2583 -0.227811,0.5094 -0.253646,0.7909 0.03069,0.1394 0.03294,0.071 0.111033,0.058 0.05087,-0.01 0.102438,-0.012 0.15353,-0.019 0.246518,-0.059 0.445148,-0.2206 0.537682,-0.4598 0.01839,-0.048 0.02594,-0.099 0.03891,-0.1478 0.02551,-0.2063 -0.03642,-0.322 -0.172368,-0.4593 -0.212119,-0.1346 -0.08925,-0.06 -0.371673,-0.2182 -0.01659,0.01 -0.02417,-0.018 -0.0076,-0.024 l 0,0 c 0.265186,-0.359 0.0979,-0.2278 0.495912,-0.401 0.112112,0 0.227694,-0.016 0.336337,0.012 0.471412,0.1213 0.694953,0.6077 0.68402,1.0575 -0.0028,0.1148 -0.03147,0.2275 -0.04721,0.3413 -0.04046,0.1097 -0.07005,0.224 -0.121384,0.329 -0.208667,0.427 -0.588257,0.763 -1.04532,0.8998 -0.111299,0.033 -0.228461,0.042 -0.342691,0.063 -0.291584,-0.017 -0.406461,0.01 -0.67301,-0.1339 -0.307812,-0.1646 -0.502281,-0.4564 -0.541623,-0.8014 -0.01122,-0.098 0.0066,-0.1978 0.0099,-0.2968 0.02349,-0.089 0.03917,-0.1809 0.07048,-0.2677 0.117404,-0.3256 0.341066,-0.6202 0.62857,-0.8115 0.345412,-0.3608 0.855577,0.1277 0.510165,0.4885 z"
       inkscape:connector-curvature="0" />
    <path
       style="fill:#000000;fill-opacity:1"
       id="path3482"
       d="m 37.21138,1022.5027 c -0.0064,0.047 -0.0058,0.095 -0.01925,0.1405 -0.03913,0.1314 -0.14138,0.3073 -0.210004,0.4167 -0.187206,0.2985 -0.409779,0.5751 -0.620472,0.857 -0.223531,0.2679 -0.520347,0.7755 -0.867624,0.8969 -0.08609,0.03 -0.180543,0.026 -0.270814,0.039 -0.06552,0.134 -0.25501,0.041 -0.189489,-0.093 l 0,0 c -0.03751,-0.095 -0.09798,-0.1837 -0.112515,-0.2847 -0.05939,-0.4128 0.34929,-0.908 0.566072,-1.2187 0.209382,-0.2746 0.41418,-0.554 0.641419,-0.8144 0.05929,-0.068 0.203405,-0.2276 0.287902,-0.2889 0.03079,-0.022 0.06793,-0.034 0.101893,-0.051 0.283243,-0.49 0.976122,-0.089 0.69288,0.4005 z"
       inkscape:connector-curvature="0" />
    <path
       style="fill:#000000;fill-opacity:1"
       id="path3484"
       d="m 38.611802,1024.1386 c -0.165366,0.3268 -0.440256,0.5743 -0.700883,0.8238 -0.284811,0.2727 -0.263899,0.2503 -0.55568,0.5155 -0.403548,0.2761 -0.18362,0.1752 -0.660715,0.3006 -0.316063,0.3045 -0.746793,-0.1425 -0.43073,-0.447 l 0,0 c 0.141652,-0.4728 0.03297,-0.255 0.326554,-0.6531 0.30593,-0.3076 0.233751,-0.2411 0.549024,-0.5341 0.250044,-0.2324 0.498072,-0.4773 0.80545,-0.6337 0.444002,-0.4716 1.110983,0.1563 0.66698,0.628 z"
       inkscape:connector-curvature="0" />
    <path
       style="fill:#000000;fill-opacity:1"
       id="path3526"
       d="m 4.0555857,1017.0839 c 0.032415,0.023 0.068566,0.041 0.097244,0.068 0.1567539,0.1493 0.2672725,0.3561 0.3954382,0.5277 0.1019803,0.1366 0.3038257,0.3829 0.4083274,0.5119 0.3657191,0.4733 0.8619898,0.8315 1.215865,1.3145 0.064291,0.088 0.1166931,0.1836 0.1750397,0.2754 0.032291,0.1016 0.064583,0.2033 0.096874,0.3049 0.3407474,0.303 -0.087751,0.7849 -0.4284988,0.4819 l 0,0 c -0.10403,-0.02 -0.2080598,-0.039 -0.3120897,-0.059 -0.099468,-0.048 -0.2027316,-0.088 -0.2984041,-0.1431 -0.5909832,-0.3394 -1.0458738,-0.873 -1.481265,-1.3845 -0.2862682,-0.3919 -0.696244,-0.9632 -0.744565,-1.4646 -0.00525,-0.054 0.00671,-0.1093 0.010066,-0.1639 -0.1907326,-0.6123 0.6752359,-0.8821 0.8659685,-0.2697 z"
       inkscape:connector-curvature="0" />
    <path
       style="fill:#000000;fill-opacity:1"
       id="path3528"
       d="m 7.2883703,1015.3164 c 0.014311,0.034 0.031658,0.066 0.042934,0.1012 0.053162,0.1643 0.086171,0.3344 0.1463213,0.4972 0.074904,0.2027 0.078638,0.1904 0.187428,0.376 0.1432218,0.2049 0.3396798,0.4511 0.6114357,0.476 0.02648,0 0.05294,-0.01 0.07941,-0.01 0.012231,-0.012 0.030377,-0.019 0.036694,-0.034 0.016704,-0.041 -0.021597,-0.04 -0.032267,-0.067 -0.016676,-0.043 -0.00491,-0.091 -0.00995,-0.137 -0.00539,-0.049 -0.013522,-0.097 -0.020283,-0.1455 -0.100407,-0.3885 -0.315176,-0.7552 -0.6387641,-1.0004 -0.051079,-0.039 -0.1089467,-0.067 -0.1634201,-0.1012 -0.184936,-0.076 -0.3570109,-0.1745 -0.542441,-0.2487 -0.2325007,0.2099 -0.5293123,-0.1189 -0.2968116,-0.3288 l 0,0 c 0.040639,-0.1076 0.053836,-0.23 0.1219162,-0.3227 0.2282415,-0.3106 0.6867363,-0.376 1.0354813,-0.3031 0.1338068,0.028 0.2565401,0.095 0.3848102,0.1418 0.1160238,0.079 0.2400578,0.1477 0.3480715,0.2375 0.4520424,0.3757 0.7630291,0.919 0.8994942,1.4873 0.03353,0.1396 0.04497,0.2836 0.06746,0.4255 -0.01187,0.3486 0.0172,0.4878 -0.126607,0.8138 -0.161817,0.3669 -0.4653735,0.6252 -0.8588015,0.7087 -0.114953,0.024 -0.2345811,0.015 -0.3518717,0.022 -0.1123933,-0.02 -0.2278004,-0.028 -0.337181,-0.061 -0.4347082,-0.1307 -0.8084843,-0.4556 -1.045474,-0.836 -0.060415,-0.097 -0.1046374,-0.2032 -0.156956,-0.3048 -0.033554,-0.1054 -0.072987,-0.2091 -0.1006606,-0.3162 -0.081717,-0.3163 -0.1244322,-0.6817 -0.030463,-1.0016 0.011432,-0.039 0.034015,-0.074 0.051022,-0.1104 0.028033,-0.4946 0.7275046,-0.455 0.6994715,0.04 z"
       inkscape:connector-curvature="0" />
    <path
       style="fill:#000000;fill-opacity:1"
       id="path3534"
       d="m 10.829463,1012.4963 c 0.03674,0.1749 0.04553,0.3573 0.09321,0.5298 0.03333,0.1206 0.08339,0.2185 0.135014,0.3315 0.170668,0.2988 0.340689,0.4211 0.684304,0.4511 0.302831,-0.034 0.39922,-0.1909 0.470392,-0.4677 0.0021,-0.053 0.01133,-0.1053 0.0063,-0.1577 -0.02199,-0.2297 -0.159398,-0.4723 -0.325456,-0.629 -0.03931,-0.037 -0.08614,-0.065 -0.129213,-0.098 -0.04517,-0.019 -0.08905,-0.042 -0.135498,-0.058 -0.199294,-0.069 -0.414789,-0.101 -0.619936,-0.1459 -0.109201,-0.024 -0.217662,-0.051 -0.326493,-0.077 -0.08317,0.068 -0.179717,-0.049 -0.09654,-0.1176 l 0,0 c 0.03599,-0.1444 0.03565,-0.3032 0.107954,-0.4332 0.06821,-0.1227 0.181431,-0.2195 0.298187,-0.2975 0.38282,-0.2556 0.870697,-0.2532 1.281788,-0.076 0.136014,0.059 0.253058,0.1542 0.379587,0.2313 0.274721,0.2685 0.376729,0.3239 0.553112,0.6721 0.193178,0.3813 0.249955,0.8195 0.191366,1.2404 -0.01872,0.1344 -0.06227,0.2643 -0.09341,0.3964 -0.142832,0.3026 -0.169487,0.4266 -0.409116,0.668 -0.265054,0.267 -0.630294,0.4308 -1.003472,0.467 -0.120246,0.012 -0.241578,0 -0.362366,-0.01 -0.307466,-0.071 -0.390717,-0.066 -0.666833,-0.2254 -0.411319,-0.2374 -0.689093,-0.617 -0.827126,-1.0663 -0.01724,-0.104 -0.04387,-0.2068 -0.05172,-0.3119 -0.02665,-0.3564 0.05582,-0.7101 0.2297701,-1.0202 0.14151,-0.4357 0.757687,-0.2355 0.616177,0.2002 z"
       inkscape:connector-curvature="0" />
    <path
       style="fill:#000000;fill-opacity:1"
       id="path3538"
       d="m 15.193429,1009.1244 c 0.02347,0.034 0.04918,0.067 0.07042,0.1029 0.08418,0.1417 0.123802,0.2397 0.193073,0.395 0.136708,0.3065 0.26758,0.6155 0.398353,0.9246 0.149264,0.3461 0.30035,0.6987 0.354218,1.0752 0.0174,0.1216 0.03587,0.2458 0.02249,0.3679 -0.01415,0.1291 -0.06931,0.2503 -0.103967,0.3754 0.111297,0.3087 -0.325244,0.4661 -0.436541,0.1574 l 0,0 c -0.104254,-0.068 -0.21954,-0.1213 -0.312761,-0.2037 -0.08768,-0.077 -0.155718,-0.1753 -0.223754,-0.2705 -0.219045,-0.3065 -0.363898,-0.6571 -0.504154,-1.004 -0.208288,-0.5158 -0.441536,-1.0449 -0.491949,-1.6041 -0.223496,-0.7315 0.811077,-1.0476 1.034573,-0.3161 z"
       inkscape:connector-curvature="0" />
    <path
       style="fill:#000000;fill-opacity:1"
       id="path3540"
       d="m 18.242345,1008.9418 c 0.01141,0.2619 -0.01706,0.5244 0.0076,0.7859 0.01886,0.2002 0.03209,0.2187 0.08301,0.4036 0.07084,0.165 0.197669,0.3805 0.402908,0.2708 0.175509,-0.1221 0.307054,-0.3101 0.354534,-0.5203 0.01398,-0.062 0.01355,-0.1263 0.02033,-0.1894 -0.01693,-0.3246 -0.147368,-0.6505 -0.432357,-0.8315 -0.03796,-0.024 -0.08207,-0.037 -0.123098,-0.055 -0.162881,-0.062 -0.324162,-0.121 -0.491681,-0.1698 -0.306121,0.2257 -0.625323,-0.2072 -0.319203,-0.4329 l 0,0 c 0.06888,-0.1192 0.11028,-0.2592 0.206628,-0.3575 0.209945,-0.2141 0.513758,-0.2963 0.804093,-0.2845 0.15151,0.01 0.296396,0.064 0.444593,0.096 0.13046,0.078 0.271461,0.1403 0.39138,0.2336 0.490086,0.3812 0.771588,0.9931 0.803419,1.6063 0.0079,0.152 -0.01588,0.3041 -0.02383,0.4561 -0.09225,0.3683 -0.09568,0.498 -0.290928,0.8263 -0.213746,0.3595 -0.536525,0.6552 -0.933152,0.7991 -0.128224,0.047 -0.266078,0.06 -0.399118,0.09 -0.13412,-0.01 -0.270518,0 -0.402361,-0.022 -0.507528,-0.099 -0.906429,-0.4754 -1.113005,-0.9373 -0.04991,-0.1116 -0.07734,-0.232 -0.116003,-0.348 -0.01715,-0.1185 -0.04346,-0.2361 -0.05146,-0.3556 -0.03022,-0.4517 0.06893,-0.9146 0.259634,-1.3226 0.182614,-0.6491 1.100694,-0.3909 0.91808,0.2583 z"
       inkscape:connector-curvature="0" />
    <path
       style="fill:#000000;fill-opacity:1"
       id="path3546"
       d="m 23.156719,1007.0611 c 0.0098,0.042 0.02245,0.083 0.02942,0.1247 0.02339,0.1414 0.0276,0.2747 0.03149,0.4186 0.0087,0.323 9.41e-4,0.6451 -0.0098,0.9679 -0.04304,0.4647 -0.0015,0.9421 -0.117642,1.3986 -0.0244,0.096 -0.04579,0.1954 -0.09531,0.2811 -0.05417,0.094 -0.140165,0.1649 -0.210248,0.2473 0.02991,0.3621 -0.482112,0.4044 -0.512025,0.042 l 0,0 c -0.08401,-0.086 -0.187562,-0.1567 -0.252029,-0.2583 -0.0606,-0.096 -0.08719,-0.2096 -0.114598,-0.3193 -0.121999,-0.4885 -0.02945,-0.9983 -0.0096,-1.4919 0.05279,-0.4495 0.116573,-1.002 0.3,-1.4209 0.01738,-0.04 0.04128,-0.076 0.06192,-0.1143 0.08783,-0.6353 0.986289,-0.5111 0.898461,0.1242 z"
       inkscape:connector-curvature="0" />
    <path
       style="fill:#000000;fill-opacity:1"
       id="path3548"
       d="m 26.160225,1007.2912 c 0.02136,0.046 0.05013,0.09 0.06409,0.1384 0.03719,0.1301 0.04461,0.3456 0.04568,0.4719 0.0032,0.3742 -0.05173,0.7362 -0.107008,1.1052 -0.112394,0.4822 -0.108581,1.067 -0.360155,1.5062 -0.05946,0.1039 -0.14635,0.1894 -0.219525,0.2841 -0.04563,0.4975 -0.749299,0.433 -0.703668,-0.065 l 0,0 c -0.05388,-0.1157 -0.126143,-0.2246 -0.161631,-0.3472 -0.148773,-0.5142 0.03335,-1.1164 0.113416,-1.6266 0.07741,-0.3459 0.157207,-0.6846 0.273184,-1.0198 0.02687,-0.078 0.09736,-0.285 0.151185,-0.3677 0.02019,-0.031 0.05152,-0.053 0.07728,-0.08 0,-0.5849 0.827153,-0.5849 0.827153,0 z"
       inkscape:connector-curvature="0" />
    <path
       style="fill:#000000;fill-opacity:1"
       id="path3550"
       d="m 28.584527,1008.895 c -0.05576,0.2797 -0.123729,0.554 -0.147192,0.8391 0.01588,0.1477 0.0011,0.3824 0.148077,0.4789 0.03623,0.024 0.06879,0.015 0.106875,0.011 0.136527,-0.086 0.278662,-0.1534 0.390975,-0.2741 0.03987,-0.043 0.07314,-0.091 0.109713,-0.1371 0.141355,-0.2413 0.242779,-0.538 0.126508,-0.8119 -0.01441,-0.034 -0.03872,-0.063 -0.05808,-0.094 -0.02061,-0.015 -0.03926,-0.033 -0.06184,-0.044 -0.05386,-0.027 -0.124846,-0.027 -0.181829,-0.047 -0.08893,-0.032 -0.175929,-0.069 -0.263987,-0.1034 -0.312039,-0.1135 -0.140603,-0.046 -0.511425,-0.2106 -0.0486,0.033 -0.0949,-0.036 -0.0463,-0.069 l 0,0 c 0.106149,-0.5118 -0.0054,-0.2923 0.315366,-0.6679 0.107453,-0.061 0.206259,-0.1407 0.32236,-0.1829 0.539212,-0.1962 1.132295,0.015 1.498823,0.436 0.09322,0.1071 0.157071,0.2365 0.235606,0.3548 0.0474,0.1319 0.109494,0.2594 0.142201,0.3957 0.133353,0.5557 0.0171,1.1575 -0.269123,1.6467 -0.07172,0.1225 -0.165244,0.231 -0.247867,0.3465 -0.09966,0.098 -0.190759,0.2055 -0.298985,0.2939 -0.419403,0.3427 -0.986629,0.5546 -1.531226,0.4397 -0.131014,-0.028 -0.251085,-0.093 -0.376627,-0.1397 -0.100729,-0.075 -0.212006,-0.1369 -0.302188,-0.224 -0.339032,-0.3274 -0.497174,-0.8155 -0.491978,-1.2783 0.0012,-0.1107 0.02158,-0.2203 0.03237,-0.3305 0.02375,-0.1037 0.04104,-0.2091 0.07125,-0.3111 0.111139,-0.3754 0.309883,-0.7273 0.634217,-0.9552 0.451813,-0.4626 1.106116,0.1763 0.654303,0.639 z"
       inkscape:connector-curvature="0" />
    <path
       style="fill:#000000;fill-opacity:1"
       id="path3552"
       d="m 33.416154,1009.5814 c -0.07867,0.6462 -0.446421,1.2105 -0.759104,1.7664 -0.14501,0.2149 -0.291549,0.4631 -0.490272,0.637 -0.09892,0.087 -0.218738,0.1458 -0.328107,0.2188 -0.236576,0.4974 -0.940004,0.1628 -0.703429,-0.3346 l 0,0 c -0.007,-0.1424 -0.03534,-0.2854 -0.02088,-0.4272 0.03061,-0.3002 0.161875,-0.5402 0.280679,-0.8099 0.284086,-0.4966 0.55299,-1.0159 0.935185,-1.4457 0.279444,-0.7679 1.365373,-0.3727 1.085929,0.3952 z"
       inkscape:connector-curvature="0" />
    <path
       style="fill:#000000;fill-opacity:1"
       id="path3554"
       d="m 34.892432,1011.3586 c -0.0052,0.035 -0.0067,0.071 -0.01552,0.1051 -0.04517,0.1747 -0.124267,0.3369 -0.163315,0.5143 -0.03909,0.1777 -0.03944,0.2443 -0.05517,0.4222 0.009,0.2511 0.0139,0.3815 0.281183,0.3851 0.215376,-0.011 0.422197,-0.1153 0.553347,-0.2888 0.03247,-0.043 0.05599,-0.092 0.08399,-0.138 0.113683,-0.2505 0.192333,-0.5934 -0.03583,-0.8037 -0.148808,-0.1754 -0.269771,-0.3803 -0.397967,-0.5711 -0.09012,0.01 -0.102683,-0.1185 -0.01256,-0.1274 l 0,0 c 0.09869,-0.1128 0.169119,-0.2587 0.296079,-0.3383 0.233307,-0.1463 0.572055,-0.1052 0.805105,10e-5 0.132231,0.06 0.236845,0.1677 0.355267,0.2516 0.08406,0.1195 0.185705,0.2283 0.252187,0.3584 0.257143,0.5031 0.214736,1.1336 0.0075,1.6442 -0.05269,0.1299 -0.129027,0.2489 -0.19354,0.3733 -0.233148,0.2984 -0.27368,0.3966 -0.588779,0.6157 -0.351185,0.2442 -0.770874,0.3771 -1.200229,0.3552 -0.142938,-0.01 -0.282374,-0.047 -0.423562,-0.07 -0.333165,-0.1556 -0.457299,-0.1718 -0.707385,-0.4541 -0.272055,-0.3071 -0.393006,-0.7057 -0.385703,-1.1106 0.0022,-0.1209 0.02929,-0.24 0.04393,-0.36 0.03289,-0.1087 0.05852,-0.2198 0.09868,-0.326 0.109841,-0.2906 0.321712,-0.6844 0.546919,-0.9053 0.03485,-0.034 0.0778,-0.059 0.116701,-0.089 0.393839,-0.5222 1.132463,0.035 0.738625,0.557 z"
       inkscape:connector-curvature="0" />
    <path
       style="fill:#000000;fill-opacity:1"
       id="path3556"
       d="m 38.127046,1013.2236 c -0.03368,0.2236 -0.115949,0.4347 -0.154125,0.6575 -0.03206,0.1871 -0.02748,0.1976 -0.03616,0.3775 0.0088,0.026 0.0031,0.2319 0.08835,0.2251 0.02631,0 -2.82e-4,-0.037 0.08742,-0.041 0.201557,-0.013 0.400752,-0.072 0.554877,-0.2079 0.03725,-0.033 0.06785,-0.073 0.101783,-0.1089 0.143848,-0.2256 0.237474,-0.5017 0.177018,-0.7713 -0.0092,-0.041 -0.029,-0.079 -0.0435,-0.119 -0.0194,-0.024 -0.03596,-0.05 -0.05821,-0.071 -0.03161,-0.03 -0.08444,-0.051 -0.121393,-0.071 -0.147909,-0.082 -0.22348,-0.1193 -0.389182,-0.18 -0.08441,-0.028 -0.168831,-0.056 -0.253246,-0.084 -0.301391,0.1095 -0.456283,-0.3167 -0.154892,-0.4262 l 0,0 c 0.09225,-0.092 0.184506,-0.1842 0.276759,-0.2763 0.31469,-0.1377 0.406614,-0.2222 0.76594,-0.1984 0.424833,0.028 0.793541,0.2711 1.02533,0.6213 0.07342,0.1109 0.114884,0.24 0.172325,0.3599 0.02821,0.126 0.06869,0.2499 0.08463,0.378 0.06328,0.5083 -0.07071,1.0394 -0.347585,1.468 -0.07088,0.1097 -0.15987,0.2066 -0.239805,0.3099 -0.0954,0.087 -0.183407,0.1824 -0.286192,0.2603 -0.388385,0.2942 -0.89273,0.4668 -1.382108,0.4237 -0.119195,-0.01 -0.234884,-0.046 -0.352326,-0.069 -0.274346,-0.1213 -0.392111,-0.1415 -0.606263,-0.366 -0.318772,-0.3341 -0.392981,-0.7837 -0.343365,-1.2252 0.01827,-0.097 0.03088,-0.1956 0.0548,-0.2915 0.09431,-0.3781 0.258122,-0.7743 0.515155,-1.07 0.350264,-0.6109 1.214234,-0.1156 0.86397,0.4954 z"
       inkscape:connector-curvature="0" />
    <path
       style="fill:#000000;fill-opacity:1"
       id="path3558"
       d="m 42.314397,1014.5213 c -0.01001,0.045 -0.01403,0.092 -0.03002,0.1358 -0.09294,0.253 -0.262848,0.4919 -0.41546,0.7099 -0.15879,0.2268 -0.326208,0.4441 -0.493071,0.665 -0.263587,0.3274 -0.483952,0.6952 -0.784951,0.992 -0.08544,0.084 -0.171407,0.1724 -0.276097,0.231 -0.110012,0.062 -0.238287,0.083 -0.357431,0.1239 -0.196115,0.3457 -0.68489,0.068 -0.488775,-0.2773 l 0,0 c -0.01904,-0.1351 -0.06609,-0.2692 -0.05711,-0.4054 0.0089,-0.1356 0.05919,-0.2665 0.109721,-0.3926 0.170563,-0.4259 0.476741,-0.7795 0.750709,-1.1394 0.250544,-0.3067 0.499702,-0.6151 0.784087,-0.8919 0.07012,-0.068 0.269867,-0.247 0.366909,-0.3086 0.03911,-0.025 0.08413,-0.039 0.126198,-0.058 0.435495,-0.5411 1.20079,0.075 0.765295,0.6159 z"
       inkscape:connector-curvature="0" />
    <path
       style="fill:#000000;fill-opacity:1"
       id="path3560"
       d="m 43.953727,1016.5732 c -0.290729,0.3184 -0.597203,0.6201 -0.874091,0.9513 -0.158384,0.211 -0.312925,0.4329 -0.401239,0.6842 -0.01635,0.047 -0.02963,0.095 -0.03238,0.1444 -10e-4,0.019 0.0027,0.051 0.02142,0.052 0.01921,0 0.02099,-0.032 0.03149,-0.048 0.03831,0 -0.02749,-0.1098 0.01121,-0.1283 0.02111,-0.01 0.0468,-4e-4 0.07021,-4e-4 0.04324,1e-4 0.08655,0 0.129712,7e-4 0.174919,-0.01 0.177296,-0.021 0.354637,-0.069 0.369759,-0.1373 0.670579,-0.398 0.864531,-0.742 0.03858,-0.068 0.06708,-0.1421 0.100613,-0.2131 0.02756,-0.087 0.139803,-0.4481 -0.0095,-0.5058 -0.01271,0 -0.02697,0.01 -0.04056,0.01 -0.01995,0 -0.03909,-0.01 -0.05863,-0.013 -0.157166,-0.083 -0.328172,-0.1541 -0.472274,-0.2595 -0.110603,-0.081 -0.210409,-0.1756 -0.315614,-0.2635 -0.140143,0.027 -0.178613,-0.1709 -0.03847,-0.1981 l 0,0 c 0.10471,-0.1286 0.182135,-0.2854 0.314131,-0.3857 0.217165,-0.1651 0.585649,-0.2079 0.843555,-0.1705 0.148958,0.022 0.287125,0.091 0.430688,0.1357 0.122136,0.09 0.260247,0.1622 0.366408,0.2708 0.424683,0.4344 0.496977,1.0549 0.344732,1.6192 -0.03575,0.1325 -0.09385,0.2579 -0.140774,0.3869 -0.168427,0.3185 -0.212752,0.4402 -0.444514,0.723 -0.374105,0.4565 -0.865453,0.7857 -1.423288,0.9728 -0.342556,0.075 -0.478694,0.129 -0.832846,0.1128 -0.419423,-0.019 -0.870398,-0.1616 -1.159668,-0.4838 -0.104396,-0.1163 -0.165135,-0.2653 -0.247702,-0.398 -0.02706,-0.1444 -0.07548,-0.2865 -0.08118,-0.4333 -0.02588,-0.6673 0.451723,-1.2439 0.878058,-1.6985 0.419199,-0.3889 0.861881,-0.7781 1.430774,-0.9208 0.6172,-0.2691 0.997757,0.6038 0.380557,0.8729 z"
       inkscape:connector-curvature="0" />
  </g>
</svg>
