<svg xmlns="http://www.w3.org/2000/svg" viewBox="0 0 99.14 71.03"><defs><style>.cls-1{fill:#2a3da0;stroke:none;}</style></defs><title>Asset 3</title><g id="Layer_2" data-name="Layer 2"><g id="Content"><path class="cls-1" d="M55.53,43.16c1.22-3.57-2.47-5.75-4.15-1.84C49.83,45,54.08,47.43,55.53,43.16Zm-2.18.6c-1.16.14-.59-2.93.1-2.95C54.31,40.78,54.76,43.59,53.35,43.76Z"/><path class="cls-1" d="M65,43.82c-.54-3.18-5.39-.28-5.37,2.42C59.63,51,65.58,47.38,65,43.82Zm-1.42,0c1,1.09-1.64,3.8-2.44,3C60.19,45.81,62.93,43.19,63.56,43.87Z"/><path class="cls-1" d="M21.87,42.29c2.32-3.12-4.47-9.59-6.89-7.07C12,38.36,19.16,46,21.87,42.29ZM16.12,36.5c1.13-1.13,5.71,3,4.16,4.6C19,42.45,15.22,37.4,16.12,36.5Z"/><path class="cls-1" d="M84.92,38.52c.24.37.14.82-2.2,2.94-2.61,2.36-3.16,3.16-3.66,2.28-.41-.71-.28-1.27,2-3.53C83,38.24,84.39,37.7,84.92,38.52Z"/><path class="cls-1" d="M27.84,50.59c.58.53,2.32,2.34,2.83,2.91s1.11,1.13,1.62,1.62S32,57,31,56.3c-.6-.45-2.2-2.06-2.79-2.66a10.18,10.18,0,0,1-1.76-2.11C26.27,51.14,26.81,49.66,27.84,50.59Z"/><path class="cls-1" d="M32.67,46.34c-1.59-.68-2.89,1.2-2.65,2.84a5.63,5.63,0,0,0,1.32,3,2.53,2.53,0,0,0,4.13-.59C36.27,49.71,34.56,47.13,32.67,46.34Zm1.38,3.9c0,.66-.56,1-1.42.77a2.43,2.43,0,0,1-1.14-2.43.89.89,0,0,1,1.4-.32A2.23,2.23,0,0,1,34.05,50.24Z"/><path class="cls-1" d="M40.71,40.39a4.82,4.82,0,0,1,.84,2c.28.87.54,1.75.86,2.59.24.64.47.71.32,1.53a1.07,1.07,0,0,1-1.18.77c-.73-.26-1.39-2.95-1.61-3.81a11.36,11.36,0,0,1-.36-2.06.88.88,0,0,1,.28-.88A.62.62,0,0,1,40.71,40.39Z"/><path class="cls-1" d="M46.1,39c-2.53.59-1.67,3.87-1.52,4.49.51,2.21,1.73,2.25,2.88,2C50.73,44.88,50,38.13,46.1,39ZM48,42.31c.14,1.25-.94,1.9-1.61,1.42s-.83-2.46-.08-2.86S47.83,41,48,42.31Z"/><path class="cls-1" d="M36,42.92a25.47,25.47,0,0,1,1.6,2.62c.28.47,1,1.67,1.24,2.14.44.78.24,1.1-.34,1.44s-1.17-.83-1.75-1.77-1.18-2-1.72-2.94C34.3,43.07,35.43,42.41,36,42.92Z"/><path class="cls-1" d="M65.79,52c-.4,1.67,1.66,2.66,3.23,2.16a5.56,5.56,0,0,0,2.74-1.78,2.52,2.52,0,0,0-1.24-4C68.55,47.93,66.28,50,65.79,52Zm3.62-2.12a1.22,1.22,0,0,1,1.25,1.46c-.09.74-1.56,1.62-2.24,1.59s-1.4-.51-1-1.37A2.87,2.87,0,0,1,69.41,49.91Z"/><path class="cls-1" d="M63.2,50a23.42,23.42,0,0,1,1.9-2.41c.34-.43,1.22-1.5,1.58-1.92.58-.68.94-.6,1.46-.17s-.37,1.39-1,2.25-1.42,1.79-2.16,2.64C63.93,51.52,62.92,50.68,63.2,50Z"/><path class="cls-1" d="M79.89,8.39C79.46,5.7,76,5.6,74,7.35a9.14,9.14,0,0,0-2.81,4.34c-.67,2.76,1.5,5.44,4.15,5C78.44,16.09,80.4,11.59,79.89,8.39ZM76,13.74c-.92.65-2,.11-2.43-1.32-.37-1.2,1.24-3.64,2.41-3.77a1.53,1.53,0,0,1,1.78,1.69C77.65,12.47,77,13,76,13.74Z"/><path class="cls-1" d="M86.82,11.22c-3.58-2.23-6.37,2.54-6.91,3.41-2,3.13-.6,4.59,1,5.65C85.43,23.28,92.29,14.61,86.82,11.22Zm-1.29,6.11c-1.47,1.68-3.88,1-4.21-.41s2.07-4,3.68-3.53C86.41,13.84,87.09,15.54,85.53,17.33Z"/><path class="cls-1" d="M69.05,34c.68-1.51,1.71-2.72,2.49-4.11.29-.51.53-1.32,1.13-1.59a.76.76,0,0,1,1,.45,3,3,0,0,1-.6,2.15A14.88,14.88,0,0,1,71.73,33a10.65,10.65,0,0,1-1.65,1.73.5.5,0,0,1-.63,0C69.17,34.57,69,34.16,69.05,34Z"/><path class="cls-1" d="M59.28,41.23A13.28,13.28,0,0,1,58.07,45c-.22.6-.69,2.09-1.59,1.16-.69-.71.63-3.14,1-3.87a4.46,4.46,0,0,1,.72-1.21C58.48,40.84,59.3,40.49,59.28,41.23Z"/><path class="cls-1" d="M54.11,21.9c0,.84-.14,1.67-.19,2.5A20,20,0,0,0,54,27c0,.58.27,1.46-.07,2s-1.54.22-1.69-.21A8,8,0,0,1,52,26.4a15.59,15.59,0,0,1,.11-2.46,7.49,7.49,0,0,1,.45-2.16C52.75,21.39,54.16,21.4,54.11,21.9Z"/><path class="cls-1" d="M34.76,23.88c.28.65.5,1.39.72,2.08a29.22,29.22,0,0,0,1.07,2.93c.17.4,1.37,3-.27,2.72-.84-.16-1.15-1-1.41-1.63a21.31,21.31,0,0,1-1-2.84,5.67,5.67,0,0,1-.34-2.85C33.66,23.76,34.49,23.28,34.76,23.88Z"/><path class="cls-1" d="M24.21,38.72a10.35,10.35,0,0,1-1.28-1.63c-.56-.8-1.12-1.61-1.73-2.37a8.75,8.75,0,0,1-1.82-2.4A1.21,1.21,0,0,1,20.8,30.9a4.88,4.88,0,0,1,2.16,2c.65.83,2.6,3.77,3.07,4.59C26.37,38.06,24.68,39.15,24.21,38.72Z"/><path id="path3336" class="cls-1" d="M83,36.44a34.17,34.17,0,0,1-3.08,2.68c-.72.57-1.36,1.23-2.1,1.76-.59.42-1.69-.44-1.27-1.13a13.21,13.21,0,0,1,3.62-3.24,15.08,15.08,0,0,1,1.7-1.17C82.25,35.14,83.44,36,83,36.44Z"/><path id="path3263" class="cls-1" d="M55,58a8.1,8.1,0,0,1,2.76,4.51c.57,3.36-1.38,6-4.3,7.42s-6.89,1.61-9.66-.18c-3.11-2-2.61-5.84-.94-8.62a9.68,9.68,0,0,1,3.8-3.84C49.1,56.11,52.94,56.19,55,58Z"/><path class="cls-1" d="M6.15,31.38c-.78-.89-1.36-1.93-2.06-2.87a27.81,27.81,0,0,0-2.37-2.72C1.16,25.21.1,24.47,0,23.59s1.5-1.65,2-1.33a11,11,0,0,1,2.38,2.3,20.75,20.75,0,0,1,2.09,2.75A9.87,9.87,0,0,1,8,30C8.1,30.67,6.53,32,6.15,31.38Z"/><path class="cls-1" d="M28.43,34.68c1.87,1.16,3.67-.92,3.54-3a7.59,7.59,0,0,0-1.29-4c-1.37-1.85-4.09-2-5.11-.09C24.39,29.75,26.21,33.31,28.43,34.68Zm-1.27-5.15c0-.83.8-1.15,1.82-.67.85.41,1.56,2.54,1.13,3.26a1,1,0,0,1-1.74.12A3,3,0,0,1,27.16,29.53Z"/><path class="cls-1" d="M6.63,22.94c3.81,5.21,10.55,2.16,6.7-4.05C9.77,13.13,2.07,16.7,6.63,22.94Zm1.13-4.15c1.43-2.1,5.36,2.51,4.54,4C11.34,24.47,6.22,21.06,7.76,18.79Z"/><path class="cls-1" d="M19,19.88c6.61-1.39,3.33-10.63-2-9.62C9.9,11.61,14.07,20.93,19,19.88Zm.64-2.78c-3,2.12-5.45-3-3.49-4.49C18.51,10.88,21.87,15.51,19.66,17.1Z"/><path class="cls-1" d="M72.79,33.4c-2.52,5.22,4,5.9,6.34,1.8C81.74,30.59,74.68,29.5,72.79,33.4Zm1.09,1.5c.31-2.83,4.32-3,4.13-1.11C77.79,36.05,73.64,37,73.88,34.9Z"/><path class="cls-1" d="M27.22,15.61c-.5.17-1-.13-2.35-3.89-1.54-4.2-2.2-5.19-1-5.52,1-.26,1.54.1,3.11,3.83C28.33,13.27,28.37,15.23,27.22,15.61Z"/><path class="cls-1" d="M71.16,4.49c.49.21.65.73-.77,4.49-1.57,4.18-1.72,5.36-2.83,4.83-.9-.43-1.1-1.08.15-4.93C68.79,5.54,70.05,4,71.16,4.49Z"/><path class="cls-1" d="M59.08,10.11c.52,2.64,3.9,2.55,5.69.7a9.3,9.3,0,0,0,2.54-4.46c.53-2.77-1.66-5.31-4.19-4.69C60.18,2.39,58.47,7,59.08,10.11Zm3.59-5.6a1.46,1.46,0,0,1,2.43,1c.14,1.29-1.12,3.93-2.38,4.16A1.42,1.42,0,0,1,61,8.28,5,5,0,0,1,62.67,4.51Z"/><path class="cls-1" d="M49.23.43a8.18,8.18,0,0,1,.29,3.21c0,1.38,0,2.76,0,4.13,0,1,.33,1.26-.22,2.33a1.36,1.36,0,0,1-1.89.45c-.86-.77-.59-4.93-.52-6.26a17.64,17.64,0,0,1,.39-3.11c.1-.4.14-.86.73-1.09A.87.87,0,0,1,49.23.43Z"/><path class="cls-1" d="M85.65,23.33a10.67,10.67,0,0,1,2-3c1-1.22,1.91-2.43,2.81-3.69.67-.94.63-1.33,1.75-1.91a1.18,1.18,0,0,1,1.65.88c.08,1.25-3,4.75-3.93,5.88A22.66,22.66,0,0,1,87.51,24c-.35.29-.69.67-1.27.48A.86.86,0,0,1,85.65,23.33Z"/><path class="cls-1" d="M39.82,23.27a6.16,6.16,0,0,1,.61,1.65c.3,1,1.38,4.27.48,5-1.17.93-1.44-1-1.59-1.79-.28-1.52-.88-3.37-.71-4.9C38.71,22.31,39.57,22.91,39.82,23.27Z"/><path class="cls-1" d="M89.76,26.11c.25,2,.9,3.92,4.1,2.6.89-.37,5.69-2.17,5.26-6.7C98.46,15.09,89.07,20.35,89.76,26.11Zm7.1-2.67c-.19,1.69-3.29,3.48-4.38,2.84s-.7-3.13,1.28-4.2S97,22,96.86,23.44Z"/><path class="cls-1" d="M39.18,11.32c1.86,1.14,4.2-.45,4.44-2.91A8.46,8.46,0,0,0,42.67,4C41.69,2,39,1.12,38,3.22,36.75,5.71,37,10,39.18,11.32Zm0-5.82c.23-.94,1-1.2,1.59-.85s1.24,2.76.7,3.61c-.63,1-1.48,1.14-1.94.39A3.37,3.37,0,0,1,39.21,5.5Z"/><path class="cls-1" d="M59.9,22.42c-2.39-.43-2.66,3.49-2.73,4.22-.24,2.6.82,3.17,1.9,3.4C62.14,30.71,63.56,23.07,59.9,22.42Zm.69,4.34c-.27,1.42-1.49,2-1.92,1.17s0-3.65.82-3.76S60.89,25.25,60.59,26.76Z"/><path class="cls-1" d="M56,1.53a35.21,35.21,0,0,1-.43,4.41c-.08.79-.31,2.78-.41,3.56-.17,1.28-.68,1.47-1.65,1.36-1.13-.14-.63-2-.48-3.56s.33-3.28.56-4.89C53.94.22,55.83.45,56,1.53Z"/><path class="cls-1" d="M30.8,3.82c-3.45,1.78-.67,10.57,3.09,9.37C38,11.87,34.85,1.72,30.8,3.82Zm2.63,7.59c-1.31.32-3.6-5.28-1.72-5.82.88-.26,1.58,1.08,2,2.52C34.27,10.18,34.06,11.26,33.43,11.41Z"/><path class="cls-1" d="M65.42,32.35c4.11-.2,4.57-8.09,1.3-8C62.32,24.42,62.35,32.49,65.42,32.35Zm1.07-2.15c-2.22,1.29-2.33-3.21-.85-4.1C67.4,25,68.15,29.23,66.49,30.2Z"/><path class="cls-1" d="M45.84,21.11c-4.16,1.39-2.05,9,1.29,8C51.63,27.75,49,20.07,45.84,21.11Zm-.39,2.36C47.1,21.68,48.65,26,47.54,27,46,28.42,44.34,24.68,45.45,23.47Z"/></g></g></svg>
