<?xml version="1.0" encoding="UTF-8" standalone="no"?>
<svg
   xmlns:dc="http://purl.org/dc/elements/1.1/"
   xmlns:cc="http://creativecommons.org/ns#"
   xmlns:rdf="http://www.w3.org/1999/02/22-rdf-syntax-ns#"
   xmlns:svg="http://www.w3.org/2000/svg"
   xmlns="http://www.w3.org/2000/svg"
   viewBox="0 0 48 48"
   version="1.1"
   id="svg3213"
   height="45.5602"
   width="47.263863">
  <defs
     id="defs17" />
  <metadata
     id="metadata3218">
    <rdf:RDF>
      <cc:Work
         rdf:about="">
        <dc:format>image/svg+xml</dc:format>
        <dc:type
           rdf:resource="http://purl.org/dc/dcmitype/StillImage" />
        <dc:title></dc:title>
      </cc:Work>
    </rdf:RDF>
  </metadata>
  <g
     transform="translate(-0.99620287,-1003.8638)"
     id="layer1">
    <path
       d="m 6.5486368,1039.9386 c -0.3662184,0.3926 -0.7017234,0.81 -1.0148127,1.2457 -0.4814754,0.7066 -0.8071003,1.5061 -1.0163871,2.333 -0.047148,0.1863 -0.08258,0.3753 -0.1238699,0.563 -0.1182072,0.6976 -0.1720741,1.4198 -0.01331,2.1166 0.092196,0.4046 0.1384248,0.4475 0.316056,0.8102 0.2857366,0.4602 0.6996286,0.7966 1.2112984,0.979 0.3458968,0.1233 0.474969,0.116 0.8399825,0.1571 0.1548205,-0.01 0.3104358,-0 0.4644615,-0.018 0.7235008,-0.079 1.4310201,-0.3621 2.04685,-0.7421 0.1757649,-0.1085 0.3404184,-0.234 0.5106276,-0.351 0.6897049,-0.5408 1.2838539,-1.1932 1.7471089,-1.9381 0.307794,-0.4949 0.354363,-0.6458 0.591675,-1.1743 0.307426,-0.8052 0.447466,-1.6617 0.340591,-2.5214 -0.07082,-0.5698 -0.141599,-0.693 -0.32183,-1.2337 -0.09238,-0.1879 -0.170897,-0.3834 -0.277153,-0.5639 -0.296764,-0.5042 -0.70554,-0.9574 -1.212899,-1.2561 -0.42165,-0.2482 -0.570372,-0.2512 -1.0376992,-0.3707 -0.1918441,-0.01 -0.383625,-0.038 -0.5755322,-0.029 -0.6756913,0.03 -1.3266852,0.269 -1.9521764,0.5038 -0.2428034,0.091 -0.4816574,0.1926 -0.723659,0.2858 -0.2518197,0.097 -0.5051706,0.1901 -0.7577559,0.2852 -0.020577,0.015 -0.042041,-0.014 -0.021463,-0.029 v 0 c 0.1781235,-0.2226 0.333318,-0.4657 0.5343704,-0.6679 0.7806697,-0.7849 1.8745934,-1.2464 2.9794427,-1.2662 0.250682,-0 0.499932,0.039 0.749898,0.058 0.2337606,0.066 0.4756236,0.1086 0.7012826,0.1986 0.899493,0.3588 1.613285,1.0838 2.083424,1.9153 0.12207,0.2159 0.214618,0.4473 0.321927,0.6709 0.204024,0.635 0.287806,0.7875 0.362962,1.455 0.111885,0.9936 -0.05469,1.9812 -0.400451,2.9136 -0.0972,0.226 -0.183067,0.4573 -0.291606,0.6781 -0.545538,1.1099 -1.350423,2.0751 -2.318917,2.8392 -0.194933,0.1358 -0.3833186,0.2816 -0.5847979,0.4076 -0.7476134,0.4674 -1.5888332,0.8023 -2.4734535,0.8739 -0.2012701,0.016 -0.4038363,0 -0.6057545,0.01 -0.5132278,-0.073 -0.6420551,-0.059 -1.1230918,-0.2558 -0.5140225,-0.2105 -0.9642407,-0.5467 -1.3070984,-0.9843 -0.1129112,-0.1442 -0.2005411,-0.3064 -0.3008116,-0.4596 -0.2020707,-0.4669 -0.2698032,-0.5529 -0.365152,-1.0596 -0.151217,-0.8037 -0.060147,-1.6246 0.1117266,-2.4161 0.053837,-0.2026 0.1000129,-0.4074 0.16151,-0.6078 0.2731398,-0.8901 0.7045361,-1.7215 1.2684737,-2.4618 0.3673416,-0.4442 0.7548826,-0.8894 1.2688726,-1.1687 0.1977657,-0.1464 0.4049063,0.1333 0.2071406,0.2797 z"
       id="path3033"
       style="fill:#000000;fill-opacity:1" />
    <path
       d="m 22.540806,1024.1485 c -0.458612,0.5627 -0.864839,1.1703 -1.208965,1.8099 -0.104363,0.1939 -0.196779,0.3941 -0.295169,0.5911 -0.419372,0.9772 -0.730546,2.0401 -0.587359,3.1147 0.02443,0.1834 0.0783,0.3616 0.117443,0.5424 0.224312,0.6765 0.624665,1.2575 1.210495,1.6711 0.398666,0.2815 0.551953,0.3138 1.004383,0.4994 0.196758,0.054 0.390451,0.1216 0.590275,0.1634 0.874857,0.1833 1.792916,0.1393 2.658788,-0.071 0.223227,-0.054 0.439923,-0.1324 0.659885,-0.1987 0.847903,-0.3039 1.614764,-0.7726 2.226114,-1.4392 0.399126,-0.4352 0.443548,-0.562 0.74981,-1.0625 0.08913,-0.2001 0.190903,-0.395 0.267377,-0.6003 0.32292,-0.8668 0.420878,-1.8142 0.317078,-2.7316 -0.02666,-0.2356 -0.08077,-0.4672 -0.12115,-0.7009 -0.218861,-0.8544 -0.589842,-1.6796 -1.275999,-2.2627 -0.414764,-0.3525 -0.598021,-0.3939 -1.090987,-0.6186 -0.220865,-0.058 -0.437778,-0.1344 -0.662595,-0.1749 -1.106491,-0.1992 -2.259671,-0.012 -3.323984,0.3088 -0.300745,0.091 -0.593002,0.2072 -0.889503,0.3107 -0.710898,0.3188 -0.986229,0.4132 -1.646079,0.8224 -0.4552,0.2823 -0.928938,0.6598 -1.354509,0.9848 -0.04544,0.052 -0.119339,-0.012 -0.0739,-0.064 v 0 c 0.146978,-0.2525 0.26435,-0.5247 0.440935,-0.7574 0.354561,-0.4672 0.952566,-0.9631 1.435528,-1.2813 0.285734,-0.1883 0.596099,-0.3362 0.894149,-0.5043 0.320113,-0.1306 0.633051,-0.2804 0.96034,-0.3919 1.206163,-0.4107 2.553032,-0.5879 3.811908,-0.3263 0.27687,0.058 0.54177,0.1624 0.812655,0.2435 0.633324,0.3255 0.814907,0.3614 1.334916,0.8522 0.566271,0.5345 0.966561,1.2252 1.230833,1.9519 0.0909,0.25 0.149974,0.5104 0.224961,0.7656 0.117986,0.696 0.181716,0.8934 0.180805,1.6032 -0.0014,1.0561 -0.255869,2.083 -0.733694,3.0232 -0.352019,0.576 -0.417412,0.7444 -0.874326,1.2466 -0.703911,0.7738 -1.593341,1.3418 -2.562866,1.7219 -0.670691,0.2036 -0.844523,0.2873 -1.54317,0.3755 -1.020174,0.1287 -2.051626,0.033 -3.024795,-0.2989 -0.566343,-0.2514 -0.750375,-0.2937 -1.246064,-0.6681 -0.543646,-0.4107 -0.990474,-0.9502 -1.268002,-1.5744 -0.09231,-0.2076 -0.147243,-0.4298 -0.220864,-0.6448 -0.104389,-0.611 -0.165333,-0.7626 -0.130047,-1.3902 0.05536,-0.9847 0.410297,-1.9174 0.853462,-2.787 0.117415,-0.2048 0.227675,-0.4138 0.352245,-0.6143 0.40591,-0.6534 0.900256,-1.2539 1.466275,-1.7745 0.237365,-0.2357 0.570726,0.1 0.333362,0.3357 z"
       id="path3037"
       style="fill:#000000;fill-opacity:1" />
    <path
       d="m 39.358561,1008.8662 c -0.4957,0.3813 -0.94751,0.8194 -1.359311,1.2897 -0.138721,0.1584 -0.269917,0.3233 -0.404875,0.4849 -0.72892,0.9475 -1.320888,2.0015 -1.70324,3.1366 -0.07516,0.2231 -0.13178,0.4521 -0.19767,0.6781 -0.197858,0.8028 -0.306313,1.6443 -0.126167,2.4624 0.102516,0.4656 0.170873,0.5379 0.380735,0.9538 0.09738,0.1324 0.183895,0.2735 0.292141,0.3971 0.461131,0.5268 1.099835,0.8665 1.767278,1.0536 0.183976,0.052 0.373599,0.08 0.560399,0.1204 0.805542,0.1153 1.616457,0.043 2.391454,-0.2048 0.533564,-0.1704 0.654021,-0.2567 1.152712,-0.5095 0.767408,-0.4485 1.417273,-1.0597 1.942277,-1.7751 0.36698,-0.5 0.429133,-0.6584 0.725856,-1.2038 0.543137,-1.1187 0.849175,-2.3369 0.920435,-3.5782 0.0144,-0.2508 0.0081,-0.5024 0.01216,-0.7536 -0.0404,-1.1078 -0.225371,-2.2618 -0.917233,-3.1677 -0.119258,-0.1561 -0.266244,-0.289 -0.399366,-0.4335 -0.15799,-0.1183 -0.305442,-0.2522 -0.473969,-0.355 -0.812983,-0.4956 -1.790765,-0.5986 -2.723335,-0.5387 -0.287011,0.019 -0.571071,0.069 -0.856607,0.1033 -1.216088,0.2311 -0.607318,0.091 -1.825632,0.4243 -0.26082,0.1108 -0.417545,-0.258 -0.156725,-0.3689 v 0 c 1.183779,-0.6884 0.571634,-0.3887 1.835903,-0.9001 0.796239,-0.1753 1.100672,-0.294 1.917546,-0.2732 0.859044,0.022 1.716189,0.2667 2.440038,0.733 0.220546,0.1421 0.412682,0.324 0.619022,0.486 0.449516,0.5208 0.58598,0.6136 0.896744,1.2337 0.477828,0.9536 0.629702,2.029 0.65878,3.0824 -0.02434,0.7301 -0.0107,0.9374 -0.117402,1.6626 -0.159342,1.0829 -0.472767,2.1423 -0.953937,3.1261 -0.336864,0.6057 -0.415423,0.795 -0.83047,1.3507 -0.615219,0.8238 -1.377046,1.5197 -2.264983,2.0396 -0.59709,0.2976 -0.719886,0.3907 -1.359793,0.5832 -0.924926,0.2782 -1.894665,0.3425 -2.848213,0.1943 -0.566387,-0.1316 -0.782895,-0.1534 -1.316263,-0.3898 -0.609261,-0.2701 -1.163145,-0.6629 -1.587931,-1.1797 -0.13877,-0.1688 -0.248383,-0.3596 -0.372575,-0.5394 -0.253822,-0.5479 -0.338264,-0.6463 -0.458819,-1.246 -0.192801,-0.9592 -0.06816,-1.9377 0.185506,-2.8718 0.21748,-0.6385 0.268708,-0.8535 0.565568,-1.4639 0.445886,-0.9168 1.041848,-1.7548 1.703756,-2.5266 0.151006,-0.1642 0.297215,-0.3329 0.453019,-0.4925 0.46698,-0.4785 0.980293,-0.9255 1.56134,-1.26 0.308268,-0.1922 0.580115,0.2437 0.271847,0.436 z"
       id="path3039"
       style="fill:#000000;fill-opacity:1" />
    <path
       d="m 1.6349361,1050.4129 c 0.010388,-0.034 0.017652,-0.069 0.031165,-0.1024 0.018957,-0.046 0.1335663,-0.2649 0.1497024,-0.295 0.120983,-0.2257 0.257702,-0.4373 0.3996469,-0.6502 0.3602509,-0.5387 0.7781982,-1.03 1.2376831,-1.4855 0.2976193,-0.2541 0.1416604,-0.1391 0.4671666,-0.3459 0.1192124,-0.1649 0.3524267,0 0.2332143,0.1686 v 0 c -0.099935,0.3813 -0.034491,0.1949 -0.197366,0.5587 -0.312915,0.5615 -0.6772395,1.0875 -1.0821725,1.587 -0.1567995,0.1945 -0.3143483,0.3859 -0.4831453,0.5701 -0.071305,0.078 -0.1389739,0.1594 -0.2159025,0.2317 -0.024276,0.023 -0.052309,0.041 -0.078463,0.062 -0.2114389,0.3264 -0.6729676,0.027 -0.4615286,-0.299 z"
       id="path3043"
       style="fill:#000000;fill-opacity:1" />
    <path
       d="m 12.207488,1038.4746 c 0.254826,-0.3696 0.577929,-0.6875 0.894113,-1.004 0.652899,-0.625 1.324716,-1.2298 1.991703,-1.8396 0.788132,-0.731 1.581566,-1.4563 2.358462,-2.1993 0.119269,-0.1178 0.2392,-0.2349 0.357806,-0.3534 0.442649,-0.442 0.231532,-0.2317 0.647259,-0.6742 0.09557,-0.1018 0.444651,-0.4712 0.556475,-0.5741 0.08389,-0.077 0.175442,-0.1457 0.263163,-0.2186 0.08731,-0.056 0.174611,-0.1116 0.261916,-0.1674 0.156915,-0.2347 0.488828,-0.013 0.331914,0.2219 v 0 c -0.02414,0.1108 -0.04827,0.2217 -0.07241,0.3326 -0.05072,0.1136 -0.09194,0.232 -0.152173,0.3409 -0.28378,0.5132 -0.75575,0.9912 -1.157887,1.4137 -0.119178,0.1252 -0.241707,0.2472 -0.362561,0.3708 -0.772469,0.7643 -1.571236,1.5008 -2.388474,2.2171 -0.667759,0.6 -1.335942,1.1994 -2.005703,1.7971 -0.311695,0.276 -0.620515,0.5549 -0.924621,0.8392 -0.355439,0.4235 -0.95442,-0.079 -0.598982,-0.5027 z"
       id="path3045"
       style="fill:#000000;fill-opacity:1" />
    <path
       d="m 30.130086,1023.3012 c 0.02095,-0.03 0.0393,-0.062 0.06284,-0.09 0.05626,-0.067 0.211062,-0.2158 0.264089,-0.2685 0.219055,-0.2177 0.440526,-0.4323 0.663617,-0.6459 0.690233,-0.668 1.391473,-1.3244 2.09427,-1.9791 0.540052,-0.4936 1.061218,-1.0115 1.641873,-1.4587 0.135675,-0.1045 0.277741,-0.2004 0.416612,-0.3006 0.171482,-0.201 0.455739,0.042 0.284257,0.2425 v 0 c -0.08191,0.1586 -0.153626,0.3229 -0.245739,0.4758 -0.38941,0.6463 -0.939044,1.1761 -1.466081,1.7072 -0.695569,0.6696 -1.406482,1.3227 -2.1365,1.9546 -0.233958,0.2057 -0.468223,0.4097 -0.708789,0.6076 -0.06164,0.051 -0.225952,0.1895 -0.302181,0.2399 -0.03185,0.021 -0.06741,0.036 -0.101117,0.054 -0.38055,0.3303 -0.847701,-0.2078 -0.467151,-0.5382 z"
       id="path3047"
       style="fill:#000000;fill-opacity:1" />
    <path
       d="m 45.646263,1007.4271 c 0.02745,-0.043 0.05154,-0.088 0.08236,-0.1283 0.09457,-0.124 0.254888,-0.2902 0.361378,-0.3934 0.313741,-0.304 0.652586,-0.5699 0.999869,-0.8339 0.397904,-0.2522 0.483894,-0.3248 0.916163,-0.5248 0.164188,-0.076 0.334605,-0.1377 0.501907,-0.2066 0.234394,-0.1704 0.475357,0.1611 0.240964,0.3315 v 0 c -0.336972,0.3982 -0.678529,0.7917 -1.085577,1.122 -0.223526,0.1858 -0.448492,0.37 -0.670502,0.5577 -0.210412,0.1778 -0.41174,0.3698 -0.62831,0.5403 -0.0345,0.027 -0.07188,0.05 -0.107823,0.076 -0.381945,0.4316 -0.992374,-0.1085 -0.610429,-0.5402 z"
       id="path3049"
       style="fill:#000000;fill-opacity:1" />
    <path
       d="m 7.5871874,1035.2881 c -0.2819564,-0.3568 -0.4870157,-0.7631 -0.6709263,-1.1767 -0.2719811,-0.6255 -0.454945,-1.2862 -0.5687352,-1.9581 -0.028191,-0.1665 -0.048597,-0.3342 -0.072895,-0.5012 -0.1279476,-0.9711 -0.1382935,-1.9542 -0.046171,-2.929 0.020936,-0.2215 0.051449,-0.442 0.077173,-0.663 0.1373309,-0.9717 0.3712609,-1.9275 0.676355,-2.8596 0.1964415,-0.6003 0.3240533,-0.9105 0.5507567,-1.5013 0.4032024,-0.9932 0.8379405,-1.9744 1.3153721,-2.9343 0.2834812,-0.57 0.4161862,-0.8042 0.7179673,-1.3625 0.6201466,-1.112 1.3126006,-2.1882 2.1338156,-3.1636 0.168224,-0.1998 0.346391,-0.391 0.519587,-0.5866 0.915955,-0.9661 1.968775,-1.7916 3.084144,-2.5148 0.226764,-0.147 0.458867,-0.2857 0.6883,-0.4285 1.177375,-0.7045 2.410349,-1.3182 3.686133,-1.8239 0.248217,-0.098 0.50004,-0.1875 0.75006,-0.2812 1.334519,-0.4955 2.725385,-0.7954 4.127135,-1.0218 0.549468,-0.078 1.100242,-0.1559 1.654648,-0.1895 0.249559,-0.015 0.573791,-0.025 0.826896,5e-4 0.107031,0.011 0.212068,0.036 0.318101,0.054 0.324772,0.088 0.176315,0.028 0.448808,0.1714 0.187292,-0.01 0.199901,0.256 0.01261,0.2649 v 0 c -0.253684,0.1675 -0.114579,0.093 -0.420965,0.2148 -0.09989,0.031 -0.198153,0.068 -0.299682,0.093 -0.231794,0.057 -0.560477,0.1012 -0.791948,0.131 -0.531673,0.068 -1.065961,0.117 -1.595583,0.2015 -0.505274,0.082 -0.727701,0.1134 -1.233283,0.2185 -0.919779,0.1911 -1.827022,0.4436 -2.713159,0.7554 -0.612102,0.2276 -0.844392,0.3053 -1.447398,0.5646 -0.972704,0.4183 -1.913133,0.9093 -2.825808,1.4453 -0.554136,0.3444 -0.762822,0.4629 -1.295058,0.8379 -0.814445,0.574 -1.58,1.2164 -2.264149,1.9419 -0.163954,0.1815 -0.332947,0.3586 -0.491864,0.5445 -0.791114,0.9256 -1.453477,1.9536 -2.043476,3.0165 -0.7300352,1.3624 -1.4030046,2.7557 -1.9796393,4.1907 -0.5175315,1.3389 -0.9945539,2.7017 -1.1871224,4.1314 -0.025382,0.207 -0.055458,0.4135 -0.076146,0.6211 -0.090764,0.9105 -0.080322,1.8295 0.010273,2.7395 0.097738,0.7657 0.2303088,1.5302 0.5184049,2.2509 0.1597991,0.382 0.326681,0.7611 0.5089793,1.1329 0.2642256,0.4253 -0.3372842,0.799 -0.6015098,0.3736 z"
       id="path3055"
       style="fill:#000000;fill-opacity:1" />
    <path
       d="m 26.907872,1006.8092 c 0.53408,-10e-4 1.063737,0.097 1.587698,0.1908 1.051718,0.1936 2.091497,0.4429 3.122787,0.7244 0.640442,0.2052 1.364187,0.3668 1.92031,0.7667 0.07837,0.056 0.147723,0.1243 0.221584,0.1865 0.06012,0.086 0.140166,0.1602 0.180344,0.2568 0.111664,0.2684 0.104631,0.4856 -0.01403,0.7518 -0.146203,0.3281 -0.518766,0.5837 -0.79077,0.7943 -1.043453,0.7137 -2.18029,1.2777 -3.301527,1.8567 -1.210481,0.598 -2.379628,1.2752 -3.594446,1.8642 -0.236214,0.09 -0.55182,0.2326 -0.813843,0.2558 -0.120085,0.011 -0.24054,-0.017 -0.36081,-0.025 -0.175228,0.1194 -0.344004,-0.1284 -0.168776,-0.2478 v 0 c 0.04176,-0.1186 0.06321,-0.2465 0.125277,-0.3558 0.145901,-0.2571 0.408992,-0.4544 0.622703,-0.6439 0.153091,-0.1059 0.302919,-0.2168 0.459274,-0.3178 0.999908,-0.6462 2.089791,-1.138 3.140078,-1.6933 1.082025,-0.5397 2.17475,-1.0598 3.23562,-1.6406 0.08523,-0.05 0.171341,-0.099 0.255691,-0.1511 0.05216,-0.032 0.10056,-0.07 0.153734,-0.1005 0.01769,-0.01 0.0419,-0.033 0.05768,-0.02 0.0411,0.034 0.02639,0.2227 0.125934,0.1795 -0.02393,-0.026 -0.04363,-0.057 -0.0718,-0.078 -0.111728,-0.085 -0.304008,-0.1745 -0.42422,-0.2249 -0.400488,-0.1676 -0.819826,-0.2863 -1.234651,-0.4115 -1.013499,-0.283 -2.032138,-0.5469 -3.046946,-0.8252 -0.504156,-0.1352 -1.012285,-0.2642 -1.503678,-0.4412 -0.460347,-0.082 -0.343564,-0.7336 0.116783,-0.651 z"
       id="path3057"
       style="fill:#000000;fill-opacity:1" />
    <path
       d="m 46.429885,1022.6996 c 0.0073,0.029 0.01681,0.058 0.02185,0.088 0.0246,0.1447 0.02109,0.295 0.03196,0.441 0.0074,0.1 0.02915,0.3328 0.03772,0.4268 0.05759,0.6228 0.08431,1.2473 0.08814,1.8726 -0.0016,0.9152 -0.156686,1.819 -0.345077,2.7114 -0.266224,1.1685 -0.68433,2.292 -1.14057,3.3974 -0.358554,0.8217 -0.744779,1.633 -1.189139,2.4123 -0.303417,0.5321 -0.405125,0.6721 -0.739648,1.1868 -0.685328,1.0124 -1.49918,1.9316 -2.394673,2.7624 -0.187498,0.174 -0.381962,0.3403 -0.572943,0.5104 -1.235951,1.0776 -2.617658,1.9616 -4.023828,2.7965 -1.581138,0.9211 -3.240376,1.6942 -4.919608,2.4166 -1.711199,0.7284 -3.46631,1.3446 -5.237785,1.9078 -1.095009,0.3362 -2.204564,0.6286 -3.327148,0.8577 -0.659593,0.1345 -0.876751,0.1626 -1.534415,0.2684 -0.654585,0.084 -1.311487,0.1826 -1.97235,0.2026 -0.178644,0.01 -0.359066,0.018 -0.536141,-0.01 -0.161461,-0.022 -0.313943,-0.088 -0.470914,-0.1314 -0.02654,0 -0.02962,-0.035 -0.0031,-0.037 v 0 c 0.144177,-0.069 0.281771,-0.153 0.43253,-0.2054 0.165215,-0.057 0.339441,-0.085 0.51028,-0.1224 0.632201,-0.139 1.271038,-0.2489 1.899088,-0.4072 1.58895,-0.3777 3.170558,-0.7872 4.728747,-1.2783 1.743548,-0.5542 3.474125,-1.1513 5.161173,-1.8616 1.645519,-0.7076 3.27581,-1.4551 4.828579,-2.352 1.364612,-0.7964 2.707008,-1.6408 3.90655,-2.6759 0.464736,-0.4115 0.63174,-0.5468 1.069264,-0.984 0.650856,-0.6503 1.245113,-1.3565 1.772045,-2.1108 0.124187,-0.1862 0.252158,-0.3699 0.372559,-0.5586 0.58626,-0.9187 1.087672,-1.8899 1.521607,-2.889 0.444272,-1.0605 0.848246,-2.1401 1.103329,-3.2639 0.191546,-0.8425 0.356331,-1.6921 0.396547,-2.5575 0.02458,-0.6066 0.01587,-1.2137 -0.01761,-1.82 -0.01247,-0.3247 -0.05425,-0.6777 0.01262,-0.9963 0,-0.375 0.530342,-0.375 0.530342,0 z"
       id="path3063"
       style="fill:#000000;fill-opacity:1" />
    <path
       d="m 19.695905,1044.9082 c -0.396904,0.3549 -0.825784,0.6671 -1.266101,0.9651 -0.776235,0.5105 -1.563044,1.0048 -2.315362,1.5504 -0.08261,0.064 -0.167656,0.125 -0.247815,0.1921 -0.05614,0.047 -0.112479,0.095 -0.160666,0.1497 -0.01509,0.017 -0.0393,0.082 -0.02594,0.064 0.03474,-0.048 0.08174,-0.095 0.09076,-0.154 0.04226,-0.2759 -0.13989,-0.2262 0.06103,-0.2469 0.631824,0.1251 1.273865,0.1863 1.911535,0.2727 0.67822,0.092 0.626081,0.089 1.300358,0.2021 0.788333,0.1667 1.662917,0.326 2.348911,0.7787 0.07888,0.052 0.148716,0.1167 0.223074,0.175 0.102129,0.1165 0.185414,0.1739 0.21009,0.3333 0.0089,0.057 -0.0086,0.1159 -0.01296,0.1739 0.04377,0.028 0.0035,0.09 -0.04023,0.062 v 0 c -0.202573,0.1041 -0.25667,0.1264 -0.488598,0.079 -0.291404,-0.07 -0.576831,-0.1584 -0.867023,-0.233 -0.5095,-0.1309 -1.02473,-0.2412 -1.543624,-0.3276 -0.630548,-0.1003 -1.262054,-0.1878 -1.894143,-0.2775 -0.286535,-0.041 -0.795164,-0.1113 -1.086772,-0.1756 -0.147157,-0.033 -0.291029,-0.078 -0.436544,-0.1175 -0.351865,-0.1806 -0.572591,-0.2039 -0.673063,-0.6696 -0.101287,-0.4694 0.477105,-0.8627 0.788128,-1.0838 0.787087,-0.497 1.592447,-0.9648 2.367003,-1.4816 0.439085,-0.2903 0.883135,-0.5723 1.339601,-0.8347 0.427538,-0.2958 0.845881,0.3088 0.418344,0.6046 z"
       id="path3065"
       style="fill:#000000;fill-opacity:1" />
  </g>
</svg>
