<svg xmlns="http://www.w3.org/2000/svg" viewBox="0 0 88.28 71.24"><defs><style>.cls-1{fill:#2a3da0;stroke:none;}</style></defs><title>Asset 13</title><g id="Layer_2" data-name="Layer 2"><g id="Content"><path class="cls-1" d="M83.75.55C75.36-.21,10.94-.06,6.17.25c-4.23.28-4.81,1.25-5,6.44C.7,19.47,0,44.82,0,57.6,0,60.32,1.5,61,3.81,61c10.69-.12,24-.19,30.33-.11-.93,2.32-3.2,5.8-3.61,7.51-.3,1.29-.18,2.89,1.86,2.86s19.92,0,21.83,0c2.22,0,1.72-2.08,1.16-3.28-1.77-3.77-3.53-6.91-3.54-7,8-.08,28.71-.2,33.43-.32A2.56,2.56,0,0,0,88.07,58c0-9.2.3-46.18.18-54.83C88.22.57,85,.66,83.75.55Zm1.3,53.92c0,2.93-1,3.29-3.26,3.29C72.37,57.76,17,58,6.41,58c-1.63,0-3.07.22-3.07-2.22,0-4,.5-40.32.5-49.62,0-2.5,1-2.94,3-3C19.57,2.91,70.46,2.81,82,3.1c2.61.07,3.5,2.05,3.52,4.17C85.61,17.38,85.05,54,85.05,54.47Z"/><path class="cls-1" d="M46.87,11c-1.69,0-14.6.2-17.18.2a1.2,1.2,0,1,1-.13-2.38H47C48.39,8.85,49,11,46.87,11Z"/><path id="path3336" class="cls-1" d="M45.33,34.92c-4.82.07-9.62-.06-14.43,0-3.2,0-7,0-10.23-.07-2.5-.06-2.75-2.38,0-2.46,6.62-.19,21.55,0,24.13,0C46.32,32.4,47.44,34.84,45.33,34.92Z"/><path class="cls-1" d="M24.44,11.19c-2.29,0-10.23.1-13.13.1-2.65,0-2.68-2.43-.19-2.43,6,0,11.68,0,13.37.09C26.47,9.08,26.31,11.22,24.44,11.19Z"/><path class="cls-1" d="M33.88,20.51c-2.28,0-10.22.09-13.12.09-2.66,0-2.69-2.36-.19-2.36,6,0,11.67,0,13.36.09C35.92,18.46,35.76,20.53,33.88,20.51Z"/><path class="cls-1" d="M20.21,13.66c2.29,0,31.87-.1,34.77-.1,2.65,0,2.68,2.44.19,2.44-6,0-23.22,0-35.07-.09C18.11,15.89,18.34,13.63,20.21,13.66Z"/><path class="cls-1" d="M50.76,25.06c-2,0-17.65.28-20.78.29-2.17,0-2.2-2.36-.16-2.37l21.07-.09C52.59,22.88,53.34,25.05,50.76,25.06Z"/><path class="cls-1" d="M55.62,29.81c-1.69,0-14.6.2-17.18.2a1.19,1.19,0,1,1-.13-2.37H55.73C57.14,27.64,57.75,29.81,55.62,29.81Z"/><path class="cls-1" d="M34.12,30c-1.16,0-3,.1-3.77.1-2.66,0-2.69-2.43-.19-2.43a29,29,0,0,1,4,.09C36.14,28,36,30,34.12,30Z"/><path class="cls-1" d="M59.87,27.74c1.88,0,4.83-.1,6.11-.1,2.5,0,2.11,2.13.33,2.13-2.92,0-4.07.05-6.62.05C58,29.82,58,27.74,59.87,27.74Z"/><path class="cls-1" d="M31.46,51c1.68,0,14.59-.2,17.17-.2a1.19,1.19,0,1,1,.13,2.37H31.34C29.93,53.18,29.32,51,31.46,51Z"/><path class="cls-1" d="M27.2,53.08c-1.88,0-4.83.1-6.11.1-2.5,0-2.11-2.14-.33-2.14,2.92,0,4.07,0,6.62,0C29.1,51,29,53.08,27.2,53.08Z"/><path class="cls-1" d="M37.55,48.34c-2.28,0-13.3.1-16.2.1-2.66,0-2.69-2.36-.19-2.36,6,0,14.75,0,16.44.08C39.59,46.3,39.43,48.37,37.55,48.34Z"/><path class="cls-1" d="M42.46,46.13c1.16,0,3-.1,3.77-.1,2.66,0,2.69,2.43.19,2.43a27.47,27.47,0,0,1-4-.09C40.43,48.15,40.58,46.13,42.46,46.13Z"/><path class="cls-1" d="M57.88,48.3c-1.87,0-4.83.11-6.11.11-2.49,0-2.11-2.25-.32-2.25,2.91,0,4.06,0,6.61,0C59.78,46.11,59.73,48.3,57.88,48.3Z"/><path class="cls-1" d="M19.32,43.48c-1.16,0-6.23.1-7,.1-2.66,0-2.69-2.43-.19-2.43,1.8,0,5.69-.09,7.26.09C21.35,41.46,21.2,43.48,19.32,43.48Z"/><path class="cls-1" d="M37.55,43.44c-2.28,0-10.22.09-13.12.09-2.66,0-2.69-2.36-.19-2.36,6,0,11.67,0,13.36.09C39.59,41.39,39.43,43.47,37.55,43.44Z"/></g></g></svg>
