<?xml version="1.0" encoding="UTF-8" standalone="no"?>
<!-- Created with Inkscape (http://www.inkscape.org/) -->

<svg
   xmlns:dc="http://purl.org/dc/elements/1.1/"
   xmlns:cc="http://creativecommons.org/ns#"
   xmlns:rdf="http://www.w3.org/1999/02/22-rdf-syntax-ns#"
   xmlns:svg="http://www.w3.org/2000/svg"
   xmlns="http://www.w3.org/2000/svg"
   xmlns:sodipodi="http://sodipodi.sourceforge.net/DTD/sodipodi-0.dtd"
   xmlns:inkscape="http://www.inkscape.org/namespaces/inkscape"
   width="50"
   height="50"
   id="svg3213"
   version="1.1"
   inkscape:version="0.48.4 r9939"
   sodipodi:docname="sys-programming-languages-logo.svg">
  <sodipodi:namedview
     id="base"
     pagecolor="#ffffff"
     bordercolor="#666666"
     borderopacity="1.0"
     inkscape:pageopacity="0.0"
     inkscape:pageshadow="2"
     inkscape:zoom="16.22"
     inkscape:cx="12.785719"
     inkscape:cy="25.19899"
     inkscape:document-units="px"
     inkscape:current-layer="layer1"
     showgrid="false"
     inkscape:window-width="1680"
     inkscape:window-height="998"
     inkscape:window-x="1672"
     inkscape:window-y="486"
     inkscape:window-maximized="1" />
  <metadata
     id="metadata3218">
    <rdf:RDF>
      <cc:Work
         rdf:about="">
        <dc:format>image/svg+xml</dc:format>
        <dc:type
           rdf:resource="http://purl.org/dc/dcmitype/StillImage" />
        <dc:title></dc:title>
      </cc:Work>
    </rdf:RDF>
  </metadata>
  <g
     inkscape:label="Layer 1"
     inkscape:groupmode="layer"
     id="layer1"
     transform="translate(0,-1002.3622)">
    <path
       style="fill:#000000;fill-opacity:1"
       id="path3033"
       d="m 5.9640523,36.147436 c -0.3662184,0.392585 -0.7017234,0.809945 -1.0148127,1.2457 -0.4814754,0.70654 -0.8071003,1.506127 -1.0163871,2.332964 -0.047148,0.18627 -0.08258,0.37531 -0.1238699,0.562966 -0.1182072,0.697683 -0.1720741,1.419847 -0.01331,2.11661 0.092196,0.404618 0.1384248,0.44757 0.316056,0.810231 0.2857366,0.460183 0.6996286,0.796584 1.2112984,0.978995 0.3458968,0.123312 0.474969,0.116018 0.8399825,0.157073 0.1548205,-0.0059 0.3104358,-0.0011 0.4644615,-0.01784 0.7235008,-0.07872 1.4310201,-0.362088 2.04685,-0.742148 0.1757649,-0.108473 0.3404184,-0.233996 0.5106276,-0.350995 0.6897053,-0.540749 1.2838542,-1.193225 1.7471092,-1.938075 0.307794,-0.494889 0.354363,-0.645822 0.591675,-1.174324 0.307426,-0.805222 0.447466,-1.661654 0.340591,-2.521418 -0.07082,-0.569742 -0.141599,-0.69297 -0.32183,-1.233621 -0.09238,-0.187984 -0.170897,-0.383447 -0.277153,-0.563954 -0.296764,-0.504139 -0.70554,-0.957407 -1.212899,-1.256057 -0.4216505,-0.248199 -0.5703719,-0.251201 -1.0376995,-0.37071 -0.1918441,-0.0098 -0.383625,-0.03769 -0.5755322,-0.02927 -0.6756913,0.02966 -1.3266852,0.268907 -1.9521764,0.503762 -0.2428034,0.09117 -0.4816574,0.192559 -0.723659,0.285833 -0.2518197,0.09706 -0.5051706,0.190095 -0.7577559,0.285143 -0.020577,0.01518 -0.042041,-0.01392 -0.021463,-0.0291 l 0,0 c 0.1781235,-0.222624 0.333318,-0.465714 0.5343704,-0.66787 0.7806697,-0.784954 1.8745934,-1.246381 2.9794427,-1.26626 0.250682,-0.0045 0.499932,0.03892 0.749898,0.05839 0.2337608,0.06619 0.4756237,0.108545 0.7012825,0.198561 0.8994937,0.358813 1.6132857,1.083819 2.0834247,1.915337 0.12207,0.215901 0.214618,0.44721 0.321927,0.670816 0.204024,0.635023 0.287806,0.787542 0.362962,1.455004 0.111885,0.993641 -0.05469,1.981228 -0.400451,2.913593 -0.0972,0.226049 -0.183067,0.457317 -0.291606,0.678147 -0.545538,1.109926 -1.350423,2.075047 -2.3189176,2.839159 -0.1949326,0.135876 -0.3833186,0.281664 -0.5847979,0.407629 -0.7476134,0.467409 -1.5888332,0.802312 -2.4734535,0.873859 -0.2012701,0.01628 -0.4038363,0.0038 -0.6057545,0.0058 C 5.5292548,45.208146 5.4004275,45.222561 4.9193908,45.025609 4.4053683,44.815152 3.9551501,44.47895 3.6122924,44.041286 3.4993812,43.897153 3.4117513,43.734893 3.3114808,43.581697 3.1094101,43.114834 3.0416776,43.028835 2.9463288,42.522099 c -0.151217,-0.803652 -0.060147,-1.624597 0.1117266,-2.416073 0.053837,-0.202605 0.1000129,-0.407403 0.16151,-0.607816 0.2731398,-0.890135 0.7045361,-1.721518 1.2684737,-2.461825 0.3673416,-0.444129 0.7548826,-0.889341 1.2688726,-1.168632 0.1977657,-0.14647 0.4049063,0.133213 0.2071406,0.279683 z"
       inkscape:connector-curvature="0"
       transform="translate(0,1002.3622)" />
    <path
       style="fill:#000000;fill-opacity:1"
       id="path3037"
       d="m 21.956222,20.357297 c -0.458612,0.562724 -0.864839,1.170367 -1.208965,1.809888 -0.104363,0.193948 -0.196779,0.394092 -0.295169,0.591137 -0.419372,0.977156 -0.730546,2.040099 -0.587359,3.114705 0.02443,0.183369 0.0783,0.3616 0.117443,0.5424 0.224312,0.676457 0.624665,1.257487 1.210495,1.671123 0.398666,0.281485 0.551953,0.313804 1.004383,0.499363 0.196758,0.05448 0.390451,0.121579 0.590275,0.163445 0.874857,0.183295 1.792916,0.1393 2.658788,-0.07101 0.223227,-0.05422 0.439923,-0.132468 0.659885,-0.198702 0.847903,-0.303908 1.614764,-0.772582 2.226114,-1.439188 0.399126,-0.4352 0.443548,-0.562027 0.74981,-1.062551 0.08913,-0.2001 0.190903,-0.39503 0.267377,-0.600298 0.32292,-0.866773 0.420878,-1.814164 0.317078,-2.731551 -0.02666,-0.2356 -0.08077,-0.467279 -0.12115,-0.700919 -0.218861,-0.854431 -0.589842,-1.679629 -1.275999,-2.262715 -0.414764,-0.35246 -0.598021,-0.393907 -1.090987,-0.618605 -0.220865,-0.0583 -0.437778,-0.134436 -0.662595,-0.174906 -1.106491,-0.199184 -2.259671,-0.01146 -3.323984,0.308838 -0.300745,0.09051 -0.593002,0.207137 -0.889503,0.310706 -0.710898,0.318742 -0.986229,0.41318 -1.646079,0.822345 -0.4552,0.282264 -0.928938,0.659806 -1.354509,0.984838 -0.04544,0.05225 -0.119339,-0.01201 -0.0739,-0.06427 l 0,0 c 0.146978,-0.25244 0.26435,-0.524627 0.440935,-0.75732 0.354561,-0.467217 0.952566,-0.963089 1.435528,-1.281318 0.285734,-0.188272 0.596099,-0.336194 0.894149,-0.504291 0.320113,-0.130643 0.633051,-0.280474 0.96034,-0.391927 1.206163,-0.410738 2.553032,-0.587887 3.811908,-0.326282 0.27687,0.05754 0.54177,0.162344 0.812655,0.243516 0.633324,0.325442 0.814907,0.361379 1.334916,0.852176 0.566271,0.53446 0.966561,1.225206 1.230833,1.951889 0.0909,0.24996 0.149974,0.510373 0.224961,0.76556 0.117986,0.696035 0.181716,0.893474 0.180805,1.603252 -0.0014,1.056049 -0.255869,2.083034 -0.733694,3.023237 -0.352019,0.575959 -0.417412,0.744307 -0.874326,1.246575 -0.703911,0.773781 -1.593341,1.341772 -2.562866,1.721853 -0.670691,0.203595 -0.844523,0.287359 -1.54317,0.375527 -1.020174,0.128745 -2.051626,0.03328 -3.024795,-0.298916 -0.566343,-0.251411 -0.750375,-0.293709 -1.246064,-0.668132 -0.543646,-0.410647 -0.990474,-0.950118 -1.268002,-1.574308 -0.09231,-0.207606 -0.147243,-0.429886 -0.220864,-0.644829 -0.104389,-0.610988 -0.165333,-0.762607 -0.130047,-1.390215 0.05536,-0.984735 0.410297,-1.917395 0.853462,-2.786964 0.117415,-0.204795 0.227675,-0.413861 0.352245,-0.614384 0.40591,-0.653401 0.900256,-1.253812 1.466275,-1.774459 0.237365,-0.235722 0.570726,0.09996 0.333362,0.335684 z"
       inkscape:connector-curvature="0"
       transform="translate(0,1002.3622)" />
    <path
       style="fill:#000000;fill-opacity:1"
       id="path3039"
       d="m 38.773977,5.074987 c -0.4957,0.3813656 -0.94751,0.8194147 -1.359311,1.2897218 -0.138721,0.1584297 -0.269917,0.3232935 -0.404875,0.4849403 -0.72892,0.9474186 -1.320888,2.0014636 -1.70324,3.1365531 -0.07516,0.2231278 -0.13178,0.4520768 -0.19767,0.6781158 -0.197858,0.802817 -0.306313,1.644346 -0.126167,2.462447 0.102516,0.465562 0.170873,0.537801 0.380735,0.95376 0.09738,0.132375 0.183895,0.273476 0.292141,0.397124 0.461131,0.526741 1.099835,0.86651 1.767278,1.053559 0.183976,0.05156 0.373599,0.08029 0.560399,0.120434 0.805542,0.115307 1.616457,0.04276 2.391454,-0.204801 0.533564,-0.170438 0.654021,-0.256724 1.152712,-0.509566 0.767408,-0.44847 1.417273,-1.059648 1.942277,-1.775026 0.36698,-0.500051 0.429133,-0.658436 0.725856,-1.203794 0.543137,-1.118758 0.849175,-2.3369537 0.920435,-3.5782297 0.0144,-0.2508175 0.0081,-0.5023956 0.01216,-0.7535934 C 45.087762,6.518779 44.90279,5.3648049 44.210928,4.4589204 44.09167,4.3027708 43.944684,4.169897 43.811562,4.0253853 43.653572,3.9070746 43.50612,3.7731993 43.337593,3.6704533 42.52461,3.1748014 41.546828,3.0717724 40.614258,3.1317209 c -0.287011,0.01845 -0.571071,0.068849 -0.856607,0.1032735 -1.216088,0.2311683 -0.607318,0.090705 -1.825632,0.4243254 -0.26082,0.1108213 -0.417545,-0.2580335 -0.156725,-0.3688548 l 0,0 c 1.183779,-0.6884801 0.571634,-0.3887902 1.835903,-0.9001544 0.796239,-0.1752501 1.100672,-0.2940053 1.917546,-0.2732051 0.859044,0.021874 1.716189,0.266721 2.440038,0.7329977 0.220546,0.1420674 0.412682,0.3240197 0.619022,0.4860295 0.449516,0.5207938 0.58598,0.6135471 0.896744,1.2336996 0.477828,0.9535443 0.629702,2.0290327 0.65878,3.0823426 -0.02434,0.7301234 -0.0107,0.9374549 -0.117402,1.6626393 -0.159342,1.0829458 -0.472767,2.1422728 -0.953937,3.1260528 -0.336864,0.605758 -0.415423,0.795048 -0.83047,1.350767 -0.615219,0.823737 -1.377046,1.519687 -2.264983,2.03959 -0.59709,0.297621 -0.719886,0.390734 -1.359793,0.583214 -0.924926,0.27821 -1.894665,0.342485 -2.848213,0.194241 -0.566387,-0.131539 -0.782895,-0.153368 -1.316263,-0.389776 -0.609261,-0.270046 -1.163145,-0.662902 -1.587931,-1.179676 -0.13877,-0.168821 -0.248383,-0.359634 -0.372575,-0.53945 -0.253822,-0.547838 -0.338264,-0.646222 -0.458819,-1.24597 -0.192801,-0.959164 -0.06816,-1.937686 0.185506,-2.871832 0.21748,-0.6385067 0.268708,-0.8534543 0.565568,-1.4638277 0.445886,-0.9167845 1.041848,-1.7548566 1.703756,-2.5266673 0.151006,-0.1641706 0.297215,-0.3328872 0.453019,-0.4925119 0.46698,-0.478431 0.980293,-0.9254807 1.56134,-1.2599372 0.308268,-0.192225 0.580115,0.2437312 0.271847,0.4359561 z"
       inkscape:connector-curvature="0"
       transform="translate(0,1002.3622)" />
    <path
       style="fill:#000000;fill-opacity:1"
       id="path3043"
       d="m 1.0503516,46.621724 c 0.010388,-0.03413 0.017652,-0.06938 0.031165,-0.102398 0.018957,-0.04633 0.1335663,-0.264931 0.1497024,-0.295027 0.120983,-0.225644 0.257702,-0.437293 0.3996469,-0.650226 0.3602509,-0.538659 0.7781982,-1.029937 1.2376831,-1.485461 0.2976193,-0.254068 0.1416604,-0.13909 0.4671666,-0.345895 0.1192124,-0.164908 0.3524267,0.0037 0.2332143,0.168592 l 0,0 c -0.099935,0.381292 -0.034491,0.194921 -0.197366,0.558748 -0.312915,0.561434 -0.6772395,1.087498 -1.0821725,1.586913 -0.1567995,0.194548 -0.3143483,0.385905 -0.4831453,0.570181 -0.071305,0.07784 -0.1389739,0.159403 -0.2159025,0.231695 -0.024276,0.02281 -0.052309,0.04127 -0.078463,0.0619 -0.2114389,0.32635 -0.67296759,0.02733 -0.4615286,-0.29902 z"
       inkscape:connector-curvature="0"
       transform="translate(0,1002.3622)" />
    <path
       style="fill:#000000;fill-opacity:1"
       id="path3045"
       d="m 11.622904,34.683435 c 0.254826,-0.36961 0.577929,-0.687516 0.894113,-1.004064 0.652899,-0.624923 1.324716,-1.229753 1.991703,-1.839527 0.788132,-0.731045 1.581566,-1.456298 2.358462,-2.199335 0.119269,-0.117782 0.2392,-0.234896 0.357806,-0.353346 0.442649,-0.442066 0.231532,-0.231698 0.647259,-0.674292 0.09557,-0.101743 0.444651,-0.471142 0.556475,-0.574079 0.08389,-0.07723 0.175442,-0.145708 0.263163,-0.218562 0.08731,-0.05582 0.174611,-0.111642 0.261916,-0.167463 0.156915,-0.234698 0.488828,-0.01279 0.331914,0.221911 l 0,0 c -0.02414,0.110864 -0.04827,0.221729 -0.07241,0.332593 -0.05072,0.113659 -0.09194,0.232056 -0.152173,0.340975 -0.28378,0.513186 -0.75575,0.991203 -1.157887,1.41367 -0.119178,0.125204 -0.241707,0.247175 -0.362561,0.370762 -0.772469,0.764362 -1.571236,1.500836 -2.388474,2.217187 -0.667759,0.599934 -1.335942,1.199374 -2.005703,1.797074 -0.311695,0.27598 -0.620515,0.554897 -0.924621,0.839162 -0.355439,0.423544 -0.95442,-0.07912 -0.598981,-0.502666 z"
       inkscape:connector-curvature="0"
       transform="translate(0,1002.3622)" />
    <path
       style="fill:#000000;fill-opacity:1"
       id="path3047"
       d="m 29.545502,19.510043 c 0.02095,-0.03013 0.0393,-0.06223 0.06284,-0.09038 0.05626,-0.06729 0.211062,-0.215871 0.264089,-0.268568 0.219055,-0.217688 0.440526,-0.432326 0.663617,-0.645901 0.690233,-0.667981 1.391473,-1.324353 2.09427,-1.979049 0.540052,-0.49359 1.061218,-1.011567 1.641873,-1.458744 0.135675,-0.104487 0.277741,-0.200403 0.416612,-0.300604 0.171482,-0.201 0.455739,0.04151 0.284257,0.242512 l 0,0 c -0.08191,0.158586 -0.153626,0.322871 -0.245739,0.475758 -0.38941,0.646333 -0.939044,1.176121 -1.466081,1.70729 -0.695569,0.669539 -1.406482,1.322615 -2.1365,1.954565 -0.233958,0.205659 -0.468223,0.409677 -0.708789,0.607556 -0.06164,0.05071 -0.225952,0.18957 -0.302181,0.239945 -0.03185,0.02105 -0.06741,0.03587 -0.101117,0.0538 -0.38055,0.330326 -0.847701,-0.207853 -0.467151,-0.538179 z"
       inkscape:connector-curvature="0"
       transform="translate(0,1002.3622)" />
    <path
       style="fill:#000000;fill-opacity:1"
       id="path3049"
       d="m 45.061679,3.6359604 c 0.02745,-0.042774 0.05154,-0.087904 0.08236,-0.1283221 0.09457,-0.124039 0.254888,-0.2902715 0.361378,-0.3934375 0.313741,-0.3039481 0.652586,-0.5699241 0.999869,-0.8338696 0.397904,-0.2522537 0.483894,-0.3248379 0.916163,-0.524858 0.164188,-0.075973 0.334605,-0.1376868 0.501907,-0.2065302 0.234394,-0.170387 0.475357,0.1610956 0.240964,0.3314826 l 0,0 c -0.336972,0.3982328 -0.678529,0.7916965 -1.085577,1.1219617 -0.223526,0.1858683 -0.448492,0.3700194 -0.670502,0.5576957 -0.210412,0.1778714 -0.41174,0.3698095 -0.62831,0.5403384 -0.0345,0.027166 -0.07188,0.050461 -0.107823,0.075691 -0.381945,0.4316383 -0.992374,-0.1085138 -0.610429,-0.5401522 z"
       inkscape:connector-curvature="0"
       transform="translate(0,1002.3622)" />
    <path
       style="fill:#000000;fill-opacity:1"
       id="path3055"
       d="M 7.0026029,31.496958 C 6.7206465,31.140093 6.5155872,30.733838 6.3316766,30.320235 6.0596955,29.694733 5.8767316,29.033992 5.7629414,28.362086 5.7347506,28.195625 5.7143447,28.02794 5.6900464,27.860867 5.5620988,26.889786 5.5517529,25.906685 5.6438758,24.931925 c 0.020936,-0.22152 0.051449,-0.442029 0.077173,-0.663044 0.1373309,-0.971628 0.3712609,-1.927422 0.676355,-2.859609 C 6.5938453,20.809063 6.7214571,20.498821 6.9481605,19.908 7.3513629,18.914845 7.786101,17.933572 8.2635326,16.973691 8.5470138,16.403748 8.6797188,16.1695 8.9814999,15.61121 9.601647,14.49925 10.294101,13.423001 11.115316,12.4476 c 0.168224,-0.199809 0.346391,-0.391032 0.519587,-0.586548 0.915955,-0.966146 1.968775,-1.791616 3.084144,-2.5148428 0.226764,-0.1470376 0.458867,-0.2856717 0.6883,-0.4285076 1.177375,-0.7044783 2.410349,-1.3182188 3.686133,-1.8239252 0.248217,-0.09839 0.50004,-0.1874266 0.75006,-0.2811399 1.334519,-0.4955685 2.725385,-0.7954589 4.127135,-1.0218213 0.549468,-0.077769 1.100242,-0.1558788 1.654648,-0.189534 0.249559,-0.015149 0.573791,-0.024652 0.826896,5.717e-4 0.107031,0.010667 0.212068,0.036119 0.318101,0.054179 0.324772,0.088345 0.176315,0.028287 0.448808,0.1714328 0.187292,-0.00892 0.199901,0.2559549 0.01261,0.2648712 l 0,0 c -0.253684,0.1674355 -0.114579,0.093492 -0.420965,0.2148218 -0.09989,0.030853 -0.198153,0.067608 -0.299682,0.092559 -0.231794,0.056964 -0.560477,0.1011573 -0.791948,0.1309662 -0.531673,0.068469 -1.065961,0.1170465 -1.595583,0.20151 -0.505274,0.082544 -0.727701,0.1134507 -1.233283,0.2184914 -0.919779,0.1910949 -1.827022,0.4436092 -2.713159,0.7554239 -0.612102,0.2275884 -0.844392,0.305325 -1.447398,0.5646455 -0.972704,0.4183074 -1.913133,0.9092838 -2.825808,1.4452644 -0.554136,0.3443644 -0.762822,0.4628674 -1.295058,0.8379454 -0.814445,0.573958 -1.58,1.216315 -2.264149,1.941814 -0.163954,0.181512 -0.332947,0.358598 -0.491864,0.544537 -0.791114,0.925643 -1.453477,1.953633 -2.0434769,3.016461 -0.7300348,1.362479 -1.4030042,2.755744 -1.9796389,4.19071 -0.5175315,1.338901 -0.9945539,2.701727 -1.1871224,4.131426 -0.025382,0.20702 -0.055458,0.413517 -0.076146,0.621059 -0.090764,0.910536 -0.080322,1.829497 0.010273,2.739509 0.097738,0.765755 0.2303088,1.530257 0.5184049,2.250886 0.1597991,0.382057 0.326681,0.761152 0.5089793,1.13292 0.2642256,0.425332 -0.3372842,0.799003 -0.6015098,0.373672 z"
       inkscape:connector-curvature="0"
       transform="translate(0,1002.3622)" />
    <path
       style="fill:#000000;fill-opacity:1"
       id="path3057"
       d="m 26.323288,3.0180186 c 0.53408,-9.79e-4 1.063737,0.096998 1.587698,0.1907574 1.051718,0.1936269 2.091497,0.4429113 3.122787,0.724488 0.640442,0.2051865 1.364187,0.366793 1.92031,0.7666931 0.07837,0.056355 0.147723,0.1242959 0.221584,0.1864438 0.06012,0.085599 0.140166,0.160222 0.180344,0.2567966 0.111664,0.2684027 0.104631,0.4856086 -0.01403,0.751842 -0.146203,0.3280414 -0.518766,0.5836369 -0.79077,0.7942985 -1.043453,0.713667 -2.18029,1.2777181 -3.301527,1.8566797 -1.210481,0.5979909 -2.379628,1.2752379 -3.594446,1.8642473 -0.236214,0.09023 -0.55182,0.232515 -0.813843,0.255704 -0.120085,0.01063 -0.24054,-0.01654 -0.36081,-0.02481 -0.175228,0.119343 -0.344004,-0.128465 -0.168776,-0.247808 l 0,0 c 0.04176,-0.118623 0.06321,-0.246497 0.125277,-0.355869 0.145901,-0.2570806 0.408992,-0.4543869 0.622703,-0.6438827 0.153091,-0.1059273 0.302919,-0.2167338 0.459274,-0.3177818 0.999908,-0.6462137 2.089791,-1.1380473 3.140078,-1.6932724 1.082025,-0.5397305 2.17475,-1.0598029 3.23562,-1.6405936 0.08523,-0.050374 0.171341,-0.099287 0.255691,-0.1511214 0.05216,-0.032052 0.10056,-0.070141 0.153734,-0.1004759 0.01769,-0.010091 0.0419,-0.033008 0.05768,-0.020134 0.0411,0.033529 0.02639,0.2227173 0.125934,0.1795163 -0.02393,-0.025976 -0.04363,-0.056614 -0.0718,-0.077927 C 32.304272,5.4872552 32.111992,5.3972671 31.99178,5.3469495 31.591292,5.1793165 31.171954,5.0605827 30.757129,4.9353709 29.74363,4.6524226 28.724991,4.3884763 27.710183,4.1102614 27.206027,3.974981 26.697898,3.8460084 26.206505,3.6690482 25.746158,3.5864703 25.862941,2.9354406 26.323288,3.0180186 z"
       inkscape:connector-curvature="0"
       transform="translate(0,1002.3622)" />
    <path
       style="fill:#000000;fill-opacity:1"
       id="path3063"
       d="m 45.845301,18.908457 c 0.0073,0.02918 0.01681,0.0579 0.02185,0.08755 0.0246,0.144717 0.02109,0.295022 0.03196,0.441005 0.0074,0.09976 0.02915,0.332818 0.03772,0.42679 0.05759,0.622842 0.08431,1.247276 0.08814,1.8726 -0.0016,0.915186 -0.156686,1.818983 -0.345077,2.711459 -0.266224,1.168462 -0.68433,2.291986 -1.14057,3.397326 -0.358554,0.82171 -0.744779,1.633032 -1.189139,2.412295 -0.303417,0.532097 -0.405125,0.672136 -0.739648,1.186846 -0.685328,1.012359 -1.49918,1.931594 -2.394673,2.762409 -0.187498,0.173955 -0.381962,0.340248 -0.572943,0.510372 -1.235951,1.077627 -2.617658,1.961651 -4.023828,2.796472 -1.581138,0.921173 -3.240376,1.694265 -4.919608,2.416626 -1.711199,0.728458 -3.46631,1.344602 -5.237785,1.90784 -1.095009,0.336185 -2.204564,0.628568 -3.327148,0.857629 -0.659593,0.134589 -0.876751,0.162651 -1.534415,0.268462 -0.654585,0.08354 -1.311487,0.182568 -1.97235,0.202602 -0.178644,0.0054 -0.359066,0.01775 -0.536141,-0.0065 -0.161461,-0.02211 -0.313943,-0.0876 -0.470914,-0.131398 -0.02654,0.0022 -0.02962,-0.03536 -0.0031,-0.03754 l 0,0 c 0.144177,-0.06848 0.281771,-0.153015 0.43253,-0.205435 0.165215,-0.05745 0.339441,-0.08484 0.51028,-0.122388 0.632201,-0.13895 1.271038,-0.248837 1.899088,-0.407204 1.58895,-0.377615 3.170558,-0.787192 4.728747,-1.278307 1.743548,-0.554112 3.474125,-1.151298 5.161173,-1.8616 1.645519,-0.707533 3.27581,-1.4551 4.828579,-2.351943 1.364612,-0.79644 2.707008,-1.640802 3.90655,-2.67587 0.464736,-0.411579 0.63174,-0.546874 1.069264,-0.984034 0.650856,-0.650314 1.245113,-1.356533 1.772045,-2.11082 0.124187,-0.186199 0.252158,-0.369929 0.372559,-0.558598 0.58626,-0.918667 1.087672,-1.889913 1.521607,-2.888968 0.444272,-1.060519 0.848246,-2.140155 1.103329,-3.263963 0.191546,-0.842463 0.356331,-1.692015 0.396547,-2.55743 0.02458,-0.606657 0.01587,-1.213699 -0.01761,-1.819985 -0.01247,-0.324765 -0.05425,-0.677759 0.01262,-0.996303 0,-0.375008 0.530342,-0.375008 0.530342,0 z"
       inkscape:connector-curvature="0"
       transform="translate(0,1002.3622)" />
    <path
       style="fill:#000000;fill-opacity:1"
       id="path3065"
       d="m 19.111321,41.117032 c -0.396904,0.354841 -0.825784,0.667036 -1.266101,0.96511 -0.776235,0.510434 -1.563044,1.004724 -2.315362,1.55034 -0.08261,0.06404 -0.167656,0.125052 -0.247815,0.192132 -0.05614,0.04698 -0.112479,0.0946 -0.160666,0.149706 -0.01509,0.01725 -0.0393,0.0823 -0.02594,0.06368 0.03474,-0.04841 0.08174,-0.09511 0.09076,-0.154009 0.04226,-0.275871 -0.13989,-0.226137 0.06103,-0.24688 0.631824,0.125116 1.273865,0.18629 1.911535,0.272687 0.67822,0.09189 0.626081,0.08866 1.300358,0.202081 0.788333,0.166717 1.662917,0.325992 2.348911,0.778767 0.07888,0.05206 0.148716,0.11666 0.223074,0.17499 0.102129,0.116479 0.185414,0.173886 0.21009,0.333231 0.0089,0.05746 -0.0086,0.115966 -0.01296,0.173949 0.04377,0.02845 0.0035,0.09035 -0.04023,0.0619 l 0,0 c -0.202573,0.104083 -0.25667,0.1264 -0.488598,0.07864 -0.291404,-0.06987 -0.576831,-0.158489 -0.867023,-0.233038 -0.5095,-0.130888 -1.02473,-0.241226 -1.543624,-0.327635 -0.630548,-0.100252 -1.262054,-0.187755 -1.894143,-0.277444 -0.286535,-0.04066 -0.795164,-0.111341 -1.086772,-0.175661 -0.147157,-0.03246 -0.291029,-0.07834 -0.436544,-0.117509 -0.351865,-0.180524 -0.572591,-0.203828 -0.673063,-0.669508 -0.101287,-0.469459 0.477105,-0.862727 0.788128,-1.083873 0.787087,-0.496951 1.592447,-0.964755 2.367003,-1.481577 0.439085,-0.290339 0.883135,-0.572314 1.339601,-0.834713 0.427538,-0.295814 0.845881,0.308816 0.418344,0.604629 z"
       inkscape:connector-curvature="0"
       transform="translate(0,1002.3622)" />
  </g>
</svg>
