<svg xmlns="http://www.w3.org/2000/svg" viewBox="0 0 97.84 76.55"><defs><style>.cls-1{fill:#2a3da0;stroke:none;}</style></defs><title>Icon</title><g id="Layer_2" data-name="Layer 2"><g id="Content"><g id="Icon"><path class="cls-1" d="M51.09,22.75C50.61,17.32,48.12,11,43,8.4A9.91,9.91,0,0,0,35.32,8a10.84,10.84,0,0,0-5.8,4.49c-3,5-4,12.11-1.56,17.57a12.22,12.22,0,0,0,13.65,6.84C48.4,35.48,51.29,29.14,51.09,22.75Zm-4.62,7c-3.17,4.72-10.12,5.83-14.23,1.49-3.88-4.1-3.08-11.13-1.29-16,.43-1.16,2.53-4.37,4.77-4.9a8.38,8.38,0,0,1,7.48,2.22C47.51,16.51,49.45,24.57,46.47,29.75Z"/><path id="path3268" class="cls-1" d="M40.24,37.05a28,28,0,0,1,.58,4.35c.14,2.11.24,10.14.3,12,0,1.27,1.27,14.46,1.68,18.87A1.6,1.6,0,0,1,41.53,74h0a1.61,1.61,0,0,1-1.92-1.43c-.41-4.8-1.5-17.61-1.52-18.95-.05-1.9-.11-14.78,0-16.15-.21-2.42,1.94-2.88,2.15-.47Z"/><path class="cls-1" d="M57.89,43.64c-1.61-1.19-5.59,5.24-8.36,9.17a72.73,72.73,0,0,0-4.81-6.4c-.93-1.18-2.48-3.87-3.89-4.52-5-2.33,2,7.07,2.84,8.16,2.32,3,5,10.12,8.5,4.64,1.32-2.07,2.59-4.08,4-6.11C57.72,46.26,59.36,44.72,57.89,43.64Z"/><path id="path4588" class="cls-1" d="M34.85,51.16c0,1.59-.27,10.43.28,12.18.29.89.31,1.65,1.45,1.7s1.3-.83,1.22-1.74c-.15-1.82-.06-9.24-.24-11s.89-3.35,1.54-5c.5-1.24,2.12-4.85,1.11-6a1.71,1.71,0,0,0-2.28.26S34.85,49.42,34.85,51.16Z"/><path class="cls-1" d="M5.25,33.62c3.69,3.76,9.27,5.49,13.88,2.17,4.87-3.5,5.75-10,3.94-15.45C20.9,13.89,16,8.71,9.21,8.9c-5.78.16-8.78,4.89-9.16,10A19.2,19.2,0,0,0,5.25,33.62ZM3.64,19.05c.21-2.41,1.12-5.37,3.54-6.43C15.55,9,22,21.05,20.5,27.33c-1.21,5.12-6.39,8.49-11,5.3C5.3,29.73,3.2,24,3.64,19.05Z"/><path id="path3272" class="cls-1" d="M11.77,38.09c-.34,3,.18,6.16.32,9.19s.27,6,.27,9.07c0,5.95-.28,11.93-.1,17.87,0,1.2,0,2.07,1.39,2.28,1.63.26,1.84-.58,2-1.89a79.12,79.12,0,0,0,.37-8.7c0-6.29.09-12.6-.42-18.87a55.62,55.62,0,0,0-1.39-9.52c-.18-.66-.32-1.94-1.4-1.77S11.72,37.42,11.77,38.09Z"/><path id="path4588-2" data-name="path4588" class="cls-1" d="M8.45,51.07c-.07,1.59-.78,10.4-.31,12.18.24.9.23,1.67,1.36,1.77s1.34-.77,1.31-1.68c-.06-1.83.38-9.23.29-11s1.05-3.3,1.78-4.89c.56-1.21,2.35-4.75,1.39-5.92a1.7,1.7,0,0,0-2.28.14S8.53,49.33,8.45,51.07Z"/><path id="path4588-3" data-name="path4588" class="cls-1" d="M17.58,51.44c1.25,1,8.53,5.89,10.15,6.92.79.5,1.59.85,2.33,0a1.4,1.4,0,0,0-.5-2.15c-1.52-1-7.55-5.28-9.07-6.26s-1.4-1.18-2.5-2.54c-.85-1-2.62-4.53-3.66-6-.41-.58-2.22,1.16-2,1.9C12.36,43.31,16.21,50.36,17.58,51.44Z"/><path id="path3533" class="cls-1" d="M93.27,47c.18,1.41-7.31,1.21-10.82,1.26-1.37,0-4.6.25-4.65-.84-.1-1.76,6.76-1.31,9.41-1.4C88.45,46,93.11,45.72,93.27,47Z"/><path id="path3549" class="cls-1" d="M78.09,51.19c.19-1.44,6-.83,7.93-.88,1.3,0,5.29-.06,5.92,0,1.32.09.9,2-.31,2.1-2.07.15-11.3.18-12.28.12C78.91,52.5,77.9,52.74,78.09,51.19Z"/><path class="cls-1" d="M97,54.55c.09-3.52,0-8-.18-11.3-.06-1.26-.69-1.69-2.21-1.72-3.51-.06-10.92.46-17.41.74-3.17.14-4.34.59-4.27,2.84,0,2,.06,5.51.15,8.57s.28,3.09,2.14,3.06c6.57-.1,16-.09,19.66-.18C96.85,56.51,96.94,55.83,97,54.55Zm-2.46-1.94c-.17,1.5-.17,1.5-2.89,1.59-8.52.26-9.28,0-15.29.13-1,0-.71-1-.71-1.46,0-2-.15-6-.18-7.6,0-.77.39-.94,1.13-1,3.81-.16,12.13-.72,16.08-.85,1,0,1.53,0,1.59.75A55.62,55.62,0,0,1,94.52,52.61Z"/><path id="path3539" class="cls-1" d="M62.79,32.74c.05-.78.43-1.33,6.94-1.57,6.31-.24,6.84.1,6.78,1.08-.08,1.32-6.53,1.35-8.6,1.46C66.75,33.77,62.7,34.07,62.79,32.74Z"/><path id="path3545" class="cls-1" d="M62.47,21.71c2.82-.83,5.7-.2,8.54-.31a19.37,19.37,0,0,1,3.4.12c.35.05,1.73,0,1.78,1.5s-2.1.85-2.66.83c-1.5,0-3.32,0-4.45,0s-3.4.21-4.31.16c-.51,0-1.91.38-2.32-.2C62.19,23.47,62,22.07,62.47,21.71Z"/><path id="path3547" class="cls-1" d="M62.36,27.33c.11-1,5.63-.71,8.34-1,1.29-.15,3.67-.18,4.71-.19,1.19,0,.92,2.43-.43,2.46-2.32.06-3.4.25-5.43.23-1.13,0-4.55.22-6.06.12C63,28.89,62.22,28.62,62.36,27.33Z"/><path class="cls-1" d="M82.68,36.11c.11-4,0-14.12-.24-17.87-.08-1.42-.77-1.92-2.49-1.95-4-.07-12,.34-19.37.66-3.59.15-4.34.83-4.27,3.38.06,2.31,0,13.14.11,16.61,0,1.54.51,1.9,1.85,1.88,7.44-.09,18-.41,22.17-.51C82.69,38.25,82.64,37.57,82.68,36.11Zm-2.39-2c0,1.43.2,1.71-1.66,1.76-9.65.25-12.26.18-19.08.27-1.09,0-.79-1.14-.8-1.64,0-2.25-.1-12.34-.14-14.11,0-.87.45-1.06,1.28-1.1,4.32-.18,14-.41,18.45-.56,1.15,0,1.55,0,1.61.88C80.05,21,80.15,28.65,80.29,34.06Z"/><path class="cls-1" d="M64.46,9.78c.08-2.64,0-6-.13-8.48C64.28.35,63.81,0,62.67,0,60,0,57.85.13,55.5.15s-3.1,1.16-3.07,2.4c0,1.54.12,4.14.12,6.44,0,1.37.71,2.3,1.6,2.3,4.94,0,6,.08,8.73,0C64.37,11.26,64.44,10.75,64.46,9.78ZM62.61,8.33c0,.83-.19,1.14-1.25,1.19-1.79.07-4.44,0-6.36,0-.72,0-.52-.76-.53-1.1,0-1.49-.11-4.53-.13-5.71,0-.57.29-.7.85-.73,2.86-.12,4.52-.18,6.09-.23.76,0,1.22.22,1.26.81C62.61,3.46,62.55,6.85,62.61,8.33Z"/><path class="cls-1" d="M59.73,63.42c2.64.08,6,0,8.48-.13,1,0,1.27-.52,1.29-1.66,0-2.64-.12-4.82-.14-7.17S68.2,51.35,67,51.39c-1.54,0-4.14.12-6.44.11-1.37,0-2.3.72-2.3,1.61,0,4.94-.08,6,0,8.73C58.25,63.33,58.76,63.4,59.73,63.42Zm1.46-1.85c-.84,0-1.15-.19-1.2-1.25-.07-1.79,0-4.44,0-6.36,0-.72.76-.53,1.1-.53,1.49,0,4.53-.11,5.71-.13.57,0,.7.29.73.85.12,2.86.18,4.52.23,6.08,0,.77-.22,1.23-.81,1.27C66.05,61.57,62.66,61.51,61.19,61.57Z"/><path class="cls-1" d="M81.46.72c-3.17-.07-7.2,0-10.18.13-1.13.05-1.52.53-1.54,1.68,0,2.66.14,4.86.17,7.23s1.39,3.13,2.88,3.1c1.84,0,5-.12,7.71-.12,1.65,0,2.77-.72,2.76-1.62,0-5,.09-6,0-8.8C83.23.82,82.61.75,81.46.72ZM79.71,2.59c1,0,1.38.2,1.43,1.26.08,1.81,0,4.48,0,6.41,0,.73-.91.54-1.31.54-1.79,0-5.44.11-6.85.14-.69,0-.84-.3-.87-.86-.14-2.89-.22-4.56-.28-6.14,0-.77.26-1.24,1-1.28C73.88,2.6,77.94,2.65,79.71,2.59Z"/><path class="cls-1" d="M97.84,34c0-2.76-.15-3.78-.25-8.72,0-.89-1-1.58-2.52-1.54-2.47.07-5.27.07-6.92.07-1.34,0-2.55.77-2.51,3.15s-.07,4.53,0,7.17c0,1.14.41,1.6,1.43,1.62,2.68.06,6.29,0,9.13-.12C97.29,35.53,97.84,35.45,97.84,34Zm-9.46-.07c-.63,0-.9-.49-.9-1.25,0-1.56,0-3.22.09-6.09,0-.55.14-.86.75-.87,1.27,0,4.55,0,6.15,0,.37,0,1.16-.23,1.19.5.1,1.91.25,4.56.22,6.35,0,1.06-.35,1.3-1.25,1.29C93.05,33.76,89.4,33.91,88.38,33.88Z"/></g></g></g></svg>
