<?xml version="1.0" encoding="UTF-8" standalone="no"?>
<!-- Created with Inkscape (http://www.inkscape.org/) -->

<svg
   xmlns:dc="http://purl.org/dc/elements/1.1/"
   xmlns:cc="http://creativecommons.org/ns#"
   xmlns:rdf="http://www.w3.org/1999/02/22-rdf-syntax-ns#"
   xmlns:svg="http://www.w3.org/2000/svg"
   xmlns="http://www.w3.org/2000/svg"
   xmlns:sodipodi="http://sodipodi.sourceforge.net/DTD/sodipodi-0.dtd"
   xmlns:inkscape="http://www.inkscape.org/namespaces/inkscape"
   width="50"
   height="50"
   id="svg3213"
   version="1.1"
   inkscape:version="0.48.4 r9939"
   sodipodi:docname="sys-software-engineering-logo.svg">
  <sodipodi:namedview
     id="base"
     pagecolor="#ffffff"
     bordercolor="#666666"
     borderopacity="1.0"
     inkscape:pageopacity="0.0"
     inkscape:pageshadow="2"
     inkscape:zoom="16"
     inkscape:cx="25.202405"
     inkscape:cy="26.809569"
     inkscape:document-units="px"
     inkscape:current-layer="layer1"
     showgrid="false"
     inkscape:window-width="1680"
     inkscape:window-height="998"
     inkscape:window-x="1672"
     inkscape:window-y="486"
     inkscape:window-maximized="1"
     showguides="true"
     inkscape:guide-bbox="true" />
  <metadata
     id="metadata3218">
    <rdf:RDF>
      <cc:Work
         rdf:about="">
        <dc:format>image/svg+xml</dc:format>
        <dc:type
           rdf:resource="http://purl.org/dc/dcmitype/StillImage" />
        <dc:title />
      </cc:Work>
    </rdf:RDF>
  </metadata>
  <g
     inkscape:label="Layer 1"
     inkscape:groupmode="layer"
     id="layer1"
     transform="translate(0,-1002.3622)">
    <path
       style="fill:#000000;fill-opacity:1;fill-rule:nonzero;stroke:none"
       id="path3262"
       d="m 3.7425131,1014.2351 c -0.2940876,0.5085 -0.5732606,1.0268 -0.8123097,1.564 -0.077525,0.1742 -0.1475831,0.3517 -0.2213747,0.5275 -0.3190283,0.8444 -0.5544677,1.7224 -0.683647,2.6165 -0.089267,0.6177 -0.088108,0.8269 -0.1241519,1.4483 -5.03e-5,0.8994 0.083863,1.8061 0.3703898,2.6637 0.173044,0.518 0.242259,0.6001 0.495815,1.0734 0.3784656,0.6133 0.8898688,1.1277 1.5167864,1.4875 0.3875122,0.2224 0.5561482,0.263 0.9746002,0.4148 0.684446,0.214 1.401098,0.3144 2.117291,0.242 0.464207,-0.047 0.549998,-0.092 0.995072,-0.2192 0.823104,-0.31 1.5661738,-0.8143 2.1063968,-1.5156 0.113079,-0.1468 0.20691,-0.3074 0.310365,-0.4612 0.510201,-0.8869 0.733756,-1.8966 0.734204,-2.9158 1.01e-4,-0.2299 -0.02063,-0.4594 -0.03095,-0.689 -0.119004,-1.2326 -0.47,-2.4413 -1.040223,-3.5423 -0.115204,-0.2224 -0.25025,-0.434 -0.375375,-0.651 -0.518384,-0.7903 -1.1762268,-1.4772 -2.0254308,-1.9108 -0.524189,-0.2677 -0.659888,-0.272 -1.223594,-0.4223 -0.670962,-0.1115 -1.341882,-0.1023 -2.009299,0.027 -0.2239527,0.043 -0.4422533,0.1121 -0.6642516,0.1646 -0.230409,0.054 -0.461929,0.104 -0.6928935,0.1561 -0.179994,0.1237 -0.3549816,-0.1308 -0.1749876,-0.2546 l 0,0 c 0.1700338,-0.2236 0.3051407,-0.4787 0.5101014,-0.6709 0.5832407,-0.5467 1.6610053,-0.9178 2.4412023,-0.9991 0.31012,-0.032 0.623597,0 0.935395,0 0.830904,0.1546 1.029519,0.1302 1.792201,0.5165 1.1099878,0.5622 1.9448098,1.5032 2.6184328,2.5261 0.399631,0.6914 0.528844,0.8615 0.833032,1.6004 0.445406,1.082 0.693159,2.2367 0.796907,3.3993 0.022,0.7242 0.05424,0.9544 -0.02346,1.674 -0.11396,1.0554 -0.444255,2.0682 -0.999031,2.9746 -0.382309,0.5319 -0.474707,0.7083 -0.941731,1.1689 -0.690087,0.6807 -1.518912,1.1802 -2.4412408,1.4759 -0.604393,0.151 -0.754638,0.2157 -1.37866,0.2633 -0.946586,0.072 -1.891407,-0.075 -2.7875627,-0.3791 -0.5961893,-0.2525 -0.7438049,-0.2845 -1.2902439,-0.6381 -0.82608,-0.5345 -1.4902658,-1.2547 -1.9812645,-2.1055 -0.3004219,-0.6114 -0.3871954,-0.7295 -0.5928466,-1.3851 -0.3208598,-1.0228 -0.4286031,-2.0971 -0.3831249,-3.1652 0.019976,-0.2748 0.029069,-0.5506 0.059929,-0.8245 0.1447427,-1.2843 0.5030478,-2.5435 1.0638959,-3.7073 0.099899,-0.1898 0.1939418,-0.3827 0.299696,-0.5693 0.3253673,-0.5739 0.7193271,-1.1181 1.2096993,-1.5623 0.4287324,-0.5064 1.1449742,0.1 0.7162417,0.6064 z"
       inkscape:connector-curvature="0" />
    <path
       style="fill:#000000;fill-opacity:1;fill-rule:nonzero;stroke:none"
       id="path3264"
       d="m 41.109999,1013.9165 c -0.452821,0.6203 -0.868079,1.2675 -1.281947,1.9145 -0.495262,0.8018 -0.909308,1.65 -1.180225,2.5543 -0.181066,0.6045 -0.189974,0.7467 -0.301785,1.3589 -0.09651,0.7979 -0.05742,1.6088 0.189793,2.3777 0.144821,0.4504 0.219809,0.545 0.441345,0.9555 0.420652,0.6655 0.995806,1.2156 1.725765,1.5279 0.128402,0.055 0.263416,0.093 0.395124,0.1393 0.653902,0.169 1.260014,0.079 1.870898,-0.1952 0.133074,-0.06 0.260571,-0.1309 0.390857,-0.1964 0.735446,-0.431 1.377833,-1.0063 1.887759,-1.6897 0.110917,-0.1487 0.209491,-0.3062 0.314237,-0.4593 0.404622,-0.6661 0.717551,-1.3892 0.918202,-2.143 0.138189,-0.5192 0.14919,-0.6989 0.228564,-1.2334 0.07467,-0.6641 0.05473,-1.3309 -0.04473,-1.9911 -0.06603,-0.4384 -0.152441,-0.863 -0.32141,-1.2751 -0.07522,-0.1835 -0.181702,-0.3525 -0.272554,-0.5288 -0.313687,-0.4435 -0.63913,-0.7406 -1.153872,-0.9335 -0.363434,-0.1362 -0.765042,-0.1972 -1.149673,-0.22 -0.23235,-0.014 -0.465514,0 -0.698271,0 -1.005981,0.058 -0.497454,0.029 -1.52559,0.085 -0.566211,0.2106 -0.864074,-0.5901 -0.297862,-0.8007 l 0,0 c 1.039671,-0.7188 0.481583,-0.4251 1.676568,-0.877 0.823921,-0.1342 1.102234,-0.2442 1.942129,-0.1224 0.948246,0.1375 1.806859,0.5803 2.445014,1.2981 0.196813,0.2214 0.340454,0.4849 0.510681,0.7273 0.122241,0.264 0.261643,0.5206 0.366722,0.7918 0.511269,1.3196 0.589273,2.7509 0.437691,4.145 -0.04065,0.2562 -0.0723,0.514 -0.121956,0.7686 -0.236848,1.2146 -0.687525,2.3737 -1.364987,3.4111 -0.136433,0.1927 -0.265635,0.3908 -0.409298,0.5782 -0.686102,0.8949 -1.531801,1.6572 -2.523255,2.199 -0.509622,0.2445 -0.64877,0.3399 -1.197395,0.4884 -0.851943,0.2307 -1.724114,0.213 -2.568923,-0.039 -0.530091,-0.2023 -0.726506,-0.2483 -1.214443,-0.553 -0.809343,-0.5055 -1.444934,-1.2301 -1.923722,-2.0482 -0.289181,-0.5975 -0.386753,-0.7329 -0.569009,-1.3779 -0.291107,-1.0301 -0.313037,-2.1045 -0.146185,-3.1575 0.05866,-0.2739 0.10318,-0.5512 0.175967,-0.8217 0.286799,-1.0657 0.780353,-2.0886 1.360551,-3.024 0.131639,-0.2122 0.277762,-0.4151 0.416643,-0.6226 0.137377,-0.1801 0.267996,-0.3656 0.41213,-0.5403 0.383412,-0.4649 0.834923,-0.9024 1.350122,-1.221 0.06229,-0.039 0.130002,-0.068 0.195003,-0.1013 0.604893,-0.4351 1.220219,0.4204 0.615327,0.8555 z"
       inkscape:connector-curvature="0" />
    <path
       style="fill:#000000;fill-opacity:1;fill-rule:nonzero;stroke:none"
       id="path3268"
       d="m 8.0416742,1027.7241 c 0.159315,0.6515 0.216724,1.3545 0.271518,2.0438 0.06461,0.9874 0.1103,1.9773 0.147715,2.968 0.03193,0.8929 0.06592,1.7857 0.0926,2.6791 0.02135,0.715 0.06068,1.4276 0.116228,2.1379 0.04845,0.6196 0.09853,1.2388 0.144304,1.8591 0.04644,0.5794 0.08859,1.1596 0.135021,1.739 0.03633,0.4481 0.07771,0.895 0.123352,1.3411 0.03822,0.3446 0.08048,0.6883 0.122685,1.0319 0.03624,0.306 0.05733,0.6155 0.08474,0.9237 0.01198,0.1611 0.01988,0.3228 0.02718,0.4845 0.0021,0.1271 -0.03032,0.2142 -0.07507,0.3149 -0.01863,0.051 -0.01102,0.1176 -0.02963,0.1684 -0.10315,0.2782 -0.409975,0.272 -0.568752,0.3063 0.0034,0.044 -0.03635,0.052 -0.03971,0 l 0,0 c -0.166939,0.016 -0.432682,0.08 -0.593054,-0.084 -0.01159,-0.016 -0.04505,-0.089 -0.0518,-0.1048 -0.06609,-0.083 -0.114434,-0.1541 -0.129986,-0.2898 -0.02589,-0.1621 -0.04233,-0.3276 -0.05746,-0.493 -0.01919,-0.264 -0.04269,-0.5278 -0.07147,-0.7896 -0.04009,-0.3628 -0.09223,-0.722 -0.128636,-1.086 -0.04797,-0.4692 -0.09299,-0.9388 -0.131736,-1.41 -0.05158,-0.5911 -0.100229,-1.1829 -0.141876,-1.776 -0.04566,-0.6188 -0.09169,-1.2376 -0.140119,-1.8559 -0.05537,-0.7707 -0.102101,-1.5439 -0.115729,-2.3197 -0.02255,-0.8938 -0.02657,-1.7882 -0.04377,-2.6822 -0.01715,-0.9835 -0.02384,-1.9673 -0.01799,-2.951 0.0072,-0.6483 0.01227,-1.3003 0.06424,-1.9441 -0.09761,-1.1315 0.909593,-1.3507 1.007202,-0.2192 z"
       inkscape:connector-curvature="0" />
    <path
       style="fill:#000000;fill-opacity:1;fill-rule:nonzero;stroke:none"
       id="path3272"
       d="m 42.21862,1027.0475 c 0.07094,0.6937 0.02414,1.3959 -0.01509,2.0903 -0.05505,0.8685 -0.0993,1.7385 -0.13641,2.6097 -0.03552,0.8305 -0.07525,1.6605 -0.09772,2.4923 -0.02118,0.7137 -0.02475,1.4284 -0.02793,2.1427 0.0019,0.6297 0.0063,1.2592 0.01053,1.8887 0.0018,0.536 0.0036,1.0722 0.0079,1.6084 0.01144,0.5731 0.0112,1.1467 0.0084,1.7202 0.0029,0.5217 -0.0064,1.0434 -0.003,1.5652 -9.31e-4,0.4362 0.02302,0.8707 0.0277,1.3065 0.0034,0.4664 0.0046,0.9324 -0.01017,1.398 -0.0098,0.2144 -0.03061,0.4546 -0.132437,0.6043 -0.05118,0.075 -0.115298,0.1184 -0.172947,0.1787 0.03781,1.079 -0.838375,1.172 -0.876181,0.092 l 0,0 c -0.06121,-0.042 -0.1269,-0.068 -0.183643,-0.1271 -0.116627,-0.1202 -0.155516,-0.3485 -0.181349,-0.561 -0.05054,-0.4531 -0.07929,-0.9111 -0.114047,-1.3684 -0.03777,-0.4877 -0.06156,-0.9788 -0.07902,-1.4701 -0.0075,-0.5368 -0.01088,-1.0739 -0.01092,-1.6109 -0.0047,-0.5623 -0.0079,-1.1248 -0.0063,-1.6871 -0.0044,-0.5498 -0.0061,-1.0997 -0.0022,-1.6497 0.0041,-0.6424 0.008,-1.285 0.01698,-1.9274 0.0078,-0.765 0.02373,-1.5298 0.05474,-2.2932 0.04075,-0.8723 0.07841,-1.7456 0.14693,-2.6132 0.07489,-0.913 0.157754,-1.8255 0.271805,-2.7262 0.08817,-0.6682 0.175227,-1.347 0.366854,-1.9528 0.117157,-1.4008 1.254715,-1.1123 1.137558,0.2885 z"
       inkscape:connector-curvature="0" />
    <path
       style="fill:#000000;fill-opacity:1;fill-rule:nonzero;stroke:none"
       id="path3292"
       d="m 8.3873223,1029.506 c 0.4043217,0.4216 0.7764606,0.8757 1.1371127,1.3351 0.551452,0.7478 1.115925,1.4858 1.670421,2.2314 0.415371,0.5475 0.79399,1.1201 1.143404,1.7112 0.09882,0.1644 0.184744,0.3359 0.28442,0.4998 0.0066,0.011 0.08347,0.1563 0.122418,0.1627 -0.156182,-0.1532 -0.161898,-0.1922 -0.471329,-0.2083 -0.09614,0 -0.185604,0.052 -0.280177,0.07 -0.0086,0 -0.02718,0 -0.02348,-0.012 0.02489,-0.054 0.06602,-0.1 0.09793,-0.1497 0.05619,-0.089 0.11088,-0.1785 0.16632,-0.2677 0.510432,-0.8382 1.03896,-1.6736 1.685589,-2.4158 0.157474,-0.1808 0.327218,-0.3505 0.490826,-0.5259 0.471554,-0.4177 0.562273,-0.5348 1.096448,-0.8648 0.185776,-0.1147 0.372395,-0.2334 0.576483,-0.3112 0.207887,-0.08 0.432717,-0.104 0.649077,-0.1564 0.04413,-0.04 0.101102,0.022 0.05697,0.062 l 0,0 c -0.07026,0.2088 -0.116941,0.427 -0.21077,0.6265 -0.08917,0.1894 -0.217535,0.3581 -0.334406,0.532 -0.281758,0.4191 -0.459841,0.6307 -0.772039,1.0283 -0.717711,0.8982 -1.395501,1.7964 -1.944312,2.8105 -0.149849,0.2494 -0.388047,0.7046 -0.63725,0.8668 -0.372511,0.2425 -0.56055,0.2665 -0.984966,0.1166 -0.09746,-0.034 -0.166128,-0.1229 -0.249193,-0.1842 -0.245359,-0.2838 -0.426536,-0.6088 -0.605592,-0.9372 -0.311679,-0.5507 -0.65736,-1.081 -1.035121,-1.5891 -0.550389,-0.7552 -1.1070977,-1.5059 -1.6413517,-2.2724 -0.3243387,-0.4935 -0.6399027,-0.9967 -0.9107254,-1.5212 -0.4512885,-0.6513 0.4720232,-1.2879 0.9233106,-0.6367 z"
       inkscape:connector-curvature="0" />
    <path
       style="fill:#000000;fill-opacity:1;fill-rule:nonzero;stroke:none"
       id="path3296"
       d="m 42.162775,1029.3765 c 0.04056,0.023 0.08254,0.043 0.121668,0.069 0.05864,0.04 0.35748,0.2748 0.389898,0.3002 0.307481,0.2413 0.60748,0.4954 0.909428,0.7471 0.715361,0.6063 1.421791,1.2287 2.120147,1.8646 0.408214,0.3688 0.808274,0.7533 1.176112,1.183 0.126262,0.14 0.227387,0.3002 0.315131,0.4783 0.02818,0.1155 0.06694,0.2288 0.08454,0.3479 0.02977,0.2015 -0.02627,0.4535 -0.0558,0.6505 -0.134718,1.0076 -0.351461,1.9938 -0.560879,2.9804 -0.151116,0.6344 -0.263616,1.2879 -0.463185,1.9038 -0.08485,0.262 -0.242494,0.6932 -0.429363,0.885 -0.120989,0.1237 -0.275944,0.1862 -0.413916,0.2793 -0.032,0.2188 -0.282188,0.1628 -0.250187,-0.056 l 0,0 c -0.101582,-0.1558 -0.232521,-0.2883 -0.30474,-0.4675 -0.118073,-0.2929 -0.105584,-0.7931 -0.08191,-1.0976 0.05203,-0.6693 0.223503,-1.3147 0.348068,-1.9654 0.199682,-0.9404 0.392538,-1.883 0.575594,-2.8286 0.06112,-0.3975 -3.29e-4,0 0.02893,-0.1921 0.0029,-0.019 0.0022,-0.078 0.0026,-0.059 0.0058,0.3338 -0.01978,0.1183 0.08503,0.54 0.07868,0.1565 0.132976,0.2233 0.0046,0.056 -0.319416,-0.3775 -0.67636,-0.7008 -1.024579,-1.0357 -0.690792,-0.6437 -1.384517,-1.283 -2.061879,-1.9483 -0.292256,-0.2912 -0.586884,-0.5778 -0.865973,-0.8884 -0.07951,-0.088 -0.291139,-0.3297 -0.370924,-0.4403 -0.03715,-0.051 -0.06773,-0.11 -0.101582,-0.1644 -0.652318,-0.7203 0.170984,-1.8617 0.823301,-1.1414 z"
       inkscape:connector-curvature="0" />
    <path
       style="fill:#000000;fill-opacity:1;fill-rule:nonzero;stroke:none"
       id="path3306"
       d="m 41.794951,1029.2512 c -0.01309,0.054 -0.02238,0.1096 -0.03927,0.1606 -0.03503,0.1074 -0.163177,0.4029 -0.200507,0.4845 -0.177163,0.3875 -0.374735,0.7538 -0.574163,1.1199 -0.5277,0.9562 -1.085351,1.8799 -1.619082,2.8297 -0.361804,0.6419 -0.704123,1.3039 -1.01237,1.9967 -0.103549,0.2539 -0.216458,0.5026 -0.302565,0.7692 -0.108542,0.493 -0.409869,0.6188 -0.773129,0.6392 -0.132185,0.012 -0.267241,-0.1182 -0.377702,-0.2083 -0.322899,-0.2742 -0.641762,-0.5572 -0.959702,-0.8421 -0.641969,-0.5965 -1.307904,-1.1399 -1.974855,-1.6813 -0.264428,-0.2394 -0.599857,-0.4139 -0.791744,-0.7821 -0.06705,-0.1285 -0.102733,-0.2831 -0.1541,-0.4246 -0.220967,-0.093 -0.125236,-0.521 0.09573,-0.4284 l 0,0 c 0.105737,-0.076 0.20277,-0.1807 0.31721,-0.2267 0.371914,-0.1495 0.768566,0.071 1.117608,0.2114 0.136841,0.076 0.275964,0.1427 0.410524,0.2252 0.625357,0.3831 1.195243,0.9139 1.775905,1.406 0.318754,0.2751 0.639304,0.5471 0.951819,0.8352 -0.06988,-0.031 -0.193555,-0.088 -0.221677,-0.082 -0.418489,0.057 -0.45041,0.085 -0.660182,0.4544 -0.0095,0.017 -0.01549,0.04 -0.01203,0.062 0.0019,0.012 0.01216,-0.016 0.01824,-0.024 0.123531,-0.2939 0.228359,-0.6024 0.362962,-0.8877 0.339459,-0.7597 0.714151,-1.4875 1.134192,-2.1685 0.557362,-0.9192 1.119457,-1.8332 1.679387,-2.7496 0.20763,-0.34 0.416069,-0.6785 0.634728,-1.0052 0.04509,-0.066 0.210458,-0.3088 0.273257,-0.3829 0.03012,-0.035 0.06464,-0.063 0.09696,-0.095 0.411121,-0.7798 1.215682,0.017 0.80456,0.7968 z"
       inkscape:connector-curvature="0" />
    <path
       style="fill:#000000;fill-opacity:1;fill-rule:nonzero;stroke:none"
       id="path3429"
       d="m 16.799086,1017.851 c 0.02989,0.057 0.06864,0.1097 0.08967,0.1703 0.06154,0.1775 0.114709,0.5427 0.134725,0.7071 0.07628,0.6266 0.06709,1.252 0.0666,1.882 -0.03996,1.6399 -0.105648,3.279 -0.143492,4.919 -0.02744,0.6425 0.0076,1.2881 -0.04874,1.9296 -0.02035,0.2318 -0.06152,0.6177 -0.186753,0.8349 -0.06139,0.1065 -0.164176,0.183 -0.246265,0.2745 0.0075,0.2929 -0.406878,0.3035 -0.414333,0.01 l 0,0 c -0.08658,-0.085 -0.193297,-0.1538 -0.259747,-0.2554 -0.142555,-0.218 -0.203888,-0.6032 -0.233895,-0.8438 -0.08187,-0.6565 -0.05206,-1.3208 -0.05669,-1.9801 0.02979,-1.64 0.08374,-3.279 0.153245,-4.9178 0.02417,-0.6098 0.03303,-1.2213 0.0917,-1.8291 0.01442,-0.1495 0.05389,-0.5175 0.102596,-0.6859 0.01689,-0.058 0.04997,-0.1109 0.07496,-0.1663 -0.03499,-0.6198 0.841427,-0.6692 0.876415,-0.049 z"
       inkscape:connector-curvature="0" />
    <path
       style="fill:#000000;fill-opacity:1;fill-rule:nonzero;stroke:none"
       id="path3453"
       d="m 16.458375,1017.2652 c 0.695318,-0.1289 1.402175,-0.1963 2.104766,-0.2751 1.680367,-0.1997 3.36895,-0.313 5.058429,-0.3984 1.608405,-0.062 3.218537,-0.081 4.82666,-0.01 0.903882,0.042 1.79804,0.1781 2.68793,0.3344 0.381427,0.074 0.768661,0.1277 1.142415,0.2367 0.139957,0.033 0.244656,0.123 0.35709,0.2081 -0.150392,1.0067 0.107273,1.1491 -0.279115,0.8379 -0.291485,0.1584 -0.515603,-0.2538 -0.224118,-0.4123 l 0,0 c -0.271726,-0.3887 -0.08759,-0.1886 -0.201517,0.7906 0.09393,0.072 0.280506,0.1666 0.04871,0.1388 -0.379464,-0.036 -0.75075,-0.1291 -1.126484,-0.1901 -0.821878,-0.1447 -1.649173,-0.2637 -2.483187,-0.3096 -1.559123,-0.078 -3.119988,-0.065 -4.679558,0 -1.664088,0.056 -3.326222,0.1464 -4.985137,0.2916 -0.537587,0.04 -0.582736,0.049 -1.096332,0.069 -0.397722,0.016 -0.807374,0.037 -1.196085,-0.066 -0.884161,-0.032 -0.838627,-1.2826 0.04554,-1.2504 z"
       inkscape:connector-curvature="0" />
    <path
       style="fill:#000000;fill-opacity:1;fill-rule:nonzero;stroke:none"
       id="path3455"
       d="m 32.458761,1017.8775 c 0.04039,0.059 0.08733,0.1133 0.121184,0.176 0.09789,0.1812 0.165405,0.401 0.213644,0.5981 0.122913,0.5023 0.160775,1.0127 0.202475,1.5263 0.08953,1.4714 0.0054,2.945 -0.07786,4.4144 -0.04111,0.5813 -0.05848,1.1659 -0.138263,1.7439 -0.03412,0.2472 -0.07738,0.5126 -0.178281,0.7446 -0.03954,0.091 -0.09973,0.1714 -0.149595,0.2571 -0.323264,0.2891 -0.11886,0.178 -0.651433,0.2503 -0.03473,0.1151 -0.197569,0.066 -0.162844,-0.049 l 0,0 c -0.440786,-0.1967 -0.279473,-0.065 -0.525896,-0.3368 -0.03293,-0.082 -0.07609,-0.1599 -0.09879,-0.245 -0.0631,-0.2364 -0.06837,-0.5027 -0.06876,-0.7437 -9.38e-4,-0.5762 0.05412,-1.151 0.08037,-1.7261 0.07671,-1.4212 0.137574,-2.8433 0.192815,-4.2656 0.0012,-0.033 0.03355,-0.9327 0.03739,-1.0133 0.01216,-0.2552 0.0133,-0.5634 0.0742,-0.8152 0.0094,-0.039 0.02862,-0.075 0.04293,-0.112 -0.285582,-0.7684 0.801131,-1.1723 1.086712,-0.4039 z"
       inkscape:connector-curvature="0" />
    <path
       style="fill:#000000;fill-opacity:1;fill-rule:nonzero;stroke:none"
       id="path3457"
       d="m 16.795202,1027.317 c 0.477867,0.06 0.957995,0.089 1.43912,0.1041 1.129147,0.012 2.256461,-0.092 3.379633,-0.197 1.564576,-0.1776 3.130135,-0.3445 4.695943,-0.5109 1.190694,-0.1209 2.379603,-0.2573 3.567459,-0.4031 0.205173,-0.023 0.418594,-0.05 0.625344,-0.065 0.04815,-0 0.250852,-0.026 0.314866,0.019 0.0687,0.048 0.08179,0.2706 0.08729,0.3038 0.05452,0.082 0.109046,0.1647 0.163568,0.247 0.07119,-0.2384 0.408387,-0.1377 0.337198,0.1007 l 0,0 c 0.04466,0.1154 0.08932,0.2308 0.133982,0.3461 -0.0257,0.1034 -0.03213,0.2136 -0.0771,0.3102 -0.205044,0.4403 -0.933932,0.504 -1.336208,0.5948 -1.203165,0.1743 -2.415305,0.2739 -3.624129,0.4 -1.576066,0.1595 -3.150353,0.3369 -4.729277,0.4669 -1.2174,0.1002 -2.440015,0.1964 -3.661005,0.092 -0.63896,-0.068 -1.295623,-0.1294 -1.871915,-0.4386 -0.968559,-0.3926 -0.413323,-1.7624 0.555236,-1.3698 z"
       inkscape:connector-curvature="0" />
    <path
       style="fill:#000000;fill-opacity:1;fill-rule:nonzero;stroke:none"
       id="path3505"
       d="m 18.635746,1031.5093 c 0.03762,0.612 -0.147205,1.213 -0.338286,1.7867 -0.297516,0.8035 -0.611588,1.6017 -0.950739,2.3887 -0.145957,0.2862 -0.323589,0.7418 -0.670269,0.8466 -0.09928,0.03 -0.206235,0.022 -0.309353,0.033 -0.02531,0.064 -0.116271,0.029 -0.09096,-0.036 l 0,0 c -0.06887,-0.076 -0.152632,-0.1406 -0.206604,-0.2278 -0.195374,-0.3154 -0.01757,-0.7795 0.07242,-1.0947 0.290383,-0.7975 0.629272,-1.5763 0.94355,-2.3646 0.213622,-0.5089 0.437951,-1.0185 0.728183,-1.4887 0.110382,-0.5812 0.932446,-0.4251 0.822064,0.1561 z"
       inkscape:connector-curvature="0" />
    <path
       style="fill:#000000;fill-opacity:1;fill-rule:nonzero;stroke:none"
       id="path3523"
       d="m 30.887014,1031.1257 c 0.155937,0.5931 0.313054,1.1854 0.460258,1.7807 0.08591,0.3702 0.202179,0.732 0.307729,1.0967 0.0449,0.1552 0.128765,0.4364 0.135608,0.6045 0.0038,0.092 -0.01753,0.1844 -0.0263,0.2766 -0.05924,0.096 -0.118488,0.1929 -0.177732,0.2893 0.108606,0.2988 -0.314006,0.4524 -0.422613,0.1536 l 0,0 c -0.107764,-0.037 -0.215528,-0.074 -0.323292,-0.1111 -0.06677,-0.069 -0.144239,-0.1297 -0.200307,-0.2079 -0.11139,-0.1553 -0.217691,-0.4407 -0.276578,-0.6144 -0.134268,-0.3961 -0.230412,-0.8052 -0.319393,-1.2133 -0.05724,-0.3232 -0.101083,-0.5234 -0.12626,-0.8498 -0.03085,-0.4001 -0.0163,-0.8083 0.04219,-1.2049 0,-0.6552 0.926686,-0.6552 0.926686,0 z"
       inkscape:connector-curvature="0" />
    <path
       style="fill:#000000;fill-opacity:1;fill-rule:nonzero;stroke:none"
       id="path3527"
       d="m 18.421308,1031.0214 c 0.466964,-0.1597 0.96139,-0.2219 1.448994,-0.2835 0.864121,-0.098 1.730928,-0.1686 2.59758,-0.2393 1.127109,-0.099 2.258118,-0.1261 3.388886,-0.1392 0.951815,-0.01 1.90429,-0.028 2.85568,0.01 0.109882,0.01 0.455864,0.033 0.579899,0.055 0.06818,0.012 0.134105,0.035 0.200912,0.053 0.04925,0.014 0.100556,0.022 0.147232,0.042 0.0732,0.033 0.115807,0.081 0.170963,0.1342 0.09596,0.097 0.08947,0.2042 0.09028,0.3341 0.02759,0.01 0.01875,0.045 -0.0088,0.039 l 0,0 c -0.0087,0.1174 0.0038,0.2384 -0.08264,0.3288 -0.05517,0.053 -0.09781,0.1014 -0.170959,0.1336 -0.04664,0.021 -0.09789,0.028 -0.147089,0.042 -0.06674,0.018 -0.132612,0.04 -0.200711,0.053 -0.122422,0.022 -0.47097,0.046 -0.578936,0.054 -0.945596,0.037 -1.89226,0.017 -2.838333,0.032 -1.110621,0.017 -2.221294,0.036 -3.331462,0.072 -0.853735,0.033 -1.70743,0.071 -2.55991,0.1285 -0.455894,0.032 -0.911758,0.072 -1.368316,0.091 -0.664871,0.1366 -0.858111,-0.8036 -0.19324,-0.9403 z"
       inkscape:connector-curvature="0" />
    <path
       style="fill:#000000;fill-opacity:1;fill-rule:nonzero;stroke:none"
       id="path3529"
       d="m 16.664132,1037.2244 c 0.35919,-0.1 0.7198,-0.2001 1.084011,-0.2805 0.761227,-0.1447 1.530705,-0.2391 2.297524,-0.3483 1.328346,-0.1669 2.656826,-0.3309 3.987634,-0.4771 1.461356,-0.1469 2.927129,-0.2332 4.395068,-0.2707 0.467705,-0.01 0.935786,0.011 1.40235,0.044 0.244473,0.017 0.487072,0.046 0.731899,0.057 0.05279,0.015 0.30374,-0.022 0.343346,0.031 0.01174,0.016 0.01579,0.036 0.02369,0.054 0.02816,0.1404 0.01515,0.058 0.0307,0.2487 0.29166,0 0.297557,0.4083 0.0059,0.4125 l 0,0 c -0.0041,0.1908 0.0017,0.1078 -0.01192,0.2495 -0.005,0.018 -0.006,0.038 -0.01499,0.055 -0.02844,0.053 -0.297876,0.039 -0.343531,0.055 -0.246127,0.026 -0.489855,0.067 -0.735664,0.096 -0.458434,0.054 -0.918971,0.091 -1.379833,0.1161 -1.436147,0.069 -2.872167,0.1516 -4.303024,0.2957 -1.33585,0.1196 -2.670006,0.2599 -4.007735,0.3574 -0.771404,0.035 -1.543025,0.068 -2.315195,0.081 -0.396746,-0.01 -0.80187,-0.022 -1.190226,-0.1071 -0.472787,0 -0.472787,-0.6686 0,-0.6686 z"
       inkscape:connector-curvature="0" />
    <path
       style="fill:#000000;fill-opacity:1;fill-rule:nonzero;stroke:none"
       id="path3531"
       d="m 20.034059,1031.758 c 0.08986,0.6005 -0.05504,1.2129 -0.168473,1.801 -0.180837,0.7912 -0.3297,1.5914 -0.552173,2.3723 -0.129443,0.3155 -0.0527,0.1727 -0.222539,0.4326 -0.03406,0.189 -0.301386,0.1408 -0.267322,-0.048 l 0,0 c -0.06745,-0.3097 -0.04746,-0.1452 -0.04994,-0.4947 0.01373,-0.1075 0.02368,-0.2155 0.04119,-0.3224 0.113787,-0.6944 0.319766,-1.3716 0.452873,-2.0621 0.1169,-0.5377 0.234143,-1.0755 0.319408,-1.6193 -0.04187,-0.316 0.405101,-0.3752 0.446974,-0.059 z"
       inkscape:connector-curvature="0" />
    <path
       style="fill:#000000;fill-opacity:1;fill-rule:nonzero;stroke:none"
       id="path3533"
       d="m 21.84073,1031.7183 c 0.109823,0.6302 0.133877,1.2689 0.135115,1.9072 -0.0177,0.5614 0.0073,1.1397 -0.139842,1.6882 -0.03334,0.1243 -0.08661,0.2423 -0.12992,0.3634 -0.0088,0.142 -0.209656,0.1296 -0.200862,-0.012 l 0,0 c -0.0281,-0.1246 -0.06545,-0.2473 -0.08429,-0.3736 -0.08236,-0.5518 -0.01059,-1.1142 -0.01473,-1.6682 0.007,-0.6246 0.02176,-1.2486 0.04765,-1.8726 -0.02259,-0.2736 0.364287,-0.3056 0.38688,-0.032 z"
       inkscape:connector-curvature="0" />
    <path
       style="fill:#000000;fill-opacity:1;fill-rule:nonzero;stroke:none"
       id="path3535"
       d="m 24.06392,1031.7207 c 0.140521,0.6284 0.146876,1.2868 0.177034,1.9316 0.0072,0.6091 0.06953,1.2264 -0.0081,1.8336 -0.01749,0.1369 -0.05147,0.2702 -0.0772,0.4053 0.01417,0.2321 -0.273251,0.255 -0.287425,0.023 l 0,0 c -0.04207,-0.1324 -0.09379,-0.2613 -0.126195,-0.3972 -0.142844,-0.599 -0.117779,-1.2302 -0.141915,-1.8436 -0.0022,-0.6392 -0.01894,-1.2848 0.05688,-1.9194 -0.02062,-0.3286 0.386325,-0.3619 0.406948,-0.033 z"
       inkscape:connector-curvature="0" />
    <path
       style="fill:#000000;fill-opacity:1;fill-rule:nonzero;stroke:none"
       id="path3537"
       d="m 26.284093,1031.7105 c 0.133263,0.7402 0.218754,1.491 0.305165,2.2398 0.03526,0.3201 0.07449,0.6025 0.07853,0.9254 0.0018,0.1428 0.0089,0.2881 -0.01562,0.4283 -0.02498,0.1425 -0.08752,0.2734 -0.131288,0.4101 0.0028,0.018 -0.01939,0.022 -0.02216,0 l 0,0 c -0.08319,-0.1143 -0.184426,-0.2147 -0.249567,-0.343 -0.06431,-0.1266 -0.09728,-0.2709 -0.133311,-0.411 -0.08307,-0.3231 -0.10658,-0.5948 -0.148615,-0.927 -0.08072,-0.7609 -0.15669,-1.5304 -0.120034,-2.2975 -0.01851,-0.3474 0.418392,-0.3768 0.4369,-0.029 z"
       inkscape:connector-curvature="0" />
    <path
       style="fill:#000000;fill-opacity:1;fill-rule:nonzero;stroke:none"
       id="path3539"
       d="m 28.363187,1032.0119 c 0.157994,0.675 0.186639,1.374 0.244088,2.063 0.01803,0.2682 0.05527,0.5809 0.01064,0.8504 -0.02244,0.1355 -0.07719,0.2637 -0.115791,0.3955 0.02102,0.1431 -0.181357,0.1728 -0.202375,0.03 l 0,0 c -0.07547,-0.1191 -0.168348,-0.2289 -0.226395,-0.3575 -0.125594,-0.2782 -0.141964,-0.5609 -0.182734,-0.8575 -0.0595,-0.6945 -0.123335,-1.4008 -0.02697,-2.0947 -0.02042,-0.3532 0.479112,-0.3821 0.499533,-0.029 z"
       inkscape:connector-curvature="0" />
    <path
       style="fill:#000000;fill-opacity:1;fill-rule:nonzero;stroke:none"
       id="path3545"
       d="m 18.895594,1032.6087 c 0.596514,-0.044 1.196161,-0.034 1.79395,-0.033 1.201558,-0.01 2.403113,-0.01 3.604631,-0.019 0.935588,-0 1.871346,-0.03 2.806986,-0.015 0.341771,0.01 0.844476,0.026 1.191225,0.039 0.434302,0.014 0.869786,0.021 1.302853,0.06 0.218034,0.02 0.329963,0.019 0.520823,0.1188 0.05658,0.029 0.102943,0.075 0.154415,0.113 0.01583,0 0.01359,0.024 -0.0022,0.022 l 0,0 c -0.05609,0.027 -0.109249,0.061 -0.168272,0.081 -0.206962,0.069 -0.291168,0.052 -0.516441,0.055 -0.428681,0.01 -0.857425,0.01 -1.28576,0.03 -1.331854,0.08 -2.664876,0.1259 -3.99933,0.1292 -1.206368,0 -2.413078,0 -3.618931,-0.038 -0.601653,-0.019 -1.206256,-0.039 -1.80133,-0.1371 -0.287452,-0.012 -0.270028,-0.4188 0.01742,-0.4065 z"
       inkscape:connector-curvature="0" />
    <path
       style="fill:#000000;fill-opacity:1;fill-rule:nonzero;stroke:none"
       id="path3547"
       d="m 18.260566,1033.9444 c 0.465533,-0.08 0.942276,-0.077 1.413317,-0.092 1.022557,-0.031 2.044988,-0.064 3.067186,-0.1059 1.284505,-0.059 2.569724,-0.097 3.855474,-0.1116 0.800143,0.013 1.611183,-0 2.405107,0.1194 0.104671,0.016 0.2076,0.042 0.3114,0.063 0.313742,0.098 0.16862,0.045 0.436931,0.1529 0.02406,0 0.02193,0.035 -0.0021,0.034 l 0,0 c -0.274416,0.073 -0.127325,0.036 -0.441764,0.1089 -0.891549,0.1393 -1.79834,0.1564 -2.698602,0.1872 -1.280812,0.028 -2.561498,0.06 -3.841632,0.1112 -1.030225,0.035 -2.061677,0.075 -3.092461,0.04 -0.472111,-0.016 -0.950616,-0.013 -1.416451,-0.098 -0.28926,-0 -0.285631,-0.4117 0.0036,-0.4091 z"
       inkscape:connector-curvature="0" />
    <path
       style="fill:#000000;fill-opacity:1;fill-rule:nonzero;stroke:none"
       id="path3549"
       d="m 18.462878,1035.1975 c 0.573643,-0.1017 1.157026,-0.14 1.736996,-0.1891 1.225342,-0.1006 2.452606,-0.1736 3.679568,-0.251 1.129559,-0.048 2.264887,-0.1728 3.396125,-0.088 0.177375,0.013 0.35346,0.04 0.53019,0.061 0.150644,0.039 0.301288,0.079 0.451932,0.1179 0.03885,-0 0.0411,0.053 0.0022,0.055 l 0,0 c -0.146276,0.052 -0.292553,0.1029 -0.438829,0.1544 -0.173074,0.037 -0.345055,0.079 -0.519223,0.1097 -1.115029,0.198 -2.252672,0.2251 -3.379176,0.3115 -1.227646,0.07 -2.455237,0.1405 -3.684202,0.183 -0.586853,0.02 -1.178204,0.057 -1.763902,0 -0.329602,0.01 -0.34133,-0.4579 -0.01173,-0.4662 z"
       inkscape:connector-curvature="0" />
    <path
       style="fill:#000000;fill-opacity:1;fill-rule:nonzero;stroke:none"
       id="path3551"
       d="m 22.939297,1028.8808 c 0.0296,0.5181 -0.09527,1.0229 -0.23264,1.5176 -0.08395,0.2898 -0.196532,0.5763 -0.362153,0.8304 -0.0464,0.071 -0.09217,0.1452 -0.154899,0.2025 -0.06139,0.056 -0.141002,0.088 -0.211503,0.1324 -0.04989,0.1358 -0.24188,0.065 -0.191993,-0.071 l 0,0 c -0.02536,-0.079 -0.06479,-0.1543 -0.07608,-0.2362 -0.01134,-0.082 6.71e-4,-0.1664 0.0092,-0.2491 0.02944,-0.2844 0.109225,-0.563 0.19608,-0.8341 0.133196,-0.4585 0.248646,-0.9228 0.404652,-1.3743 0.05754,-0.438 0.676849,-0.3566 0.619311,0.081 z"
       inkscape:connector-curvature="0" />
    <path
       style="fill:#000000;fill-opacity:1;fill-rule:nonzero;stroke:none"
       id="path3555"
       d="m 25.561001,1028.7736 c 0.01577,0.037 0.03471,0.073 0.04732,0.1108 0.02808,0.085 0.0755,0.3 0.09189,0.3773 0.05137,0.2421 0.09665,0.4852 0.149419,0.727 0.02072,0.1712 0.145212,0.4079 0.135917,0.5816 -0.0029,0.054 -0.02883,0.1052 -0.04324,0.1578 0.199786,0.3631 -0.313766,0.6456 -0.513552,0.2825 l 0,0 c -0.06708,-0.043 -0.145312,-0.073 -0.201238,-0.1295 -0.169797,-0.1726 -0.21418,-0.4792 -0.277853,-0.6992 -0.092,-0.4352 -0.182981,-0.8913 -0.117515,-1.3363 -0.05093,-0.5154 0.677923,-0.5874 0.728855,-0.072 z"
       inkscape:connector-curvature="0" />
    <path
       style="fill:#000000;fill-opacity:1;fill-rule:nonzero;stroke:none"
       id="path4588"
       d="m 8.2644017,28.262027 c -0.0019,0.05139 0.00217,0.103345 -0.00569,0.154162 -0.02259,0.145867 -0.084256,0.305164 -0.1391798,0.438935 -0.1302358,0.317202 -0.2978628,0.613771 -0.4625643,0.913831 -0.3789059,0.661094 -0.7829572,1.307885 -1.2143283,1.935975 -0.20044,0.305141 -0.413092,0.601771 -0.6257878,0.898348 -0.03628,0.04 -0.2008067,0.270457 -0.045453,0.05222 0.034078,-0.118453 0.068157,-0.236906 0.102235,-0.355359 -0.00916,-0.02599 -0.010971,-0.0386 -0.015639,0.04079 -0.0086,0.146187 0.00993,0.302586 0.014557,0.448093 0.03767,0.86344 0.028172,1.728839 0.016636,2.592871 -0.023182,0.848751 -0.0106,1.717212 -0.231534,2.544885 -0.039889,0.149436 -0.097174,0.293677 -0.1457616,0.440516 -0.080943,0.132461 -0.1618869,0.264921 -0.2428304,0.397382 -0.039943,0.457915 -0.687533,0.401427 -0.6475899,-0.05649 l 0,0 C 4.5643174,38.567873 4.5071675,38.42756 4.4500176,38.287247 4.4237065,38.138574 4.3897918,37.991048 4.3710841,37.841228 4.2683526,37.01851 4.3623,36.186282 4.3646993,35.361434 c 0.011491,-0.851799 -0.0015,-1.703677 0.017539,-2.555249 0.00122,-0.140836 0.01857,-0.298159 0.00481,-0.4396 -0.00405,-0.04168 -0.029068,-0.0525 -0.018434,-0.09956 0.028225,-0.124901 0.068374,-0.246805 0.1025616,-0.370208 0.069036,-0.09793 0.056705,-0.07743 0.1207926,-0.172334 0.2067931,-0.2881 0.4040106,-0.583164 0.6133688,-0.869495 0.4132396,-0.601443 0.8304959,-1.200347 1.2145319,-1.821275 0.1790502,-0.278425 0.3528989,-0.559774 0.5535557,-0.823456 0.076976,-0.101154 0.1904335,-0.247065 0.2907684,-0.333043 0.036958,-0.03167 0.081088,-0.05385 0.1216314,-0.08078 0.3292235,-0.621246 1.2077976,-0.155654 0.8785742,0.465592 z"
       inkscape:connector-curvature="0"
       transform="translate(0,1002.3622)" />
  </g>
</svg>
