<svg xmlns="http://www.w3.org/2000/svg" width="100%" height="100%" viewBox="0 0 571 305"><style>.nfa-text {font-family:'Roboto',sans-serif;font-size: 20px;}</style><circle cx="102" cy="179.887" r="30" fill="none" stroke="#000"/><text x="97" y="185.887" class="nfa-text">1</text><circle cx="279" cy="94.887" r="30" fill="none" stroke="#000"/><text x="274" y="100.887" class="nfa-text">2</text><circle cx="279" cy="262.887" r="30" fill="none" stroke="#000"/><text x="274" y="268.887" class="nfa-text">3</text><circle cx="484" cy="94.887" r="30" fill="none" stroke="#000"/><text x="479" y="100.887" class="nfa-text">4</text><circle cx="484" cy="262.887" r="30" fill="none" stroke="#000"/><text x="479" y="268.887" class="nfa-text">5</text><path d="M82.761 157.02a22.5 22.5 0 1 1 25.686-6.312" fill="none" stroke="#000"/><text x="75" y="104.887" class="nfa-text">a</text><path d="M108.447 150.708l7.651-5.52-9.26-3.776z"/><path d="M126.67 162.824a532.101 532.101 0 0 1 123.589-59.35" fill="none" stroke="#000"/><path d="M250.259 103.474l-9.163-2.244 3.131 9.498z"/><text x="173" y="119.887" class="nfa-text">a</text><path d="M490.384 124.189a326.095 326.095 0 0 1 0 109.396" fill="none" stroke="#000"/><path d="M490.384 233.585l6.272-7.048-9.859-1.677z"/><text x="500" y="184.887" class="nfa-text">a</text><path d="M265.775 68.09a22.5 22.5 0 1 1 26.45 0" fill="none" stroke="#000"/><text x="274" y="18.887" class="nfa-text">b</text><path d="M292.225 68.09l8.748-3.533-8.091-5.878z"/><path d="M455.119 270.966a327.218 327.218 0 0 1-147.238 0" fill="none" stroke="#000"/><path d="M455.119 270.966l-8.92-3.072 2.25 9.744z"/><text x="377" y="299.887" class="nfa-text">b</text><path d="M249.948 255.427a446.455 446.455 0 0 1-123.634-57.975" fill="none" stroke="#000"/><path d="M249.948 255.427l-6.272-7.047-2.811 9.597z"/><text x="171" y="251.887" class="nfa-text">b</text><path d="M269.051 234.612a211.007 211.007 0 0 1 0-111.45" fill="none" stroke="#000"/><path d="M269.051 123.162l-6.936 6.396 9.645 2.64z"/><text x="248" y="184.887" class="nfa-text">a</text><path d="M305.32 109.277a636.468 636.468 0 0 1 159.399 130.63" fill="none" stroke="#000"/><path d="M464.719 239.907l-1.531-9.31-7.507 6.607z"/><text x="395" y="158.887" class="nfa-text">a</text><path d="M510.797 249.662a22.5 22.5 0 1 1 0 26.45" fill="none" stroke="#000"/><text x="557" y="268.887" class="nfa-text">b</text><path d="M510.797 276.112l3.533 8.748 5.878-8.091z"/><path d="M308.286 88.412a407.226 407.226 0 0 1 146.428 0" fill="none" stroke="#000"/><path d="M454.714 88.412l-6.971-6.357-1.797 9.837z"/><text x="377" y="72.887" class="nfa-text">b</text><path stroke="#000" d="M72 179.887H5z"/><path d="M72 179.887l-8-5v10z"/><path d="M454.704 101.316a410.13 410.13 0 0 1-146.408 0" fill="none" stroke="#000"/><path d="M308.296 101.316l6.979 6.348 1.785-9.84z"/><text x="377" y="128.887" class="nfa-text">a</text><path d="M308.393 256.909a440.832 440.832 0 0 1 146.214 0" fill="none" stroke="#000"/><path d="M308.393 256.909l8.718 3.604-1.658-9.861z"/><text x="377" y="241.887" class="nfa-text">a</text><path d="M287.034 123.774a260.032 260.032 0 0 1 0 110.226" fill="none" stroke="#000"/><path d="M287.034 123.774l-3.191 8.878 9.773-2.12z"/><text x="298" y="184.887" class="nfa-text">b</text><path d="M510.797 81.662a22.5 22.5 0 1 1 0 26.45" fill="none" stroke="#000"/><text x="557" y="100.887" class="nfa-text">b</text><path d="M510.797 108.112l3.533 8.748 5.878-8.091z"/></svg>
