<?xml version="1.0" encoding="UTF-8" standalone="no"?>
<!-- Created with Inkscape (http://www.inkscape.org/) -->

<svg
   xmlns:dc="http://purl.org/dc/elements/1.1/"
   xmlns:cc="http://creativecommons.org/ns#"
   xmlns:rdf="http://www.w3.org/1999/02/22-rdf-syntax-ns#"
   xmlns:svg="http://www.w3.org/2000/svg"
   xmlns="http://www.w3.org/2000/svg"
   xmlns:sodipodi="http://sodipodi.sourceforge.net/DTD/sodipodi-0.dtd"
   xmlns:inkscape="http://www.inkscape.org/namespaces/inkscape"
   width="1404.4307"
   height="324.03693"
   id="svg2"
   version="1.1"
   inkscape:version="0.48.4 r9939"
   sodipodi:docname="scales.svg"
   inkscape:export-filename="C:\Users\jrm219\Google Drive\Work\CS Field Guide Website\Interactive Prototypes\Sorting Prototype\Textures\scales.png"
   inkscape:export-xdpi="97.213768"
   inkscape:export-ydpi="97.213768">
  <defs
     id="defs4">
    <inkscape:perspective
       sodipodi:type="inkscape:persp3d"
       inkscape:vp_x="-25.728252 : 170.12408 : 1"
       inkscape:vp_y="0 : 1000 : 0"
       inkscape:vp_z="1075.6115 : 155.11594 : 1"
       inkscape:persp3d-origin="537.80573 : 103.41062 : 1"
       id="perspective3152" />
  </defs>
  <sodipodi:namedview
     id="base"
     pagecolor="#ffffff"
     bordercolor="#666666"
     borderopacity="1.0"
     inkscape:pageopacity="0.0"
     inkscape:pageshadow="2"
     inkscape:zoom="0.69962001"
     inkscape:cx="804.84978"
     inkscape:cy="179.7106"
     inkscape:document-units="px"
     inkscape:current-layer="layer1"
     showgrid="false"
     showborder="true"
     inkscape:window-width="1920"
     inkscape:window-height="1028"
     inkscape:window-x="-8"
     inkscape:window-y="-8"
     inkscape:window-maximized="1"
     fit-margin-top="0"
     fit-margin-left="0"
     fit-margin-right="0"
     fit-margin-bottom="0"
     showguides="true"
     inkscape:guide-bbox="true" />
  <metadata
     id="metadata7">
    <rdf:RDF>
      <cc:Work
         rdf:about="">
        <dc:format>image/svg+xml</dc:format>
        <dc:type
           rdf:resource="http://purl.org/dc/dcmitype/StillImage" />
        <dc:title></dc:title>
      </cc:Work>
    </rdf:RDF>
  </metadata>
  <g
     inkscape:label="Layer 1"
     inkscape:groupmode="layer"
     id="layer1"
     transform="translate(236.97223,-724.99005)">
    <path
       style="fill:#d40000;fill-opacity:1;stroke:none"
       id="path3256"
       d="m -201.82907,971.23167 c 57.24816,-1.51627 114.531013,-1.56816 171.803871,-1.6138 68.23794,0.34714 136.476639,0.58656 204.715649,0.75201 77.22327,0.2299 154.44417,0.72806 231.66751,0.92808 78.59477,0.50301 157.19322,0.66967 235.79057,0.63518 70.91619,-0.0166 141.83376,-0.26168 212.74802,-0.70142 58.0515,-0.22163 116.1029,-0.49187 174.15525,-0.46923 40.7334,0.0835 81.4865,0.12468 122.1871,1.54502 25.2904,2.11316 17.4758,18.35575 0.5303,20.15037 -5.2637,0.35359 -10.5192,0.79413 -15.7911,1.06079 -35.5736,1.79937 -71.2814,1.14296 -106.8974,1.54806 -58.02795,0.10953 -116.05605,0.152 -174.08385,0.29128 -70.95373,-0.0696 -141.9072,0.0323 -212.86083,0.0198 -38.84644,-0.0431 -77.6953,-0.002 -116.54122,-0.0837 -241.965,-1.51733 -504.991199,-0.93977 -726.13093,-0.59939 -40.97291,2.44022 -55.13639,-23.41672 -1.29294,-23.46308 z"
       inkscape:connector-curvature="0"
       sodipodi:nodetypes="cccccccccscccccc"
       inkscape:export-filename="C:\Users\jrm219\Google Drive\Work\CS Field Guide Website\Interactive Prototypes\Sorting Prototype\Textures\scales.png"
       inkscape:export-xdpi="97.211143"
       inkscape:export-ydpi="97.211143" />
    <rect
       style="fill:#d40000;fill-opacity:1;stroke:none"
       id="rect3258"
       width="363.85242"
       height="129.36975"
       x="283.31686"
       y="919.65723"
       inkscape:export-filename="C:\Users\jrm219\Google Drive\Work\CS Field Guide Website\Interactive Prototypes\Sorting Prototype\Textures\scales.png"
       inkscape:export-xdpi="97.211143"
       inkscape:export-ydpi="97.211143" />
    <g
       id="g3260"
       transform="translate(9.6043559e-6,0)"
       inkscape:export-filename="C:\Users\jrm219\Google Drive\Work\CS Field Guide Website\Interactive Prototypes\Sorting Prototype\Textures\scales.png"
       inkscape:export-xdpi="97.211143"
       inkscape:export-ydpi="97.211143">
      <path
         transform="translate(-69.996607,728.91785)"
         sodipodi:nodetypes="ccccccccccccccccc"
         inkscape:connector-curvature="0"
         id="path3216"
         d="m 377.70503,219.11098 142.22007,83.61682 35.29636,0.21065 106.81168,-66.16793 70.31065,-31.29748 57.37061,-19.95172 -15.08853,-54.2853 -32.7946,-61.1345 L 700.72663,36.293496 649.66884,14.641113 575.3123,0.77817499 499.91423,2.564859 442.02566,16.858332 363.7689,58.309405 305.52299,123.70204 281.58142,183.73463 z"
         style="fill:#fff6d5;stroke:#000000;stroke-width:1px;stroke-linecap:butt;stroke-linejoin:miter;stroke-opacity:1" />
      <path
         sodipodi:nodetypes="ccccccccc"
         inkscape:connector-curvature="0"
         d="m 444.95708,1031.0207 c 3.28233,-2.4199 6.63559,-2.7633 9.96336,-3.2674 6.53071,-0.8016 13.06523,-0.8011 19.59831,-0.7055 5.0048,0.2259 10.0168,-0.2822 15.0158,0.8712 3.11389,1.9867 1.48116,6.6899 -2.21034,7.109 -6.51732,-0.066 -25.84727,0.8911 -32.36461,0.9787 -3.31214,-0.012 -6.63116,0.1047 -9.93604,-0.8973 -0.73176,0.1858 -0.79824,-3.9034 -0.0665,-4.0892 z"
         id="path3066"
         style="fill:#ff2a2a;fill-opacity:1;stroke:none" />
      <path
         inkscape:connector-curvature="0"
         d="m 444.74325,1034.5069 c -6.7882,-4.2657 -13.5424,-8.5947 -20.28954,-12.9331 -15.93723,-10.2935 -32.12426,-20.1648 -48.29571,-30.0584 -19.89443,-11.77305 -39.79725,-23.58663 -60.36755,-34.06918 -4.15313,-2.11642 -8.35702,-4.12427 -12.53555,-6.18642 -21.79422,-10.66939 -44.84777,-17.94061 -67.89072,-24.99844 -6.45429,-2.18573 -10.82413,-3.38076 -16.86925,-6.4856 -2.28035,-1.17122 -4.39418,-2.66102 -6.59127,-3.99152 -3.11138,-0.99504 -1.78953,-5.49625 1.32185,-4.50122 l 0,0 c 2.46178,0.15946 4.93144,0.20945 7.3854,0.47833 7.31518,0.80153 10.29727,1.67131 17.65447,3.27993 8.89833,2.31858 12.25342,3.08698 21.19849,5.86791 16.71137,5.19537 33.05432,11.62894 48.92323,19.15459 4.28968,2.10309 8.61264,4.13489 12.86902,6.30931 20.8053,10.62856 40.79024,22.88148 60.56012,35.414 16.12788,10.13743 32.17369,20.41091 48.21071,30.70051 6.82376,4.5259 13.62374,9.1196 19.87011,14.4763 5.23717,3.8006 0.0832,11.3436 -5.15381,7.543 z"
         id="path3070"
         style="fill:#ff2a2a;fill-opacity:1;stroke:none" />
      <path
         sodipodi:nodetypes="cccscccccscsccccc"
         inkscape:connector-curvature="0"
         d="m 489.58368,1033.7557 c 6.70313,-4.1098 13.37269,-8.2805 20.03528,-12.4603 15.73751,-9.9172 31.72169,-19.4276 47.69048,-28.95955 19.64512,-11.34264 39.29853,-22.72434 59.61105,-32.82366 4.10108,-2.03905 8.25229,-3.9735 12.37845,-5.96026 21.52111,-10.27933 44.28576,-17.28473 67.03994,-24.08453 6.37341,-2.10583 11.38334,-3.69935 17.1632,-5.99582 8.71299,-3.52972 11.53866,-12.02028 -0.51035,-9.67965 -7.034,1.53025 -12.12646,2.81041 -19.5178,4.86557 -8.78682,2.23382 -12.09987,2.97413 -20.93284,5.65339 -16.50195,5.00544 -32.64009,11.20381 -48.31014,18.45433 -4.23592,2.02621 -8.50471,3.98373 -12.70775,6.07865 -20.54457,10.24 -40.27907,22.04497 -59.8012,34.11932 -15.92577,9.76683 -31.7705,19.66471 -47.60655,29.57821 -6.73825,4.3604 -13.45301,8.7862 -19.6211,13.947 -5.17154,3.6617 -0.0822,10.9289 5.08922,7.2673 z"
         id="path3070-0"
         style="fill:#ff2a2a;fill-opacity:1;stroke:none" />
      <path
         transform="translate(-69.996607,728.91785)"
         sodipodi:nodetypes="ccccscscscscscscscscsccccccscscscscscscscscsccccc"
         inkscape:connector-curvature="0"
         d="m 279.00642,182.13813 c 0.3237,-5.06643 1.82353,-10.01393 3.2865,-14.85171 2.986,-9.43175 7.20429,-18.38479 11.59754,-27.22456 6.27366,-12.35919 14.14106,-23.78221 22.21175,-35.01302 8.01314,-10.827095 16.67572,-21.199462 26.15638,-30.777173 1.97277,-1.992965 4.01709,-3.91381 6.02563,-5.870715 10.62238,-9.937477 22.21068,-18.81004 34.37128,-26.780877 2.56454,-1.680962 5.18459,-3.275674 7.77688,-4.91351 10.97549,-6.634004 22.32451,-12.690123 34.12668,-17.728303 7.84737,-3.349929 10.64605,-4.199583 18.69794,-7.054784 12.97745,-4.2649104 26.27253,-7.543247 39.7149,-9.9609617 8.66348,-1.55819566 12.05742,-1.91622114 20.79278,-3.0917356 14.20536,-1.6286806 28.49454,-2.6731056 42.79741,-2.7849315 9.34,-0.073024 12.29454,0.1536058 21.62101,0.5212076 17.72944,0.9893967 35.39436,3.20737378 52.78776,6.7967173 3.40632,0.7029367 6.7903,1.5101094 10.18545,2.2651641 16.02786,3.8718672 31.9045,8.5912038 47.13635,14.9518188 2.78731,1.16394 5.52251,2.448919 8.28376,3.673378 10.10763,4.73535 19.82209,10.326893 28.78067,16.999646 5.56656,4.14623 6.92849,5.526245 12.12665,10.090687 9.38329,8.695202 17.80459,18.406091 25.08798,28.923357 1.42428,2.056677 2.7575,4.174948 4.13625,6.262423 8.16341,12.680598 14.20395,26.514162 19.7206,40.499602 5.08874,13.27494 10.93999,39.29904 14.41603,53.07369 2.98997,6.68107 -4.21049,20.2055 -11.0629,-10.07372 -3.31797,-13.40561 -7.11746,-26.69636 -12.03583,-39.61447 -5.17496,-13.4329 -10.80066,-26.75275 -18.51838,-38.960243 -3.3888,-5.16478 -4.36407,-6.832426 -8.08768,-11.778807 -5.85425,-7.77667 -12.41604,-15.008746 -19.5616,-21.617201 -4.92988,-4.343215 -6.10233,-5.549309 -11.37863,-9.500413 -8.46722,-6.340594 -17.64037,-11.676903 -27.22662,-16.135903 -7.07448,-3.103788 -9.09541,-4.102221 -16.39926,-6.845921 -12.18002,-4.575445 -24.68947,-8.233838 -37.34257,-11.244125 -3.30999,-0.728039 -6.60966,-1.504667 -9.92996,-2.184115 C 602.33709,8.7172226 585.1279,6.4343815 567.83762,5.472621 564.33016,5.3375503 560.8244,5.1465059 557.31523,5.0674088 539.82779,4.6732406 522.31917,5.6094317 504.95221,7.6632414 c -3.40094,0.4610512 -6.80925,0.8705585 -10.2028,1.3831538 -16.43858,2.4830498 -32.73844,6.0516268 -48.54667,11.2312718 -3.04229,1.06644 -6.10815,2.067891 -9.12688,3.19932 -14.63456,5.485087 -28.69124,12.442588 -42.06464,20.517351 -6.46803,4.040405 -8.59048,5.259096 -14.83358,9.580882 -9.16114,6.341787 -17.90706,13.295753 -26.12855,20.815647 -5.14944,4.893445 -6.65791,6.197494 -11.53695,11.349041 -7.15268,7.552169 -13.73764,15.623262 -19.92484,23.979732 -7.86392,10.8934 -15.34584,22.07881 -21.67448,33.94853 -4.45195,8.38555 -8.63343,16.92457 -11.83293,25.87942 -1.65372,4.51646 -3.14176,10.34647 -4.73573,14.87832 -0.72436,3.77435 -6.0621,1.48657 -5.33774,-2.28778 z"
         id="path3198"
         style="fill:#ff2a2a;fill-opacity:1;stroke:none" />
    </g>
    <g
       id="g3267">
      <path
         inkscape:export-ydpi="85.562859"
         inkscape:export-xdpi="85.562859"
         inkscape:export-filename="C:\Users\jrm219\Google Drive\Work\CS Field Guide Website\Interactive Prototypes\Sorting Prototype\Textures\pointer.png"
         sodipodi:nodetypes="cscccccscscc"
         inkscape:connector-curvature="0"
         d="m 470.65375,789.25584 c 2.79,9.20807 3.02797,19.04919 3.62378,28.58419 0.96244,15.40217 0.7679,13.80525 1.21743,30.11825 0.36456,37.21817 0.13726,74.43531 0.0783,111.65358 -0.23351,13.67909 0.25629,39.55077 0.15926,53.22844 0.18602,13.8497 -14.7642,14.0068 -15.43122,0.102 -0.73375,-12.7009 -0.40556,-39.48795 -0.61466,-53.3741 0.0565,-14.45453 0.0411,-21.00401 0.2711,-35.64449 0.39747,-25.2974 1.31296,-50.58798 1.11293,-75.89317 0.30546,-17.34376 0.13698,-13.7329 0.79892,-30.02771 0.38727,-9.53319 0.29902,-19.3439 2.7983,-28.62282 -0.0878,-4.23264 5.89805,-4.35682 5.98586,-0.12417 z"
         id="path3050"
         style="fill:#d40000;fill-opacity:1;stroke:none" />
      <path
         inkscape:export-ydpi="85.562859"
         inkscape:export-xdpi="85.562859"
         inkscape:export-filename="C:\Users\jrm219\Google Drive\Work\CS Field Guide Website\Interactive Prototypes\Sorting Prototype\Textures\pointer.png"
         sodipodi:nodetypes="csccccscc"
         inkscape:connector-curvature="0"
         d="m 473.58456,782.50637 c 1.37641,1.87065 2.57093,4.07128 3.69049,6.08236 2.46063,4.42009 4.79056,8.90042 7.0781,13.41179 2.31583,4.7402 3.5731,5.786 6.05631,11.42526 6.20483,15.38413 1.77745,18.87534 -10.77055,6.19874 -3.69338,-4.42276 -5.07334,-6.45691 -7.72018,-11.5209 -2.269,-4.7716 -4.35629,-9.52599 -6.07152,-14.52867 -0.7643,-2.22915 -1.56782,-4.68869 -1.9699,-7.03456 -2.41243,-7.67776 5.20916,-9.4684 9.70725,-4.03402 z"
         id="path3058"
         style="fill:#d40000;fill-opacity:1;stroke:none" />
      <path
         inkscape:export-ydpi="85.562859"
         inkscape:export-xdpi="85.562859"
         inkscape:export-filename="C:\Users\jrm219\Google Drive\Work\CS Field Guide Website\Interactive Prototypes\Sorting Prototype\Textures\pointer.png"
         sodipodi:nodetypes="csccccscc"
         inkscape:connector-curvature="0"
         d="m 462.30853,782.5264 c -1.37641,1.87065 -2.57093,4.07128 -3.69049,6.08236 -2.46063,4.42009 -4.79056,8.90042 -7.0781,13.41179 -2.31583,4.7402 -3.5731,5.786 -6.05631,11.42526 -6.20483,15.38413 -1.77745,18.87534 10.77055,6.19874 3.69338,-4.42276 5.07334,-6.45691 7.72018,-11.5209 2.269,-4.7716 4.35629,-9.52599 6.07152,-14.52867 0.7643,-2.22915 1.56782,-4.68869 1.9699,-7.03456 2.41243,-7.67776 -5.20916,-9.4684 -9.70725,-4.03402 z"
         id="path3058-7"
         style="fill:#d40000;fill-opacity:1;stroke:none" />
    </g>
  </g>
</svg>
