<?xml version="1.0" encoding="UTF-8" standalone="no"?>
<!-- Created with Inkscape (http://www.inkscape.org/) -->

<svg
   xmlns:dc="http://purl.org/dc/elements/1.1/"
   xmlns:cc="http://creativecommons.org/ns#"
   xmlns:rdf="http://www.w3.org/1999/02/22-rdf-syntax-ns#"
   xmlns:svg="http://www.w3.org/2000/svg"
   xmlns="http://www.w3.org/2000/svg"
   xmlns:sodipodi="http://sodipodi.sourceforge.net/DTD/sodipodi-0.dtd"
   xmlns:inkscape="http://www.inkscape.org/namespaces/inkscape"
   width="300"
   height="300"
   id="svg2"
   version="1.1"
   inkscape:version="0.48.4 r9939"
   sodipodi:docname="square8.svg"
   inkscape:export-filename="C:\Users\jrm219\Google Drive\Work\CS Field Guide Website\Interactive Prototypes\Sorting Prototype\Textures\square8.png"
   inkscape:export-xdpi="60.659328"
   inkscape:export-ydpi="60.659328">
  <defs
     id="defs4" />
  <sodipodi:namedview
     id="base"
     pagecolor="#ffffff"
     bordercolor="#666666"
     borderopacity="1.0"
     inkscape:pageopacity="0.0"
     inkscape:pageshadow="2"
     inkscape:zoom="2.7994932"
     inkscape:cx="137.96186"
     inkscape:cy="148.89754"
     inkscape:document-units="px"
     inkscape:current-layer="layer1"
     showgrid="false"
     showborder="true"
     inkscape:window-width="1920"
     inkscape:window-height="1028"
     inkscape:window-x="-8"
     inkscape:window-y="-8"
     inkscape:window-maximized="1" />
  <metadata
     id="metadata7">
    <rdf:RDF>
      <cc:Work
         rdf:about="">
        <dc:format>image/svg+xml</dc:format>
        <dc:type
           rdf:resource="http://purl.org/dc/dcmitype/StillImage" />
        <dc:title></dc:title>
      </cc:Work>
    </rdf:RDF>
  </metadata>
  <g
     inkscape:label="Layer 1"
     inkscape:groupmode="layer"
     id="layer1"
     transform="translate(0,-752.36218)">
    <rect
       style="fill:#de87cd;fill-opacity:1;stroke:none"
       id="rect3087"
       width="274.51746"
       height="278.12164"
       x="13.215282"
       y="11.666563"
       transform="translate(0,752.36218)" />
    <path
       style="fill:#a02c89;fill-opacity:1;stroke:none"
       id="path3029"
       d="m 10.466085,755.84707 c 4.924878,-1.1137 6.080776,-0.96854 9.383507,-1.15744 7.625527,-0.24544 15.256187,-0.21114 22.883801,-0.37822 13.579353,-0.64909 27.165108,-0.89703 40.754285,-1.08573 19.900022,0.003 39.801342,0.0939 59.699632,0.361 22.22424,0.0926 44.44634,0.33534 66.66945,0.54928 3.41396,0.0489 6.82776,0.11016 10.24189,0.14564 11.52155,0.12073 7.71327,-0.0223 18.94011,0.20671 8.01859,0.16356 16.03591,0.42714 24.0521,0.68349 8.04945,0.54919 16.23103,0.58262 24.00837,3.13634 9.39692,4.01705 10.66417,10.51245 3.81236,13.67575 -1.4924,0.64263 -3.13048,0.80305 -4.71594,1.0915 -7.7994,1.41896 -15.70916,0.71407 -23.57141,0.79243 -17.66277,-0.36825 -35.33101,-0.38264 -52.99466,-0.70266 -22.21146,-0.29952 -44.42409,-0.49375 -66.63503,-0.83667 -19.85375,-0.11721 -39.70456,-0.48438 -59.558611,-0.56575 -13.534322,-0.21865 -27.0684,-0.39248 -40.600061,-0.76449 -7.650213,-0.0278 -20.914078,-0.22405 -28.562097,-0.4143 -10.7147268,-1.2137 -9.5589192,-10.16497 -3.807699,-14.73673 z"
       inkscape:connector-curvature="0"
       sodipodi:nodetypes="ccccccsscccsccccccc" />
    <path
       style="fill:#a02c89;fill-opacity:1;stroke:none"
       id="path3029-1"
       d="m 294.92413,763.98417 c 1.14258,4.91826 1.0042,6.07499 1.21247,9.37656 0.29017,7.62396 0.30064,15.25468 0.51247,22.88118 0.72875,13.57531 1.05639,27.15939 1.32481,40.74723 0.11364,19.89968 0.1396,39.80121 -0.0107,59.70073 0.0378,22.2244 -0.0746,44.44754 -0.15813,66.67152 -0.0289,3.41419 -0.0701,6.82829 -0.0856,10.24257 -0.0531,11.52205 0.0675,7.713 -0.0956,18.941 -0.11651,8.01944 -0.33305,16.03814 -0.54236,24.05564 -0.50195,8.0526 -0.48739,16.2342 -2.99544,24.0264 -3.96184,9.4203 -10.44969,10.7256 -13.65314,3.8926 -0.65138,-1.4887 -0.8214,-3.1258 -1.11915,-4.7095 -1.46469,-7.791 -0.80622,-15.7047 -0.9307,-23.5664 0.26461,-17.6646 0.17534,-35.33262 0.39173,-52.99785 0.16919,-22.21283 0.2331,-44.42622 0.4457,-66.63879 7.3e-4,-19.85409 0.25144,-39.70673 0.21632,-59.56091 0.13924,-13.53538 0.23367,-27.07024 0.52628,-40.60385 -0.0171,-7.65024 0.10135,-20.91504 0.24672,-28.56404 1.15082,-10.72166 10.10871,-9.61839 14.71414,-3.89409 z"
       inkscape:connector-curvature="0"
       sodipodi:nodetypes="ccccccsscccsccccccc" />
    <path
       style="fill:#a02c89;fill-opacity:1;stroke:none"
       id="path3029-1-7"
       d="m 6.049331,1040.4425 c -1.18553,-4.908 -1.05727,-6.0659 -1.2944,-9.3656 -0.35681,-7.6211 -0.43399,-15.2514 -0.71248,-22.8758 -0.8474,-13.56842 -1.29378,-27.14911 -1.68098,-40.73409 -0.2876,-19.89793 -0.48754,-39.79847 -0.51118,-59.69854 -0.23211,-22.22322 -0.314,-44.44649 -0.42473,-66.67036 -0.001,-3.41431 0.0104,-6.82864 -0.004,-10.24292 -0.0476,-11.52208 -0.13495,-7.71212 -0.07,-18.94111 0.0464,-8.02013 0.19283,-16.04047 0.33204,-24.05957 0.43154,-8.05663 0.34545,-16.23783 2.78528,-24.05163 3.87934,-9.4546 10.35553,-10.8166 13.61859,-4.0118 0.66437,1.4829 0.8487,3.1185 1.16028,4.6995 1.53275,7.7779 0.94348,15.6971 1.13669,23.55743 -0.11018,17.66626 0.13355,35.33283 0.0716,52.99927 0.025,22.21346 0.15529,44.42656 0.13688,66.64014 0.17284,19.85334 0.0957,39.70741 0.30438,59.56053 -0.0209,13.53608 0.003,27.07125 -0.17129,40.60695 0.084,7.6498 0.0815,20.9151 0.003,28.5651 -1.05704,10.7313 -10.02424,9.7064 -14.67953,4.0225 z"
       inkscape:connector-curvature="0"
       sodipodi:nodetypes="ccccccsscccsccccccc" />
    <path
       style="fill:#a02c89;fill-opacity:1;stroke:none"
       id="path3029-4"
       d="m 288.40477,1048.3322 c -4.87892,1.1358 -6.02586,0.9959 -9.30026,1.1997 -7.56098,0.2797 -15.12829,0.2798 -22.69169,0.4812 -13.46346,0.7101 -26.93506,1.0192 -40.41032,1.2691 -19.73444,0.086 -39.47058,0.085 -59.20448,-0.092 -22.03972,0.01 -44.07798,-0.1354 -66.117138,-0.2493 -3.385766,-0.034 -6.771436,-0.079 -10.157266,-0.1035 -11.426216,-0.069 -7.648985,0.057 -18.78343,-0.1215 -7.952595,-0.1271 -15.904378,-0.3551 -23.855008,-0.5753 -7.984916,-0.513 -16.09857,-0.5096 -23.822581,-3.0282 -9.3366479,-3.9748 -10.6223397,-10.4645 -3.841657,-13.6585 1.477112,-0.6494 3.100843,-0.8171 4.671826,-1.1127 7.728171,-1.4541 15.575254,-0.7848 23.371734,-0.8985 17.517433,0.2888 35.038723,0.2236 52.556818,0.4638 22.027982,0.1996 44.056642,0.2939 66.084292,0.5368 19.68906,0.028 39.37633,0.3055 59.06553,0.2978 13.42268,0.1578 26.84489,0.2737 40.26563,0.5818 7.58668,-0.01 20.74106,0.1295 28.32625,0.2888 10.63099,1.1655 9.52473,10.1219 3.84177,14.7195 z"
       inkscape:connector-curvature="0"
       sodipodi:nodetypes="ccccccsscccsccccccc" />
    <path
       style="fill:#a02c89;fill-opacity:1;stroke:none"
       id="path3205"
       d="m 129.78872,57.370015 c 0.44485,-0.157804 0.87723,-0.356552 1.33455,-0.473413 1.11873,-0.285876 3.92569,-0.690611 4.89549,-0.798008 4.10795,-0.454923 8.23964,-0.509168 12.36666,-0.604657 5.04359,-0.02513 10.09649,-0.145853 15.11814,0.44341 1.6338,0.191718 3.27675,0.379796 4.87421,0.772459 12.67046,3.411894 8.15648,8.931835 0.0151,9.579903 -1.59379,0.396823 -3.23349,0.589828 -4.86395,0.787964 -5.00344,0.608026 -10.04081,0.516909 -15.06897,0.54401 -4.10251,-0.04476 -8.21166,-0.045 -12.30268,-0.403351 -1.04233,-0.0913 -3.79169,-0.41267 -4.96829,-0.682782 -0.47836,-0.109815 -0.93361,-0.303151 -1.40041,-0.454726 -6.15948,0 -6.15948,-8.710809 0,-8.710809 z"
       inkscape:connector-curvature="0"
       transform="translate(0,752.36218)"
       sodipodi:nodetypes="csscsccscsscsc" />
    <path
       style="fill:#a02c89;fill-opacity:1;stroke:none"
       id="path3207"
       d="m 92.918879,851.69953 c 6.552591,-1.24974 13.219281,-1.86158 19.853501,-2.51974 14.62026,-1.34957 29.31192,-1.59085 43.98443,-1.70983 10.79083,0.0744 21.58663,-0.21421 32.37674,0.002 6.17806,0.12381 6.88502,0.23269 12.83973,0.61817 4.49611,0.48318 9.06725,0.67223 13.40881,2.06306 1.04121,0.33355 2.09414,0.68179 3.04193,1.22685 3.39499,1.62636 2.72333,5.52206 0.14427,5.68687 -0.92927,0.59759 -1.97621,0.99967 -3.01335,1.38049 -4.33114,1.59039 -8.95228,1.91469 -13.48875,2.48147 -2.02362,0.1595 -4.04455,0.3583 -6.07088,0.47848 -13.02403,0.77247 -26.08632,0.19578 -39.12153,0.50112 -14.51764,0.11754 -29.03645,0.16918 -43.55423,0.0592 -6.2426,-0.0814 -12.57815,-0.0397 -18.782721,-0.85917 -0.561898,-0.0742 -1.115381,-0.20218 -1.673071,-0.30326 -6.438696,-0.0389 -6.383605,-9.14466 0.05509,-9.10569 z"
       inkscape:connector-curvature="0"
       sodipodi:nodetypes="cccscsccccscccccc" />
    <path
       style="fill:#a02c89;fill-opacity:1;stroke:none"
       id="path3209"
       d="m 67.610902,892.01194 c 0.594919,-0.1981 1.177304,-0.43881 1.784757,-0.59428 1.954286,-0.50017 4.296366,-0.80804 6.261835,-1.04634 5.15875,-0.62545 10.333489,-0.89671 15.519337,-1.18321 10.083439,-0.37738 20.168239,-0.82061 30.257859,-1.00442 7.52736,-0.13713 10.69042,-0.0764 18.28037,-0.0387 18.80051,0.0914 37.58779,0.79859 56.3783,1.33959 9.43407,0.33572 18.88371,0.37068 28.2911,1.2333 4.21778,0.38676 5.58196,0.61373 9.63908,1.16516 1.9339,0.33589 4.84418,0.77598 6.79322,1.34199 4.49409,2.54827 5.0497,6.30789 0.17665,7.99777 -2.1188,0.71603 -4.72323,1.16391 -6.87885,1.60269 -4.2133,0.62818 -5.47902,0.88834 -9.88168,1.2244 -9.51268,0.72612 -19.05468,0.23574 -28.57733,0.0647 -18.68379,-0.58032 -37.36842,-1.17592 -56.05843,-1.51129 -16.06934,-0.1829 -32.13623,-0.48397 -48.20488,-0.7162 -5.187563,-0.11119 -10.373865,-0.18269 -15.547611,-0.61404 -1.971293,-0.16435 -4.418353,-0.40038 -6.390962,-0.84847 -0.627082,-0.14245 -1.228504,-0.38062 -1.842755,-0.57093 -5.544922,0 -5.544922,-7.8417 0,-7.8417 z"
       inkscape:connector-curvature="0"
       sodipodi:nodetypes="csscsccsccccscccssccc" />
    <path
       style="fill:#a02c89;fill-opacity:1;stroke:none"
       id="path3215"
       d="m 91.771099,940.24988 c 0.55695,-0.24486 1.09591,-0.53559 1.67085,-0.73458 1.38147,-0.47814 4.60439,-1.23735 5.8619,-1.5036 4.887341,-1.03476 9.811861,-1.68316 14.764951,-2.30335 13.08574,-1.129 26.25302,-1.44702 39.38411,-1.20796 3.16541,0.0576 6.32921,0.18353 9.49382,0.2753 9.5984,0.36463 19.21979,0.59085 28.78733,1.5128 5.15653,0.49688 11.96063,1.29787 16.99742,2.77897 9.36174,2.326 7.74997,8.52662 -0.31924,10.18723 -5.26558,1.22942 -11.93127,1.48954 -17.27223,1.57918 -9.53461,0.16004 -19.06448,-0.46156 -28.59195,-0.67623 -15.87824,-0.36182 -31.75609,-0.90481 -47.6409,-0.70742 -4.75061,-0.0251 -9.50113,-0.0605 -14.25176,-0.082 -1.849481,-0.008 -3.700831,0.0645 -5.548501,-0.0179 -0.54755,-0.0245 -1.08994,-0.11664 -1.63492,-0.17496 -6.311268,1.2027 -8.012148,-7.72278 -1.70088,-8.92549 z"
       inkscape:connector-curvature="0"
       sodipodi:nodetypes="csscscsccsccccccc" />
    <path
       style="fill:#a02c89;fill-opacity:1;stroke:none"
       id="path3217"
       d="m 134.32221,983.11133 c 0.54984,-0.21835 1.07696,-0.50612 1.64951,-0.65504 0.90985,-0.23664 1.84536,-0.36569 2.77639,-0.4961 3.26361,-0.45714 5.23148,-0.5531 8.62082,-0.67094 3.83599,-0.13336 7.81797,-0.1359 11.65079,-0.16522 5.27815,0.19303 7.6679,0.001 12.85433,1.32915 9.61697,1.18166 10.80335,9.81533 0.31336,11.37307 -5.12917,1.70807 -7.79918,1.52522 -13.08008,1.83529 -3.37189,0.0148 -8.13263,0.0521 -11.55006,0.006 -3.42053,-0.0459 -5.14179,-0.0778 -8.42336,-0.40005 -0.8773,-0.0862 -1.75906,-0.16281 -2.62268,-0.33958 -0.53618,-0.10974 -1.03907,-0.34417 -1.5586,-0.51626 -7.9907,0.44577 -8.62112,-10.85479 -0.63042,-11.30055 z"
       inkscape:connector-curvature="0"
       sodipodi:nodetypes="ccsscccccccccc" />
  </g>
</svg>
