<?xml version="1.0" encoding="UTF-8" standalone="no"?>
<!-- Created with Inkscape (http://www.inkscape.org/) -->

<svg
   xmlns:dc="http://purl.org/dc/elements/1.1/"
   xmlns:cc="http://creativecommons.org/ns#"
   xmlns:rdf="http://www.w3.org/1999/02/22-rdf-syntax-ns#"
   xmlns:svg="http://www.w3.org/2000/svg"
   xmlns="http://www.w3.org/2000/svg"
   xmlns:sodipodi="http://sodipodi.sourceforge.net/DTD/sodipodi-0.dtd"
   xmlns:inkscape="http://www.inkscape.org/namespaces/inkscape"
   width="300"
   height="300"
   id="svg2"
   version="1.1"
   inkscape:version="0.48.4 r9939"
   sodipodi:docname="square6.svg"
   inkscape:export-filename="C:\Users\jrm219\Google Drive\Work\CS Field Guide Website\Interactive Prototypes\Sorting Prototype\Textures\square6.png"
   inkscape:export-xdpi="60.66"
   inkscape:export-ydpi="60.66">
  <defs
     id="defs4" />
  <sodipodi:namedview
     id="base"
     pagecolor="#ffffff"
     bordercolor="#666666"
     borderopacity="1.0"
     inkscape:pageopacity="0.0"
     inkscape:pageshadow="2"
     inkscape:zoom="2.3538707"
     inkscape:cx="220.67314"
     inkscape:cy="65.306037"
     inkscape:document-units="px"
     inkscape:current-layer="layer1"
     showgrid="false"
     showborder="true"
     inkscape:window-width="1920"
     inkscape:window-height="1028"
     inkscape:window-x="1912"
     inkscape:window-y="-8"
     inkscape:window-maximized="1" />
  <metadata
     id="metadata7">
    <rdf:RDF>
      <cc:Work
         rdf:about="">
        <dc:format>image/svg+xml</dc:format>
        <dc:type
           rdf:resource="http://purl.org/dc/dcmitype/StillImage" />
        <dc:title></dc:title>
      </cc:Work>
    </rdf:RDF>
  </metadata>
  <g
     inkscape:label="Layer 1"
     inkscape:groupmode="layer"
     id="layer1"
     transform="translate(0,-752.36218)">
    <rect
       style="fill:#8080ff;fill-opacity:1;stroke:none"
       id="rect3087"
       width="274.51746"
       height="278.12164"
       x="13.215282"
       y="11.666563"
       transform="translate(0,752.36218)" />
    <path
       style="fill:#2c5aa0;fill-opacity:1;stroke:none"
       id="path3029"
       d="m 10.466085,755.84707 c 4.924878,-1.1137 6.080776,-0.96854 9.383507,-1.15744 7.625527,-0.24544 15.256187,-0.21114 22.883801,-0.37822 13.579353,-0.64909 27.165108,-0.89703 40.754285,-1.08573 19.900022,0.003 39.801342,0.0939 59.699632,0.361 22.22424,0.0926 44.44634,0.33534 66.66945,0.54928 3.41396,0.0489 6.82776,0.11016 10.24189,0.14564 11.52155,0.12073 7.71327,-0.0223 18.94011,0.20671 8.01859,0.16356 16.03591,0.42714 24.0521,0.68349 8.04945,0.54919 16.23103,0.58262 24.00837,3.13634 9.39692,4.01705 10.66417,10.51245 3.81236,13.67575 -1.4924,0.64263 -3.13048,0.80305 -4.71594,1.0915 -7.7994,1.41896 -15.70916,0.71407 -23.57141,0.79243 -17.66277,-0.36825 -35.33101,-0.38264 -52.99466,-0.70266 -22.21146,-0.29952 -44.42409,-0.49375 -66.63503,-0.83667 -19.85375,-0.11721 -39.70456,-0.48438 -59.558611,-0.56575 -13.534322,-0.21865 -27.0684,-0.39248 -40.600061,-0.76449 -7.650213,-0.0278 -20.914078,-0.22405 -28.562097,-0.4143 -10.7147268,-1.2137 -9.5589192,-10.16497 -3.807699,-14.73673 z"
       inkscape:connector-curvature="0"
       sodipodi:nodetypes="ccccccsscccsccccccc" />
    <path
       style="fill:#2c5aa0;fill-opacity:1;stroke:none"
       id="path3029-1"
       d="m 294.92413,763.98417 c 1.14258,4.91826 1.0042,6.07499 1.21247,9.37656 0.29017,7.62396 0.30064,15.25468 0.51247,22.88118 0.72875,13.57531 1.05639,27.15939 1.32481,40.74723 0.11364,19.89968 0.1396,39.80121 -0.0107,59.70073 0.0378,22.2244 -0.0746,44.44754 -0.15813,66.67152 -0.0289,3.41419 -0.0701,6.82829 -0.0856,10.24257 -0.0531,11.52205 0.0675,7.713 -0.0956,18.941 -0.11651,8.01944 -0.33305,16.03814 -0.54236,24.05564 -0.50195,8.0526 -0.48739,16.2342 -2.99544,24.0264 -3.96184,9.4203 -10.44969,10.7256 -13.65314,3.8926 -0.65138,-1.4887 -0.8214,-3.1258 -1.11915,-4.7095 -1.46469,-7.791 -0.80622,-15.7047 -0.9307,-23.5664 0.26461,-17.6646 0.17534,-35.33262 0.39173,-52.99785 0.16919,-22.21283 0.2331,-44.42622 0.4457,-66.63879 7.3e-4,-19.85409 0.25144,-39.70673 0.21632,-59.56091 0.13924,-13.53538 0.23367,-27.07024 0.52628,-40.60385 -0.0171,-7.65024 0.10135,-20.91504 0.24672,-28.56404 1.15082,-10.72166 10.10871,-9.61839 14.71414,-3.89409 z"
       inkscape:connector-curvature="0"
       sodipodi:nodetypes="ccccccsscccsccccccc" />
    <path
       style="fill:#2c5aa0;fill-opacity:1;stroke:none"
       id="path3029-1-7"
       d="m 6.049331,1040.4425 c -1.18553,-4.908 -1.05727,-6.0659 -1.2944,-9.3656 -0.35681,-7.6211 -0.43399,-15.2514 -0.71248,-22.8758 -0.8474,-13.56842 -1.29378,-27.14911 -1.68098,-40.73409 -0.2876,-19.89793 -0.48754,-39.79847 -0.51118,-59.69854 -0.23211,-22.22322 -0.314,-44.44649 -0.42473,-66.67036 -0.001,-3.41431 0.0104,-6.82864 -0.004,-10.24292 -0.0476,-11.52208 -0.13495,-7.71212 -0.07,-18.94111 0.0464,-8.02013 0.19283,-16.04047 0.33204,-24.05957 0.43154,-8.05663 0.34545,-16.23783 2.78528,-24.05163 3.87934,-9.4546 10.35553,-10.8166 13.61859,-4.0118 0.66437,1.4829 0.8487,3.1185 1.16028,4.6995 1.53275,7.7779 0.94348,15.6971 1.13669,23.55743 -0.11018,17.66626 0.13355,35.33283 0.0716,52.99927 0.025,22.21346 0.15529,44.42656 0.13688,66.64014 0.17284,19.85334 0.0957,39.70741 0.30438,59.56053 -0.0209,13.53608 0.003,27.07125 -0.17129,40.60695 0.084,7.6498 0.0815,20.9151 0.003,28.5651 -1.05704,10.7313 -10.02424,9.7064 -14.67953,4.0225 z"
       inkscape:connector-curvature="0"
       sodipodi:nodetypes="ccccccsscccsccccccc" />
    <path
       style="fill:#2c5aa0;fill-opacity:1;stroke:none"
       id="path3029-4"
       d="m 288.40477,1048.3322 c -4.87892,1.1358 -6.02586,0.9959 -9.30026,1.1997 -7.56098,0.2797 -15.12829,0.2798 -22.69169,0.4812 -13.46346,0.7101 -26.93506,1.0192 -40.41032,1.2691 -19.73444,0.086 -39.47058,0.085 -59.20448,-0.092 -22.03972,0.01 -44.07798,-0.1354 -66.117138,-0.2493 -3.385766,-0.034 -6.771436,-0.079 -10.157266,-0.1035 -11.426216,-0.069 -7.648985,0.057 -18.78343,-0.1215 -7.952595,-0.1271 -15.904378,-0.3551 -23.855008,-0.5753 -7.984916,-0.513 -16.09857,-0.5096 -23.822581,-3.0282 -9.3366479,-3.9748 -10.6223397,-10.4645 -3.841657,-13.6585 1.477112,-0.6494 3.100843,-0.8171 4.671826,-1.1127 7.728171,-1.4541 15.575254,-0.7848 23.371734,-0.8985 17.517433,0.2888 35.038723,0.2236 52.556818,0.4638 22.027982,0.1996 44.056642,0.2939 66.084292,0.5368 19.68906,0.028 39.37633,0.3055 59.06553,0.2978 13.42268,0.1578 26.84489,0.2737 40.26563,0.5818 7.58668,-0.01 20.74106,0.1295 28.32625,0.2888 10.63099,1.1655 9.52473,10.1219 3.84177,14.7195 z"
       inkscape:connector-curvature="0"
       sodipodi:nodetypes="ccccccsscccsccccccc" />
    <path
       style="fill:#2c5aa0;fill-opacity:1;stroke:none"
       id="path3167"
       d="m 61.22373,829.36007 c 11.936584,-3.74413 24.590877,-4.4921 36.99708,-5.29333 24.76745,-1.02871 49.56541,-0.9924 74.34727,-0.67035 16.2755,0.16285 32.5969,0.58832 48.71835,3.04478 6.11369,0.93156 13.17378,2.55611 19.24655,3.87484 4.10836,0.0337 4.0607,5.8438 -0.0477,5.8101 l 0,0 c -6.85285,1.36233 -12.42186,2.59483 -19.4118,3.44237 -16.16834,1.96043 -32.46975,1.69008 -48.71489,1.34135 -24.48603,-0.26724 -48.97309,-0.36939 -73.45369,0.35072 -12.097038,0.17516 -24.254311,0.48561 -36.320501,-0.52861 -8.041126,0.96216 -9.401825,-10.40971 -1.360699,-11.37187 z"
       inkscape:connector-curvature="0" />
    <path
       style="fill:#2c5aa0;fill-opacity:1;stroke:none"
       id="path3177"
       d="m 105.92774,870.86013 c -0.005,0.68669 0.0641,1.37811 -0.0165,2.06008 -0.53327,4.50972 -2.14563,9.01282 -3.63462,13.25906 -2.37963,6.78619 -2.8065,7.57852 -5.62547,14.51429 -3.79886,8.56419 -7.321782,17.27495 -11.667515,25.58673 -1.4279,2.73105 -2.869834,5.46375 -4.537542,8.05533 -1.594174,2.4773 -3.486938,4.7492 -5.230407,7.1238 -1.810799,4.49311 -8.165014,1.93225 -6.354215,-2.56086 l 0,0 c 0.416471,-2.98482 0.599824,-6.01157 1.249413,-8.95447 0.676923,-3.06673 1.68161,-6.05648 2.718331,-9.02098 3.101983,-8.87011 7.419155,-17.2492 11.278289,-25.7944 3.90344,-8.0897 2.925214,-6.16125 6.738709,-13.70912 1.971137,-3.90139 3.872357,-8.06507 6.387117,-11.67064 0.37826,-0.54233 0.85847,-1.0059 1.28771,-1.50885 1.85264,-5.23734 9.25936,-2.61731 7.40672,2.62003 z"
       inkscape:connector-curvature="0" />
    <path
       style="fill:#2c5aa0;fill-opacity:1;stroke:none"
       id="path3179"
       d="m 155.93244,894.76276 c 0.15395,0.84066 0.38766,1.67057 0.46185,2.52199 0.21327,2.44734 0.11801,8.28099 0.0397,10.31515 -0.34015,8.83057 -1.32445,17.60962 -2.25217,26.3918 -1.23566,10.06583 -2.42304,20.141 -3.87942,30.17825 -0.81256,5.60006 -1.68407,11.91299 -3.26869,17.3881 -0.70983,2.45259 -1.7447,4.79919 -2.61705,7.19879 -1.37041,1.97567 -2.74081,3.95134 -4.11122,5.92701 -0.27343,1.74157 -2.73638,1.35489 -2.46295,-0.38668 l 0,0 c -0.70521,-2.2612 -1.41043,-4.5224 -2.11564,-6.7836 -0.16894,-2.51686 -0.48871,-5.02813 -0.50683,-7.55059 -0.0408,-5.67288 0.72992,-11.95552 1.36773,-17.55514 1.14492,-10.05179 2.51187,-20.07715 3.76595,-30.11543 1.22243,-8.71646 2.39451,-17.44221 4.11375,-26.07897 0.30999,-1.55729 1.70475,-7.95059 2.34672,-9.97632 0.25745,-0.81237 0.66344,-1.56994 0.99516,-2.35491 0.62264,-5.74393 8.74579,-4.86338 8.12315,0.88055 z"
       inkscape:connector-curvature="0" />
    <path
       style="fill:#2c5aa0;fill-opacity:1;stroke:none"
       id="path3181"
       d="m 204.69252,868.93787 c 0.51615,0.52633 1.11408,0.98339 1.54845,1.57901 2.57364,3.52898 4.38542,9.03931 5.82412,13.07276 2.02202,5.66874 2.9396,8.77399 4.78433,14.61523 3.37592,11.41362 6.52161,23.06503 7.47977,34.98017 0.22808,2.83624 0.16961,5.68827 0.25441,8.53241 0.99663,4.68008 -5.622,6.08953 -6.61863,1.40945 l 0,0 c -1.067,-2.56462 -2.21111,-5.09849 -3.20099,-7.69385 -4.15785,-10.90134 -7.16813,-22.21163 -10.53618,-33.36746 -0.51736,-1.74872 -3.71205,-12.51802 -4.29307,-14.58881 -1.21205,-4.31987 -2.95166,-9.68846 -2.83576,-14.25939 0.0197,-0.77783 0.26857,-1.5328 0.40285,-2.29921 -1.4003,-5.08459 5.7904,-7.06491 7.1907,-1.98031 z"
       inkscape:connector-curvature="0" />
  </g>
</svg>
