<?xml version="1.0" encoding="UTF-8" standalone="no"?>
<!-- Created with Inkscape (http://www.inkscape.org/) -->

<svg
   xmlns:dc="http://purl.org/dc/elements/1.1/"
   xmlns:cc="http://creativecommons.org/ns#"
   xmlns:rdf="http://www.w3.org/1999/02/22-rdf-syntax-ns#"
   xmlns:svg="http://www.w3.org/2000/svg"
   xmlns="http://www.w3.org/2000/svg"
   xmlns:sodipodi="http://sodipodi.sourceforge.net/DTD/sodipodi-0.dtd"
   xmlns:inkscape="http://www.inkscape.org/namespaces/inkscape"
   width="300"
   height="300"
   id="svg2"
   version="1.1"
   inkscape:version="0.48.4 r9939"
   sodipodi:docname="square3.svg"
   inkscape:export-filename="C:\Users\jrm219\Google Drive\Work\CS Field Guide Website\Interactive Prototypes\Sorting Prototype\Textures\square3.png"
   inkscape:export-xdpi="60.681831"
   inkscape:export-ydpi="60.681831">
  <defs
     id="defs4" />
  <sodipodi:namedview
     id="base"
     pagecolor="#ffffff"
     bordercolor="#666666"
     borderopacity="1.0"
     inkscape:pageopacity="0.0"
     inkscape:pageshadow="2"
     inkscape:zoom="4.7077415"
     inkscape:cx="34.046168"
     inkscape:cy="72.691685"
     inkscape:document-units="px"
     inkscape:current-layer="layer1"
     showgrid="false"
     showborder="true"
     inkscape:window-width="1920"
     inkscape:window-height="1028"
     inkscape:window-x="-8"
     inkscape:window-y="-8"
     inkscape:window-maximized="1" />
  <metadata
     id="metadata7">
    <rdf:RDF>
      <cc:Work
         rdf:about="">
        <dc:format>image/svg+xml</dc:format>
        <dc:type
           rdf:resource="http://purl.org/dc/dcmitype/StillImage" />
        <dc:title></dc:title>
      </cc:Work>
    </rdf:RDF>
  </metadata>
  <g
     inkscape:label="Layer 1"
     inkscape:groupmode="layer"
     id="layer1"
     transform="translate(0,-752.36218)">
    <rect
       style="fill:#7fff2a;fill-opacity:1;stroke:none"
       id="rect3087"
       width="274.51746"
       height="278.12164"
       x="13.215282"
       y="11.666563"
       transform="translate(0,752.36218)" />
    <path
       style="fill:#44aa00;fill-opacity:1;stroke:none"
       id="path3029"
       d="m 10.466085,755.84707 c 4.924878,-1.1137 6.080776,-0.96854 9.383507,-1.15744 7.625527,-0.24544 15.256187,-0.21114 22.883801,-0.37822 13.579353,-0.64909 27.165108,-0.89703 40.754285,-1.08573 19.900022,0.003 39.801342,0.0939 59.699632,0.361 22.22424,0.0926 44.44634,0.33534 66.66945,0.54928 3.41396,0.0489 6.82776,0.11016 10.24189,0.14564 11.52155,0.12073 7.71327,-0.0223 18.94011,0.20671 8.01859,0.16356 16.03591,0.42714 24.0521,0.68349 8.04945,0.54919 16.23103,0.58262 24.00837,3.13634 9.39692,4.01705 10.66417,10.51245 3.81236,13.67575 -1.4924,0.64263 -3.13048,0.80305 -4.71594,1.0915 -7.7994,1.41896 -15.70916,0.71407 -23.57141,0.79243 -17.66277,-0.36825 -35.33101,-0.38264 -52.99466,-0.70266 -22.21146,-0.29952 -44.42409,-0.49375 -66.63503,-0.83667 -19.85375,-0.11721 -39.70456,-0.48438 -59.558611,-0.56575 -13.534322,-0.21865 -27.0684,-0.39248 -40.600061,-0.76449 -7.650213,-0.0278 -20.914078,-0.22405 -28.562097,-0.4143 -10.7147268,-1.2137 -9.5589192,-10.16497 -3.807699,-14.73673 z"
       inkscape:connector-curvature="0"
       sodipodi:nodetypes="ccccccsscccsccccccc" />
    <path
       style="fill:#44aa00;fill-opacity:1;stroke:none"
       id="path3029-1"
       d="m 294.92413,763.98417 c 1.14258,4.91826 1.0042,6.07499 1.21247,9.37656 0.29017,7.62396 0.30064,15.25468 0.51247,22.88118 0.72875,13.57531 1.05639,27.15939 1.32481,40.74723 0.11364,19.89968 0.1396,39.80121 -0.0107,59.70073 0.0378,22.2244 -0.0746,44.44754 -0.15813,66.67152 -0.0289,3.41419 -0.0701,6.82829 -0.0856,10.24257 -0.0531,11.52205 0.0675,7.713 -0.0956,18.941 -0.11651,8.01944 -0.33305,16.03814 -0.54236,24.05564 -0.50195,8.0526 -0.48739,16.2342 -2.99544,24.0264 -3.96184,9.4203 -10.44969,10.7256 -13.65314,3.8926 -0.65138,-1.4887 -0.8214,-3.1258 -1.11915,-4.7095 -1.46469,-7.791 -0.80622,-15.7047 -0.9307,-23.5664 0.26461,-17.6646 0.17534,-35.33262 0.39173,-52.99785 0.16919,-22.21283 0.2331,-44.42622 0.4457,-66.63879 7.3e-4,-19.85409 0.25144,-39.70673 0.21632,-59.56091 0.13924,-13.53538 0.23367,-27.07024 0.52628,-40.60385 -0.0171,-7.65024 0.10135,-20.91504 0.24672,-28.56404 1.15082,-10.72166 10.10871,-9.61839 14.71414,-3.89409 z"
       inkscape:connector-curvature="0"
       sodipodi:nodetypes="ccccccsscccsccccccc" />
    <path
       style="fill:#44aa00;fill-opacity:1;stroke:none"
       id="path3029-1-7"
       d="m 6.049331,1040.4425 c -1.18553,-4.908 -1.05727,-6.0659 -1.2944,-9.3656 -0.35681,-7.6211 -0.43399,-15.2514 -0.71248,-22.8758 -0.8474,-13.56842 -1.29378,-27.14911 -1.68098,-40.73409 -0.2876,-19.89793 -0.48754,-39.79847 -0.51118,-59.69854 -0.23211,-22.22322 -0.314,-44.44649 -0.42473,-66.67036 -0.001,-3.41431 0.0104,-6.82864 -0.004,-10.24292 -0.0476,-11.52208 -0.13495,-7.71212 -0.07,-18.94111 0.0464,-8.02013 0.19283,-16.04047 0.33204,-24.05957 0.43154,-8.05663 0.34545,-16.23783 2.78528,-24.05163 3.87934,-9.4546 10.35553,-10.8166 13.61859,-4.0118 0.66437,1.4829 0.8487,3.1185 1.16028,4.6995 1.53275,7.7779 0.94348,15.6971 1.13669,23.55743 -0.11018,17.66626 0.13355,35.33283 0.0716,52.99927 0.025,22.21346 0.15529,44.42656 0.13688,66.64014 0.17284,19.85334 0.0957,39.70741 0.30438,59.56053 -0.0209,13.53608 0.003,27.07125 -0.17129,40.60695 0.084,7.6498 0.0815,20.9151 0.003,28.5651 -1.05704,10.7313 -10.02424,9.7064 -14.67953,4.0225 z"
       inkscape:connector-curvature="0"
       sodipodi:nodetypes="ccccccsscccsccccccc" />
    <path
       style="fill:#44aa00;fill-opacity:1;stroke:none"
       id="path3029-4"
       d="m 288.40477,1048.3322 c -4.87892,1.1358 -6.02586,0.9959 -9.30026,1.1997 -7.56098,0.2797 -15.12829,0.2798 -22.69169,0.4812 -13.46346,0.7101 -26.93506,1.0192 -40.41032,1.2691 -19.73444,0.086 -39.47058,0.085 -59.20448,-0.092 -22.03972,0.01 -44.07798,-0.1354 -66.117138,-0.2493 -3.385766,-0.034 -6.771436,-0.079 -10.157266,-0.1035 -11.426216,-0.069 -7.648985,0.057 -18.78343,-0.1215 -7.952595,-0.1271 -15.904378,-0.3551 -23.855008,-0.5753 -7.984916,-0.513 -16.09857,-0.5096 -23.822581,-3.0282 -9.3366479,-3.9748 -10.6223397,-10.4645 -3.841657,-13.6585 1.477112,-0.6494 3.100843,-0.8171 4.671826,-1.1127 7.728171,-1.4541 15.575254,-0.7848 23.371734,-0.8985 17.517433,0.2888 35.038723,0.2236 52.556818,0.4638 22.027982,0.1996 44.056642,0.2939 66.084292,0.5368 19.68906,0.028 39.37633,0.3055 59.06553,0.2978 13.42268,0.1578 26.84489,0.2737 40.26563,0.5818 7.58668,-0.01 20.74106,0.1295 28.32625,0.2888 10.63099,1.1655 9.52473,10.1219 3.84177,14.7195 z"
       inkscape:connector-curvature="0"
       sodipodi:nodetypes="ccccccsscccsccccccc" />
    <path
       style="fill:#44aa00;fill-opacity:1;stroke:none"
       id="path3125"
       d="m 146.29837,58.659016 c -3.28553,3.055071 -6.37186,6.313878 -9.53746,9.491088 -7.05931,6.71285 -13.98532,13.565382 -20.73133,20.593357 -5.45544,5.629621 -10.85566,11.376499 -15.44428,17.752879 -2.514861,3.49467 -3.125368,4.72485 -5.241608,8.34518 -1.391501,2.95247 -3.08276,6.0234 -3.20593,9.38089 -0.01696,0.46228 -0.02011,1.73966 0.754224,1.94523 0.173628,0.0461 0.339655,-0.11713 0.509482,-0.1757 0.272678,0.001 0.548307,-0.0368 0.818034,0.003 3.721345,0.5522 0.158791,0.43943 5.169644,0.87096 5.420614,0.46683 10.772104,-0.063 16.168424,-0.54656 13.27506,-1.63426 26.42353,-4.13442 39.65274,-6.08387 2.83972,-0.41845 5.68659,-0.78682 8.52989,-1.18023 2.76826,-0.33154 5.53115,-0.71152 8.30479,-0.99463 9.17586,-0.93659 19.03425,-1.61049 28.22503,-0.51807 1.83299,0.21787 3.64031,0.61435 5.46047,0.92153 1.62131,0.48221 3.28984,0.82741 4.86391,1.44664 4.59084,1.80598 8.90402,4.89074 11.07124,9.47713 2.07646,4.39429 1.49323,5.93528 1.37765,10.61073 -0.4792,1.71841 -0.80976,3.48539 -1.4376,5.15524 -3.47222,9.23499 -11.35909,17.33843 -17.96777,24.43432 -8.17076,8.48154 -16.63972,16.71349 -23.9297,25.99311 -1.34637,1.71383 -2.59596,3.50152 -3.89394,5.25228 -3.72938,5.59574 -7.32959,11.64596 -8.14729,18.46347 -0.36967,3.08212 -0.0576,3.76357 0.42131,6.70797 2.04831,7.88498 7.46066,13.28406 12.86447,19.04764 5.63152,5.4026 2.78485,2.56989 8.52117,8.51703 3.44616,1.63187 1.13835,6.50548 -2.30781,4.87361 l 0,0 c -9.16773,-1.05219 -4.71159,-0.12461 -13.37796,-2.73653 -2.00747,-0.89367 -4.09568,-1.62444 -6.0224,-2.68101 -7.43024,-4.07457 -13.80351,-10.71226 -16.98799,-18.62382 -0.81077,-2.0143 -1.21885,-4.16814 -1.82828,-6.25221 -0.52342,-5.97209 -1.00759,-7.1891 -0.007,-13.18565 1.573,-9.42501 6.29225,-17.89038 11.67168,-25.63214 4.33381,-5.62791 4.85505,-6.54287 9.65415,-11.81584 6.48432,-7.12459 13.59805,-13.64787 20.44186,-20.41665 4.20349,-6.27792 23.31414,-18.49265 12.23176,-22.43959 -1.29852,-0.22975 -2.58622,-0.53256 -3.89557,-0.68925 -10.99569,-1.31591 -22.0855,0.46486 -33.00473,1.59607 -8.32997,1.17008 -8.30653,1.12341 -16.67241,2.47496 -10.77805,1.74124 -21.51371,3.80234 -32.38753,4.88783 -6.83173,0.56303 -13.67476,1.21591 -20.519429,0.32856 -3.922478,-0.50852 -7.891277,-1.40735 -11.358695,-3.42309 -1.714535,-0.99673 -3.139069,-2.42459 -4.708603,-3.63688 -1.05467,-1.61898 -2.373784,-3.09372 -3.164009,-4.85696 -2.894793,-6.45916 -1.102078,-13.87043 1.589383,-20.02247 0.733352,-1.67627 1.640906,-3.2708 2.461359,-4.9062 1.01715,-1.66362 1.963655,-3.37254 3.05145,-4.99085 5.913143,-8.796945 13.433876,-16.387547 20.974824,-23.770333 7.55881,-6.797538 15.17342,-13.580093 23.50383,-19.432486 4.15056,-2.663142 8.40975,-5.187946 13.01683,-6.990628 5.25429,-3.160418 9.72379,4.270265 4.46951,7.430683 z"
       inkscape:connector-curvature="0"
       transform="translate(0,752.36218)"
       sodipodi:nodetypes="cccscscccscscsscsscscscsccccccsscccsccscscsscsscsccccc" />
  </g>
</svg>
