<?xml version="1.0" encoding="UTF-8" standalone="no"?>
<!-- Created with Inkscape (http://www.inkscape.org/) -->

<svg
   xmlns:dc="http://purl.org/dc/elements/1.1/"
   xmlns:cc="http://creativecommons.org/ns#"
   xmlns:rdf="http://www.w3.org/1999/02/22-rdf-syntax-ns#"
   xmlns:svg="http://www.w3.org/2000/svg"
   xmlns="http://www.w3.org/2000/svg"
   xmlns:sodipodi="http://sodipodi.sourceforge.net/DTD/sodipodi-0.dtd"
   xmlns:inkscape="http://www.inkscape.org/namespaces/inkscape"
   width="300"
   height="300"
   id="svg2"
   version="1.1"
   inkscape:version="0.48.4 r9939"
   sodipodi:docname="square2.svg"
   inkscape:export-filename="C:\Users\jrm219\Google Drive\Work\CS Field Guide Website\Interactive Prototypes\Sorting Prototype\Textures\square2.png"
   inkscape:export-xdpi="60.681831"
   inkscape:export-ydpi="60.681831">
  <defs
     id="defs4" />
  <sodipodi:namedview
     id="base"
     pagecolor="#ffffff"
     bordercolor="#666666"
     borderopacity="1.0"
     inkscape:pageopacity="0.0"
     inkscape:pageshadow="2"
     inkscape:zoom="5.5989865"
     inkscape:cx="65.284143"
     inkscape:cy="116.49686"
     inkscape:document-units="px"
     inkscape:current-layer="layer1"
     showgrid="false"
     showborder="true"
     inkscape:window-width="1920"
     inkscape:window-height="1028"
     inkscape:window-x="1912"
     inkscape:window-y="-8"
     inkscape:window-maximized="1" />
  <metadata
     id="metadata7">
    <rdf:RDF>
      <cc:Work
         rdf:about="">
        <dc:format>image/svg+xml</dc:format>
        <dc:type
           rdf:resource="http://purl.org/dc/dcmitype/StillImage" />
        <dc:title></dc:title>
      </cc:Work>
    </rdf:RDF>
  </metadata>
  <g
     inkscape:label="Layer 1"
     inkscape:groupmode="layer"
     id="layer1"
     transform="translate(0,-752.36218)">
    <rect
       style="fill:#ff5555;fill-opacity:1;stroke:none"
       id="rect3087"
       width="274.51746"
       height="278.12164"
       x="13.215282"
       y="11.666563"
       transform="translate(0,752.36218)" />
    <path
       style="fill:#d40000;fill-opacity:1;stroke:none"
       id="path3029"
       d="m 10.466085,755.84707 c 4.924878,-1.1137 6.080776,-0.96854 9.383507,-1.15744 7.625527,-0.24544 15.256187,-0.21114 22.883801,-0.37822 13.579353,-0.64909 27.165108,-0.89703 40.754285,-1.08573 19.900022,0.003 39.801342,0.0939 59.699632,0.361 22.22424,0.0926 44.44634,0.33534 66.66945,0.54928 3.41396,0.0489 6.82776,0.11016 10.24189,0.14564 11.52155,0.12073 7.71327,-0.0223 18.94011,0.20671 8.01859,0.16356 16.03591,0.42714 24.0521,0.68349 8.04945,0.54919 16.23103,0.58262 24.00837,3.13634 9.39692,4.01705 10.66417,10.51245 3.81236,13.67575 -1.4924,0.64263 -3.13048,0.80305 -4.71594,1.0915 -7.7994,1.41896 -15.70916,0.71407 -23.57141,0.79243 -17.66277,-0.36825 -35.33101,-0.38264 -52.99466,-0.70266 -22.21146,-0.29952 -44.42409,-0.49375 -66.63503,-0.83667 -19.85375,-0.11721 -39.70456,-0.48438 -59.558611,-0.56575 -13.534322,-0.21865 -27.0684,-0.39248 -40.600061,-0.76449 -7.650213,-0.0278 -20.914078,-0.22405 -28.562097,-0.4143 -10.7147268,-1.2137 -9.5589192,-10.16497 -3.807699,-14.73673 z"
       inkscape:connector-curvature="0"
       sodipodi:nodetypes="ccccccsscccsccccccc" />
    <path
       style="fill:#d40000;fill-opacity:1;stroke:none"
       id="path3029-1"
       d="m 294.92413,763.98417 c 1.14258,4.91826 1.0042,6.07499 1.21247,9.37656 0.29017,7.62396 0.30064,15.25468 0.51247,22.88118 0.72875,13.57531 1.05639,27.15939 1.32481,40.74723 0.11364,19.89968 0.1396,39.80121 -0.0107,59.70073 0.0378,22.2244 -0.0746,44.44754 -0.15813,66.67152 -0.0289,3.41419 -0.0701,6.82829 -0.0856,10.24257 -0.0531,11.52205 0.0675,7.713 -0.0956,18.941 -0.11651,8.01944 -0.33305,16.03814 -0.54236,24.05564 -0.50195,8.0526 -0.48739,16.2342 -2.99544,24.0264 -3.96184,9.4203 -10.44969,10.7256 -13.65314,3.8926 -0.65138,-1.4887 -0.8214,-3.1258 -1.11915,-4.7095 -1.46469,-7.791 -0.80622,-15.7047 -0.9307,-23.5664 0.26461,-17.6646 0.17534,-35.33262 0.39173,-52.99785 0.16919,-22.21283 0.2331,-44.42622 0.4457,-66.63879 7.3e-4,-19.85409 0.25144,-39.70673 0.21632,-59.56091 0.13924,-13.53538 0.23367,-27.07024 0.52628,-40.60385 -0.0171,-7.65024 0.10135,-20.91504 0.24672,-28.56404 1.15082,-10.72166 10.10871,-9.61839 14.71414,-3.89409 z"
       inkscape:connector-curvature="0"
       sodipodi:nodetypes="ccccccsscccsccccccc" />
    <path
       style="fill:#d40000;fill-opacity:1;stroke:none"
       id="path3029-1-7"
       d="m 6.049331,1040.4425 c -1.18553,-4.908 -1.05727,-6.0659 -1.2944,-9.3656 -0.35681,-7.6211 -0.43399,-15.2514 -0.71248,-22.8758 -0.8474,-13.56842 -1.29378,-27.14911 -1.68098,-40.73409 -0.2876,-19.89793 -0.48754,-39.79847 -0.51118,-59.69854 -0.23211,-22.22322 -0.314,-44.44649 -0.42473,-66.67036 -0.001,-3.41431 0.0104,-6.82864 -0.004,-10.24292 -0.0476,-11.52208 -0.13495,-7.71212 -0.07,-18.94111 0.0464,-8.02013 0.19283,-16.04047 0.33204,-24.05957 0.43154,-8.05663 0.34545,-16.23783 2.78528,-24.05163 3.87934,-9.4546 10.35553,-10.8166 13.61859,-4.0118 0.66437,1.4829 0.8487,3.1185 1.16028,4.6995 1.53275,7.7779 0.94348,15.6971 1.13669,23.55743 -0.11018,17.66626 0.13355,35.33283 0.0716,52.99927 0.025,22.21346 0.15529,44.42656 0.13688,66.64014 0.17284,19.85334 0.0957,39.70741 0.30438,59.56053 -0.0209,13.53608 0.003,27.07125 -0.17129,40.60695 0.084,7.6498 0.0815,20.9151 0.003,28.5651 -1.05704,10.7313 -10.02424,9.7064 -14.67953,4.0225 z"
       inkscape:connector-curvature="0"
       sodipodi:nodetypes="ccccccsscccsccccccc" />
    <path
       style="fill:#d40000;fill-opacity:1;stroke:none"
       id="path3029-4"
       d="m 288.40477,1048.3322 c -4.87892,1.1358 -6.02586,0.9959 -9.30026,1.1997 -7.56098,0.2797 -15.12829,0.2798 -22.69169,0.4812 -13.46346,0.7101 -26.93506,1.0192 -40.41032,1.2691 -19.73444,0.086 -39.47058,0.085 -59.20448,-0.092 -22.03972,0.01 -44.07798,-0.1354 -66.117138,-0.2493 -3.385766,-0.034 -6.771436,-0.079 -10.157266,-0.1035 -11.426216,-0.069 -7.648985,0.057 -18.78343,-0.1215 -7.952595,-0.1271 -15.904378,-0.3551 -23.855008,-0.5753 -7.984916,-0.513 -16.09857,-0.5096 -23.822581,-3.0282 -9.3366479,-3.9748 -10.6223397,-10.4645 -3.841657,-13.6585 1.477112,-0.6494 3.100843,-0.8171 4.671826,-1.1127 7.728171,-1.4541 15.575254,-0.7848 23.371734,-0.8985 17.517433,0.2888 35.038723,0.2236 52.556818,0.4638 22.027982,0.1996 44.056642,0.2939 66.084292,0.5368 19.68906,0.028 39.37633,0.3055 59.06553,0.2978 13.42268,0.1578 26.84489,0.2737 40.26563,0.5818 7.58668,-0.01 20.74106,0.1295 28.32625,0.2888 10.63099,1.1655 9.52473,10.1219 3.84177,14.7195 z"
       inkscape:connector-curvature="0"
       sodipodi:nodetypes="ccccccsscccsccccccc" />
    <path
       style="fill:#d40000;fill-opacity:1;stroke:none"
       id="path3107"
       d="m 150.80705,143.57336 c 4.27979,1.64991 8.70382,2.77021 13.26636,3.3018 1.44332,0.16816 2.89684,0.23254 4.34526,0.34882 5.85697,0.0998 11.84017,0.0867 17.50601,-1.6241 3.15261,-0.95195 3.85807,-1.52497 6.66825,-3.07172 4.95575,-3.5031 8.42315,-8.54445 10.11142,-14.37505 0.36595,-1.26386 0.54975,-2.5735 0.82463,-3.86024 0.0819,-1.30232 0.28671,-2.60271 0.24579,-3.90696 -0.12625,-4.02331 -1.44716,-7.99772 -3.68809,-11.33669 -2.15531,-3.21141 -3.55641,-4.15417 -6.43326,-6.77432 -3.70066,-2.441504 -5.50086,-3.869552 -9.68244,-5.604518 -6.34513,-2.632639 -13.40774,-3.845751 -20.24765,-4.02844 -2.70748,-0.07232 -5.41466,0.155514 -8.12198,0.233271 -16.26068,1.880799 -32.10843,6.976155 -46.01008,15.731257 -2.87149,1.80843 -5.53451,3.92846 -8.30177,5.89269 -2.36394,2.20471 -4.912865,4.22642 -7.091823,6.61412 -5.479456,6.00437 -10.031148,13.51069 -11.138456,21.69847 -0.845062,6.24864 0.16639,7.85797 1.668897,13.83291 1.124488,2.25625 2.07085,4.61044 3.373464,6.76877 4.972679,8.23931 12.020588,14.97499 19.764448,20.59221 7.53364,5.46473 12.41041,7.78461 20.61606,12.27742 15.29529,7.44618 31.8047,11.70852 48.23135,15.80247 3.85379,0.96047 7.74563,1.775 11.56981,2.84729 3.85784,1.08173 7.643,2.40766 11.4645,3.61149 3.82975,-0.22749 4.15146,5.1886 0.32172,5.41608 l 0,0 c -4.20155,1.6804 -8.20824,3.96956 -12.60464,5.04119 -4.4662,1.08865 -9.1252,1.35042 -13.7221,1.37599 -14.37875,0.08 -28.9349,-4.01336 -42.18788,-9.24968 -4.54498,-1.79574 -8.92779,-3.97754 -13.39168,-5.96631 -4.22533,-2.30618 -8.58654,-4.3792 -12.676,-6.91855 -14.260886,-8.85528 -29.003781,-21.80943 -36.247313,-37.27939 -1.677315,-3.58224 -2.554417,-7.48719 -3.831626,-11.23079 -1.048764,-9.98623 -2.204246,-12.66559 0.197315,-22.56592 2.704005,-11.14714 9.324132,-20.73635 17.433057,-28.63499 2.813089,-2.74013 5.981865,-5.08965 8.972797,-7.63447 3.327913,-2.193462 6.539164,-4.575093 9.98374,-6.580377 12.98774,-7.560905 28.43406,-12.969158 43.3593,-14.878859 3.40823,-0.436087 6.85606,-0.468327 10.28408,-0.702491 3.21949,0.09334 6.44838,0.01692 9.65846,0.280024 10.6666,0.874244 22.12681,4.102355 31.26965,9.79625 2.04409,1.273002 3.87486,2.860208 5.8123,4.290312 4.3113,4.22886 5.72695,5.075834 8.8548,10.249031 3.28034,5.42541 5.00878,11.47967 5.12989,17.81186 0.0376,1.96662 -0.23942,3.92667 -0.35913,5.89001 -0.42393,1.8715 -0.71981,3.77669 -1.27178,5.6145 -2.10341,7.00345 -6.11093,13.53832 -11.75047,18.24146 -1.37557,1.14716 -2.92186,2.07254 -4.38278,3.10881 -1.59368,0.80457 -3.13336,1.72646 -4.78103,2.4137 -6.67907,2.7858 -14.29683,3.83309 -21.49585,3.61001 -1.82032,-0.0564 -3.62918,-0.30995 -5.44377,-0.46493 -6.85861,-1.11186 -14.29374,-2.37731 -20.22082,-6.28827 -0.63952,-0.42199 -1.19728,-0.95643 -1.79592,-1.43464 -5.85521,-4.20374 0.0898,-12.48424 5.94498,-8.28051 z"
       inkscape:connector-curvature="0"
       transform="translate(0,752.36218)" />
  </g>
</svg>
