<?xml version="1.0" encoding="utf-8"?>
<!-- Generator: Adobe Illustrator 21.0.2, SVG Export Plug-In . SVG Version: 6.00 Build 0)  -->
<svg xmlns="http://www.w3.org/2000/svg" xmlns:xlink="http://www.w3.org/1999/xlink" version="1.1" id="Layer_1" x="0px" y="0px" viewBox="0 0 48 48" style="enable-background:new 0 0 48 48;" xml:space="preserve" fill="000000">
<g id="surface1">
	<g>
		<path style="fill:#DD2C00;" d="M25,29.1l1,7.9"/>
		<path style="fill:#DD2C00;" d="M26,38c-0.5,0-0.9-0.4-1-0.9l-1-7.9c-0.1-0.5,0.3-1,0.9-1.1c0.5-0.1,1,0.3,1.1,0.9l1,7.9    c0.1,0.5-0.3,1-0.9,1.1C26.1,38,26,38,26,38z"/>
	</g>
	<path style="fill:#DD2C00;" d="M33,38c-1,0-2,1-2,2l-4.5-1C26,39,25,38.3,25,37.5s0.7-1.5,1.5-1.5H32C31,37,33,38,33,38z"/>
	<path style="fill:#FF3D00;" d="M24,40c-0.5,0-0.9-0.4-1-0.9l-1-7.9c-0.1-0.5,0.3-1,0.9-1.1c0.5-0.1,1,0.3,1.1,0.9l1,7.9   c0.1,0.5-0.3,1-0.9,1.1C24.1,40,24,40,24,40z"/>
	<path style="fill:#FF3D00;" d="M31,40c-1,0-2,1-2,2l-4.5-1C24,41,23,40.3,23,39.5s0.7-1.5,1.5-1.5H30C29,39,31,40,31,40z"/>
	<path style="fill:#BCAAA4;" d="M35,17c0,0,7,3,7,8c0,0,1,8-13,9s-14-2-15-3c-1-1-6-6.3-6-6.3S19,19,28,19C32,19,35,17,35,17z"/>
	<path style="fill:#795548;" d="M42,25c0-5-7-8-7-8s-3,2-7,2c0,0,7,3,4,7c4,1.4,5.2,3.5,6,5.6C42.5,28.9,42,25,42,25z"/>
	<path style="fill:#4E342E;" d="M12,29l2,2c0,0,0-1,1-2S12,29,12,29z"/>
	<path style="fill:#4E342E;" d="M28,19c0.1,0,0.1,0,0.2,0C28.1,19,28.1,19,28,19c-9,0-23,5-23,5s2.5,3.2,5.6,2.2   c4.8-1.5,12.6-3.2,21.6-4C30.9,20.3,28,19,28,19z"/>
	<path style="fill:#4CAF50;" d="M37,10.5c0,2.5-2,4.5-4.5,4.5S28,13,28,10.5S30,6,32.5,6S37,8,37,10.5z"/>
	<path style="fill:#4CAF50;" d="M28,10c0,0-1,4,0,9c5,2,7-2,7-2s-2-1,1-4L28,10z"/>
	<path style="fill:#EFEBE9;" d="M36,17.5c-0.6-0.3-1-0.5-1-0.5s-0.4-0.2-0.6-0.7c-1,1-3.2,2.2-6.8,0.3c0.1,0.7,0.2,1.5,0.3,2.3   c1.2,0.4,2.2,0.6,3.1,0.6C33.5,19.6,35.2,18.4,36,17.5z"/>
	<path style="fill:#FBC02D;" d="M43,13c0,0.6-0.5,0.9-1,1c-0.5,0.1-1-0.4-1-1s0.4-1,1-1S43,12.4,43,13z"/>
	<path style="fill:#FBC02D;" d="M37,10c0,0,1.7,2,5,2c1,0,0,2,0,2s-4.1,1.3-7.1,0.3C36.7,13.1,37,11,37,10z"/>
	<path style="fill:#004D40;" d="M34.7,9.3C35.1,9.7,35,11,35,11s-1.3,0.1-1.7-0.3S33,9,33,9S34.3,8.9,34.7,9.3z"/>
	<path style="fill:#6B4C07;" d="M38.6,12.2c0-0.1-0.2-0.3-0.4-0.4s-0.5,0-0.6,0.1s0.2,0.3,0.4,0.4C38.4,12.4,38.6,12.3,38.6,12.2z"/>
	<path style="fill:#A1887F;" d="M32,22C32,22,32,22,32,22C23,22,7,27,7,27s2.3,3.2,5.2,2.8C17.4,29,25.6,27.9,32,26   C33.1,24.5,32.8,23.1,32,22z"/>
</g>
</svg>
