<?xml version="1.0" encoding="utf-8"?>
<!-- Generator: Adobe Illustrator 21.0.2, SVG Export Plug-In . SVG Version: 6.00 Build 0)  -->
<svg xmlns="http://www.w3.org/2000/svg" xmlns:xlink="http://www.w3.org/1999/xlink" version="1.1" id="Layer_1" x="0px" y="0px" viewBox="0 0 48 48" style="enable-background:new 0 0 48 48;" xml:space="preserve" fill="000000">
<g id="surface1">
	<path style="fill:#CFD8DC;" d="M36,24h2v16h-2V24z"/>
	<path style="fill:#CFD8DC;" d="M10,24h2v16h-2V24z"/>
	<path style="fill:#CFD8DC;" d="M3,31h16v2H3V31z"/>
	<path style="fill:#CFD8DC;" d="M6,38.4l-1.4-1.4l11.3-11.3l1.4,1.4L6,38.4z"/>
	<path style="fill:#CFD8DC;" d="M17.4,36.9l-1.4,1.4L4.6,27.1l1.4-1.4L17.4,36.9z"/>
	<path style="fill:#CFD8DC;" d="M29,31h16v2H29V31z"/>
	<path style="fill:#CFD8DC;" d="M32.1,38.4l-1.4-1.4l11.3-11.3l1.4,1.4L32.1,38.4z"/>
	<path style="fill:#CFD8DC;" d="M43.4,36.9l-1.4,1.4L30.6,27.1l1.4-1.4L43.4,36.9z"/>
	<path style="fill:#607D8B;" d="M11,41c-5,0-9-4-9-9s4-9,9-9s9,4,9,9S16,41,11,41z M11,25c-3.9,0-7,3.1-7,7s3.1,7,7,7s7-3.1,7-7   S14.9,25,11,25z"/>
	<path style="fill:#607D8B;" d="M37,41c-5,0-9-4-9-9s4-9,9-9s9,4,9,9S42,41,37,41z M37,25c-3.9,0-7,3.1-7,7s3.1,7,7,7s7-3.1,7-7   S40.9,25,37,25z"/>
	<path style="fill:#F50057;" d="M37,33c-0.4,0-0.7-0.2-0.9-0.5c-6-11-8-21.8-8.1-22.3c-0.1-0.3,0-0.6,0.3-0.9   C28.5,9.1,28.8,9,29.1,9c0,0,3.7,0.5,5-1.6c0.3-0.5,0.9-0.6,1.4-0.3c0.5,0.3,0.6,0.9,0.3,1.4c-1.4,2.1-4,2.5-5.6,2.5   c0.7,3.2,2.9,11.9,7.6,20.5c0.3,0.5,0.1,1.1-0.4,1.4C37.3,33,37.2,33,37,33z"/>
	<path style="fill:#F50057;" d="M23,33H11c-0.3,0-0.6-0.2-0.8-0.4c-0.2-0.3-0.2-0.6-0.1-0.9l6-14c0.2-0.4,0.5-0.6,0.9-0.6h14   c0.6,0,1,0.4,1,1v1c0,0.2-0.1,0.4-0.1,0.5l-8,13C23.7,32.8,23.3,33,23,33z M12.5,31h9.9l7.4-12H17.7L12.5,31z"/>
	<path style="fill:#F50057;" d="M23,33c-0.4,0-0.8-0.2-0.9-0.6l-7-18c-0.2-0.5,0.1-1.1,0.6-1.3c0.5-0.2,1.1,0.1,1.3,0.6l7,18   c0.2,0.5-0.1,1.1-0.6,1.3C23.2,33,23.1,33,23,33z"/>
	<path style="fill:#455A64;" d="M35.6,7.2c-0.5-0.3-1.1-0.2-1.4,0.3c-0.6,0.8-1.5,1.2-2.4,1.4l0.5,1.9c1.3-0.3,2.7-0.9,3.6-2.3   C36.1,8.1,36,7.5,35.6,7.2z"/>
	<path style="fill:#AD1457;" d="M26,33c0,1.7-1.3,3-3,3s-3-1.3-3-3s1.3-3,3-3S26,31.3,26,33z"/>
	<path style="fill:#AD1457;" d="M13,32c0,1.1-0.9,2-2,2s-2-0.9-2-2s0.9-2,2-2S13,30.9,13,32z"/>
	<path style="fill:#AD1457;" d="M23,30H11v4l12,2V30z"/>
	<path style="fill:#880E4F;" d="M20,13c-3,0-5,2-6.5,2S12,13.5,12,13.5v-1c0-0.8,0.7-1.5,1.5-1.5H20c0,0,1,0,1,1C21,12,21,13,20,13z   "/>
</g>
</svg>
