<?xml version="1.0"?>
<svg xmlns="http://www.w3.org/2000/svg" xmlns:xlink="http://www.w3.org/1999/xlink" version="1.1" viewBox="0 0 172 172" fill="000000"><g fill="none" fill-rule="nonzero" stroke="none" stroke-width="1" stroke-linecap="butt" stroke-linejoin="miter" stroke-miterlimit="10" stroke-dasharray="" stroke-dashoffset="0" font-family="none" font-weight="none" font-size="none" text-anchor="none" style="mix-blend-mode: normal"><path d="M0,172v-172h172v172z" fill="none"/><g><g id="surface1"><path d="M72.38053,30.82227l-7.88053,-16.48893l13.61947,12.17774z" fill="#795548"/><path d="M23.48763,64.12207l-12.73763,-10.37207l15.92904,3.96126z" fill="#795548"/><path d="M32.25,53.75l3.58333,-17.91667l3.58333,17.91667z" fill="#795548"/><path d="M82.41667,25.08333l3.58333,-17.91667l3.58333,17.91667z" fill="#795548"/><path d="M97.12793,27.07097l10.37207,-12.73763l-3.96126,15.92904z" fill="#795548"/><path d="M109.0957,36.43522l12.73763,-4.18522l-8.76237,10.14811z" fill="#795548"/><path d="M62.9043,42.62207l-12.73763,-10.37207l15.92904,3.96126z" fill="#795548"/><path d="M26.67904,78.4554l-15.92904,3.96126l12.73763,-10.37207z" fill="#795548"/><path d="M34.23763,99.73144l-12.73763,4.18522l8.76237,-10.14811z" fill="#795548"/><path d="M49.56478,113.07097l-10.14811,8.76237l4.18522,-12.73763z" fill="#795548"/><path d="M111.08333,53.75l14.33333,3.58333l-14.33333,3.58333z" fill="#795548"/><path d="M44.04981,54.79981l9.70019,-4.63314l-4.63314,9.70019z" fill="#795548"/><path d="M132.68132,95.88216l7.06868,-13.4655l-0.09798,15.20117z" fill="#795548"/><path d="M142.4655,100.43132l15.20117,-0.09798l-13.46549,7.06868z" fill="#795548"/><path d="M111.08333,71.66667l14.33333,3.58333l-14.33333,3.58333z" fill="#795548"/><path d="M140.61784,118.34798l13.46549,7.06868l-15.20117,-0.09798z" fill="#795548"/><path d="M122.88314,102.86686l-8.21647,-13.28353l13.28353,8.21647z" fill="#795548"/><path d="M131.98144,130.5957l4.18522,12.73763l-10.14811,-8.76237z" fill="#795548"/><path d="M105.70833,141.54167c-6.92871,0 -12.54167,-0.23795 -12.54167,-7.16667c0,-6.92871 5.61295,-10.75 12.54167,-10.75c13.85742,0 16.139,-18.74251 16.22298,-19.48437c0.85384,-6.87272 7.15267,-11.74382 13.9974,-10.87598c6.87272,0.85384 11.74382,7.12467 10.88997,13.9974c-1.72168,13.71745 -12.51367,34.27962 -41.11035,34.27962z" fill="#2ecc71"/><path d="M60.93066,118.25c-1.31575,0 -2.63151,-0.18197 -3.94726,-0.5459c-28.00879,-8.00651 -35.4834,-37.20508 -35.4834,-53.2041c0,-7.92252 6.41081,-14.33333 14.33333,-14.33333c7.89453,0 14.29134,6.36882 14.33333,14.26335c0.014,0.5459 -3.38737,31.85807 10.75,35.90332c7.61458,2.1696 15.95703,-0.08398 13.78743,7.5306c-1.80566,6.28483 -7.54459,10.38607 -13.77344,10.38607z" fill="#2ecc71"/><path d="M64.5,164.83333c0,0 -7.16667,-61.49056 -7.16667,-114.66667c0,-17.91667 12.83561,-28.66667 28.66667,-28.66667c15.83106,0 28.66667,10.75 28.66667,28.66667c0,17.91667 -7.16667,114.66667 -7.16667,114.66667z" fill="#2ecc71"/><path d="M100.31934,51.5804c-0.25195,10.40007 -5.16504,88.92546 -6.70475,113.25293h7.20866c1.69368,-26.95898 6.41081,-102.57292 6.66276,-113.18294c1.56771,-19.40039 -14.92123,-29.99642 -21.486,-30.15039c5.71094,3.09342 15.99902,13.14356 14.31934,30.0804z" fill="#00962c"/><path d="M71.00879,164.83333h7.19466c-1.56771,-25.64323 -6.27083,-102.97884 -6.52279,-113.25293c-1.67969,-16.93685 8.6084,-26.98698 14.31934,-30.0804c-6.56478,0.15397 -23.05371,10.75 -21.486,30.15039c0.25195,10.48405 4.78711,85.10417 6.49479,113.18294z" fill="#00962c"/><path d="M82.41667,100.33333v64.5h7.16667v-103.91667c0,0 0,-28.66667 -3.58333,-39.41667c-3.58333,10.75 -3.58333,39.41667 -3.58333,39.41667z" fill="#00962c"/><path d="M59.26498,104.7985c-2.40755,-1.04981 -4.70312,-2.32357 -6.76074,-3.89128c-4.60514,-3.51334 -8.0765,-8.38444 -10.33008,-13.89941c-2.26758,-5.51497 -3.41536,-11.58984 -3.79329,-17.7347c-0.83984,-8.10449 -1.65169,-15.67708 -2.54753,-19.10644c-2.04362,2.92545 -5.8929,11.00195 -4.60514,19.55436c0.43392,6.74675 1.67969,13.54948 4.32519,20.03027c2.61751,6.4388 6.88672,12.49967 12.59766,16.83887c2.35156,1.79167 7.61458,5.45898 11.60384,5.47298c-0.16797,-2.37956 -0.32194,-4.78711 -0.48991,-7.26465z" fill="#00962c"/><path d="M136.29264,93.16667c-1.03581,2.50553 -3.2194,10.94597 -3.59733,12.96159c-0.75586,4.03125 -2.32357,7.83854 -4.70312,11.05794c-2.35156,3.2194 -5.52897,5.83691 -9.1683,7.76856c-1.32975,0.72786 -5.69694,2.19759 -8.70638,3.2194c-0.18197,2.65951 -0.37793,5.24902 -0.5459,7.75456c4.15723,-0.83984 10.778,-3.63932 12.65365,-4.64714c4.40918,-2.35156 8.49642,-5.68294 11.53385,-9.85417c3.06543,-4.14323 5.03906,-9.01432 5.97689,-13.9554c0.13997,-7.13867 -1.53972,-12.31771 -3.44336,-14.30534z" fill="#00962c"/></g></g></g></svg>
