<?xml version="1.0" encoding="UTF-8"?>
<svg xmlns="http://www.w3.org/2000/svg" xmlns:xlink="http://www.w3.org/1999/xlink" fill="000000" viewBox="0 0 38 38" version="1.1">
<g id="surface134625">
<path style=" stroke:none;fill-rule:nonzero;fill:rgb(69.019608%,74.509804%,77.254902%);fill-opacity:1;" d="M 8.707031 18.207031 C 6.960938 18.207031 5.542969 19.625 5.542969 21.375 C 5.542969 23.125 6.960938 24.542969 8.707031 24.542969 C 10.457031 24.542969 11.875 23.125 11.875 21.375 C 11.875 19.625 10.457031 18.207031 8.707031 18.207031 Z M 17.417969 21.375 C 15.667969 21.375 14.25 22.792969 14.25 24.542969 C 14.25 26.289062 15.667969 27.707031 17.417969 27.707031 C 19.164062 27.707031 20.582031 26.289062 20.582031 24.542969 C 20.582031 22.792969 19.164062 21.375 17.417969 21.375 Z M 17.417969 21.375 "/>
<path style=" stroke:none;fill-rule:nonzero;fill:rgb(69.019608%,74.509804%,77.254902%);fill-opacity:1;" d="M 12.667969 20.582031 C 10.917969 20.582031 9.5 22 9.5 23.75 C 9.5 25.5 10.917969 26.917969 12.667969 26.917969 C 14.414062 26.917969 15.832031 25.5 15.832031 23.75 C 15.832031 22 14.414062 20.582031 12.667969 20.582031 Z M 22.167969 20.582031 C 20.417969 20.582031 19 22 19 23.75 C 19 25.5 20.417969 26.917969 22.167969 26.917969 C 23.914062 26.917969 25.332031 25.5 25.332031 23.75 C 25.332031 22 23.914062 20.582031 22.167969 20.582031 Z M 22.167969 20.582031 "/>
<path style=" stroke:none;fill-rule:nonzero;fill:rgb(81.176471%,84.705882%,86.27451%);fill-opacity:1;" d="M 7.125 18.207031 C 6.25 18.207031 5.542969 18.917969 5.542969 19.792969 C 5.542969 20.667969 6.25 21.375 7.125 21.375 C 8 21.375 8.707031 20.667969 8.707031 19.792969 C 8.707031 18.917969 8 18.207031 7.125 18.207031 Z M 7.125 18.207031 "/>
<path style=" stroke:none;fill-rule:nonzero;fill:rgb(81.176471%,84.705882%,86.27451%);fill-opacity:1;" d="M 11.082031 17.417969 C 9.335938 17.417969 7.917969 18.835938 7.917969 20.582031 C 7.917969 22.332031 9.335938 23.75 11.082031 23.75 C 12.832031 23.75 14.25 22.332031 14.25 20.582031 C 14.25 18.835938 12.832031 17.417969 11.082031 17.417969 Z M 11.082031 17.417969 "/>
<path style=" stroke:none;fill-rule:nonzero;fill:rgb(81.176471%,84.705882%,86.27451%);fill-opacity:1;" d="M 15.832031 18.207031 C 14.085938 18.207031 12.667969 19.625 12.667969 21.375 C 12.667969 23.125 14.085938 24.542969 15.832031 24.542969 C 17.582031 24.542969 19 23.125 19 21.375 C 19 19.625 17.582031 18.207031 15.832031 18.207031 Z M 15.832031 18.207031 "/>
<path style=" stroke:none;fill-rule:nonzero;fill:rgb(81.176471%,84.705882%,86.27451%);fill-opacity:1;" d="M 21.375 18.207031 C 19.625 18.207031 18.207031 19.625 18.207031 21.375 C 18.207031 23.125 19.625 24.542969 21.375 24.542969 C 23.125 24.542969 24.542969 23.125 24.542969 21.375 C 24.542969 19.625 23.125 18.207031 21.375 18.207031 Z M 28.5 19 C 28.5 19 28.441406 19 28.359375 19.015625 C 28.035156 18.089844 27.164062 17.417969 26.125 17.417969 C 25.851562 17.417969 25.597656 17.472656 25.355469 17.554688 C 25.710938 17.226562 25.96875 16.792969 26.074219 16.300781 C 25.160156 16.855469 24.542969 17.851562 24.542969 19 C 24.542969 20.75 25.960938 22.167969 27.707031 22.167969 C 29.457031 22.167969 30.875 20.75 30.875 19 C 30.875 18.976562 30.867188 18.953125 30.867188 18.929688 C 29.824219 19 28.851562 19 28.5 19 Z M 27.707031 11.875 C 27.707031 11.277344 27.480469 10.738281 27.117188 10.324219 C 27.730469 10.363281 28.476562 10.46875 29.257812 10.738281 C 29.082031 9.15625 27.757812 7.917969 26.125 7.917969 C 24.375 7.917969 22.957031 9.335938 22.957031 11.082031 C 22.957031 12.675781 24.140625 13.984375 25.671875 14.203125 C 26.820312 14.039062 27.707031 13.070312 27.707031 11.875 Z M 27.707031 11.875 "/>
<path style=" stroke:none;fill-rule:nonzero;fill:rgb(81.176471%,84.705882%,86.27451%);fill-opacity:1;" d="M 23.75 13.457031 C 22.4375 13.457031 21.375 14.523438 21.375 15.832031 C 21.375 17.144531 22.4375 18.207031 23.75 18.207031 C 25.0625 18.207031 26.125 17.144531 26.125 15.832031 C 26.125 14.523438 25.0625 13.457031 23.75 13.457031 Z M 23.75 13.457031 "/>
<path style=" stroke:none;fill-rule:nonzero;fill:rgb(81.176471%,84.705882%,86.27451%);fill-opacity:1;" d="M 26.125 17.417969 C 24.8125 17.417969 23.75 18.480469 23.75 19.792969 C 23.75 21.101562 24.8125 22.167969 26.125 22.167969 C 27.4375 22.167969 28.5 21.101562 28.5 19.792969 C 28.5 18.480469 27.4375 17.417969 26.125 17.417969 Z M 25.332031 9.5 C 24.023438 9.5 22.957031 10.5625 22.957031 11.875 C 22.957031 13.1875 24.023438 14.25 25.332031 14.25 C 26.644531 14.25 27.707031 13.1875 27.707031 11.875 C 27.707031 10.5625 26.644531 9.5 25.332031 9.5 Z M 8.707031 9.5 C 6.960938 9.5 5.542969 10.917969 5.542969 12.667969 C 5.542969 14.414062 6.960938 15.832031 8.707031 15.832031 C 10.457031 15.832031 11.875 14.414062 11.875 12.667969 C 11.875 10.917969 10.457031 9.5 8.707031 9.5 Z M 8.707031 9.5 "/>
<path style=" stroke:none;fill-rule:nonzero;fill:rgb(81.176471%,84.705882%,86.27451%);fill-opacity:1;" d="M 22.167969 5.542969 C 20.417969 5.542969 19 6.960938 19 8.707031 C 19 10.457031 20.417969 11.875 22.167969 11.875 C 23.914062 11.875 25.332031 10.457031 25.332031 8.707031 C 25.332031 6.960938 23.914062 5.542969 22.167969 5.542969 Z M 26.125 18.207031 C 24.375 18.207031 22.957031 19.625 22.957031 21.375 C 22.957031 23.125 24.375 24.542969 26.125 24.542969 C 27.875 24.542969 29.292969 23.125 29.292969 21.375 C 29.292969 19.625 27.875 18.207031 26.125 18.207031 Z M 7.125 13.457031 C 5.375 13.457031 3.957031 14.875 3.957031 16.625 C 3.957031 18.375 5.375 19.792969 7.125 19.792969 C 8.875 19.792969 10.292969 18.375 10.292969 16.625 C 10.292969 14.875 8.875 13.457031 7.125 13.457031 Z M 12.667969 6.332031 C 10.917969 6.332031 9.5 7.75 9.5 9.5 C 9.5 11.25 10.917969 12.667969 12.667969 12.667969 C 14.414062 12.667969 15.832031 11.25 15.832031 9.5 C 15.832031 7.75 14.414062 6.332031 12.667969 6.332031 Z M 12.667969 6.332031 "/>
<path style=" stroke:none;fill-rule:nonzero;fill:rgb(81.176471%,84.705882%,86.27451%);fill-opacity:1;" d="M 17.417969 4.75 C 15.667969 4.75 14.25 6.167969 14.25 7.917969 C 14.25 9.664062 15.667969 11.082031 17.417969 11.082031 C 19.164062 11.082031 20.582031 9.664062 20.582031 7.917969 C 20.582031 6.167969 19.164062 4.75 17.417969 4.75 Z M 17.417969 4.75 "/>
<path style=" stroke:none;fill-rule:nonzero;fill:rgb(81.176471%,84.705882%,86.27451%);fill-opacity:1;" d="M 7.917969 12.667969 L 7.917969 19 L 15.832031 22.957031 L 29.292969 17.417969 L 29.292969 13.457031 L 15.042969 7.917969 Z M 7.917969 12.667969 "/>
<path style=" stroke:none;fill-rule:nonzero;fill:rgb(55.294118%,43.137255%,38.823529%);fill-opacity:1;" d="M 11.082031 23.75 C 10.164062 23.75 9.34375 23.351562 8.769531 22.722656 C 9.105469 25.730469 9.316406 30.238281 9.695312 32.109375 C 9.925781 33.3125 10.195312 33.257812 10.457031 33.257812 C 10.726562 33.257812 10.875 33.257812 11.089844 33.257812 C 11.589844 33.257812 11.570312 31.601562 11.570312 31.601562 C 11.570312 31.601562 11.671875 27.878906 12.253906 23.511719 C 11.890625 23.664062 11.5 23.75 11.082031 23.75 Z M 23.292969 23.875 C 22.761719 24.289062 22.101562 24.542969 21.375 24.542969 C 20.890625 24.542969 20.433594 24.425781 20.023438 24.230469 C 20.234375 27.296875 20.789062 31.066406 21.050781 32.414062 C 21.214844 33.285156 21.4375 33.246094 21.65625 33.246094 C 21.886719 33.246094 22.296875 33.246094 22.476562 33.246094 C 22.886719 33.246094 22.921875 32.042969 22.921875 32.042969 C 22.921875 32.042969 22.878906 27.199219 23.292969 23.875 Z M 23.292969 23.875 "/>
<path style=" stroke:none;fill-rule:nonzero;fill:rgb(47.45098%,33.333333%,28.235294%);fill-opacity:1;" d="M 34.636719 15.835938 C 34.636719 15.835938 31.667969 11.875 30.082031 11.085938 C 29.011719 10.546875 27.945312 10.378906 27.117188 10.324219 C 27.480469 10.738281 27.707031 11.277344 27.707031 11.875 C 27.707031 13.128906 26.730469 14.148438 25.496094 14.234375 C 25.882812 14.65625 26.125 15.214844 26.125 15.832031 C 26.125 16.519531 25.820312 17.121094 25.355469 17.554688 C 25.597656 17.472656 25.851562 17.417969 26.125 17.417969 C 27.164062 17.417969 28.035156 18.089844 28.359375 19.015625 C 28.441406 19 28.5 19 28.5 19 C 29.292969 19 33.25 19 34.042969 18.207031 C 35.625 16.625 34.636719 15.835938 34.636719 15.835938 Z M 34.636719 15.835938 "/>
<path style=" stroke:none;fill-rule:nonzero;fill:rgb(30.588235%,20.392157%,18.039216%);fill-opacity:1;" d="M 29.292969 11.875 C 28.417969 11.875 27.707031 12.582031 27.707031 13.457031 C 27.707031 14.332031 28.417969 15.042969 29.292969 15.042969 C 30.167969 15.042969 30.875 14.332031 30.875 13.457031 C 30.875 12.582031 30.167969 11.875 29.292969 11.875 Z M 29.292969 11.875 "/>
<path style=" stroke:none;fill-rule:nonzero;fill:rgb(100%,75.686275%,2.745098%);fill-opacity:1;" d="M 28.574219 13.457031 C 28.527344 13.582031 28.5 13.714844 28.5 13.855469 C 28.5 14.511719 29.03125 15.042969 29.6875 15.042969 C 30.34375 15.042969 30.875 14.511719 30.875 13.855469 C 30.875 13.714844 30.847656 13.582031 30.800781 13.457031 Z M 28.574219 13.457031 "/>
<path style=" stroke:none;fill-rule:nonzero;fill:rgb(0%,0%,0%);fill-opacity:1;" d="M 29.6875 14.25 C 30.125 14.25 30.480469 13.894531 30.480469 13.457031 L 28.894531 13.457031 C 28.894531 13.894531 29.25 14.25 29.6875 14.25 Z M 29.6875 14.25 "/>
<path style=" stroke:none;fill-rule:nonzero;fill:rgb(36.470588%,25.098039%,21.568627%);fill-opacity:1;" d="M 26.878906 24.441406 C 26.636719 24.5 26.386719 24.542969 26.125 24.542969 C 25.851562 24.542969 25.59375 24.496094 25.339844 24.429688 C 25.308594 24.441406 25.277344 24.453125 25.246094 24.460938 C 25.078125 25.1875 24.660156 25.808594 24.089844 26.25 C 24.539062 28.925781 25.074219 31.039062 25.421875 32.34375 C 25.671875 33.292969 25.890625 33.246094 26.109375 33.246094 C 26.339844 33.246094 26.75 33.246094 26.929688 33.246094 C 27.34375 33.246094 27.265625 31.941406 27.265625 31.941406 C 27.265625 31.941406 26.816406 27.914062 26.878906 24.441406 Z M 25.332031 10.292969 C 25.332031 10.292969 21.183594 10.164062 20.683594 10.667969 C 20.183594 11.167969 21.683594 12.667969 23.183594 12.667969 C 24.683594 12.667969 24.332031 11.875 25.332031 11.875 M 14.984375 26.546875 C 14.878906 26.417969 14.785156 26.289062 14.703125 26.144531 C 14.148438 26.617188 13.449219 26.917969 12.667969 26.917969 C 12.589844 26.917969 12.519531 26.898438 12.445312 26.894531 C 12.964844 29.191406 13.585938 31.171875 13.875 32.296875 C 14.125 33.308594 14.34375 33.253906 14.5625 33.253906 C 14.78125 33.253906 15.355469 33.253906 15.523438 33.253906 C 15.769531 33.253906 15.695312 32.078125 15.695312 32.078125 C 15.695312 32.078125 15.070312 29.660156 14.984375 26.546875 Z M 5.542969 19.792969 C 5.542969 19.648438 5.566406 19.515625 5.601562 19.382812 C 5.492188 19.324219 5.382812 19.261719 5.28125 19.191406 C 4.722656 20.289062 3.402344 21.160156 2.8125 21.457031 C 2.421875 21.65625 2.261719 22.132812 2.460938 22.519531 C 2.597656 22.796875 2.878906 22.957031 3.167969 22.957031 C 3.285156 22.957031 3.40625 22.929688 3.519531 22.875 C 3.597656 22.835938 4.613281 22.316406 5.546875 21.414062 C 5.546875 21.398438 5.542969 21.386719 5.542969 21.375 C 5.542969 21.050781 5.59375 20.738281 5.6875 20.445312 C 5.59375 20.246094 5.542969 20.027344 5.542969 19.792969 Z M 5.542969 19.792969 "/>
<path style=" stroke:none;fill-rule:nonzero;fill:rgb(36.470588%,25.098039%,21.568627%);fill-opacity:1;" d="M 24.542969 11.082031 C 24.542969 10.644531 24.894531 10.292969 25.332031 10.292969 C 25.769531 10.292969 26.125 10.644531 26.125 11.082031 C 26.125 11.519531 25.769531 11.875 25.332031 11.875 C 24.894531 11.875 24.542969 11.519531 24.542969 11.082031 Z M 24.542969 11.082031 "/>
</g>
</svg>
