<?xml version="1.0" encoding="UTF-8"?>
<svg xmlns="http://www.w3.org/2000/svg" xmlns:xlink="http://www.w3.org/1999/xlink" viewBox="0 0 48 48" version="1.1" fill="000000">
<g id="surface1">
<path style=" fill:#FFE082;" d="M 35 11 C 36 11 42 10 42 19 C 42 28 29 44 11 44 C 9 44 7 43 7 43 L 6 40 C 6 40 7 36 13 33 C 19 30 23.261719 27.484375 25.8125 24.9375 C 27.8125 22.9375 31 19 31 16 C 31 14.042969 33 12 33 12 "/>
<path style=" fill:#FFCA28;" d="M 8 41 C 8 41 15 39 21 36 C 27 33 40 24 36 11 C 36 11 42 10 42 19 C 42 28 29 44 11 44 C 9 44 7 43 7 43 Z "/>
<path style=" fill:#C0CA33;" d="M 41.0625 13.9375 C 39.1875 9.917969 35 12 35 4 C 32 4 30 6 30 6 C 30 6 33 9 33 12 C 35 12 36.613281 11.84375 36.789063 16.75 C 38.144531 11.019531 41.0625 13.9375 41.0625 13.9375 Z "/>
<path style=" fill:#C0CA33;" d="M 31 16 C 31 16 30.9375 14.1875 33 12 C 35.0625 9.8125 37.03125 11.59375 37.03125 11.59375 L 36.789063 16.75 C 36.789063 16.75 35.914063 13.5 34.539063 13.417969 C 31.640625 13.242188 31 16 31 16 Z "/>
<path style=" fill:#5D4037;" d="M 6 41 L 7 43 L 8 43 L 8 41 L 6 40 Z "/>
<path style=" fill:#827717;" d="M 35 4 C 32 4 30 6 30 6 L 33 6 Z "/>
</g>
</svg>
