<?xml version="1.0" encoding="UTF-8"?>
<svg xmlns="http://www.w3.org/2000/svg" xmlns:xlink="http://www.w3.org/1999/xlink" viewBox="0 0 48 48" version="1.1" fill="000000">
<g id="surface1">
<path style=" fill:#FF3D00;" d="M 36.699219 26.480469 L 35.558594 26.152344 L 21.992188 23.4375 L 22 6 L 6 6 L 6 25.085938 L 15.890625 38.535156 L 32.421875 41.84375 C 32.953125 41.949219 33.734375 41.988281 33.601563 41.980469 Z "/>
<path style=" fill:#FFCDD2;" d="M 6 9 L 22 9 L 22 13 L 6 13 Z "/>
<path style=" fill:#BF360C;" d="M 6 25.085938 L 6 29.996094 C 6 33.8125 8.683594 37.09375 12.421875 37.84375 L 15.890625 38.535156 C 15.960938 38.03125 16 37.519531 16 37 C 16 30.84375 14.265625 25.773438 6 25.085938 Z "/>
<path style=" fill:#BF360C;" d="M 41.988281 34.027344 C 41.988281 33.917969 41.984375 33.8125 41.980469 33.703125 C 41.972656 33.558594 41.96875 33.414063 41.957031 33.273438 C 41.945313 33.15625 41.929688 33.039063 41.914063 32.925781 C 41.894531 32.796875 41.878906 32.667969 41.851563 32.539063 C 41.828125 32.414063 41.800781 32.292969 41.773438 32.171875 C 41.746094 32.058594 41.71875 31.941406 41.6875 31.832031 C 41.648438 31.699219 41.609375 31.570313 41.566406 31.441406 C 41.53125 31.34375 41.496094 31.25 41.460938 31.15625 C 41.410156 31.015625 41.355469 30.878906 41.292969 30.742188 C 41.261719 30.667969 41.222656 30.59375 41.1875 30.519531 C 41.113281 30.371094 40.90625 29.988281 40.878906 29.941406 C 39.949219 28.375 38.496094 27.125 36.699219 26.480469 C 33.84375 28.671875 31.992188 32.113281 31.992188 35.996094 C 31.992188 38.179688 32.582031 40.21875 33.597656 41.976563 C 33.730469 41.988281 33.867188 42 34 42 C 37.734375 42 41.074219 39.371094 41.835938 35.566406 C 41.890625 35.308594 41.925781 35.050781 41.949219 34.792969 C 41.960938 34.703125 41.960938 34.617188 41.96875 34.527344 C 41.980469 34.359375 41.988281 34.191406 41.988281 34.027344 Z "/>
<path style=" fill:#BF360C;" d="M 6 6 L 22 6 L 22 9 L 6 9 Z "/>
</g>
</svg>
