<?xml version="1.0" encoding="UTF-8"?>
<svg xmlns="http://www.w3.org/2000/svg" xmlns:xlink="http://www.w3.org/1999/xlink" fill="000000" viewBox="0 0 38 38" version="1.1">
<g id="surface237846">
<path style=" stroke:none;fill-rule:nonzero;fill:rgb(100%,59.607843%,0%);fill-opacity:1;" d="M 14.25 34.042969 L 11.875 34.042969 L 11.875 22.957031 L 14.25 22.957031 Z M 26.125 22.957031 L 23.75 22.957031 L 23.75 34.042969 L 26.125 34.042969 Z M 26.125 22.957031 "/>
<path style=" stroke:none;fill-rule:nonzero;fill:rgb(96.078431%,48.627451%,0%);fill-opacity:1;" d="M 23.75 26.125 L 14.25 26.125 L 14.25 24.542969 L 23.75 24.542969 Z M 19.792969 7.917969 L 18.207031 7.917969 L 18.207031 19.792969 L 19.792969 19.792969 Z M 22.957031 7.941406 L 21.375 7.890625 L 20.980469 19.765625 L 22.5625 19.816406 Z M 26.125 7.96875 L 24.542969 7.863281 L 23.75 19.738281 L 25.332031 19.84375 Z M 17.019531 19.765625 L 16.625 7.890625 L 15.042969 7.941406 L 15.4375 19.816406 Z M 14.25 19.738281 L 13.457031 7.863281 L 11.878906 7.96875 L 12.667969 19.84375 Z M 14.25 19.738281 "/>
<path style=" stroke:none;fill-rule:nonzero;fill:rgb(10.196078%,73.72549%,61.176471%);fill-opacity:1;" d="M 10.292969 22.957031 L 27.707031 22.957031 L 27.707031 20.667969 C 27.707031 20.058594 27.351562 19.5 26.789062 19.265625 C 25.6875 18.804688 23.40625 18.207031 19 18.207031 C 14.59375 18.207031 12.3125 18.804688 11.210938 19.265625 C 10.648438 19.5 10.292969 20.058594 10.292969 20.667969 Z M 10.292969 22.957031 "/>
<path style=" stroke:none;fill-rule:nonzero;fill:rgb(100%,62.745098%,0%);fill-opacity:1;" d="M 27.707031 8.707031 C 27.707031 8.707031 24.9375 7.917969 19 7.917969 C 13.0625 7.917969 10.292969 8.707031 10.292969 8.707031 L 10.292969 4.75 C 10.292969 4.75 13.359375 3.957031 19 3.957031 C 24.640625 3.957031 27.707031 4.75 27.707031 4.75 Z M 27.707031 8.707031 "/>
<path style=" stroke:none;fill-rule:nonzero;fill:rgb(90.196078%,31.764706%,0%);fill-opacity:1;" d="M 14.25 24.542969 L 11.875 24.542969 L 11.875 22.957031 L 14.25 22.957031 Z M 26.125 22.957031 L 23.75 22.957031 L 23.75 24.542969 L 26.125 24.542969 Z M 26.125 22.957031 "/>
</g>
</svg>
