<?xml version="1.0"?>
<svg xmlns="http://www.w3.org/2000/svg" xmlns:xlink="http://www.w3.org/1999/xlink" version="1.1" viewBox="0 0 172 172" fill="000000"><g fill="none" fill-rule="nonzero" stroke="none" stroke-width="1" stroke-linecap="butt" stroke-linejoin="miter" stroke-miterlimit="10" stroke-dasharray="" stroke-dashoffset="0" font-family="none" font-weight="none" font-size="none" text-anchor="none" style="mix-blend-mode: normal"><path d="M0,172v-172h172v172z" fill="none"/><g id="&#x421;&#x43B;&#x43E;&#x439;_1"><g><rect x="33.41493" y="-19.19816" transform="rotate(45) scale(3.5833,3.5833)" width="3" height="17" fill="#546e7a"/><g fill="#5688ba"><path d="M137.74333,26.52025l-5.06683,-5.06683c-1.40108,-1.40108 -1.25775,-3.80908 0.31533,-5.38575c1.57308,-1.57667 3.98467,-1.71642 5.38575,-0.31533l5.06683,5.06683c1.40108,1.40108 1.25775,3.80908 -0.31533,5.38575c-1.57308,1.57667 -3.98467,1.71642 -5.38575,0.31533z"/></g><g fill="#5688ba"><path d="M131.408,42.99283l-10.13367,-10.13367c-1.40108,-1.40108 -1.25775,-3.80908 0.31533,-5.38575c1.57308,-1.57308 3.98467,-1.71642 5.38575,-0.31533l10.13367,10.13367c1.40108,1.40108 1.25775,3.80908 -0.31533,5.38575c-1.57308,1.5695 -3.98467,1.71283 -5.38575,0.31533z"/></g><g fill="#5688ba"><path d="M137.10908,37.29175l-10.13367,-10.13367c-1.40108,-1.40108 -1.25775,-3.80908 0.31533,-5.38575c1.57308,-1.57308 3.98467,-1.71642 5.38575,-0.31533l10.13367,10.13367c1.40108,1.40108 1.25775,3.80908 -0.31533,5.38575c-1.57308,1.57667 -3.98467,1.71283 -5.38575,0.31533z"/></g><g fill="#5688ba"><path d="M120.64008,43.6235l-5.06683,-5.06683c-1.40108,-1.40108 -1.25775,-3.80908 0.31533,-5.38575c1.57308,-1.57308 3.98467,-1.71642 5.38575,-0.31533l5.06683,5.06683c1.40108,1.40108 1.25775,3.80908 -0.31533,5.38575c-1.57308,1.57308 -3.98467,1.71642 -5.38575,0.31533z"/></g><path d="M34.49317,155.11175l-15.20408,-15.20408c-2.79858,-2.79858 -2.79858,-7.33508 0,-10.13367l50.6755,-50.6755c6.99825,-6.99825 18.3395,-6.99825 25.33775,0v0c6.99825,6.99825 6.99825,18.3395 0,25.33775l-50.6755,50.6755c-2.79858,2.79858 -7.33508,2.79858 -10.13367,0z" fill="#ff7a00"/><path d="M64.89775,109.50308v0c-4.19967,-4.19967 -4.19967,-11.00442 0,-15.20408l10.13367,-10.13367c4.19967,-4.19967 11.00442,-4.19967 15.20408,0v0c4.19967,4.19967 4.19967,11.00442 0,15.20408l-10.13367,10.13367c-4.19967,4.19967 -11.008,4.19967 -15.20408,0z" fill="#e3cb91"/><ellipse cx="-1.8021" cy="34.41469" transform="rotate(-45) scale(3.5833,3.5833)" rx="2" ry="2" fill="#455a64"/><path d="M120.64008,43.6235v0l22.80433,-22.80433v0c5.59717,5.59717 5.59717,14.67375 0,20.27092l-2.53342,2.53342c-5.59717,5.59717 -14.67375,5.59717 -20.27092,0z" fill="#9fc6da"/></g></g></g></svg>
