<?xml version="1.0" encoding="UTF-8"?>
<svg xmlns="http://www.w3.org/2000/svg" xmlns:xlink="http://www.w3.org/1999/xlink" fill="000000" viewBox="0 0 38 38" version="1.1">
<g id="surface131363">
<path style=" stroke:none;fill-rule:nonzero;fill:rgb(12.941176%,58.823529%,95.294118%);fill-opacity:1;" d="M 31.667969 7.917969 L 6.332031 7.917969 C 4.585938 7.917969 3.167969 9.335938 3.167969 11.082031 L 3.167969 26.917969 C 3.167969 28.664062 4.585938 30.082031 6.332031 30.082031 L 31.667969 30.082031 C 33.414062 30.082031 34.832031 28.664062 34.832031 26.917969 L 34.832031 11.082031 C 34.832031 9.335938 33.414062 7.917969 31.667969 7.917969 Z M 31.667969 7.917969 "/>
<path style=" stroke:none;fill-rule:nonzero;fill:rgb(5.098039%,27.843137%,63.137255%);fill-opacity:1;" d="M 34.832031 11.101562 C 34.832031 10.734375 34.757812 10.386719 34.644531 10.058594 L 19 21.394531 L 3.359375 10.058594 C 3.242188 10.386719 3.167969 10.734375 3.167969 11.101562 L 3.167969 11.875 L 19 23.351562 L 34.832031 11.875 Z M 34.832031 11.101562 "/>
</g>
</svg>
