<?xml version="1.0" encoding="UTF-8"?>
<svg xmlns="http://www.w3.org/2000/svg" xmlns:xlink="http://www.w3.org/1999/xlink" viewBox="0 0 48 48" version="1.1" fill="000000">
<g id="surface1">
<path style=" fill:#37474F;" d="M 31 40 C 31 42.210938 29.210938 44 27 44 C 24.789063 44 23 42.210938 23 40 C 23 37.789063 24.789063 36 27 36 C 29.210938 36 31 37.789063 31 40 Z "/>
<path style=" fill:#FFC107;" d="M 19 28 L 16.199219 25.199219 C 15.398438 24.398438 14.398438 24 13.398438 24 L 5 24 L 5 40 L 31 40 L 31 30 L 28 28 Z "/>
<path style=" fill:#37474F;" d="M 13 40 C 13 42.210938 11.210938 44 9 44 C 6.789063 44 5 42.210938 5 40 C 5 37.789063 6.789063 36 9 36 C 11.210938 36 13 37.789063 13 40 Z "/>
<path style=" fill:#37474F;" d="M 31 40 C 31 42.210938 29.210938 44 27 44 C 24.789063 44 23 42.210938 23 40 C 23 37.789063 24.789063 36 27 36 C 29.210938 36 31 37.789063 31 40 Z "/>
<path style=" fill:#607D8B;" d="M 35.398438 40 L 45 40 L 45 36 L 38.398438 36 L 30.398438 4 L 26.398438 4 Z "/>
<path style=" fill:#607D8B;" d="M 30 25.300781 L 21.898438 9.101563 C 21 7.199219 18.898438 6 16.699219 6 L 9 6 C 6.699219 6 5 7.699219 5 10 L 5 24 L 9 24 L 9 10 L 16.699219 10 C 17.398438 10 18.101563 10.398438 18.300781 10.898438 L 26.398438 27.101563 C 26.5 27.398438 26.699219 27.699219 26.699219 28 L 28 28 L 31 30 L 31 29.800781 C 31 28.101563 30.699219 26.699219 30 25.300781 Z "/>
<path style=" fill:#607D8B;" d="M 29 40 C 29 41.105469 28.105469 42 27 42 C 25.894531 42 25 41.105469 25 40 C 25 38.894531 25.894531 38 27 38 C 28.105469 38 29 38.894531 29 40 Z "/>
<path style=" fill:#607D8B;" d="M 11 40 C 11 41.105469 10.105469 42 9 42 C 7.894531 42 7 41.105469 7 40 C 7 38.894531 7.894531 38 9 38 C 10.105469 38 11 38.894531 11 40 Z "/>
</g>
</svg>
