<?xml version="1.0" encoding="UTF-8"?>
<svg xmlns="http://www.w3.org/2000/svg" xmlns:xlink="http://www.w3.org/1999/xlink" viewBox="0 0 48 48" version="1.1" fill="000000">
<g id="surface1">
<path style=" fill:#FF9800;" d="M 27.515625 31.214844 C 28.828125 29.902344 31.398438 28.640625 32.257813 27.277344 C 34.460938 23.78125 30.769531 20.578125 29.097656 18.90625 C 27.421875 17.230469 24.21875 13.539063 20.722656 15.742188 C 19.359375 16.601563 18.097656 19.171875 16.785156 20.484375 C 14.679688 22.589844 10.355469 21.96875 7.292969 25.03125 C 5.863281 26.457031 5 28.09375 5 29.816406 C 5 32.679688 6.855469 35.246094 9.863281 38.136719 C 12.753906 41.140625 15.320313 42.996094 18.179688 43 C 19.90625 43 21.539063 42.132813 22.964844 40.707031 C 26.027344 37.644531 25.410156 33.320313 27.515625 31.214844 Z "/>
<path style=" fill:#5D4037;" d="M 42.140625 10.847656 C 42.335938 11.042969 42.65625 11.042969 42.851563 10.847656 C 43.050781 10.652344 43.050781 10.332031 42.851563 10.136719 L 41.785156 9.066406 L 41.070313 9.777344 Z "/>
<path style=" fill:#5D4037;" d="M 35.726563 7.285156 L 36.796875 8.351563 L 37.507813 7.640625 L 36.441406 6.570313 C 36.242188 6.375 35.925781 6.375 35.726563 6.570313 C 35.53125 6.769531 35.53125 7.085938 35.726563 7.285156 Z "/>
<path style=" fill:#5D4037;" d="M 37.152344 5.859375 L 38.222656 6.925781 L 38.933594 6.214844 L 37.863281 5.144531 C 37.667969 4.949219 37.347656 4.949219 37.152344 5.144531 C 36.953125 5.34375 36.953125 5.660156 37.152344 5.859375 Z "/>
<path style=" fill:#5D4037;" d="M 41.429688 11.558594 L 40.359375 10.492188 L 39.648438 11.203125 L 40.714844 12.273438 C 40.910156 12.46875 41.230469 12.46875 41.429688 12.273438 C 41.625 12.074219 41.625 11.757813 41.429688 11.558594 Z "/>
<path style=" fill:#5D4037;" d="M 36.082031 9.066406 L 35.015625 7.996094 C 34.816406 7.800781 34.5 7.800781 34.300781 7.996094 C 34.105469 8.195313 34.105469 8.511719 34.300781 8.710938 L 35.371094 9.777344 Z "/>
<path style=" fill:#5D4037;" d="M 40.003906 12.984375 L 38.933594 11.914063 L 38.222656 12.628906 L 39.289063 13.695313 C 39.488281 13.894531 39.804688 13.894531 40.003906 13.695313 C 40.199219 13.5 40.199219 13.183594 40.003906 12.984375 Z "/>
<path style=" fill:#5D4037;" d="M 15.5625 26.734375 L 21.261719 32.4375 L 19.835938 33.859375 L 14.136719 28.160156 Z "/>
<path style=" fill:#5D4037;" d="M 19.125 33.148438 C 18.730469 33.542969 18.09375 33.542969 17.699219 33.148438 L 14.851563 30.296875 C 14.457031 29.902344 14.457031 29.265625 14.851563 28.871094 C 15.246094 28.476563 15.882813 28.476563 16.277344 28.871094 L 19.125 31.722656 C 19.519531 32.117188 19.519531 32.753906 19.125 33.148438 Z "/>
<path style=" fill:#5D4037;" d="M 37.5 13.347656 L 34.65625 10.492188 L 22.683594 22.464844 L 25.53125 25.316406 Z "/>
<path style=" fill:#3E2723;" d="M 25.703125 25.316406 C 25.703125 26.984375 24.351563 28.339844 22.683594 28.339844 C 21.015625 28.339844 19.660156 26.984375 19.660156 25.316406 C 19.660156 23.648438 21.015625 22.292969 22.683594 22.292969 C 24.351563 22.292969 25.703125 23.648438 25.703125 25.316406 Z "/>
<path style=" fill:#C16629;" d="M 42.496094 8.355469 L 39.644531 5.503906 C 39.25 5.109375 38.613281 5.109375 38.222656 5.503906 L 33.945313 9.777344 C 33.550781 10.171875 33.550781 10.808594 33.945313 11.203125 L 36.796875 14.054688 C 37.191406 14.449219 37.828125 14.449219 38.222656 14.054688 L 42.496094 9.777344 C 42.890625 9.382813 42.890625 8.746094 42.496094 8.355469 Z M 36.4375 10.847656 C 36.242188 11.042969 35.921875 11.042969 35.726563 10.847656 C 35.53125 10.652344 35.53125 10.332031 35.726563 10.136719 L 38.578125 7.285156 C 38.773438 7.085938 39.09375 7.085938 39.289063 7.285156 C 39.488281 7.480469 39.488281 7.800781 39.289063 7.996094 Z M 37.863281 12.273438 C 37.667969 12.46875 37.347656 12.46875 37.152344 12.273438 C 36.953125 12.074219 36.953125 11.757813 37.152344 11.558594 L 40.003906 8.710938 C 40.199219 8.511719 40.519531 8.511719 40.714844 8.710938 C 40.910156 8.90625 40.910156 9.226563 40.714844 9.421875 Z "/>
</g>
</svg>
