<?xml version="1.0" encoding="UTF-8"?>
<svg xmlns="http://www.w3.org/2000/svg" xmlns:xlink="http://www.w3.org/1999/xlink" fill="000000" viewBox="0 0 38 38" version="1.1">
<g id="surface134161">
<path style=" stroke:none;fill-rule:nonzero;fill:rgb(29.019608%,7.843137%,54.901961%);fill-opacity:1;" d="M 32.175781 13.484375 C 32.09375 13.089844 32.007812 12.726562 31.921875 12.382812 L 26.984375 13.394531 C 27.070312 13.671875 27.175781 13.976562 27.289062 14.3125 C 27.289062 14.308594 27.285156 14.304688 27.285156 14.300781 C 27.4375 14.769531 27.601562 15.285156 27.707031 15.832031 L 28.335938 15.726562 L 32.457031 15.042969 C 32.367188 14.484375 32.273438 13.96875 32.175781 13.484375 Z M 6.089844 12.339844 C 6 12.695312 5.914062 13.082031 5.828125 13.484375 C 5.726562 13.96875 5.632812 14.484375 5.542969 15.042969 L 9.664062 15.726562 L 10.292969 15.832031 C 10.398438 15.285156 10.558594 14.769531 10.71875 14.300781 C 10.84375 13.921875 10.964844 13.574219 11.054688 13.273438 Z M 15.035156 4.75 C 15.035156 4.75 16.625 5.542969 19 5.542969 C 21.375 5.542969 22.949219 4.75 22.949219 4.75 L 22.949219 12.667969 L 15.035156 12.667969 Z M 15.035156 4.75 "/>
<path style=" stroke:none;fill-rule:nonzero;fill:rgb(67.058824%,27.843137%,73.72549%);fill-opacity:1;" d="M 27.285156 14.300781 L 32.175781 13.484375 C 31.425781 9.855469 30.410156 8.246094 29.652344 7.488281 L 29.292969 7.125 L 22.957031 4.75 C 22.660156 5.230469 22.957031 8.710938 19 8.710938 C 15.042969 8.710938 15.339844 5.230469 15.042969 4.75 L 8.707031 7.125 L 8.347656 7.488281 C 7.539062 8.296875 6.441406 10.070312 5.679688 14.230469 C 5.726562 13.972656 5.777344 13.722656 5.828125 13.484375 L 10.714844 14.300781 C 10.847656 13.902344 10.976562 13.539062 11.066406 13.226562 L 11.082031 32.457031 L 26.917969 32.457031 L 26.933594 13.226562 C 27.023438 13.542969 27.152344 13.910156 27.289062 14.3125 C 27.285156 14.308594 27.285156 14.304688 27.285156 14.300781 Z M 27.285156 14.300781 "/>
</g>
</svg>
