<?xml version="1.0" encoding="UTF-8"?>
<svg xmlns="http://www.w3.org/2000/svg" xmlns:xlink="http://www.w3.org/1999/xlink" viewBox="0 0 48 48" version="1.1" fill="000000">
<g id="surface1">
<path style=" fill:#616161;" d="M 40 16 L 8 16 L 8 40 C 8 42.199219 9.800781 44 12 44 L 36 44 C 38.199219 44 40 42.199219 40 40 Z "/>
<path style=" fill:#424242;" d="M 36 4 L 12 4 C 9.800781 4 8 5.800781 8 8 L 8 17 L 40 17 L 40 8 C 40 5.800781 38.199219 4 36 4 Z "/>
<path style=" fill:#9CCC65;" d="M 36 14 L 12 14 C 11.398438 14 11 13.601563 11 13 L 11 8 C 11 7.398438 11.398438 7 12 7 L 36 7 C 36.601563 7 37 7.398438 37 8 L 37 13 C 37 13.601563 36.601563 14 36 14 Z "/>
<path style=" fill:#33691E;" d="M 33 10 L 35 10 L 35 12 L 33 12 Z "/>
<path style=" fill:#33691E;" d="M 29 10 L 31 10 L 31 12 L 29 12 Z "/>
<path style=" fill:#FF5252;" d="M 36 23 L 33 23 C 32.398438 23 32 22.601563 32 22 L 32 20 C 32 19.398438 32.398438 19 33 19 L 36 19 C 36.601563 19 37 19.398438 37 20 L 37 22 C 37 22.601563 36.601563 23 36 23 Z "/>
<path style=" fill:#E0E0E0;" d="M 15 23 L 12 23 C 11.398438 23 11 22.601563 11 22 L 11 20 C 11 19.398438 11.398438 19 12 19 L 15 19 C 15.601563 19 16 19.398438 16 20 L 16 22 C 16 22.601563 15.601563 23 15 23 Z "/>
<path style=" fill:#E0E0E0;" d="M 22 23 L 19 23 C 18.398438 23 18 22.601563 18 22 L 18 20 C 18 19.398438 18.398438 19 19 19 L 22 19 C 22.601563 19 23 19.398438 23 20 L 23 22 C 23 22.601563 22.601563 23 22 23 Z "/>
<path style=" fill:#E0E0E0;" d="M 29 23 L 26 23 C 25.398438 23 25 22.601563 25 22 L 25 20 C 25 19.398438 25.398438 19 26 19 L 29 19 C 29.601563 19 30 19.398438 30 20 L 30 22 C 30 22.601563 29.601563 23 29 23 Z "/>
<path style=" fill:#E0E0E0;" d="M 15 29 L 12 29 C 11.398438 29 11 28.601563 11 28 L 11 26 C 11 25.398438 11.398438 25 12 25 L 15 25 C 15.601563 25 16 25.398438 16 26 L 16 28 C 16 28.601563 15.601563 29 15 29 Z "/>
<path style=" fill:#E0E0E0;" d="M 22 29 L 19 29 C 18.398438 29 18 28.601563 18 28 L 18 26 C 18 25.398438 18.398438 25 19 25 L 22 25 C 22.601563 25 23 25.398438 23 26 L 23 28 C 23 28.601563 22.601563 29 22 29 Z "/>
<path style=" fill:#E0E0E0;" d="M 29 29 L 26 29 C 25.398438 29 25 28.601563 25 28 L 25 26 C 25 25.398438 25.398438 25 26 25 L 29 25 C 29.601563 25 30 25.398438 30 26 L 30 28 C 30 28.601563 29.601563 29 29 29 Z "/>
<path style=" fill:#E0E0E0;" d="M 15 35 L 12 35 C 11.398438 35 11 34.601563 11 34 L 11 32 C 11 31.398438 11.398438 31 12 31 L 15 31 C 15.601563 31 16 31.398438 16 32 L 16 34 C 16 34.601563 15.601563 35 15 35 Z "/>
<path style=" fill:#E0E0E0;" d="M 22 35 L 19 35 C 18.398438 35 18 34.601563 18 34 L 18 32 C 18 31.398438 18.398438 31 19 31 L 22 31 C 22.601563 31 23 31.398438 23 32 L 23 34 C 23 34.601563 22.601563 35 22 35 Z "/>
<path style=" fill:#E0E0E0;" d="M 29 35 L 26 35 C 25.398438 35 25 34.601563 25 34 L 25 32 C 25 31.398438 25.398438 31 26 31 L 29 31 C 29.601563 31 30 31.398438 30 32 L 30 34 C 30 34.601563 29.601563 35 29 35 Z "/>
<path style=" fill:#E0E0E0;" d="M 15 41 L 12 41 C 11.398438 41 11 40.601563 11 40 L 11 38 C 11 37.398438 11.398438 37 12 37 L 15 37 C 15.601563 37 16 37.398438 16 38 L 16 40 C 16 40.601563 15.601563 41 15 41 Z "/>
<path style=" fill:#E0E0E0;" d="M 22 41 L 19 41 C 18.398438 41 18 40.601563 18 40 L 18 38 C 18 37.398438 18.398438 37 19 37 L 22 37 C 22.601563 37 23 37.398438 23 38 L 23 40 C 23 40.601563 22.601563 41 22 41 Z "/>
<path style=" fill:#E0E0E0;" d="M 29 41 L 26 41 C 25.398438 41 25 40.601563 25 40 L 25 38 C 25 37.398438 25.398438 37 26 37 L 29 37 C 29.601563 37 30 37.398438 30 38 L 30 40 C 30 40.601563 29.601563 41 29 41 Z "/>
<path style=" fill:#BDBDBD;" d="M 36 29 L 33 29 C 32.398438 29 32 28.601563 32 28 L 32 26 C 32 25.398438 32.398438 25 33 25 L 36 25 C 36.601563 25 37 25.398438 37 26 L 37 28 C 37 28.601563 36.601563 29 36 29 Z "/>
<path style=" fill:#BDBDBD;" d="M 36 35 L 33 35 C 32.398438 35 32 34.601563 32 34 L 32 32 C 32 31.398438 32.398438 31 33 31 L 36 31 C 36.601563 31 37 31.398438 37 32 L 37 34 C 37 34.601563 36.601563 35 36 35 Z "/>
<path style=" fill:#BDBDBD;" d="M 36 41 L 33 41 C 32.398438 41 32 40.601563 32 40 L 32 38 C 32 37.398438 32.398438 37 33 37 L 36 37 C 36.601563 37 37 37.398438 37 38 L 37 40 C 37 40.601563 36.601563 41 36 41 Z "/>
</g>
</svg>
