<?xml version="1.0" encoding="UTF-8"?>
<svg xmlns="http://www.w3.org/2000/svg" xmlns:xlink="http://www.w3.org/1999/xlink" fill="000000" viewBox="0 0 38 38" version="1.1">
<g id="surface132535">
<path style=" stroke:none;fill-rule:nonzero;fill:rgb(73.333333%,87.058824%,98.431373%);fill-opacity:1;" d="M 16.625 24.542969 C 16.625 27.152344 14.410156 29.292969 10.6875 29.292969 L 9.976562 29.292969 C 6.253906 29.292969 4.75 27.152344 4.75 24.542969 C 4.75 21.929688 5.066406 19.792969 10.292969 19.792969 L 11.082031 19.792969 C 16.308594 19.792969 16.625 21.929688 16.625 24.542969 Z M 33.25 24.542969 C 33.25 27.152344 31.035156 29.292969 27.3125 29.292969 L 26.601562 29.292969 C 22.878906 29.292969 21.375 27.152344 21.375 24.542969 C 21.375 21.929688 21.691406 19.792969 26.917969 19.792969 L 27.707031 19.792969 C 32.933594 19.792969 33.25 21.929688 33.25 24.542969 Z M 33.25 24.542969 "/>
<path style=" stroke:none;fill-rule:nonzero;fill:rgb(0%,51.372549%,56.078431%);fill-opacity:1;" d="M 34.675781 21.929688 L 26.285156 10.210938 C 26.285156 10.210938 25.648438 9.421875 24.9375 9.5 C 24.304688 9.578125 23.511719 10.371094 22.878906 11.636719 L 22.5625 12.351562 L 21.136719 11.636719 L 21.453125 10.925781 C 22.402344 9.023438 23.511719 7.996094 24.777344 7.917969 C 26.441406 7.757812 27.472656 9.183594 27.550781 9.261719 L 35.941406 20.980469 Z M 3.324219 21.929688 L 2.058594 20.980469 L 10.449219 9.261719 C 10.527344 9.183594 11.558594 7.757812 13.222656 7.917969 C 14.488281 7.996094 15.597656 9.023438 16.546875 10.925781 L 16.863281 11.636719 L 15.4375 12.351562 L 15.121094 11.636719 C 14.488281 10.292969 13.695312 9.5 13.0625 9.5 C 12.351562 9.421875 11.714844 10.210938 11.714844 10.210938 Z M 3.324219 21.929688 "/>
<path style=" stroke:none;fill-rule:nonzero;fill:rgb(0%,59.215686%,65.490196%);fill-opacity:1;" d="M 10.6875 30.082031 L 9.976562 30.082031 C 6.175781 30.082031 3.957031 28.023438 3.957031 24.542969 C 3.957031 21.769531 4.433594 19 10.292969 19 L 11.082031 19 C 16.941406 19 17.417969 21.769531 17.417969 24.542969 C 17.417969 27.789062 14.644531 30.082031 10.6875 30.082031 Z M 10.292969 20.582031 C 5.542969 20.582031 5.542969 22.324219 5.542969 24.542969 C 5.542969 26.363281 6.332031 28.5 9.976562 28.5 L 10.6875 28.5 C 13.695312 28.5 15.832031 26.835938 15.832031 24.542969 C 15.832031 22.324219 15.832031 20.582031 11.082031 20.582031 Z M 27.3125 30.082031 L 26.601562 30.082031 C 22.878906 30.082031 20.582031 28.023438 20.582031 24.542969 C 20.582031 21.769531 21.058594 19 26.917969 19 L 27.707031 19 C 33.566406 19 34.042969 21.769531 34.042969 24.542969 C 34.042969 27.789062 31.269531 30.082031 27.3125 30.082031 Z M 26.917969 20.582031 C 22.167969 20.582031 22.167969 22.324219 22.167969 24.542969 C 22.167969 26.363281 22.957031 28.5 26.601562 28.5 L 27.3125 28.5 C 30.320312 28.5 32.457031 26.835938 32.457031 24.542969 C 32.457031 22.324219 32.457031 20.582031 27.707031 20.582031 Z M 26.917969 20.582031 "/>
<path style=" stroke:none;fill-rule:nonzero;fill:rgb(0%,59.215686%,65.490196%);fill-opacity:1;" d="M 3.167969 22.484375 L 2.058594 21.375 L 2.375 20.582031 C 2.535156 20.425781 4.589844 19 10.292969 19 C 15.042969 19 16.070312 19.476562 17.652344 20.265625 L 17.8125 20.347656 C 18.921875 20.898438 20.347656 20.347656 20.347656 20.347656 L 21.058594 20.027344 L 21.691406 21.535156 L 20.980469 21.851562 C 20.898438 21.851562 18.839844 22.640625 17.179688 21.851562 L 17.019531 21.769531 C 15.515625 20.980469 14.726562 20.582031 10.292969 20.582031 C 5.304688 20.582031 3.722656 21.929688 3.722656 21.929688 Z M 3.167969 22.484375 "/>
<path style=" stroke:none;fill-rule:nonzero;fill:rgb(0%,59.215686%,65.490196%);fill-opacity:1;" d="M 34.832031 22.484375 L 34.277344 21.929688 C 34.199219 21.851562 32.617188 20.582031 27.707031 20.582031 C 23.988281 20.582031 22.484375 20.980469 20.898438 21.769531 C 19.160156 22.640625 17.179688 21.851562 17.101562 21.769531 L 16.386719 21.453125 L 17.019531 19.949219 L 17.734375 20.265625 C 17.734375 20.265625 19.160156 20.820312 20.265625 20.265625 C 22.007812 19.394531 23.75 18.921875 27.707031 18.921875 C 33.410156 18.921875 35.464844 20.347656 35.625 20.503906 L 35.941406 21.296875 Z M 34.832031 22.484375 "/>
<path style=" stroke:none;fill-rule:nonzero;fill:rgb(0%,59.215686%,65.490196%);fill-opacity:1;" d="M 17.101562 23.511719 L 16.386719 22.085938 L 17.101562 21.769531 C 18.839844 20.898438 20.820312 21.691406 20.898438 21.769531 L 21.613281 22.085938 L 20.980469 23.589844 L 20.265625 23.273438 C 20.265625 23.273438 18.839844 22.722656 17.734375 23.273438 Z M 17.101562 23.511719 "/>
<path style=" stroke:none;fill-rule:nonzero;fill:rgb(0%,59.215686%,65.490196%);fill-opacity:1;" d="M 20.898438 23.511719 L 20.1875 23.195312 C 19.160156 22.640625 17.652344 23.195312 17.652344 23.195312 L 16.941406 23.511719 L 16.308594 22.007812 L 17.019531 21.691406 C 17.101562 21.691406 19.160156 20.820312 20.820312 21.691406 L 21.535156 22.007812 Z M 33.25 21.375 C 33.25 20.898438 33.566406 20.582031 34.042969 20.582031 L 35.625 20.582031 C 36.101562 20.582031 36.417969 20.898438 36.417969 21.375 L 36.417969 22.167969 C 36.417969 22.640625 36.101562 22.957031 35.625 22.957031 C 35.625 22.957031 34.042969 22.957031 34.042969 23.75 C 34.042969 24.542969 33.25 22.640625 33.25 22.167969 Z M 4.75 21.375 C 4.75 20.898438 4.433594 20.582031 3.957031 20.582031 L 2.375 20.582031 C 1.898438 20.582031 1.582031 20.898438 1.582031 21.375 L 1.582031 22.167969 C 1.582031 22.640625 1.898438 22.957031 2.375 22.957031 C 2.375 22.957031 3.957031 22.957031 3.957031 23.75 C 3.957031 24.542969 4.75 22.640625 4.75 22.167969 Z M 4.75 21.375 "/>
<path style=" stroke:none;fill-rule:nonzero;fill:rgb(100%,100%,100%);fill-opacity:1;" d="M 7.917969 25.332031 C 7.441406 25.332031 7.125 25.015625 7.125 24.542969 C 7.125 23.75 7.757812 22.167969 10.292969 22.167969 C 10.765625 22.167969 11.082031 22.484375 11.082031 22.957031 C 11.082031 23.433594 10.765625 23.75 10.292969 23.75 C 8.867188 23.75 8.707031 24.460938 8.707031 24.542969 C 8.707031 25.015625 8.3125 25.332031 7.917969 25.332031 Z M 24.542969 25.332031 C 24.066406 25.332031 23.75 25.015625 23.75 24.542969 C 23.75 23.75 24.382812 22.167969 26.917969 22.167969 C 27.390625 22.167969 27.707031 22.484375 27.707031 22.957031 C 27.707031 23.433594 27.390625 23.75 26.917969 23.75 C 25.492188 23.75 25.332031 24.460938 25.332031 24.542969 C 25.332031 25.015625 24.9375 25.332031 24.542969 25.332031 Z M 24.542969 25.332031 "/>
</g>
</svg>
