<?xml version="1.0" encoding="UTF-8"?>
<svg xmlns="http://www.w3.org/2000/svg" xmlns:xlink="http://www.w3.org/1999/xlink" fill="000000" viewBox="0 0 38 38" version="1.1">
<g id="surface131909">
<path style=" stroke:none;fill-rule:nonzero;fill:rgb(57.647059%,12.54902%,5.098039%);fill-opacity:1;" d="M 8.707031 15.042969 L 11.875 15.042969 L 11.875 3.957031 L 11.082031 3.957031 C 9.773438 3.957031 8.707031 5.023438 8.707031 6.332031 Z M 8.707031 15.042969 "/>
<path style=" stroke:none;fill-rule:nonzero;fill:rgb(74.901961%,21.176471%,4.705882%);fill-opacity:1;" d="M 18.207031 9.5 L 14.25 9.5 L 11.875 6.175781 L 10.371094 4.070312 C 10.59375 3.996094 10.839844 3.957031 11.082031 3.957031 L 12.214844 3.957031 C 13.488281 3.957031 14.691406 4.574219 15.4375 5.613281 Z M 18.207031 9.5 "/>
<path style=" stroke:none;fill-rule:nonzero;fill:rgb(57.647059%,12.54902%,5.098039%);fill-opacity:1;" d="M 29.292969 15.042969 L 26.125 15.042969 L 26.125 3.957031 L 26.917969 3.957031 C 28.226562 3.957031 29.292969 5.023438 29.292969 6.332031 Z M 29.292969 15.042969 "/>
<path style=" stroke:none;fill-rule:nonzero;fill:rgb(74.901961%,21.176471%,4.705882%);fill-opacity:1;" d="M 19.792969 9.5 L 23.75 9.5 L 26.125 6.175781 L 27.628906 4.070312 C 27.40625 3.996094 27.160156 3.957031 26.917969 3.957031 L 25.785156 3.957031 C 24.511719 3.957031 23.308594 4.574219 22.5625 5.613281 Z M 26.792969 15.832031 C 24.105469 15.832031 13.894531 15.832031 11.207031 15.832031 C 8.515625 15.832031 6.332031 18.3125 6.332031 21.375 L 6.332031 31.667969 C 6.332031 32.976562 7.640625 34.042969 9.257812 34.042969 L 28.742188 34.042969 C 30.359375 34.042969 31.667969 32.976562 31.667969 31.667969 L 31.667969 21.375 C 31.667969 18.3125 29.484375 15.832031 26.792969 15.832031 Z M 26.792969 15.832031 "/>
<path style=" stroke:none;fill-rule:nonzero;fill:rgb(93.72549%,42.352941%,0%);fill-opacity:1;" d="M 12.667969 28.5 C 11.792969 28.5 11.082031 27.792969 11.082031 26.917969 L 11.082031 16.625 L 14.25 16.625 L 14.25 26.917969 C 14.25 27.792969 13.542969 28.5 12.667969 28.5 Z M 12.667969 28.5 "/>
<path style=" stroke:none;fill-rule:nonzero;fill:rgb(100%,83.921569%,0%);fill-opacity:1;" d="M 14.25 20.582031 L 14.25 22.957031 L 11.082031 22.957031 L 11.082031 20.582031 L 9.5 20.582031 L 9.5 24.542969 L 15.832031 24.542969 L 15.832031 20.582031 Z M 14.25 20.582031 "/>
<path style=" stroke:none;fill-rule:nonzero;fill:rgb(93.72549%,42.352941%,0%);fill-opacity:1;" d="M 25.332031 28.5 C 24.457031 28.5 23.75 27.792969 23.75 26.917969 L 23.75 16.625 L 26.917969 16.625 L 26.917969 26.917969 C 26.917969 27.792969 26.207031 28.5 25.332031 28.5 Z M 25.332031 28.5 "/>
<path style=" stroke:none;fill-rule:nonzero;fill:rgb(100%,83.921569%,0%);fill-opacity:1;" d="M 26.917969 20.582031 L 26.917969 22.957031 L 23.75 22.957031 L 23.75 20.582031 L 22.167969 20.582031 L 22.167969 24.542969 L 28.5 24.542969 L 28.5 20.582031 Z M 26.917969 20.582031 "/>
<path style=" stroke:none;fill-rule:nonzero;fill:rgb(90.196078%,31.764706%,0%);fill-opacity:1;" d="M 26.917969 18.207031 L 11.082031 18.207031 C 8.460938 18.207031 6.332031 16.082031 6.332031 13.457031 L 6.332031 11.875 C 6.332031 10.5625 7.398438 9.5 8.707031 9.5 L 29.292969 9.5 C 30.601562 9.5 31.667969 10.5625 31.667969 11.875 L 31.667969 13.457031 C 31.667969 16.082031 29.539062 18.207031 26.917969 18.207031 Z M 26.917969 18.207031 "/>
</g>
</svg>
