<?xml version="1.0"?>
<svg xmlns="http://www.w3.org/2000/svg" xmlns:xlink="http://www.w3.org/1999/xlink" version="1.1" viewBox="0 0 172 172" fill="000000"><g fill="none" fill-rule="nonzero" stroke="none" stroke-width="1" stroke-linecap="butt" stroke-linejoin="miter" stroke-miterlimit="10" stroke-dasharray="" stroke-dashoffset="0" font-family="none" font-weight="none" font-size="none" text-anchor="none" style="mix-blend-mode: normal"><path d="M0,172v-172h172v172z" fill="none"/><g><g id="surface1"><path d="M121.4694,43.36393h-70.58887l12.19173,-18.2806c1.42773,-2.1556 3.58333,-3.2194 6.08886,-3.2194h34.3916c2.51953,0 4.66113,1.0638 6.10286,3.2194z" fill="#455a64"/><path d="M50.16667,39.41667h-21.5v-6.4528c0,-2.50553 1.79167,-4.2972 4.2972,-4.2972h12.9056c2.50553,0 4.2972,1.79167 4.2972,4.2972z" fill="#455a64"/><path d="M143.33333,150.5h-114.66667c-7.88053,0 -14.33333,-6.4528 -14.33333,-14.33333v-86c0,-7.88053 6.4528,-14.33333 14.33333,-14.33333h114.66667c7.88053,0 14.33333,6.4528 14.33333,14.33333v86c0,7.88053 -6.4528,14.33333 -14.33333,14.33333z" fill="#607d8b"/><path d="M129,93.16667c0,23.75358 -19.24642,43 -43,43c-23.75358,0 -43,-19.24642 -43,-43c0,-23.75358 19.24642,-43 43,-43c23.75358,0 43,19.24642 43,43z" fill="#455a64"/><path d="M118.25,93.16667c0,17.80469 -14.44531,32.25 -32.25,32.25c-17.80469,0 -32.25,-14.44531 -32.25,-32.25c0,-17.80469 14.44531,-32.25 32.25,-32.25c17.80469,0 32.25,14.44531 32.25,32.25z" fill="#68c0f3"/><path d="M103.91667,82.41667c-4.2972,-5.01107 -10.75,-7.88053 -17.2028,-7.88053c-6.4528,0 -12.8916,2.86947 -17.2028,7.88053c-1.79167,1.79167 -1.42774,4.66113 0.36393,6.4528c1.79167,1.79167 4.66113,1.42774 6.4528,-0.36393c5.375,-6.08887 15.41114,-6.08887 20.78614,0c1.0638,1.0778 2.1416,1.44173 3.58333,1.44173c1.0638,0 2.1416,-0.36393 3.2194,-1.0778c1.42774,-1.44173 1.79167,-4.66113 0,-6.4528z" fill="#add8fb"/><path d="M46.58333,48.375c0,-2.96745 -3.2054,-5.375 -7.16667,-5.375c-3.96126,0 -7.16667,2.40755 -7.16667,5.375c0,2.96745 3.2054,5.375 7.16667,5.375c3.96126,0 7.16667,-2.40755 7.16667,-5.375z" fill="#455a64"/></g></g></g></svg>
