<?xml version="1.0" encoding="UTF-8"?>
<svg xmlns="http://www.w3.org/2000/svg" xmlns:xlink="http://www.w3.org/1999/xlink" viewBox="0 0 48 48" version="1.1" fill="000000">
<g id="surface1">
<path style=" fill:#0097A7;" d="M 22.34375 20.132813 C 22.34375 20.132813 16.628906 16.652344 15.316406 15.945313 C 15.070313 15.8125 14.917969 15.714844 14.824219 15.644531 C 15.871094 14.71875 16.414063 13.011719 16.414063 11.773438 C 16.414063 9.910156 14.832031 6 10.125 6 C 5.632813 6 4 9.28125 4 11.601563 C 4 13.421875 4.6875 15.902344 7.96875 17.363281 C 8.527344 17.609375 9.105469 17.839844 9.699219 18.074219 C 12.496094 19.183594 15.390625 20.328125 17.878906 24.125 Z M 12.457031 14.085938 C 11.933594 14.675781 11.21875 15 10.445313 15 C 8.773438 15 7.25 13.65625 7.050781 12.003906 C 6.949219 11.179688 7.191406 10.398438 7.722656 9.796875 C 8.261719 9.1875 9.054688 8.839844 9.898438 8.839844 C 11.617188 8.839844 13.007813 10.015625 13.203125 11.636719 C 13.3125 12.535156 13.039063 13.429688 12.457031 14.085938 Z "/>
<path style=" fill:#0097A7;" d="M 43.855469 35.972656 L 30.117188 25.859375 L 24.761719 29.808594 L 34 36.398438 C 34.097656 36.472656 36.335938 38.0625 39.085938 38.0625 C 39.089844 38.0625 39.089844 38.0625 39.089844 38.0625 C 40.589844 38.0625 41.953125 37.652344 43.140625 36.679688 C 43.328125 36.523438 43.855469 35.972656 43.855469 35.972656 Z "/>
<path style=" fill:#00BCD4;" d="M 43.316406 11.230469 C 42.128906 10.257813 40.765625 10.015625 39.261719 10.015625 C 36.511719 10.015625 34.269531 11.4375 34.195313 11.496094 L 18.84375 22.230469 C 18.746094 22.300781 18.664063 22.390625 18.605469 22.496094 C 15.980469 27.269531 12.789063 28.535156 9.703125 29.757813 C 9.105469 29.992188 8.527344 30.226563 7.972656 30.472656 C 4.6875 31.933594 4 34.410156 4 36.230469 C 4 38.550781 5.632813 42 10.125 42 C 14.832031 42 16.414063 37.921875 16.414063 36.0625 C 16.414063 34.824219 15.867188 33.117188 14.824219 32.191406 C 14.917969 32.121094 15.066406 32.023438 15.3125 31.886719 C 16.628906 31.179688 22.113281 27.839844 22.402344 27.660156 L 44 12 Z M 13.203125 36.195313 C 13.007813 37.816406 11.617188 38.992188 9.898438 38.992188 C 9.054688 38.992188 8.261719 38.640625 7.722656 38.035156 C 7.1875 37.433594 6.949219 36.652344 7.050781 35.832031 C 7.246094 34.179688 8.773438 32.835938 10.445313 32.835938 C 11.21875 32.835938 11.933594 33.15625 12.453125 33.75 C 13.039063 34.402344 13.3125 35.296875 13.203125 36.195313 Z "/>
<path style=" fill:#006064;" d="M 22.402344 27.660156 C 22.363281 27.679688 22.234375 27.761719 22.039063 27.882813 L 24.765625 29.8125 L 30.117188 25.859375 L 27.523438 23.949219 Z "/>
<path style=" fill:#006064;" d="M 23.484375 23.484375 C 23.484375 24.039063 23.039063 24.484375 22.484375 24.484375 C 21.933594 24.484375 21.484375 24.039063 21.484375 23.484375 C 21.484375 22.933594 21.933594 22.484375 22.484375 22.484375 C 23.039063 22.484375 23.484375 22.933594 23.484375 23.484375 Z "/>
</g>
</svg>
