<?xml version="1.0"?>
<svg xmlns="http://www.w3.org/2000/svg" xmlns:xlink="http://www.w3.org/1999/xlink" version="1.1" viewBox="0 0 172 172" fill="000000"><g fill="none" fill-rule="nonzero" stroke="none" stroke-width="1" stroke-linecap="butt" stroke-linejoin="miter" stroke-miterlimit="10" stroke-dasharray="" stroke-dashoffset="0" font-family="none" font-weight="none" font-size="none" text-anchor="none" style="mix-blend-mode: normal"><path d="M0,172v-172h172v172z" fill="none"/><g id="Layer_1"><g id="surface1"><path d="M157.66667,86c0,39.41667 -32.25,71.66667 -71.66667,71.66667c-39.41667,0 -71.66667,-32.25 -71.66667,-71.66667c0,-39.41667 32.25,-71.66667 71.66667,-71.66667c39.41667,0 71.66667,32.25 71.66667,71.66667z" fill="#e0dddc"/><rect x="-15.86098" y="14.45883" transform="rotate(-71.56143) scale(3.58347,3.58347)" width="2" height="8.3" fill="#bfbfbf"/><rect x="23" y="8" transform="scale(3.58333,3.58333)" width="2" height="8" fill="#bfbfbf"/><rect x="-22.62628" y="31.44896" transform="rotate(-56.31152) scale(3.58348,3.58348)" width="9.2" height="2" fill="#bfbfbf"/><rect x="6.48974" y="40.05348" transform="rotate(-33.68848) scale(3.58348,3.58348)" width="2" height="9.2" fill="#bfbfbf"/><rect x="19.60795" y="29.03408" transform="rotate(-18.41502) scale(3.58336,3.58336)" width="11.5" height="2" fill="#bfbfbf"/><path d="M57.33333,75.25l28.66667,-21.5l28.66667,21.5l-10.75,32.25h-35.83333zM107.5,17.55833c-6.80833,-2.15 -13.975,-3.225 -21.5,-3.225c-7.525,0 -14.69167,1.075 -21.5,3.225l-5.73333,10.39167l27.23333,7.88333l25.08333,-7.16667zM150.5,93.16667l7.16667,-7.16667c0,-17.91667 -6.45,-34.04167 -17.2,-46.58333l-7.88333,1.075v29.025zM115.38333,124.7l-15.40833,24.36667l8.24167,5.01667c16.125,-5.375 29.74167,-16.125 38.34167,-30.1l-2.86667,-10.39167zM39.775,69.51667l-0.35833,-29.025l-7.88333,-1.075c-10.75,12.54167 -17.2,28.66667 -17.2,46.58333l7.16667,7.16667zM28.30833,113.95l-2.86667,10.39167c8.95833,13.975 22.21667,24.725 38.34167,30.1l7.88333,-5.73333l-14.69167,-23.65z" fill="#333333"/></g></g></g></svg>
