<?xml version="1.0"?>
<svg xmlns="http://www.w3.org/2000/svg" xmlns:xlink="http://www.w3.org/1999/xlink" version="1.1" viewBox="0 0 172 172" fill="000000"><g fill="none" fill-rule="nonzero" stroke="none" stroke-width="1" stroke-linecap="butt" stroke-linejoin="miter" stroke-miterlimit="10" stroke-dasharray="" stroke-dashoffset="0" font-family="none" font-weight="none" font-size="none" text-anchor="none" style="mix-blend-mode: normal"><path d="M0,172v-172h172v172z" fill="none"/><g><g id="surface1"><path d="M50.16667,136.16667c-7.16667,0 68.08333,0 60.91667,0c-7.16667,0 -7.16667,10.75 -7.16667,10.75h-46.58333c0,0 0,-10.75 -7.16667,-10.75z" fill="#9b59b6"/><path d="M121.83333,78.83333c7.16667,0 21.5,-25.08333 21.5,-25.08333h17.91667v3.58333h-1.79167c-10.75,3.58333 -8.95833,14.33333 -12.54167,35.83333c-3.58333,21.5 -21.5,25.08333 -21.5,25.08333c0,0 -10.75,-39.41667 -3.58333,-39.41667z" fill="#8300a7"/><path d="M53.75,57.33333c0,-8.86035 10.84798,-17.91667 28.66667,-17.91667c17.80469,0 28.66667,9.05632 28.66667,17.91667c0,8.87435 -10.86198,14.17936 -28.66667,14.17936c-17.81868,0 -28.66667,-5.30501 -28.66667,-14.17936z" fill="#8300a7"/><path d="M43.19597,54.88379l15.67708,4.88509l-3.19141,10.26009l-15.67708,-4.88509c-7.5446,-2.33757 -15.5931,1.87565 -17.97266,9.47624c-0.014,0.06999 -1.37175,6.13086 0.27995,16.27897l0.46191,2.86947c1.79167,11.53385 2.95345,15.73307 8.79036,17.53874l10.26009,3.2054l-3.19141,10.26009l-10.26009,-3.19141c-12.75163,-3.97526 -14.5153,-15.24317 -16.22298,-26.14714l-0.44792,-2.79948c-2.08561,-12.80762 -0.13997,-20.57617 0.08399,-21.26205c4.11523,-13.19955 18.21061,-20.60417 31.41016,-16.48893z" fill="#8300a7"/><path d="M114.66667,50.16667c0,0 14.33333,35.83333 14.33333,60.91667c0,25.08333 -17.65072,32.25 -39.41667,32.25h-17.91667c-21.76595,0 -39.41667,-7.16667 -39.41667,-32.25c0,-25.08333 17.91667,-60.91667 17.91667,-60.91667z" fill="#9b59b6"/><path d="M89.58333,32.25c0,3.96126 -3.2054,7.16667 -7.16667,7.16667c-3.96126,0 -7.16667,-3.2054 -7.16667,-7.16667c0,-3.96126 3.2054,-7.16667 7.16667,-7.16667c3.96126,0 7.16667,3.2054 7.16667,7.16667z" fill="#8300a7"/></g></g></g></svg>
