<?xml version="1.0" encoding="UTF-8"?>
<svg xmlns="http://www.w3.org/2000/svg" xmlns:xlink="http://www.w3.org/1999/xlink" viewBox="0 0 38 38" version="1.1" fill="000000">
<g id="surface130624">
<path style=" stroke:none;fill-rule:nonzero;fill:rgb(20.392157%,28.627451%,36.862745%);fill-opacity:1;" d="M 26.125 15.042969 L 22.496094 15.042969 L 22.496094 17.417969 L 26.125 17.417969 C 27.871094 17.417969 29.292969 18.835938 29.292969 20.597656 C 29.292969 20.609375 29.179688 21.980469 28.164062 24.011719 L 27.878906 24.585938 C 26.742188 26.898438 26.222656 27.707031 24.871094 27.707031 L 22.496094 27.707031 L 22.496094 30.082031 L 24.871094 30.082031 C 27.820312 30.082031 28.933594 27.820312 30.011719 25.632812 L 30.289062 25.074219 C 31.570312 22.507812 31.671875 20.742188 31.667969 20.582031 C 31.667969 17.527344 29.179688 15.042969 26.125 15.042969 Z M 26.125 15.042969 "/>
<path style=" stroke:none;fill-rule:nonzero;fill:rgb(73.72549%,66.666667%,64.313725%);fill-opacity:1;" d="M 19.765625 11.800781 L 19.515625 11.441406 C 19.421875 11.292969 18.601562 9.9375 18.601562 8.648438 C 18.601562 7.875 18.902344 7.394531 19.117188 7.042969 C 19.289062 6.765625 19.394531 6.597656 19.394531 6.273438 C 19.394531 5.5625 18.910156 4.617188 18.722656 4.316406 L 18.496094 3.953125 L 19.839844 3.117188 L 20.066406 3.480469 C 20.160156 3.628906 20.976562 4.980469 20.976562 6.273438 C 20.976562 7.046875 20.679688 7.527344 20.464844 7.878906 C 20.289062 8.15625 20.1875 8.324219 20.1875 8.648438 C 20.1875 9.359375 20.671875 10.300781 20.859375 10.605469 L 21.109375 10.96875 Z M 15.820312 11.800781 L 15.566406 11.441406 C 15.476562 11.292969 14.65625 9.9375 14.65625 8.648438 C 14.65625 7.875 14.953125 7.394531 15.171875 7.042969 C 15.34375 6.765625 15.449219 6.597656 15.449219 6.273438 C 15.449219 5.5625 14.964844 4.617188 14.773438 4.316406 L 14.550781 3.953125 L 15.894531 3.117188 L 16.121094 3.480469 C 16.214844 3.628906 17.03125 4.980469 17.03125 6.273438 C 17.03125 7.046875 16.734375 7.527344 16.515625 7.878906 C 16.34375 8.15625 16.238281 8.324219 16.238281 8.648438 C 16.238281 9.359375 16.726562 10.300781 16.914062 10.605469 L 17.160156 10.96875 Z M 11.875 11.800781 L 11.621094 11.441406 C 11.527344 11.292969 10.710938 9.9375 10.710938 8.648438 C 10.710938 7.875 11.007812 7.394531 11.226562 7.042969 C 11.398438 6.765625 11.503906 6.597656 11.503906 6.273438 C 11.503906 5.5625 11.019531 4.617188 10.828125 4.316406 L 10.605469 3.953125 L 11.949219 3.117188 L 12.175781 3.480469 C 12.269531 3.628906 13.085938 4.980469 13.085938 6.273438 C 13.085938 7.046875 12.789062 7.527344 12.570312 7.878906 C 12.398438 8.15625 12.292969 8.324219 12.292969 8.648438 C 12.292969 9.359375 12.777344 10.300781 12.96875 10.605469 L 13.214844 10.96875 Z M 11.875 11.800781 "/>
<path style=" stroke:none;fill-rule:nonzero;fill:rgb(20%,15.686275%,70.980392%);fill-opacity:1;" d="M 25.332031 11.480469 C 25.332031 10.824219 24.800781 10.292969 24.144531 10.292969 L 7.519531 10.292969 C 6.867188 10.292969 6.332031 10.824219 6.332031 11.480469 C 6.332031 11.480469 6.332031 22.167969 8.707031 34.832031 L 22.957031 34.832031 C 25.332031 22.167969 25.332031 11.480469 25.332031 11.480469 Z M 25.332031 11.480469 "/>
</g>
</svg>
