<?xml version="1.0" encoding="UTF-8" standalone="no"?>
<!-- Created with Inkscape (http://www.inkscape.org/) -->

<svg
   xmlns:dc="http://purl.org/dc/elements/1.1/"
   xmlns:cc="http://creativecommons.org/ns#"
   xmlns:rdf="http://www.w3.org/1999/02/22-rdf-syntax-ns#"
   xmlns:svg="http://www.w3.org/2000/svg"
   xmlns="http://www.w3.org/2000/svg"
   xmlns:sodipodi="http://sodipodi.sourceforge.net/DTD/sodipodi-0.dtd"
   xmlns:inkscape="http://www.inkscape.org/namespaces/inkscape"
   width="255.22066"
   height="46.786949"
   id="svg2"
   version="1.1"
   inkscape:version="0.48.4 r9939"
   sodipodi:docname="screen_region.svg"
   inkscape:export-filename="C:\Users\jrm219\Google Drive\Work\CS Field Guide Website\Interactive Prototypes\Searching Algorithms\Textures\screen_region.png"
   inkscape:export-xdpi="92.129959"
   inkscape:export-ydpi="92.129959">
  <defs
     id="defs4" />
  <sodipodi:namedview
     id="base"
     pagecolor="#ffffff"
     bordercolor="#666666"
     borderopacity="1.0"
     inkscape:pageopacity="0.0"
     inkscape:pageshadow="2"
     inkscape:zoom="7.9152968"
     inkscape:cx="197.00929"
     inkscape:cy="24.64453"
     inkscape:document-units="px"
     inkscape:current-layer="layer1"
     showgrid="false"
     showborder="true"
     inkscape:window-width="1920"
     inkscape:window-height="1028"
     inkscape:window-x="-8"
     inkscape:window-y="-8"
     inkscape:window-maximized="1"
     fit-margin-top="0"
     fit-margin-left="0"
     fit-margin-right="0"
     fit-margin-bottom="0" />
  <metadata
     id="metadata7">
    <rdf:RDF>
      <cc:Work
         rdf:about="">
        <dc:format>image/svg+xml</dc:format>
        <dc:type
           rdf:resource="http://purl.org/dc/dcmitype/StillImage" />
        <dc:title></dc:title>
      </cc:Work>
    </rdf:RDF>
  </metadata>
  <g
     inkscape:label="Layer 1"
     inkscape:groupmode="layer"
     id="layer1"
     transform="translate(-1.6857428,-876.61482)">
    <path
       style="fill:#ff2a2a;fill-opacity:1;stroke:none"
       id="path3029"
       d="m 22.360437,877.47731 c 2.805461,0.1756 1.777803,4.30489 -1.314674,4.42598 -6.484258,0.19026 -13.0991462,-0.50213 -17.5582553,-0.70368 -2.4435936,-0.0835 -1.617395,-3.80145 0.00574,-4.03204 2.5399549,-0.27578 13.0794633,0.0512 18.8671973,0.30974 z"
       inkscape:connector-curvature="0"
       sodipodi:nodetypes="ccccc" />
    <path
       style="fill:#ff2a2a;fill-opacity:1;stroke:none"
       id="path3029-1"
       d="m 256.12538,878.9011 c 0.29631,0.75079 0.25974,0.92727 0.31281,1.43114 0.0727,1.16347 0.0725,2.32791 0.12474,3.49175 0.18488,2.07175 0.26506,4.14474 0.32977,6.21829 0.0218,3.0367 0.0207,6.07365 -0.0263,9.11026 9.1e-4,3.39143 -0.037,6.78263 -0.0676,10.17397 -0.009,0.521 -0.021,1.04197 -0.0264,1.56298 -0.0184,1.75824 0.0145,1.17702 -0.0324,2.89036 -0.0336,1.22373 -0.0933,2.44732 -0.15105,3.67074 -0.1342,1.2287 -0.13363,2.47721 -0.79138,3.66572 -0.61354,1.04452 -3.29028,0.89914 -3.56545,0.59088 -0.16945,-0.22732 -0.21318,-0.47718 -0.29028,-0.71892 -0.37926,-1.18923 -0.20426,-2.3967 -0.23366,-3.59641 0.076,-2.69555 0.0597,-5.39169 0.12315,-8.08733 0.0529,-3.38961 0.0784,-6.77934 0.1426,-10.1689 0.008,-3.02971 0.0813,-6.05915 0.0799,-9.08888 0.0417,-2.06546 0.0717,-4.13084 0.15337,-6.19599 -0.001,-1.16742 0.0347,-3.19158 0.0757,-4.35879 0.30462,-1.63584 2.64249,-1.46544 3.8424,-0.59087 z"
       inkscape:connector-curvature="0"
       sodipodi:nodetypes="ccccccsscccscccccccc" />
    <path
       style="fill:#ff2a2a;fill-opacity:1;stroke:none"
       id="path3029-1-7"
       d="m 2.9180571,921.22497 c -0.3094624,-0.73582 -0.2759823,-0.90942 -0.337881,-1.40412 -0.093139,-1.14258 -0.1132857,-2.28654 -0.1859808,-3.42961 -0.2211994,-2.03421 -0.3377192,-4.07027 -0.4387912,-6.10696 -0.075073,-2.98316 -0.1272641,-5.96671 -0.1334348,-8.95018 -0.060588,-3.33177 -0.081964,-6.66355 -0.1108686,-9.99541 -2.61e-4,-0.51189 0.00272,-1.02377 -0.00104,-1.53565 -0.012425,-1.72743 -0.035226,-1.15622 -0.018272,-2.83971 0.012112,-1.2024 0.050335,-2.40483 0.086673,-3.60708 0.1126461,-1.20787 -0.1940857,-3.32353 0.4427901,-4.495 1.6443239,-0.55766 3.3979919,-0.25379 3.8391611,0.28765 0.1734221,0.22232 0.2215387,0.46754 0.3028712,0.70457 0.4000982,1.16608 0.2462793,2.35335 0.2967133,3.53179 -0.028761,2.64858 0.03486,5.2972 0.01869,7.94581 0.00652,3.3303 0.040534,6.66056 0.035729,9.99087 0.045115,2.97648 0.024981,5.95306 0.079453,8.92949 -0.00545,2.02937 7.772e-4,4.0586 -0.044713,6.08791 0.021927,1.14688 0.021273,3.13566 7.772e-4,4.28257 -0.2759219,1.60886 -2.6166571,1.4552 -3.8318413,0.60306 z"
       inkscape:connector-curvature="0"
       sodipodi:nodetypes="ccccccsscccscccccccc" />
    <path
       style="fill:#ff2a2a;fill-opacity:1;stroke:none"
       id="path3029-5"
       d="m 4.2711333,922.74384 c -2.805461,-0.1756 -1.777803,-4.30489 1.314674,-4.42598 6.4842577,-0.19026 13.0991467,0.50213 17.5582557,0.70368 2.443594,0.0835 1.617395,3.80145 -0.0057,4.03204 -2.539955,0.27578 -13.079464,-0.0512 -18.8671977,-0.30974 z"
       inkscape:connector-curvature="0"
       sodipodi:nodetypes="ccccc" />
    <path
       style="fill:#ff2a2a;fill-opacity:1;stroke:none"
       id="path3029-0"
       d="m 235.73543,922.70349 c -2.80546,-0.1756 -1.7778,-4.30489 1.31468,-4.42598 6.48426,-0.19026 13.09914,0.50213 17.55825,0.70368 2.4436,0.0835 1.6174,3.80145 -0.006,4.03204 -2.53995,0.27578 -13.07946,-0.0512 -18.86719,-0.30974 z"
       inkscape:connector-curvature="0"
       sodipodi:nodetypes="ccccc" />
    <path
       style="fill:#ff2a2a;fill-opacity:1;stroke:none"
       id="path3029-5-2"
       d="m 253.82474,877.43696 c 2.80546,0.1756 1.7778,4.30489 -1.31468,4.42598 -6.48425,0.19026 -13.09914,-0.50213 -17.55825,-0.70368 -2.4436,-0.0835 -1.6174,-3.80145 0.006,-4.03204 2.53995,-0.27578 13.07946,0.0512 18.8672,0.30974 z"
       inkscape:connector-curvature="0"
       sodipodi:nodetypes="ccccc" />
  </g>
</svg>
