<?xml version="1.0" encoding="UTF-8"?>
<svg xmlns="http://www.w3.org/2000/svg" viewBox="0 0 1081.99 713.62">
  <defs><style>.cls-1{fill:#b2d6de;}.cls-2{stroke-width:3.39px;}.cls-2,.cls-3,.cls-4,.cls-5,.cls-6,.cls-7,.cls-8,.cls-9,.cls-10,.cls-11,.cls-12,.cls-13,.cls-14,.cls-15,.cls-16,.cls-17,.cls-18{stroke-miterlimit:10;}.cls-2,.cls-6,.cls-8,.cls-19,.cls-9,.cls-20,.cls-10,.cls-12,.cls-21,.cls-16,.cls-18{fill:none;}.cls-2,.cls-8,.cls-10,.cls-16,.cls-18{stroke:#8c6239;}.cls-3{fill:#bdccd4;}.cls-3,.cls-4,.cls-5,.cls-6,.cls-7,.cls-11,.cls-12,.cls-13,.cls-14,.cls-15,.cls-17{stroke:#333;}.cls-3,.cls-4,.cls-5,.cls-6,.cls-7,.cls-11,.cls-13,.cls-14,.cls-15,.cls-17{stroke-width:.5px;}.cls-4{fill:#ff7bac;}.cls-22{fill:#93cc66;}.cls-23{fill:#998f87;}.cls-24{fill:#c8eedb;}.cls-24,.cls-25,.cls-26,.cls-27,.cls-28,.cls-29,.cls-30,.cls-31,.cls-32,.cls-33,.cls-34,.cls-35,.cls-36,.cls-20,.cls-37,.cls-38,.cls-39,.cls-40,.cls-41,.cls-42,.cls-21,.cls-43,.cls-44,.cls-45,.cls-46,.cls-47,.cls-48,.cls-49,.cls-50{fill-rule:evenodd;}.cls-51{fill:#3cc873;}.cls-25{fill:#5b6499;}.cls-26{fill:#6c7099;}.cls-27{fill:#4d5580;}.cls-28{fill:#b7bd82;}.cls-5,.cls-52{fill:#662d91;}.cls-7{fill:#006837;}.cls-29{fill:#959dcc;}.cls-53{fill:#4d4d4d;}.cls-30{fill:#534e4b;}.cls-31{fill:#f90;}.cls-8{stroke-width:4.71px;}.cls-32{fill:#454d52;}.cls-54{font-family:NotoSans-Regular, 'Noto Sans';font-size:16px;}.cls-19,.cls-9{stroke:#000;stroke-width:3px;}.cls-19,.cls-20,.cls-21{stroke-linejoin:round;}.cls-33{fill:#736357;}.cls-34{fill:#8289b3;}.cls-55{fill:#333;}.cls-35{fill:#5b5f63;}.cls-36{fill:#5d6670;}.cls-56,.cls-42{fill:gray;}.cls-20{stroke:#93278f;}.cls-20,.cls-12,.cls-21{stroke-linecap:round;}.cls-20,.cls-21{stroke-width:2px;}.cls-37{fill:#e6e6e6;}.cls-38{fill:#998675;}.cls-57{fill:#22b573;}.cls-58{fill:#6e6365;}.cls-59,.cls-17{fill:#0071bc;}.cls-60{fill:#2f5269;}.cls-61{letter-spacing:-.02em;}.cls-10{stroke-width:5.5px;}.cls-39,.cls-62{fill:#b3b3b3;}.cls-11{fill:#fcee21;}.cls-40{fill:#9c8c90;}.cls-41{fill:#b0a69b;}.cls-12{stroke-width:.76px;}.cls-63,.cls-47{fill:#999;}.cls-64{fill:#ccc;}.cls-65{font-family:NotoSans-Bold, 'Noto Sans';font-size:26px;}.cls-21{stroke:#ff7bac;}.cls-66{fill:#3cb863;}.cls-43{fill:#c5cae9;}.cls-44,.cls-14{fill:#ffb442;}.cls-13{fill:#8cc63f;}.cls-15{fill:#e32e35;}.cls-45{fill:#9da662;}.cls-16{stroke-width:4.43px;}.cls-46{fill:#39b54a;}.cls-67{fill:#666;}.cls-48{fill:#518cb3;}.cls-49{fill:#c3def2;}.cls-50{fill:#c7b299;}.cls-18{stroke-width:3.96px;}</style></defs>
  <g id="fsa"><path d="M107.75,481.73c44.21,0,80.18,30.26,80.18,67.45s-35.97,67.45-80.18,67.45-80.18-30.26-80.18-67.45,35.97-67.45,80.18-67.45m0-2.47c-45.65,0-82.65,31.31-82.65,69.93s37,69.93,82.65,69.93,82.65-31.31,82.65-69.93-37-69.93-82.65-69.93h0Z"/><path d="M462.56,541.78c44.25,0,80.25,28.46,80.25,63.44s-36,63.44-80.25,63.44-80.25-28.46-80.25-63.44,36-63.44,80.25-63.44m0-2.4c-45.65,0-82.65,29.48-82.65,65.84s37,65.84,82.65,65.84,82.65-29.48,82.65-65.84-37-65.84-82.65-65.84h0Z"/><path d="M930.15,510.69c44.25,0,80.25,28.46,80.25,63.44s-36,63.44-80.25,63.44-80.25-28.46-80.25-63.44,36-63.44,80.25-63.44m0-2.4c-45.65,0-82.65,29.48-82.65,65.84s37,65.84,82.65,65.84,82.65-29.48,82.65-65.84-37-65.84-82.65-65.84h0Z"/><path d="M980.69,192.58c48.25,0,87.5,28.4,87.5,63.31s-39.25,63.31-87.5,63.31-87.5-28.4-87.5-63.31,39.25-63.31,87.5-63.31m0-2.5c-49.71,0-90,29.46-90,65.81s40.3,65.81,90,65.81,90-29.46,90-65.81-40.3-65.81-90-65.81h0Z"/><path d="M736.46,300.9c19.77,0,38.75,5.7,53.44,16.05,14.77,10.41,24.53,25.12,27.48,41.43,3.43,19-2.33,38.52-16.23,54.96-14.02,16.59-34.61,28.05-57.97,32.26-6.34,1.14-12.76,1.72-19.09,1.72-19.77,0-38.76-5.7-53.45-16.05-14.78-10.41-24.53-25.12-27.48-41.43-3.43-19,2.33-38.52,16.23-54.96,14.02-16.59,34.61-28.05,57.97-32.26,6.33-1.14,12.76-1.72,19.09-1.72h0m0-2.69c-6.4,0-12.96,.57-19.57,1.77-49.57,8.95-83.77,49.4-76.37,90.35,6.41,35.49,41.95,59.7,83.58,59.7,6.4,0,12.96-.57,19.57-1.77,49.57-8.95,83.77-49.4,76.37-90.35-6.41-35.49-41.95-59.7-83.58-59.7h0Z"/><path d="M419.96,266.02c50.45,0,91.49,33.97,91.49,75.72s-41.04,75.72-91.49,75.72-91.49-33.97-91.49-75.72,41.04-75.72,91.49-75.72m0-2.8c-52.07,0-94.29,35.15-94.29,78.52s42.21,78.52,94.29,78.52,94.29-35.15,94.29-78.52-42.21-78.52-94.29-78.52h0Z"/><path d="M99.78,249.73c5.52,0,11.15,.44,16.72,1.29,21.07,3.24,39.94,12.2,53.13,25.22,13,12.83,18.9,28.06,16.62,42.9-1.97,12.78-10.09,24.33-22.88,32.54-12.8,8.21-29.63,12.74-47.4,12.74-5.53,0-11.16-.44-16.73-1.29-21.07-3.24-39.94-12.2-53.13-25.22-13-12.83-18.9-28.06-16.62-42.9,1.97-12.78,10.09-24.33,22.88-32.54,12.8-8.21,29.63-12.73,47.41-12.74h0m0-2.25c-37.28,0-68.2,19.18-72.51,47.18-4.96,32.19,27.12,63.84,71.64,70.69,5.79,.89,11.5,1.32,17.07,1.32,37.28,0,68.2-19.18,72.51-47.18,4.96-32.19-27.12-63.84-71.64-70.69-5.79-.89-11.5-1.32-17.07-1.32h0Z"/><g><path d="M304.09,27.58c4.55,0,9.19,.3,13.77,.89,45.01,5.78,78.06,38.24,73.68,72.35-1.84,14.35-10.35,27.51-23.94,37.04-14.01,9.82-32.42,15.23-51.86,15.23-4.55,0-9.19-.3-13.77-.89-45.01-5.78-78.06-38.24-73.68-72.35,1.84-14.36,10.35-27.51,23.94-37.04,14.01-9.82,32.42-15.23,51.86-15.23m0-2.7c-19.99,0-38.96,5.58-53.41,15.72-14.23,9.97-23.13,23.79-25.07,38.91-4.57,35.59,29.53,69.4,76.02,75.37,4.7,.6,9.44,.91,14.11,.91,19.99,0,38.96-5.58,53.41-15.72,14.23-9.97,23.13-23.79,25.07-38.91,4.57-35.59-29.53-69.4-76.02-75.37-4.7-.6-9.44-.91-14.11-.91h0Z"/><path d="M304.09,21.58c4.81,0,9.69,.31,14.53,.94,48.29,6.2,83.67,41.67,78.87,79.06-2.06,16.05-11.46,30.68-26.45,41.19-15.01,10.52-34.65,16.31-55.31,16.31-4.81,0-9.7-.31-14.53-.94-48.29-6.2-83.67-41.67-78.87-79.06,2.06-16.05,11.45-30.68,26.45-41.19,15.01-10.52,34.65-16.31,55.31-16.31h0m0-2.7c-43.53,0-79.94,24.85-84.44,59.86-5,38.93,31.36,75.68,81.2,82.09,5.03,.65,9.99,.96,14.88,.96,43.53,0,79.94-24.85,84.44-59.86,5-38.93-31.36-75.68-81.2-82.09-5.03-.65-9.99-.96-14.88-.96h0Z"/></g><path d="M698.49,10.15c40.48,0,73.42,25.05,73.42,55.84s-32.94,55.84-73.42,55.84-73.42-25.05-73.42-55.84,32.94-55.84,73.42-55.84m0-2.15c-41.74,0-75.57,25.96-75.57,57.99s33.83,57.99,75.57,57.99,75.57-25.96,75.57-57.99-33.83-57.99-75.57-57.99h0Z"/></g>
  <g id="labels">
      <text id="station-1" class="cls-54" transform="translate(43.42 582.63)">Station 1: Airport</text>
      <text id="station-2" class="cls-54" transform="translate(51.59 340.86)">Station 2: West</text>
      <text id="station-3" class="cls-54" transform="translate(402.83 640.27)">Station 3: South</text>
      <text id="station-4" class="cls-54" transform="translate(354.65 389.18)">Station 4: Central</text>
      <text id="station-5" class="cls-54" transform="translate(242.64 116.6)">Station 5: Harbour</text>
      <text id="station-6" class="cls-54" transform="translate(863.37 604.61)">Station 6: Factory</text>
      <text id="station-7" class="cls-54" transform="translate(657.82 416.42)">Station 7: Midway</text>
      <text id="station-8" class="cls-54" transform="translate(631.82 90.26)">Station 8: North</text>
      <text id="station-9" class="cls-54" transform="translate(927.28 293.24)">Station 9: East</text>
      <text id="station-0" class="cls-54" transform="translate(13.08 704.74)">Start</text>
  </g>
  <g id="stations"><g><path class="cls-50" d="M679.09,354.85h110.23v40.37h-110.23v-40.37Z"/><path class="cls-50" d="M721.89,318.3h24.61v31.64h-24.61v-31.64Z"/><path class="cls-38" d="M721.89,318.33l12.31-13.64,12.31,13.64h-24.61Z"/><path class="cls-37" d="M726.55,331.01h0c0-4.23,3.43-7.66,7.66-7.66h0c2.03,0,3.98,.81,5.42,2.24,1.44,1.44,2.24,3.39,2.24,5.42h0c0,4.23-3.43,7.66-7.66,7.66h0c-4.23,0-7.66-3.43-7.66-7.66Z"/><path class="cls-33" d="M679.08,349.95h110.23v4.9h-110.23v-4.9Z"/><path class="cls-33" d="M679.09,349.95l21.4-6.24,21.4,6.24h-42.8Z"/><path class="cls-33" d="M746.51,349.95l21.4-6.24,21.4,6.24h-42.8Z"/><g><rect class="cls-1" x="683.22" y="377.48" width="7.72" height="11.74" rx="1" ry="1"/><path class="cls-1" d="M748.45,377.48h13.13c.88,0,1.6,.72,1.6,1.6v16.13h-16.33v-16.13c0-.88,.72-1.6,1.6-1.6Z"/><path class="cls-1" d="M706.83,377.48h13.13c.88,0,1.6,.72,1.6,1.6v16.13h-16.33v-16.13c0-.88,.72-1.6,1.6-1.6Z"/><rect class="cls-1" x="694.22" y="377.48" width="7.72" height="11.74" rx="1" ry="1"/><rect class="cls-1" x="724.84" y="377.48" width="7.72" height="11.74" rx="1" ry="1"/><rect class="cls-1" x="735.85" y="377.48" width="7.72" height="11.74" rx="1" ry="1"/><rect class="cls-1" x="766.47" y="377.48" width="7.72" height="11.74" rx="1" ry="1"/><rect class="cls-1" x="777.47" y="377.48" width="7.72" height="11.74" rx="1" ry="1"/></g><g><rect class="cls-1" x="683.22" y="358.05" width="7.72" height="11.74" rx="1" ry="1"/><rect class="cls-1" x="694.23" y="358.05" width="7.72" height="11.74" rx="1" ry="1"/><rect class="cls-1" x="724.85" y="358.05" width="7.72" height="11.74" rx="1" ry="1"/><rect class="cls-1" x="735.85" y="358.05" width="7.72" height="11.74" rx="1" ry="1"/><rect class="cls-1" x="766.47" y="358.05" width="7.72" height="11.74" rx="1" ry="1"/><rect class="cls-1" x="777.48" y="358.05" width="7.72" height="11.74" rx="1" ry="1"/><rect class="cls-1" x="745.65" y="358.05" width="7.72" height="11.74" rx="1" ry="1"/><rect class="cls-1" x="756.66" y="358.05" width="7.72" height="11.74" rx="1" ry="1"/><rect class="cls-1" x="704.03" y="358.05" width="7.72" height="11.74" rx="1" ry="1"/><rect class="cls-1" x="715.03" y="358.05" width="7.72" height="11.74" rx="1" ry="1"/></g><g><g><line class="cls-6" x1="660.27" y1="395.38" x2="660.27" y2="381.54"/><line class="cls-6" x1="673.16" y1="395.38" x2="673.16" y2="381.54"/></g><rect class="cls-15" x="655.16" y="377.31" width="23.11" height="4.06" rx="2.03" ry="2.03"/></g></g><g><g><path class="cls-32" d="M903.59,553.23h92.14v25.67h-92.14v-25.67Z"/><path class="cls-36" d="M995.73,553.23v-9.61l-17.22,9.61h17.22Z"/><path class="cls-36" d="M978.5,553.23v-9.61l-17.22,9.61h17.22Z"/><path class="cls-36" d="M961.27,553.23v-9.61l-17.22,9.61h17.22Z"/><path class="cls-36" d="M944.04,553.23v-9.61l-17.22,9.61h17.22Z"/><path class="cls-36" d="M905.59,553.23l2.19-34.56h3.69l2.19,34.56h-8.07Z"/><path class="cls-36" d="M915.74,553.23l2.19-34.56h3.69l2.19,34.56h-8.07Z"/><path class="cls-44" d="M903.59,556.61h92.14v1.8h-92.14v-1.8Z"/><path class="cls-44" d="M903.59,559.71h92.14v1.8h-92.14v-1.8Z"/><path class="cls-31" d="M906.83,533.74l.11-1.8h5.37l.11,1.8h-5.59Z"/><path class="cls-31" d="M916.98,533.74l.11-1.8h5.37l.11,1.8h-5.59Z"/></g><g><polygon class="cls-30" points="975.32 577.11 868.37 577.11 858.37 583.57 985.32 583.57 975.32 577.11"/><rect class="cls-63" x="937.19" y="560.99" width="32.8" height="16.13"/><polygon class="cls-42" points="971.23 557.3 935.96 557.3 934.66 560.99 972.53 560.99 971.23 557.3"/><g><g><line class="cls-6" x1="876.04" y1="577.11" x2="876.04" y2="563.27"/><line class="cls-6" x1="888.93" y1="577.11" x2="888.93" y2="563.27"/></g><rect class="cls-14" x="870.93" y="559.05" width="23.11" height="4.06" rx="2.03" ry="2.03"/></g><g><rect class="cls-1" x="939.41" y="564.44" width="6.67" height="12.68"/><rect class="cls-1" x="948.22" y="564.44" width="8.71" height="5.78"/><rect class="cls-1" x="959.08" y="564.44" width="8.71" height="5.78"/></g></g></g><g><path class="cls-27" d="M392.54,313.11h42.89v51.48h-42.89v-51.48Z"/><path class="cls-26" d="M424.23,291.5h31.52v73.09h-31.52v-73.09Z"/><path class="cls-29" d="M370.05,279.45h32.71v85.15h-32.71v-85.15Z"/><path class="cls-34" d="M441.53,325.71h24.29v38.88h-24.29v-38.88Z"/><path class="cls-25" d="M353.8,301.45h21.41v63.15h-21.41v-63.15Z"/><path class="cls-43" d="M357.69,305.32h5.24v5.24h-5.24v-5.24Z"/><path class="cls-43" d="M365.87,305.32h5.24v5.24h-5.24v-5.24Z"/><path class="cls-43" d="M357.69,313.1h5.24v5.24h-5.24v-5.24Z"/><path class="cls-43" d="M427.78,308.48v-5.24h5.24v5.24h-5.24Z"/><path class="cls-43" d="M427.78,300.3v-5.24h5.24v5.24h-5.24Z"/><path class="cls-43" d="M447.22,308.48v-5.24h5.24v5.24h-5.24Z"/><path class="cls-43" d="M400.02,282.38v5.24h-5.24v-5.24h5.24Z"/><path class="cls-43" d="M400.02,290.56v5.24h-5.24v-5.24h5.24Z"/><path class="cls-43" d="M392.24,282.38v5.24h-5.24v-5.24h5.24Z"/><path class="cls-43" d="M400.02,298.75v5.24h-5.24v-5.24h5.24Z"/><path class="cls-43" d="M392.24,290.56v5.24h-5.24v-5.24h5.24Z"/><path class="cls-43" d="M410.21,315.43v5.24h-5.24v-5.24h5.24Z"/><path class="cls-43" d="M449.51,328.65v5.24h-5.24v-5.24h5.24Z"/><g><polygon class="cls-30" points="474.44 361.68 367.5 361.68 357.5 368.14 484.44 368.14 474.44 361.68"/><rect class="cls-23" x="436.32" y="345.55" width="32.8" height="16.13"/><polygon class="cls-35" points="470.35 341.86 435.09 341.86 433.79 345.55 471.66 345.55 470.35 341.86"/><g><g><line class="cls-6" x1="375.16" y1="361.68" x2="375.16" y2="347.83"/><line class="cls-6" x1="388.05" y1="361.68" x2="388.05" y2="347.83"/></g><rect class="cls-17" x="370.05" y="343.61" width="23.11" height="4.06" rx="2.03" ry="2.03"/></g><g><rect class="cls-1" x="438.53" y="349" width="6.67" height="12.68"/><rect class="cls-1" x="447.35" y="349" width="8.71" height="5.78"/><rect class="cls-1" x="458.2" y="349" width="8.71" height="5.78"/></g></g></g><g><g><g><line class="cls-8" x1="681.58" y1="64.8" x2="681.58" y2="52.71"/><polygon class="cls-66" points="681.58 26.09 673.74 38.47 689.41 38.47 681.58 26.09"/><polygon class="cls-66" points="681.58 31.31 671.52 47.2 691.63 47.2 681.58 31.31"/><polygon class="cls-66" points="681.58 37.8 668.62 58.26 694.53 58.26 681.58 37.8"/></g><g><line class="cls-2" x1="669.25" y1="64.56" x2="669.25" y2="55.85"/><polygon class="cls-51" points="669.25 36.69 663.61 45.6 674.89 45.6 669.25 36.69"/><polygon class="cls-51" points="669.25 40.45 662.01 51.89 676.49 51.89 669.25 40.45"/><polygon class="cls-51" points="669.25 45.12 659.93 59.85 678.57 59.85 669.25 45.12"/></g><g><line class="cls-10" x1="694.53" y1="63.44" x2="694.53" y2="49.32"/><polygon class="cls-22" points="694.53 18.25 685.38 32.69 703.67 32.69 694.53 18.25"/><polygon class="cls-22" points="694.53 24.34 682.79 42.89 706.27 42.89 694.53 24.34"/><polygon class="cls-22" points="694.53 31.92 679.41 55.81 709.65 55.81 694.53 31.92"/></g><g><line class="cls-18" x1="718.19" y1="62.68" x2="718.19" y2="52.52"/><polygon class="cls-57" points="718.19 30.15 711.6 40.55 724.77 40.55 718.19 30.15"/><polygon class="cls-57" points="718.19 34.54 709.74 47.89 726.63 47.89 718.19 34.54"/><polygon class="cls-57" points="718.19 39.99 707.3 57.19 729.07 57.19 718.19 39.99"/></g><g><line class="cls-16" x1="705.86" y1="66.24" x2="705.86" y2="54.86"/><polygon class="cls-51" points="705.86 29.83 698.49 41.47 713.23 41.47 705.86 29.83"/><polygon class="cls-51" points="705.86 34.74 696.41 49.68 715.32 49.68 705.86 34.74"/><polygon class="cls-51" points="705.86 40.84 693.68 60.09 718.04 60.09 705.86 40.84"/></g></g><polygon class="cls-30" points="748.77 62.76 641.82 62.76 631.82 69.22 758.77 69.22 748.77 62.76"/><rect class="cls-23" x="710.65" y="46.63" width="32.8" height="16.13"/><polygon class="cls-35" points="744.68 42.94 709.41 42.94 708.11 46.63 745.98 46.63 744.68 42.94"/><g><g><line class="cls-6" x1="649.49" y1="62.76" x2="649.49" y2="48.92"/><line class="cls-6" x1="662.38" y1="62.76" x2="662.38" y2="48.92"/></g><rect class="cls-7" x="644.38" y="44.69" width="23.11" height="4.06" rx="2.03" ry="2.03"/></g><g><rect class="cls-1" x="712.86" y="50.08" width="6.67" height="12.68"/><rect class="cls-1" x="721.67" y="50.08" width="8.71" height="5.78"/><rect class="cls-1" x="732.53" y="50.08" width="8.71" height="5.78"/></g></g><g><g><path class="cls-40" d="M416.67,556.64h22.31l5.58,5.42v55.26h-33.47v-55.26l5.58-5.42Z"/><path class="cls-40" d="M410.96,572.57h100.65l13.04,12.67v32.08h-126.72v-32.08l13.04-12.67Z"/><path class="cls-39" d="M457.59,586.94h7.4l4.61,4.48v25.9h-16.62v-25.9l4.61-4.48Z"/><path class="cls-39" d="M435.26,586.94h7.4l4.61,4.48v25.9h-16.62v-25.9l4.61-4.48Z"/><path class="cls-39" d="M479.91,586.94h7.4l4.61,4.48v25.9h-16.62v-25.9l4.61-4.48Z"/><path class="cls-39" d="M502.24,586.94h7.4l4.61,4.48v25.9h-16.62v-25.9l4.61-4.48Z"/><path class="cls-39" d="M412.94,586.94h7.4l4.61,4.48v25.9h-16.62v-25.9l4.61-4.48Z"/><rect class="cls-58" x="411.09" y="564.59" width="33.47" height="4.44"/></g><g><g><line class="cls-6" x1="509.89" y1="619.23" x2="509.89" y2="605.39"/><line class="cls-6" x1="522.78" y1="619.23" x2="522.78" y2="605.39"/></g><rect class="cls-4" x="504.78" y="601.17" width="23.11" height="4.06" rx="2.03" ry="2.03"/></g><path class="cls-20" d="M405.73,593.44c5.7,6.63,15.7,5.44,22,0,8.07,7.44,17.11,3.96,22.22,0,7.04,7.89,19.56,3.07,22.67,0,8.15,5.52,16.67,4.54,22.33,0,7.59,5.81,18.11,3.22,21.89,0"/><path class="cls-21" d="M405.73,591.44c5.7,6.63,15.7,5.44,22,0,8.07,7.44,17.11,3.96,22.22,0,7.04,7.89,19.56,3.07,22.67,0,8.15,5.52,16.67,4.54,22.33,0,7.59,5.81,18.11,3.22,21.89,0"/></g><g><g><path class="cls-28" d="M911.42,230.44h37.94v37.61h-37.94v-37.61Z"/><path class="cls-24" d="M913.21,256.4h16.28v4.09h-16.28v-4.09Z"/><path class="cls-24" d="M913.21,232.54h16.28v4.09h-16.28v-4.09Z"/><path class="cls-24" d="M931.29,232.54h16.28v4.09h-16.28v-4.09Z"/><path class="cls-24" d="M931.29,244.47h16.28v4.09h-16.28v-4.09Z"/><path class="cls-45" d="M949.36,243.71h48.07v24.34h-48.07v-24.34Z"/><path class="cls-28" d="M954.17,243.71l1.92-18.63h7.69l-1.92,18.63h-7.69Z"/><path class="cls-28" d="M968.59,243.71l1.92-18.63h7.69l-1.92,18.63h-7.69Z"/><path class="cls-28" d="M983,243.71l1.92-18.63h7.69l-1.92,18.63h-7.69Z"/><path class="cls-24" d="M913.21,250.43h16.28v4.09h-16.28v-4.09Z"/><path class="cls-24" d="M979.67,250.72h16.28v4.09h-16.28v-4.09Z"/><path class="cls-24" d="M913.21,238.5h16.28v4.09h-16.28v-4.09Z"/><path class="cls-24" d="M979.67,245.17h16.28v4.09h-16.28v-4.09Z"/></g><polygon class="cls-30" points="1039.21 265.74 932.26 265.74 922.26 272.2 1049.21 272.2 1039.21 265.74"/><rect class="cls-23" x="1001.09" y="249.61" width="32.8" height="16.13"/><polygon class="cls-35" points="1035.12 245.92 999.85 245.92 998.55 249.61 1036.42 249.61 1035.12 245.92"/><g><g><line class="cls-6" x1="939.93" y1="265.74" x2="939.93" y2="251.89"/><line class="cls-6" x1="952.82" y1="265.74" x2="952.82" y2="251.89"/></g><rect class="cls-3" x="934.82" y="247.67" width="23.11" height="4.06" rx="2.03" ry="2.03"/></g><g><rect class="cls-1" x="1003.3" y="253.06" width="6.67" height="12.68"/><rect class="cls-1" x="1012.11" y="253.06" width="8.71" height="5.78"/><rect class="cls-1" x="1022.97" y="253.06" width="8.71" height="5.78"/></g></g><g><g><path class="cls-28" d="M911.44,230.44h37.94v37.61h-37.94v-37.61Z"/><path class="cls-24" d="M913.23,256.4h16.28v4.09h-16.28v-4.09Z"/><path class="cls-24" d="M913.23,232.54h16.28v4.09h-16.28v-4.09Z"/><path class="cls-24" d="M931.3,232.54h16.28v4.09h-16.28v-4.09Z"/><path class="cls-24" d="M931.3,244.47h16.28v4.09h-16.28v-4.09Z"/><path class="cls-45" d="M949.37,243.71h48.07v24.34h-48.07v-24.34Z"/><path class="cls-28" d="M954.18,243.71l1.92-18.63h7.69l-1.92,18.63h-7.69Z"/><path class="cls-28" d="M968.6,243.71l1.92-18.63h7.69l-1.92,18.63h-7.69Z"/><path class="cls-28" d="M983.02,243.71l1.92-18.63h7.69l-1.92,18.63h-7.69Z"/><path class="cls-24" d="M913.23,250.43h16.28v4.09h-16.28v-4.09Z"/><path class="cls-24" d="M979.69,250.72h16.28v4.09h-16.28v-4.09Z"/><path class="cls-24" d="M913.23,238.5h16.28v4.09h-16.28v-4.09Z"/><path class="cls-24" d="M979.69,245.17h16.28v4.09h-16.28v-4.09Z"/></g><polygon class="cls-30" points="1039.23 265.74 932.28 265.74 922.28 272.2 1049.23 272.2 1039.23 265.74"/><rect class="cls-23" x="1001.1" y="249.61" width="32.8" height="16.13"/><polygon class="cls-35" points="1035.14 245.92 999.87 245.92 998.57 249.61 1036.44 249.61 1035.14 245.92"/><g><g><line class="cls-6" x1="939.94" y1="265.74" x2="939.94" y2="251.89"/><line class="cls-6" x1="952.83" y1="265.74" x2="952.83" y2="251.89"/></g><rect class="cls-3" x="934.83" y="247.67" width="23.11" height="4.06" rx="2.03" ry="2.03"/></g><g><rect class="cls-1" x="1003.31" y="253.06" width="6.67" height="12.68"/><rect class="cls-1" x="1012.13" y="253.06" width="8.71" height="5.78"/><rect class="cls-1" x="1022.99" y="253.06" width="8.71" height="5.78"/></g></g><g><g><path class="cls-28" d="M912.44,230.44h37.94v37.61h-37.94v-37.61Z"/><path class="cls-24" d="M914.23,256.4h16.28v4.09h-16.28v-4.09Z"/><path class="cls-24" d="M914.23,232.54h16.28v4.09h-16.28v-4.09Z"/><path class="cls-24" d="M932.3,232.54h16.28v4.09h-16.28v-4.09Z"/><path class="cls-24" d="M932.3,244.47h16.28v4.09h-16.28v-4.09Z"/><path class="cls-45" d="M950.37,243.71h48.07v24.34h-48.07v-24.34Z"/><path class="cls-28" d="M955.18,243.71l1.92-18.63h7.69l-1.92,18.63h-7.69Z"/><path class="cls-28" d="M969.6,243.71l1.92-18.63h7.69l-1.92,18.63h-7.69Z"/><path class="cls-28" d="M984.02,243.71l1.92-18.63h7.69l-1.92,18.63h-7.69Z"/><path class="cls-24" d="M914.23,250.43h16.28v4.09h-16.28v-4.09Z"/><path class="cls-24" d="M980.69,250.72h16.28v4.09h-16.28v-4.09Z"/><path class="cls-24" d="M914.23,238.5h16.28v4.09h-16.28v-4.09Z"/><path class="cls-24" d="M980.69,245.17h16.28v4.09h-16.28v-4.09Z"/></g><polygon class="cls-30" points="1040.23 265.74 933.28 265.74 923.28 272.2 1050.23 272.2 1040.23 265.74"/><rect class="cls-23" x="1002.1" y="249.61" width="32.8" height="16.13"/><polygon class="cls-35" points="1036.14 245.92 1000.87 245.92 999.57 249.61 1037.44 249.61 1036.14 245.92"/><g><g><line class="cls-6" x1="940.94" y1="265.74" x2="940.94" y2="251.89"/><line class="cls-6" x1="953.83" y1="265.74" x2="953.83" y2="251.89"/></g><rect class="cls-3" x="935.83" y="247.67" width="23.11" height="4.06" rx="2.03" ry="2.03"/></g><g><rect class="cls-1" x="1004.31" y="253.06" width="6.67" height="12.68"/><rect class="cls-1" x="1013.13" y="253.06" width="8.71" height="5.78"/><rect class="cls-1" x="1023.99" y="253.06" width="8.71" height="5.78"/></g></g><g><g><line class="cls-12" x1="347.86" y1="57.63" x2="347.86" y2="48.14"/><rect class="cls-64" x="343.2" y="56.76" width="20.65" height="13.34"/><g><path class="cls-62" d="M353.53,65.15l-14.39,5.01s4.76,9.92,5.26,24.16h18.25c.5-14.24,5.26-24.16,5.26-24.16l-14.39-5.01Z"/><path class="cls-52" d="M353.53,65.15l-14.39,5.01s.41,.87,1,2.43l13.38-4.13,13.38,4.13c.59-1.56,1-2.43,1-2.43l-14.39-5.01Z"/></g><rect class="cls-53" x="341.95" y="53.83" width="23.17" height="2.92"/><g><circle class="cls-56" cx="355.54" cy="71.5" r=".79"/><circle class="cls-56" cx="351.52" cy="71.5" r=".79"/></g></g><g><polygon class="cls-30" points="334.56 89.1 261.01 89.1 251.01 95.56 334.56 95.56 334.56 89.1"/><path class="cls-59" d="M369.33,91.82c-1.71,0-3.11-.69-3.16-1.54-.05,.85-1.45,1.54-3.16,1.54h0c-1.73,0-3.14-.7-3.16-1.56-.03,.86-1.44,1.56-3.16,1.56s-3.11-.69-3.16-1.54c-.05,.85-1.45,1.54-3.16,1.54s-3.17-.71-3.17-1.58c0,.87-1.42,1.58-3.17,1.58s-3.11-.69-3.16-1.54c-.05,.85-1.45,1.54-3.16,1.54s-3.17-.71-3.17-1.58v5.33h37.94v-5.33c0,.87-1.42,1.58-3.17,1.58Z"/><rect class="cls-23" x="291.96" y="72.98" width="32.8" height="16.13"/><polygon class="cls-35" points="326 69.29 290.73 69.29 289.43 72.98 327.3 72.98 326 69.29"/><g><g><line class="cls-6" x1="268.68" y1="89.1" x2="268.68" y2="75.26"/><line class="cls-6" x1="281.56" y1="89.1" x2="281.56" y2="75.26"/></g><rect class="cls-5" x="263.56" y="71.04" width="23.11" height="4.06" rx="2.03" ry="2.03"/></g><g><rect class="cls-1" x="294.17" y="76.43" width="6.67" height="12.68"/><rect class="cls-1" x="302.99" y="76.43" width="8.71" height="5.78"/><rect class="cls-1" x="313.85" y="76.43" width="8.71" height="5.78"/></g><path class="cls-55" d="M314.87,48.99c1.18-1.72,4.79-2.4,5.66,0l-.07,.07c-1.04-.29-1.76-.59-2.76-.79-.93-.09-1.93,.17-2.76,.79l-.07-.07h0Z"/><path class="cls-55" d="M320.46,48.99c.87-2.4,4.47-1.72,5.66,0l-.07,.07c-.82-.62-1.83-.88-2.76-.79-1,.21-1.72,.51-2.76,.79l-.07-.07h0Z"/><ellipse class="cls-55" cx="320.49" cy="49.02" rx=".42" ry=".75"/><path class="cls-55" d="M322.87,53.3c1.18-1.72,4.79-2.4,5.66,0l-.07,.07c-1.04-.29-1.76-.59-2.76-.79-.93-.09-1.93,.17-2.76,.79l-.07-.07h0Z"/><path class="cls-55" d="M328.46,53.3c.87-2.4,4.47-1.72,5.66,0l-.07,.07c-.82-.62-1.83-.88-2.76-.79-1,.2-1.72,.51-2.76,.79l-.07-.07h0Z"/><ellipse class="cls-55" cx="328.49" cy="53.34" rx=".42" ry=".75"/><rect class="cls-63" x="331.82" y="86.52" width="1.78" height="2.59"/><rect class="cls-67" x="331.26" y="85.72" width="2.89" height=".8" rx=".4" ry=".4"/><rect class="cls-64" x="331.82" y="87.04" width="1.78" height=".35"/></g></g><g><g><path class="cls-46" d="M68.24,312.73c.15-.67,.14-1.39-.1-2.09-.57-1.71-2.21-2.75-3.92-2.67,0-.02,0-.05-.02-.07-.69-2.06-2.92-3.18-4.99-2.49-1.29,.43-2.2,1.46-2.54,2.67-.18-.03-.37-.06-.56-.06-2.18,0-3.94,1.76-3.94,3.94,0,.26,.03,.52,.08,.76h15.99Z"/><g><path class="cls-41" d="M94.5,279.08h18.5v35h-18.5v-35Z"/><path class="cls-49" d="M102.74,281.31v8.36h-5.89v-8.36h5.89Z"/><path class="cls-49" d="M110.64,281.31v8.36h-5.89v-8.36h5.89Z"/><path class="cls-49" d="M102.74,291.56v8.36h-5.89v-8.36h5.89Z"/><path class="cls-49" d="M110.64,291.56v8.36h-5.89v-8.36h5.89Z"/><path class="cls-49" d="M102.74,301.71v8.36h-5.89v-8.36h5.89Z"/><path class="cls-49" d="M110.64,301.71v12.37h-5.89v-12.37h5.89Z"/><g><path class="cls-50" d="M61.62,268.99h26.49v45.09h-26.49v-45.09Z"/><path class="cls-49" d="M77.85,281.31v8.36h-5.89v-8.36h5.89Z"/><path class="cls-49" d="M85.76,281.31v8.36h-5.89v-8.36h5.89Z"/><path class="cls-49" d="M77.85,291.56v8.36h-5.89v-8.36h5.89Z"/><path class="cls-49" d="M85.76,291.56v8.36h-5.89v-8.36h5.89Z"/><path class="cls-49" d="M77.85,301.71v8.36h-5.89v-8.36h5.89Z"/><path class="cls-49" d="M69.95,301.71v12.37h-5.89v-12.37h5.89Z"/><path class="cls-49" d="M69.95,271.1v8.36h-5.89v-8.36h5.89Z"/><path class="cls-49" d="M77.85,271.1v8.36h-5.89v-8.36h5.89Z"/><path class="cls-49" d="M69.95,281.36v8.36h-5.89v-8.36h5.89Z"/><path class="cls-49" d="M69.95,291.51v8.36h-5.89v-8.36h5.89Z"/><path class="cls-49" d="M85.76,271.1v8.36h-5.89v-8.36h5.89Z"/><path class="cls-49" d="M85.76,301.71v8.36h-5.89v-8.36h5.89Z"/></g></g><path class="cls-46" d="M95.2,313.03c-.58-1.73-2.23-2.77-3.97-2.67-.71-2.02-2.92-3.11-4.96-2.43-.13,.04-.24,.11-.36,.16-.71-.67-1.65-1.08-2.7-1.08-2.18,0-3.94,1.76-3.94,3.94,0,.1,.02,.2,.03,.3-1.82,.35-3.19,1.94-3.19,3.86h19.19c.15-.67,.14-1.39-.1-2.09Z"/><path class="cls-46" d="M127.58,315.26c.15-.67,.14-1.39-.1-2.09-.57-1.71-2.21-2.75-3.92-2.67,0-.02,0-.05-.02-.07-.69-2.06-2.92-3.18-4.99-2.49-1.29,.43-2.2,1.46-2.54,2.67-.18-.03-.37-.06-.56-.06-2.18,0-3.94,1.76-3.94,3.94,0,.26,.03,.52,.08,.76h15.99Z"/></g><polygon class="cls-30" points="160.96 314.04 54.02 314.04 44.02 320.5 170.96 320.5 160.96 314.04"/><rect class="cls-23" x="122.84" y="297.91" width="32.8" height="16.13"/><polygon class="cls-35" points="156.87 294.22 121.61 294.22 120.3 297.91 158.17 297.91 156.87 294.22"/><g><g><line class="cls-6" x1="61.68" y1="314.04" x2="61.68" y2="300.2"/><line class="cls-6" x1="74.57" y1="314.04" x2="74.57" y2="300.2"/></g><rect class="cls-11" x="56.57" y="295.97" width="23.11" height="4.06" rx="2.03" ry="2.03"/></g><g><rect class="cls-1" x="125.05" y="301.36" width="6.67" height="12.68"/><rect class="cls-1" x="133.86" y="301.36" width="8.71" height="5.78"/><rect class="cls-1" x="144.72" y="301.36" width="8.71" height="5.78"/></g></g><g><g><polygon class="cls-30" points="160.37 555.14 53.42 555.14 43.42 561.59 170.37 561.59 160.37 555.14"/><rect class="cls-63" x="92.85" y="537.99" width="63.51" height="17.15"/><g><g><line class="cls-6" x1="61.09" y1="555.14" x2="61.09" y2="541.29"/><line class="cls-6" x1="73.98" y1="555.14" x2="73.98" y2="541.29"/></g><rect class="cls-13" x="55.98" y="537.07" width="23.11" height="4.06" rx="2.03" ry="2.03"/></g><g><rect class="cls-1" x="126.58" y="540.8" width="6.67" height="14.34"/><rect class="cls-1" x="135.16" y="540.8" width="8.71" height="6.54"/><rect class="cls-1" x="145.78" y="540.8" width="8.71" height="6.54"/><rect class="cls-1" x="105.34" y="540.8" width="8.71" height="6.54"/><rect class="cls-1" x="115.96" y="540.8" width="8.71" height="6.54"/><rect class="cls-1" x="94.72" y="540.8" width="8.71" height="6.54"/></g><rect class="cls-56" x="96.85" y="535.64" width="13.8" height="2.35"/><rect class="cls-62" x="130.64" y="522.88" width="7.64" height="15.11"/><polygon class="cls-47" points="139.96 515.58 129.03 515.58 127.08 518.09 129.03 522.85 139.96 522.85 141.91 518.09 139.96 515.58"/><rect class="cls-62" x="134.09" y="509.51" width=".8" height="6.07"/></g><g><path class="cls-48" d="M104.13,522.86l-2.57-.81-32-10.1c-1.45-.46-6.43-3.14-6.04-4.38h0c.39-1.24,6.01-.57,7.46-.12l42.14,13.3-8.99,2.1Z"/><polygon class="cls-48" points="92.49 514.45 110.32 509.11 107.87 507.79 83.7 511.67 92.49 514.45"/><polygon class="cls-48" points="80.56 514.45 78.27 522.82 80.22 524.3 87.43 516.9 80.56 514.45"/><polygon class="cls-48" points="113.07 520.75 115.61 517.34 114.53 516.65 107.3 518.93 113.07 520.75"/><circle class="cls-60" cx="69.76" cy="513.77" r="1.12"/><circle class="cls-60" cx="85.5" cy="518.79" r="1.12" transform="translate(-434.74 442.64) rotate(-72.31)"/><circle class="cls-60" cx="87.84" cy="519.53" r="1.12" transform="translate(-433.82 445.39) rotate(-72.31)"/></g></g></g>
  <g id="start-arrow"><g><path class="cls-9" d="M32.49,683.11s-2.1-42.06,15.37-76.45"/><polygon points="54.77 620.97 51.91 621.87 47.48 607.75 33.73 613.2 32.63 610.41 49.38 603.78 54.77 620.97"/></g></g>
  <g id="a-arrows"><g><path class="cls-19" d="M66.26,244.33c-18.68-84.52,63.2-145.15,149.65-139.82"/><polygon points="76.52 232.2 73.97 230.61 66.16 243.17 54.2 234.47 52.43 236.9 67.01 247.5 76.52 232.2"/></g><g><path class="cls-19" d="M96.85,474.18c-16.27-43.73-14.97-90.48-14.26-103.02"/><polygon points="94.48 381.65 92.19 383.6 82.62 372.32 72.07 382.7 69.97 380.55 82.82 367.92 94.48 381.65"/></g><g><path class="cls-19" d="M386.41,566.81s-89.62-47.29-190-28.72"/><polygon points="204.1 524.36 206.49 526.18 197.54 537.95 209.94 546.02 208.3 548.54 193.2 538.71 204.1 524.36"/></g><g><path class="cls-19" d="M847.09,543.63s-360.81-74.25-651.82-38.2"/><polygon points="203.76 492.15 206.04 494.1 196.42 505.33 208.33 514.11 206.54 516.53 192.04 505.83 203.76 492.15"/></g><g><path class="cls-19" d="M327.3,368.14s-111.15,10.42-172.21,111.73"/><polygon points="149.91 465 152.85 464.41 155.74 478.92 170 474.98 170.79 477.87 153.43 482.67 149.91 465"/></g><g><path class="cls-19" d="M177.18,266.58c144.79-52.59,454.86-72.08,705.3-23.6"/><polygon points="190.66 274.89 191.85 272.14 178.29 266.24 185.16 253.14 182.5 251.75 174.13 267.71 190.66 274.89"/></g><g><path class="cls-19" d="M153.43,257.55c121.15-58.87,487.97-79.18,725.69-35.91"/><polygon points="867.21 232.05 865.57 229.53 877.97 221.47 869.03 209.69 871.42 207.88 882.31 222.23 867.21 232.05"/></g><g><path class="cls-19" d="M770.33,297.33s49.89-97.61-5.91-189.23"/><polygon points="779.98 110.47 779.13 113.35 764.95 109.13 761.78 123.58 758.85 122.93 762.72 105.34 779.98 110.47"/></g><g><path class="cls-19" d="M647.35,114.1s-15.12,117.65-145.5,176.09"/><polygon points="505.7 274.83 508.48 275.97 502.87 289.65 516.93 294.25 516 297.1 498.87 291.5 505.7 274.83"/></g></g>
  <g id="b-arrows"><g><path class="cls-9" d="M175.39,597.98s84.98,42.42,197.11,19.32"/><polygon points="365.14 631.24 362.7 629.48 371.37 617.49 358.77 609.73 360.35 607.17 375.69 616.63 365.14 631.24"/></g><g><path class="cls-9" d="M549.63,586.94s132.31-16.52,290.35-17.88"/><polygon points="830.28 581.55 828.19 579.4 838.83 569.12 827.81 559.26 829.81 557.02 843.24 569.04 830.28 581.55"/></g><g><path class="cls-9" d="M972.95,513.07s10.77-82.89,7.71-183.37"/><polygon points="993.05 339.43 990.89 341.51 980.64 330.85 970.75 341.86 968.52 339.85 980.56 326.45 993.05 339.43"/></g><g><path class="cls-9" d="M953.47,324.21s2.18,122.58-5.44,178.72"/><polygon points="937.07 491.5 939.51 489.75 948.12 501.77 959.49 492.3 961.41 494.61 947.56 506.14 937.07 491.5"/></g><g><path class="cls-9" d="M799.76,427.33s60.63,24.94,97.99,78.28"/><polygon points="881.92 504.81 882.5 501.86 897.01 504.73 898.81 490.05 901.79 490.42 899.6 508.3 881.92 504.81"/></g><g><path class="cls-9" d="M240.36,140.89s-71.88,72.51,95.79,145.44"/><polygon points="322.09 293.43 321.12 290.59 335.12 285.82 329.34 272.2 332.11 271.03 339.14 287.62 322.09 293.43"/></g><g><path class="cls-9" d="M622.93,46.63s-106.36-23.03-221.84,11.09"/><polygon points="407.23 43.21 409.81 44.75 402.2 57.43 415.4 64.1 414.05 66.78 397.96 58.66 407.23 43.21"/></g><g><path class="cls-9" d="M197.1,307.94s64.75-6.01,122.31,8.51"/><polygon points="306.84 326.09 305.37 323.47 318.27 316.24 310.11 303.9 312.62 302.24 322.55 317.27 306.84 326.09"/></g><g><path class="cls-9" d="M519.32,336.74s60.45,.65,119.5,14.4"/><polygon points="626.52 361.13 624.98 358.56 637.68 350.97 629.18 338.86 631.64 337.14 641.98 351.89 626.52 361.13"/></g></g>
  <g id="a-arrow-labels"><text class="cls-65" transform="translate(616.61 123.98)"><tspan x="0" y="0">A</tspan></text><text class="cls-65" transform="translate(737.88 283.87)"><tspan x="0" y="0">A</tspan></text><text class="cls-65" transform="translate(861.96 273.11)"><tspan x="0" y="0">A</tspan></text><text class="cls-65" transform="translate(834.27 533.14)"><tspan x="0" y="0">A</tspan></text><text class="cls-65" transform="translate(375.69 549.26)"><tspan x="0" y="0">A</tspan></text><text class="cls-65" transform="translate(63 477.59)"><tspan x="0" y="0">A</tspan></text><text class="cls-65" transform="translate(194.09 96.92)"><tspan x="0" y="0">A</tspan></text><text class="cls-65" transform="translate(146.67 242.42)"><tspan x="0" y="0">A</tspan></text><text class="cls-65" transform="translate(313.58 396.23)"><tspan x="0" y="0">A</tspan></text></g>
  <g id="b-arrow-labels"><text class="cls-65" transform="translate(608.48 35.97)"><tspan x="0" y="0">B</tspan></text><text class="cls-65" transform="translate(984.37 518.18)"><tspan x="0" y="0">B</tspan></text><text class="cls-65" transform="translate(927.1 338.62)"><tspan x="0" y="0">B</tspan></text><text class="cls-65" transform="translate(786.48 455.35)"><tspan x="0" y="0">B</tspan></text><text class="cls-65" transform="translate(558.43 613.07)"><tspan x="0" y="0">B</tspan></text><text class="cls-65" transform="translate(199.07 299.6)"><tspan x="0" y="0">B</tspan></text><text class="cls-65" transform="translate(239.34 173.29)"><tspan x="0" y="0">B</tspan></text><text class="cls-65" transform="translate(517.65 371.56)"><tspan x="0" y="0">B</tspan></text><text class="cls-65" transform="translate(159.3 635.19)"><tspan x="0" y="0">B</tspan></text></g>
</svg>
