<?xml version="1.0" encoding="UTF-8" standalone="no"?>
<!-- Created with Inkscape (http://www.inkscape.org/) -->

<svg
   xmlns:dc="http://purl.org/dc/elements/1.1/"
   xmlns:cc="http://creativecommons.org/ns#"
   xmlns:rdf="http://www.w3.org/1999/02/22-rdf-syntax-ns#"
   xmlns:svg="http://www.w3.org/2000/svg"
   xmlns="http://www.w3.org/2000/svg"
   xmlns:sodipodi="http://sodipodi.sourceforge.net/DTD/sodipodi-0.dtd"
   xmlns:inkscape="http://www.inkscape.org/namespaces/inkscape"
   width="100%"
   height="100%"
   viewBox="0 0 50 50"
   id="svg3213"
   version="1.1"
   inkscape:version="0.48.4 r9939"
   sodipodi:docname="sys-software-engineering-logo.svg"
   style="fill: white;">
   <path
     d="m 3.6804285,11.945136 c -0.29,0.51 -0.57,1.03 -0.81,1.56 -0.08,0.17 -0.15,0.35 -0.22,0.53 -0.32,0.84 -0.55,1.72 -0.68,2.62 -0.09,0.62 -0.09,0.83 -0.12,1.45 0,0.9 0.08,1.81 0.37,2.66 0.17,0.52 0.24,0.6 0.5,1.07 0.38,0.61 0.89,1.13 1.52,1.49 0.39,0.22 0.56,0.26 0.97,0.41 0.68,0.21 1.4,0.31 2.12,0.24 0.46,-0.05 0.55,-0.09 1,-0.22 0.82,-0.31 1.57,-0.81 2.1099995,-1.52 0.11,-0.15 0.21,-0.31 0.31,-0.46 0.51,-0.89 0.73,-1.9 0.73,-2.92 0,-0.23 -0.02,-0.46 -0.03,-0.69 -0.12,-1.23 -0.47,-2.44 -1.04,-3.54 -0.12,-0.22 -0.25,-0.43 -0.379999,-0.65 -0.5200005,-0.79 -1.1800005,-1.48 -2.0300005,-1.91 -0.52,-0.27 -0.66,-0.27 -1.22,-0.42 -0.67,-0.11 -1.34,-0.1 -2.01,0.03 -0.22,0.04 -0.44,0.11 -0.66,0.16 -0.23,0.05 -0.46,0.1 -0.69,0.16 -0.18,0.12 -0.35,-0.13 -0.17,-0.25 l 0,0 c 0.17,-0.22 0.31,-0.48 0.51,-0.67 0.58,-0.55 1.66,-0.92 2.44,-1 0.31,-0.03 0.62,0 0.94,0 0.83,0.15 1.03,0.13 1.79,0.52 1.1100005,0.56 1.9399995,1.5 2.6199995,2.53 0.4,0.69 0.53,0.86 0.83,1.6 0.45,1.08 0.69,2.24 0.8,3.4 0.02,0.72 0.05,0.95 -0.02,1.67 -0.11,1.06 -0.44,2.07 -1,2.97 -0.38,0.53 -0.47,0.71 -0.94,1.17 -0.69,0.68 -1.5199995,1.18 -2.4399995,1.48 -0.6,0.15 -0.75,0.22 -1.38,0.26 -0.95,0.07 -1.89,-0.07 -2.79,-0.38 -0.6,-0.25 -0.74,-0.28 -1.29,-0.64 -0.83,-0.53 -1.49,-1.25 -1.98,-2.11 -0.3,-0.61 -0.39,-0.73 -0.59,-1.39 -0.32,-1.02 -0.43,-2.1 -0.38,-3.17 0.02,-0.27 0.03,-0.55 0.06,-0.82 0.14,-1.28 0.5,-2.54 1.06,-3.71 0.1,-0.19 0.19,-0.38 0.3,-0.57 0.33,-0.57 0.72,-1.12 1.21,-1.56 0.43,-0.51 1.14,0.1 0.72,0.61 z"
     /><path
     d="m 41.050428,11.625136 c -0.45,0.62 -0.87,1.27 -1.28,1.91 -0.5,0.8 -0.91,1.65 -1.18,2.55 -0.18,0.6 -0.19,0.75 -0.3,1.36 -0.1,0.8 -0.06,1.61 0.19,2.38 0.14,0.45 0.22,0.55 0.44,0.96 0.42,0.67 1,1.22 1.73,1.53 0.13,0.06 0.26,0.09 0.4,0.14 0.65,0.17 1.26,0.08 1.87,-0.2 0.13,-0.06 0.26,-0.13 0.39,-0.2 0.74,-0.43 1.38,-1.01 1.89,-1.69 0.11,-0.15 0.21,-0.31 0.31,-0.46 0.4,-0.67 0.72,-1.39 0.92,-2.14 0.14,-0.52 0.15,-0.7 0.23,-1.23 0.07,-0.66 0.05,-1.33 -0.04,-1.99 -0.07,-0.44 -0.15,-0.86 -0.32,-1.28 -0.08,-0.18 -0.18,-0.35 -0.27,-0.53 -0.31,-0.44 -0.64,-0.74 -1.15,-0.93 -0.36,-0.14 -0.77,-0.2 -1.15,-0.22 -0.23,-0.01 -0.47,0 -0.7,0 -1.01,0.06 -0.5,0.03 -1.53,0.09 -0.57,0.21 -0.86,-0.59 -0.3,-0.8 l 0,0 c 1.04,-0.72 0.48,-0.43 1.68,-0.8800003 0.82,-0.13 1.1,-0.24 1.94,-0.12 0.95,0.1400003 1.81,0.5800003 2.45,1.3000003 0.2,0.22 0.34,0.48 0.51,0.73 0.12,0.26 0.26,0.52 0.37,0.79 0.51,1.32 0.59,2.75 0.44,4.14 -0.04,0.26 -0.07,0.51 -0.12,0.77 -0.24,1.21 -0.69,2.37 -1.36,3.41 -0.14,0.19 -0.27,0.39 -0.41,0.58 -0.69,0.89 -1.53,1.66 -2.52,2.2 -0.51,0.24 -0.65,0.34 -1.2,0.49 -0.85,0.23 -1.72,0.21 -2.57,-0.04 -0.53,-0.2 -0.73,-0.25 -1.21,-0.55 -0.81,-0.51 -1.44,-1.23 -1.92,-2.05 -0.29,-0.6 -0.39,-0.73 -0.57,-1.38 -0.29,-1.03 -0.31,-2.1 -0.15,-3.16 0.06,-0.27 0.1,-0.55 0.18,-0.82 0.29,-1.07 0.78,-2.09 1.36,-3.02 0.13,-0.21 0.28,-0.42 0.42,-0.62 0.14,-0.18 0.27,-0.37 0.41,-0.54 0.38,-0.46 0.83,-0.9 1.35,-1.22 0.06,-0.04 0.13,-0.07 0.2,-0.1 0.6,-0.44 1.22,0.42 0.62,0.86 z"
     /><path
     d="m 7.9804285,25.425136 c 0.16,0.65 0.22,1.35 0.27,2.04 0.06,0.99 0.11,1.98 0.15,2.97 0.03,0.89 0.07,1.79 0.09,2.68 0.02,0.72 0.06,1.43 0.12,2.14 0.05,0.62 0.1,1.24 0.14,1.86 0.05,0.58 0.09,1.16 0.14,1.74 0.04,0.45 0.08,0.9 0.12,1.34 0.04,0.34 0.08,0.69 0.12,1.03 0.04,0.31 0.06,0.62 0.08,0.92 0.01,0.16 0.02,0.32 0.03,0.48 0,0.13 -0.03,0.21 -0.08,0.31 -0.02,0.05 -0.01,0.12 -0.03,0.17 -0.1,0.28 -0.41,0.27 -0.57,0.31 0,0.04 -0.04,0.05 -0.04,0 l 0,0 c -0.17,0.02 -0.43,0.08 -0.59,-0.08 -0.01,-0.02 -0.05,-0.09 -0.05,-0.1 -0.07,-0.08 -0.11,-0.15 -0.13,-0.29 -0.03,-0.16 -0.04,-0.33 -0.06,-0.49 -0.02,-0.26 -0.04,-0.53 -0.07,-0.79 -0.04,-0.36 -0.09,-0.72 -0.13,-1.09 -0.05,-0.47 -0.09,-0.94 -0.13,-1.41 -0.05,-0.59 -0.1,-1.18 -0.14,-1.78 -0.05,-0.62 -0.09,-1.24 -0.14,-1.86 -0.06,-0.77 -0.1,-1.54 -0.12,-2.32 -0.02,-0.89 -0.03,-1.79 -0.04,-2.68 -0.02,-0.98 -0.02,-1.97 -0.02,-2.95 0.01,-0.65 0.01,-1.3 0.06,-1.94 -0.1,-1.13 0.91,-1.35 1.01,-0.22 z"
     /><path
     d="m 42.160428,24.755136 c 0.07,0.69 0.02,1.4 -0.02,2.09 -0.06,0.87 -0.1,1.74 -0.14,2.61 -0.04,0.83 -0.08,1.66 -0.1,2.49 -0.02,0.71 -0.02,1.43 -0.03,2.14 0,0.63 0.01,1.26 0.01,1.89 0,0.54 0,1.07 0.01,1.61 0.01,0.57 0.01,1.15 0.01,1.72 0,0.52 -0.01,1.04 0,1.57 0,0.44 0.02,0.87 0.03,1.31 0,0.47 0,0.93 -0.01,1.4 -0.01,0.21 -0.03,0.45 -0.13,0.6 -0.05,0.08 -0.12,0.12 -0.17,0.18 0.04,1.08 -0.84,1.17 -0.88,0.09 l 0,0 c -0.06,-0.04 -0.13,-0.07 -0.18,-0.13 -0.12,-0.12 -0.16,-0.35 -0.18,-0.56 -0.05,-0.45 -0.08,-0.91 -0.11,-1.37 -0.04,-0.49 -0.06,-0.98 -0.08,-1.47 -0.01,-0.54 -0.01,-1.07 -0.01,-1.61 0,-0.56 -0.01,-1.12 -0.01,-1.69 0,-0.55 -0.01,-1.1 0,-1.65 0,-0.64 0.01,-1.28 0.02,-1.93 0.01,-0.76 0.02,-1.53 0.05,-2.29 0.04,-0.87 0.08,-1.75 0.15,-2.61 0.07,-0.91 0.16,-1.83 0.27,-2.73 0.09,-0.67 0.18,-1.35 0.37,-1.95 0.12,-1.4 1.25,-1.11 1.14,0.29 z"
     /><path
     d="m 8.3304285,27.215136 c 0.4,0.42 0.78,0.88 1.14,1.34 0.5500005,0.75 1.1199995,1.49 1.6699995,2.23 0.42,0.55 0.79,1.12 1.14,1.71 0.1,0.16 0.18,0.34 0.28,0.5 0.01,0.01 0.08,0.16 0.12,0.16 -0.16,-0.15 -0.16,-0.19 -0.47,-0.21 -0.1,0 -0.19,0.05 -0.28,0.07 -0.01,0 -0.03,0 -0.02,-0.01 0.02,-0.05 0.07,-0.1 0.1,-0.15 0.06,-0.09 0.11,-0.18 0.17,-0.27 0.51,-0.84 1.04,-1.67 1.69,-2.42 0.16,-0.18 0.33,-0.35 0.49,-0.53 0.47,-0.42 0.56,-0.53 1.1,-0.86 0.19,-0.11 0.37,-0.23 0.58,-0.31 0.21,-0.08 0.43,-0.1 0.65,-0.16 0.04,-0.04 0.1,0.02 0.06,0.06 l 0,0 c -0.07,0.21 -0.12,0.43 -0.21,0.63 -0.09,0.19 -0.22,0.36 -0.33,0.53 -0.28,0.42 -0.46,0.63 -0.77,1.03 -0.72,0.9 -1.4,1.8 -1.94,2.81 -0.15,0.25 -0.39,0.7 -0.64,0.87 -0.37,0.24 -0.56,0.27 -0.98,0.12 -0.1,-0.03 -0.17,-0.12 -0.25,-0.18 -0.25,-0.28 -0.43,-0.61 -0.61,-0.94 -0.31,-0.55 -0.66,-1.08 -1.0399995,-1.59 -0.55,-0.76 -1.11,-1.51 -1.64,-2.27 -0.32,-0.49 -0.64,-1 -0.91,-1.52 -0.45,-0.65 0.47,-1.29 0.92,-0.64 z"
     /><path
     d="m 42.100428,27.085136 c 0.04,0.02 0.08,0.04 0.12,0.07 0.06,0.04 0.36,0.27 0.39,0.3 0.31,0.24 0.61,0.5 0.91,0.75 0.72,0.61 1.42,1.23 2.12,1.86 0.41,0.37 0.81,0.75 1.18,1.18 0.13,0.14 0.23,0.3 0.32,0.48 0.03,0.12 0.07,0.23 0.08,0.35 0.03,0.2 -0.03,0.45 -0.06,0.65 -0.13,1.01 -0.35,1.99 -0.56,2.98 -0.15,0.63 -0.26,1.29 -0.46,1.9 -0.08,0.26 -0.24,0.69 -0.43,0.89 -0.12,0.12 -0.28,0.19 -0.41,0.28 -0.03,0.22 -0.28,0.16 -0.25,-0.06 l 0,0 c -0.1,-0.16 -0.23,-0.29 -0.3,-0.47 -0.12,-0.29 -0.11,-0.79 -0.08,-1.1 0.05,-0.67 0.22,-1.31 0.35,-1.97 0.2,-0.94 0.39,-1.88 0.58,-2.83 0.06,-0.4 0,0 0.03,-0.19 0,-0.02 0,-0.08 0,-0.06 0.01,0.33 -0.02,0.12 0.09,0.54 0.08,0.16 0.13,0.22 0,0.06 -0.32,-0.38 -0.68,-0.7 -1.02,-1.04 -0.69,-0.64 -1.38,-1.28 -2.06,-1.95 -0.29,-0.29 -0.59,-0.58 -0.87,-0.89 -0.08,-0.09 -0.29,-0.33 -0.37,-0.44 -0.04,-0.05 -0.07,-0.11 -0.1,-0.16 -0.65,-0.72 0.17,-1.86 0.82,-1.14 z"
     /><path
     d="m 41.730428,26.955136 c -0.01,0.05 -0.02,0.11 -0.04,0.16 -0.04,0.11 -0.16,0.4 -0.2,0.48 -0.18,0.39 -0.37,0.75 -0.57,1.12 -0.53,0.96 -1.09,1.88 -1.62,2.83 -0.36,0.64 -0.7,1.3 -1.01,2 -0.1,0.25 -0.22,0.5 -0.3,0.77 -0.11,0.49 -0.41,0.62 -0.77,0.64 -0.13,0.01 -0.27,-0.12 -0.38,-0.21 -0.32,-0.27 -0.64,-0.56 -0.96,-0.84 -0.64,-0.6 -1.31,-1.14 -1.97,-1.68 -0.26,-0.24 -0.6,-0.41 -0.79,-0.78 -0.07,-0.13 -0.1,-0.28 -0.15,-0.42 -0.22,-0.09 -0.13,-0.52 0.1,-0.43 l 0,0 c 0.11,-0.08 0.2,-0.18 0.32,-0.23 0.37,-0.15 0.77,0.07 1.12,0.21 0.14,0.08 0.28,0.14 0.41,0.23 0.63,0.38 1.2,0.91 1.78,1.41 0.32,0.28 0.64,0.55 0.95,0.84 -0.07,-0.03 -0.19,-0.09 -0.22,-0.08 -0.42,0.06 -0.45,0.09 -0.66,0.45 -0.01,0.02 -0.02,0.04 -0.01,0.06 0,0.01 0.01,-0.02 0.02,-0.02 0.12,-0.29 0.23,-0.6 0.36,-0.89 0.34,-0.76 0.71,-1.49 1.13,-2.17 0.56,-0.92 1.12,-1.83 1.68,-2.75 0.21,-0.34 0.42,-0.68 0.63,-1.01 0.05,-0.07 0.21,-0.31 0.27,-0.38 0.03,-0.04 0.06,-0.06 0.1,-0.09 0.41,-0.78 1.22,0.02 0.8,0.8 z"
     /><path
     d="m 16.740428,15.555136 c 0.03,0.06 0.07,0.11 0.09,0.17 0.06,0.18 0.11,0.54 0.13,0.71 0.08,0.63 0.07,1.25 0.07,1.88 -0.04,1.64 -0.11,3.28 -0.14,4.92 -0.03,0.64 0.01,1.29 -0.05,1.93 -0.02,0.23 -0.06,0.62 -0.19,0.83 -0.06,0.11 -0.16,0.18 -0.25,0.27 0.01,0.29 -0.41,0.3 -0.41,0.01 l 0,0 c -0.09,-0.08 -0.19,-0.15 -0.26,-0.26 -0.14,-0.22 -0.2,-0.6 -0.23,-0.84 -0.08,-0.66 -0.05,-1.32 -0.06,-1.98 0.03,-1.64 0.08,-3.28 0.15,-4.92 0.02,-0.61 0.03,-1.22 0.09,-1.83 0.01,-0.15 0.05,-0.52 0.1,-0.69 0.02,-0.06 0.05,-0.11 0.07,-0.17 -0.03,-0.62 0.84,-0.67 0.88,-0.05 z"
     /><path
     d="m 16.400428,14.975136 c 0.7,-0.13 1.4,-0.2 2.1,-0.28 1.68,-0.2 3.37,-0.31 5.06,-0.4 1.61,-0.06 3.22,-0.08 4.83,-0.01 0.9,0.04 1.8,0.18 2.69,0.33 0.38,0.07 0.77,0.13 1.14,0.24 0.14,0.03 0.24,0.12 0.36,0.21 -0.15,1.01 0.11,1.15 -0.28,0.84 -0.29,0.16 -0.52,-0.25 -0.22,-0.41 l 0,0 c -0.27,-0.39 -0.09,-0.19 -0.2,0.79 0.09,0.07 0.28,0.17 0.05,0.14 -0.38,-0.04 -0.75,-0.13 -1.13,-0.19 -0.82,-0.14 -1.65,-0.26 -2.48,-0.31 -1.56,-0.08 -3.12,-0.06 -4.68,0 -1.66,0.06 -3.33,0.15 -4.99,0.29 -0.54,0.04 -0.58,0.05 -1.1,0.07 -0.4,0.02 -0.81,0.04 -1.2,-0.07 -0.88,-0.03 -0.84,-1.28 0.05,-1.25 z"
     /><path
     d="m 32.400428,15.585136 c 0.04,0.06 0.09,0.11 0.12,0.18 0.1,0.18 0.17,0.4 0.21,0.6 0.12,0.5 0.16,1.01 0.2,1.53 0.09,1.47 0.01,2.95 -0.08,4.41 -0.04,0.58 -0.06,1.17 -0.14,1.74 -0.03,0.25 -0.08,0.51 -0.18,0.74 -0.04,0.09 -0.1,0.17 -0.15,0.26 -0.32,0.29 -0.12,0.18 -0.65,0.25 -0.03,0.12 -0.2,0.07 -0.16,-0.05 l 0,0 c -0.44,-0.2 -0.28,-0.06 -0.53,-0.34 -0.03,-0.08 -0.08,-0.16 -0.1,-0.24 -0.06,-0.24 -0.07,-0.5 -0.07,-0.74 0,-0.58 0.05,-1.15 0.08,-1.73 0.08,-1.42 0.14,-2.84 0.19,-4.27 0,-0.03 0.03,-0.93 0.04,-1.01 0.01,-0.26 0.01,-0.56 0.07,-0.82 0.01,-0.04 0.03,-0.07 0.04,-0.11 -0.29,-0.77 0.8,-1.17 1.09,-0.4 z"
     /><path
     d="m 16.740428,25.025136 c 0.48,0.06 0.96,0.09 1.44,0.1 1.13,0.01 2.26,-0.09 3.38,-0.2 1.56,-0.18 3.13,-0.34 4.7,-0.51 1.19,-0.12 2.38,-0.26 3.57,-0.4 0.21,-0.02 0.42,-0.05 0.63,-0.06 0.05,0 0.25,-0.03 0.31,0.02 0.07,0.05 0.08,0.27 0.09,0.3 0.05,0.08 0.11,0.16 0.16,0.25 0.07,-0.24 0.41,-0.14 0.34,0.1 l 0,0 c 0.04,0.12 0.09,0.23 0.13,0.35 -0.03,0.1 -0.03,0.21 -0.08,0.31 -0.21,0.44 -0.93,0.5 -1.34,0.59 -1.2,0.17 -2.42,0.27 -3.62,0.4 -1.58,0.16 -3.15,0.34 -4.73,0.47 -1.22,0.1 -2.44,0.2 -3.66,0.09 -0.64,-0.07 -1.3,-0.13 -1.87,-0.44 -0.97,-0.39 -0.41,-1.76 0.56,-1.37 z"
     /><path
     d="m 18.580428,29.215136 c 0.04,0.61 -0.15,1.21 -0.34,1.79 -0.3,0.8 -0.61,1.6 -0.95,2.39 -0.15,0.29 -0.32,0.74 -0.67,0.85 -0.1,0.03 -0.21,0.02 -0.31,0.03 -0.03,0.06 -0.12,0.03 -0.09,-0.04 l 0,0 c -0.07,-0.08 -0.15,-0.14 -0.21,-0.23 -0.2,-0.32 -0.02,-0.78 0.07,-1.09 0.29,-0.8 0.63,-1.58 0.94,-2.36 0.21,-0.51 0.44,-1.02 0.73,-1.49 0.11,-0.58 0.93,-0.43 0.82,0.16 z"
     /><path
     d="m 30.830428,28.835136 c 0.16,0.59 0.31,1.19 0.46,1.78 0.09,0.37 0.2,0.73 0.31,1.1 0.04,0.16 0.13,0.44 0.14,0.6 0,0.09 -0.02,0.18 -0.03,0.28 -0.06,0.1 -0.12,0.19 -0.18,0.29 0.11,0.3 -0.31,0.45 -0.42,0.15 l 0,0 c -0.11,-0.04 -0.22,-0.07 -0.32,-0.11 -0.07,-0.07 -0.14,-0.13 -0.2,-0.21 -0.11,-0.16 -0.22,-0.44 -0.28,-0.61 -0.13,-0.4 -0.23,-0.81 -0.32,-1.21 -0.06,-0.32 -0.1,-0.52 -0.13,-0.85 -0.03,-0.4 -0.02,-0.81 0.04,-1.2 0,-0.66 0.93,-0.66 0.93,0 z"
     /><path
     d="m 18.360428,28.725136 c 0.47,-0.16 0.96,-0.22 1.45,-0.28 0.86,-0.1 1.73,-0.17 2.6,-0.24 1.13,-0.1 2.26,-0.13 3.39,-0.14 0.95,-0.01 1.9,-0.03 2.86,0.01 0.11,0.01 0.46,0.03 0.58,0.06 0.07,0.01 0.13,0.04 0.2,0.05 0.05,0.01 0.1,0.02 0.15,0.04 0.07,0.03 0.12,0.08 0.17,0.13 0.1,0.1 0.09,0.2 0.09,0.33 0.03,0.01 0.02,0.05 -0.01,0.04 l 0,0 c -0.01,0.12 0,0.24 -0.08,0.33 -0.06,0.05 -0.1,0.1 -0.17,0.13 -0.05,0.02 -0.1,0.03 -0.15,0.04 -0.07,0.02 -0.13,0.04 -0.2,0.05 -0.12,0.02 -0.47,0.05 -0.58,0.05 -0.95,0.04 -1.89,0.02 -2.84,0.03 -1.11,0.02 -2.22,0.04 -3.33,0.07 -0.85,0.03 -1.71,0.07 -2.56,0.13 -0.46,0.03 -0.91,0.07 -1.37,0.09 -0.66,0.14 -0.86,-0.8 -0.19,-0.94 z"
     /><path
     d="m 16.600428,34.925136 c 0.36,-0.1 0.72,-0.2 1.08,-0.28 0.76,-0.14 1.53,-0.24 2.3,-0.35 1.33,-0.17 2.66,-0.33 3.99,-0.48 1.46,-0.15 2.93,-0.23 4.4,-0.27 0.47,-0.01 0.94,0.01 1.4,0.04 0.24,0.02 0.49,0.05 0.73,0.06 0.05,0.02 0.3,-0.02 0.34,0.03 0.01,0.02 0.02,0.04 0.02,0.05 0.03,0.14 0.02,0.06 0.03,0.25 0.29,0 0.3,0.41 0.01,0.41 l 0,0 c 0,0.19 0,0.11 -0.01,0.25 0,0.02 -0.01,0.04 -0.01,0.06 -0.03,0.05 -0.3,0.04 -0.34,0.06 -0.25,0.03 -0.49,0.07 -0.74,0.1 -0.46,0.05 -0.92,0.09 -1.38,0.12 -1.44,0.07 -2.87,0.15 -4.3,0.3 -1.34,0.12 -2.67,0.26 -4.01,0.36 -0.77,0.04 -1.54,0.07 -2.32,0.08 -0.4,-0.01 -0.8,-0.02 -1.19,-0.11 -0.47,0 -0.47,-0.67 0,-0.67 z"
     /><path
     d="m 19.970428,29.465136 c 0.09,0.6 -0.06,1.21 -0.17,1.8 -0.18,0.79 -0.33,1.59 -0.55,2.37 -0.13,0.32 -0.05,0.17 -0.22,0.43 -0.03,0.19 -0.3,0.14 -0.27,-0.05 l 0,0 c -0.07,-0.31 -0.05,-0.15 -0.05,-0.49 0.01,-0.11 0.02,-0.22 0.04,-0.32 0.11,-0.69 0.32,-1.37 0.45,-2.06 0.12,-0.54 0.23,-1.08 0.32,-1.62 -0.04,-0.32 0.41,-0.38 0.45,-0.06 z"
     /><path
     d="m 21.780428,29.425136 c 0.11,0.63 0.13,1.27 0.14,1.91 -0.02,0.56 0.01,1.14 -0.14,1.69 -0.03,0.12 -0.09,0.24 -0.13,0.36 -0.01,0.14 -0.21,0.13 -0.2,-0.01 l 0,0 c -0.03,-0.12 -0.07,-0.25 -0.08,-0.37 -0.08,-0.55 -0.01,-1.11 -0.01,-1.67 0.01,-0.62 0.02,-1.25 0.05,-1.87 -0.02,-0.27 0.36,-0.31 0.39,-0.03 z"
     /><path
     d="m 24.000428,29.425136 c 0.14,0.63 0.15,1.29 0.18,1.93 0.01,0.61 0.07,1.23 -0.01,1.83 -0.02,0.14 -0.05,0.27 -0.08,0.41 0.01,0.23 -0.27,0.26 -0.29,0.02 l 0,0 c -0.04,-0.13 -0.09,-0.26 -0.13,-0.4 -0.14,-0.6 -0.12,-1.23 -0.14,-1.84 0,-0.64 -0.02,-1.28 0.06,-1.92 -0.02,-0.33 0.39,-0.36 0.41,-0.03 z"
     /><path
     d="m 26.220428,29.415136 c 0.13,0.74 0.22,1.49 0.31,2.24 0.04,0.32 0.07,0.6 0.08,0.93 0,0.14 0.01,0.29 -0.02,0.43 -0.02,0.14 -0.09,0.27 -0.13,0.41 0,0.02 -0.02,0.02 -0.02,0 l 0,0 c -0.08,-0.11 -0.18,-0.21 -0.25,-0.34 -0.06,-0.13 -0.1,-0.27 -0.13,-0.41 -0.08,-0.32 -0.11,-0.59 -0.15,-0.93 -0.08,-0.76 -0.16,-1.53 -0.12,-2.3 -0.02,-0.35 0.42,-0.38 0.44,-0.03 z"
     /><path
     d="m 28.300428,29.715136 c 0.16,0.68 0.19,1.37 0.24,2.06 0.02,0.27 0.06,0.58 0.01,0.85 -0.02,0.14 -0.08,0.26 -0.12,0.4 0.02,0.14 -0.18,0.17 -0.2,0.03 l 0,0 c -0.08,-0.12 -0.17,-0.23 -0.23,-0.36 -0.13,-0.28 -0.14,-0.56 -0.18,-0.86 -0.06,-0.69 -0.12,-1.4 -0.03,-2.09 -0.02,-0.35 0.48,-0.38 0.5,-0.03 z"
     /><path
     d="m 18.840428,30.315136 c 0.6,-0.04 1.2,-0.03 1.79,-0.03 1.2,-0.01 2.4,-0.01 3.6,-0.02 0.94,0 1.87,-0.03 2.81,-0.01 0.34,0.01 0.84,0.03 1.19,0.04 0.43,0.01 0.87,0.02 1.3,0.06 0.22,0.02 0.33,0.02 0.52,0.12 0.06,0.03 0.1,0.08 0.15,0.11 0.02,0 0.01,0.02 0,0.02 l 0,0 c -0.06,0.03 -0.11,0.06 -0.17,0.08 -0.21,0.07 -0.29,0.05 -0.52,0.06 -0.43,0.01 -0.86,0.01 -1.29,0.03 -1.33,0.08 -2.66,0.13 -4,0.13 -1.21,0 -2.41,0 -3.62,-0.04 -0.6,-0.02 -1.21,-0.04 -1.8,-0.14 -0.29,-0.01 -0.27,-0.42 0.02,-0.41 z"
     /><path
     d="m 18.200428,31.645136 c 0.47,-0.08 0.94,-0.08 1.41,-0.09 1.02,-0.03 2.04,-0.06 3.07,-0.11 1.28,-0.06 2.57,-0.1 3.86,-0.11 0.8,0.01 1.61,0 2.41,0.12 0.1,0.02 0.21,0.04 0.31,0.06 0.31,0.1 0.17,0.05 0.44,0.15 0.02,0 0.02,0.04 0,0.03 l 0,0 c -0.27,0.07 -0.13,0.04 -0.44,0.11 -0.89,0.14 -1.8,0.16 -2.7,0.19 -1.28,0.03 -2.56,0.06 -3.84,0.11 -1.03,0.04 -2.06,0.08 -3.09,0.04 -0.47,-0.02 -0.95,-0.01 -1.42,-0.1 -0.29,0 -0.29,-0.41 0,-0.41 z"
     /><path
     d="m 18.400428,32.905136 c 0.57,-0.1 1.16,-0.14 1.74,-0.19 1.23,-0.1 2.45,-0.17 3.68,-0.25 1.13,-0.05 2.26,-0.17 3.4,-0.09 0.18,0.01 0.35,0.04 0.53,0.06 0.15,0.04 0.3,0.08 0.45,0.12 0.04,0 0.04,0.05 0,0.06 l 0,0 c -0.15,0.05 -0.29,0.1 -0.44,0.15 -0.17,0.04 -0.35,0.08 -0.52,0.11 -1.12,0.2 -2.25,0.23 -3.38,0.31 -1.23,0.07 -2.46,0.14 -3.68,0.18 -0.59,0.02 -1.18,0.06 -1.76,0 -0.33,0.01 -0.34,-0.46 -0.01,-0.47 z"
     /><path
     d="m 22.880428,26.585136 c 0.03,0.52 -0.1,1.02 -0.23,1.52 -0.08,0.29 -0.2,0.58 -0.36,0.83 -0.05,0.07 -0.09,0.15 -0.15,0.2 -0.06,0.06 -0.14,0.09 -0.21,0.13 -0.05,0.14 -0.24,0.07 -0.19,-0.07 l 0,0 c -0.03,-0.08 -0.06,-0.15 -0.08,-0.24 -0.01,-0.08 0,-0.17 0.01,-0.25 0.03,-0.28 0.11,-0.56 0.2,-0.83 0.13,-0.46 0.25,-0.92 0.4,-1.37 0.06,-0.44 0.68,-0.36 0.62,0.08 z"
     /><path
     d="m 25.500428,26.475136 c 0.02,0.04 0.03,0.07 0.05,0.11 0.03,0.09 0.08,0.3 0.09,0.38 0.05,0.24 0.1,0.49 0.15,0.73 0.02,0.17 0.15,0.41 0.14,0.58 0,0.05 -0.03,0.11 -0.04,0.16 0.2,0.36 -0.31,0.65 -0.51,0.28 l 0,0 c -0.07,-0.04 -0.15,-0.07 -0.2,-0.13 -0.17,-0.17 -0.21,-0.48 -0.28,-0.7 -0.09,-0.44 -0.18,-0.89 -0.12,-1.34 -0.05,-0.52 0.68,-0.59 0.73,-0.07 z"
     /><path
     id="path4588"
     d="m8.26 28.26c0 0.05 0 0.1-0.01 0.15-0.02 0.15-0.08 0.31-0.14 0.44-0.13 0.32-0.3 0.61-0.46 0.91-0.38 0.66-0.78 1.31-1.21 1.94-0.2 0.31-0.41 0.6-0.63 0.9-0.04 0.04-0.2 0.27-0.05 0.05 0.03-0.12 0.07-0.24 0.1-0.36-0.01-0.03-0.01-0.04-0.02 0.04-0.01 0.15 0.01 0.3 0.01 0.45 0.04 0.86 0.03 1.73 0.02 2.59-0.02 0.85-0.01 1.72-0.23 2.54-0.04 0.15-0.1 0.29-0.15 0.44-0.08 0.13-0.16 0.26-0.24 0.4-0.04 0.46-0.69 0.4-0.65-0.06l0 0C4.56 38.57 4.51 38.43 4.45 38.29 4.42 38.14 4.39 37.99 4.37 37.84 4.27 37.02 4.36 36.19 4.36 35.36c0.01-0.85 0-1.7 0.02-2.56 0-0.14 0.02-0.3 0-0.44 0-0.04-0.03-0.05-0.02-0.1 0.03-0.12 0.07-0.25 0.1-0.37 0.07-0.1 0.06-0.08 0.12-0.17 0.21-0.29 0.4-0.58 0.61-0.87 0.41-0.6 0.83-1.2 1.21-1.82 0.18-0.28 0.35-0.56 0.55-0.82 0.08-0.1 0.19-0.25 0.29-0.33 0.04-0.03 0.08-0.05 0.12-0.08 0.33-0.62 1.21-0.16 0.88 0.47z"
     />
</svg>
