<?xml version="1.0"?>
<svg xmlns="http://www.w3.org/2000/svg" xmlns:xlink="http://www.w3.org/1999/xlink" version="1.1" viewBox="0 0 172 172" fill="000000"><g fill="none" fill-rule="nonzero" stroke="none" stroke-width="1" stroke-linecap="butt" stroke-linejoin="miter" stroke-miterlimit="10" stroke-dasharray="" stroke-dashoffset="0" font-family="none" font-weight="none" font-size="none" text-anchor="none" style="mix-blend-mode: normal"><path d="M0,172v-172h172v172z" fill="none"/><g><g id="surface1"><path d="M136.16667,17.91667l-86,-0.014c-7.90853,0 -17.25879,3.83528 -17.86068,21.514h-0.05599c0,0 0,71.03678 0,100.33333l0.06999,-0.19596c0.64388,13.04557 9.1263,14.5293 12.84961,14.5293h83.8304c0.67188,0 1.79167,0 3.58333,0c7.16667,0 7.16667,-7.16667 7.16667,-7.16667v-125.41667c0,-1.98763 -1.5957,-3.58333 -3.58333,-3.58333z" fill="#17bf61"/><path d="M129,129h-83.8304c-4.77311,0 -5.75293,4.00326 -5.75293,8.95833c0,4.95508 0.97982,8.97233 5.75293,8.97233l83.8304,-0.014z" fill="#ffe0b2"/><path d="M45.1696,129c-4.17123,0 -5.44499,3.07943 -5.69694,7.16667h89.52734v-7.16667z" fill="#e0b990"/><path d="M50.16667,39.40267h75.25v17.91667h-75.25z" fill="#ffecb3"/><path d="M136.16667,129h-7.16667v25.08333c0.67188,0 1.79167,0 3.58333,0c7.16667,0 7.16667,-7.16667 7.16667,-7.16667v-21.486c0,1.97364 -1.5957,3.56934 -3.58333,3.56934z" fill="#1b922a"/></g></g></g></svg>
