<?xml version="1.0" encoding="UTF-8"?><svg id="b" xmlns="http://www.w3.org/2000/svg" viewBox="0 0 126.95 54.74"><defs><style>.d{fill:#b2d6de;}.e{fill:none;}.e,.f{stroke:#333;stroke-miterlimit:10;stroke-width:.5px;}.g{fill:#534e4b;}.g,.h,.i{fill-rule:evenodd;}.j{fill:gray;}.k{fill:#2f5269;}.l,.h{fill:#999;}.m{fill:#b3b3b3;}.f{fill:#8cc63f;}.i{fill:#518cb3;}</style></defs><g id="c"><g><g><polygon class="g" points="116.95 48.28 10 48.28 0 54.74 126.95 54.74 116.95 48.28"/><rect class="l" x="49.43" y="31.13" width="63.51" height="17.15"/><g><g><line class="e" x1="17.66" y1="48.28" x2="17.66" y2="34.44"/><line class="e" x1="30.55" y1="48.28" x2="30.55" y2="34.44"/></g><rect class="f" x="12.55" y="30.21" width="23.11" height="4.06" rx="2.03" ry="2.03"/></g><g><rect class="d" x="83.16" y="33.94" width="6.67" height="14.34"/><rect class="d" x="91.74" y="33.94" width="8.71" height="6.54"/><rect class="d" x="102.35" y="33.94" width="8.71" height="6.54"/><rect class="d" x="61.92" y="33.94" width="8.71" height="6.54"/><rect class="d" x="72.54" y="33.94" width="8.71" height="6.54"/><rect class="d" x="51.3" y="33.94" width="8.71" height="6.54"/></g><rect class="j" x="53.43" y="28.78" width="13.8" height="2.35"/><rect class="m" x="87.22" y="16.02" width="7.64" height="15.11"/><polygon class="h" points="96.54 8.72 85.6 8.72 83.65 11.23 85.6 15.99 96.54 15.99 98.49 11.23 96.54 8.72"/><rect class="m" x="90.67" y="2.65" width=".8" height="6.07"/></g><g><path class="i" d="M60.7,16l-2.57-.81L26.14,5.09c-1.45-.46-6.43-3.14-6.04-4.38h0c.39-1.24,6.01-.57,7.46-.12l42.14,13.3-8.99,2.1Z"/><polygon class="i" points="49.06 7.59 66.9 2.26 64.44 .94 40.28 4.82 49.06 7.59"/><polygon class="i" points="37.14 7.59 34.85 15.97 36.8 17.45 44 10.04 37.14 7.59"/><polygon class="i" points="69.65 13.9 72.19 10.48 71.11 9.79 63.87 12.07 69.65 13.9"/><circle class="k" cx="26.34" cy="6.91" r="1.12"/><circle class="k" cx="42.08" cy="11.93" r="1.12" transform="translate(17.93 48.4) rotate(-72.31)"/><circle class="k" cx="44.42" cy="12.68" r="1.12" transform="translate(18.85 51.15) rotate(-72.31)"/></g></g></g></svg>