<?xml version="1.0" encoding="UTF-8"?><svg id="b" xmlns="http://www.w3.org/2000/svg" viewBox="0 0 137.79 47.11"><defs><style>.d{fill:#b2d6de;}.e{fill:#bdccd4;}.e,.f{stroke:#333;stroke-miterlimit:10;stroke-width:.5px;}.g{fill:#998f87;}.h{fill:#c8eedb;}.h,.i,.j,.k,.l{fill-rule:evenodd;}.i{fill:#b7bd82;}.f{fill:none;}.j{fill:#534e4b;}.k{fill:#5b5f63;}.l{fill:#9da662;}</style></defs><g id="c"><g><g><path class="i" d="M0,5.36H37.94V42.97H0V5.36Z"/><path class="h" d="M1.79,31.31H18.07v4.09H1.79v-4.09Z"/><path class="h" d="M1.79,7.45H18.07v4.09H1.79V7.45Z"/><path class="h" d="M19.86,7.45h16.28v4.09H19.86V7.45Z"/><path class="h" d="M19.86,19.38h16.28v4.09H19.86v-4.09Z"/><path class="l" d="M37.94,18.63h48.07v24.34H37.94V18.63Z"/><path class="i" d="M42.74,18.63L44.67,0h7.69l-1.92,18.63h-7.69Z"/><path class="i" d="M57.16,18.63L59.08,0h7.69l-1.92,18.63h-7.69Z"/><path class="i" d="M71.58,18.63l1.92-18.63h7.69l-1.92,18.63h-7.69Z"/><path class="h" d="M1.79,25.35H18.07v4.09H1.79v-4.09Z"/><path class="h" d="M68.25,25.64h16.28v4.09h-16.28v-4.09Z"/><path class="h" d="M1.79,13.42H18.07v4.09H1.79v-4.09Z"/><path class="h" d="M68.25,20.09h16.28v4.09h-16.28v-4.09Z"/></g><polygon class="j" points="127.79 40.65 20.84 40.65 10.84 47.11 137.79 47.11 127.79 40.65"/><rect class="g" x="89.66" y="24.52" width="32.8" height="16.13"/><polygon class="k" points="123.7 20.84 88.43 20.84 87.13 24.52 125 24.52 123.7 20.84"/><g><g><line class="f" x1="28.51" y1="40.65" x2="28.51" y2="26.81"/><line class="f" x1="41.4" y1="40.65" x2="41.4" y2="26.81"/></g><rect class="e" x="23.4" y="22.58" width="23.11" height="4.06" rx="2.03" ry="2.03"/></g><g><rect class="d" x="91.88" y="27.97" width="6.67" height="12.68"/><rect class="d" x="100.69" y="27.97" width="8.71" height="5.78"/><rect class="d" x="111.55" y="27.97" width="8.71" height="5.78"/></g></g></g></svg>