<?xml version="1.0" encoding="UTF-8"?><svg id="b" xmlns="http://www.w3.org/2000/svg" viewBox="0 0 137.35 64.91"><defs><style>.d{fill:#b2d6de;}.e{fill:none;}.e,.f{stroke:#333;stroke-miterlimit:10;stroke-width:.5px;}.g{fill:#534e4b;}.g,.h,.i,.j,.k,.l{fill-rule:evenodd;}.h{fill:#f90;}.i{fill:#454d52;}.j{fill:#5d6670;}.m{fill:#999;}.k{fill:gray;}.l,.f{fill:#ffb442;}</style></defs><g id="c"><g><g><path class="i" d="M45.22,34.56h92.14v25.67H45.22v-25.67Z"/><path class="j" d="M137.35,34.57v-9.61l-17.22,9.61h17.22Z"/><path class="j" d="M120.13,34.57v-9.61l-17.22,9.61h17.22Z"/><path class="j" d="M102.9,34.57v-9.61l-17.22,9.61h17.22Z"/><path class="j" d="M85.67,34.57v-9.61l-17.22,9.61h17.22Z"/><path class="j" d="M47.21,34.56L49.4,0h3.69l2.19,34.56h-8.07Z"/><path class="j" d="M57.37,34.56L59.56,0h3.69l2.19,34.56h-8.07Z"/><path class="l" d="M45.22,37.95h92.14v1.8H45.22v-1.8Z"/><path class="l" d="M45.22,41.05h92.14v1.8H45.22v-1.8Z"/><path class="h" d="M48.45,15.08l.11-1.8h5.37l.11,1.8h-5.59Z"/><path class="h" d="M58.61,15.08l.11-1.8h5.37l.11,1.8h-5.59Z"/></g><g><polygon class="g" points="116.95 58.45 10 58.45 0 64.91 126.95 64.91 116.95 58.45"/><rect class="m" x="78.82" y="42.32" width="32.8" height="16.13"/><polygon class="k" points="112.85 38.63 77.59 38.63 76.29 42.32 114.16 42.32 112.85 38.63"/><g><g><line class="e" x1="17.66" y1="58.45" x2="17.66" y2="44.6"/><line class="e" x1="30.55" y1="58.45" x2="30.55" y2="44.6"/></g><rect class="f" x="12.55" y="40.38" width="23.11" height="4.06" rx="2.03" ry="2.03"/></g><g><rect class="d" x="81.03" y="45.77" width="6.67" height="12.68"/><rect class="d" x="89.85" y="45.77" width="8.71" height="5.78"/><rect class="d" x="100.7" y="45.77" width="8.71" height="5.78"/></g></g></g></g></svg>