<?xml version="1.0" encoding="UTF-8"?><svg id="b" xmlns="http://www.w3.org/2000/svg" viewBox="0 0 121.49 48.13"><defs><style>.d{fill:#b2d6de;}.e{fill:#998f87;}.f{stroke-linecap:round;stroke-width:.76px;}.f,.g,.h{stroke:#333;stroke-miterlimit:10;}.f,.h{fill:none;}.g,.h{stroke-width:.5px;}.g,.i{fill:#662d91;}.j{fill:#4d4d4d;}.k{fill:#534e4b;}.k,.l{fill-rule:evenodd;}.m{fill:#333;}.l{fill:#5b5f63;}.n{fill:gray;}.o{fill:#0071bc;}.p{fill:#999;}.q{fill:#ccc;}.r{fill:#b3b3b3;}.s{fill:#666;}</style></defs><g id="c"><g><g><line class="f" x1="96.85" y1="10.19" x2="96.85" y2=".71"/><rect class="q" x="92.19" y="9.33" width="20.65" height="13.34"/><g><path class="r" d="M102.52,17.72l-14.39,5.01s4.76,9.92,5.26,24.16h18.25c.5-14.24,5.26-24.16,5.26-24.16l-14.39-5.01Z"/><path class="i" d="M102.52,17.72l-14.39,5.01s.41,.87,1,2.43l13.38-4.13,13.38,4.13c.59-1.56,1-2.43,1-2.43l-14.39-5.01Z"/></g><rect class="j" x="90.93" y="6.4" width="23.17" height="2.92"/><g><circle class="n" cx="104.53" cy="24.06" r=".79"/><circle class="n" cx="100.51" cy="24.06" r=".79"/></g></g><g><polygon class="k" points="83.55 41.67 10 41.67 0 48.13 83.55 48.13 83.55 41.67"/><path class="o" d="M118.32,44.38c-1.71,0-3.11-.69-3.16-1.54-.05,.85-1.45,1.54-3.16,1.54h0c-1.73,0-3.14-.7-3.16-1.56-.03,.86-1.44,1.56-3.16,1.56s-3.11-.69-3.16-1.54c-.05,.85-1.45,1.54-3.16,1.54s-3.17-.71-3.17-1.58c0,.87-1.42,1.58-3.17,1.58s-3.11-.69-3.16-1.54c-.05,.85-1.45,1.54-3.16,1.54s-3.17-.71-3.17-1.58v5.33h37.94v-5.33c0,.87-1.42,1.58-3.17,1.58Z"/><rect class="e" x="40.95" y="25.54" width="32.8" height="16.13"/><polygon class="l" points="74.98 21.86 39.72 21.86 38.42 25.54 76.29 25.54 74.98 21.86"/><g><g><line class="h" x1="17.66" y1="41.67" x2="17.66" y2="27.83"/><line class="h" x1="30.55" y1="41.67" x2="30.55" y2="27.83"/></g><rect class="g" x="12.55" y="23.6" width="23.11" height="4.06" rx="2.03" ry="2.03"/></g><g><rect class="d" x="43.16" y="28.99" width="6.67" height="12.68"/><rect class="d" x="51.98" y="28.99" width="8.71" height="5.78"/><rect class="d" x="62.83" y="28.99" width="8.71" height="5.78"/></g><path class="m" d="M63.86,1.56c1.18-1.72,4.79-2.4,5.66,0l-.07,.07c-1.04-.29-1.76-.59-2.76-.79-.93-.09-1.93,.17-2.76,.79l-.07-.07h0Z"/><path class="m" d="M69.45,1.56c.87-2.4,4.47-1.72,5.66,0l-.07,.07c-.82-.62-1.83-.88-2.76-.79-1,.2-1.72,.51-2.76,.79l-.07-.07h0Z"/><ellipse class="m" cx="69.48" cy="1.59" rx=".42" ry=".75"/><path class="m" d="M71.86,5.87c1.18-1.72,4.79-2.4,5.66,0l-.07,.07c-1.04-.29-1.76-.59-2.76-.79-.93-.09-1.93,.17-2.76,.79l-.07-.07h0Z"/><path class="m" d="M77.45,5.87c.87-2.4,4.47-1.72,5.66,0l-.07,.07c-.82-.62-1.83-.88-2.76-.79-1,.2-1.72,.51-2.76,.79l-.07-.07h0Z"/><ellipse class="m" cx="77.48" cy="5.91" rx=".42" ry=".75"/><rect class="p" x="80.81" y="39.09" width="1.78" height="2.59"/><rect class="s" x="80.25" y="38.29" width="2.89" height=".8" rx=".4" ry=".4"/><rect class="q" x="80.81" y="39.6" width="1.78" height=".35"/></g></g></g></svg>