<?xml version="1.0" encoding="UTF-8"?><svg id="b" xmlns="http://www.w3.org/2000/svg" viewBox="0 0 130.22 62.59"><defs><style>.d{fill:#ff7bac;}.d,.e{stroke:#333;stroke-miterlimit:10;stroke-width:.5px;}.e,.f,.g{fill:none;}.f{stroke:#93278f;}.f,.h,.i,.g{fill-rule:evenodd;}.f,.g{stroke-linecap:round;stroke-linejoin:round;stroke-width:2px;}.j{fill:#6e6365;}.h{fill:#b3b3b3;}.i{fill:#9c8c90;}.g{stroke:#ff7bac;}</style></defs><g id="c"><g><g><path class="i" d="M18.74,0h22.31l5.58,5.42V60.68H13.16V5.42L18.74,0Z"/><path class="i" d="M13.04,15.93H113.68l13.04,12.67V60.69H0V28.61L13.04,15.93Z"/><path class="h" d="M59.66,30.3h7.4l4.61,4.48v25.9h-16.62v-25.9l4.61-4.48Z"/><path class="h" d="M37.34,30.3h7.4l4.61,4.48v25.9h-16.62v-25.9l4.61-4.48Z"/><path class="h" d="M81.99,30.3h7.4l4.61,4.48v25.9h-16.62v-25.9l4.61-4.48Z"/><path class="h" d="M104.31,30.3h7.4l4.61,4.48v25.9h-16.62v-25.9l4.61-4.48Z"/><path class="h" d="M15.01,30.3h7.4l4.61,4.48v25.9H10.4v-25.9l4.61-4.48Z"/><rect class="j" x="13.16" y="7.96" width="33.47" height="4.44"/></g><g><g><line class="e" x1="111.97" y1="62.59" x2="111.97" y2="48.75"/><line class="e" x1="124.86" y1="62.59" x2="124.86" y2="48.75"/></g><rect class="d" x="106.86" y="44.53" width="23.11" height="4.06" rx="2.03" ry="2.03"/></g><path class="f" d="M7.8,36.81c5.7,6.63,15.7,5.44,22,0,8.07,7.44,17.11,3.96,22.22,0,7.04,7.89,19.56,3.07,22.67,0,8.15,5.52,16.67,4.54,22.33,0,7.59,5.81,18.11,3.22,21.89,0"/><path class="g" d="M7.8,34.81c5.7,6.63,15.7,5.44,22,0,8.07,7.44,17.11,3.96,22.22,0,7.04,7.89,19.56,3.07,22.67,0,8.15,5.52,16.67,4.54,22.33,0,7.59,5.81,18.11,3.22,21.89,0"/></g></g></svg>