<?xml version="1.0" encoding="UTF-8"?><svg id="Layer_2" xmlns="http://www.w3.org/2000/svg" viewBox="0 0 126.95 50.97"><defs><style>.cls-1{fill:#b2d6de;}.cls-2{stroke-width:3.39px;}.cls-2,.cls-3,.cls-4,.cls-5,.cls-6,.cls-7,.cls-8{stroke-miterlimit:10;}.cls-2,.cls-3,.cls-5,.cls-6,.cls-7,.cls-8{fill:none;}.cls-2,.cls-5,.cls-6,.cls-7,.cls-8{stroke:#8c6239;}.cls-9{fill:#93cc66;}.cls-10{fill:#998f87;}.cls-11{fill:#3cc873;}.cls-3,.cls-4{stroke:#333;stroke-width:.5px;}.cls-4{fill:#006837;}.cls-12{fill:#534e4b;}.cls-12,.cls-13{fill-rule:evenodd;}.cls-5{stroke-width:4.71px;}.cls-13{fill:#5b5f63;}.cls-14{fill:#22b573;}.cls-6{stroke-width:5.5px;}.cls-15{fill:#3cb863;}.cls-7{stroke-width:4.43px;}.cls-8{stroke-width:3.96px;}</style></defs><g id="stations"><g><g><g><line class="cls-5" x1="49.75" y1="46.56" x2="49.75" y2="34.46"/><polygon class="cls-15" points="49.75 7.84 41.92 20.22 57.59 20.22 49.75 7.84"/><polygon class="cls-15" points="49.75 13.07 39.7 28.95 59.81 28.95 49.75 13.07"/><polygon class="cls-15" points="49.75 19.56 36.8 40.02 62.7 40.02 49.75 19.56"/></g><g><line class="cls-2" x1="37.43" y1="46.31" x2="37.43" y2="37.6"/><polygon class="cls-11" points="37.43 18.45 31.79 27.35 43.07 27.35 37.43 18.45"/><polygon class="cls-11" points="37.43 22.21 30.19 33.64 44.66 33.64 37.43 22.21"/><polygon class="cls-11" points="37.43 26.88 28.1 41.6 46.75 41.6 37.43 26.88"/></g><g><line class="cls-6" x1="62.7" y1="45.2" x2="62.7" y2="31.07"/><polygon class="cls-9" points="62.7 0 53.56 14.45 71.85 14.45 62.7 0"/><polygon class="cls-9" points="62.7 6.1 50.97 24.64 74.44 24.64 62.7 6.1"/><polygon class="cls-9" points="62.7 13.67 47.58 37.56 77.83 37.56 62.7 13.67"/></g><g><line class="cls-8" x1="86.36" y1="44.43" x2="86.36" y2="34.27"/><polygon class="cls-14" points="86.36 11.91 79.78 22.3 92.94 22.3 86.36 11.91"/><polygon class="cls-14" points="86.36 16.3 77.91 29.64 94.81 29.64 86.36 16.3"/><polygon class="cls-14" points="86.36 21.75 75.48 38.94 97.24 38.94 86.36 21.75"/></g><g><line class="cls-7" x1="74.04" y1="47.99" x2="74.04" y2="36.61"/><polygon class="cls-11" points="74.04 11.58 66.67 23.22 81.4 23.22 74.04 11.58"/><polygon class="cls-11" points="74.04 16.5 64.58 31.43 83.49 31.43 74.04 16.5"/><polygon class="cls-11" points="74.04 22.6 61.86 41.84 86.22 41.84 74.04 22.6"/></g></g><polygon class="cls-12" points="116.95 44.51 10 44.51 0 50.97 126.95 50.97 116.95 44.51"/><rect class="cls-10" x="78.82" y="28.39" width="32.8" height="16.13"/><polygon class="cls-13" points="112.85 24.7 77.59 24.7 76.29 28.39 114.16 28.39 112.85 24.7"/><g><g><line class="cls-3" x1="17.66" y1="44.51" x2="17.66" y2="30.67"/><line class="cls-3" x1="30.55" y1="44.51" x2="30.55" y2="30.67"/></g><rect class="cls-4" x="12.55" y="26.45" width="23.11" height="4.06" rx="2.03" ry="2.03"/></g><g><rect class="cls-1" x="81.03" y="31.84" width="6.67" height="12.68"/><rect class="cls-1" x="89.85" y="31.84" width="8.71" height="5.78"/><rect class="cls-1" x="100.7" y="31.84" width="8.71" height="5.78"/></g></g></g></svg>