<?xml version="1.0" encoding="UTF-8"?><svg id="Layer_2" xmlns="http://www.w3.org/2000/svg" viewBox="0 0 126.95 54.74"><defs><style>.cls-1{fill:#b2d6de;}.cls-2{fill:none;}.cls-2,.cls-3{stroke:#333;stroke-miterlimit:10;stroke-width:.5px;}.cls-4{fill:#534e4b;}.cls-4,.cls-5,.cls-6{fill-rule:evenodd;}.cls-7{fill:gray;}.cls-8{fill:#2f5269;}.cls-9,.cls-5{fill:#999;}.cls-10{fill:#b3b3b3;}.cls-3{fill:#8cc63f;}.cls-6{fill:#518cb3;}</style></defs><g id="stations"><g><g><polygon class="cls-4" points="116.95 48.28 10 48.28 0 54.74 126.95 54.74 116.95 48.28"/><rect class="cls-9" x="49.43" y="31.13" width="63.51" height="17.15"/><g><g><line class="cls-2" x1="17.66" y1="48.28" x2="17.66" y2="34.44"/><line class="cls-2" x1="30.55" y1="48.28" x2="30.55" y2="34.44"/></g><rect class="cls-3" x="12.55" y="30.21" width="23.11" height="4.06" rx="2.03" ry="2.03"/></g><g><rect class="cls-1" x="83.16" y="33.94" width="6.67" height="14.34"/><rect class="cls-1" x="91.74" y="33.94" width="8.71" height="6.54"/><rect class="cls-1" x="102.35" y="33.94" width="8.71" height="6.54"/><rect class="cls-1" x="61.92" y="33.94" width="8.71" height="6.54"/><rect class="cls-1" x="72.54" y="33.94" width="8.71" height="6.54"/><rect class="cls-1" x="51.3" y="33.94" width="8.71" height="6.54"/></g><rect class="cls-7" x="53.43" y="28.78" width="13.8" height="2.35"/><rect class="cls-10" x="87.22" y="16.02" width="7.64" height="15.11"/><polygon class="cls-5" points="96.54 8.72 85.6 8.72 83.65 11.23 85.6 15.99 96.54 15.99 98.49 11.23 96.54 8.72"/><rect class="cls-10" x="90.67" y="2.65" width=".8" height="6.07"/></g><g><path class="cls-6" d="M60.7,16l-2.57-.81L26.14,5.09c-1.45-.46-6.43-3.14-6.04-4.38h0c.39-1.24,6.01-.57,7.46-.12l42.14,13.3-8.99,2.1Z"/><polygon class="cls-6" points="49.06 7.59 66.9 2.26 64.44 .94 40.28 4.82 49.06 7.59"/><polygon class="cls-6" points="37.14 7.59 34.85 15.97 36.8 17.45 44 10.04 37.14 7.59"/><polygon class="cls-6" points="69.65 13.9 72.19 10.48 71.11 9.79 63.87 12.07 69.65 13.9"/><circle class="cls-8" cx="26.34" cy="6.91" r="1.12"/><circle class="cls-8" cx="42.08" cy="11.93" r="1.12" transform="translate(17.93 48.4) rotate(-72.31)"/><circle class="cls-8" cx="44.42" cy="12.68" r="1.12" transform="translate(18.85 51.15) rotate(-72.31)"/></g></g></g></svg>