<?xml version="1.0" encoding="UTF-8"?><svg id="Layer_2" xmlns="http://www.w3.org/2000/svg" viewBox="0 0 130.22 62.59"><defs><style>.cls-1{fill:#ff7bac;}.cls-1,.cls-2{stroke:#333;stroke-miterlimit:10;stroke-width:.5px;}.cls-2,.cls-3,.cls-4{fill:none;}.cls-3{stroke:#93278f;}.cls-3,.cls-5,.cls-6,.cls-4{fill-rule:evenodd;}.cls-3,.cls-4{stroke-linecap:round;stroke-linejoin:round;stroke-width:2px;}.cls-7{fill:#6e6365;}.cls-5{fill:#b3b3b3;}.cls-6{fill:#9c8c90;}.cls-4{stroke:#ff7bac;}</style></defs><g id="stations"><g><g><path class="cls-6" d="M18.74,0h22.31l5.58,5.42V60.68H13.16V5.42L18.74,0Z"/><path class="cls-6" d="M13.04,15.93H113.68l13.04,12.67V60.69H0V28.61L13.04,15.93Z"/><path class="cls-5" d="M59.66,30.3h7.4l4.61,4.48v25.9h-16.62v-25.9l4.61-4.48Z"/><path class="cls-5" d="M37.34,30.3h7.4l4.61,4.48v25.9h-16.62v-25.9l4.61-4.48Z"/><path class="cls-5" d="M81.99,30.3h7.4l4.61,4.48v25.9h-16.62v-25.9l4.61-4.48Z"/><path class="cls-5" d="M104.31,30.3h7.4l4.61,4.48v25.9h-16.62v-25.9l4.61-4.48Z"/><path class="cls-5" d="M15.01,30.3h7.4l4.61,4.48v25.9H10.4v-25.9l4.61-4.48Z"/><rect class="cls-7" x="13.16" y="7.96" width="33.47" height="4.44"/></g><g><g><line class="cls-2" x1="111.97" y1="62.59" x2="111.97" y2="48.75"/><line class="cls-2" x1="124.86" y1="62.59" x2="124.86" y2="48.75"/></g><rect class="cls-1" x="106.86" y="44.53" width="23.11" height="4.06" rx="2.03" ry="2.03"/></g><path class="cls-3" d="M7.8,36.81c5.7,6.63,15.7,5.44,22,0,8.07,7.44,17.11,3.96,22.22,0,7.04,7.89,19.56,3.07,22.67,0,8.15,5.52,16.67,4.54,22.33,0,7.59,5.81,18.11,3.22,21.89,0"/><path class="cls-4" d="M7.8,34.81c5.7,6.63,15.7,5.44,22,0,8.07,7.44,17.11,3.96,22.22,0,7.04,7.89,19.56,3.07,22.67,0,8.15,5.52,16.67,4.54,22.33,0,7.59,5.81,18.11,3.22,21.89,0"/></g></g></svg>