<?xml version="1.0" encoding="UTF-8"?><svg id="Layer_2" xmlns="http://www.w3.org/2000/svg" viewBox="0 0 134.41 90.7"><defs><style>.cls-1{fill:#b2d6de;}.cls-2{fill:none;}.cls-2,.cls-3{stroke:#333;stroke-miterlimit:10;stroke-width:.5px;}.cls-4{fill:#736357;}.cls-4,.cls-5,.cls-6,.cls-7{fill-rule:evenodd;}.cls-5{fill:#e6e6e6;}.cls-6{fill:#998675;}.cls-3{fill:#e32e35;}.cls-7{fill:#c7b299;}</style></defs><g id="stations"><g><path class="cls-7" d="M24.18,50.16h110.23v40.37H24.18V50.16Z"/><path class="cls-7" d="M66.99,13.62h24.61v31.64h-24.61V13.62Z"/><path class="cls-6" d="M66.99,13.64L79.29,0l12.31,13.64h-24.61Z"/><path class="cls-5" d="M71.64,26.32h0c0-4.23,3.43-7.66,7.66-7.66h0c2.03,0,3.98,.81,5.42,2.24,1.44,1.44,2.24,3.39,2.24,5.42h0c0,4.23-3.43,7.66-7.66,7.66h0c-4.23,0-7.66-3.43-7.66-7.66Z"/><path class="cls-4" d="M24.17,45.26h110.23v4.9H24.17v-4.9Z"/><path class="cls-4" d="M24.18,45.26l21.4-6.24,21.4,6.24H24.18Z"/><path class="cls-4" d="M91.6,45.26l21.4-6.24,21.4,6.24h-42.8Z"/><g><rect class="cls-1" x="28.31" y="72.8" width="7.72" height="11.74" rx="1" ry="1"/><path class="cls-1" d="M93.54,72.8h13.13c.88,0,1.6,.72,1.6,1.6v16.13h-16.33v-16.13c0-.88,.72-1.6,1.6-1.6Z"/><path class="cls-1" d="M51.92,72.8h13.13c.88,0,1.6,.72,1.6,1.6v16.13h-16.33v-16.13c0-.88,.72-1.6,1.6-1.6Z"/><rect class="cls-1" x="39.31" y="72.8" width="7.72" height="11.74" rx="1" ry="1"/><rect class="cls-1" x="69.93" y="72.8" width="7.72" height="11.74" rx="1" ry="1"/><rect class="cls-1" x="80.94" y="72.8" width="7.72" height="11.74" rx="1" ry="1"/><rect class="cls-1" x="111.56" y="72.8" width="7.72" height="11.74" rx="1" ry="1"/><rect class="cls-1" x="122.56" y="72.8" width="7.72" height="11.74" rx="1" ry="1"/></g><g><rect class="cls-1" x="28.31" y="53.36" width="7.72" height="11.74" rx="1" ry="1"/><rect class="cls-1" x="39.32" y="53.36" width="7.72" height="11.74" rx="1" ry="1"/><rect class="cls-1" x="69.94" y="53.36" width="7.72" height="11.74" rx="1" ry="1"/><rect class="cls-1" x="80.94" y="53.36" width="7.72" height="11.74" rx="1" ry="1"/><rect class="cls-1" x="111.56" y="53.36" width="7.72" height="11.74" rx="1" ry="1"/><rect class="cls-1" x="122.57" y="53.36" width="7.72" height="11.74" rx="1" ry="1"/><rect class="cls-1" x="90.75" y="53.36" width="7.72" height="11.74" rx="1" ry="1"/><rect class="cls-1" x="101.75" y="53.36" width="7.72" height="11.74" rx="1" ry="1"/><rect class="cls-1" x="49.12" y="53.36" width="7.72" height="11.74" rx="1" ry="1"/><rect class="cls-1" x="60.13" y="53.36" width="7.72" height="11.74" rx="1" ry="1"/></g><g><g><line class="cls-2" x1="5.36" y1="90.7" x2="5.36" y2="76.85"/><line class="cls-2" x1="18.25" y1="90.7" x2="18.25" y2="76.85"/></g><rect class="cls-3" x=".25" y="72.63" width="23.11" height="4.06" rx="2.03" ry="2.03"/></g></g></g></svg>