<?xml version="1.0" encoding="UTF-8"?><svg id="Layer_2" xmlns="http://www.w3.org/2000/svg" viewBox="0 0 126.95 51.51"><defs><style>.cls-1{fill:#b2d6de;}.cls-2{fill:#998f87;}.cls-3{fill:none;}.cls-3,.cls-4{stroke:#333;stroke-miterlimit:10;stroke-width:.5px;}.cls-5{fill:#534e4b;}.cls-5,.cls-6,.cls-7,.cls-8,.cls-9,.cls-10{fill-rule:evenodd;}.cls-6{fill:#5b5f63;}.cls-4{fill:#fcee21;}.cls-7{fill:#b0a69b;}.cls-8{fill:#39b54a;}.cls-9{fill:#c3def2;}.cls-10{fill:#c7b299;}</style></defs><g id="stations"><g><g><path class="cls-8" d="M24.22,43.74c.15-.67,.14-1.39-.1-2.09-.57-1.71-2.21-2.75-3.92-2.67,0-.02,0-.05-.02-.07-.69-2.06-2.92-3.18-4.99-2.49-1.29,.43-2.2,1.46-2.54,2.67-.18-.03-.37-.06-.56-.06-2.18,0-3.94,1.76-3.94,3.94,0,.26,.03,.52,.08,.76h15.99Z"/><g><path class="cls-7" d="M50.48,10.09h18.5V45.09h-18.5V10.09Z"/><path class="cls-9" d="M58.72,12.32v8.36h-5.89V12.32h5.89Z"/><path class="cls-9" d="M66.63,12.32v8.36h-5.89V12.32h5.89Z"/><path class="cls-9" d="M58.72,22.57v8.36h-5.89v-8.36h5.89Z"/><path class="cls-9" d="M66.63,22.57v8.36h-5.89v-8.36h5.89Z"/><path class="cls-9" d="M58.72,32.72v8.36h-5.89v-8.36h5.89Z"/><path class="cls-9" d="M66.63,32.72v12.37h-5.89v-12.37h5.89Z"/><g><path class="cls-10" d="M17.6,0h26.49V45.09H17.6V0Z"/><path class="cls-9" d="M33.84,12.32v8.36h-5.89V12.32h5.89Z"/><path class="cls-9" d="M41.74,12.32v8.36h-5.89V12.32h5.89Z"/><path class="cls-9" d="M33.84,22.57v8.36h-5.89v-8.36h5.89Z"/><path class="cls-9" d="M41.74,22.57v8.36h-5.89v-8.36h5.89Z"/><path class="cls-9" d="M33.84,32.72v8.36h-5.89v-8.36h5.89Z"/><path class="cls-9" d="M25.93,32.72v12.37h-5.89v-12.37h5.89Z"/><path class="cls-9" d="M25.93,2.11V10.48h-5.89V2.11h5.89Z"/><path class="cls-9" d="M33.84,2.11V10.48h-5.89V2.11h5.89Z"/><path class="cls-9" d="M25.93,12.37v8.36h-5.89V12.37h5.89Z"/><path class="cls-9" d="M25.93,22.52v8.36h-5.89v-8.36h5.89Z"/><path class="cls-9" d="M41.74,2.11V10.48h-5.89V2.11h5.89Z"/><path class="cls-9" d="M41.74,32.72v8.36h-5.89v-8.36h5.89Z"/></g></g><path class="cls-8" d="M51.19,44.04c-.58-1.73-2.23-2.77-3.97-2.67-.71-2.02-2.92-3.11-4.96-2.43-.13,.04-.24,.11-.36,.16-.71-.67-1.65-1.08-2.7-1.08-2.18,0-3.94,1.76-3.94,3.94,0,.1,.02,.2,.03,.3-1.82,.35-3.19,1.94-3.19,3.86h19.19c.15-.67,.14-1.39-.1-2.09Z"/><path class="cls-8" d="M83.56,46.27c.15-.67,.14-1.39-.1-2.09-.57-1.71-2.21-2.75-3.92-2.67,0-.02,0-.05-.02-.07-.69-2.06-2.92-3.18-4.99-2.49-1.29,.43-2.2,1.46-2.54,2.67-.18-.03-.37-.06-.56-.06-2.18,0-3.94,1.76-3.94,3.94,0,.26,.03,.52,.08,.76h15.99Z"/></g><polygon class="cls-5" points="116.95 45.05 10 45.05 0 51.51 126.95 51.51 116.95 45.05"/><rect class="cls-2" x="78.82" y="28.92" width="32.8" height="16.13"/><polygon class="cls-6" points="112.85 25.23 77.59 25.23 76.29 28.92 114.16 28.92 112.85 25.23"/><g><g><line class="cls-3" x1="17.66" y1="45.05" x2="17.66" y2="31.2"/><line class="cls-3" x1="30.55" y1="45.05" x2="30.55" y2="31.2"/></g><rect class="cls-4" x="12.55" y="26.98" width="23.11" height="4.06" rx="2.03" ry="2.03"/></g><g><rect class="cls-1" x="81.03" y="32.37" width="6.67" height="12.68"/><rect class="cls-1" x="89.85" y="32.37" width="8.71" height="5.78"/><rect class="cls-1" x="100.7" y="32.37" width="8.71" height="5.78"/></g></g></g></svg>