<?xml version="1.0" encoding="UTF-8"?><svg id="Layer_2" xmlns="http://www.w3.org/2000/svg" viewBox="0 0 130.64 88.69"><defs><style>.cls-1{fill:#b2d6de;}.cls-2{fill:#998f87;}.cls-3{fill:#5b6499;}.cls-3,.cls-4,.cls-5,.cls-6,.cls-7,.cls-8,.cls-9,.cls-10{fill-rule:evenodd;}.cls-4{fill:#6c7099;}.cls-5{fill:#4d5580;}.cls-11{fill:none;}.cls-11,.cls-12{stroke:#333;stroke-miterlimit:10;stroke-width:.5px;}.cls-6{fill:#959dcc;}.cls-7{fill:#534e4b;}.cls-8{fill:#8289b3;}.cls-9{fill:#5b5f63;}.cls-10{fill:#c5cae9;}.cls-12{fill:#0071bc;}</style></defs><g id="stations"><g><path class="cls-5" d="M38.74,33.66h42.89v51.48H38.74V33.66Z"/><path class="cls-4" d="M70.43,12.06h31.52V85.15h-31.52V12.06Z"/><path class="cls-6" d="M16.25,0H48.95V85.15H16.25V0Z"/><path class="cls-8" d="M87.73,46.27h24.29v38.88h-24.29V46.27Z"/><path class="cls-3" d="M0,22H21.41v63.15H0V22Z"/><path class="cls-10" d="M3.88,25.88h5.24v5.24H3.88v-5.24Z"/><path class="cls-10" d="M12.06,25.88h5.24v5.24h-5.24v-5.24Z"/><path class="cls-10" d="M3.88,33.66h5.24v5.24H3.88v-5.24Z"/><path class="cls-10" d="M73.97,29.03v-5.24h5.24v5.24h-5.24Z"/><path class="cls-10" d="M73.97,20.85v-5.24h5.24v5.24h-5.24Z"/><path class="cls-10" d="M93.42,29.03v-5.24h5.24v5.24h-5.24Z"/><path class="cls-10" d="M46.21,2.94v5.24h-5.24V2.94h5.24Z"/><path class="cls-10" d="M46.21,11.12v5.24h-5.24v-5.24h5.24Z"/><path class="cls-10" d="M38.43,2.94v5.24h-5.24V2.94h5.24Z"/><path class="cls-10" d="M46.21,19.3v5.24h-5.24v-5.24h5.24Z"/><path class="cls-10" d="M38.43,11.12v5.24h-5.24v-5.24h5.24Z"/><path class="cls-10" d="M56.41,35.99v5.24h-5.24v-5.24h5.24Z"/><path class="cls-10" d="M95.71,49.21v5.24h-5.24v-5.24h5.24Z"/><g><polygon class="cls-7" points="120.64 82.23 13.69 82.23 3.69 88.69 130.64 88.69 120.64 82.23"/><rect class="cls-2" x="82.52" y="66.11" width="32.8" height="16.13"/><polygon class="cls-9" points="116.55 62.42 81.28 62.42 79.98 66.11 117.85 66.11 116.55 62.42"/><g><g><line class="cls-11" x1="21.36" y1="82.23" x2="21.36" y2="68.39"/><line class="cls-11" x1="34.25" y1="82.23" x2="34.25" y2="68.39"/></g><rect class="cls-12" x="16.25" y="64.17" width="23.11" height="4.06" rx="2.03" ry="2.03"/></g><g><rect class="cls-1" x="84.73" y="69.55" width="6.67" height="12.68"/><rect class="cls-1" x="93.54" y="69.55" width="8.71" height="5.78"/><rect class="cls-1" x="104.4" y="69.55" width="8.71" height="5.78"/></g></g></g></g></svg>