<svg xmlns="http://www.w3.org/2000/svg" viewBox="0 0 1000 700">
    <g id="sky">
        <rect width="1000" height="700" style="fill:#56d6ff"/>
    </g>
    <g id="clouds">
        <g id="cloud-3">
            <ellipse cx="276.5" cy="222.56" rx="93.5" ry="37.44" style="fill:#fff"/>
            <ellipse cx="319" cy="192.58" rx="61" ry="37.42" style="fill:#fff"/>
            <ellipse cx="379.5" cy="213.5" rx="88.5" ry="39.5" style="fill:#fff"/>
        </g>
        <g id="cloud-2">
            <ellipse cx="707.67" cy="106.76" rx="93.5" ry="37.44" style="fill:#fff"/>
            <ellipse cx="750.17" cy="76.78" rx="61" ry="37.42" style="fill:#fff"/>
            <ellipse cx="810.67" cy="97.7" rx="88.5" ry="39.5" style="fill:#fff"/>
        </g>
        <g id="cloud-1">
            <ellipse cx="685.67" cy="262.76" rx="93.5" ry="37.44" style="fill:#fff"/>
            <ellipse cx="728.17" cy="232.78" rx="61" ry="37.42" style="fill:#fff"/>
            <ellipse cx="788.67" cy="253.7" rx="88.5" ry="39.5" style="fill:#fff"/>
        </g>
    </g>
    <g id="cockpit">
        <polygon points="-255 323 -255 829.12 1232 829.12 1232 489.87 488.5 321.87 108.14 290.19 -255 323"
                 style="fill:#666"/>
        <rect x="79" y="-90" width="55.33" height="512" style="fill:#666"/>
        <polygon points="-255 356.88 -255 863 1232 863 1232 523.75 488.5 355.75 108.14 324.07 -255 356.88"
                 style="fill:#999"/>
        <rect x="26" y="396" width="551" height="287" style="fill:#ddd"/>
        <g id="button-1">
            <rect x="47" y="425" width="93" height="93" rx="11.83" style="fill:#333"/>
            <path d="M97.3,441.46v49.31h9.09c2.17,0,3.72.42,4.64,1.25a4.23,4.23,0,0,1,1.38,3.28,4.17,4.17,0,0,1-1.38,3.23c-.92.83-2.47,1.25-4.64,1.25H79.19c-2.17,0-3.71-.42-4.64-1.25a4.23,4.23,0,0,1-1.38-3.28A4.18,4.18,0,0,1,74.55,492c.93-.83,2.47-1.25,4.64-1.25h9.1V453.2l-8,2.11a12.22,12.22,0,0,1-2.91.52,3.88,3.88,0,0,1-3-1.36,4.73,4.73,0,0,1-1.25-3.34,4.07,4.07,0,0,1,.92-2.83,8.21,8.21,0,0,1,3.87-1.83Z"
                  style="fill:#fff"/>
        </g>
        <g id="button-2">
            <rect x="182.33" y="425" width="93" height="93" rx="11.83" style="fill:#333"/>
            <path d="M219.62,490.77h19.73a5,5,0,0,1,3.08-1.32,4.13,4.13,0,0,1,3.27,1.37c.81.9,1.21,2.46,1.21,4.65v4.31h-41v-9.54q24.34-20.07,29.4-25.84,2.53-2.94,2.54-5.58a7.61,7.61,0,0,0-2.87-5.82,11.24,11.24,0,0,0-7.67-2.53,11.7,11.7,0,0,0-8,2.82,10.17,10.17,0,0,0-2.68,4.43,5.23,5.23,0,0,1-1.7,2.64,4.65,4.65,0,0,1-5.84-.53,4.13,4.13,0,0,1-1.34-3.07q0-2.64,2.44-6.59a17.23,17.23,0,0,1,7.12-6.33,22.2,22.2,0,0,1,10.17-2.38q8.52,0,14,5.17a16.56,16.56,0,0,1,5.45,12.5,15.51,15.51,0,0,1-1.56,6.92q-1.56,3.19-7.49,8.81Q233.12,479.3,219.62,490.77Z"
                  style="fill:#fff"/>
        </g>
        <g id="button-3">
            <rect x="317.67" y="425" width="93" height="93" rx="11.83" style="fill:#333"/>
            <path d="M376.22,469.68a18.56,18.56,0,0,1,6,6.3,16.3,16.3,0,0,1,2,8A16,16,0,0,1,374,499q-5,2.08-13,2.09-10.47,0-15.74-3.25-2.94-1.85-2.94-4.4a4.53,4.53,0,0,1,1.29-3.27,4.25,4.25,0,0,1,3.15-1.34,4.8,4.8,0,0,1,2.63.88,11.72,11.72,0,0,0,3.65,1.75,33.45,33.45,0,0,0,7.25.62q7.88,0,11.38-2a6.38,6.38,0,0,0,3.52-5.78,8.48,8.48,0,0,0-2-5.34,13.26,13.26,0,0,0-5.48-4,24.09,24.09,0,0,0-6.67-1.1,5,5,0,0,1-3.45-1.38,4.29,4.29,0,0,1-1.21-3.1,4.41,4.41,0,0,1,1.32-3.25A4.51,4.51,0,0,1,361,464.8c3,0,4.58,0,4.79,0a9.11,9.11,0,0,0,3.51-1.15,7.71,7.71,0,0,0,2.84-2.66,6.45,6.45,0,0,0,1.07-3.49,6.25,6.25,0,0,0-2.52-4.94q-2.54-2.08-7.59-2.09-6.49,0-9.93,3.78a6.74,6.74,0,0,1-1.62,1.41,4.45,4.45,0,0,1-2.07.48,4.31,4.31,0,0,1-3.16-1.32,4.41,4.41,0,0,1-1.32-3.25c0-2,1.35-4,4-5.89q5.89-4.17,14.72-4.18,8.36,0,13.41,4.75a15.12,15.12,0,0,1,5.05,11.43,14.47,14.47,0,0,1-1.49,6.48A17.66,17.66,0,0,1,376.22,469.68Z"
                  style="fill:#fff"/>
        </g>
        <g id="button-4">
            <rect x="453" y="425" width="93" height="93" rx="11.83" style="fill:#333"/>
            <path d="M511.91,442.92v35.24a6.11,6.11,0,0,1,4.22,1.25,4.52,4.52,0,0,1,0,6.48,6,6,0,0,1-4.2,1.28v3.6a6,6,0,0,1,4.22,1.28,4.24,4.24,0,0,1,1.36,3.25,4.17,4.17,0,0,1-1.38,3.23c-.93.83-2.47,1.25-4.64,1.25H499.38c-2.16,0-3.71-.42-4.63-1.25a4.24,4.24,0,0,1-1.39-3.28,4.19,4.19,0,0,1,1.39-3.23c.92-.83,2.47-1.25,4.63-1.25h3.52v-3.6H478.42v-7.52L500,442.92Zm-9,35.24V456l-13,22.15Z"
                  style="fill:#fff"/>
        </g>
        <g id="button-5">
            <rect x="47.46" y="559.62" width="93" height="93" rx="11.83" style="fill:#333"/>
            <path d="M85.58,586.54v10.73a30.34,30.34,0,0,1,9.1-1.59,18.44,18.44,0,0,1,13.8,5.67Q114,607,114,616q0,9.22-5.56,14.48t-17,5.25q-10.11,0-16-3.82c-2.28-1.47-3.42-3.15-3.42-5.06a4.27,4.27,0,0,1,1.34-3.14,4.35,4.35,0,0,1,3.18-1.34,5.45,5.45,0,0,1,3.34,1.47,10.8,10.8,0,0,0,3.78,2,26.2,26.2,0,0,0,7.21.83q8.18,0,11.16-2.61t3-8q0-5.33-2.88-8.35a9.73,9.73,0,0,0-7.4-3q-4.89,0-11.12,3.17a5.38,5.38,0,0,1-2.46.74,4.19,4.19,0,0,1-3.23-1.4,5.16,5.16,0,0,1-1.3-3.65v-26h27.55c2.17,0,3.72.41,4.64,1.25a4.49,4.49,0,0,1,0,6.5c-.92.84-2.47,1.25-4.64,1.25Z"
                  style="fill:#fff"/>
        </g>
        <g id="button-6">
            <rect x="182.79" y="559.62" width="93" height="93" rx="11.83" style="fill:#333"/>
            <path d="M220,603.64a25.44,25.44,0,0,1,6.2-4,16,16,0,0,1,6.28-1.25,16.57,16.57,0,0,1,12.4,5.62,19.76,19.76,0,0,1,5.31,14.11c0,5.24-1.64,9.49-4.94,12.72s-7.77,4.86-13.43,4.86q-7.07,0-11.64-3.3t-6.9-10.15A47.41,47.41,0,0,1,211,607q0-10.11,4.62-16.81a34.49,34.49,0,0,1,10.85-10.39,25.5,25.5,0,0,1,13.18-3.7q5.51,0,8.53,2.16a4.41,4.41,0,0,1,2,3.69,4.56,4.56,0,0,1-1.32,3.32,4.31,4.31,0,0,1-3.17,1.34,7.2,7.2,0,0,1-3-1.06,4.94,4.94,0,0,0-2.28-.61,19,19,0,0,0-8.92,2.44,22,22,0,0,0-8,7.49A24.43,24.43,0,0,0,220,603.64Zm1.32,13.93c.94,3.51,2.21,5.92,3.8,7.21s3.88,1.93,6.84,1.93,5.23-.78,6.83-2.33a8.4,8.4,0,0,0,2.4-6.33,10.91,10.91,0,0,0-2.75-7.6,8.19,8.19,0,0,0-6.18-3q-2.72,0-5.82,2.68A20,20,0,0,0,221.35,617.57Z"
                  style="fill:#fff"/>
        </g>
        <g id="button-7">
            <rect x="318.12" y="559.62" width="93" height="93" rx="11.83" style="fill:#333"/>
            <path d="M373.12,586.54H352.51a5.77,5.77,0,0,1-1.36,3.81,4.7,4.7,0,0,1-6.4-.2c-.83-.91-1.25-2.45-1.25-4.62v-8h39.11v9L368,630a7.92,7.92,0,0,1-2,3.63,4.19,4.19,0,0,1-2.7.9,4.43,4.43,0,0,1-3.23-1.32,4.11,4.11,0,0,1-1.34-3,11.07,11.07,0,0,1,.7-3.08Z"
                  style="fill:#fff"/>
        </g>
        <g id="button-8">
            <rect x="453" y="560" width="93" height="93" rx="11.83" style="fill:#333"/>
            <path d="M511.47,606a18.13,18.13,0,0,1,5.21,6.08,16.9,16.9,0,0,1-.49,15.82,15,15,0,0,1-7,6,24.75,24.75,0,0,1-10.55,2.2,24.15,24.15,0,0,1-10.46-2.2,15,15,0,0,1-6.87-6,16.86,16.86,0,0,1-.49-15.8,18,18,0,0,1,5.21-6.08,20.35,20.35,0,0,1-4.57-6,15,15,0,0,1-1.54-6.68,15.84,15.84,0,0,1,5.27-11.89q5.28-5,13.54-5t13.53,5a15.81,15.81,0,0,1,5.28,11.89,15.37,15.37,0,0,1-1.52,6.72A19.28,19.28,0,0,1,511.47,606Zm-2.07,14a8.66,8.66,0,0,0-3-6.43,11.42,11.42,0,0,0-15.16,0,8.75,8.75,0,0,0-3.06,6.52,6.11,6.11,0,0,0,2.64,4.9c1.76,1.39,4.42,2.09,8,2.09s6.28-.7,8-2.09A6.21,6.21,0,0,0,509.4,620Zm-1-26.49a7.34,7.34,0,0,0-2.62-5.69,11.78,11.78,0,0,0-14.15,0,7.55,7.55,0,0,0,0,11.42,11.83,11.83,0,0,0,14.15,0A7.41,7.41,0,0,0,508.35,593.52Z"
                  style="fill:#fff"/>
        </g>
    </g>
</svg>
